<svg width="200" height="200" viewBox="0 0 200 200" fill="none" xmlns="http://www.w3.org/2000/svg">
<rect width="200" height="200" rx="100" fill="#19A979"/>
<path d="M119.2 43.5705C104.072 39.4741 87.9366 41.5524 74.3406 49.3487C60.7446 57.145 50.8008 70.0211 46.6952 85.1465C46.1336 87.2504 45.685 89.3829 45.3512 91.5347C45.3768 92.0748 45.3239 92.6157 45.1941 93.1405C50.0115 90.6097 54.8114 90.9238 60.2571 94.1354C66.017 97.6263 72.667 100.209 78.2699 103.997C78.2862 103.816 78.2498 103.634 78.1651 103.473C77.4096 96.6933 79.3741 89.8903 83.6279 84.5567C87.8817 79.2231 94.0773 75.7945 100.856 75.023C103.905 74.676 106.991 74.883 109.967 75.6339C112.794 76.3968 115.771 76.41 118.605 75.6724C121.439 74.9349 124.033 73.4718 126.129 71.4275L126.374 71.1831C128.422 69.1489 129.901 66.6134 130.663 63.8293C131.426 61.0452 131.445 58.1099 130.719 55.316C129.993 52.5222 128.548 49.9674 126.527 47.9065C124.505 45.8456 121.979 44.3506 119.2 43.5705V43.5705Z" fill="url(#paint0_linear_13248_378)"/>
<path d="M101.082 41.5111C87.4526 42.1555 74.4633 47.485 64.3091 56.5994C54.1548 65.7137 47.4582 78.0539 45.3508 91.5349C45.0225 93.5046 44.8127 95.4921 44.7224 97.4868C45.5739 96.1206 46.7715 95.0038 48.1938 94.2497C49.6161 93.4956 51.2125 93.1311 52.8212 93.1931C54.979 93.107 57.098 93.7843 58.8059 95.1059C60.5137 96.4275 61.7011 98.3088 62.1592 100.419C62.6419 99.8488 63.2477 99.3954 63.9309 99.0931C64.6142 98.7908 65.3571 98.6474 66.1038 98.6737C67.4926 98.6737 68.8245 99.2254 69.8064 100.207C70.7884 101.189 71.3401 102.521 71.3401 103.91C71.3361 104.504 71.2359 105.093 71.0434 105.655C71.473 105.851 71.853 106.141 72.1551 106.503C72.4573 106.866 72.6739 107.292 72.7888 107.75C72.8001 107.23 72.9139 106.717 73.1236 106.24C73.3332 105.764 73.6347 105.333 74.0107 104.974C74.3868 104.614 74.83 104.331 75.3152 104.143C75.8003 103.955 76.3179 103.863 76.8382 103.875C77.2943 103.875 77.7477 103.946 78.1822 104.085C78.1985 103.904 78.1621 103.722 78.0774 103.561C77.9902 102.688 77.9553 101.815 77.9378 100.978C77.6935 99.2322 77.5189 97.3472 77.4491 95.5145C76.3844 70.8342 95.584 49.3481 118.659 43.4136C112.928 41.9015 107.003 41.2602 101.082 41.5111V41.5111Z" fill="url(#paint1_linear_13248_378)"/>
<path d="M52.5599 113.597C57.505 113.597 61.5139 109.588 61.5139 104.643C61.5139 99.6975 57.505 95.6887 52.5599 95.6887C47.6147 95.6887 43.6058 99.6975 43.6058 104.643C43.6058 109.588 47.6147 113.597 52.5599 113.597Z" fill="white"/>
<path d="M66.2436 107.314C68.0752 107.314 69.5599 105.829 69.5599 103.997C69.5599 102.166 68.0752 100.681 66.2436 100.681C64.4121 100.681 62.9273 102.166 62.9273 103.997C62.9273 105.829 64.4121 107.314 66.2436 107.314Z" fill="white"/>
<path d="M58.9128 124.995C61.5541 124.995 63.6953 122.854 63.6953 120.212C63.6953 117.571 61.5541 115.43 58.9128 115.43C56.2715 115.43 54.1304 117.571 54.1304 120.212C54.1304 122.854 56.2715 124.995 58.9128 124.995Z" fill="white"/>
<path d="M77.1696 110.159C78.3842 110.159 79.3689 109.174 79.3689 107.96C79.3689 106.745 78.3842 105.76 77.1696 105.76C75.955 105.76 74.9704 106.745 74.9704 107.96C74.9704 109.174 75.955 110.159 77.1696 110.159Z" fill="white"/>
<path d="M82.0224 128.974C84.2299 128.974 86.0194 127.184 86.0194 124.977C86.0194 122.769 84.2299 120.98 82.0224 120.98C79.8149 120.98 78.0254 122.769 78.0254 124.977C78.0254 127.184 79.8149 128.974 82.0224 128.974Z" fill="white"/>
<path d="M57.6559 140.093C60.9912 140.093 63.695 137.389 63.695 134.054C63.695 130.718 60.9912 128.014 57.6559 128.014C54.3205 128.014 51.6167 130.718 51.6167 134.054C51.6167 137.389 54.3205 140.093 57.6559 140.093Z" fill="white"/>
<path d="M48.3189 124.977C50.0734 124.977 51.4956 123.555 51.4956 121.8C51.4956 120.046 50.0734 118.623 48.3189 118.623C46.5645 118.623 45.1423 120.046 45.1423 121.8C45.1423 123.555 46.5645 124.977 48.3189 124.977Z" fill="white"/>
<path d="M68.5652 140.127C70.5028 140.127 72.0735 138.556 72.0735 136.619C72.0735 134.681 70.5028 133.111 68.5652 133.111C66.6276 133.111 65.0569 134.681 65.0569 136.619C65.0569 138.556 66.6276 140.127 68.5652 140.127Z" fill="white"/>
<path d="M72.9639 152.136C74.8533 152.136 76.3849 150.604 76.3849 148.715C76.3849 146.826 74.8533 145.294 72.9639 145.294C71.0745 145.294 69.5428 146.826 69.5428 148.715C69.5428 150.604 71.0745 152.136 72.9639 152.136Z" fill="white"/>
<path d="M80.7475 141.332C83.0225 141.332 84.8667 139.488 84.8667 137.213C84.8667 134.938 83.0225 133.094 80.7475 133.094C78.4725 133.094 76.6283 134.938 76.6283 137.213C76.6283 139.488 78.4725 141.332 80.7475 141.332Z" fill="white"/>
<path d="M90.9421 131.889C92.2821 131.889 93.3683 130.803 93.3683 129.463C93.3683 128.123 92.2821 127.037 90.9421 127.037C89.6022 127.037 88.516 128.123 88.516 129.463C88.516 130.803 89.6022 131.889 90.9421 131.889Z" fill="white"/>
<path d="M91.9013 145.608C93.916 145.608 95.5492 143.975 95.5492 141.96C95.5492 139.945 93.916 138.312 91.9013 138.312C89.8866 138.312 88.2534 139.945 88.2534 141.96C88.2534 143.975 89.8866 145.608 91.9013 145.608Z" fill="white"/>
<path d="M84.1348 149.692C85.6965 149.692 86.9624 148.426 86.9624 146.865C86.9624 145.303 85.6965 144.037 84.1348 144.037C82.5732 144.037 81.3073 145.303 81.3073 146.865C81.3073 148.426 82.5732 149.692 84.1348 149.692Z" fill="white"/>
<path d="M97.3121 138.382C98.6713 138.382 99.7732 137.28 99.7732 135.921C99.7732 134.562 98.6713 133.46 97.3121 133.46C95.9529 133.46 94.8511 134.562 94.8511 135.921C94.8511 137.28 95.9529 138.382 97.3121 138.382Z" fill="white"/>
<path d="M104.189 142.1C105.297 142.1 106.196 141.201 106.196 140.092C106.196 138.984 105.297 138.085 104.189 138.085C103.08 138.085 102.181 138.984 102.181 140.092C102.181 141.201 103.08 142.1 104.189 142.1Z" fill="white"/>
<path d="M99.7551 149.256C101.095 149.256 102.181 148.17 102.181 146.83C102.181 145.49 101.095 144.404 99.7551 144.404C98.4152 144.404 97.329 145.49 97.329 146.83C97.329 148.17 98.4152 149.256 99.7551 149.256Z" fill="white"/>
<path d="M93.3857 158.542C95.8246 158.542 97.8016 156.565 97.8016 154.126C97.8016 151.687 95.8246 149.71 93.3857 149.71C90.9469 149.71 88.9698 151.687 88.9698 154.126C88.9698 156.565 90.9469 158.542 93.3857 158.542Z" fill="white"/>
<path d="M106.197 154.196C107.335 154.196 108.257 153.274 108.257 152.136C108.257 150.999 107.335 150.076 106.197 150.076C105.06 150.076 104.138 150.999 104.138 152.136C104.138 153.274 105.06 154.196 106.197 154.196Z" fill="white"/>
<path d="M110.089 138.329C110.61 138.329 111.032 137.907 111.032 137.387C111.032 136.866 110.61 136.444 110.089 136.444C109.569 136.444 109.147 136.866 109.147 137.387C109.147 137.907 109.569 138.329 110.089 138.329Z" fill="white"/>
<path d="M69.997 109.67C70.7007 109.67 71.2712 109.1 71.2712 108.396C71.2712 107.692 70.7007 107.122 69.997 107.122C69.2933 107.122 68.7228 107.692 68.7228 108.396C68.7228 109.1 69.2933 109.67 69.997 109.67Z" fill="white"/>
<path d="M71.8291 124.977C75.5693 124.977 78.6014 121.945 78.6014 118.205C78.6014 114.465 75.5693 111.433 71.8291 111.433C68.0889 111.433 65.0569 114.465 65.0569 118.205C65.0569 121.945 68.0889 124.977 71.8291 124.977Z" fill="white"/>
<path d="M73.2079 131.889C74.2779 131.889 75.1453 131.022 75.1453 129.952C75.1453 128.882 74.2779 128.014 73.2079 128.014C72.1379 128.014 71.2704 128.882 71.2704 129.952C71.2704 131.022 72.1379 131.889 73.2079 131.889Z" fill="white"/>
<path d="M111.974 149.064C113.015 149.064 113.859 148.22 113.859 147.179C113.859 146.138 113.015 145.294 111.974 145.294C110.932 145.294 110.089 146.138 110.089 147.179C110.089 148.22 110.932 149.064 111.974 149.064Z" fill="white"/>
<path d="M119.427 152.974C120.227 152.974 120.875 152.325 120.875 151.525C120.875 150.725 120.227 150.076 119.427 150.076C118.627 150.076 117.978 150.725 117.978 151.525C117.978 152.325 118.627 152.974 119.427 152.974Z" fill="white"/>
<path d="M122.255 146.795C123.016 146.795 123.633 146.177 123.633 145.416C123.633 144.654 123.016 144.037 122.255 144.037C121.493 144.037 120.876 144.654 120.876 145.416C120.876 146.177 121.493 146.795 122.255 146.795Z" fill="white"/>
<defs>
<linearGradient id="paint0_linear_13248_378" x1="50.7445" y1="108.465" x2="118.973" y2="40.2368" gradientUnits="userSpaceOnUse">
<stop stop-color="white"/>
<stop offset="0.4" stop-color="white"/>
<stop offset="0.8" stop-color="white"/>
<stop offset="1" stop-color="white"/>
</linearGradient>
<linearGradient id="paint1_linear_13248_378" x1="81.6905" y1="109.391" x2="81.6905" y2="41.5111" gradientUnits="userSpaceOnUse">
<stop stop-color="white"/>
<stop offset="1" stop-color="white"/>
</linearGradient>
</defs>
</svg>
