<svg width="37" height="35" viewBox="0 0 37 35" fill="none" xmlns="http://www.w3.org/2000/svg">
<path d="M24.8833 3.13027C27.3838 5.06513 28.979 7.57716 29.6487 10.668C29.6526 10.8804 29.6534 11.093 29.6487 11.3054C29.5655 11.2885 29.4824 11.2716 29.3967 11.2541C29.2295 11.2204 29.2295 11.2204 29.059 11.1859C28.9496 11.1637 28.8401 11.1415 28.7274 11.1187C28.6107 11.0962 28.494 11.0736 28.3738 11.0504C28.2545 11.0273 28.1352 11.0041 28.0122 10.9802C25.2999 10.5951 22.7597 11.3539 20.5513 12.9298C19.7045 13.5793 18.7095 14.4162 18.5572 15.5125C18.9666 15.4738 19.1487 15.4338 19.4352 15.1295C19.511 15.0219 19.5867 14.9143 19.6648 14.8034C20.8978 13.1922 22.8143 12.0745 24.8041 11.6879C24.9435 11.659 25.0829 11.63 25.2264 11.6002C27.8733 11.3759 30.1871 11.9996 32.302 13.64C33.8588 14.9847 35.15 16.9989 35.3856 19.0822C35.4782 20.5519 35.5046 22.015 35.0031 23.4167C34.9706 23.5211 34.9381 23.6255 34.9045 23.733C34.553 24.7472 33.8685 26.0005 32.9633 26.6039C32.9818 26.5249 33.0002 26.4458 33.0191 26.3644C33.6203 23.4962 32.849 20.7247 31.5834 18.1499C31.4365 17.8935 31.4365 17.8935 31.051 17.8073C31.0831 17.872 31.1152 17.9367 31.1483 18.0033C31.7738 19.2724 32.3721 20.5065 32.7084 21.8869C32.7368 22.0024 32.7652 22.118 32.7945 22.237C33.1485 23.8961 33.0078 25.4511 32.4215 27.0342C31.5848 28.2893 29.9284 28.9432 28.5013 29.2812C25.8429 29.6769 23.5192 29.3303 21.2664 27.7623C20.4252 27.1186 19.6015 26.3744 19.107 25.4267C18.8336 25.0222 18.8336 25.0222 18.3132 24.9894C18.113 24.9881 17.9128 24.99 17.7126 24.9944C14.4167 24.9424 11.3815 23.6146 9.03949 21.2968C8.31888 20.5338 7.74141 19.7307 7.21084 18.8272C7.13968 18.7138 7.06853 18.6004 6.99521 18.4836C6.82838 18.1898 6.82838 18.1898 6.82838 17.9348C6.73569 17.9252 6.64301 17.9157 6.54751 17.9059C4.86191 17.6855 3.67645 16.9671 2.4938 15.7675C2.41903 15.694 2.34425 15.6206 2.26721 15.5449C1.01468 14.2159 0.749736 12.4492 0.79712 10.6964C0.890123 8.97407 1.85654 7.49248 3.08393 6.3334C4.41484 5.21078 5.98252 4.67814 7.72079 4.80355C7.64191 4.9199 7.64191 4.9199 7.56143 5.0386C6.18072 7.13434 5.09766 9.38997 5.04355 11.9429C5.25391 11.9849 5.46426 12.027 5.68099 12.0703C5.692 11.9453 5.70301 11.8202 5.71436 11.6914C6.04963 8.31634 7.7011 5.43011 10.3253 3.2742C10.6389 3.04341 10.9569 2.83706 11.2904 2.63626C11.4975 2.51128 11.4975 2.51128 11.7088 2.38377C12.9886 1.65441 14.0494 1.54005 15.4842 1.92182C17.192 2.427 18.5631 3.34171 19.8774 4.52019C20.1964 4.82357 20.1964 4.82357 20.597 4.93104C19.0762 2.90142 16.7148 1.99458 14.3502 1.36138C17.4504 -0.352783 22.2653 1.25745 24.8833 3.13027Z" fill="white"/>
<path d="M25.9193 2.95508C26.1438 3.14466 26.367 3.33574 26.5886 3.52877C26.6683 3.59763 26.748 3.66649 26.8301 3.73743C28.6926 5.46908 30.3185 8.40278 30.4257 10.9659C30.4215 11.2066 30.4174 11.4473 30.4132 11.688C30.5261 11.7227 30.639 11.7573 30.7553 11.7931C32.7562 12.5024 34.3109 14.3102 35.2577 16.15C36.3454 18.4369 36.6007 21.1578 35.8034 23.5932C35.5421 24.3089 35.1916 24.975 34.8056 25.6304C34.5733 26.0326 34.5733 26.0326 34.4928 26.4765C34.6818 26.7189 34.6818 26.7189 34.955 26.9387C35.8038 27.7488 36.1827 28.496 36.2219 29.6797C36.1659 31.0071 35.5808 31.8291 34.6203 32.7234C31.6867 34.9414 27.7603 35.2958 24.2052 34.8081C22.1589 34.4512 20.3525 33.6092 18.8118 32.2135C18.7315 32.0703 18.7315 32.0703 18.6495 31.9242C18.3253 31.5992 18.0324 31.6455 17.5864 31.6395C17.4728 31.6396 17.3592 31.6397 17.2421 31.6398C13.7782 31.5542 10.2809 30.6583 7.59293 28.3889C7.48249 28.3126 7.37205 28.2364 7.25827 28.1578C6.33596 27.3083 5.51912 25.9427 5.39974 24.6708C5.39777 24.5673 5.3958 24.4637 5.39377 24.3571C5.38884 24.2047 5.38884 24.2047 5.38381 24.0493C5.44323 23.513 5.6243 23.0297 5.8081 22.5244C5.7382 22.4982 5.66831 22.472 5.5963 22.445C3.50644 21.6541 1.35451 20.8388 0.326132 18.6998C0.0844752 17.9422 0.0453018 16.9702 0.308204 16.2198C0.445652 15.9588 0.445652 15.9588 0.584593 15.7397C0.842891 15.2667 0.861979 14.9661 0.713575 14.4449C0.654084 14.2924 0.594593 14.1399 0.5333 13.9828C-0.10038 12.3401 -0.20878 10.4168 0.45362 8.75576C0.501936 8.63333 0.550252 8.5109 0.600031 8.38476C1.25662 6.91407 2.35878 5.71449 3.7683 4.93114C3.84882 4.88331 3.92935 4.83549 4.01232 4.78622C4.88076 4.30554 5.85511 4.02857 6.84892 4.03175C8.14577 4.04124 8.14577 4.04124 9.21043 3.33754C9.31955 3.22234 9.42867 3.10714 9.5411 2.98844C13.8297 -1.36789 21.4773 -0.596122 25.9193 2.95508ZM14.3498 1.23399C14.7584 1.50642 15.063 1.58547 15.537 1.7041C17.5153 2.25973 19.3123 3.30746 20.5967 4.93114C20.1505 4.68196 19.7639 4.39569 19.3722 4.0681C17.7279 2.70318 15.7169 1.6099 13.5246 1.66725C12.0287 1.92236 10.7198 2.9036 9.63273 3.91123C9.52574 4.00655 9.41876 4.10187 9.30853 4.20007C7.1114 6.25754 5.87601 9.08564 5.68061 12.0704C5.47026 12.0284 5.2599 11.9863 5.04317 11.943C5.09927 9.29605 6.26164 6.95535 7.72041 4.80365C5.87178 4.67028 4.35682 5.29062 2.9476 6.46497C1.7495 7.58212 0.915343 9.02057 0.800725 10.6656C0.736315 12.6051 1.11265 14.3559 2.47328 15.8159C3.71717 17.0826 5.07131 17.7439 6.828 17.9349C6.86333 18.0279 6.89867 18.1209 6.93507 18.2167C8.0925 20.9993 10.5882 22.9432 13.2686 24.1414C14.0762 24.4469 14.9094 24.6374 15.7521 24.8192C15.8527 24.8452 15.9533 24.8711 16.0569 24.8979C16.3652 24.9431 16.6311 24.9442 16.9414 24.9332C18.5919 24.8904 18.5919 24.8904 19.1809 25.3824C19.3671 25.6471 19.5438 25.9187 19.7112 26.1957C20.769 27.9374 22.9479 28.8736 24.8421 29.356C27.262 29.7272 29.8272 29.2009 31.8156 27.7514C32.6966 26.9914 32.9057 25.7987 32.9933 24.6897C33.05 22.2191 32.1978 19.9645 31.0507 17.8074C31.4331 17.9349 31.4331 17.9349 31.6478 18.3119C31.724 18.4749 31.7984 18.6388 31.8714 18.8034C31.9105 18.8901 31.9497 18.9768 31.99 19.0661C33.0622 21.4822 33.5712 23.9921 32.963 26.604C34.3477 25.3452 35.3032 23.4742 35.4006 21.5894C35.4893 18.7491 34.9323 16.3588 32.9615 14.2263C31.3075 12.5526 28.927 11.5631 26.5806 11.5047C24.3825 11.5869 22.4029 12.2894 20.7242 13.7278C20.6463 13.7891 20.5684 13.8504 20.4881 13.9135C20.0863 14.2376 19.7806 14.5459 19.4971 14.9788C19.1943 15.3851 19.1943 15.3851 18.8357 15.5046C18.7437 15.5073 18.6517 15.5099 18.5569 15.5126C18.8009 14.6242 19.3258 14.1168 19.9592 13.4728C20.0289 13.4015 20.0986 13.3302 20.1704 13.2567C22.1056 11.4498 24.7589 10.815 27.3333 10.9029C27.885 10.9433 28.4103 11.0764 28.9421 11.2219C29.2718 11.3215 29.2718 11.3215 29.6483 11.3055C29.3926 8.59527 28.1141 6.20163 26.2061 4.2937C26.108 4.19559 26.0099 4.09748 25.9088 3.99639C23.3376 1.55814 20.0754 0.744847 16.6281 0.831362C15.849 0.874295 15.1029 1.0341 14.3498 1.23399Z" fill="#F3F4FE"/>
<path d="M25.9197 2.95508C26.1442 3.14466 26.3675 3.33574 26.589 3.52877C26.6687 3.59763 26.7484 3.66649 26.8306 3.73743C28.6931 5.46908 30.319 8.40278 30.4261 10.9659C30.422 11.2066 30.4178 11.4473 30.4137 11.688C30.5266 11.7227 30.6395 11.7573 30.7558 11.7931C32.7566 12.5024 34.3114 14.3102 35.2582 16.15C36.3428 18.4304 36.6113 21.1678 35.8016 23.5952C34.8337 26.2119 33.0522 28.2099 30.5412 29.4088C28.438 30.3219 25.7725 30.6011 23.5702 29.8395C23.4305 29.7815 23.2908 29.7235 23.1469 29.6637C23.066 29.6302 22.9851 29.5966 22.9017 29.5621C21.1008 28.7938 19.5077 27.6306 18.4298 25.9666C18.4298 25.8825 18.4298 25.7983 18.4298 25.7116C18.2279 25.7227 18.2279 25.7227 18.022 25.734C14.8835 25.8522 11.9009 24.8152 9.50569 22.7794C9.39641 22.6907 9.28712 22.6019 9.17452 22.5105C8.10616 21.6056 7.21826 20.5221 6.59738 19.2655C6.28425 18.7156 5.99677 18.5822 5.39422 18.405C5.17655 18.3508 5.17655 18.3508 4.95448 18.2954C3.30617 17.8819 1.94114 16.6261 1.02328 15.2258C0.0906221 13.4749 -0.268723 11.3555 0.21503 9.40914C0.288265 9.1891 0.368166 8.97118 0.454069 8.75576C0.502385 8.63333 0.550701 8.5109 0.600481 8.38476C1.25707 6.91407 2.35923 5.71449 3.76875 4.93114C3.84927 4.88331 3.9298 4.83549 4.01277 4.78622C4.88121 4.30554 5.85556 4.02857 6.84937 4.03175C8.14622 4.04124 8.14622 4.04124 9.21088 3.33754C9.32 3.22234 9.42912 3.10714 9.54155 2.98844C13.8301 -1.36789 21.4777 -0.596122 25.9197 2.95508ZM14.3502 1.23399C14.7589 1.50642 15.0635 1.58547 15.5375 1.7041C17.5157 2.25973 19.3128 3.30746 20.5971 4.93114C20.1509 4.68196 19.7644 4.39569 19.3727 4.0681C17.7284 2.70318 15.7174 1.6099 13.525 1.66725C12.0292 1.92236 10.7203 2.9036 9.63318 3.91123C9.52619 4.00655 9.41921 4.10187 9.30898 4.20007C7.11185 6.25754 5.87646 9.08565 5.68106 12.0704C5.47071 12.0284 5.26035 11.9863 5.04362 11.943C5.09972 9.29605 6.26209 6.95535 7.72086 4.80365C5.87223 4.67028 4.35727 5.29062 2.94805 6.46497C1.74995 7.58212 0.915793 9.02057 0.801174 10.6656C0.736764 12.6051 1.11309 14.3559 2.47373 15.8159C3.71762 17.0826 5.07176 17.7439 6.82845 17.9349C6.86378 18.0279 6.89912 18.1209 6.93552 18.2167C8.09295 20.9993 10.5886 22.9432 13.2691 24.1414C14.0767 24.4469 14.9098 24.6374 15.7526 24.8192C15.8532 24.8452 15.9537 24.8711 16.0574 24.8979C16.3657 24.9431 16.6315 24.9442 16.9418 24.9333C18.5923 24.8905 18.5923 24.8905 19.1813 25.3824C19.3675 25.6471 19.5443 25.9187 19.7117 26.1957C20.7695 27.9374 22.9484 28.8736 24.8426 29.356C27.2625 29.7272 29.8276 29.2009 31.816 27.7514C32.697 26.9914 32.9062 25.7987 32.9938 24.6897C33.0505 22.2191 32.1982 19.9645 31.0511 17.8074C31.4336 17.9349 31.4336 17.9349 31.6482 18.3119C31.7244 18.4749 31.7988 18.6388 31.8718 18.8034C31.911 18.8901 31.9501 18.9768 31.9905 19.0661C33.0627 21.4822 33.5716 23.9921 32.9634 26.604C34.3481 25.3452 35.3037 23.4742 35.4011 21.5894C35.4898 18.7491 34.9327 16.3588 32.9619 14.2263C31.308 12.5526 28.9274 11.5631 26.5811 11.5047C24.3829 11.5869 22.4033 12.2894 20.7246 13.7278C20.6467 13.7891 20.5688 13.8504 20.4886 13.9135C20.0867 14.2376 19.7811 14.5459 19.4975 14.9788C19.1948 15.3851 19.1948 15.3851 18.8362 15.5046C18.7442 15.5073 18.6521 15.5099 18.5573 15.5126C18.8014 14.6242 19.3262 14.1168 19.9597 13.4728C20.0294 13.4015 20.099 13.3302 20.1708 13.2567C22.1061 11.4498 24.7593 10.815 27.3338 10.9029C27.8855 10.9433 28.4107 11.0764 28.9426 11.2219C29.2723 11.3215 29.2723 11.3215 29.6487 11.3055C29.3931 8.59527 28.1145 6.20163 26.2066 4.2937C26.1085 4.19559 26.0104 4.09748 25.9093 3.99639C23.3381 1.55814 20.0759 0.744847 16.6286 0.831362C15.8494 0.874295 15.1034 1.0341 14.3502 1.23399Z" fill="#373D4D"/>
<path d="M28.374 14.2378C29.2041 14.5991 29.9088 15.4136 30.4138 16.1501C30.4138 16.2763 30.4138 16.4025 30.4138 16.5326C30.0365 16.4896 29.9128 16.4146 29.6489 16.1317C29.5648 16.0194 29.4806 15.9072 29.3939 15.7915C29.1403 15.4562 28.9023 15.1476 28.5971 14.8578C28.374 14.6203 28.374 14.6203 28.374 14.2378Z" fill="#373D4D"/>
<path d="M21.4888 5.69604C22.1106 6.12943 22.6319 6.70115 23.0187 7.35338C22.9766 7.4796 22.9345 7.60581 22.8912 7.73585C22.3955 7.57062 22.2029 7.26314 21.9032 6.85937C21.8491 6.79018 21.795 6.721 21.7393 6.64971C21.5864 6.44603 21.5864 6.44603 21.3613 6.07851C21.4034 5.9523 21.4455 5.82608 21.4888 5.69604Z" fill="#373D4D"/>
</svg>
