<svg width="28" height="52" viewBox="0 0 28 52" fill="none" xmlns="http://www.w3.org/2000/svg">
<path d="M21.211 34.6749L21.1922 34.489L22.1661 32.8022C22.6648 31.9383 22.769 29.7586 22.769 29.0166C22.769 28.2746 23.0936 25.3529 23.6037 24.7036C24.1139 24.0544 27.2643 19.9542 27.824 16.3561C28.4733 12.1823 27.453 6.2461 22.5835 2.76762C18.0009 -0.505853 10.572 -1.45252 4.86775 3.13884C-0.504658 7.46308 -0.403722 14.4235 0.415593 17.5617C0.941198 18.9221 2.15009 21.8561 2.78081 22.7094C3.5692 23.7761 4.39173 25.0498 4.39173 25.3173L4.49671 25.5848C4.54724 25.7047 4.59715 25.8249 4.64598 25.9456L4.75178 26.2572C5.17428 28.1177 5.17428 28.1177 5.19235 30.0369L5.19252 30.0482C5.21025 31.2644 5.22757 32.4529 6.08654 33.4122C6.40236 33.7369 6.63002 33.8879 6.63002 34.3557C6.48948 34.8388 6.49287 35.301 6.63002 35.7875C6.77432 36.2477 6.85976 36.5815 6.68799 37.0455C6.45482 37.6356 6.48619 38.1711 6.70067 38.7661C7.0758 39.6573 7.68956 40.3311 8.57782 40.7382L8.76333 40.7962V41.1672C8.91476 41.7124 9.28327 42.1559 9.6818 42.5454C11.0292 43.6795 12.8116 43.9383 14.5165 43.8896C16.0963 43.8044 17.6944 43.2674 18.7763 42.0817C19.101 41.6355 19.1684 41.3082 19.132 40.7721C19.112 40.4978 19.0958 40.2301 19.1111 39.9552C19.3543 39.4786 19.3543 39.4786 19.8151 39.1695C20.0688 38.9943 20.2817 38.8298 20.4907 38.6016C21.1978 37.6495 21.4808 36.7924 21.3777 35.602C21.2805 35.3387 21.2805 35.3387 21.2556 35.114L21.211 34.6749Z" fill="#373D4D"/>
<path d="M13.9208 0.426699C14.1123 0.425802 14.3037 0.422916 14.4952 0.419996C15.3708 0.41303 16.1667 0.520575 17.0186 0.727239C17.0949 0.745682 17.1712 0.764125 17.2499 0.783126C20.7826 1.69176 23.8176 3.8998 25.718 7.02545C27.5074 10.1301 28.0975 13.8524 27.1978 17.33C26.7443 18.979 26.0509 20.4641 25.088 21.8748C25.04 21.9452 24.992 22.0156 24.9425 22.0882C23.1161 24.7397 20.4585 26.6098 17.2968 27.3472C17.2968 27.4085 17.2968 27.4697 17.2968 27.5327C19.1642 27.0817 20.8563 26.2949 22.3935 25.1454C22.6682 24.9418 22.947 24.752 23.233 24.5647C23.1203 24.9203 22.988 25.249 22.8272 25.5849C22.3619 26.7206 22.2096 27.9112 22.1855 29.1309C22.184 29.2062 22.1825 29.2815 22.181 29.359C22.1746 29.7368 22.1722 30.1141 22.1748 30.4919C22.1739 31.6979 21.9373 32.6319 21.0732 33.5262C18.8031 35.5186 15.6629 35.9545 12.7519 35.7877C12.1555 35.7372 11.5735 35.6398 10.9896 35.5095C10.8908 35.4878 10.8908 35.4878 10.79 35.4657C9.0671 35.0698 7.25129 34.212 6.24766 32.6979C5.96133 32.204 5.86523 31.7215 5.85636 31.1544C5.85374 31.0296 5.85111 30.9047 5.84848 30.7798C5.84692 30.683 5.84692 30.683 5.84532 30.5843C5.83951 30.2485 5.82993 29.9129 5.82013 29.5773C5.81726 29.4789 5.81726 29.4789 5.81433 29.3785C5.72985 26.652 4.82486 24.6524 3.29117 22.4313C2.58918 21.4148 1.93495 20.411 1.43612 19.2778C1.41008 19.2188 1.38405 19.1598 1.35722 19.099C0.28537 16.6107 0.0560183 13.5558 0.694097 10.93C0.70952 10.8655 0.724944 10.801 0.740835 10.7345C1.22708 8.77016 2.14528 6.89379 3.47668 5.36487C3.54351 5.28787 3.61035 5.21087 3.67921 5.13154C3.88677 4.89699 4.09805 4.66659 4.31145 4.43734C4.40525 4.3344 4.40525 4.3344 4.50094 4.22937C6.92133 1.6773 10.4689 0.436419 13.9208 0.426699Z" fill="#FEFEFE"/>
<path d="M18.1312 42.5586C18.1618 42.6198 18.1924 42.681 18.224 42.7441C18.2888 42.7567 18.3536 42.7692 18.4203 42.7821C19.5218 43.0075 20.62 43.8686 21.279 44.7455C21.7022 45.4088 21.9535 46.1197 21.8413 46.918C21.5566 48.0669 20.8685 48.8693 19.8935 49.515C17.3245 51.029 14.0852 51.4781 11.1812 50.7712C9.47396 50.323 7.60071 49.645 6.60235 48.0872C6.15565 47.3162 6.04021 46.6312 6.21105 45.7618C6.50669 44.7073 7.41149 43.886 8.29944 43.3006C8.5369 43.1679 8.77869 43.0469 9.02407 42.9296C9.11399 42.8858 9.11399 42.8858 9.20572 42.8411C9.62696 42.6482 9.62696 42.6482 9.88022 42.6608C10.1472 42.7833 10.4055 42.9188 10.6646 43.0571C12.3985 43.9536 14.5281 44.0102 16.3789 43.4501C17.0383 43.237 17.6002 43.0094 18.1312 42.5586Z" fill="#F3F4FE"/>
<path d="M20.5422 35.6021C20.6034 35.6021 20.6646 35.6021 20.7277 35.6021C20.9625 36.3063 20.7531 36.8974 20.4494 37.5499C20.287 37.8209 20.102 38.0555 19.8929 38.2919C19.8407 38.3527 19.7884 38.4136 19.7346 38.4763C18.2604 40.0746 15.6971 40.8869 13.5619 40.9973C11.5403 41.0638 9.4268 40.9907 7.85537 39.5295C7.30884 38.9402 7.15203 38.3617 7.16697 37.5683C7.18581 37.3644 7.18581 37.3644 7.27857 37.0861C7.56992 37.2205 7.81086 37.3863 8.06696 37.5788C9.85014 38.8365 12.2824 38.998 14.3836 38.6716C16.4914 38.293 18.985 37.5763 20.3726 35.8093C20.4286 35.7409 20.4845 35.6725 20.5422 35.6021Z" fill="#CCFE41"/>
<path d="M7.18543 34.5818C7.57037 34.6481 7.8934 34.8427 8.23469 35.0224C9.9445 35.8968 11.7576 36.2687 13.6701 36.2685C13.8728 36.2687 14.0754 36.2704 14.2781 36.2722C15.0847 36.2754 15.8515 36.2188 16.6462 36.0658C16.7174 36.0528 16.7886 36.0397 16.862 36.0263C18.0996 35.7878 19.2368 35.3401 20.3563 34.7673C19.988 35.9092 18.6832 36.6044 17.6936 37.1256C15.2908 38.2892 12.2192 38.6676 9.66982 37.822C8.6132 37.4182 7.74031 36.8382 7.2434 35.7992C7.16197 35.392 7.17071 34.9955 7.18543 34.5818Z" fill="#CCFE41"/>
<path d="M18.4091 40.147C18.5946 40.3325 18.5946 40.3325 18.6236 40.6803C18.6036 41.2971 18.3068 41.705 17.8722 42.1194C16.4241 43.2554 14.4952 43.3421 12.7364 43.1906C11.6382 43.0519 10.6022 42.5541 9.78314 41.8165C9.50488 41.4177 9.50488 41.4177 9.50488 41.1673C9.66378 41.2074 9.66378 41.2074 9.82589 41.2484C12.7228 41.932 15.7672 41.52 18.4091 40.147Z" fill="#CCFE41"/>
<path d="M22.861 24.3792C22.9223 24.4098 22.9835 24.4404 23.0465 24.4719C23.0045 24.5102 22.9624 24.5484 22.919 24.5878C22.761 24.7377 22.761 24.7377 22.7042 24.9186C22.5258 25.2163 22.2598 25.3717 21.9741 25.5559C21.8811 25.6164 21.8811 25.6164 21.7862 25.678C20.7247 26.3563 19.6569 26.8931 18.4669 27.3125C18.3736 27.3454 18.2804 27.3784 18.1843 27.4123C17.5172 27.6374 17.5172 27.6374 17.2031 27.5327C17.2337 27.4409 17.2643 27.3491 17.2959 27.2545C17.5154 27.172 17.7253 27.1065 17.9509 27.0458C19.7026 26.5343 21.5557 25.6845 22.861 24.3792Z" fill="#373D4D"/>
<path d="M9.78318 27.0688C9.88194 27.0935 9.9807 27.1181 10.0825 27.1435C11.3995 27.4664 12.6964 27.6461 14.0498 27.7181C14.0498 27.8099 14.0498 27.9018 14.0498 27.9964C12.6655 28.0467 10.9532 27.9785 9.69043 27.3471C9.72104 27.2553 9.75165 27.1635 9.78318 27.0688Z" fill="#373D4D"/>
</svg>
