<svg width="27" height="32" viewBox="0 0 27 32" fill="none" xmlns="http://www.w3.org/2000/svg">
<path d="M16.6774 2.15876C19.2214 3.83328 21.3999 5.9073 23.2064 8.35326C23.2685 8.43712 23.3306 8.52097 23.3946 8.60737C25.6879 11.7507 27.2786 15.5017 26.9315 19.4451C26.7245 20.7394 26.121 22.1016 25.1444 22.9963C22.9944 24.5485 22.9944 24.5485 22.1942 24.5485C22.3321 25.0397 22.4709 25.5306 22.6099 26.0216C22.6489 26.1604 22.6878 26.2991 22.728 26.4421C22.7853 26.6441 22.7853 26.6441 22.8438 26.8502C22.8786 26.9736 22.9134 27.0971 22.9493 27.2242C23.0586 27.5929 23.0586 27.5929 23.2191 27.9698C23.351 28.3081 23.351 28.3081 23.3657 28.6718C23.1122 29.2435 22.6399 29.4299 22.1038 29.7179C21.8796 29.8429 21.6556 29.9681 21.4316 30.0935C21.3178 30.1566 21.204 30.2196 21.0867 30.2845C20.761 30.4698 20.4441 30.6642 20.128 30.8651C19.983 30.9565 19.983 30.9565 19.8352 31.0497C19.6523 31.1656 19.4703 31.283 19.2894 31.4019C18.9109 31.6379 18.6542 31.7808 18.2024 31.7666C15.5762 30.7598 13.3607 28.0362 11.9276 25.7053C11.9276 25.6098 11.9276 25.5144 11.9276 25.4161C11.8016 25.3792 11.6756 25.3423 11.5457 25.3042C7.05916 23.6661 3.35951 18.4605 1.38767 14.3449C1.01484 13.5266 0.736398 12.6928 0.504179 11.8237C0.458511 11.6598 0.412844 11.496 0.365792 11.3272C-0.144747 9.27335 -0.233154 7.01899 0.839696 5.12405C1.66235 3.94851 2.79283 3.1702 4.04688 2.51503C4.30208 2.37867 4.5572 2.24217 4.81224 2.10552C4.9385 2.0383 5.06477 1.97108 5.19485 1.90183C5.54391 1.71316 5.88865 1.51878 6.23226 1.32039C6.33515 1.26109 6.43804 1.20179 6.54405 1.1407C6.73448 1.03042 6.92449 0.919438 7.11398 0.807582C10.1507 -0.937878 13.943 0.440366 16.6774 2.15876Z" fill="#CCFE41"/>
<path d="M16.6774 2.15876C19.2214 3.83328 21.3999 5.9073 23.2064 8.35326C23.2685 8.43712 23.3306 8.52097 23.3946 8.60737C25.6879 11.7507 27.2786 15.5017 26.9315 19.4451C26.7245 20.7394 26.121 22.1016 25.1444 22.9963C22.9944 24.5485 22.9944 24.5485 22.1942 24.5485C22.3321 25.0397 22.4709 25.5306 22.6099 26.0216C22.6489 26.1604 22.6878 26.2991 22.728 26.4421C22.7853 26.6441 22.7853 26.6441 22.8438 26.8502C22.8786 26.9736 22.9134 27.0971 22.9493 27.2242C23.0586 27.5929 23.0586 27.5929 23.2191 27.9698C23.351 28.3081 23.351 28.3081 23.3657 28.6718C23.1122 29.2435 22.6399 29.4299 22.1038 29.7179C21.8796 29.8429 21.6556 29.9681 21.4316 30.0935C21.3178 30.1566 21.204 30.2196 21.0867 30.2845C20.761 30.4698 20.4441 30.6642 20.128 30.8651C19.983 30.9565 19.983 30.9565 19.8352 31.0497C19.6523 31.1656 19.4703 31.283 19.2894 31.4019C18.9109 31.6379 18.6542 31.7808 18.2024 31.7666C15.5762 30.7598 13.3607 28.0362 11.9276 25.7053C11.9276 25.6098 11.9276 25.5144 11.9276 25.4161C11.8016 25.3792 11.6756 25.3423 11.5457 25.3042C7.05916 23.6661 3.35951 18.4605 1.38767 14.3449C1.01484 13.5266 0.736398 12.6928 0.504179 11.8237C0.458511 11.6598 0.412844 11.496 0.365792 11.3272C-0.144747 9.27335 -0.233154 7.01899 0.839696 5.12405C1.66235 3.94851 2.79283 3.1702 4.04688 2.51503C4.30208 2.37867 4.5572 2.24217 4.81224 2.10552C4.9385 2.0383 5.06477 1.97108 5.19485 1.90183C5.54391 1.71316 5.88865 1.51878 6.23226 1.32039C6.33515 1.26109 6.43804 1.20179 6.54405 1.1407C6.73448 1.03042 6.92449 0.919438 7.11398 0.807582C10.1507 -0.937878 13.943 0.440366 16.6774 2.15876ZM1.80558 5.31666C0.758525 6.86244 0.932776 9.04188 1.16392 10.8205C2.50838 16.142 6.24103 21.123 10.9415 23.9446C11.1304 24.0553 11.32 24.1649 11.5103 24.2731C12.3549 24.7549 12.7724 25.2842 13.3194 26.0758C14.3654 27.5597 15.5701 28.9036 16.9886 30.0433C17.084 30.0433 17.1795 30.0433 17.2778 30.0433C17.1579 29.1424 16.9777 28.2607 16.7892 27.3716C16.7137 26.9433 16.668 26.5714 16.6994 26.1391C16.9487 25.8898 17.3083 25.9225 17.6483 25.877C18.9155 25.6683 19.7064 25.2947 20.5256 24.2903C21.5405 22.8299 21.7043 21.0288 21.4159 19.3008C20.7622 16.1583 19.284 13.3002 17.2778 10.8115C17.2129 10.7309 17.148 10.6504 17.0812 10.5674C14.4559 7.33632 10.8242 4.26684 6.57738 3.58146C4.49038 3.45039 3.23405 3.73146 1.80558 5.31666Z" fill="#373D4D"/>
<path d="M16.1201 2.85838C17.5059 3.71972 18.7084 4.76565 19.8797 5.89498C19.9889 5.99508 20.0982 6.09517 20.2107 6.1983C21.9479 7.83755 23.2862 9.84888 24.3623 11.9682C24.4096 12.0603 24.457 12.1523 24.5057 12.2472C25.7911 14.7754 26.6126 17.572 25.8151 20.3894C25.4633 21.3174 24.9191 22.1281 24.0731 22.6686C23.9777 22.6686 23.8822 22.6686 23.7839 22.6686C23.8145 22.5726 23.8451 22.4767 23.8766 22.3778C24.1729 21.3854 24.2923 20.4849 24.281 19.4512C24.2789 19.2328 24.2789 19.2328 24.2767 19.0099C24.2479 17.7908 24.0772 16.728 23.6393 15.5832C23.5958 15.4681 23.5523 15.3529 23.5075 15.2343C22.3571 12.2541 20.7091 9.44434 18.3417 7.2619C18.1445 7.05178 18.1445 7.05178 18.1445 6.76258C18.0657 6.72996 17.9868 6.69734 17.9056 6.66373C17.3053 6.3271 16.843 5.81819 16.3455 5.34765C15.9953 5.00329 15.9953 5.00329 15.5417 4.88278C15.5417 5.02593 15.5417 5.16909 15.5417 5.31658C15.62 5.34901 15.6983 5.38145 15.779 5.41486C16.2268 5.66547 16.5801 5.99769 16.9516 6.34685C17.0288 6.41906 17.1061 6.49127 17.1857 6.56566C17.3401 6.7104 17.4941 6.85549 17.6478 7.00094C17.8166 7.15994 17.9879 7.31638 18.1598 7.47202C20.5057 9.67289 22.3235 12.6942 23.3501 15.7278C23.4393 15.9825 23.4393 15.9825 23.5303 16.2424C24.1169 18.1281 24.3183 20.5321 23.4947 22.3794C23.1446 23.0278 22.7391 23.5269 22.0487 23.8254C21.9533 23.7777 21.8578 23.7299 21.7595 23.6808C21.8065 23.5695 21.8065 23.5695 21.8544 23.456C22.8727 20.6557 21.9395 17.5239 20.7665 14.9285C19.6797 12.6115 18.2472 10.546 16.4702 8.71066C16.2628 8.49578 16.0587 8.27805 15.8546 8.06003C13.2227 5.29154 9.69751 3.14336 5.85352 2.71378C6.22417 2.29726 6.64801 2.04427 7.1278 1.76484C7.27487 1.67817 7.42194 1.59149 7.57347 1.50219C10.3604 0.0473597 13.626 1.39284 16.1201 2.85838Z" fill="#F3F4FE"/>
<path d="M21.4709 25.2715C21.625 25.7404 21.7743 26.2106 21.9228 26.6813C21.9666 26.8144 22.0104 26.9475 22.0555 27.0846C22.1156 27.2776 22.1156 27.2776 22.1769 27.4744C22.2148 27.5925 22.2527 27.7106 22.2917 27.8323C22.3511 28.2528 22.2993 28.3999 22.0493 28.7419C21.7157 28.9801 21.7157 28.9801 21.3037 29.2096C21.1559 29.2925 21.0081 29.3755 20.8558 29.4609C20.7009 29.5457 20.546 29.6306 20.3864 29.7179C20.2315 29.805 20.0766 29.892 19.917 29.9817C18.7662 30.6217 18.7662 30.6217 18.4343 30.6217C18.2878 30.1342 18.1439 29.646 18.0005 29.1576C17.9384 28.9513 17.9384 28.9513 17.8751 28.7408C17.6738 28.0505 17.5079 27.4449 17.5667 26.7175C17.7426 26.67 17.7426 26.67 17.922 26.6215C18.9331 26.3319 19.8101 25.9821 20.7129 25.4409C21.0371 25.2715 21.0371 25.2715 21.4709 25.2715Z" fill="#F3F4FE"/>
<path d="M15.543 4.88281C16.1745 4.94945 16.5425 5.36823 16.9799 5.78656C17.054 5.85572 17.1281 5.92487 17.2045 5.99612C17.6725 6.43499 18.1263 6.88697 18.5796 7.34101C18.6679 7.42266 18.7563 7.5043 18.8473 7.58841C21.2579 9.85038 22.8376 12.9432 23.9298 16.017C23.9851 16.1661 24.0405 16.3153 24.0975 16.4689C24.402 17.4432 24.4063 18.4296 24.4178 19.4422C24.4198 19.5832 24.4219 19.7242 24.424 19.8694C24.418 20.753 24.3375 21.5813 23.9298 22.3794C23.5412 22.6777 23.5412 22.6777 23.2068 22.8132C23.2364 22.7277 23.266 22.6421 23.2966 22.554C23.3355 22.4397 23.3745 22.3254 23.4146 22.2077C23.4532 22.0953 23.4918 21.9829 23.5316 21.8671C24.1396 19.8855 23.8906 17.6494 23.2068 15.7278C23.1726 15.6316 23.1385 15.5353 23.1033 15.4361C21.9475 12.2488 20.0327 9.63176 17.712 7.19641C17.618 7.0965 17.5241 6.99659 17.4273 6.89366C16.9137 6.36144 16.3737 5.92743 15.7604 5.51318C15.6887 5.44831 15.6169 5.38344 15.543 5.31661C15.543 5.17346 15.543 5.0303 15.543 4.88281Z" fill="#373D4D"/>
<path d="M16.4109 16.4508C16.8774 16.8575 16.9782 17.0817 17.0525 17.698C16.9893 18.186 16.9893 18.186 16.8266 18.4662C16.4076 18.7036 16.1613 18.705 15.6879 18.6198C15.152 18.1422 14.9894 17.9327 14.8926 17.219C14.9649 16.74 14.9649 16.74 15.1185 16.4508C15.5881 16.2084 15.9149 16.3116 16.4109 16.4508Z" fill="#373D4D"/>
<path d="M11.2049 13.5498C11.7541 13.7443 11.9309 13.9202 12.2171 14.4264C12.2783 14.9336 12.3146 15.2707 12.0544 15.7188C11.6354 15.9562 11.3891 15.9577 10.9157 15.8724C10.4534 15.4504 10.223 15.1733 10.1113 14.553C10.1927 14.1372 10.1927 14.1372 10.4276 13.7848C10.7711 13.5588 10.7711 13.5588 11.2049 13.5498Z" fill="#373D4D"/>
<path d="M6.43322 10.8113C6.94053 10.9804 7.14793 11.088 7.44542 11.5343C7.53739 12.0468 7.54468 12.5146 7.28275 12.9803C6.87495 13.1978 6.59863 13.1898 6.14402 13.1249C5.7741 12.8849 5.61194 12.6923 5.47807 12.2708C5.3824 11.7631 5.3759 11.4637 5.64696 11.0191C5.99942 10.8113 5.99942 10.8113 6.43322 10.8113Z" fill="#373D4D"/>
<path d="M10.4824 2.1355C11.3374 2.20628 11.961 2.4683 12.7147 2.86754C12.8205 2.92206 12.9262 2.97658 13.0352 3.03275C13.2936 3.16615 13.551 3.30134 13.8082 3.4369C13.7605 3.58005 13.7128 3.72321 13.6636 3.8707C13.0215 3.61664 12.3835 3.35375 11.7477 3.08444C11.6418 3.0411 11.5359 2.99776 11.4268 2.95311C11.1549 2.83702 10.8902 2.70418 10.627 2.5693C10.5793 2.42614 10.5316 2.28299 10.4824 2.1355Z" fill="#373D4D"/>
</svg>
