<svg width="16" height="16" viewBox="0 0 16 16" fill="none" xmlns="http://www.w3.org/2000/svg">
<path fill-rule="evenodd" clip-rule="evenodd" d="M7.99976 0.667969C8.41906 0.667975 8.82743 0.800975 9.16772 1.0459L9.1687 1.04492L14.5017 4.87207L14.5027 4.87305C14.8477 5.12163 15.1048 5.47349 15.2361 5.87793C15.3673 6.28249 15.3665 6.7192 15.2332 7.12305L15.2322 7.12207L13.2068 13.2949L13.2058 13.2969C13.0733 13.6959 12.8183 14.0432 12.4773 14.2891C12.179 14.5041 11.8282 14.6327 11.4636 14.6611L11.3064 14.667H4.69312C4.27296 14.6672 3.86305 14.5348 3.52222 14.2891C3.18128 14.0432 2.92616 13.6958 2.7937 13.2969V13.2949L0.766358 7.12109L0.767334 7.12012C0.634666 6.71688 0.632459 6.28176 0.763428 5.87793C0.89467 5.47352 1.15192 5.12166 1.49683 4.87305L1.4978 4.87207L6.82983 1.04688C7.1704 0.801225 7.57985 0.668028 7.99976 0.667969ZM5.0564 13.334H10.946L7.99683 9.42285L5.0564 13.334ZM3.96069 12.5781L6.91187 8.6543L2.14331 7.04199L3.96069 12.5781ZM9.08081 8.6543L12.0388 12.5752L13.8562 7.03906L9.08081 8.6543ZM2.53198 5.76953L7.33179 7.39258C7.33249 6.91379 7.33382 6.28693 7.33472 5.60645C7.33614 4.52443 7.33693 3.30536 7.33765 2.32324L2.53198 5.76953ZM8.6648 5.6084C8.6639 6.28765 8.66257 6.91313 8.66187 7.3916L13.4636 5.76855L8.66772 2.32715C8.66714 3.30943 8.66622 4.52773 8.6648 5.6084Z" fill="currentColor"/>
</svg>
