<svg xmlns="http://www.w3.org/2000/svg" width="15" height="14" viewBox="0 0 15 14" fill="none">
  <path fill-rule="evenodd" clip-rule="evenodd" d="M7.50024 0.583008C11.0439 0.583162 13.9165 3.45661 13.9166 7.00024C13.9165 10.5438 11.0438 13.4165 7.50024 13.4166C3.95664 13.4165 1.08316 10.5438 1.08301 7.00024C1.08312 3.45661 3.95662 0.583159 7.50024 0.583008ZM9.72449 5.35962C9.46251 5.09769 9.03711 5.09766 8.77515 5.35962L6.91577 7.21814L6.22449 6.52686C5.96251 6.26493 5.53711 6.2649 5.27515 6.52686C5.01432 6.78873 5.01393 7.21277 5.27515 7.47449L6.44238 8.64087C6.70424 8.90265 7.12889 8.90246 7.39087 8.64087L9.72449 6.30811C9.98628 6.0462 9.9862 5.62158 9.72449 5.35962Z" fill="#5155F5"/>
</svg>