<svg width="16" height="16" viewBox="0 0 16 16" fill="currentColor" xmlns="http://www.w3.org/2000/svg">
<path fill-rule="evenodd" clip-rule="evenodd" d="M3.54654 5.38008C3.2311 5.27494 2.93415 5.1546 2.66666 5.01781L2.66666 8.00164L2.66705 8.00419C2.66753 8.00651 2.66887 8.01185 2.67248 8.0205C2.67985 8.03813 2.69719 8.0705 2.73587 8.11587C2.81638 8.21029 2.96608 8.33373 3.21547 8.46791C3.71544 8.73689 4.47923 8.97628 5.44211 9.13552C5.93609 9.21721 6.33157 9.27457 6.60247 9.31138C6.73791 9.32978 6.84215 9.34304 6.91194 9.35163L6.99036 9.36108L7.00942 9.36329L7.01377 9.36378C7.37966 9.4046 7.64411 9.73439 7.60332 10.1003C7.56253 10.4662 7.23282 10.7298 6.8669 10.689L6.86422 10.6887L6.85801 10.688L6.8352 10.6854C6.81541 10.683 6.78655 10.6796 6.74901 10.675C6.67393 10.6657 6.56416 10.6518 6.42295 10.6326C6.14059 10.5942 5.73236 10.535 5.22456 10.451C4.22569 10.2858 3.33606 10.0286 2.66666 9.68561V12.6667L2.66671 12.6679L2.66739 12.6714C2.66827 12.6751 2.67066 12.6832 2.67689 12.696C2.68977 12.7224 2.71852 12.7676 2.77871 12.8279C2.90296 12.9523 3.12313 13.1035 3.46844 13.2572C4.15702 13.5637 5.12967 13.8845 7.05965 13.8845C7.42784 13.8845 7.72631 14.183 7.72631 14.5512C7.72631 14.9194 7.42784 15.2179 7.05965 15.2179C4.95121 15.2179 3.79294 14.8611 2.92622 14.4753C2.49387 14.2828 2.11517 14.0504 1.83506 13.7698C1.55298 13.4872 1.33311 13.1143 1.33333 12.6667V3.33341C1.33333 2.76545 1.67926 2.33047 2.05886 2.03132C2.44597 1.72624 2.96482 1.48065 3.54654 1.28675C4.71694 0.896612 6.29143 0.666748 7.99999 0.666748C9.70856 0.666748 11.2831 0.896612 12.4535 1.28675C13.0352 1.48065 13.554 1.72624 13.9411 2.03132C14.3207 2.33047 14.6667 2.76545 14.6667 3.33341L14.6667 6.20008C14.6667 6.56827 14.3682 6.86675 14 6.86675C13.6318 6.86675 13.3333 6.56827 13.3333 6.20008V5.01781C13.0658 5.1546 12.7689 5.27494 12.4535 5.38008C11.2831 5.77022 9.70856 6.00008 7.99999 6.00008C6.29143 6.00008 4.71694 5.77022 3.54654 5.38008ZM2.66666 3.33321C2.66666 3.33321 2.66679 3.32947 2.6687 3.32322C2.67096 3.31579 2.67655 3.30111 2.69005 3.27913C2.71834 3.23303 2.77605 3.16373 2.88415 3.07853C3.10427 2.90506 3.4641 2.71968 3.96817 2.55166C4.96934 2.21793 6.39486 2.00008 7.99999 2.00008C9.60513 2.00008 11.0306 2.21793 12.0318 2.55166C12.5359 2.71968 12.8957 2.90506 13.1158 3.07853C13.2239 3.16373 13.2816 3.23303 13.3099 3.27913C13.3234 3.30111 13.329 3.31579 13.3313 3.32322C13.3331 3.32931 13.3333 3.33314 13.3333 3.33314C13.3333 3.33314 13.3331 3.33751 13.3313 3.34361C13.329 3.35104 13.3234 3.36572 13.3099 3.3877C13.2816 3.4338 13.2239 3.5031 13.1158 3.5883C12.8957 3.76177 12.5359 3.94715 12.0318 4.11517C11.0306 4.4489 9.60513 4.66675 7.99999 4.66675C6.39486 4.66675 4.96934 4.4489 3.96817 4.11517C3.4641 3.94715 3.10427 3.76177 2.88415 3.5883C2.77605 3.5031 2.71834 3.4338 2.69005 3.3877C2.67655 3.36572 2.67096 3.35104 2.6687 3.34361C2.6668 3.33737 2.66666 3.33321 2.66666 3.33321Z" />
<path d="M11.5 8.33496C11.8673 8.33496 12.165 8.63269 12.165 8.99996V10.835H14C14.3673 10.835 14.665 11.1327 14.665 11.5C14.665 11.8672 14.3673 12.165 14 12.165H12.165V14C12.165 14.3672 11.8673 14.665 11.5 14.665C11.1327 14.665 10.835 14.3672 10.835 14V12.165H9.00001C8.63274 12.165 8.33501 11.8672 8.33501 11.5C8.33501 11.1327 8.63274 10.835 9.00001 10.835H10.835V8.99996C10.835 8.63269 11.1327 8.33496 11.5 8.33496Z" />
</svg>
