<svg xmlns="http://www.w3.org/2000/svg" width="16" height="17" viewBox="0 0 16 17" fill="none">
<path d="M11.5005 6.8606C12.1441 6.8606 12.6661 7.3821 12.6665 8.02563V12.1926C12.6665 12.8365 12.1444 13.3586 11.5005 13.3586H7.3335C6.68992 13.3583 6.16846 12.8363 6.16846 12.1926V8.02563C6.16886 7.38232 6.69017 6.86095 7.3335 6.8606H11.5005Z" fill="currentColor"/>
<path d="M9.00049 4.02563C9.82676 4.02563 10.5001 4.69945 10.5005 5.52563C10.5005 5.89382 10.2017 6.19263 9.8335 6.19263C9.46561 6.19228 9.16748 5.89361 9.16748 5.52563C9.16706 5.43582 9.09038 5.35962 9.00049 5.35962H4.8335C4.74388 5.35998 4.6679 5.43603 4.66748 5.52563V9.69263C4.66748 9.76016 4.71057 9.82015 4.77002 9.84595L4.8335 9.85962L4.96826 9.87329C5.27173 9.93547 5.50014 10.2039 5.50049 10.5256C5.50049 10.8478 5.272 11.1168 4.96826 11.179L4.8335 11.1926L4.68115 11.1848C3.92612 11.1078 3.3335 10.4675 3.3335 9.69263V5.52563C3.3339 4.69967 4.00752 4.02599 4.8335 4.02563H9.00049Z" fill="currentColor"/>
</svg>