<svg width="63" height="69" viewBox="0 0 63 69" fill="none" xmlns="http://www.w3.org/2000/svg">
<path d="M31.6758 0.01703C32.2803 0.22196 32.7933 0.467641 33.3469 0.785358C33.6616 0.964498 33.6616 0.964498 33.9827 1.14726C34.2073 1.27741 34.4319 1.40756 34.6634 1.54166C35.0166 1.74388 35.0166 1.74388 35.3769 1.9502C36.128 2.38122 36.8775 2.81493 37.6265 3.24948C37.8692 3.39008 38.1119 3.53067 38.362 3.67553C39.7706 4.49247 41.1767 5.31358 42.5811 6.1376C43.2066 6.50446 43.8326 6.87045 44.4588 7.23624C44.8234 7.44968 45.188 7.66315 45.5526 7.87667C45.7185 7.97352 45.8843 8.07037 46.0552 8.17015C47.1752 8.82779 47.1752 8.82779 47.4356 9.08821C47.435 9.4302 47.4181 9.77217 47.3946 10.1134C46.7881 15.8915 46.7881 15.8915 48.1315 21.3376C49.359 22.5057 50.862 23.0033 52.4537 23.5076C53.8977 24.0253 55.1641 24.8483 56.471 25.641C56.977 25.934 57.4836 26.226 57.9909 26.5168C62.1142 28.9049 62.1142 28.9049 62.6163 29.407C62.6547 30.0935 62.6779 30.7748 62.691 31.462C62.6959 31.6777 62.7008 31.8934 62.7059 32.1157C62.7486 34.11 62.7734 36.1046 62.7928 38.0992C62.806 39.44 62.825 40.78 62.8582 42.1204C62.89 43.4155 62.9069 44.71 62.9134 46.0054C62.9185 46.4987 62.9287 46.992 62.9444 47.4851C63.0585 51.2411 63.0585 51.2411 62.3281 52.21C61.5161 52.9324 60.5863 53.2993 59.5801 53.6961C59.0592 53.975 58.5574 54.2769 58.0502 54.581C57.5241 54.8801 56.9977 55.1787 56.471 55.4769C55.9 55.801 55.3292 56.1255 54.7586 56.4503C54.5446 56.5722 54.5446 56.5722 54.3262 56.6965C53.3474 57.2548 52.3739 57.8213 51.4032 58.3935C51.1475 58.544 50.8919 58.6945 50.6285 58.8496C50.1446 59.1351 49.6614 59.4216 49.1787 59.7092C48.8542 59.9006 48.8542 59.9006 48.5231 60.0959C48.3347 60.2078 48.1464 60.3198 47.9524 60.4352C47.4431 60.6987 47.072 60.8798 46.5014 60.9361C45.9912 60.7358 45.9912 60.7358 45.4322 60.4097C45.1166 60.2284 45.1166 60.2284 44.7947 60.0435C44.5679 59.9094 44.3411 59.7752 44.1075 59.637C43.8695 59.4992 43.6314 59.3614 43.3862 59.2195C42.6324 58.7824 41.881 58.3414 41.1298 57.9C40.6674 57.6306 40.2048 57.3615 39.7422 57.0926C38.8151 56.5533 37.8889 56.0124 36.9633 55.4705C34.7213 54.1593 32.4695 52.8651 30.2189 51.5687C28.6983 50.6926 27.1783 49.8152 25.6583 48.9381C24.3876 48.2049 23.1168 47.472 21.8456 46.7398C19.1641 45.1948 16.4863 43.6438 13.8146 42.082C11.8665 40.9442 9.91271 39.8163 7.95577 38.6937C7.47734 38.4186 7.00293 38.1364 6.53201 37.8486C5.81528 37.4268 5.07722 37.111 4.30987 36.7915C0.860199 35.2425 0.860199 35.2425 0.225402 33.6364C-0.149153 31.702 0.0234276 29.7668 0.171106 27.8159C0.196912 27.2223 0.22035 26.6285 0.241353 26.0347C0.297671 24.5874 0.383293 23.1441 0.492236 21.6999C1.10922 21.3439 1.7262 20.988 2.34318 20.632C2.88608 20.3188 3.42898 20.0056 3.97187 19.6923C5.25253 18.9534 6.53323 18.2146 7.81416 17.4761C8.21827 17.2432 8.62237 17.0102 9.02647 16.7771C9.53056 16.4865 10.0347 16.1959 10.5388 15.9053C11.0053 15.6363 11.4706 15.3654 11.9347 15.0925C12.4255 14.8135 12.9251 14.5499 13.4305 14.2984C14.7694 13.6818 14.7694 13.6818 15.6476 12.5804C15.6926 12.0519 15.6677 11.5846 15.5999 11.0588C15.522 10.3648 15.4668 9.76176 15.6729 9.08821C16.2855 8.46933 17.0125 8.09692 17.7749 7.68692C18.2152 7.4274 18.6552 7.16737 19.095 6.9069C19.5839 6.62611 20.0732 6.34607 20.5629 6.06667C20.9617 5.83784 21.3605 5.60901 21.7593 5.38011C22.1736 5.14244 22.5881 4.90508 23.0026 4.66777C24.4001 3.86723 25.7948 3.0618 27.1898 2.2569C27.4458 2.1094 27.7019 1.9619 27.9657 1.80993C28.2049 1.67203 28.4441 1.53412 28.6905 1.39204C28.9002 1.27124 29.1098 1.15044 29.3258 1.02598C29.9287 0.685827 29.9287 0.685827 30.5071 0.271049C31.0872 -0.0202033 31.0872 -0.0202033 31.6758 0.01703Z" fill="#64748B"/>
<path d="M17.0737 10.957C17.992 11.2541 18.7941 11.5683 19.6245 12.0618C19.9507 12.2541 19.9507 12.2541 20.2834 12.4502C20.631 12.6576 20.631 12.6576 20.9856 12.8692C21.4839 13.1635 21.9824 13.4575 22.4809 13.7514C22.7407 13.9049 23.0004 14.0584 23.2681 14.2166C24.9093 15.1835 26.564 16.1274 28.2158 17.076C28.459 17.2159 28.7022 17.3559 28.9527 17.5001C29.1678 17.6236 29.3828 17.7471 29.6044 17.8743C30.0288 18.1242 30.4433 18.391 30.8531 18.6642C30.9393 19.2104 30.9393 19.2104 30.9373 19.9084C30.9383 20.1724 30.9393 20.4364 30.9402 20.7083C30.9377 20.9993 30.9352 21.2902 30.9326 21.59C30.9328 22.048 30.9328 22.048 30.9329 22.5152C30.9331 23.3538 30.929 24.1924 30.9241 25.031C30.9197 25.9069 30.9193 26.7827 30.9185 27.6586C30.9163 29.3179 30.9106 30.9771 30.9035 32.6363C30.8957 34.525 30.8918 36.4137 30.8883 38.3024C30.881 42.1882 30.8687 46.074 30.8531 49.9597C30.0085 49.6298 29.2408 49.2604 28.4565 48.8038C28.2171 48.6651 27.9778 48.5263 27.7312 48.3834C27.4753 48.234 27.2194 48.0847 26.9557 47.9308C26.5514 47.6961 26.147 47.4614 25.7426 47.2268C25.3202 46.9817 24.898 46.7361 24.4757 46.4906C23.1955 45.7464 21.9129 45.0063 20.6302 44.2664C20.2311 44.036 19.8321 43.8054 19.4332 43.5748C19.1916 43.4353 18.9501 43.2958 18.7012 43.1521C18.4879 43.0289 18.2746 42.9056 18.0549 42.7787C17.7323 42.5951 17.4056 42.4186 17.0737 42.2526C17.0737 41.2507 17.0737 40.2488 17.0737 39.2165C18.6498 39.7418 18.6498 39.7418 19.3818 40.1826C19.5422 40.2782 19.7027 40.3738 19.8679 40.4723C20.0345 40.5733 20.201 40.6743 20.3726 40.7783C20.7241 40.9882 21.0756 41.198 21.4272 41.4078C21.5992 41.5112 21.7713 41.6145 21.9486 41.721C22.6473 42.1402 23.3485 42.5549 24.051 42.9678C24.2671 43.0958 24.4833 43.2238 24.706 43.3556C25.2579 43.6807 25.2579 43.6807 25.9485 43.8874C25.9485 43.6562 25.9485 43.425 25.9485 43.1868C25.7962 43.1317 25.6439 43.0766 25.4869 43.0199C24.5622 42.6268 23.7008 42.1449 22.8248 41.6541C22.576 41.5166 22.576 41.5166 22.3221 41.3763C21.9665 41.1781 21.6149 40.9723 21.2674 40.7601C20.5646 40.3542 20.5646 40.3542 19.7034 40.0734C18.6552 39.6597 17.7613 39.1988 17.0737 38.2823C16.4155 36.3335 16.668 34.123 16.7316 32.0996C16.7381 31.49 16.7431 30.8803 16.7466 30.2707C16.7574 28.8336 16.7861 27.3974 16.8214 25.9607C16.8607 24.324 16.8798 22.6873 16.8974 21.0502C16.9339 17.6853 16.9955 14.3212 17.0737 10.957Z" fill="#E25AF6"/>
<path d="M7.85248 38.0807C8.59882 38.4611 9.18645 38.9188 9.834 39.45C10.2478 39.7095 10.6699 39.9489 11.0954 40.1886C11.5993 40.4732 12.0961 40.7678 12.5928 41.0648C14.0775 41.9496 15.5684 42.8236 17.0594 43.6977C17.2046 43.7828 17.3498 43.868 17.4994 43.9557C20.2925 45.5934 23.0953 47.2141 25.9018 48.8287C27.1637 49.555 28.4246 50.2829 29.6857 51.0107C30.1917 51.3026 30.6977 51.5946 31.2037 51.8865C34.2399 53.6381 34.2399 53.6381 35 54.0767C35.5024 54.3665 36.0048 54.6564 36.5072 54.9462C37.687 55.6268 38.8667 56.3074 40.0463 56.9882C40.4641 57.2294 40.8819 57.4705 41.2997 57.7116C41.824 58.0141 42.3483 58.3167 42.8725 58.6193C43.3361 58.8868 43.8004 59.1531 44.2655 59.4179C44.6333 59.6327 44.9967 59.8555 45.3514 60.0914C45.8057 60.4033 45.8057 60.4033 46.5012 60.703C47.4973 60.4531 48.3217 60.0316 49.1998 59.5079C49.4397 59.3661 49.6797 59.2243 49.9269 59.0782C50.1741 58.9304 50.4212 58.7825 50.6759 58.6302C51.4013 58.1985 52.1272 57.7685 52.8582 57.3463C53.2557 57.1137 53.6485 56.8727 54.0321 56.618C54.4966 56.3312 54.4966 56.3312 55.3761 56.032C56.1258 56.2294 56.6988 56.6159 57.332 57.0538C57.5041 57.1644 57.6761 57.2751 57.8534 57.3891C58.1961 57.6096 58.5371 57.8328 58.8762 58.0589C59.4897 58.4616 60.1243 58.8227 60.7623 59.1849C61.3106 59.4988 61.3106 59.4988 61.6819 59.7688C61.6819 59.9229 61.6819 60.0771 61.6819 60.2359C61.4435 60.3666 61.205 60.4972 60.9594 60.6318C58.8534 61.7912 56.7655 62.9784 54.69 64.1916C54.3358 64.3979 54.3358 64.3979 53.9744 64.6083C52.8362 65.2722 51.7028 65.9423 50.5783 66.6293C50.3773 66.7503 50.1763 66.8714 49.9693 66.9961C49.5947 67.222 49.2219 67.4509 48.8513 67.6834C48.6845 67.7832 48.5177 67.883 48.3459 67.9859C48.203 68.0739 48.0601 68.162 47.9129 68.2527C47.0096 68.5505 46.2486 68.2777 45.414 67.8841C45.2056 67.7608 44.9972 67.6376 44.7824 67.5106C44.4252 67.3017 44.4252 67.3017 44.0608 67.0886C43.8064 66.9371 43.552 66.7855 43.2899 66.6293C43.0197 66.4705 42.7493 66.3119 42.4789 66.1535C41.9174 65.8246 41.3566 65.4946 40.7961 65.1639C39.5115 64.407 38.2181 63.6652 36.9257 62.9217C36.4196 62.6298 35.9136 62.3379 35.4076 62.0459C35.1571 61.9014 34.9067 61.7569 34.6486 61.608C27.8173 57.6669 20.986 53.7257 14.1547 49.7846C13.9039 49.6399 13.6532 49.4953 13.3948 49.3462C12.8915 49.0558 12.3881 48.7654 11.8847 48.475C10.716 47.8007 9.54727 47.1264 8.37832 46.4525C7.96948 46.2168 7.56066 45.9811 7.15183 45.7454C6.6428 45.4518 6.13374 45.1584 5.62464 44.865C3.98859 43.9215 2.35609 42.9721 0.725586 42.0191C5.67387 37.9959 5.67387 37.9959 7.85248 38.0807Z" fill="#373D4D"/>
<path d="M32.2556 31.042C32.6635 31.2644 33.0714 31.4869 33.4793 31.7093C33.82 31.8952 33.82 31.8952 34.1676 32.0847C36.8011 33.5219 39.4134 34.9918 42.0063 36.5012C42.3649 36.7096 42.3649 36.7096 42.7308 36.9222C42.9578 37.0548 43.1847 37.1875 43.4185 37.3241C43.6193 37.4413 43.82 37.5585 44.0268 37.6793C44.2271 37.8011 44.4274 37.923 44.6337 38.0485C44.8742 38.178 45.1146 38.3075 45.3624 38.4409C46.035 38.9827 46.035 38.9827 46.2035 39.6979C46.2004 39.978 46.1973 40.258 46.1941 40.5466C46.1944 40.7791 46.1944 40.7791 46.1947 41.0164C46.1937 41.5272 46.1829 42.0373 46.1719 42.5479C46.1692 42.9027 46.1672 43.2574 46.1658 43.6121C46.1605 44.5445 46.1467 45.4765 46.1312 46.4088C46.1169 47.3606 46.1105 48.3124 46.1034 49.2643C46.0884 51.131 46.0645 52.9975 46.035 54.864C45.2879 54.5711 44.6033 54.2661 43.9176 53.8486C43.7464 53.7458 43.5753 53.643 43.3989 53.5371C43.0436 53.3214 42.6884 53.1055 42.3333 52.8893C42.1625 52.7868 41.9916 52.6843 41.8156 52.5787C41.6616 52.485 41.5076 52.3914 41.3489 52.2949C40.8887 52.0572 40.4685 51.9321 39.9627 51.8279C40.5236 52.447 41.127 52.8343 41.8475 53.2529C42.076 53.3865 42.3046 53.5202 42.54 53.6579C42.7781 53.7958 43.0163 53.9337 43.2616 54.0758C43.7344 54.351 44.2069 54.6265 44.6793 54.9023C44.9937 55.0846 44.9937 55.0846 45.3144 55.2705C45.8015 55.5646 45.8015 55.5646 46.035 55.7982C46.052 56.3088 46.0546 56.82 46.0496 57.3309C46.0475 57.6105 46.0454 57.8902 46.0432 58.1784C46.0405 58.3948 46.0378 58.6113 46.035 58.8343C44.0703 57.8105 42.1355 56.7495 40.231 55.6173C39.1477 54.9738 38.0598 54.3391 36.9676 53.7108C36.8295 53.6314 36.6914 53.5519 36.5491 53.4701C35.9913 53.1493 35.4333 52.8286 34.875 52.5086C34.4834 52.2841 34.092 52.0592 33.7007 51.8342C33.4728 51.7036 33.2449 51.5729 33.0101 51.4382C32.4892 51.1272 32.4892 51.1272 32.2556 50.8937C32.2334 50.2754 32.2263 49.6632 32.2291 49.0448C32.2291 48.8512 32.229 48.6575 32.229 48.458C32.2292 47.8148 32.231 47.1715 32.2328 46.5283C32.2332 46.0836 32.2336 45.6388 32.2338 45.1941C32.2347 44.0211 32.237 42.8481 32.2396 41.6751C32.242 40.4792 32.243 39.2832 32.2442 38.0872C32.2467 35.7388 32.2507 33.3904 32.2556 31.042Z" fill="#CCFE41"/>
<path d="M60.982 31.2754C60.982 37.8264 60.982 44.3775 60.982 51.1271C59.0552 52.2061 57.1285 53.2851 55.1433 54.3967C54.119 54.9868 53.0963 55.5776 52.078 56.1776C51.4197 56.5638 50.7613 56.9499 50.1026 57.3355C49.7457 57.5447 49.3894 57.7549 49.0338 57.9664C47.9548 58.6006 47.9548 58.6006 47.4362 58.6006C47.3101 57.6385 47.2681 56.7571 47.4362 55.798C47.9902 55.0963 48.749 54.7928 49.5381 54.3967C50.0601 54.1003 50.5775 53.7969 51.0946 53.4919C51.4557 53.2792 51.8183 53.0689 52.1824 52.8612C52.3502 52.7646 52.5181 52.668 52.691 52.5685C52.9186 52.4388 52.9186 52.4388 53.1508 52.3064C53.5479 52.0767 53.5479 52.0767 53.742 51.5942C51.846 52.5169 49.999 53.4768 48.1906 54.5637C47.6697 54.8638 47.6697 54.8638 47.4362 54.8638C47.3547 52.8297 47.2926 50.7962 47.2547 48.7607C47.2364 47.8153 47.2117 46.8711 47.1719 45.9263C46.9229 39.8636 46.9229 39.8636 47.7426 38.4564C48.5203 37.6723 49.4241 37.3348 50.4694 37.0321C51.2061 36.7946 51.8239 36.3899 52.4785 35.9829C52.9724 35.6978 53.4666 35.4132 53.9609 35.129C54.3509 34.9045 54.3509 34.9045 54.7487 34.6755C56.245 33.8152 57.7425 32.9569 59.245 32.1074C59.3978 32.0207 59.5505 31.934 59.7079 31.8447C60.7205 31.2754 60.7205 31.2754 60.982 31.2754Z" fill="#CCFE41"/>
<path d="M47.0482 22.0989C47.7154 22.4226 48.3577 22.7705 49.0005 23.1402C49.261 23.2895 49.5215 23.4388 49.7899 23.5927C50.0708 23.7547 50.3517 23.9168 50.6327 24.0789C50.9217 24.245 51.2109 24.4111 51.5 24.5771C52.2518 25.0089 53.003 25.4416 53.754 25.8748C54.2057 26.1353 54.6576 26.3956 55.1094 26.6558C56.8341 27.6493 58.5581 28.6441 60.2811 29.6403C59.7207 30.2605 59.1217 30.6399 58.3972 31.0526C58.0361 31.2596 58.0361 31.2596 57.6676 31.4707C57.2778 31.6918 57.2778 31.6918 56.8801 31.9174C56.4718 32.1504 56.0635 32.3835 55.6553 32.6166C55.3726 32.7781 55.0897 32.9395 54.8068 33.1007C53.7992 33.6754 52.797 34.2586 51.7967 34.8459C51.5205 35.0075 51.2443 35.1691 50.968 35.3306C50.4413 35.6388 49.9153 35.9482 49.39 36.2588C49.1507 36.3983 48.9114 36.5378 48.6648 36.6815C48.4552 36.8047 48.2456 36.928 48.0296 37.0549C47.409 37.3607 46.9594 37.5379 46.2682 37.581C45.6746 37.3415 45.6746 37.3415 45.0393 36.9606C44.8 36.8197 44.5607 36.6787 44.3142 36.5335C44.0582 36.3782 43.8023 36.2229 43.5386 36.0629C43.1338 35.8227 42.729 35.5825 42.324 35.3426C42.0436 35.1763 41.7634 35.0095 41.4835 34.8422C40.4886 34.2479 39.4862 33.6685 38.4781 33.097C38.2005 32.9392 37.9229 32.7814 37.6453 32.6235C37.1163 32.3232 36.587 32.0237 36.0571 31.7249C35.697 31.519 35.697 31.519 35.3297 31.3089C35.1189 31.1893 34.908 31.0698 34.6908 30.9466C34.1096 30.5653 33.6617 30.1481 33.1895 29.6403C33.4213 29.5068 33.4213 29.5068 33.6579 29.3706C36.7896 27.5672 39.9181 25.7588 43.0377 23.9347C43.4608 23.6874 43.8845 23.4412 44.3089 23.1964C44.6594 22.9898 45.0058 22.7759 45.3455 22.5521C46.3683 21.8927 46.3683 21.8927 47.0482 22.0989Z" fill="#CCFE41"/>
<path d="M32.0226 1.70286C32.3184 1.89072 32.3184 1.89072 32.6202 2.08237C32.8583 2.22477 33.0965 2.36718 33.3418 2.51389C33.5998 2.67978 33.8578 2.84566 34.1237 3.01657C34.4053 3.18328 34.6878 3.34836 34.9712 3.51195C35.6197 3.88681 36.2648 4.2667 36.908 4.6505C38.5103 5.6029 40.1286 6.528 41.745 7.45616C42.1332 7.67907 42.5211 7.90226 42.9091 8.12546C43.1346 8.25491 43.36 8.38437 43.5923 8.51775C44.0254 8.77246 44.4489 9.04369 44.8669 9.32239C44.8669 9.47654 44.8669 9.63068 44.8669 9.78949C44.2498 10.1455 43.6326 10.5016 43.0155 10.8576C42.4743 11.1699 41.9331 11.4821 41.3919 11.7944C40.0919 12.5447 38.7917 13.2946 37.4908 14.0433C37.0705 14.2852 36.6503 14.5272 36.2301 14.7692C35.6987 15.0752 35.1672 15.381 34.6356 15.6867C34.3947 15.8254 34.1538 15.9642 33.9056 16.1072C33.6936 16.2292 33.4815 16.3512 33.263 16.4769C32.8412 16.7258 32.4292 16.9914 32.0217 17.2631C30.9445 17.1932 30.1905 16.8516 29.2666 16.3124C29.0068 16.1624 28.7471 16.0123 28.4795 15.8577C28.2005 15.6936 27.9216 15.5296 27.6427 15.3655C27.3547 15.1982 27.0667 15.0311 26.7785 14.8642C26.181 14.5177 25.5842 14.1701 24.9879 13.8216C24.0939 13.2995 23.1975 12.7819 22.3003 12.2655C22.159 12.1842 22.0178 12.1029 21.8723 12.0191C21.5953 11.8597 21.3184 11.7003 21.0414 11.5409C20.0298 10.9583 19.0194 10.3738 18.0088 9.78949C18.0088 9.63535 18.0088 9.48121 18.0088 9.32239C18.1422 9.24754 18.2755 9.17269 18.4129 9.09557C21.0772 7.5988 23.7335 6.08964 26.3728 4.54924C26.5993 4.41703 26.8259 4.28483 27.0593 4.14862C27.2774 4.02101 27.4955 3.8934 27.7202 3.76192C27.931 3.63973 28.1418 3.51753 28.359 3.39164C28.7863 3.13586 29.2072 2.86908 29.6218 2.59315C31.147 1.59354 31.147 1.59354 32.0226 1.70286Z" fill="#D946EF"/>
<path d="M1.89346 23.5684C3.58472 24.385 5.21047 25.2848 6.82718 26.2396C7.31707 26.5273 7.80697 26.815 8.2969 27.1026C8.54779 27.2502 8.79869 27.3978 9.05719 27.5499C9.84929 28.0147 10.6429 28.4768 11.437 28.9382C11.6943 29.0877 11.9515 29.2372 12.2165 29.3912C12.7143 29.6804 13.2121 29.9694 13.7102 30.2582C13.9337 30.3883 14.1571 30.5184 14.3874 30.6524C14.5853 30.7673 14.7833 30.8823 14.9872 31.0007C15.4393 31.2755 15.4393 31.2755 15.6729 31.509C15.6933 31.942 15.6978 32.3757 15.6957 32.8091C15.6949 33.0717 15.6942 33.3344 15.6934 33.605C15.6904 34.0198 15.6904 34.0198 15.6874 34.443C15.6864 34.7204 15.6853 34.9978 15.6843 35.2837C15.6815 35.9717 15.6776 36.6597 15.6729 37.3478C14.8255 37.0189 14.0806 36.6461 13.3082 36.1654C12.6828 35.7767 12.1697 35.4794 11.469 35.2458C11.469 35.477 11.469 35.7082 11.469 35.9465C11.6315 36.0064 11.7941 36.0663 11.9616 36.128C12.7137 36.4461 13.3932 36.8308 14.0964 37.2456C14.3433 37.3904 14.5901 37.5352 14.8445 37.6844C15.4393 38.0484 15.4393 38.0484 15.6729 38.2819C15.6898 38.7926 15.6924 39.3037 15.6874 39.8146C15.6853 40.0943 15.6832 40.374 15.6811 40.6621C15.6784 40.8786 15.6756 41.0951 15.6729 41.3181C14.8152 40.8534 13.9593 40.3856 13.1038 39.9168C12.9573 39.8366 12.8108 39.7565 12.6599 39.6739C10.396 38.433 8.15333 37.1577 5.92218 35.8589C5.68308 35.7199 5.44398 35.581 5.19764 35.4379C4.9707 35.3052 4.74376 35.1726 4.50994 35.036C4.30921 34.9188 4.10847 34.8015 3.90166 34.6808C3.70138 34.5589 3.5011 34.4371 3.29475 34.3116C3.0413 34.1887 2.78784 34.0657 2.52671 33.9391C1.82979 33.3209 1.79614 33.2436 1.73438 32.3709C1.7346 31.9607 1.74247 31.5504 1.75661 31.1405C1.7586 30.9241 1.76058 30.7077 1.76262 30.4847C1.77046 29.7944 1.78804 29.1047 1.80588 28.4145C1.81291 27.9462 1.8193 27.4779 1.82503 27.0096C1.84047 25.8622 1.86466 24.7154 1.89346 23.5684Z" fill="#030712"/>
<path d="M45.8007 10.957C45.8007 14.194 45.8007 17.431 45.8007 20.7661C44.847 21.3104 43.8932 21.8547 42.9106 22.4155C41.1076 23.4449 39.3055 24.4758 37.5079 25.5146C37.3692 25.5947 37.2306 25.6749 37.0877 25.7574C36.4246 26.1407 35.7617 26.5245 35.0991 26.9087C34.8614 27.0462 34.6236 27.1838 34.3787 27.3255C34.1708 27.4461 33.963 27.5666 33.7488 27.6908C33.259 27.9667 32.7577 28.2218 32.2549 28.4732C32.2549 25.2362 32.2549 21.9992 32.2549 18.6642C33.1316 18.1584 34.0083 17.6526 34.9115 17.1315C35.2049 16.9622 35.4983 16.7929 35.8006 16.6185C37.0732 15.8842 38.3459 15.15 39.619 14.4163C40.0356 14.1762 40.4523 13.936 40.8689 13.6958C41.3943 13.393 41.9197 13.0902 42.4452 12.7875C42.6846 12.6495 42.9239 12.5115 43.1706 12.3693C43.3802 12.2485 43.5898 12.1277 43.8058 12.0032C44.2218 11.7611 44.6348 11.5138 45.0455 11.2629C45.5672 10.957 45.5672 10.957 45.8007 10.957Z" fill="#D946EF"/>
<path d="M15.6732 14.9268C15.6732 19.8593 15.6732 24.7919 15.6732 29.8739C11.6489 27.7276 11.6489 27.7276 10.2869 26.9107C9.95859 26.7148 9.63015 26.519 9.30166 26.3232C9.12825 26.2198 8.95484 26.1164 8.77618 26.0098C8.12247 25.6246 7.46431 25.2475 6.80561 24.8708C6.5696 24.7347 6.33358 24.5985 6.09042 24.4582C5.62367 24.1889 5.15579 23.9216 4.68673 23.6564C4.36952 23.4722 4.36952 23.4722 4.0459 23.2843C3.85591 23.1757 3.66592 23.067 3.47018 22.9551C3.33532 22.8491 3.20047 22.7431 3.06152 22.6339C3.06152 22.4027 3.06152 22.1715 3.06152 21.9332C3.19489 21.8584 3.32826 21.7835 3.46567 21.7064C9.11752 18.5595 9.11752 18.5595 14.665 15.2348C15.2061 14.9268 15.2061 14.9268 15.6732 14.9268Z" fill="#030712"/>
<path d="M33.8896 48.3242C34.9942 48.4453 35.7185 48.743 36.6484 49.346C36.8715 49.4875 37.0946 49.629 37.3245 49.7748C37.86 50.1926 37.86 50.1926 38.0935 50.8933C37.0248 50.7624 36.2296 50.3038 35.3347 49.7401C35.1952 49.656 35.0557 49.5718 34.9119 49.4851C34.562 49.268 34.2245 49.0311 33.8896 48.7913C33.8896 48.6372 33.8896 48.483 33.8896 48.3242Z" fill="#64748B"/>
<path d="M5.63003 31.7422C6.79126 32.1542 7.83342 32.7684 8.89972 33.377C8.82265 33.6082 8.74558 33.8395 8.66617 34.0777C7.50494 33.6656 6.46278 33.0515 5.39648 32.4428C5.47356 32.2116 5.55063 31.9804 5.63003 31.7422Z" fill="#64748B"/>
</svg>
