<svg width="63" height="69" viewBox="0 0 63 69" fill="none" xmlns="http://www.w3.org/2000/svg">
<path d="M31.6759 0.01703C32.2804 0.22196 32.7934 0.467641 33.3471 0.785358C33.6618 0.964498 33.6618 0.964498 33.9828 1.14726C34.2074 1.27741 34.4321 1.40756 34.6635 1.54166C35.0167 1.74388 35.0167 1.74388 35.377 1.9502C36.1281 2.38122 36.8776 2.81493 37.6267 3.24948C37.8694 3.39008 38.112 3.53067 38.3621 3.67553C39.7707 4.49247 41.1768 5.31358 42.5813 6.1376C43.2068 6.50446 43.8328 6.87045 44.4589 7.23624C44.8235 7.44968 45.1881 7.66315 45.5527 7.87667C45.7186 7.97352 45.8844 8.07037 46.0553 8.17015C47.1753 8.82779 47.1753 8.82779 47.4357 9.08821C47.4351 9.4302 47.4182 9.77217 47.3947 10.1134C46.7883 15.8915 46.7883 15.8915 48.1316 21.3376C49.3591 22.5057 50.8621 23.0033 52.4538 23.5076C53.8979 24.0253 55.1643 24.8483 56.4711 25.641C56.9772 25.934 57.4838 26.226 57.991 26.5168C62.1143 28.9049 62.1143 28.9049 62.6164 29.407C62.6548 30.0935 62.678 30.7748 62.6911 31.462C62.696 31.6777 62.7009 31.8934 62.706 32.1157C62.7488 34.11 62.7735 36.1046 62.7929 38.0992C62.8061 39.44 62.8252 40.78 62.8583 42.1204C62.8902 43.4155 62.9071 44.71 62.9136 46.0054C62.9186 46.4987 62.9289 46.992 62.9446 47.4851C63.0586 51.2411 63.0586 51.2411 62.3282 52.21C61.5162 52.9324 60.5864 53.2993 59.5803 53.6961C59.0593 53.975 58.5575 54.2769 58.0503 54.581C57.5242 54.8801 56.9978 55.1787 56.4711 55.4769C55.9001 55.801 55.3294 56.1255 54.7588 56.4503C54.5447 56.5722 54.5447 56.5722 54.3263 56.6965C53.3476 57.2548 52.374 57.8213 51.4033 58.3935C51.1477 58.544 50.892 58.6945 50.6286 58.8496C50.1448 59.1351 49.6615 59.4216 49.1788 59.7092C48.8543 59.9006 48.8543 59.9006 48.5232 60.0959C48.3349 60.2078 48.1466 60.3198 47.9525 60.4352C47.4432 60.6987 47.0721 60.8798 46.5015 60.9361C45.9913 60.7358 45.9913 60.7358 45.4323 60.4097C45.1167 60.2284 45.1167 60.2284 44.7948 60.0435C44.568 59.9094 44.3413 59.7752 44.1076 59.637C43.8696 59.4992 43.6316 59.3614 43.3863 59.2195C42.6325 58.7824 41.8812 58.3414 41.1299 57.9C40.6675 57.6306 40.205 57.3615 39.7423 57.0926C38.8152 56.5533 37.889 56.0124 36.9634 55.4705C34.7214 54.1593 32.4696 52.8651 30.219 51.5687C28.6984 50.6926 27.1785 49.8152 25.6584 48.9381C24.3877 48.2049 23.1169 47.472 21.8457 46.7398C19.1642 45.1948 16.4864 43.6438 13.8147 42.082C11.8666 40.9442 9.91284 39.8163 7.95589 38.6937C7.47746 38.4186 7.00305 38.1364 6.53213 37.8486C5.8154 37.4268 5.07734 37.111 4.31 36.7915C0.860321 35.2425 0.860321 35.2425 0.225524 33.6364C-0.149031 31.702 0.0235497 29.7668 0.171228 27.8159C0.197034 27.2223 0.220472 26.6285 0.241475 26.0347C0.297793 24.5874 0.383415 23.1441 0.492358 21.6999C1.10934 21.3439 1.72632 20.988 2.3433 20.632C2.8862 20.3188 3.4291 20.0056 3.97199 19.6923C5.25266 18.9534 6.53335 18.2146 7.81428 17.4761C8.2184 17.2432 8.62249 17.0102 9.02659 16.7771C9.53068 16.4865 10.0348 16.1959 10.539 15.9053C11.0054 15.6363 11.4707 15.3654 11.9348 15.0925C12.4256 14.8135 12.9253 14.5499 13.4307 14.2984C14.7695 13.6818 14.7695 13.6818 15.6477 12.5804C15.6927 12.0519 15.6678 11.5846 15.6001 11.0588C15.5221 10.3648 15.4669 9.76176 15.673 9.08821C16.2856 8.46933 17.0126 8.09692 17.775 7.68692C18.2153 7.4274 18.6553 7.16737 19.0951 6.9069C19.584 6.62611 20.0733 6.34607 20.563 6.06667C20.9618 5.83784 21.3607 5.60901 21.7595 5.38011C22.1737 5.14244 22.5882 4.90508 23.0027 4.66777C24.4002 3.86723 25.7949 3.0618 27.1899 2.2569C27.446 2.1094 27.702 1.9619 27.9658 1.80993C28.205 1.67203 28.4442 1.53412 28.6907 1.39204C28.9003 1.27124 29.1099 1.15044 29.3259 1.02598C29.9288 0.685827 29.9288 0.685827 30.5072 0.271049C31.0873 -0.0202033 31.0873 -0.0202033 31.6759 0.01703Z" fill="#373D4D"/>
<path d="M17.0742 10.957C17.9925 11.2541 18.7946 11.5683 19.625 12.0618C19.9511 12.2541 19.9511 12.2541 20.2839 12.4502C20.6315 12.6576 20.6315 12.6576 20.9861 12.8692C21.4844 13.1635 21.9829 13.4575 22.4814 13.7514C22.7412 13.9049 23.0009 14.0584 23.2686 14.2166C24.9098 15.1835 26.5645 16.1274 28.2163 17.076C28.4595 17.2159 28.7027 17.3559 28.9532 17.5001C29.1683 17.6236 29.3833 17.7471 29.6049 17.8743C30.0293 18.1242 30.4438 18.391 30.8536 18.6642C30.9398 19.2104 30.9398 19.2104 30.9378 19.9084C30.9388 20.1724 30.9397 20.4364 30.9407 20.7083C30.9382 20.9993 30.9357 21.2902 30.9331 21.59C30.9333 22.048 30.9333 22.048 30.9334 22.5152C30.9336 23.3538 30.9295 24.1924 30.9246 25.031C30.9202 25.9069 30.9198 26.7827 30.919 27.6586C30.9168 29.3179 30.911 30.9771 30.904 32.6363C30.8962 34.525 30.8923 36.4137 30.8888 38.3024C30.8815 42.1882 30.8692 46.074 30.8536 49.9597C30.009 49.6298 29.2413 49.2604 28.4569 48.8038C28.2176 48.6651 27.9783 48.5263 27.7317 48.3834C27.4758 48.234 27.2199 48.0847 26.9562 47.9308C26.5519 47.6961 26.1475 47.4614 25.7431 47.2268C25.3207 46.9817 24.8984 46.7361 24.4762 46.4906C23.196 45.7464 21.9134 45.0063 20.6307 44.2664C20.2316 44.036 19.8326 43.8054 19.4337 43.5748C19.1921 43.4353 18.9506 43.2958 18.7017 43.1521C18.4884 43.0289 18.2751 42.9056 18.0553 42.7787C17.7328 42.5951 17.4061 42.4186 17.0742 42.2526C17.0742 41.2507 17.0742 40.2488 17.0742 39.2165C18.6502 39.7418 18.6502 39.7418 19.3823 40.1826C19.5427 40.2782 19.7031 40.3738 19.8684 40.4723C20.035 40.5733 20.2015 40.6743 20.373 40.7783C20.7246 40.9882 21.0761 41.198 21.4277 41.4078C21.5997 41.5112 21.7718 41.6145 21.949 41.721C22.6477 42.1402 23.349 42.5549 24.0514 42.9678C24.2676 43.0958 24.4838 43.2238 24.7065 43.3556C25.2584 43.6807 25.2584 43.6807 25.949 43.8874C25.949 43.6562 25.949 43.425 25.949 43.1868C25.7967 43.1317 25.6444 43.0766 25.4874 43.0199C24.5627 42.6268 23.7013 42.1449 22.8253 41.6541C22.5765 41.5166 22.5765 41.5166 22.3226 41.3763C21.9669 41.1781 21.6154 40.9723 21.2679 40.7601C20.5651 40.3542 20.5651 40.3542 19.7039 40.0734C18.6557 39.6597 17.7618 39.1988 17.0742 38.2823C16.4159 36.3335 16.6685 34.123 16.7321 32.0996C16.7386 31.49 16.7436 30.8803 16.7471 30.2707C16.7579 28.8336 16.7866 27.3974 16.8219 25.9607C16.8611 24.324 16.8803 22.6873 16.8979 21.0502C16.9344 17.6853 16.9959 14.3212 17.0742 10.957Z" fill="#E25AF6"/>
<path d="M7.85297 38.0807C8.59931 38.4611 9.18694 38.9188 9.83449 39.45C10.2483 39.7095 10.6704 39.9489 11.0959 40.1886C11.5998 40.4732 12.0966 40.7678 12.5933 41.0648C14.078 41.9496 15.5689 42.8236 17.0599 43.6977C17.2051 43.7828 17.3503 43.868 17.4999 43.9557C20.293 45.5934 23.0958 47.2141 25.9023 48.8287C27.1642 49.555 28.4251 50.2829 29.6862 51.0107C30.1922 51.3026 30.6982 51.5946 31.2042 51.8865C34.2404 53.6381 34.2404 53.6381 35.0005 54.0767C35.5029 54.3665 36.0053 54.6564 36.5077 54.9462C37.6875 55.6268 38.8672 56.3074 40.0468 56.9882C40.4646 57.2294 40.8824 57.4705 41.3002 57.7116C41.8245 58.0141 42.3488 58.3167 42.873 58.6193C43.3366 58.8868 43.8009 59.1531 44.266 59.4179C44.6338 59.6327 44.9972 59.8555 45.3519 60.0914C45.8062 60.4033 45.8062 60.4033 46.5017 60.703C47.4978 60.4531 48.3221 60.0316 49.2003 59.5079C49.4402 59.3661 49.6802 59.2243 49.9274 59.0782C50.1746 58.9304 50.4217 58.7825 50.6764 58.6302C51.4018 58.1985 52.1277 57.7685 52.8587 57.3463C53.2561 57.1137 53.649 56.8727 54.0326 56.618C54.4971 56.3312 54.4971 56.3312 55.3766 56.032C56.1263 56.2294 56.6993 56.6159 57.3325 57.0538C57.5046 57.1644 57.6766 57.2751 57.8539 57.3891C58.1966 57.6096 58.5376 57.8328 58.8767 58.0589C59.4902 58.4616 60.1248 58.8227 60.7628 59.1849C61.3111 59.4988 61.3111 59.4988 61.6824 59.7688C61.6824 59.9229 61.6824 60.0771 61.6824 60.2359C61.4439 60.3666 61.2055 60.4972 60.9598 60.6318C58.8538 61.7912 56.7659 62.9784 54.6905 64.1916C54.3363 64.3979 54.3363 64.3979 53.9749 64.6083C52.8367 65.2722 51.7033 65.9423 50.5788 66.6293C50.3778 66.7503 50.1768 66.8714 49.9697 66.9961C49.5951 67.222 49.2224 67.4509 48.8518 67.6834C48.685 67.7832 48.5182 67.883 48.3464 67.9859C48.2035 68.0739 48.0606 68.162 47.9134 68.2527C47.0101 68.5505 46.2491 68.2777 45.4145 67.8841C45.2061 67.7608 44.9976 67.6376 44.7829 67.5106C44.4257 67.3017 44.4257 67.3017 44.0613 67.0886C43.8069 66.9371 43.5525 66.7855 43.2904 66.6293C43.0202 66.4705 42.7498 66.3119 42.4794 66.1535C41.9179 65.8246 41.3571 65.4946 40.7966 65.1639C39.512 64.407 38.2186 63.6652 36.9262 62.9217C36.4201 62.6298 35.9141 62.3379 35.4081 62.0459C35.1576 61.9014 34.9072 61.7569 34.6491 61.608C27.8178 57.6669 20.9865 53.7257 14.1551 49.7846C13.9044 49.6399 13.6537 49.4953 13.3953 49.3462C12.8919 49.0558 12.3886 48.7654 11.8852 48.475C10.7165 47.8007 9.54776 47.1264 8.37881 46.4525C7.96997 46.2168 7.56114 45.9811 7.15232 45.7454C6.64329 45.4518 6.13423 45.1584 5.62513 44.865C3.98908 43.9215 2.35658 42.9721 0.726074 42.0191C5.67436 37.9959 5.67436 37.9959 7.85297 38.0807Z" fill="currentColor"/>
<path d="M32.2551 31.042C32.663 31.2644 33.0709 31.4869 33.4788 31.7093C33.8195 31.8952 33.8195 31.8952 34.1671 32.0847C36.8006 33.5219 39.4129 34.9918 42.0058 36.5012C42.3644 36.7096 42.3644 36.7096 42.7303 36.9222C42.9573 37.0548 43.1842 37.1875 43.418 37.3241C43.6188 37.4413 43.8195 37.5585 44.0263 37.6793C44.2266 37.8011 44.4269 37.923 44.6332 38.0485C44.8737 38.178 45.1141 38.3075 45.3619 38.4409C46.0345 38.9827 46.0345 38.9827 46.203 39.6979C46.1999 39.978 46.1968 40.258 46.1936 40.5466C46.1939 40.7791 46.1939 40.7791 46.1942 41.0164C46.1932 41.5272 46.1824 42.0373 46.1714 42.5479C46.1688 42.9027 46.1668 43.2574 46.1654 43.6121C46.16 44.5445 46.1463 45.4765 46.1307 46.4088C46.1164 47.3606 46.11 48.3124 46.1029 49.2643C46.0879 51.131 46.064 52.9975 46.0345 54.864C45.2874 54.5711 44.6028 54.2661 43.9171 53.8486C43.7459 53.7458 43.5748 53.643 43.3984 53.5371C43.0431 53.3214 42.6879 53.1055 42.3329 52.8893C42.162 52.7868 41.9912 52.6843 41.8151 52.5787C41.6611 52.485 41.5071 52.3914 41.3484 52.2949C40.8882 52.0572 40.468 51.9321 39.9622 51.8279C40.5231 52.447 41.1265 52.8343 41.8471 53.2529C42.0756 53.3865 42.3041 53.5202 42.5395 53.6579C42.7776 53.7958 43.0158 53.9337 43.2611 54.0758C43.7339 54.351 44.2064 54.6265 44.6788 54.9023C44.9932 55.0846 44.9932 55.0846 45.3139 55.2705C45.801 55.5646 45.801 55.5646 46.0345 55.7982C46.0515 56.3088 46.0541 56.82 46.0491 57.3309C46.047 57.6105 46.0449 57.8902 46.0427 58.1784C46.04 58.3948 46.0373 58.6113 46.0345 58.8343C44.0698 57.8105 42.135 56.7495 40.2305 55.6173C39.1472 54.9738 38.0593 54.3391 36.9672 53.7108C36.8291 53.6314 36.6909 53.5519 36.5487 53.4701C35.9908 53.1493 35.4328 52.8286 34.8745 52.5086C34.4829 52.2841 34.0916 52.0592 33.7002 51.8342C33.4723 51.7036 33.2444 51.5729 33.0096 51.4382C32.4887 51.1272 32.4887 51.1272 32.2551 50.8937C32.2329 50.2754 32.2258 49.6632 32.2286 49.0448C32.2286 48.8512 32.2285 48.6575 32.2285 48.458C32.2287 47.8148 32.2305 47.1715 32.2323 46.5283C32.2328 46.0836 32.2331 45.6388 32.2333 45.1941C32.2342 44.0211 32.2365 42.8481 32.2391 41.6751C32.2415 40.4792 32.2425 39.2832 32.2437 38.0872C32.2462 35.7388 32.2502 33.3904 32.2551 31.042Z" fill="#CCFE41"/>
<path d="M60.9819 31.2754C60.9819 37.8264 60.9819 44.3775 60.9819 51.1271C59.0551 52.2061 57.1283 53.2851 55.1432 54.3967C54.1188 54.9868 53.0962 55.5776 52.0778 56.1776C51.4195 56.5638 50.7612 56.9499 50.1025 57.3355C49.7456 57.5447 49.3893 57.7549 49.0337 57.9664C47.9547 58.6006 47.9547 58.6006 47.436 58.6006C47.3099 57.6385 47.268 56.7571 47.436 55.798C47.9901 55.0963 48.7489 54.7928 49.538 54.3967C50.0599 54.1003 50.5774 53.7969 51.0944 53.4919C51.4556 53.2792 51.8182 53.0689 52.1822 52.8612C52.3501 52.7646 52.518 52.668 52.6909 52.5685C52.9185 52.4388 52.9185 52.4388 53.1507 52.3064C53.5478 52.0767 53.5478 52.0767 53.7419 51.5942C51.8459 52.5169 49.9989 53.4768 48.1905 54.5637C47.6696 54.8638 47.6696 54.8638 47.436 54.8638C47.3546 52.8297 47.2925 50.7962 47.2545 48.7607C47.2363 47.8153 47.2116 46.8711 47.1718 45.9263C46.9228 39.8636 46.9228 39.8636 47.7425 38.4564C48.5202 37.6723 49.424 37.3348 50.4693 37.0321C51.2059 36.7946 51.8238 36.3899 52.4783 35.9829C52.9723 35.6978 53.4664 35.4132 53.9608 35.129C54.3507 34.9045 54.3507 34.9045 54.7485 34.6755C56.2449 33.8152 57.7423 32.9569 59.2449 32.1074C59.3976 32.0207 59.5504 31.934 59.7078 31.8447C60.7204 31.2754 60.7204 31.2754 60.9819 31.2754Z" fill="#CCFE41"/>
<path d="M47.0481 22.0989C47.7152 22.4226 48.3576 22.7705 49.0004 23.1402C49.2609 23.2895 49.5214 23.4388 49.7898 23.5927C50.0707 23.7547 50.3516 23.9168 50.6325 24.0789C50.9216 24.245 51.2107 24.4111 51.4999 24.5771C52.2517 25.0089 53.0029 25.4416 53.7539 25.8748C54.2056 26.1353 54.6574 26.3956 55.1093 26.6558C56.834 27.6493 58.5579 28.6441 60.281 29.6403C59.7206 30.2605 59.1216 30.6399 58.3971 31.0526C58.0359 31.2596 58.0359 31.2596 57.6675 31.4707C57.2776 31.6918 57.2776 31.6918 56.88 31.9174C56.4717 32.1504 56.0634 32.3835 55.6552 32.6166C55.3724 32.7781 55.0896 32.9395 54.8067 33.1007C53.7991 33.6754 52.7969 34.2586 51.7966 34.8459C51.5204 35.0075 51.2441 35.1691 50.9679 35.3306C50.4412 35.6388 49.9152 35.9482 49.3899 36.2588C49.1506 36.3983 48.9113 36.5378 48.6647 36.6815C48.4551 36.8047 48.2454 36.928 48.0294 37.0549C47.4089 37.3607 46.9593 37.5379 46.2681 37.581C45.6745 37.3415 45.6745 37.3415 45.0392 36.9606C44.7999 36.8197 44.5606 36.6787 44.314 36.5335C44.0581 36.3782 43.8022 36.2229 43.5385 36.0629C43.1337 35.8227 42.7289 35.5825 42.3239 35.3426C42.0434 35.1763 41.7633 35.0095 41.4834 34.8422C40.4885 34.2479 39.4861 33.6685 38.4779 33.097C38.2004 32.9392 37.9228 32.7814 37.6452 32.6235C37.1162 32.3232 36.5868 32.0237 36.057 31.7249C35.6969 31.519 35.6969 31.519 35.3296 31.3089C35.1187 31.1893 34.9079 31.0698 34.6906 30.9466C34.1095 30.5653 33.6616 30.1481 33.1893 29.6403C33.4212 29.5068 33.4212 29.5068 33.6578 29.3706C36.7894 27.5672 39.9179 25.7588 43.0376 23.9347C43.4607 23.6874 43.8843 23.4412 44.3088 23.1964C44.6593 22.9898 45.0057 22.7759 45.3454 22.5521C46.3682 21.8927 46.3682 21.8927 47.0481 22.0989Z" fill="#CCFE41"/>
<path d="M32.0224 1.70286C32.3182 1.89072 32.3182 1.89072 32.62 2.08237C32.8581 2.22477 33.0962 2.36718 33.3416 2.51389C33.5996 2.67978 33.8576 2.84566 34.1234 3.01657C34.405 3.18328 34.6876 3.34836 34.971 3.51195C35.6194 3.88681 36.2645 4.2667 36.9078 4.6505C38.5101 5.6029 40.1283 6.528 41.7448 7.45616C42.1329 7.67907 42.5209 7.90226 42.9089 8.12546C43.1343 8.25491 43.3598 8.38437 43.5921 8.51775C44.0252 8.77246 44.4486 9.04369 44.8667 9.32239C44.8667 9.47654 44.8667 9.63068 44.8667 9.78949C44.2495 10.1455 43.6324 10.5016 43.0152 10.8576C42.474 11.1699 41.9328 11.4821 41.3917 11.7944C40.0916 12.5447 38.7915 13.2946 37.4906 14.0433C37.0703 14.2852 36.65 14.5272 36.2298 14.7692C35.6984 15.0752 35.167 15.381 34.6353 15.6867C34.3945 15.8254 34.1536 15.9642 33.9054 16.1072C33.6933 16.2292 33.4812 16.3512 33.2627 16.4769C32.841 16.7258 32.429 16.9914 32.0215 17.2631C30.9443 17.1932 30.1902 16.8516 29.2663 16.3124C29.0066 16.1624 28.7469 16.0123 28.4793 15.8577C28.2003 15.6936 27.9214 15.5296 27.6424 15.3655C27.3545 15.1982 27.0664 15.0311 26.7783 14.8642C26.1808 14.5177 25.5839 14.1701 24.9876 13.8216C24.0937 13.2995 23.1973 12.7819 22.3 12.2655C22.1588 12.1842 22.0176 12.1029 21.8721 12.0191C21.5951 11.8597 21.3181 11.7003 21.0411 11.5409C20.0296 10.9583 19.0191 10.3738 18.0085 9.78949C18.0085 9.63535 18.0085 9.48121 18.0085 9.32239C18.1419 9.24754 18.2753 9.17269 18.4127 9.09557C21.0769 7.5988 23.7332 6.08964 26.3725 4.54924C26.5991 4.41703 26.8256 4.28483 27.059 4.14862C27.2771 4.02101 27.4953 3.8934 27.72 3.76192C27.9308 3.63973 28.1416 3.51753 28.3588 3.39164C28.7861 3.13586 29.2069 2.86908 29.6215 2.59315C31.1467 1.59354 31.1467 1.59354 32.0224 1.70286Z" fill="#D946EF"/>
<path d="M1.89358 23.5684C3.58484 24.385 5.21059 25.2848 6.8273 26.2396C7.31719 26.5273 7.80709 26.815 8.29702 27.1026C8.54792 27.2502 8.79881 27.3978 9.05731 27.5499C9.84941 28.0147 10.643 28.4768 11.4372 28.9382C11.6944 29.0877 11.9516 29.2372 12.2166 29.3912C12.7144 29.6804 13.2123 29.9694 13.7103 30.2582C13.9338 30.3883 14.1573 30.5184 14.3875 30.6524C14.5855 30.7673 14.7834 30.8823 14.9873 31.0007C15.4394 31.2755 15.4394 31.2755 15.673 31.509C15.6934 31.942 15.698 32.3757 15.6958 32.8091C15.695 33.0717 15.6943 33.3344 15.6935 33.605C15.6906 34.0198 15.6906 34.0198 15.6876 34.443C15.6865 34.7204 15.6855 34.9978 15.6844 35.2837C15.6816 35.9717 15.6778 36.6597 15.673 37.3478C14.8257 37.0189 14.0807 36.6461 13.3083 36.1654C12.683 35.7767 12.1698 35.4794 11.4691 35.2458C11.4691 35.477 11.4691 35.7082 11.4691 35.9465C11.6317 36.0064 11.7942 36.0663 11.9617 36.128C12.7138 36.4461 13.3934 36.8308 14.0965 37.2456C14.3434 37.3904 14.5903 37.5352 14.8446 37.6844C15.4394 38.0484 15.4394 38.0484 15.673 38.2819C15.6899 38.7926 15.6925 39.3037 15.6876 39.8146C15.6855 40.0943 15.6834 40.374 15.6812 40.6621C15.6785 40.8786 15.6758 41.0951 15.673 41.3181C14.8153 40.8534 13.9594 40.3856 13.1039 39.9168C12.9574 39.8366 12.8109 39.7565 12.66 39.6739C10.3961 38.433 8.15346 37.1577 5.9223 35.8589C5.6832 35.7199 5.44411 35.581 5.19776 35.4379C4.97082 35.3052 4.74388 35.1726 4.51006 35.036C4.30933 34.9188 4.1086 34.8015 3.90178 34.6808C3.7015 34.5589 3.50122 34.4371 3.29487 34.3116C3.04142 34.1887 2.78797 34.0657 2.52683 33.9391C1.82991 33.3209 1.79626 33.2436 1.7345 32.3709C1.73472 31.9607 1.7426 31.5504 1.75673 31.1405C1.75872 30.9241 1.7607 30.7077 1.76274 30.4847C1.77058 29.7944 1.78816 29.1047 1.806 28.4145C1.81303 27.9462 1.81942 27.4779 1.82516 27.0096C1.8406 25.8622 1.86478 24.7154 1.89358 23.5684Z" fill="currentColor"/>
<path d="M45.8009 10.957C45.8009 14.194 45.8009 17.431 45.8009 20.7661C44.8471 21.3104 43.8933 21.8547 42.9107 22.4155C41.1077 23.4449 39.3056 24.4758 37.508 25.5146C37.3694 25.5947 37.2307 25.6749 37.0878 25.7574C36.4247 26.1407 35.7618 26.5245 35.0992 26.9087C34.8615 27.0462 34.6238 27.1838 34.3788 27.3255C34.171 27.4461 33.9631 27.5666 33.7489 27.6908C33.2591 27.9667 32.7578 28.2218 32.255 28.4732C32.255 25.2362 32.255 21.9992 32.255 18.6642C33.1317 18.1584 34.0084 17.6526 34.9116 17.1315C35.205 16.9622 35.4984 16.7929 35.8007 16.6185C37.0734 15.8842 38.3461 15.15 39.6191 14.4163C40.0358 14.1762 40.4524 13.936 40.8691 13.6958C41.3944 13.393 41.9198 13.0902 42.4453 12.7875C42.6847 12.6495 42.9241 12.5115 43.1707 12.3693C43.3803 12.2485 43.5899 12.1277 43.8059 12.0032C44.2219 11.7611 44.6349 11.5138 45.0456 11.2629C45.5673 10.957 45.5673 10.957 45.8009 10.957Z" fill="#D946EF"/>
<path d="M15.6731 14.9268C15.6731 19.8593 15.6731 24.7919 15.6731 29.8739C11.6487 27.7276 11.6487 27.7276 10.2868 26.9107C9.95846 26.7148 9.63003 26.519 9.30154 26.3232C9.12813 26.2198 8.95472 26.1164 8.77606 26.0098C8.12235 25.6246 7.46419 25.2475 6.80549 24.8708C6.56947 24.7347 6.33346 24.5985 6.0903 24.4582C5.62354 24.1889 5.15566 23.9216 4.68661 23.6564C4.3694 23.4722 4.3694 23.4722 4.04577 23.2843C3.85579 23.1757 3.6658 23.067 3.47006 22.9551C3.3352 22.8491 3.20034 22.7431 3.0614 22.6339C3.0614 22.4027 3.0614 22.1715 3.0614 21.9332C3.19477 21.8584 3.32814 21.7835 3.46555 21.7064C9.11739 18.5595 9.11739 18.5595 14.6648 15.2348C15.206 14.9268 15.206 14.9268 15.6731 14.9268Z" fill="currentColor"/>
<path d="M33.8899 48.3242C34.9945 48.4453 35.7188 48.743 36.6487 49.346C36.8718 49.4875 37.0949 49.629 37.3247 49.7748C37.8602 50.1926 37.8602 50.1926 38.0938 50.8933C37.0251 50.7624 36.2299 50.3038 35.335 49.7401C35.1954 49.656 35.0559 49.5718 34.9121 49.4851C34.5622 49.268 34.2247 49.0311 33.8899 48.7913C33.8899 48.6372 33.8899 48.483 33.8899 48.3242Z" fill="#373D4D"/>
<path d="M5.6304 31.7422C6.79163 32.1542 7.83379 32.7684 8.90009 33.377C8.82302 33.6082 8.74594 33.8395 8.66654 34.0777C7.50531 33.6656 6.46315 33.0515 5.39685 32.4428C5.47392 32.2116 5.55099 31.9804 5.6304 31.7422Z" fill="#373D4D"/>
</svg>
