<svg width="9" height="8" viewBox="0 0 9 8" fill="none" xmlns="http://www.w3.org/2000/svg">
  <path d="M4.76373 0.3125L8.36123 6.54333C8.41609 6.63834 8.44497 6.74612 8.44497 6.85583C8.44497 6.96554 8.41609 7.07332 8.36124 7.16833C8.30639 7.26334 8.22749 7.34224 8.13248 7.39709C8.03747 7.45195 7.92969 7.48083 7.81998 7.48083H0.624984C0.515275 7.48083 0.407499 7.45195 0.31249 7.39709C0.21748 7.34224 0.138583 7.26334 0.0837301 7.16833C0.0288768 7.07332 -6.96769e-07 6.96554 0 6.85583C6.96795e-07 6.74612 0.0288796 6.63834 0.0837341 6.54333L3.68123 0.3125C3.92165 -0.104167 4.5229 -0.104167 4.76373 0.3125ZM4.22248 5.25083C4.11198 5.25083 4.006 5.29473 3.92786 5.37287C3.84972 5.45101 3.80582 5.55699 3.80582 5.6675C3.80582 5.77801 3.84972 5.88399 3.92786 5.96213C4.006 6.04027 4.11198 6.08417 4.22248 6.08417C4.33299 6.08417 4.43897 6.04027 4.51711 5.96213C4.59525 5.88399 4.63915 5.77801 4.63915 5.6675C4.63915 5.55699 4.59525 5.45101 4.51711 5.37287C4.43897 5.29473 4.33299 5.25083 4.22248 5.25083ZM4.22248 2.33417C4.12043 2.33418 4.02193 2.37165 3.94566 2.43946C3.8694 2.50728 3.82067 2.60073 3.80873 2.70208L3.80582 2.75083V4.4175C3.80594 4.5237 3.8466 4.62585 3.9195 4.70307C3.99241 4.78029 4.09205 4.82677 4.19807 4.83299C4.30408 4.83921 4.40848 4.80472 4.48991 4.73656C4.57135 4.66839 4.62369 4.57171 4.63623 4.46625L4.63915 4.4175V2.75083C4.63915 2.64033 4.59525 2.53435 4.51711 2.45621C4.43897 2.37807 4.33299 2.33417 4.22248 2.33417Z" fill="currentColor"/>
</svg>
