<svg width="32" height="32" viewBox="0 0 32 32" fill="none" xmlns="http://www.w3.org/2000/svg">
  <path d="M5.33325 29.3332H23.9999C24.7072 29.3332 25.3854 29.0522 25.8855 28.5521C26.3856 28.052 26.6666 27.3737 26.6666 26.6665V9.33317L19.9999 2.6665H7.99992C7.29267 2.6665 6.6144 2.94746 6.1143 3.44755C5.6142 3.94765 5.33325 4.62593 5.33325 5.33317V10.6665" stroke="currentColor" stroke-width="1.33" stroke-linecap="round" stroke-linejoin="round"/>
  <path d="M18.6667 2.6665V7.99984C18.6667 8.70708 18.9477 9.38536 19.4478 9.88546C19.9479 10.3856 20.6262 10.6665 21.3334 10.6665H26.6667" stroke="currentColor" stroke-width="1.33" stroke-linecap="round" stroke-linejoin="round"/>
  <path d="M17.2846 23.0902C17.0313 23.0902 16.8346 23.0202 16.6946 22.8802C16.5613 22.7402 16.4946 22.5369 16.4946 22.2702V16.7602C16.4946 16.5002 16.5646 16.3002 16.7046 16.1602C16.8446 16.0202 17.0446 15.9502 17.3046 15.9502H20.7246C20.9246 15.9502 21.0746 16.0035 21.1746 16.1102C21.2813 16.2102 21.3346 16.3569 21.3346 16.5502C21.3346 16.7502 21.2813 16.9035 21.1746 17.0102C21.0746 17.1102 20.9246 17.1602 20.7246 17.1602H18.0446V18.8802H20.5046C20.7046 18.8802 20.858 18.9335 20.9646 19.0402C21.0713 19.1402 21.1246 19.2869 21.1246 19.4802C21.1246 19.6735 21.0713 19.8235 20.9646 19.9302C20.858 20.0369 20.7046 20.0902 20.5046 20.0902H18.0446V22.2702C18.0446 22.8169 17.7913 23.0902 17.2846 23.0902Z" fill="currentColor"/>
  <path d="M9.96063 23.0002C9.70063 23.0002 9.50063 22.9302 9.36063 22.7902C9.22063 22.6502 9.15063 22.4502 9.15063 22.1902V16.7602C9.15063 16.5002 9.22063 16.3002 9.36063 16.1602C9.50063 16.0202 9.70063 15.9502 9.96063 15.9502H11.9106C13.1173 15.9502 14.0473 16.2569 14.7006 16.8702C15.3606 17.4769 15.6906 18.3435 15.6906 19.4702C15.6906 20.0369 15.604 20.5402 15.4306 20.9802C15.264 21.4135 15.0206 21.7802 14.7006 22.0802C14.3806 22.3802 13.9873 22.6102 13.5206 22.7702C13.054 22.9235 12.5173 23.0002 11.9106 23.0002H9.96063ZM10.7006 21.7302H11.8206C12.2006 21.7302 12.5306 21.6835 12.8106 21.5902C13.0906 21.4969 13.324 21.3569 13.5106 21.1702C13.6973 20.9835 13.8373 20.7502 13.9306 20.4702C14.024 20.1835 14.0706 19.8502 14.0706 19.4702C14.0706 18.7102 13.8806 18.1469 13.5006 17.7802C13.1273 17.4069 12.5673 17.2202 11.8206 17.2202H10.7006V21.7302Z" fill="currentColor"/>
  <path d="M3.68991 23.0902C3.43658 23.0902 3.24325 23.0202 3.10991 22.8802C2.97658 22.7402 2.90991 22.5435 2.90991 22.2902V16.7402C2.90991 16.4802 2.97658 16.2835 3.10991 16.1502C3.24991 16.0169 3.44658 15.9502 3.69991 15.9502H6.12991C6.91658 15.9502 7.52325 16.1502 7.94991 16.5502C8.37658 16.9435 8.58991 17.4935 8.58991 18.2002C8.58991 18.9069 8.37658 19.4602 7.94991 19.8602C7.52325 20.2602 6.91658 20.4602 6.12991 20.4602H4.45991V22.2902C4.45991 22.5435 4.39325 22.7402 4.25991 22.8802C4.13325 23.0202 3.94325 23.0902 3.68991 23.0902ZM4.45991 19.2602H5.86991C6.26991 19.2602 6.57325 19.1702 6.77991 18.9902C6.99325 18.8102 7.09991 18.5469 7.09991 18.2002C7.09991 17.8535 6.99325 17.5935 6.77991 17.4202C6.57325 17.2469 6.26991 17.1602 5.86991 17.1602H4.45991V19.2602Z" fill="currentColor"/>
</svg>
