<svg width="12" height="12" viewBox="0 0 12 12" fill="none" xmlns="http://www.w3.org/2000/svg">
<path d="M6 1.49927C6.96513 1.49931 7.91362 1.75363 8.74951 2.23608C9.58549 2.71875 10.2802 3.41356 10.7629 4.24951C11.2456 5.08557 11.4997 6.03438 11.4998 6.99976C11.4997 7.96518 11.2457 8.91393 10.7629 9.75C10.6248 9.98906 10.3187 10.0704 10.0796 9.93237C9.84093 9.79416 9.75863 9.48869 9.89648 9.24976C10.2914 8.56572 10.5 7.78963 10.5 6.99976C10.5 6.21001 10.292 5.43373 9.89722 4.74976C9.50231 4.06585 8.93391 3.49745 8.25 3.10254C7.56605 2.70772 6.78973 2.4998 6 2.49976C5.21021 2.4998 4.43399 2.70767 3.75 3.10254C3.06596 3.49749 2.49772 4.06571 2.10278 4.74976C1.70789 5.43378 1.50002 6.20993 1.5 6.99976C1.50004 7.78955 1.70791 8.56577 2.10278 9.24976C2.24081 9.48886 2.15874 9.79428 1.91968 9.93237C1.68065 10.0703 1.37522 9.98887 1.23706 9.75C0.754402 8.91398 0.499555 7.9651 0.499512 6.99976C0.499523 6.03438 0.753659 5.08557 1.23633 4.24951C1.71903 3.41344 2.4137 2.71881 3.24976 2.23608C4.08576 1.75345 5.03468 1.49931 6 1.49927Z" fill="currentColor"/>
<path d="M7.64648 4.64648C7.84167 4.45143 8.15803 4.45151 8.35327 4.64648C8.54842 4.84176 8.5485 5.15878 8.35327 5.354L6.35376 7.35352C6.15853 7.54863 5.84148 7.54863 5.64624 7.35352C5.4513 7.15831 5.45129 6.84193 5.64624 6.64673L7.64648 4.64648Z" fill="currentColor"/>
</svg>
