<svg width="12" height="12" viewBox="0 0 12 12" fill="none" xmlns="http://www.w3.org/2000/svg">
<path d="M6 1.49951C6.96544 1.49951 7.9139 1.7541 8.75 2.23682C9.58604 2.71954 10.2805 3.41394 10.7632 4.25C11.2458 5.08603 11.5 6.03467 11.5 7C11.4999 7.96529 11.2458 8.91403 10.7632 9.75C10.6251 9.98895 10.3191 10.071 10.0801 9.93311C9.841 9.79506 9.75904 9.48911 9.89697 9.25C10.2919 8.56602 10.4999 7.7898 10.5 7C10.5 6.2102 10.2918 5.43402 9.89697 4.75C9.50205 4.066 8.93399 3.49797 8.25 3.10303C7.5659 2.70805 6.78993 2.5 6 2.5C5.21007 2.5 4.4341 2.70805 3.75 3.10303C3.06601 3.49797 2.49795 4.066 2.10303 4.75C1.70817 5.43402 1.5 6.2102 1.5 7C1.50007 7.7898 1.70812 8.56602 2.10303 9.25C2.24096 9.48911 2.159 9.79506 1.91992 9.93311C1.68086 10.071 1.37492 9.98895 1.23682 9.75C0.754174 8.91403 0.50008 7.96529 0.5 7C0.5 6.03467 0.754203 5.08603 1.23682 4.25C1.71951 3.41394 2.41396 2.71954 3.25 2.23682C4.0861 1.7541 5.03456 1.49951 6 1.49951Z" fill="currentColor"/>
<path d="M6 3.52734C6.27609 3.52734 6.49991 3.75128 6.5 4.02734V7C6.4999 7.27605 6.27608 7.5 6 7.5C5.72392 7.5 5.5001 7.27605 5.5 7V4.02734C5.50009 3.75128 5.72391 3.52734 6 3.52734Z" fill="currentColor"/>
</svg>
