<svg width="14" height="14" viewBox="0 0 14 14" fill="none" xmlns="http://www.w3.org/2000/svg">
  <path fill-rule="evenodd" clip-rule="evenodd"
        d="M12.4213 0.754058C12.6491 0.526585 13.0182 0.526489 13.2459 0.754058C13.4736 0.981873 13.4736 1.35173 13.2459 1.5795L10.9106 3.91397C11.0218 4.14701 11.0839 4.40286 11.084 4.66592V8.24283C12.0898 8.50238 12.834 9.41363 12.834 10.5004C12.8338 11.7887 11.7887 12.8338 10.5004 12.834C9.21186 12.834 8.16699 11.7889 8.16678 10.5004C8.16678 9.41329 8.91052 8.50119 9.91678 8.24197V4.9086L4.9086 9.91678H6.41678C6.73876 9.91699 7.0004 10.1784 7.0004 10.5004C7.00018 10.8222 6.73863 11.0838 6.41678 11.084H4.66678C4.40355 11.084 4.14713 11.0218 3.91397 10.9106L1.5795 13.2459C1.35173 13.4736 0.981873 13.4736 0.754058 13.2459C0.526489 13.0182 0.526585 12.6491 0.754058 12.4213L12.4213 0.754058ZM10.5004 9.33401C9.85606 9.33401 9.33401 9.85606 9.33401 10.5004C9.33423 11.1445 9.8562 11.6668 10.5004 11.6668C11.1444 11.6666 11.6666 11.1444 11.6668 10.5004C11.6668 9.8562 11.1445 9.33423 10.5004 9.33401Z"
        fill="currentColor"/>
  <path fill-rule="evenodd" clip-rule="evenodd"
        d="M3.5004 1.16678C4.78888 1.16699 5.83401 2.21186 5.83401 3.5004C5.83383 4.5869 5.08955 5.49666 4.08401 5.75626V7.19778C4.0838 7.51964 3.82225 7.78119 3.5004 7.7814C3.17836 7.7814 2.91699 7.51977 2.91678 7.19778V5.75711C1.91076 5.49784 1.16696 4.58725 1.16678 3.5004C1.16678 2.21173 2.21173 1.16678 3.5004 1.16678ZM3.5004 2.33401C2.85606 2.33401 2.33401 2.85606 2.33401 3.5004C2.33423 4.14455 2.8562 4.66678 3.5004 4.66678C4.14441 4.66656 4.66656 4.14441 4.66678 3.5004C4.66678 2.8562 4.14455 2.33423 3.5004 2.33401Z"
        fill="currentColor"/>
</svg>
