<svg width="14" height="14" viewBox="0 0 14 14" fill="none" xmlns="http://www.w3.org/2000/svg">
  <g>
    <path fill-rule="evenodd" clip-rule="evenodd"
          d="M0.75293 0.753906C0.952255 0.554581 1.26052 0.530079 1.48694 0.679565L1.57837 0.753906L13.2448 12.4211C13.2475 12.4239 13.2497 12.4277 13.2524 12.4305C13.272 12.4509 13.2898 12.4725 13.3063 12.4955C13.3135 12.5056 13.3203 12.5158 13.3268 12.5262C13.3402 12.5478 13.3512 12.5705 13.3618 12.5938C13.3659 12.6027 13.371 12.6111 13.3746 12.6202C13.4007 12.6864 13.4165 12.7584 13.4165 12.8339C13.4165 12.8704 13.4118 12.906 13.4054 12.9407C13.4037 12.9496 13.4006 12.9583 13.3986 12.9672C13.3923 12.9935 13.3851 13.0192 13.3755 13.0441C13.3714 13.0545 13.3665 13.0646 13.3618 13.0748C13.3515 13.0974 13.3398 13.1189 13.3268 13.1398C13.3203 13.1502 13.3135 13.1604 13.3063 13.1705C13.2898 13.1936 13.272 13.2151 13.2524 13.2355C13.2495 13.2385 13.2478 13.2427 13.2448 13.2457C13.2423 13.2482 13.2387 13.2493 13.2362 13.2517C13.2141 13.273 13.1905 13.2922 13.1653 13.3098C13.1591 13.3141 13.1537 13.3194 13.1473 13.3235C13.1206 13.3407 13.0923 13.3552 13.0627 13.3679C13.0584 13.3698 13.0543 13.3721 13.0499 13.3739C13.018 13.3868 12.9852 13.3984 12.9508 13.4055H12.944C12.9381 13.4067 12.9319 13.4063 12.926 13.4072L12.8329 13.4175H9.9165C9.27228 13.4175 8.74944 12.8944 8.74927 12.2502V9.57483L6.7583 7.58386H3.49927V8.75024H4.08203C4.72636 8.75024 5.24927 9.27315 5.24927 9.91748V12.2502C5.24909 12.8944 4.72626 13.4175 4.08203 13.4175H1.74927C1.10518 13.4173 0.582205 12.8943 0.582031 12.2502V9.91748C0.582031 9.27325 1.10507 8.7504 1.74927 8.75024H2.33203V7.58386C2.33203 7.27451 2.45513 6.9772 2.67383 6.75842C2.89255 6.5397 3.18995 6.4167 3.49927 6.41663H5.59021L0.75293 1.57935L0.678589 1.48792C0.529101 1.2615 0.553614 0.953234 0.75293 0.753906ZM9.9165 12.2502H11.4247L9.9165 10.7421V12.2502ZM1.74927 12.2502H4.08203V9.91748H1.74927V12.2502Z"
          fill="currentColor"/>
    <path
      d="M12.2493 8.75024C12.8935 8.7504 13.4165 9.27325 13.4165 9.91748C13.4162 10.2393 13.1547 10.5001 12.8329 10.5002C12.5109 10.5002 12.2496 10.2394 12.2493 9.91748C11.9273 9.91733 11.6667 9.65579 11.6665 9.33386C11.6665 9.01179 11.9272 8.7504 12.2493 8.75024Z"
      fill="currentColor"/>
    <path
      d="M10.6146 6.42261C10.8814 6.44918 11.1325 6.56723 11.3239 6.75842C11.5426 6.97722 11.6656 7.27444 11.6656 7.58386V8.16663C11.6656 8.48879 11.4042 8.75024 11.082 8.75024C10.7601 8.74993 10.4993 8.4886 10.4993 8.16663V7.58386H9.97461C9.65258 7.5837 9.39099 7.32231 9.39099 7.00024C9.39099 6.67818 9.65258 6.41678 9.97461 6.41663H10.4993L10.6146 6.42261Z"
      fill="currentColor"/>
    <path
      d="M8.16565 0.583008C8.80987 0.583008 9.33271 1.10606 9.33289 1.75024V4.08301C9.33289 4.72734 8.80998 5.25024 8.16565 5.25024H7.58289C7.26072 5.25024 6.99927 4.98879 6.99927 4.66663C6.99944 4.34461 7.26083 4.08301 7.58289 4.08301H8.16565V1.75024H5.83289V2.33301C5.83289 2.65517 5.57143 2.91663 5.24927 2.91663C4.9271 2.91663 4.66565 2.65517 4.66565 2.33301V1.75024C4.66582 1.10606 5.18866 0.583008 5.83289 0.583008H8.16565Z"
      fill="currentColor"/>
  </g>
</svg>
