<svg width="13" height="13" viewBox="0 0 13 13" fill="none" xmlns="http://www.w3.org/2000/svg">
<g clip-path="url(#clip0_117_3659)">
<path d="M9.34314 3.96097C11.1941 3.96097 12.6949 5.46173 12.6949 7.31272C12.6948 9.16361 11.1941 10.6645 9.34314 10.6645C8.14366 10.6643 7.0918 10.0333 6.49975 9.08593C5.90764 10.0333 4.85589 10.6644 3.65636 10.6645C1.80544 10.6645 0.304735 9.16361 0.304613 7.31272C0.304613 5.46173 1.80537 3.96097 3.65636 3.96097C4.85572 3.96105 5.9076 4.59132 6.49975 5.5385C7.09185 4.59132 8.14383 3.96114 9.34314 3.96097ZM3.65636 4.97668C2.36627 4.97668 1.32032 6.02263 1.32032 7.31272C1.32045 8.6027 2.36635 9.64876 3.65636 9.64876C4.94627 9.64863 5.99227 8.60263 5.9924 7.31272C5.9924 6.02271 4.94634 4.97681 3.65636 4.97668ZM9.34314 4.97668C8.05326 4.97694 7.00811 6.02279 7.00811 7.31272C7.00823 8.60255 8.05334 9.6485 9.34314 9.64876C10.6331 9.64876 11.679 8.6027 11.6792 7.31272C11.6792 6.02263 10.6332 4.97668 9.34314 4.97668Z" fill="#5155F5"/>
<path d="M2.43741 4.87461L3.45302 2.84339L4.46863 4.87461" fill="#5155F5"/>
<path d="M8.53117 4.87461L9.54678 2.84339L10.5624 4.87461" fill="#5155F5"/>
</g>
<defs>
<clipPath id="clip0_117_3659">
<rect width="12.5863" height="12.5863" fill="white" transform="scale(1.03286)"/>
</clipPath>
</defs>
</svg>
