<svg width="16" height="16" viewBox="0 0 16 16" fill="none" xmlns="http://www.w3.org/2000/svg">
<path d="M1.96391 5.35924C3.44502 1.99004 7.33383 0.406444 10.668 1.87215C12.7018 2.76643 14.0415 4.58504 14.4375 6.62677C14.522 7.06226 14.237 7.48384 13.8016 7.56842C13.3661 7.65285 12.9448 7.36882 12.8602 6.93345C12.5584 5.37702 11.5432 4.01196 10.0206 3.3426C7.5299 2.2479 4.57288 3.41759 3.43508 6.00549C2.29732 8.59366 3.43468 11.5642 5.92549 12.6592C6.9301 13.1008 8.00539 13.1738 9.00833 12.9364C9.43997 12.8344 9.87262 13.1016 9.97481 13.5332C10.077 13.965 9.80967 14.3975 9.37793 14.4997C8.04961 14.8142 6.61695 14.7176 5.27902 14.1294C1.94492 12.6637 0.482931 8.7284 1.96391 5.35924ZM11.2616 11.3211C11.9136 11.1659 12.5683 11.5686 12.7239 12.2204C12.8793 12.8725 12.4764 13.5271 11.8245 13.6827C11.1723 13.8381 10.5168 13.4357 10.3613 12.7835C10.2061 12.1315 10.6096 11.4765 11.2616 11.3211ZM12.9841 8.13975C13.8551 7.93239 14.729 8.46991 14.9368 9.34082C15.1445 10.212 14.607 11.0867 13.736 11.2945C12.8647 11.5022 11.9897 10.964 11.782 10.0927C11.5746 9.22159 12.1129 8.34738 12.9841 8.13975Z" fill="url(#paint0_linear_4189_854)"/>
<defs>
<linearGradient id="paint0_linear_4189_854" x1="12.4469" y1="12.8972" x2="3.62572" y2="2.78253" gradientUnits="userSpaceOnUse">
<stop stop-color="#FB9341"/>
<stop offset="1" stop-color="#E30D3E"/>
</linearGradient>
</defs>
</svg>
