<svg width="27" height="32" viewBox="0 0 27 32" fill="none" xmlns="http://www.w3.org/2000/svg">
<path d="M16.6774 2.15876C19.2214 3.83328 21.3999 5.9073 23.2064 8.35326C23.2685 8.43712 23.3306 8.52097 23.3946 8.60737C25.6879 11.7507 27.2786 15.5017 26.9315 19.4451C26.7245 20.7394 26.121 22.1016 25.1444 22.9963C22.9944 24.5485 22.9944 24.5485 22.1942 24.5485C22.3321 25.0397 22.4709 25.5306 22.6099 26.0216C22.6489 26.1604 22.6878 26.2991 22.728 26.4421C22.7853 26.6441 22.7853 26.6441 22.8438 26.8502C22.8786 26.9736 22.9134 27.0971 22.9493 27.2242C23.0586 27.5929 23.0586 27.5929 23.2191 27.9698C23.351 28.3081 23.351 28.3081 23.3657 28.6718C23.1122 29.2435 22.6399 29.4299 22.1038 29.7179C21.8796 29.8429 21.6556 29.9681 21.4316 30.0935C21.3178 30.1566 21.204 30.2196 21.0867 30.2845C20.761 30.4698 20.4441 30.6642 20.128 30.8651C19.983 30.9565 19.983 30.9565 19.8352 31.0497C19.6523 31.1656 19.4703 31.283 19.2894 31.4019C18.9109 31.6379 18.6542 31.7808 18.2024 31.7666C15.5762 30.7598 13.3607 28.0362 11.9276 25.7053C11.9276 25.6098 11.9276 25.5144 11.9276 25.4161C11.8016 25.3792 11.6756 25.3423 11.5457 25.3042C7.05916 23.6661 3.35951 18.4605 1.38767 14.3449C1.01484 13.5266 0.736398 12.6928 0.504179 11.8237C0.458511 11.6598 0.412844 11.496 0.365792 11.3272C-0.144747 9.27335 -0.233154 7.01899 0.839696 5.12405C1.66235 3.94851 2.79283 3.1702 4.04688 2.51503C4.30208 2.37867 4.5572 2.24217 4.81224 2.10552C4.9385 2.0383 5.06477 1.97108 5.19485 1.90183C5.54391 1.71316 5.88865 1.51878 6.23226 1.32039C6.33515 1.26109 6.43804 1.20179 6.54405 1.1407C6.73448 1.03042 6.92449 0.919438 7.11398 0.807582C10.1507 -0.937878 13.943 0.440366 16.6774 2.15876Z" fill="#CCFE41"/>
<path d="M16.6774 2.15876C19.2214 3.83328 21.3999 5.9073 23.2064 8.35326C23.2685 8.43712 23.3306 8.52097 23.3946 8.60737C25.6879 11.7507 27.2786 15.5017 26.9315 19.4451C26.7245 20.7394 26.121 22.1016 25.1444 22.9963C22.9944 24.5485 22.9944 24.5485 22.1942 24.5485C22.3321 25.0397 22.4709 25.5306 22.6099 26.0216C22.6489 26.1604 22.6878 26.2991 22.728 26.4421C22.7853 26.6441 22.7853 26.6441 22.8438 26.8502C22.8786 26.9736 22.9134 27.0971 22.9493 27.2242C23.0586 27.5929 23.0586 27.5929 23.2191 27.9698C23.351 28.3081 23.351 28.3081 23.3657 28.6718C23.1122 29.2435 22.6399 29.4299 22.1038 29.7179C21.8796 29.8429 21.6556 29.9681 21.4316 30.0935C21.3178 30.1566 21.204 30.2196 21.0867 30.2845C20.761 30.4698 20.4441 30.6642 20.128 30.8651C19.983 30.9565 19.983 30.9565 19.8352 31.0497C19.6523 31.1656 19.4703 31.283 19.2894 31.4019C18.9109 31.6379 18.6542 31.7808 18.2024 31.7666C15.5762 30.7598 13.3607 28.0362 11.9276 25.7053C11.9276 25.6098 11.9276 25.5144 11.9276 25.4161C11.8016 25.3792 11.6756 25.3423 11.5457 25.3042C7.05916 23.6661 3.35951 18.4605 1.38767 14.3449C1.01484 13.5266 0.736398 12.6928 0.504179 11.8237C0.458511 11.6598 0.412844 11.496 0.365792 11.3272C-0.144747 9.27335 -0.233154 7.01899 0.839696 5.12405C1.66235 3.94851 2.79283 3.1702 4.04688 2.51503C4.30208 2.37867 4.5572 2.24217 4.81224 2.10552C4.9385 2.0383 5.06477 1.97108 5.19485 1.90183C5.54391 1.71316 5.88865 1.51878 6.23226 1.32039C6.33515 1.26109 6.43804 1.20179 6.54405 1.1407C6.73448 1.03042 6.92449 0.919438 7.11398 0.807582C10.1507 -0.937878 13.943 0.440366 16.6774 2.15876ZM1.80558 5.31666C0.758525 6.86244 0.932776 9.04188 1.16392 10.8205C2.50838 16.142 6.24103 21.123 10.9415 23.9446C11.1304 24.0553 11.32 24.1649 11.5103 24.2731C12.3549 24.7549 12.7724 25.2842 13.3194 26.0758C14.3654 27.5597 15.5701 28.9036 16.9886 30.0433C17.084 30.0433 17.1795 30.0433 17.2778 30.0433C17.1579 29.1424 16.9777 28.2607 16.7892 27.3716C16.7137 26.9433 16.668 26.5714 16.6994 26.1391C16.9487 25.8898 17.3083 25.9225 17.6483 25.877C18.9155 25.6683 19.7064 25.2947 20.5256 24.2903C21.5405 22.8299 21.7043 21.0288 21.4159 19.3008C20.7622 16.1583 19.284 13.3002 17.2778 10.8115C17.2129 10.7309 17.148 10.6504 17.0812 10.5674C14.4559 7.33632 10.8242 4.26684 6.57738 3.58146C4.49038 3.45039 3.23405 3.73146 1.80558 5.31666Z" fill="#373D4D"/>
<path d="M16.1211 2.85789C17.5069 3.71923 18.7094 4.76516 19.8807 5.89449C19.9899 5.99459 20.0992 6.09468 20.2117 6.19781C21.9489 7.83706 23.2872 9.84839 24.3633 11.9677C24.4106 12.0598 24.4579 12.1519 24.5067 12.2467C25.7921 14.7749 26.6135 17.5715 25.8161 20.389C25.4643 21.3169 24.9201 22.1276 24.0741 22.6681C23.9787 22.6681 23.8832 22.6681 23.7849 22.6681C23.8155 22.5721 23.8461 22.4762 23.8776 22.3773C24.1738 21.3849 24.2933 20.4844 24.282 19.4507C24.2798 19.2323 24.2798 19.2323 24.2777 19.0094C24.2489 17.7903 24.0782 16.7275 23.6403 15.5827C23.5968 15.4676 23.5533 15.3524 23.5085 15.2338C22.358 12.2536 20.7101 9.44385 18.3426 7.26141C18.1455 7.05129 18.1455 7.05129 18.1455 6.76209C18.0666 6.72947 17.9878 6.69685 17.9066 6.66324C17.3062 6.32662 16.844 5.8177 16.3465 5.34716C15.9962 5.0028 15.9962 5.0028 15.5427 4.88229C15.5427 5.02544 15.5427 5.1686 15.5427 5.31609C15.621 5.34852 15.6993 5.38096 15.7799 5.41437C16.2278 5.66499 16.581 5.9972 16.9525 6.34637C17.0298 6.41857 17.1071 6.49078 17.1867 6.56517C17.3411 6.70992 17.4951 6.855 17.6488 7.00046C17.8176 7.15945 17.9888 7.31589 18.1607 7.47154C20.5067 9.67241 22.3245 12.6937 23.3511 15.7273C23.4403 15.982 23.4403 15.982 23.5313 16.2419C24.1179 18.1276 24.3193 20.5316 23.4957 22.3789C23.1456 23.0273 22.74 23.5264 22.0497 23.8249C21.9543 23.7772 21.8588 23.7295 21.7605 23.6803C21.8075 23.569 21.8075 23.569 21.8554 23.4555C22.8737 20.6552 21.9405 17.5234 20.7675 14.928C19.6807 12.6111 18.2482 10.5455 16.4712 8.71017C16.2638 8.49529 16.0597 8.27756 15.8556 8.05954C13.2237 5.29105 9.69848 3.14287 5.85449 2.71329C6.22515 2.29678 6.64898 2.04378 7.12878 1.76435C7.27585 1.67768 7.42292 1.591 7.57444 1.5017C10.3614 0.0468714 13.627 1.39235 16.1211 2.85789Z" fill="#F3F4FE"/>
<path d="M21.4714 25.2715C21.6255 25.7404 21.7748 26.2106 21.9233 26.6813C21.9671 26.8144 22.0109 26.9475 22.056 27.0846C22.1161 27.2776 22.1161 27.2776 22.1774 27.4744C22.2153 27.5925 22.2532 27.7106 22.2922 27.8323C22.3516 28.2528 22.2997 28.3999 22.0498 28.7419C21.7162 28.9801 21.7162 28.9801 21.3042 29.2096C21.1564 29.2925 21.0086 29.3755 20.8563 29.4609C20.7014 29.5457 20.5465 29.6306 20.3869 29.7179C20.232 29.805 20.0771 29.892 19.9175 29.9817C18.7667 30.6217 18.7667 30.6217 18.4348 30.6217C18.2883 30.1342 18.1444 29.646 18.001 29.1576C17.9389 28.9513 17.9389 28.9513 17.8756 28.7408C17.6743 28.0505 17.5084 27.4449 17.5672 26.7175C17.743 26.67 17.743 26.67 17.9225 26.6215C18.9335 26.3319 19.8106 25.9821 20.7134 25.4409C21.0376 25.2715 21.0376 25.2715 21.4714 25.2715Z" fill="#F3F4FE"/>
<path d="M15.5425 4.88281C16.174 4.94945 16.542 5.36823 16.9794 5.78656C17.0535 5.85572 17.1276 5.92487 17.204 5.99612C17.672 6.43499 18.1258 6.88697 18.5791 7.34101C18.6674 7.42266 18.7558 7.5043 18.8468 7.58841C21.2575 9.85038 22.8371 12.9432 23.9293 16.017C23.9846 16.1661 24.04 16.3153 24.097 16.4689C24.4015 17.4432 24.4058 18.4296 24.4173 19.4422C24.4194 19.5832 24.4214 19.7242 24.4235 19.8694C24.4175 20.753 24.337 21.5813 23.9293 22.3794C23.5407 22.6777 23.5407 22.6777 23.2063 22.8132C23.2359 22.7277 23.2656 22.6421 23.2961 22.554C23.335 22.4397 23.374 22.3254 23.4141 22.2077C23.4527 22.0953 23.4913 21.9829 23.5311 21.8671C24.1391 19.8855 23.8901 17.6494 23.2063 15.7278C23.1721 15.6316 23.138 15.5353 23.1028 15.4361C21.947 12.2488 20.0322 9.63176 17.7115 7.19641C17.6175 7.0965 17.5236 6.99659 17.4268 6.89366C16.9133 6.36144 16.3732 5.92743 15.7599 5.51318C15.6882 5.44831 15.6164 5.38344 15.5425 5.31661C15.5425 5.17346 15.5425 5.0303 15.5425 4.88281Z" fill="#373D4D"/>
<path d="M16.4099 16.4503C16.8764 16.857 16.9772 17.0812 17.0516 17.6975C16.9883 18.1855 16.9883 18.1855 16.8256 18.4657C16.4066 18.7031 16.1603 18.7045 15.6869 18.6193C15.151 18.1417 14.9884 17.9322 14.8916 17.2185C14.9639 16.7395 14.9639 16.7395 15.1175 16.4503C15.5871 16.2079 15.9139 16.3111 16.4099 16.4503Z" fill="#373D4D"/>
<path d="M11.2044 13.5498C11.7536 13.7443 11.9305 13.9202 12.2166 14.4264C12.2778 14.9336 12.3141 15.2707 12.0539 15.7188C11.6349 15.9562 11.3886 15.9577 10.9152 15.8724C10.4529 15.4504 10.2225 15.1733 10.1108 14.553C10.1922 14.1372 10.1922 14.1372 10.4272 13.7848C10.7706 13.5588 10.7706 13.5588 11.2044 13.5498Z" fill="#373D4D"/>
<path d="M6.43274 10.8115C6.94004 10.9806 7.14744 11.0883 7.44494 11.5345C7.5369 12.047 7.5442 12.5149 7.28226 12.9805C6.87446 13.198 6.59814 13.1901 6.14354 13.1251C5.77361 12.8852 5.61146 12.6926 5.47758 12.2711C5.38191 11.7633 5.37541 11.4639 5.64647 11.0194C5.99894 10.8115 5.99894 10.8115 6.43274 10.8115Z" fill="#373D4D"/>
<path d="M10.4814 2.13574C11.3364 2.20652 11.96 2.46854 12.7137 2.86778C12.8195 2.9223 12.9253 2.97682 13.0343 3.033C13.2926 3.16639 13.55 3.30158 13.8072 3.43714C13.7595 3.5803 13.7118 3.72345 13.6626 3.87094C13.0205 3.61688 12.3825 3.35399 11.7467 3.08468C11.6408 3.04134 11.5349 2.998 11.4259 2.95335C11.1539 2.83726 10.8892 2.70443 10.626 2.56954C10.5783 2.42639 10.5306 2.28323 10.4814 2.13574Z" fill="#373D4D"/>
</svg>
