<svg width="16" height="17" viewBox="0 0 16 17" fill="none" xmlns="http://www.w3.org/2000/svg">
  <g>
    <path
      d="M3.07334 1.75211C3.41953 1.49247 3.8406 1.35211 4.27334 1.35211H9.64157C10.1915 1.35482 10.6365 1.80149 10.6365 2.3521V11.2105C10.6365 11.2105 10.6365 11.3862 10.586 11.5347C10.5545 11.627 10.0863 12.5589 9.53939 13.6473C9.20723 14.3083 8.84606 15.0271 8.53612 15.6506C8.42179 15.8789 8.18708 16.0219 7.93175 16.0187C7.51692 16.0136 7.10862 15.9148 6.73734 15.7297C6.36607 15.5446 6.04143 15.278 5.78767 14.9498C5.5339 14.6216 5.35759 14.2403 5.27189 13.8344C5.18629 13.4289 5.19332 13.0093 5.29244 12.607L5.29277 12.6057L5.75884 10.6854H2.72C2.40951 10.6854 2.10329 10.6132 1.82557 10.4743C1.54786 10.3354 1.30629 10.1338 1.12 9.88545C0.933707 9.63705 0.807803 9.3487 0.752261 9.04322C0.696735 8.73782 0.713055 8.42369 0.79993 8.12569L2.35326 2.79236C2.47443 2.37693 2.72715 2.01176 3.07334 1.75211Z"
      fill="currentColor"/>
    <path
      d="M13.6233 10.687C14.5346 10.687 15.2733 9.94829 15.2733 9.03702V3.00211C15.2733 2.09084 14.5346 1.35211 13.6233 1.35211C12.7121 1.35211 11.9733 2.09084 11.9733 3.00211V9.03702C11.9733 9.94829 12.7121 10.687 13.6233 10.687Z"
      fill="currentColor"/>
  </g>
</svg>
