<svg width="16" height="17" viewBox="0 0 16 17" fill="none" xmlns="http://www.w3.org/2000/svg">
  <g>
    <path
      d="M12.92 15.6188C12.5738 15.8784 12.1528 16.0188 11.72 16.0188H6.35178C5.80181 16.0161 5.35681 15.5694 5.35681 15.0188V6.16044C5.35681 6.16044 5.35682 5.98465 5.40737 5.83621C5.43882 5.74386 5.90706 4.812 6.45396 3.72361C6.78612 3.06257 7.14729 2.34379 7.45723 1.72029C7.57156 1.49196 7.80627 1.349 8.0616 1.35216C8.47643 1.3573 8.88473 1.45611 9.25601 1.64122C9.62728 1.82632 9.95192 2.09293 10.2057 2.42113C10.4594 2.74932 10.6358 3.13062 10.7215 3.53654C10.8071 3.942 10.8 4.36155 10.7009 4.76391L10.7006 4.76524L10.2345 6.68545H13.2733C13.5838 6.68545 13.8901 6.75774 14.1678 6.89659C14.4455 7.03545 14.6871 7.23705 14.8733 7.48545C15.0596 7.73384 15.1855 8.02219 15.2411 8.32767C15.2966 8.63307 15.2803 8.9472 15.1934 9.2452L13.6401 14.5785C13.5189 14.994 13.2662 15.3591 12.92 15.6188Z"
      fill="currentColor"/>
    <path
      d="M2.37 6.68387C1.45873 6.68387 0.720001 7.4226 0.720001 8.33387V14.3688C0.720001 15.2801 1.45873 16.0188 2.37 16.0188C3.28127 16.0188 4.02 15.28 4.02 14.3688V8.33387C4.02 7.4226 3.28127 6.68387 2.37 6.68387Z"
      fill="currentColor"/>
  </g>
</svg>
