<svg width="12" height="12" viewBox="0 0 12 12" fill="none" xmlns="http://www.w3.org/2000/svg">
  <path d="M2.35324 7.06007C2.15816 6.8649 2.15828 6.54854 2.35324 6.35329C2.5485 6.15802 2.8655 6.15802 3.06076 6.35329L5.64621 8.93874C5.84147 9.134 5.84147 9.45099 5.64621 9.64626C5.45096 9.84121 5.1346 9.84134 4.93942 9.64626L2.35324 7.06007Z" fill="currentColor"/>
  <path d="M6.35324 3.06007C6.15816 2.8649 6.15828 2.54854 6.35324 2.35329C6.5485 2.15802 6.8655 2.15802 7.06076 2.35329L9.64621 4.93874C9.84147 5.134 9.84147 5.45099 9.64621 5.64625C9.45096 5.84121 9.1346 5.84133 8.93942 5.64625L6.35324 3.06007Z" fill="currentColor"/>
  <path d="M5.49976 2.9995C5.49976 2.72335 5.72386 2.49925 6 2.49925C6.27614 2.49925 6.50024 2.72335 6.50024 2.9995L6.50024 8.9995C6.50024 9.27564 6.27614 9.49974 6 9.49974C5.72386 9.49974 5.49976 9.27564 5.49976 8.9995L5.49976 2.9995Z" fill="currentColor"/>
  <path d="M9.99976 5.4995C9.72373 5.49963 9.50024 5.72368 9.50024 5.99974C9.50038 6.27569 9.72381 6.49912 9.99976 6.49925C10.2758 6.49925 10.4999 6.27577 10.5 5.99974C10.5 5.7236 10.2759 5.4995 9.99976 5.4995ZM9.99976 4.49974C10.8282 4.49974 11.4998 5.17131 11.4998 5.99974C11.4996 6.82806 10.8281 7.49974 9.99976 7.49974C9.17152 7.49961 8.49989 6.82797 8.49976 5.99974C8.49976 5.17139 9.17144 4.49987 9.99976 4.49974Z" fill="currentColor"/>
  <path d="M1.99976 5.4995C1.72373 5.49963 1.50024 5.72368 1.50024 5.99974C1.50038 6.27569 1.72381 6.49912 1.99976 6.49925C2.27582 6.49925 2.49987 6.27577 2.5 5.99974C2.5 5.7236 2.2759 5.4995 1.99976 5.4995ZM1.99976 4.49974C2.82818 4.49974 3.49976 5.17131 3.49976 5.99974C3.49962 6.82806 2.8281 7.49974 1.99976 7.49974C1.17152 7.49961 0.499888 6.82797 0.499756 5.99974C0.499756 5.17139 1.17144 4.49987 1.99976 4.49974Z" fill="currentColor"/>
  <path d="M5.99976 1.4995C5.72373 1.49963 5.50024 1.72368 5.50024 1.99974C5.50038 2.27569 5.72405 2.49912 6 2.49925C6.27606 2.49925 6.49987 2.27577 6.5 1.99974C6.5 1.7236 6.2759 1.4995 5.99976 1.4995ZM5.99976 0.499741C6.82818 0.499741 7.49976 1.17131 7.49976 1.99974C7.49962 2.82806 6.8281 3.49974 5.99976 3.49974C5.17152 3.49961 4.49989 2.82797 4.49976 1.99974C4.49976 1.17139 5.17144 0.499873 5.99976 0.499741Z" fill="currentColor"/>
  <path d="M6 9.49974C5.72397 9.49987 5.50024 9.72368 5.50024 9.99974C5.50038 10.2757 5.72381 10.4991 5.99976 10.4993C6.27582 10.4993 6.49987 10.2758 6.5 9.99974C6.5 9.7236 6.27614 9.49974 6 9.49974ZM5.99976 8.49974C6.82818 8.49974 7.49976 9.17131 7.49976 9.99974C7.49962 10.8281 6.8281 11.4997 5.99976 11.4997C5.17152 11.4996 4.49989 10.828 4.49976 9.99974C4.49976 9.1714 5.17144 8.49987 5.99976 8.49974Z" fill="currentColor"/>
</svg>
