<svg width="1000" height="350" viewBox="0 0 1000 350" fill="none" xmlns="http://www.w3.org/2000/svg">
<path d="M331.977 109.458C314.371 104.691 295.592 107.11 279.769 116.183C263.946 125.256 252.374 140.241 247.595 157.844C246.942 160.293 246.42 162.775 246.031 165.279C246.061 165.908 246 166.537 245.849 167.148C251.455 164.202 257.041 164.568 263.379 168.306C270.082 172.368 277.822 175.375 284.342 179.783C284.361 179.572 284.319 179.36 284.22 179.173C283.341 171.283 285.627 163.365 290.578 157.158C295.528 150.951 302.739 146.961 310.627 146.063C314.176 145.659 317.768 145.9 321.231 146.774C324.521 147.661 327.986 147.677 331.285 146.819C334.583 145.96 337.601 144.257 340.041 141.878L340.325 141.594C342.709 139.226 344.43 136.276 345.318 133.035C346.205 129.795 346.227 126.379 345.383 123.128C344.538 119.876 342.855 116.903 340.503 114.504C338.151 112.106 335.211 110.366 331.977 109.458V109.458Z" fill="url(#paint0_linear_1361_6968)"/>
<path d="M310.891 107.062C295.029 107.812 279.913 114.014 268.095 124.621C256.278 135.229 248.484 149.59 246.031 165.279C245.649 167.572 245.405 169.885 245.3 172.206C246.291 170.616 247.685 169.316 249.34 168.439C250.995 167.561 252.853 167.137 254.725 167.209C257.237 167.109 259.703 167.897 261.69 169.435C263.678 170.973 265.06 173.163 265.593 175.619C266.155 174.955 266.86 174.427 267.655 174.076C268.45 173.724 269.315 173.557 270.184 173.587C271.8 173.587 273.35 174.23 274.493 175.372C275.636 176.515 276.278 178.065 276.278 179.681C276.273 180.373 276.156 181.059 275.932 181.713C276.432 181.94 276.875 182.278 277.226 182.7C277.578 183.122 277.83 183.618 277.964 184.15C277.977 183.545 278.109 182.948 278.353 182.393C278.597 181.839 278.948 181.338 279.386 180.919C279.823 180.5 280.339 180.172 280.904 179.953C281.469 179.733 282.071 179.627 282.676 179.641C283.207 179.641 283.735 179.723 284.241 179.885C284.259 179.674 284.217 179.462 284.119 179.275C284.017 178.26 283.976 177.244 283.956 176.269C283.672 174.238 283.469 172.044 283.387 169.911C282.148 141.188 304.493 116.182 331.347 109.276C324.678 107.516 317.782 106.77 310.891 107.062V107.062Z" fill="url(#paint1_linear_1361_6968)"/>
<path d="M254.421 190.955C260.176 190.955 264.841 186.289 264.841 180.534C264.841 174.779 260.176 170.113 254.421 170.113C248.666 170.113 244 174.779 244 180.534C244 186.289 248.666 190.955 254.421 190.955Z" fill="#F3AD00"/>
<path d="M270.346 183.645C272.478 183.645 274.206 181.917 274.206 179.785C274.206 177.654 272.478 175.926 270.346 175.926C268.215 175.926 266.487 177.654 266.487 179.785C266.487 181.917 268.215 183.645 270.346 183.645Z" fill="#F3AD00"/>
<path d="M261.815 204.221C264.889 204.221 267.381 201.73 267.381 198.656C267.381 195.582 264.889 193.09 261.815 193.09C258.741 193.09 256.249 195.582 256.249 198.656C256.249 201.73 258.741 204.221 261.815 204.221Z" fill="#F3AD00"/>
<path d="M283.062 186.955C284.476 186.955 285.622 185.809 285.622 184.395C285.622 182.982 284.476 181.836 283.062 181.836C281.649 181.836 280.503 182.982 280.503 184.395C280.503 185.809 281.649 186.955 283.062 186.955Z" fill="#F3AD00"/>
<path d="M288.709 208.85C291.278 208.85 293.361 206.768 293.361 204.199C293.361 201.63 291.278 199.547 288.709 199.547C286.14 199.547 284.058 201.63 284.058 204.199C284.058 206.768 286.14 208.85 288.709 208.85Z" fill="#F3AD00"/>
<path d="M260.352 221.787C264.234 221.787 267.38 218.641 267.38 214.759C267.38 210.877 264.234 207.73 260.352 207.73C256.47 207.73 253.324 210.877 253.324 214.759C253.324 218.641 256.47 221.787 260.352 221.787Z" fill="#F3AD00"/>
<path d="M249.485 204.195C251.527 204.195 253.182 202.54 253.182 200.498C253.182 198.456 251.527 196.801 249.485 196.801C247.443 196.801 245.788 198.456 245.788 200.498C245.788 202.54 247.443 204.195 249.485 204.195Z" fill="#F3AD00"/>
<path d="M273.048 221.83C275.303 221.83 277.131 220.002 277.131 217.747C277.131 215.492 275.303 213.664 273.048 213.664C270.793 213.664 268.965 215.492 268.965 217.747C268.965 220.002 270.793 221.83 273.048 221.83Z" fill="#FCC200"/>
<path d="M278.167 235.807C280.366 235.807 282.148 234.024 282.148 231.825C282.148 229.626 280.366 227.844 278.167 227.844C275.968 227.844 274.185 229.626 274.185 231.825C274.185 234.024 275.968 235.807 278.167 235.807Z" fill="#FCC200"/>
<path d="M287.227 223.24C289.874 223.24 292.02 221.094 292.02 218.446C292.02 215.799 289.874 213.652 287.227 213.652C284.579 213.652 282.433 215.799 282.433 218.446C282.433 221.094 284.579 223.24 287.227 223.24Z" fill="#FCC200"/>
<path d="M299.089 212.245C300.649 212.245 301.913 210.981 301.913 209.421C301.913 207.862 300.649 206.598 299.089 206.598C297.53 206.598 296.266 207.862 296.266 209.421C296.266 210.981 297.53 212.245 299.089 212.245Z" fill="#FCC200"/>
<path d="M300.207 228.21C302.551 228.21 304.452 226.309 304.452 223.964C304.452 221.62 302.551 219.719 300.207 219.719C297.862 219.719 295.961 221.62 295.961 223.964C295.961 226.309 297.862 228.21 300.207 228.21Z" fill="#FFD000"/>
<path d="M291.167 232.96C292.985 232.96 294.458 231.487 294.458 229.67C294.458 227.852 292.985 226.379 291.167 226.379C289.35 226.379 287.876 227.852 287.876 229.67C287.876 231.487 289.35 232.96 291.167 232.96Z" fill="#FFD000"/>
<path d="M306.504 219.799C308.086 219.799 309.368 218.516 309.368 216.934C309.368 215.353 308.086 214.07 306.504 214.07C304.922 214.07 303.64 215.353 303.64 216.934C303.64 218.516 304.922 219.799 306.504 219.799Z" fill="#FFD000"/>
<path d="M314.507 224.125C315.797 224.125 316.843 223.079 316.843 221.789C316.843 220.499 315.797 219.453 314.507 219.453C313.217 219.453 312.171 220.499 312.171 221.789C312.171 223.079 313.217 224.125 314.507 224.125Z" fill="#FFD000"/>
<path d="M309.348 232.456C310.907 232.456 312.171 231.192 312.171 229.632C312.171 228.073 310.907 226.809 309.348 226.809C307.788 226.809 306.524 228.073 306.524 229.632C306.524 231.192 307.788 232.456 309.348 232.456Z" fill="#FFD000"/>
<path d="M301.933 243.263C304.772 243.263 307.073 240.962 307.073 238.124C307.073 235.285 304.772 232.984 301.933 232.984C299.095 232.984 296.794 235.285 296.794 238.124C296.794 240.962 299.095 243.263 301.933 243.263Z" fill="#FFD000"/>
<path d="M316.843 238.204C318.167 238.204 319.24 237.131 319.24 235.807C319.24 234.483 318.167 233.41 316.843 233.41C315.52 233.41 314.446 234.483 314.446 235.807C314.446 237.131 315.52 238.204 316.843 238.204Z" fill="#FFD000"/>
<path d="M321.373 219.741C321.979 219.741 322.47 219.25 322.47 218.644C322.47 218.038 321.979 217.547 321.373 217.547C320.767 217.547 320.276 218.038 320.276 218.644C320.276 219.25 320.767 219.741 321.373 219.741Z" fill="#FFD000"/>
<path d="M274.714 186.384C275.533 186.384 276.197 185.72 276.197 184.901C276.197 184.082 275.533 183.418 274.714 183.418C273.895 183.418 273.231 184.082 273.231 184.901C273.231 185.72 273.895 186.384 274.714 186.384Z" fill="#F3AD00"/>
<path d="M276.847 204.197C281.199 204.197 284.728 200.668 284.728 196.315C284.728 191.962 281.199 188.434 276.847 188.434C272.494 188.434 268.965 191.962 268.965 196.315C268.965 200.668 272.494 204.197 276.847 204.197Z" fill="#F3AD00"/>
<path d="M278.451 212.24C279.696 212.24 280.706 211.231 280.706 209.985C280.706 208.74 279.696 207.73 278.451 207.73C277.206 207.73 276.196 208.74 276.196 209.985C276.196 211.231 277.206 212.24 278.451 212.24Z" fill="#F3AD00"/>
<path d="M323.567 232.231C324.778 232.231 325.761 231.249 325.761 230.038C325.761 228.826 324.778 227.844 323.567 227.844C322.355 227.844 321.373 228.826 321.373 230.038C321.373 231.249 322.355 232.231 323.567 232.231Z" fill="#FFD000"/>
<path d="M332.241 236.782C333.172 236.782 333.927 236.027 333.927 235.096C333.927 234.165 333.172 233.41 332.241 233.41C331.31 233.41 330.555 234.165 330.555 235.096C330.555 236.027 331.31 236.782 332.241 236.782Z" fill="#FFD000"/>
<path d="M335.532 229.588C336.418 229.588 337.136 228.87 337.136 227.984C337.136 227.097 336.418 226.379 335.532 226.379C334.645 226.379 333.927 227.097 333.927 227.984C333.927 228.87 334.645 229.588 335.532 229.588Z" fill="#FFD000"/>
<path d="M553.69 152.704C561.402 153.515 567.288 157.369 569.724 165.279C570.332 167.307 570.332 169.741 570.129 171.972C569.724 176.434 567.694 178.057 563.229 178.057H543.947C543.541 183.533 547.194 187.184 552.674 187.589C556.329 187.792 559.372 186.372 562.619 184.953C566.476 183.127 570.129 185.967 569.521 190.023C569.318 191.24 568.302 192.66 567.288 193.471C563.838 196.311 559.779 197.122 555.516 197.325C550.24 197.527 544.963 196.716 540.294 193.877C534.408 190.226 531.769 184.953 531.567 178.057C531.567 175.217 531.769 172.378 531.769 169.538C531.769 160.614 541.512 151.284 553.69 152.704ZM408.371 155.949C411.01 157.774 411.415 160.208 409.792 163.048C408.371 165.684 406.545 166.09 403.703 165.279C401.268 164.467 398.629 163.656 395.99 163.656C391.323 163.453 388.684 166.293 388.481 171.16C388.279 172.175 388.481 173.594 388.481 174.811V178.259C388.481 184.547 392.54 186.981 398.426 186.372C400.253 186.169 401.876 185.358 403.5 184.749C406.545 183.533 408.778 183.938 410.401 186.778C411.821 189.414 411.415 191.848 408.778 193.674C404.718 196.716 399.847 197.325 394.976 197.122C393.149 197.122 391.323 196.716 389.496 196.31C382.19 194.688 376.912 188.4 376.71 180.896C376.507 176.231 376.304 171.566 376.912 167.104C378.131 157.977 384.828 152.906 394.976 152.501C399.645 152.298 404.312 152.906 408.371 155.949ZM453.631 166.697C454.848 171.768 454.645 177.447 453.631 182.518C452.008 191.036 443.077 197.324 434.35 197.121C425.217 196.918 417.098 190.428 415.272 181.909C414.662 179.678 414.865 177.244 414.865 174.608C414.054 167.306 416.489 161.221 422.375 156.556C433.334 148.038 450.789 153.311 453.631 166.697ZM510.457 152.705C516.952 153.313 521.418 156.964 523.853 163.049C524.868 165.482 525.274 168.322 525.274 171.161C525.477 177.855 525.274 184.548 525.274 191.038C525.274 194.486 522.838 196.514 518.982 196.514C515.329 196.514 512.893 194.486 512.893 191.038V170.147C512.893 166.902 510.255 163.86 507.21 163.454C503.76 163.049 500.716 164.874 499.701 168.119C499.345 169.184 499.301 170.404 499.295 171.508L499.295 190.484L499.298 190.997C499.304 192.956 499.193 194.806 496.86 195.703C493.815 196.717 490.974 196.92 488.335 194.689C487.524 194.08 487.118 192.661 487.118 191.444V170.756C487.118 166.902 484.479 163.86 481.029 163.251C477.985 162.846 474.94 164.671 473.925 167.511C473.519 168.93 473.316 170.35 473.316 171.77V191.038C473.316 194.283 471.083 196.109 467.43 196.109C463.777 196.109 461.341 194.283 461.341 191.038V158.384C461.341 154.327 462.56 153.11 466.619 152.705C469.866 152.705 472.099 154.327 472.91 158.181C478.187 151.285 489.755 149.459 495.438 160.818C495.845 160.209 496.251 159.803 496.657 159.398C500.107 154.733 504.572 152.096 510.457 152.705ZM587.379 136.274C588.192 136.883 588.597 138.302 588.8 139.317C589.003 143.779 588.8 148.241 588.8 153.108H597.528C600.978 153.108 602.398 154.528 602.398 157.976C602.398 161.424 600.978 162.844 597.528 162.844H589.409C589.206 163.047 589.003 163.047 588.597 163.25V181.098C588.597 184.546 589.815 185.56 593.468 185.56H596.918C599.962 185.763 601.992 187.588 602.195 190.631C602.398 193.673 600.572 196.31 597.528 196.31C593.468 196.31 589.206 196.107 585.35 195.093C580.073 193.673 576.826 189.211 576.826 183.735C576.623 168.929 576.826 154.123 576.826 139.114C576.826 138.1 577.434 136.883 578.246 136.274C580.276 134.449 585.147 134.246 587.379 136.274ZM434.756 163.452C430.9 163.452 427.247 166.9 427.043 170.957C426.84 173.593 426.84 176.23 427.043 178.664C427.247 182.518 430.494 185.966 434.147 186.371C437.394 186.777 441.047 183.937 441.859 180.287C442.215 178.867 442.259 177.292 442.401 175.561L442.468 174.81C442.265 173.593 442.265 172.377 442.265 171.16C442.062 167.103 438.612 163.452 434.756 163.452ZM548.616 163.048C544.963 164.062 543.541 166.293 543.947 170.755H555.516C556.53 170.755 558.358 170.349 558.56 169.944C558.763 168.524 558.763 166.901 558.155 165.684C556.53 162.845 552.066 161.831 548.616 163.048Z" fill="white"/>
<path d="M634.64 196C633.659 196 632.805 195.637 632.08 194.912C631.397 194.187 631.056 193.333 631.056 192.352V152.928C631.056 151.947 631.397 151.093 632.08 150.368C632.805 149.643 633.659 149.28 634.64 149.28H636.688C637.669 149.28 638.523 149.643 639.248 150.368C639.973 151.093 640.336 151.947 640.336 152.928V188C640.336 188.384 640.507 188.576 640.848 188.576H657.296C658.277 188.576 659.109 188.939 659.792 189.664C660.517 190.347 660.88 191.179 660.88 192.16V192.352C660.88 193.333 660.517 194.187 659.792 194.912C659.109 195.637 658.277 196 657.296 196H634.64ZM673.18 196C672.199 196 671.346 195.637 670.62 194.912C669.938 194.187 669.596 193.333 669.596 192.352V152.928C669.596 151.947 669.938 151.093 670.62 150.368C671.346 149.643 672.199 149.28 673.18 149.28H675.228C676.21 149.28 677.063 149.643 677.788 150.368C678.514 151.093 678.876 151.947 678.876 152.928V188C678.876 188.384 679.047 188.576 679.388 188.576H695.836C696.818 188.576 697.65 188.939 698.332 189.664C699.058 190.347 699.42 191.179 699.42 192.16V192.352C699.42 193.333 699.058 194.187 698.332 194.912C697.65 195.637 696.818 196 695.836 196H673.18ZM711.785 196C710.803 196 709.95 195.637 709.225 194.912C708.499 194.187 708.137 193.333 708.137 192.352V152.928C708.137 151.947 708.499 151.093 709.225 150.368C709.95 149.643 710.803 149.28 711.785 149.28H713.385C714.494 149.28 715.518 149.579 716.457 150.176C717.395 150.773 718.078 151.563 718.505 152.544L729.705 176.736C729.705 176.779 729.726 176.8 729.769 176.8C729.811 176.8 729.833 176.779 729.833 176.736L741.033 152.544C741.459 151.563 742.142 150.773 743.081 150.176C744.019 149.579 745.043 149.28 746.153 149.28H748.009C748.99 149.28 749.843 149.643 750.569 150.368C751.294 151.093 751.657 151.947 751.657 152.928V192.352C751.657 193.333 751.294 194.187 750.569 194.912C749.843 195.637 748.99 196 748.009 196H746.601C745.619 196 744.766 195.637 744.041 194.912C743.315 194.187 742.953 193.333 742.953 192.352V164.512C742.953 164.469 742.931 164.448 742.889 164.448C742.846 164.448 742.825 164.469 742.825 164.512L735.145 180.96C734.675 181.941 733.95 182.752 732.969 183.392C732.03 183.989 731.027 184.288 729.961 184.288H729.577C728.51 184.288 727.486 183.989 726.505 183.392C725.566 182.752 724.862 181.941 724.393 180.96L716.713 164.512C716.713 164.469 716.691 164.448 716.649 164.448C716.606 164.448 716.585 164.469 716.585 164.512V192.352C716.585 193.333 716.222 194.187 715.497 194.912C714.771 195.637 713.918 196 712.937 196H711.785Z" fill="#F16A12"/>
<defs>
<linearGradient id="paint0_linear_1361_6968" x1="252.308" y1="184.983" x2="331.713" y2="105.578" gradientUnits="userSpaceOnUse">
<stop stop-color="#EE8C00"/>
<stop offset="0.4" stop-color="#D7581B"/>
<stop offset="0.8" stop-color="#C22933"/>
<stop offset="1" stop-color="#BA173C"/>
</linearGradient>
<linearGradient id="paint1_linear_1361_6968" x1="288.323" y1="186.06" x2="288.323" y2="107.062" gradientUnits="userSpaceOnUse">
<stop stop-color="#F4AC00"/>
<stop offset="1" stop-color="#E30D3E"/>
</linearGradient>
</defs>
</svg>
