<svg width="32" height="32" viewBox="0 0 32 32" fill="none" xmlns="http://www.w3.org/2000/svg">
<rect width="32" height="32" rx="6" fill="#CDF5F9"/>
<g clip-path="url(#clip0_365_30533)">
<path d="M23.44 21.2747C23.44 21.2747 19.5028 14.2709 17.7718 11.6281C18.0487 11.4173 18.2578 11.1504 18.3738 10.8409C18.747 9.84543 18.366 9.23075 18.0297 8.68844C17.6882 8.13774 17.3656 7.61754 17.6674 6.58703L17.7979 6.14047L17.333 6.16532C17.2997 6.16688 16.502 6.21348 15.5379 6.5777C14.27 7.05661 13.3066 7.86707 12.7472 8.92371C12.1879 7.86707 11.2245 7.05661 9.95653 6.5777C8.99254 6.21352 8.19446 6.16688 8.16121 6.16532L7.6966 6.14047L7.82715 6.58703C8.12887 7.61754 7.80602 8.13778 7.46477 8.68844C7.12852 9.23075 6.7475 9.84543 7.12043 10.8409C7.3616 11.4838 8.00242 11.9434 8.82625 12.0973C7.39016 14.9931 9.06492 23.2441 18.1652 23.0881L19.5258 26L25.0333 23.9672L23.44 21.2747ZM10.0118 10.0108C9.67809 10.0108 9.40707 9.74043 9.40707 9.40668C9.40707 9.07262 9.67809 8.80223 10.0118 8.80223C10.3456 8.80223 10.616 9.07262 10.616 9.40668C10.616 9.74043 10.3456 10.0108 10.0118 10.0108ZM15.5063 8.80219C15.8401 8.80219 16.1104 9.07258 16.1104 9.40664C16.1104 9.74043 15.8401 10.0108 15.5063 10.0108C15.1725 10.0108 14.9022 9.74039 14.9022 9.40664C14.9022 9.07258 15.1725 8.80219 15.5063 8.80219ZM11.7093 11.3024C12.2037 10.945 12.6708 10.3763 12.7472 10.2654C12.815 10.3632 13.1575 10.8393 13.7237 11.2893L12.7255 11.7418L11.7093 11.3024ZM19.7719 21.7934C16.5088 21.2374 14.3409 19.4241 13.4564 17.409C13.1621 16.7375 13.0102 16.0432 13.0102 15.3666C13.0102 14.9999 13.0549 14.6385 13.1457 14.2895L13.6243 14.4138C13.5447 14.7206 13.5049 15.04 13.5049 15.3666C13.5049 15.9692 13.6404 16.5963 13.9095 17.2104C14.1787 17.8245 14.582 18.4249 15.1159 18.9725C16.1831 20.0673 17.7724 20.9506 19.8552 21.3057L19.7719 21.7934Z" fill="#12A4B4"/>
<path d="M12.7472 7.97434C13.2706 7.19711 14.0801 6.69395 14.7636 6.36859C13.8797 6.11 12.7472 6 12.7472 6C12.7472 6 11.4069 6.11 10.7307 6.36859C11.4141 6.69395 12.2239 7.19711 12.7472 7.97434Z" fill="#12A4B4"/>
</g>
<defs>
<clipPath id="clip0_365_30533">
<rect width="20" height="20" fill="white" transform="translate(6 6)"/>
</clipPath>
</defs>
</svg>
