<svg width="32" height="32" viewBox="0 0 32 32" fill="none" xmlns="http://www.w3.org/2000/svg">
<rect width="32" height="32" rx="6" fill="#FDE2EA"/>
<mask id="mask0_365_30709" style="mask-type:luminance" maskUnits="userSpaceOnUse" x="6" y="8" width="20" height="16">
<path d="M8.64915 9.04583C9.75832 10.6492 11.2267 11.1675 11.9242 11.2188C13.1137 10.6363 14.5087 10.3013 16 10.3013C17.4917 10.3013 18.8862 10.6363 20.0758 11.2183C20.7733 11.1675 22.2417 10.6492 23.3508 9.04583C23.6662 8.70375 24.6133 8.86292 24.2525 11.7846C24.1321 12.5163 23.7996 14.1117 23.5792 14.9054C23.7825 15.4725 23.8917 16.0721 23.8917 16.6925C23.8917 20.2217 20.3583 23.0833 16 23.0833C11.6417 23.0833 8.10832 20.2221 8.10832 16.6925C8.10832 16.0721 8.21749 15.4725 8.42082 14.9054C8.20041 14.1117 7.8679 12.5158 7.74749 11.7846C7.38665 8.86292 8.33332 8.70417 8.64915 9.04583Z" fill="white" stroke="white" stroke-width="1.66667" stroke-linecap="round" stroke-linejoin="round"/>
<path d="M16.4167 19.0208C16.4167 19.3083 16 20.5833 16 20.5833C16 20.5833 15.5833 19.3083 15.5833 19.0208C15.5833 18.7333 15.77 18.5 16 18.5C16.23 18.5 16.4167 18.7333 16.4167 19.0208Z" stroke="black" stroke-width="1.66667" stroke-linejoin="round"/>
<path d="M13.0833 16.8333C14.0038 16.8333 14.7499 16.0871 14.7499 15.1667C14.7499 14.2462 14.0038 13.5 13.0833 13.5C12.1628 13.5 11.4166 14.2462 11.4166 15.1667C11.4166 16.0871 12.1628 16.8333 13.0833 16.8333Z" fill="black" stroke="black" stroke-width="1.66667"/>
<path d="M18.9166 16.8333C19.8371 16.8333 20.5833 16.0871 20.5833 15.1667C20.5833 14.2462 19.8371 13.5 18.9166 13.5C17.9962 13.5 17.25 14.2462 17.25 15.1667C17.25 16.0871 17.9962 16.8333 18.9166 16.8333Z" fill="black" stroke="black" stroke-width="1.66667"/>
</mask>
<g mask="url(#mask0_365_30709)">
<path d="M5.99997 6H26V26H5.99997V6Z" fill="#ED4A7B"/>
</g>
</svg>
