<svg width="32" height="32" viewBox="0 0 32 32" fill="none" xmlns="http://www.w3.org/2000/svg">
<rect width="32" height="32" rx="6" fill="#FDE2F6"/>
<g clip-path="url(#clip0_365_30560)">
<path d="M16 19.3333C16.4667 20.0333 17.0917 20.6083 17.8333 21L16 22.8333L14.1667 21C14.9083 20.6083 15.5417 20.0333 16 19.3333ZM20.1667 15.3333C19.7246 15.3333 19.3007 15.5089 18.9882 15.8215C18.6756 16.1341 18.5 16.558 18.5 17C18.5 17.442 18.6756 17.866 18.9882 18.1785C19.3007 18.4911 19.7246 18.6667 20.1667 18.6667C20.6087 18.6667 21.0326 18.4911 21.3452 18.1785C21.6577 17.866 21.8333 17.442 21.8333 17C21.8333 16.558 21.6577 16.1341 21.3452 15.8215C21.0326 15.5089 20.6087 15.3333 20.1667 15.3333ZM11.8333 15.3333C11.3913 15.3333 10.9674 15.5089 10.6548 15.8215C10.3423 16.1341 10.1667 16.558 10.1667 17C10.1667 17.442 10.3423 17.866 10.6548 18.1785C10.9674 18.4911 11.3913 18.6667 11.8333 18.6667C12.2754 18.6667 12.6993 18.4911 13.0118 18.1785C13.3244 17.866 13.5 17.442 13.5 17C13.5 16.558 13.3244 16.1341 13.0118 15.8215C12.6993 15.5089 12.2754 15.3333 11.8333 15.3333ZM20.1667 13.25C21.0507 13.25 21.8986 13.6012 22.5237 14.2263C23.1488 14.8514 23.5 15.6993 23.5 16.5833C23.5 17.4674 23.1488 18.3152 22.5237 18.9404C21.8986 19.5655 21.0507 19.9167 20.1667 19.9167C19.2826 19.9167 18.4348 19.5655 17.8096 18.9404C17.1845 18.3152 16.8333 17.4674 16.8333 16.5833C16.8333 15.6993 17.1845 14.8514 17.8096 14.2263C18.4348 13.6012 19.2826 13.25 20.1667 13.25ZM11.8333 13.25C12.7174 13.25 13.5652 13.6012 14.1904 14.2263C14.8155 14.8514 15.1667 15.6993 15.1667 16.5833C15.1667 17.4674 14.8155 18.3152 14.1904 18.9404C13.5652 19.5655 12.7174 19.9167 11.8333 19.9167C10.9493 19.9167 10.1014 19.5655 9.47631 18.9404C8.85119 18.3152 8.5 17.4674 8.5 16.5833C8.5 15.6993 8.85119 14.8514 9.47631 14.2263C10.1014 13.6012 10.9493 13.25 11.8333 13.25ZM7.86667 6.83334C9.33334 9.91668 8.275 12.2167 7.29167 14.5C6.99167 15.1667 6.83334 15.8583 6.83334 16.5833C6.83334 17.9094 7.36012 19.1812 8.2978 20.1189C9.23548 21.0566 10.5073 21.5833 11.8333 21.5833C12.0083 21.575 12.1833 21.5667 12.3583 21.5417L14.825 24.0083L16 25.1667L17.175 24.0083L19.6417 21.5417C19.8167 21.5667 19.9917 21.575 20.1667 21.5833C21.4928 21.5833 22.7645 21.0566 23.7022 20.1189C24.6399 19.1812 25.1667 17.9094 25.1667 16.5833C25.1667 15.8583 25.0083 15.1667 24.7083 14.5C23.725 12.2167 22.6667 9.91668 24.1333 6.83334C21.9333 8.55001 18.8 9.90834 16 9.91668C13.2 9.90834 10.0667 8.55001 7.86667 6.83334Z" fill="#BF399E"/>
</g>
<defs>
<clipPath id="clip0_365_30560">
<rect width="20" height="20" fill="white" transform="translate(6 6)"/>
</clipPath>
</defs>
</svg>
