<svg width="32" height="32" viewBox="0 0 32 32" fill="none" xmlns="http://www.w3.org/2000/svg">
<rect width="32" height="32" rx="6" fill="#FFD2D2"/>
<g clip-path="url(#clip0_365_30513)">
<path d="M23.0317 7.51659C22.976 6.94225 22.7042 6.41244 22.1873 6.1569C21.6695 5.90136 21.0515 5.96213 20.5941 6.31297L18.596 7.84372H13.5568L11.5595 6.31297C11.1017 5.96171 10.484 5.90136 9.96629 6.1569C9.44896 6.41161 9.18219 6.94225 9.12142 7.51618C8.68442 11.6298 6.19644 21.1372 9.12142 24.0622C11.5803 26.5215 20.8459 26.7675 23.0321 24.0622C25.6317 20.8455 23.43 11.6335 23.0317 7.51659ZM12.6445 17.223C11.1004 17.223 9.84809 15.9711 9.84809 14.4258C9.84809 12.8813 11.1004 11.6298 12.6445 11.6298C14.1885 11.6298 15.4408 12.8817 15.4408 14.4262C15.4408 15.9711 14.1885 17.223 12.6445 17.223ZM17.245 18.0549L16.2345 20.1088C16.1908 20.1983 16.0993 20.2562 15.9998 20.2562C15.8999 20.2562 15.8088 20.1983 15.7646 20.1088L14.7554 18.0549C14.7154 17.9738 14.7204 17.8768 14.7683 17.8006C14.8161 17.7236 14.9002 17.677 14.9909 17.677H17.0099C17.1002 17.677 17.1847 17.7236 17.2325 17.8006C17.28 17.8768 17.2846 17.9734 17.245 18.0549ZM19.3551 17.223C17.811 17.223 16.5587 15.9711 16.5587 14.4258C16.5587 12.8813 17.811 11.6298 19.3551 11.6298C20.8992 11.6298 22.1515 12.8817 22.1515 14.4262C22.1511 15.9711 20.8992 17.223 19.3551 17.223Z" fill="#EF6868"/>
</g>
<defs>
<clipPath id="clip0_365_30513">
<rect width="20" height="20" fill="white" transform="translate(6 6)"/>
</clipPath>
</defs>
</svg>
