<svg width="32" height="32" viewBox="0 0 32 32" fill="none" xmlns="http://www.w3.org/2000/svg">
<rect width="32" height="32" rx="6" fill="#E5E5FE"/>
<path fill-rule="evenodd" clip-rule="evenodd" d="M20.4546 6.00956C20.6251 5.96732 20.7978 6.07153 20.8403 6.24198L21.5542 9.12382C23.0858 10.9073 24.0414 13.4192 24.0415 16.2039C24.0415 21.6141 20.4407 25.9998 15.9995 25.9998C11.5585 25.9995 7.9585 21.6139 7.9585 16.2039C7.95862 13.6209 8.78049 11.2724 10.1216 9.52226L10.647 6.6414C10.6785 6.46837 10.845 6.35399 11.0181 6.38554L13.5942 6.85429C14.3537 6.56461 15.1617 6.40806 15.9995 6.408C16.6258 6.408 17.2347 6.49789 17.8198 6.66288L20.4546 6.00956ZM18.9976 9.58769C17.7944 9.58777 16.7169 10.1314 15.9995 10.9861C15.2821 10.1316 14.2055 9.5877 13.0024 9.58769C10.8428 9.58783 9.09176 11.3393 9.09131 13.4988C9.09133 15.6588 10.8425 17.4098 13.0024 17.41C13.1527 17.41 13.301 17.4001 13.4468 17.3836L13.4312 17.4002L15.731 19.699C15.8594 19.8275 16.0673 19.8275 16.1958 19.699L18.5122 17.3826L18.5073 17.3777C18.6677 17.3978 18.8317 17.4099 18.9976 17.41C21.1574 17.4097 22.9077 15.6587 22.9077 13.4988C22.9073 11.3393 21.1571 9.58794 18.9976 9.58769ZM16.0552 15.2566C16.5379 16.0444 16.9043 16.4053 17.7144 16.9158L16.2144 18.4158C16.1267 18.5034 15.9847 18.5032 15.897 18.4158L14.397 16.9158C15.1736 16.3713 15.5289 16.0015 16.0552 15.2566ZM18.7876 10.8309C20.336 10.8309 21.5919 12.0863 21.5923 13.6346L21.5776 13.9217C21.434 15.3355 20.2394 16.4392 18.7876 16.4392L18.5015 16.4246C17.2258 16.295 16.2058 15.3093 16.0181 14.0516C15.8166 15.4023 14.6544 16.4392 13.2476 16.4392L12.9614 16.4246C11.5474 16.2811 10.4438 15.0864 10.4438 13.6346C10.4443 12.0864 11.6994 10.8311 13.2476 10.8309C14.6544 10.8309 15.8164 11.8678 16.0181 13.2185C16.2195 11.868 17.3811 10.8312 18.7876 10.8309ZM13.2476 11.9637C12.3252 11.9639 11.5771 12.7122 11.5767 13.6346C11.5767 14.5572 12.325 15.3052 13.2476 15.3055C14.1704 15.3055 14.9185 14.5574 14.9185 13.6346C14.9181 12.7121 14.1701 11.9637 13.2476 11.9637ZM18.7876 11.9637C17.8654 11.9641 17.1171 12.7123 17.1167 13.6346C17.1167 14.5571 17.8651 15.3051 18.7876 15.3055C19.7104 15.3055 20.4585 14.5574 20.4585 13.6346C20.4581 12.7121 19.7102 11.9637 18.7876 11.9637Z" fill="#262AB5"/>
</svg>
