<svg width="32" height="32" viewBox="0 0 32 32" fill="none" xmlns="http://www.w3.org/2000/svg">
<rect width="32" height="32" rx="6" fill="#EFE2FD"/>
<path d="M12.49 14.0942C12.33 13.9342 12.25 13.7361 12.25 13.5C12.25 13.2639 12.33 13.0661 12.49 12.9067C12.65 12.7472 12.8478 12.6672 13.0833 12.6667C13.3189 12.6661 13.5169 12.7461 13.6775 12.9067C13.8381 13.0672 13.9178 13.265 13.9167 13.5C13.9156 13.735 13.8356 13.933 13.6767 14.0942C13.5178 14.2553 13.32 14.335 13.0833 14.3333C12.8467 14.3317 12.6489 14.2517 12.49 14.0933M18.3233 14.0933C18.1633 13.9344 18.0833 13.7367 18.0833 13.5C18.0833 13.2633 18.1633 13.0655 18.3233 12.9067C18.4833 12.7478 18.6811 12.6678 18.9167 12.6667C19.1522 12.6655 19.3503 12.7455 19.5108 12.9067C19.6714 13.0678 19.7511 13.2655 19.75 13.5C19.7489 13.7344 19.6689 13.9325 19.51 14.0942C19.3511 14.2558 19.1533 14.3355 18.9167 14.3333C18.68 14.3311 18.4822 14.2511 18.3233 14.0933ZM16 24.3333C14.1389 24.3333 12.5625 23.6875 11.2708 22.3958C9.97917 21.1042 9.33334 19.5278 9.33334 17.6667V13.5C9.33334 11.8055 10 10.4097 11.3333 9.31249C12.6667 8.21527 14.2222 7.66666 16 7.66666C17.7778 7.66666 19.3333 8.21527 20.6667 9.31249C22 10.4097 22.6667 11.8055 22.6667 13.5V21.8333C22.6667 22.0694 22.5867 22.2675 22.4267 22.4275C22.2667 22.5875 22.0689 22.6672 21.8333 22.6667H21C20.3056 22.6667 19.7153 22.4236 19.2292 21.9375C18.7431 21.4514 18.5 20.8611 18.5 20.1667V20.125C18.5 19.8472 18.4133 19.6389 18.24 19.5C18.0667 19.3611 17.8756 19.2917 17.6667 19.2917C17.4578 19.2917 17.2669 19.3611 17.0942 19.5C16.9214 19.6389 16.8344 19.8472 16.8333 20.125V20.1667C16.8333 20.8333 16.9792 21.4514 17.2708 22.0208C17.5625 22.5903 17.9514 23.0625 18.4375 23.4375C18.6458 23.5903 18.7189 23.7778 18.6567 24C18.5944 24.2222 18.4589 24.3333 18.25 24.3333H16ZM16 17.6667C17.3194 17.6667 18.4828 17.2811 19.49 16.51C20.4972 15.7389 21.0006 14.7355 21 13.5C21 13.0139 20.9167 12.5589 20.75 12.135C20.5833 11.7111 20.3472 11.3328 20.0417 11C19.1528 11.0278 18.3958 11.3611 17.7708 12C17.1458 12.6389 16.8333 13.4167 16.8333 14.3333C16.8333 14.5694 16.7536 14.7675 16.5942 14.9275C16.4347 15.0875 16.2367 15.1672 16 15.1667C15.7633 15.1661 15.5656 15.0861 15.4067 14.9267C15.2478 14.7672 15.1678 14.5694 15.1667 14.3333C15.1667 13.4167 14.8542 12.6458 14.2292 12.0208C13.6042 11.3958 12.8472 11.0625 11.9583 11.0208C11.6528 11.3542 11.4167 11.7292 11.25 12.1458C11.0833 12.5625 11 13.0139 11 13.5C11 14.7361 11.5036 15.7397 12.5108 16.5108C13.5181 17.2819 14.6811 17.6672 16 17.6667Z" fill="#945FCF"/>
</svg>
