<svg width="32" height="32" viewBox="0 0 32 32" fill="none" xmlns="http://www.w3.org/2000/svg">
<rect width="32" height="32" rx="6" fill="#DAFBF0"/>
<path d="M12.8375 13.3188C13.1723 13.3188 13.4935 13.1857 13.7302 12.949C13.967 12.7122 14.1 12.3911 14.1 12.0563C14.1 11.7214 13.967 11.4003 13.7302 11.1635C13.4935 10.9268 13.1723 10.7938 12.8375 10.7938C12.5027 10.7938 12.1815 10.9268 11.9448 11.1635C11.708 11.4003 11.575 11.7214 11.575 12.0563C11.575 12.3911 11.708 12.7122 11.9448 12.949C12.1815 13.1857 12.5027 13.3188 12.8375 13.3188ZM20.7375 12.0563C20.7375 12.3911 20.6045 12.7122 20.3677 12.949C20.131 13.1857 19.8098 13.3188 19.475 13.3188C19.1402 13.3188 18.819 13.1857 18.5823 12.949C18.3455 12.7122 18.2125 12.3911 18.2125 12.0563C18.2125 11.7214 18.3455 11.4003 18.5823 11.1635C18.819 10.9268 19.1402 10.7938 19.475 10.7938C19.8098 10.7938 20.131 10.9268 20.3677 11.1635C20.6045 11.4003 20.7375 11.7214 20.7375 12.0563Z" fill="#19A979"/>
<path d="M22.8625 7.25C22.8625 7.9875 22.5875 8.65 22.1375 9.1625C22.7 9.8125 23.0438 10.6562 23.0438 11.575C23.0438 12.5519 22.8325 13.3094 22.4531 13.8956C22.805 14.7269 23 15.6406 23 16.6C23 19.1544 21.6194 21.3863 19.5644 22.59C19.8706 23.0813 20.0756 23.6425 20.15 24.2437C20.2081 24.7131 19.8194 25.0625 19.4 25.0625H12.8188C12.3994 25.0625 12.0106 24.7131 12.0688 24.2437C12.1413 23.6588 12.3375 23.1125 12.6313 22.6313C11.5662 22.0252 10.6807 21.1478 10.0649 20.0884C9.44898 19.029 9.1247 17.8254 9.125 16.6C9.125 15.6062 9.33375 14.6613 9.71063 13.8062C9.36563 13.2331 9.175 12.5031 9.175 11.575C9.175 10.6562 9.51875 9.8125 10.0813 9.1625C9.61484 8.63451 9.35706 7.9545 9.35625 7.25H12.8813C13.5625 7.25 14.1875 7.4875 14.6813 7.88125H17.5312C18.025 7.4875 18.65 7.25 19.3313 7.25H22.8625ZM13.1894 22.9163C12.9269 23.3337 12.7519 23.81 12.6894 24.3206C12.6874 24.3342 12.6886 24.3481 12.6929 24.3611C12.6973 24.3741 12.7046 24.386 12.7144 24.3956C12.7281 24.4093 12.7444 24.42 12.7623 24.4272C12.7802 24.4344 12.7994 24.4379 12.8188 24.4375H19.4C19.4192 24.4378 19.4383 24.4343 19.4561 24.4271C19.4739 24.4199 19.4901 24.4092 19.5038 24.3956C19.5137 24.3861 19.5213 24.3743 19.5259 24.3613C19.5304 24.3482 19.5319 24.3343 19.53 24.3206C19.4667 23.8082 19.2887 23.3167 19.0094 22.8825C18.5094 23.1175 17.9762 23.2944 17.42 23.405C16.9858 23.5771 16.5233 23.6665 16.0563 23.6688C15.5806 23.6688 15.1188 23.5731 14.6794 23.4C14.1594 23.2944 13.6606 23.1313 13.1894 22.9163ZM15.875 15.8512C13.9156 15.8512 12.1475 15.6875 10.9194 14.9637C10.7487 15.4648 10.662 15.9907 10.6625 16.52C10.6625 19.3263 13.075 22.875 16.0563 22.875C19.0375 22.875 21.45 19.3263 21.45 16.52C21.45 15.9963 21.3663 15.4906 21.2106 15.015C19.9875 15.695 18.2562 15.8512 16.3437 15.8512H15.875ZM12.8375 14.1063C13.3812 14.1063 13.9026 13.8903 14.2871 13.5058C14.6715 13.1214 14.8875 12.5999 14.8875 12.0562C14.8875 11.5126 14.6715 10.9911 14.2871 10.6067C13.9026 10.2222 13.3812 10.0062 12.8375 10.0062C12.2938 10.0062 11.7724 10.2222 11.3879 10.6067C11.0035 10.9911 10.7875 11.5126 10.7875 12.0562C10.7875 12.5999 11.0035 13.1214 11.3879 13.5058C11.7724 13.8903 12.2938 14.1063 12.8375 14.1063ZM19.475 14.1063C20.0187 14.1063 20.5401 13.8903 20.9246 13.5058C21.309 13.1214 21.525 12.5999 21.525 12.0562C21.525 11.5126 21.309 10.9911 20.9246 10.6067C20.5401 10.2222 20.0187 10.0062 19.475 10.0062C18.9313 10.0062 18.4099 10.2222 18.0254 10.6067C17.641 10.9911 17.425 11.5126 17.425 12.0562C17.425 12.5999 17.641 13.1214 18.0254 13.5058C18.4099 13.8903 18.9313 14.1063 19.475 14.1063ZM15.1875 13.8375H17.1312C17.1312 13.3 16.7 12.8687 16.1625 12.8625C15.625 12.8625 15.1875 13.3 15.1875 13.8375Z" fill="#19A979"/>
</svg>
