<svg width="32" height="32" viewBox="0 0 32 32" fill="none" xmlns="http://www.w3.org/2000/svg">
<rect width="32" height="32" rx="6" fill="#FEE8D7"/>
<path fill-rule="evenodd" clip-rule="evenodd" d="M16.2217 11.3487C17.3231 8.02409 20.9116 6.22204 24.2363 7.32334C25.9054 7.87628 27.19 9.0563 27.917 10.5147C27.6238 10.382 27.3211 10.2627 27.0088 10.1593C24.2562 9.24748 21.3792 9.71424 19.125 11.1827C19.9762 10.7805 20.9278 10.5548 21.9316 10.5548L22.2695 10.5636C25.7442 10.7399 28.5076 13.6135 28.5078 17.1319L28.499 17.4698C28.3229 20.9444 25.4499 23.7076 21.9316 23.7081L21.5928 23.6993C20.2487 23.6312 19.0114 23.1588 17.999 22.4024L16 25.0001L13.999 22.4024C12.9025 23.2214 11.5432 23.708 10.0693 23.7081L9.73047 23.6993C6.36769 23.5288 3.67144 20.8326 3.50098 17.4698L3.49219 17.1319C3.49237 13.4999 6.43729 10.5548 10.0693 10.5548L10.4072 10.5636C11.4795 10.6179 12.4839 10.9299 13.3604 11.4376C11.0564 9.77125 8.01294 9.19683 5.10742 10.1593C4.79512 10.2627 4.49237 10.382 4.19922 10.5147C4.92618 9.05631 6.21079 7.87629 7.87988 7.32334C11.2046 6.22204 14.7931 8.02411 15.8945 11.3487C15.9605 11.5478 16.0123 11.749 16.0576 11.9493C16.1029 11.7489 16.1557 11.5478 16.2217 11.3487ZM10.0693 11.9054C7.18319 11.9054 4.84295 14.2458 4.84277 17.1319C4.84307 20.018 7.18326 22.3575 10.0693 22.3575C12.9553 22.3573 15.2946 20.0178 15.2949 17.1319C15.2947 14.2459 12.9553 11.9056 10.0693 11.9054ZM21.9316 11.9054C19.0454 11.9054 16.7053 14.2458 16.7051 17.1319C16.7054 20.018 19.0455 22.3575 21.9316 22.3575C24.8173 22.357 27.1569 20.0177 27.1572 17.1319C27.157 14.2461 24.8174 11.9059 21.9316 11.9054ZM10.1279 14.3136C11.6197 14.3136 12.8291 15.523 12.8291 17.0147C12.8289 18.5064 11.6196 19.7159 10.1279 19.7159C8.63627 19.7159 7.42698 18.5064 7.42676 17.0147C7.42676 15.5229 8.63613 14.3136 10.1279 14.3136ZM21.7539 14.3136C23.2457 14.3136 24.4551 15.5229 24.4551 17.0147C24.4549 18.5064 23.2456 19.7159 21.7539 19.7159C20.2624 19.7157 19.053 18.5062 19.0527 17.0147C19.0527 15.5231 20.2623 14.3138 21.7539 14.3136Z" fill="#FB9341"/>
</svg>
