<svg width="32" height="32" viewBox="0 0 32 32" fill="none" xmlns="http://www.w3.org/2000/svg">
<rect width="32" height="32" rx="6" fill="#FEF0C8"/>
<path d="M19.75 14.3333C19.4185 14.3333 19.1005 14.465 18.8661 14.6995C18.6317 14.9339 18.5 15.2518 18.5 15.5833C18.5 15.9149 18.6317 16.2328 18.8661 16.4672C19.1005 16.7016 19.4185 16.8333 19.75 16.8333C20.0815 16.8333 20.3995 16.7016 20.6339 16.4672C20.8683 16.2328 21 15.9149 21 15.5833C21 15.2518 20.8683 14.9339 20.6339 14.6995C20.3995 14.465 20.0815 14.3333 19.75 14.3333ZM12.25 14.3333C11.9185 14.3333 11.6005 14.465 11.3661 14.6995C11.1317 14.9339 11 15.2518 11 15.5833C11 15.9149 11.1317 16.2328 11.3661 16.4672C11.6005 16.7016 11.9185 16.8333 12.25 16.8333C12.5815 16.8333 12.8995 16.7016 13.1339 16.4672C13.3683 16.2328 13.5 15.9149 13.5 15.5833C13.5 15.2518 13.3683 14.9339 13.1339 14.6995C12.8995 14.465 12.5815 14.3333 12.25 14.3333ZM17.25 18.5C17.25 17.35 16.6917 16.8333 16 16.8333C15.3083 16.8333 14.75 17.35 14.75 18.5C14.75 19.65 16 21 16 21C16 21 17.25 19.65 17.25 18.5Z" fill="#F4B400"/>
<path d="M24.3333 8.49999H22.6667C22.6667 9.14166 22.575 9.94999 22.175 10.3917C20.6333 8.68332 18.4167 7.66666 16 7.66666C13.5833 7.66666 11.375 8.68332 9.825 10.3917C9.425 9.94999 9.33333 9.13332 9.33333 8.49999H7.66667C7.66667 9.99166 8.06667 11.0833 8.83333 11.7417C8.60833 12.125 8.40833 12.5333 8.24167 12.9583C7.85888 13.9237 7.66373 14.9532 7.66667 15.9917C7.66667 16.1333 7.68333 16.2667 7.69167 16.4083H7.66667V24.325H24.3333V16.4083H24.3083C24.3083 16.2667 24.3333 16.1333 24.3333 15.9917C24.3333 14.9417 24.1417 13.9167 23.7583 12.9583C23.5917 12.5333 23.3917 12.125 23.1667 11.7417C23.9417 11.075 24.3333 9.99166 24.3333 8.49999ZM9.33333 16C9.33333 15.1833 9.475 14.3917 9.76667 13.65C9.8 13.5917 9.84167 13.5417 9.875 13.4917C9.90833 13.45 9.93333 13.4 9.96667 13.3583C10.0083 13.3 10.0583 13.25 10.1083 13.2C10.1417 13.1583 10.1833 13.1167 10.2167 13.0833C10.2667 13.0333 10.325 12.9917 10.375 12.95C10.4167 12.9167 10.4583 12.875 10.5 12.8417C10.5583 12.8 10.6167 12.7667 10.675 12.725C10.7167 12.7 10.7667 12.6667 10.8083 12.6417C10.875 12.6083 10.9417 12.575 11 12.55C11.05 12.525 11.0917 12.5 11.1417 12.4833C11.2167 12.4583 11.2833 12.4333 11.3583 12.4083L11.4417 12.3833C11.6083 12.3583 11.75 12.325 11.8667 12.2917C11.9917 12.275 12.1167 12.2667 12.2417 12.2667C13.025 12.2667 13.7583 12.5667 14.3083 13.125C14.8583 13.6667 15.1583 14.4 15.1583 15.1833H16.825C16.8257 14.7689 16.9145 14.3593 17.0857 13.9818C17.2569 13.6044 17.5065 13.2677 17.8178 12.9942C18.1292 12.7206 18.4952 12.5165 18.8916 12.3954C19.288 12.2743 19.7056 12.2389 20.1167 12.2917C20.225 12.325 20.375 12.35 20.5417 12.3833C20.5667 12.3833 20.6 12.4 20.625 12.4083C20.7 12.4333 20.775 12.45 20.8417 12.4833C20.8917 12.5 20.9333 12.525 20.9833 12.55C21.05 12.5833 21.1167 12.6083 21.1833 12.65C21.2333 12.675 21.275 12.7083 21.3167 12.7333C21.375 12.775 21.4333 12.8083 21.4917 12.85C21.5333 12.8833 21.575 12.9167 21.6167 12.9583L21.775 13.0917C21.8167 13.1333 21.85 13.175 21.8833 13.2167C21.9333 13.2667 21.9833 13.3167 22.025 13.375C22.0583 13.4167 22.0917 13.4667 22.1167 13.5083C22.1583 13.5583 22.1917 13.6167 22.225 13.675C22.5083 14.4167 22.6583 15.2083 22.6583 16.025C22.6583 19.7 19.6667 22.6917 15.9917 22.6917C12.3167 22.6917 9.325 19.7 9.325 16.025L9.33333 16Z" fill="#F4B400"/>
</svg>
