<svg width="32" height="32" viewBox="0 0 32 32" fill="none" xmlns="http://www.w3.org/2000/svg">
<rect width="32" height="32" rx="6" fill="#E2F0FD"/>
<g clip-path="url(#clip0_365_30661)">
<path d="M12.136 15.2788C11.537 15.2788 11.0496 15.7741 11.0496 16.3858C11.0496 16.9973 11.537 17.4931 12.136 17.4931C12.7357 17.4931 13.2231 16.9973 13.2232 16.3858C13.2232 15.7741 12.7358 15.2788 12.136 15.2788Z" fill="#5899DA"/>
<path d="M24.083 11.8571C24.7496 11.1557 25.182 10.5236 25.3681 9.97844C26.0305 8.03914 24.3907 6.51938 24.3205 6.45559L23.8193 6L20.8624 9.51246C19.4627 8.59414 17.7924 8.05953 16 8.05953C14.2076 8.05953 12.5373 8.59414 11.1376 9.51246L8.18066 6L7.67945 6.45562C7.60933 6.51934 5.96957 8.03914 6.63191 9.97848C6.93488 10.8656 7.8434 11.8168 8.39847 12.3385C7.56156 13.7043 7.07801 15.3112 7.07801 17.0298C7.07801 21.976 11.0804 26 16 26C20.9195 26 24.922 21.976 24.922 17.0298C24.922 15.3107 24.438 13.7031 23.6006 12.337C23.743 12.2027 23.9095 12.0397 24.083 11.8571ZM19.8636 20.1199C19.0923 20.1199 18.3829 19.8148 17.8221 19.3061C17.607 20.1819 16.9064 21.5504 16.575 22.17L16 23.245L15.425 22.17C15.0935 21.5504 14.3929 20.1819 14.1778 19.3061C13.6171 19.8148 12.9077 20.1199 12.1364 20.1199C10.327 20.1199 8.855 18.4448 8.855 16.3859C8.855 14.327 10.327 12.652 12.1364 12.652C13.9457 12.652 15.4177 14.327 15.4177 16.3859C15.4177 16.626 15.397 16.8606 15.3587 17.0882C15.559 17.0153 15.7749 16.9754 16 16.9754C16.2251 16.9754 16.441 17.0153 16.6413 17.0882C16.6031 16.8606 16.5823 16.6261 16.5823 16.3859C16.5823 14.3271 18.0543 12.652 19.8636 12.652C21.673 12.652 23.145 14.327 23.145 16.3859C23.145 18.4448 21.673 20.1199 19.8636 20.1199Z" fill="#5899DA"/>
<path d="M19.8633 15.2788C19.2643 15.2788 18.7768 15.7741 18.7768 16.3858C18.7768 16.9973 19.2643 17.4931 19.8633 17.4931C20.4631 17.4931 20.9504 16.9973 20.9504 16.3858C20.9504 15.7741 20.4631 15.2788 19.8633 15.2788Z" fill="#5899DA"/>
</g>
<defs>
<clipPath id="clip0_365_30661">
<rect width="20" height="20" fill="white" transform="translate(6 6)"/>
</clipPath>
</defs>
</svg>
