<svg width="16" height="16" viewBox="0 0 16 16" fill="none" xmlns="http://www.w3.org/2000/svg">
<rect width="16" height="16" rx="4" fill="#DAFBF0"/>
<path d="M8 3.20001C8.33188 3.20001 8.6 3.46814 8.6 3.80001V5.00001H10.85C11.5963 5.00001 12.2 5.60376 12.2 6.35001V11.45C12.2 12.1963 11.5963 12.8 10.85 12.8H5.15C4.40375 12.8 3.8 12.1963 3.8 11.45V6.35001C3.8 5.60376 4.40375 5.00001 5.15 5.00001H7.4V3.80001C7.4 3.46814 7.66813 3.20001 8 3.20001ZM5.9 10.4C5.735 10.4 5.6 10.535 5.6 10.7C5.6 10.865 5.735 11 5.9 11H6.5C6.665 11 6.8 10.865 6.8 10.7C6.8 10.535 6.665 10.4 6.5 10.4H5.9ZM7.7 10.4C7.535 10.4 7.4 10.535 7.4 10.7C7.4 10.865 7.535 11 7.7 11H8.3C8.465 11 8.6 10.865 8.6 10.7C8.6 10.535 8.465 10.4 8.3 10.4H7.7ZM9.5 10.4C9.335 10.4 9.2 10.535 9.2 10.7C9.2 10.865 9.335 11 9.5 11H10.1C10.265 11 10.4 10.865 10.4 10.7C10.4 10.535 10.265 10.4 10.1 10.4H9.5ZM6.95 8.00001C6.95 7.8011 6.87098 7.61033 6.73033 7.46968C6.58968 7.32903 6.39891 7.25001 6.2 7.25001C6.00109 7.25001 5.81032 7.32903 5.66967 7.46968C5.52902 7.61033 5.45 7.8011 5.45 8.00001C5.45 8.19892 5.52902 8.38969 5.66967 8.53034C5.81032 8.67099 6.00109 8.75001 6.2 8.75001C6.39891 8.75001 6.58968 8.67099 6.73033 8.53034C6.87098 8.38969 6.95 8.19892 6.95 8.00001ZM9.8 8.75001C9.99891 8.75001 10.1897 8.67099 10.3303 8.53034C10.471 8.38969 10.55 8.19892 10.55 8.00001C10.55 7.8011 10.471 7.61033 10.3303 7.46968C10.1897 7.32903 9.99891 7.25001 9.8 7.25001C9.60109 7.25001 9.41032 7.32903 9.26967 7.46968C9.12902 7.61033 9.05 7.8011 9.05 8.00001C9.05 8.19892 9.12902 8.38969 9.26967 8.53034C9.41032 8.67099 9.60109 8.75001 9.8 8.75001ZM2.9 7.40001H3.2V11H2.9C2.40313 11 2 10.5969 2 10.1V8.30001C2 7.80314 2.40313 7.40001 2.9 7.40001ZM13.1 7.40001C13.5969 7.40001 14 7.80314 14 8.30001V10.1C14 10.5969 13.5969 11 13.1 11H12.8V7.40001H13.1Z" fill="#19A979"/>
</svg>
