<svg width="16" height="16" viewBox="0 0 16 16" fill="none" xmlns="http://www.w3.org/2000/svg">
<rect width="16" height="16" rx="4" fill="#FEF0C8"/>
<path d="M8.75 3.73172C8.75 3.94831 8.6535 4.14294 8.5 4.27709V5.19513H11C11.3978 5.19513 11.7794 5.34932 12.0607 5.62376C12.342 5.8982 12.5 6.27043 12.5 6.65855V11.5366C12.5 11.9247 12.342 12.2969 12.0607 12.5714C11.7794 12.8458 11.3978 13 11 13H5C4.60218 13 4.22064 12.8458 3.93934 12.5714C3.65804 12.2969 3.5 11.9247 3.5 11.5366V6.65855C3.5 6.27043 3.65804 5.8982 3.93934 5.62376C4.22064 5.34932 4.60218 5.19513 5 5.19513H7.5V4.27709C7.40675 4.19572 7.33585 4.09288 7.29375 3.97795C7.25164 3.86302 7.23968 3.73963 7.25895 3.61903C7.27821 3.49843 7.32809 3.38445 7.40405 3.28747C7.48 3.19048 7.57962 3.11358 7.69382 3.06375C7.80803 3.01392 7.93319 2.99276 8.05793 3.00219C8.18266 3.01161 8.30299 3.05133 8.40797 3.11772C8.51295 3.18412 8.59923 3.27507 8.65897 3.38231C8.71871 3.48955 8.75 3.60967 8.75 3.73172ZM2 7.63416H3V10.561H2V7.63416ZM14 7.63416H13V10.561H14V7.63416ZM6.5 9.82927C6.69891 9.82927 6.88968 9.75218 7.03033 9.61496C7.17098 9.47774 7.25 9.29163 7.25 9.09757C7.25 8.90351 7.17098 8.71739 7.03033 8.58017C6.88968 8.44295 6.69891 8.36586 6.5 8.36586C6.30109 8.36586 6.11032 8.44295 5.96967 8.58017C5.82902 8.71739 5.75 8.90351 5.75 9.09757C5.75 9.29163 5.82902 9.47774 5.96967 9.61496C6.11032 9.75218 6.30109 9.82927 6.5 9.82927ZM10.25 9.09757C10.25 8.90351 10.171 8.71739 10.0303 8.58017C9.88968 8.44295 9.69891 8.36586 9.5 8.36586C9.30109 8.36586 9.11032 8.44295 8.96967 8.58017C8.82902 8.71739 8.75 8.90351 8.75 9.09757C8.75 9.29163 8.82902 9.47774 8.96967 9.61496C9.11032 9.75218 9.30109 9.82927 9.5 9.82927C9.69891 9.82927 9.88968 9.75218 10.0303 9.61496C10.171 9.47774 10.25 9.29163 10.25 9.09757Z" fill="#F4B400"/>
</svg>
