<svg width="16" height="16" viewBox="0 0 16 16" fill="none" xmlns="http://www.w3.org/2000/svg">
<rect width="16" height="16" rx="4" fill="#EFE2FD"/>
<path d="M8 3.5C7.85082 3.5 7.70774 3.55926 7.60225 3.66475C7.49676 3.77024 7.4375 3.91332 7.4375 4.0625V5.75H6.125C5.59301 5.74868 5.07787 5.93653 4.67161 6.28001C4.26535 6.62348 3.99443 7.1002 3.90725 7.625H3.875C3.26 7.625 2.75 8.135 2.75 8.75V9.5C2.75 10.115 3.26 10.625 3.875 10.625H3.90725C3.99443 11.1498 4.26535 11.6265 4.67161 11.97C5.07787 12.3135 5.59301 12.5013 6.125 12.5H9.875C10.407 12.5013 10.9221 12.3135 11.3284 11.97C11.7347 11.6265 12.0056 11.1498 12.0927 10.625H12.125C12.74 10.625 13.25 10.115 13.25 9.5V8.75C13.25 8.135 12.74 7.625 12.125 7.625H12.0927C12.0056 7.1002 11.7347 6.62348 11.3284 6.28001C10.9221 5.93653 10.407 5.74868 9.875 5.75H8.5625V4.0625C8.5625 3.91332 8.50324 3.77024 8.39775 3.66475C8.29226 3.55926 8.14918 3.5 8 3.5ZM6.5 7.0625C7.0145 7.0625 7.4375 7.4855 7.4375 8C7.4375 8.5145 7.0145 8.9375 6.5 8.9375C5.9855 8.9375 5.5625 8.5145 5.5625 8C5.5625 7.4855 5.9855 7.0625 6.5 7.0625ZM9.5 7.0625C10.0145 7.0625 10.4375 7.4855 10.4375 8C10.4375 8.5145 10.0145 8.9375 9.5 8.9375C8.9855 8.9375 8.5625 8.5145 8.5625 8C8.5625 7.4855 8.9855 7.0625 9.5 7.0625ZM6.125 10.0625H9.875C10.0242 10.0625 10.1673 10.1218 10.2727 10.2273C10.3782 10.3327 10.4375 10.4758 10.4375 10.625C10.4375 10.7742 10.3782 10.9173 10.2727 11.0227C10.1673 11.1282 10.0242 11.1875 9.875 11.1875H6.125C5.97582 11.1875 5.83274 11.1282 5.72725 11.0227C5.62176 10.9173 5.5625 10.7742 5.5625 10.625C5.5625 10.4758 5.62176 10.3327 5.72725 10.2273C5.83274 10.1218 5.97582 10.0625 6.125 10.0625Z" fill="#945FCF"/>
</svg>
