<svg width="16" height="16" viewBox="0 0 16 16" fill="none" xmlns="http://www.w3.org/2000/svg">
<rect width="16" height="16" rx="4" fill="#FFD2D2"/>
<path d="M8 3.125C7.70204 3.12632 7.41665 3.24526 7.20596 3.45596C6.99526 3.66665 6.87632 3.95204 6.875 4.25C6.875 4.7355 7.19 5.1535 7.625 5.31V5.875H6.125C5.59364 5.87612 5.07975 6.06484 4.67395 6.40788C4.26816 6.75092 3.99654 7.22624 3.907 7.75H3.875C3.57704 7.75132 3.29165 7.87026 3.08096 8.08096C2.87026 8.29165 2.75132 8.57704 2.75 8.875V9.875C2.75132 10.173 2.87026 10.4583 3.08096 10.669C3.29165 10.8797 3.57704 10.9987 3.875 11H3.907C3.99654 11.5238 4.26816 11.9991 4.67395 12.3421C5.07975 12.6852 5.59364 12.8739 6.125 12.875H9.875C10.4064 12.8739 10.9203 12.6852 11.326 12.3421C11.7318 11.9991 12.0035 11.5238 12.093 11H12.125C12.423 10.9987 12.7083 10.8797 12.919 10.669C13.1297 10.4583 13.2487 10.173 13.25 9.875V8.875C13.2487 8.57704 13.1297 8.29165 12.919 8.08096C12.7083 7.87026 12.423 7.75132 12.125 7.75H12.093C12.0035 7.22624 11.7318 6.75092 11.326 6.40788C10.9203 6.06484 10.4064 5.87612 9.875 5.875H8.375V5.31C8.59363 5.23155 8.78285 5.08778 8.91701 4.89816C9.05117 4.70855 9.12378 4.48227 9.125 4.25C9.12368 3.95204 9.00474 3.66665 8.79404 3.45596C8.58335 3.24526 8.29796 3.12632 8 3.125ZM6.625 7.5C7.104 7.5 7.5 7.896 7.5 8.375C7.5 8.854 7.104 9.25 6.625 9.25C6.146 9.25 5.75 8.854 5.75 8.375C5.75 7.896 6.146 7.5 6.625 7.5ZM9.375 7.5C9.854 7.5 10.25 7.896 10.25 8.375C10.25 8.854 9.854 9.25 9.375 9.25C8.896 9.25 8.5 8.854 8.5 8.375C8.5 7.896 8.896 7.5 9.375 7.5ZM6.125 10.5H9.875C10.083 10.5 10.25 10.667 10.25 10.875C10.25 11.083 10.083 11.25 9.875 11.25H6.125C6.02554 11.25 5.93016 11.2105 5.85983 11.1402C5.78951 11.0698 5.75 10.9745 5.75 10.875C5.75 10.667 5.9175 10.5 6.125 10.5Z" fill="#EF6868"/>
</svg>
