<svg width="16" height="16" viewBox="0 0 16 16" fill="none" xmlns="http://www.w3.org/2000/svg">
<rect width="16" height="16" rx="4" fill="#FDE2F6"/>
<g clip-path="url(#clip0_365_30575)">
<path d="M6 8.79999C6 8.69391 6.04214 8.59217 6.11716 8.51715C6.19217 8.44214 6.29391 8.39999 6.4 8.39999C6.50609 8.39999 6.60783 8.44214 6.68284 8.51715C6.75786 8.59217 6.8 8.69391 6.8 8.79999C6.8 8.90608 6.75786 9.00782 6.68284 9.08284C6.60783 9.15785 6.50609 9.19999 6.4 9.19999C6.29391 9.19999 6.19217 9.15785 6.11716 9.08284C6.04214 9.00782 6 8.90608 6 8.79999ZM9.2 8.79999C9.2 8.69391 9.24214 8.59217 9.31716 8.51715C9.39217 8.44214 9.49391 8.39999 9.6 8.39999C9.70609 8.39999 9.80783 8.44214 9.88284 8.51715C9.95786 8.59217 10 8.69391 10 8.79999C10 8.90608 9.95786 9.00782 9.88284 9.08284C9.80783 9.15785 9.70609 9.19999 9.6 9.19999C9.49391 9.19999 9.39217 9.15785 9.31716 9.08284C9.24214 9.00782 9.2 8.90608 9.2 8.79999Z" fill="#BF399E"/>
<path fill-rule="evenodd" clip-rule="evenodd" d="M8.4 3.6176C9.49327 3.7174 10.5097 4.22229 11.2498 5.03313C11.9899 5.84397 12.4002 6.90219 12.4 8V12.8C12.4 13.1183 12.2736 13.4235 12.0485 13.6485C11.8235 13.8736 11.5183 14 11.2 14H4.8C4.48174 14 4.17651 13.8736 3.95147 13.6485C3.72643 13.4235 3.6 13.1183 3.6 12.8V8C3.59984 6.90219 4.01009 5.84397 4.75017 5.03313C5.49026 4.22229 6.50673 3.7174 7.6 3.6176V2H8.4V3.6176ZM6.4 7.6C6.08174 7.6 5.77651 7.72643 5.55147 7.95147C5.32643 8.17652 5.2 8.48174 5.2 8.8C5.2 9.11826 5.32643 9.42348 5.55147 9.64853C5.77651 9.87357 6.08174 10 6.4 10C6.71826 10 7.02348 9.87357 7.24853 9.64853C7.47357 9.42348 7.6 9.11826 7.6 8.8C7.6 8.48174 7.47357 8.17652 7.24853 7.95147C7.02348 7.72643 6.71826 7.6 6.4 7.6ZM9.6 7.6C9.28174 7.6 8.97651 7.72643 8.75147 7.95147C8.52643 8.17652 8.4 8.48174 8.4 8.8C8.4 9.11826 8.52643 9.42348 8.75147 9.64853C8.97651 9.87357 9.28174 10 9.6 10C9.91826 10 10.2235 9.87357 10.4485 9.64853C10.6736 9.42348 10.8 9.11826 10.8 8.8C10.8 8.48174 10.6736 8.17652 10.4485 7.95147C10.2235 7.72643 9.91826 7.6 9.6 7.6ZM10.8 11.6H5.2V10.8H10.8V11.6Z" fill="#BF399E"/>
<path d="M2 8.39999V11.6H2.8V8.39999H2ZM14 8.39999H13.2V11.6H14V8.39999Z" fill="#BF399E"/>
</g>
<defs>
<clipPath id="clip0_365_30575">
<rect width="12" height="12" fill="white" transform="translate(2 2)"/>
</clipPath>
</defs>
</svg>
