<svg width="16" height="16" viewBox="0 0 16 16" fill="none" xmlns="http://www.w3.org/2000/svg">
<rect width="16" height="16" rx="4" fill="#E5E5FE"/>
<path d="M8 3C8.26522 3 8.51957 3.10536 8.70711 3.29289C8.89464 3.48043 9 3.73478 9 4C9 4.37 8.8 4.695 8.5 4.865V5.5H9C9.92826 5.5 10.8185 5.86875 11.4749 6.52513C12.1313 7.1815 12.5 8.07174 12.5 9H13C13.1326 9 13.2598 9.05268 13.3536 9.14645C13.4473 9.24021 13.5 9.36739 13.5 9.5V11C13.5 11.1326 13.4473 11.2598 13.3536 11.3536C13.2598 11.4473 13.1326 11.5 13 11.5H12.5V12C12.5 12.2652 12.3946 12.5196 12.2071 12.7071C12.0196 12.8946 11.7652 13 11.5 13H4.5C4.23478 13 3.98043 12.8946 3.79289 12.7071C3.60536 12.5196 3.5 12.2652 3.5 12V11.5H3C2.86739 11.5 2.74021 11.4473 2.64645 11.3536C2.55268 11.2598 2.5 11.1326 2.5 11V9.5C2.5 9.36739 2.55268 9.24021 2.64645 9.14645C2.74021 9.05268 2.86739 9 3 9H3.5C3.5 8.07174 3.86875 7.1815 4.52513 6.52513C5.1815 5.86875 6.07174 5.5 7 5.5H7.5V4.865C7.2 4.695 7 4.37 7 4C7 3.73478 7.10536 3.48043 7.29289 3.29289C7.48043 3.10536 7.73478 3 8 3ZM5.75 8.5C5.41848 8.5 5.10054 8.6317 4.86612 8.86612C4.6317 9.10054 4.5 9.41848 4.5 9.75C4.5 10.0815 4.6317 10.3995 4.86612 10.6339C5.10054 10.8683 5.41848 11 5.75 11C6.08152 11 6.39946 10.8683 6.63388 10.6339C6.8683 10.3995 7 10.0815 7 9.75C7 9.41848 6.8683 9.10054 6.63388 8.86612C6.39946 8.6317 6.08152 8.5 5.75 8.5ZM10.25 8.5C9.91848 8.5 9.60054 8.6317 9.36612 8.86612C9.1317 9.10054 9 9.41848 9 9.75C9 10.0815 9.1317 10.3995 9.36612 10.6339C9.60054 10.8683 9.91848 11 10.25 11C10.5815 11 10.8995 10.8683 11.1339 10.6339C11.3683 10.3995 11.5 10.0815 11.5 9.75C11.5 9.41848 11.3683 9.10054 11.1339 8.86612C10.8995 8.6317 10.5815 8.5 10.25 8.5Z" fill="#5155F5"/>
</svg>
