<svg width="16" height="16" viewBox="0 0 16 16" fill="none" xmlns="http://www.w3.org/2000/svg">
<rect width="16" height="16" rx="4" fill="#FDE2EA"/>
<path d="M13 8.99999H12.5C12.5 7.06499 10.935 5.49999 9 5.49999H8.5V4.86499C8.65206 4.7772 8.77832 4.65092 8.86609 4.49885C8.95386 4.34678 9.00004 4.17429 9 3.99871C8.99995 3.82313 8.95368 3.65065 8.86583 3.49863C8.77798 3.34661 8.65166 3.22039 8.49956 3.13268C8.34745 3.04497 8.17494 2.99885 7.99936 2.99896C7.82378 2.99908 7.65132 3.04541 7.49933 3.13332C7.34734 3.22123 7.22118 3.3476 7.13353 3.49974C7.04587 3.65187 6.99982 3.82441 7 3.99999C7 4.36999 7.2 4.69499 7.5 4.86499V5.49999H7C5.065 5.49999 3.5 7.06499 3.5 8.99999H3C2.725 8.99999 2.5 9.22499 2.5 9.49999V11C2.5 11.275 2.725 11.5 3 11.5H3.5V12C3.5 12.2652 3.60536 12.5196 3.79289 12.7071C3.98043 12.8946 4.23478 13 4.5 13H11.5C12.055 13 12.5 12.555 12.5 12V11.5H13C13.275 11.5 13.5 11.275 13.5 11V9.49999C13.5 9.22499 13.275 8.99999 13 8.99999ZM6.895 10.25C6.7 9.80999 6.265 9.49999 5.75 9.49999C5.235 9.49999 4.8 9.80999 4.605 10.25C4.54 10.095 4.5 9.92999 4.5 9.74999C4.5 9.41847 4.6317 9.10052 4.86612 8.8661C5.10054 8.63168 5.41848 8.49999 5.75 8.49999C6.08152 8.49999 6.39946 8.63168 6.63388 8.8661C6.8683 9.10052 7 9.41847 7 9.74999C7 9.92999 6.96 10.095 6.895 10.25ZM11.395 10.25C11.2 9.80999 10.75 9.49999 10.25 9.49999C9.75 9.49999 9.3 9.80999 9.105 10.25C9.04 10.095 9 9.92999 9 9.74999C9 9.41847 9.1317 9.10052 9.36612 8.8661C9.60054 8.63168 9.91848 8.49999 10.25 8.49999C10.5815 8.49999 10.8995 8.63168 11.1339 8.8661C11.3683 9.10052 11.5 9.41847 11.5 9.74999C11.5 9.92999 11.46 10.095 11.395 10.25Z" fill="#ED4A7B"/>
</svg>
