<svg width="16" height="16" viewBox="0 0 16 16" fill="none" xmlns="http://www.w3.org/2000/svg">
<rect width="16" height="16" rx="4" fill="#CDF5F9"/>
<path d="M13.039 6.1735C12.97 6.10271 12.8869 6.04733 12.795 6.011V4.3235C12.795 4.22842 12.7572 4.13723 12.69 4.07C12.6228 4.00277 12.5316 3.965 12.4365 3.965C12.3414 3.965 12.2502 4.00277 12.183 4.07C12.1158 4.13723 12.078 4.22842 12.078 4.3235V5.925H11.973C11.805 5.35913 11.4587 4.86265 10.9857 4.50949C10.5127 4.15632 9.93829 3.96535 9.348 3.965H6.7135C6.12321 3.96535 5.54881 4.15632 5.07582 4.50949C4.60283 4.86265 4.25654 5.35913 4.0885 5.925H3.95V4.3235C3.95 4.22842 3.91223 4.13723 3.845 4.07C3.77777 4.00277 3.68658 3.965 3.5915 3.965C3.49642 3.965 3.40523 4.00277 3.338 4.07C3.27077 4.13723 3.233 4.22842 3.233 4.3235V6.016C3.14556 6.05317 3.06599 6.10662 2.9985 6.1735C2.83983 6.33395 2.75058 6.55034 2.75 6.776V9.224C2.74987 9.33579 2.77179 9.44651 2.81451 9.54982C2.85723 9.65312 2.91991 9.74699 2.99896 9.82604C3.07801 9.90509 3.17187 9.96777 3.27518 10.0105C3.37849 10.0532 3.48921 10.0751 3.601 10.075H4.079C4.24704 10.6409 4.59333 11.1373 5.06632 11.4905C5.53931 11.8437 6.11371 12.0346 6.704 12.035H9.2955C9.88579 12.0346 10.4602 11.8437 10.9332 11.4905C11.4062 11.1373 11.7525 10.6409 11.9205 10.075H12.398C12.5098 10.0751 12.6205 10.0532 12.7238 10.0105C12.8271 9.96777 12.921 9.90509 13 9.82604C13.0791 9.74699 13.1418 9.65312 13.1845 9.54982C13.2272 9.44651 13.2491 9.33579 13.249 9.224V6.776C13.259 6.556 13.1835 6.34 13.039 6.1735ZM3.998 9.358H3.62C3.58433 9.35828 3.55 9.34444 3.5245 9.3195C3.50098 9.29313 3.48753 9.25931 3.4865 9.224V6.776C3.48541 6.74185 3.49781 6.70864 3.52102 6.68357C3.54423 6.65849 3.57637 6.64356 3.6105 6.642H3.998C3.99582 6.66277 3.99582 6.68372 3.998 6.7045V9.2955C3.99582 9.31627 3.99582 9.33722 3.998 9.358ZM10.443 8.722C10.4418 9.1706 10.263 9.60048 9.94579 9.91764C9.62853 10.2348 9.1986 10.4134 8.75 10.4145H7.316C6.86749 10.4133 6.43768 10.2346 6.12053 9.91746C5.80339 9.60031 5.62469 9.17051 5.6235 8.722V7.2875C5.62482 6.83902 5.80356 6.40929 6.12068 6.09218C6.4378 5.77506 6.86753 5.59632 7.316 5.595H8.75C9.19847 5.59632 9.6282 5.77506 9.94532 6.09218C10.2624 6.40929 10.4412 6.83902 10.4425 7.2875L10.443 8.722ZM12.5705 9.2C12.5693 9.23537 12.5557 9.2692 12.532 9.2955C12.5065 9.32044 12.4722 9.33428 12.4365 9.334H12.0585C12.0606 9.31339 12.0606 9.29261 12.0585 9.272V6.685C12.0606 6.66438 12.0606 6.64361 12.0585 6.623H12.441C12.458 6.62289 12.4748 6.62625 12.4905 6.63287C12.5061 6.63949 12.5202 6.64923 12.532 6.6615C12.556 6.6875 12.57 6.7215 12.57 6.7565L12.5705 9.2Z" fill="#12A4B4"/>
<path d="M8.75 6.30251H7.3065C7.17838 6.30244 7.0515 6.32763 6.93311 6.37663C6.81473 6.42563 6.70717 6.49748 6.61657 6.58808C6.52597 6.67867 6.45412 6.78624 6.40512 6.90462C6.35612 7.023 6.33093 7.14988 6.331 7.27801V8.72201C6.331 8.98059 6.43372 9.22859 6.61657 9.41144C6.79942 9.59428 7.04741 9.69701 7.306 9.69701H8.75C8.87808 9.69707 9.00492 9.6719 9.12327 9.62293C9.24162 9.57396 9.34916 9.50216 9.43975 9.41161C9.53034 9.32107 9.60221 9.21356 9.65123 9.09524C9.70026 8.97691 9.7255 8.85009 9.7255 8.72201V7.27801C9.7255 7.01942 9.62278 6.77142 9.43993 6.58858C9.25708 6.40573 9.00909 6.30301 8.7505 6.30301" fill="#12A4B4"/>
</svg>
