<svg width="16" height="16" viewBox="0 0 16 16" fill="none" xmlns="http://www.w3.org/2000/svg">
<rect width="16" height="16" rx="4" fill="#E2F0FD"/>
<path d="M11.9844 2.75H4.01562C3.8082 2.75 3.64062 2.91758 3.64062 3.125V10.8594C3.64062 11.0668 3.8082 11.2344 4.01562 11.2344H11.9844C12.1918 11.2344 12.3594 11.0668 12.3594 10.8594V3.125C12.3594 2.91758 12.1918 2.75 11.9844 2.75ZM5.51562 5.84375C5.51562 5.45586 5.83086 5.14062 6.21875 5.14062C6.60664 5.14062 6.92188 5.45586 6.92188 5.84375C6.92188 6.23164 6.60664 6.54688 6.21875 6.54688C5.83086 6.54688 5.51562 6.23164 5.51562 5.84375ZM9.875 8.75C9.875 8.80156 9.83281 8.84375 9.78125 8.84375H6.21875C6.16719 8.84375 6.125 8.80156 6.125 8.75V8.04688C6.125 7.99531 6.16719 7.95312 6.21875 7.95312H9.78125C9.83281 7.95312 9.875 7.99531 9.875 8.04688V8.75ZM9.78125 6.54688C9.39336 6.54688 9.07812 6.23164 9.07812 5.84375C9.07812 5.45586 9.39336 5.14062 9.78125 5.14062C10.1691 5.14062 10.4844 5.45586 10.4844 5.84375C10.4844 6.23164 10.1691 6.54688 9.78125 6.54688ZM11.3633 12.125H4.63672C4.475 12.125 4.34375 12.2926 4.34375 12.5V13.1562C4.34375 13.2078 4.37656 13.25 4.41641 13.25H11.5824C11.6223 13.25 11.6551 13.2078 11.6551 13.1562V12.5C11.6562 12.2926 11.525 12.125 11.3633 12.125Z" fill="#5899DA"/>
</svg>
