<svg width="16" height="16" viewBox="0 0 16 16" fill="none" xmlns="http://www.w3.org/2000/svg">
<rect width="16" height="16" rx="4" fill="#FEE8D7"/>
<path d="M7.2065 7.7065C7.40217 7.5105 7.5 7.275 7.5 7C7.5 6.725 7.40217 6.48967 7.2065 6.294C7.01083 6.09833 6.77533 6.00033 6.5 6C6.22467 5.99967 5.98933 6.09767 5.794 6.294C5.59867 6.49033 5.50067 6.72567 5.5 7C5.49933 7.27433 5.59733 7.50983 5.794 7.7065C5.99067 7.90317 6.226 8.001 6.5 8C6.774 7.999 7.0095 7.90117 7.2065 7.7065ZM10.2065 7.7065C10.4022 7.5105 10.5 7.275 10.5 7C10.5 6.725 10.4022 6.48967 10.2065 6.294C10.0108 6.09833 9.77533 6.00033 9.5 6C9.22467 5.99967 8.98933 6.09767 8.794 6.294C8.59867 6.49033 8.50067 6.72567 8.5 7C8.49933 7.27433 8.59733 7.50983 8.794 7.7065C8.99067 7.90317 9.226 8.001 9.5 8C9.774 7.999 10.0095 7.90117 10.2065 7.7065ZM6.5 12.5V10.5H7.5V12.5H6.5ZM8.5 12.5V10.5H9.5V12.5H8.5ZM4.5 12.5C4.225 12.5 3.98967 12.4022 3.794 12.2065C3.59833 12.0108 3.50033 11.7753 3.5 11.5V6.5C3.5 5.66667 3.79167 4.95833 4.375 4.375C4.95833 3.79167 5.66667 3.5 6.5 3.5H9.5C10.3333 3.5 11.0417 3.79167 11.625 4.375C12.2083 4.95833 12.5 5.66667 12.5 6.5V11.5C12.5 11.775 12.4022 12.0105 12.2065 12.2065C12.0108 12.4025 11.7753 12.5003 11.5 12.5H10.5V10.5C10.5 10.225 10.4022 9.98967 10.2065 9.794C10.0108 9.59833 9.77533 9.50033 9.5 9.5H6.5C6.225 9.5 5.98967 9.598 5.794 9.794C5.59833 9.99 5.50033 10.2253 5.5 10.5V12.5H4.5Z" fill="#FB9341"/>
</svg>
