<svg width="87" height="72" viewBox="0 0 87 72" fill="none" xmlns="http://www.w3.org/2000/svg">
<path d="M86.3082 0.206112C86.3777 0.971041 86.3836 1.38401 85.9639 2.04064C85.7174 2.31928 85.7174 2.31928 85.4658 2.60355C84.4989 3.7523 83.6193 4.93568 82.7606 6.16732C81.6663 7.73188 80.5609 9.28713 79.4398 10.8326C78.3494 12.3373 77.2689 13.8482 76.2 15.3683C74.9919 17.0865 73.7664 18.7914 72.534 20.4922C71.5866 21.8014 70.65 23.1178 69.7205 24.4397C68.6516 25.9598 67.571 27.4707 66.4807 28.9754C64.8633 31.2083 63.2715 33.4586 61.6858 35.7142C59.9625 38.1654 58.2286 40.6078 56.4699 43.0337C55.3393 44.5952 54.2257 46.1681 53.1216 47.7485C52.463 48.6877 51.7883 49.6007 51.0593 50.4876C50.0564 50.3343 49.3187 50.036 48.4381 49.5369C48.1816 49.3925 47.9251 49.2481 47.6608 49.0992C47.3871 48.9426 47.1134 48.7861 46.8314 48.6247C46.548 48.4646 46.2646 48.3045 45.9726 48.1396C44.48 47.2934 42.9965 46.4336 41.5191 45.5611C41.2387 45.3958 40.9584 45.2305 40.6695 45.0601C40.1321 44.7421 39.5957 44.4223 39.0606 44.1005C38.8172 43.956 38.5737 43.8116 38.3229 43.6628C38.1103 43.5352 37.8977 43.4077 37.6787 43.2762C37.0233 42.9514 36.4962 42.7775 35.7675 42.7121C35.1899 43.103 34.7323 43.4718 34.2286 43.9432C33.9308 44.2088 33.6325 44.4737 33.3336 44.738C33.1801 44.875 33.0266 45.012 32.8684 45.1532C31.9682 45.9378 31.0206 46.662 30.0762 47.3921C29.3739 47.9363 28.686 48.4855 28.0102 49.0631C27.785 49.2552 27.5599 49.4473 27.3278 49.6453C27.0387 49.8998 27.0387 49.8998 26.7437 50.1596C26.0108 50.5844 25.6813 50.4243 24.8818 50.2284C24.8333 50.0764 24.7848 49.9244 24.7348 49.7678C24.2221 48.1611 23.7089 46.5545 23.1955 44.9479C23.0049 44.3513 22.8144 43.7547 22.624 43.158C22.5321 42.8702 22.4403 42.5824 22.3457 42.2859C22.2545 41.9999 22.1633 41.7139 22.0693 41.4192C21.8858 40.8466 21.701 40.2744 21.5149 39.7027C21.1007 38.4295 20.698 37.1587 20.3467 35.8665C19.6828 33.3705 19.6828 33.3705 17.9426 31.5389C17.466 31.2958 16.9813 31.068 16.4908 30.8545C15.9528 30.586 15.4152 30.3167 14.878 30.0466C14.6026 29.914 14.3273 29.7815 14.0436 29.6449C12.7086 28.981 11.4369 28.2159 10.157 27.4527C8.6438 26.5612 7.12819 25.6752 5.59577 24.8171C4.96745 24.4653 4.34043 24.1111 3.71338 23.7569C3.26423 23.5047 2.81309 23.2559 2.36193 23.0072C2.09075 22.8539 1.81956 22.7005 1.54016 22.5424C1.29879 22.4081 1.05742 22.2737 0.808735 22.1353C0.259427 21.7183 0.259427 21.7183 0.0497901 21.1484C0.0334399 20.9944 0.0170898 20.8403 0.000244141 20.6816C1.23755 19.7839 2.5866 19.5392 4.04998 19.2075C4.47167 19.1089 4.47167 19.1089 4.90188 19.0084C6.5761 18.6188 8.25287 18.2404 9.92918 17.8599C10.4936 17.7318 11.058 17.6036 11.6224 17.4753C12.0081 17.3877 12.3938 17.3002 12.7795 17.2128C15.7216 16.5455 18.6499 15.834 21.5738 15.0918C24.4247 14.3691 27.2865 13.7102 30.1578 13.0731C32.5566 12.5371 34.9404 11.9556 37.3226 11.351C40.367 10.5782 43.4194 9.86584 46.4861 9.18538C48.8849 8.64936 51.2689 8.06791 53.6511 7.46323C56.6956 6.69047 59.7479 5.97809 62.8146 5.29764C65.3865 4.72293 67.9412 4.09325 70.4952 3.44455C73.4775 2.68805 76.4709 1.99355 79.4758 1.33244C81.1359 0.965418 82.7681 0.570637 84.3913 0.0626633C85.1043 -0.0702355 85.6118 0.0226954 86.3082 0.206112Z" fill="#64748B"/>
<path d="M85.2708 23.2734C84.706 24.456 83.9702 25.4999 83.2298 26.578C83.0043 26.9073 83.0043 26.9073 82.7742 27.2432C81.7029 28.7965 80.5888 30.3103 79.4449 31.8105C78.4483 33.1261 77.5122 34.4765 76.5882 35.8438C75.4269 37.5624 74.2223 39.2336 72.9647 40.8827C71.9684 42.1981 71.0325 43.5481 70.1086 44.9152C68.9473 46.6338 67.7427 48.305 66.4851 49.9541C65.4888 51.2695 64.5529 52.6195 63.6291 53.9866C62.4677 55.7052 61.2631 57.3764 60.0056 59.0255C58.8573 60.5414 57.7915 62.1076 56.7272 63.6831C55.6648 65.2479 54.5499 66.7646 53.4053 68.27C52.4861 69.4815 51.6135 70.7145 50.7995 71.9998C49.1973 71.5778 47.8679 70.7188 46.4582 69.8778C45.8974 69.5469 45.3365 69.2161 44.7755 68.8856C44.4863 68.7147 44.197 68.5438 43.899 68.3677C42.5001 67.5447 41.0937 66.7348 39.687 65.9252C39.1207 65.5989 38.5545 65.2726 37.9882 64.9462C37.7069 64.7842 37.4257 64.6222 37.136 64.4553C35.7289 63.6446 34.3224 62.8329 32.9159 62.0213C32.3543 61.6973 31.7928 61.3733 31.2312 61.0494C27.8618 59.1055 24.4924 57.1616 21.1231 55.2177C20.845 55.0573 20.567 54.897 20.2806 54.7317C19.7194 54.408 19.1583 54.0842 18.5972 53.7604C17.1871 52.9468 15.7768 52.1335 14.3661 51.3209C11.5504 49.6986 8.73678 48.0729 5.92846 46.4379C5.67516 46.2907 5.42187 46.1435 5.1609 45.9919C3.77042 45.1811 2.39647 44.3506 1.03638 43.4897C1.90277 42.9121 2.56791 42.7496 3.5791 42.508C3.75745 42.465 3.9358 42.4219 4.11955 42.3776C4.70866 42.2358 5.29829 42.0963 5.88796 41.9569C6.29759 41.8589 6.70719 41.7609 7.11677 41.6627C7.97497 41.4574 8.83341 41.2532 9.69205 41.0497C10.7932 40.7888 11.8939 40.5257 12.9944 40.2618C13.84 40.0592 14.6858 39.8576 15.5318 39.6562C15.9377 39.5595 16.3436 39.4625 16.7495 39.3654C17.3164 39.2299 17.8835 39.0955 18.4507 38.9615C18.7736 38.8848 19.0964 38.8081 19.429 38.729C20.2159 38.5652 20.2159 38.5652 20.9935 38.5652C21.1218 38.3086 21.1218 38.3086 21.2526 38.0469C22.5356 42.0668 23.8186 46.0867 25.1404 50.2285C26.3821 49.9801 26.6547 49.8873 27.554 49.1269C27.8893 48.8483 27.8893 48.8483 28.2314 48.564C28.3562 48.4589 28.481 48.3539 28.6096 48.2456C29.6105 47.4091 30.6287 46.5932 31.6434 45.7734C32.4281 45.1382 33.2093 44.5017 33.9718 43.84C34.1954 43.6496 34.4189 43.4591 34.6492 43.2629C34.9313 43.0154 34.9313 43.0154 35.2192 42.7628C35.7669 42.453 35.7669 42.453 36.3545 42.5123C37.183 42.7461 37.831 43.095 38.5764 43.5262C38.8707 43.6954 39.165 43.8646 39.4683 44.039C39.623 44.1292 39.7777 44.2193 39.937 44.3122C40.4201 44.5937 40.9047 44.8726 41.3895 45.151C42.9447 46.0467 44.4893 46.957 46.0208 47.8928C46.4082 48.1279 46.4082 48.1279 46.8035 48.3679C47.2873 48.6629 47.7691 48.9613 48.2486 49.2634C48.5726 49.4609 48.5726 49.4609 48.9032 49.6625C49.1821 49.8367 49.1821 49.8367 49.4666 50.0144C50.1965 50.2957 50.5846 50.2249 51.3179 49.9693C51.7163 49.6179 51.7163 49.6179 52.0063 49.1441C52.1844 48.8834 52.1844 48.8834 52.3661 48.6174C52.4906 48.4274 52.6151 48.2374 52.7434 48.0416C53.0191 47.6357 53.2952 47.2301 53.5715 46.8247C53.7837 46.5103 53.7837 46.5103 54.0001 46.1896C54.6731 45.2045 55.3771 44.2427 56.0804 43.2791C57.4312 41.4176 58.7537 39.5375 60.0685 37.6504C61.0843 36.1951 62.116 34.7525 63.1593 33.3168C64.6939 31.2047 66.1787 29.0609 67.6464 26.902C67.8175 26.9875 67.9885 27.0731 68.1648 27.1612C68.6738 27.0814 69.1791 26.9772 69.6814 26.8625C70.1594 26.7543 70.1594 26.7543 70.647 26.6439C70.9967 26.5626 71.3464 26.4813 71.6961 26.3998C72.0539 26.3179 72.4117 26.236 72.7696 26.1543C75.8181 25.453 78.8531 24.6971 81.8829 23.9189C82.2137 23.8345 82.5446 23.7502 82.8855 23.6632C83.1778 23.5879 83.4701 23.5126 83.7712 23.435C84.4933 23.2734 84.4933 23.2734 85.2708 23.2734Z" fill="#373D4D"/>
<path d="M81.6427 4.35352C81.6427 5.48197 80.968 6.09288 80.2982 6.94535C79.0945 8.51044 77.9511 10.1028 76.8479 11.7402C75.6868 13.4589 74.4819 15.13 73.2244 16.7791C72.228 18.0945 71.2921 19.4446 70.3683 20.8116C69.207 22.5302 68.0023 24.2014 66.7448 25.8505C65.7484 27.1659 64.8125 28.516 63.8887 29.883C62.7274 31.6016 61.5228 33.2728 60.2652 34.9219C59.1166 36.4384 58.0504 38.0052 56.9858 39.5812C55.9359 41.1276 54.8335 42.625 53.7014 44.1118C52.5803 45.5904 51.5453 47.1138 50.5408 48.6738C49.5534 48.3047 48.6633 47.8498 47.7495 47.3252C47.458 47.1583 47.1664 46.9914 46.866 46.8194C46.552 46.6384 46.2381 46.4574 45.9241 46.2764C45.6 46.0902 45.2759 45.9042 44.9518 45.7181C41.0079 43.4522 37.0709 41.1734 33.1755 38.8248C33.4903 37.8804 33.7716 37.7431 34.5818 37.1918C34.8232 37.0259 35.0646 36.86 35.3133 36.6891C35.5754 36.5119 35.8375 36.3346 36.1075 36.152C36.6574 35.7752 37.2071 35.3982 37.7568 35.0211C38.0336 34.8322 38.3105 34.6432 38.5957 34.4485C39.7326 33.6698 40.8604 32.8785 41.9878 32.0861C43.8423 30.786 45.7004 29.491 47.5602 28.1983C50.0735 26.4513 52.5824 24.6981 55.089 22.9415C56.1645 22.188 57.2404 21.4351 58.3163 20.682C58.7483 20.3797 59.1802 20.0773 59.6122 19.7749C66.9557 14.6344 74.2992 9.49398 81.6427 4.35352Z" fill="#030712"/>
<path d="M77.4956 3.83446C73.6546 5.70695 69.812 7.57262 65.9296 9.35829C62.8597 10.7713 59.8217 12.2441 56.7861 13.7289C53.9137 15.1332 51.0293 16.5025 48.1239 17.8374C45.5855 19.0088 43.0732 20.2306 40.562 21.4589C37.4504 22.9809 34.3306 24.4769 31.1808 25.9188C29.5485 26.6687 27.9307 27.4419 26.3222 28.2412C25.9516 28.4244 25.581 28.6076 25.2104 28.7908C24.497 29.1435 23.7862 29.5009 23.0764 29.8608C22.7525 30.0213 22.4285 30.1818 22.1044 30.342C21.8207 30.4848 21.5371 30.6276 21.2449 30.7747C20.3765 31.0839 20.0399 31.0907 19.1795 30.7895C18.6779 30.5421 18.186 30.2745 17.7023 29.9937C17.4134 29.8273 17.1245 29.6608 16.8268 29.4893C16.5149 29.3072 16.203 29.125 15.8911 28.9428C15.5688 28.7562 15.2464 28.5699 14.9239 28.3836C14.2567 27.9979 13.59 27.6113 12.9238 27.2238C11.957 26.662 10.9878 26.1045 10.0179 25.5481C9.42158 25.2057 8.82527 24.8631 8.22897 24.5205C7.95344 24.3623 7.67791 24.204 7.39403 24.041C5.94776 23.207 4.51939 22.354 3.11011 21.4589C3.97274 20.9789 4.82393 20.7387 5.77989 20.5001C6.10932 20.4176 6.43875 20.3351 6.77815 20.2501C7.13755 20.1616 7.49696 20.0731 7.8564 19.9848C8.23032 19.892 8.60425 19.7992 8.97817 19.7064C11.7954 19.0106 14.6227 18.3673 17.4556 17.7385C19.855 17.2025 22.2395 16.6209 24.6223 16.0161C27.6668 15.2433 30.7191 14.5309 33.7858 13.8505C36.1846 13.3144 38.5686 12.733 40.9508 12.1283C43.9953 11.3556 47.0477 10.6432 50.1144 9.96272C52.6877 9.38768 55.2437 8.75727 57.7993 8.10858C60.6893 7.37606 63.5888 6.70489 66.4998 6.0613C68.1898 5.68517 69.8733 5.29285 71.5506 4.8641C71.7194 4.82105 71.8883 4.77801 72.0622 4.73365C72.8685 4.52745 73.6738 4.31821 74.4783 4.10522C74.9034 3.99525 74.9034 3.99525 75.3371 3.88305C75.7103 3.78433 75.7103 3.78433 76.0911 3.6836C76.7181 3.57527 76.7181 3.57527 77.4956 3.83446Z" fill="#030712"/>
<path d="M74.9037 6.68555C75.1603 6.81384 75.1603 6.81384 75.4221 6.94473C70.9928 10.0774 66.548 13.1875 62.0934 16.284C59.8331 17.8557 57.5774 19.4338 55.3229 21.0138C54.2474 21.7673 53.1715 22.5202 52.0956 23.2733C51.6636 23.5756 51.2317 23.878 50.7997 24.1804C49.9357 24.7852 49.0718 25.3899 48.2079 25.9947C47.9941 26.1443 47.7803 26.294 47.5601 26.4481C47.1275 26.7509 46.6949 27.0537 46.2623 27.3565C45.1918 28.1058 44.1215 28.8552 43.0515 29.605C40.6957 31.2557 38.3379 32.9034 35.9777 34.5477C35.733 34.7184 35.4883 34.8891 35.2362 35.0649C35.0015 35.2284 34.7667 35.3918 34.5248 35.5601C34.2985 35.7186 34.0722 35.877 33.8391 36.0402C33.4056 36.3349 32.9653 36.62 32.518 36.8934C31.1568 37.7311 30.4413 38.4217 29.8221 39.8934C29.6554 40.256 29.4883 40.6184 29.3209 40.9807C29.2341 41.1739 29.1473 41.3671 29.0578 41.5662C28.5174 42.7408 27.9263 43.8905 27.3436 45.0446C27.1194 45.4927 26.8953 45.9409 26.6714 46.3891C26.5067 46.7185 26.342 47.0479 26.1773 47.3773C26.0063 47.3773 25.8352 47.3773 25.6589 47.3773C25.0769 45.57 24.4959 43.7623 23.9157 41.9544C23.7183 41.34 23.5207 40.7256 23.3229 40.1113C23.0379 39.2262 22.7538 38.3408 22.4698 37.4554C22.3817 37.1827 22.2937 36.9099 22.203 36.6289C21.7488 35.2095 21.3351 33.7954 20.9937 32.3447C24.8347 30.4722 28.6773 28.6065 32.5597 26.8208C35.6294 25.4079 38.6672 23.9352 41.7027 22.4505C44.5874 21.0402 47.4841 19.6646 50.4018 18.3235C52.8402 17.1985 55.2551 16.0283 57.668 14.8498C60.7453 13.347 63.8329 11.8725 66.9443 10.4415C68.336 9.80128 69.7232 9.1544 71.101 8.48464C71.4829 8.29943 71.4829 8.29943 71.8726 8.11048C72.3469 7.8796 72.8203 7.64704 73.2928 7.41254C73.499 7.31229 73.7052 7.21203 73.9176 7.10874C74.0967 7.02025 74.2758 6.93175 74.4604 6.84058C74.6067 6.78942 74.753 6.73826 74.9037 6.68555Z" fill="#CCFE41"/>
<path d="M31.6202 39.8613C32.6028 40.237 33.5349 40.6782 34.4712 41.1572C34.16 42.0908 33.8497 42.2829 33.0781 42.8743C32.0518 43.6722 31.0373 44.4792 30.0327 45.3042C29.7915 45.502 29.5503 45.6997 29.3017 45.9035C29.126 46.0479 28.9503 46.1922 28.7692 46.3409C28.6837 46.1698 28.5981 45.9988 28.51 45.8225C28.7382 45.2444 28.7382 45.2444 29.0992 44.5337C29.2917 44.1521 29.2917 44.1521 29.488 43.7627C29.625 43.4963 29.762 43.2298 29.9031 42.9553C30.0381 42.6879 30.1731 42.4204 30.3121 42.1449C31.3176 40.164 31.3176 40.164 31.6202 39.8613Z" fill="#030712"/>
</svg>
