<svg width="199" height="240" viewBox="0 0 199 240" fill="none" xmlns="http://www.w3.org/2000/svg">
<path d="M177.078 141.099C178.54 141.228 179.354 141.697 180.61 142.451C181.052 142.713 181.494 142.975 181.949 143.245C182.406 143.522 182.864 143.799 183.335 144.085C184.241 144.626 185.147 145.166 186.053 145.706C186.453 145.948 186.853 146.189 187.265 146.438C188.666 147.273 190.084 148.079 191.5 148.888C191.5 154.665 191.5 160.441 191.5 166.392C188.862 166.016 187.818 165.727 185.635 164.46C185.376 164.311 185.117 164.162 184.85 164.008C184.307 163.695 183.766 163.379 183.226 163.062C182.398 162.575 181.568 162.095 180.736 161.617C176.705 159.282 176.705 159.282 175.704 158.281C175.623 157.03 175.594 155.821 175.605 154.57C175.605 154.203 175.606 153.835 175.606 153.457C175.607 152.68 175.61 151.903 175.616 151.126C175.623 149.932 175.624 148.739 175.624 147.545C175.626 146.791 175.629 146.038 175.632 145.284C175.632 144.925 175.633 144.566 175.633 144.195C175.657 141.256 175.657 141.256 177.078 141.099Z" fill="#64748B"/>
<path d="M178.264 144.62C179.321 145.043 179.321 145.043 180.399 145.474C180.907 145.658 180.907 145.658 181.425 145.845C184.254 146.917 187.087 148.121 188.937 150.597C190.017 154.571 189.456 158.943 188.937 162.978C186.263 161.528 183.596 160.067 180.959 158.549C180.07 158.038 179.18 157.528 178.264 157.001C178.264 152.916 178.264 148.83 178.264 144.62Z" fill="#030712"/>
<path d="M171.949 193.018C172.226 193.017 172.504 193.015 172.79 193.014C173.712 193.01 174.634 193.009 175.557 193.009C176.195 193.007 176.834 193.006 177.473 193.004C178.813 193.002 180.154 193.001 181.494 193.001C183.215 193.001 184.935 192.995 186.656 192.988C187.975 192.983 189.295 192.982 190.614 192.983C191.249 192.982 191.883 192.98 192.518 192.977C193.404 192.973 194.29 192.974 195.176 192.977C195.681 192.976 196.186 192.975 196.706 192.975C197.892 193.08 197.892 193.08 198.746 193.934C198.517 195.444 198.517 195.444 197.892 196.069C197.006 196.114 196.119 196.128 195.231 196.131C194.954 196.132 194.676 196.134 194.39 196.135C193.468 196.139 192.546 196.14 191.623 196.141C190.985 196.142 190.346 196.143 189.707 196.145C188.367 196.147 187.026 196.148 185.686 196.148C183.965 196.148 182.245 196.154 180.524 196.161C179.205 196.166 177.885 196.167 176.566 196.166C175.931 196.167 175.297 196.169 174.662 196.172C173.776 196.176 172.89 196.175 172.004 196.173C171.246 196.173 171.246 196.173 170.474 196.174C169.288 196.069 169.288 196.069 168.434 195.215C168.801 192.796 169.656 193.026 171.949 193.018Z" fill="#64748B"/>
<path d="M157.65 205.834C158.172 205.835 158.694 205.836 159.233 205.837C159.664 205.836 159.664 205.836 160.103 205.836C161.058 205.837 162.012 205.84 162.966 205.843C163.625 205.844 164.285 205.845 164.945 205.845C166.685 205.847 168.425 205.851 170.165 205.856C171.939 205.86 173.713 205.862 175.488 205.864C178.971 205.869 182.455 205.876 185.938 205.885C185.956 206.596 185.956 207.308 185.938 208.02C185.511 208.447 185.511 208.447 184.358 208.498C183.843 208.497 183.328 208.496 182.798 208.495C182.515 208.495 182.231 208.495 181.94 208.495C180.999 208.495 180.059 208.492 179.119 208.488C178.469 208.488 177.818 208.487 177.168 208.486C175.453 208.485 173.739 208.481 172.024 208.476C170.276 208.472 168.527 208.47 166.779 208.467C163.346 208.463 159.913 208.456 156.48 208.447C156.317 207.74 156.175 207.027 156.053 206.312C156.48 205.885 156.48 205.885 157.65 205.834Z" fill="#64748B"/>
<path d="M19.2738 0.195253C24.4105 2.27894 26.9393 6.4166 29.0932 11.2955C30.0041 14.0282 30.0162 17.4498 28.8264 20.1009C27.9113 21.6228 26.9681 22.2838 25.2508 22.8226C22.463 23.2434 20.6412 22.2493 18.4199 20.6879C14.9323 18.0026 12.9644 14.1406 11.5891 10.0147C11.1551 4.28818 11.1551 4.28818 12.3362 2.46332C14.5406 0.197633 16.1327 -0.350053 19.2738 0.195253ZM15.0846 3.34387C13.7018 5.23606 13.9483 7.33262 14.1506 9.58773C15.0724 13.4919 17.544 16.6789 20.5813 19.2204C22.0548 19.9415 23.182 20.2306 24.8239 20.261C26.197 19.5383 26.4622 19.1886 26.9586 17.6994C27.601 13.5749 26.128 10.4178 23.97 7.02614C22.3608 5.00701 20.8972 3.58129 18.4199 2.75684C16.6227 2.54896 16.6227 2.54896 15.0846 3.34387Z" fill="#64748B"/>
<path d="M8.55196 52.3021C8.1784 54.3834 8.1784 54.3834 7.6981 54.8637C7.05273 55.0308 6.4025 55.1795 5.75023 55.3173C5.22108 55.4304 5.22108 55.4304 4.68123 55.5458C4.40882 55.6024 4.1364 55.6591 3.85572 55.7175C4.12319 56.0417 4.39065 56.3658 4.66623 56.6998C5.01514 57.1241 5.36406 57.5484 5.72355 57.9856C6.07026 58.4066 6.41697 58.8276 6.7742 59.2614C7.6981 60.4138 7.6981 60.4138 8.55196 61.6946C8.39186 62.8419 8.39186 62.8419 8.12503 63.8292C6.01172 64.0405 6.01172 64.0405 3.85572 64.2561C5.69162 67.0328 5.69162 67.0328 7.64473 69.7262C8.55196 71.087 8.55196 71.087 8.55196 72.7948C7.6812 73.0118 6.80932 73.2244 5.93701 73.4351C5.45161 73.554 4.96621 73.6729 4.4661 73.7954C3.08099 74.0604 1.84567 74.1268 0.440279 74.0755C0.299391 73.3711 0.158504 72.6667 0.0133478 71.9409C1.57097 70.944 2.89984 71.0532 4.70959 71.087C4.00741 70.0994 3.30469 69.1122 2.60162 68.1252C2.30154 67.7029 2.30154 67.7029 1.99541 67.2722C1.07446 65.9203 1.07446 65.9203 0.0133478 64.6831C-0.00400192 63.9717 -0.00489108 63.2597 0.0133478 62.5484C1.66849 62.0391 2.96609 61.6946 4.70959 61.6946C4.36562 61.257 4.02166 60.8195 3.66727 60.3687C3.22277 59.7881 2.77863 59.2071 2.33478 58.626C2.10722 58.3384 1.87965 58.0509 1.64519 57.7546C0.00357297 55.5834 0.00357304 55.5834 0.0550403 54.0415C0.440279 53.1559 0.440278 53.1559 0.867209 52.729C3.44176 52.3077 5.94712 52.254 8.55196 52.3021Z" fill="#64748B"/>
<path d="M23.5503 154.218C24.5293 154.256 24.5293 154.256 25.685 154.645C26.4538 155.901 26.4538 155.901 27.0992 157.447C27.3177 157.958 27.5362 158.469 27.7613 158.996C27.9214 159.392 28.0816 159.787 28.2466 160.195C28.5658 159.799 28.885 159.404 29.2138 158.996C29.6383 158.479 30.063 157.963 30.4879 157.447C30.6976 157.186 30.9073 156.924 31.1233 156.655C31.3297 156.406 31.5361 156.157 31.7487 155.901C32.0304 155.555 32.0304 155.555 32.3178 155.203C33.0684 154.533 33.6702 154.388 34.6505 154.218C35.0024 155.099 35.0024 155.099 35.0775 156.353C34.4803 157.463 33.679 158.385 32.8628 159.341C32.5453 159.728 32.5453 159.728 32.2215 160.122C31.8056 160.627 31.3855 161.129 30.961 161.628C30.4435 162.254 29.9709 162.917 29.5057 163.584C28.6735 164.464 28.6735 164.464 27.5542 164.519C27.2191 164.501 26.884 164.483 26.5388 164.464C25.9529 163.08 25.3777 161.691 24.8044 160.302C24.638 159.909 24.4715 159.516 24.3 159.111C24.1445 158.731 23.989 158.352 23.8288 157.96C23.6835 157.612 23.5382 157.263 23.3885 156.903C23.0951 155.821 23.1804 155.262 23.5503 154.218Z" fill="#64748B"/>
<path d="M163.481 166.598L163.492 165.227C163.498 141.12 163.398 89.6292 162.95 76.5202C162.502 63.4112 153.432 55.5408 148.952 53.2443C136.884 46.2305 111.589 31.4953 106.96 28.6649C101.175 25.127 96.8821 26.4305 94.4559 27.8059C92.5149 28.9063 91.9052 31.6923 91.843 32.9477L91.2831 42.7025L90.35 41.6994L67.1897 27.8059C63.7156 25.7924 60.2497 23.7623 56.7375 21.8153L55.7818 21.2887C52.9572 19.6948 50.2335 18.3868 46.9824 17.9748C44.0952 18.0012 41.9365 18.5634 39.7212 20.5438C36.2114 24.2688 36.074 28.6264 36.1694 33.4649L36.2087 34.8818L35.5133 34.4614L34.599 33.9275L33.6936 33.3907C32.8494 33.0197 32.8494 33.0197 31.7296 33.3921V42.7025C28.8402 43.0228 28.1024 42.8596 26.1306 44.5646C22.7169 48.1839 22.1768 52.3369 22.2049 57.1076C22.2089 57.722 22.21 58.3365 22.2086 58.9509C22.2016 60.6322 22.2001 62.3133 22.2059 63.9946C22.2123 65.7808 22.2132 67.567 22.212 69.3532C22.2098 72.3481 22.2122 75.343 22.2205 78.3379C22.2305 81.8198 22.2358 85.3015 22.2315 88.7833C22.2272 92.1651 22.2267 95.5468 22.2319 98.9285L22.2319 98.9564C22.2342 100.38 22.2364 101.803 22.2353 103.226C22.2331 104.939 22.2327 106.652 22.2394 108.365C22.2424 108.997 22.245 109.629 22.2472 110.261C22.2445 111.139 22.2419 112.017 22.2472 112.895L22.2533 113.695C22.256 115.119 22.256 115.119 22.398 116.441C23.1381 118.778 24.2821 119.848 26.3328 121.13L27.3481 121.708L28.5051 122.37C29.1341 122.727 29.7631 123.084 30.3912 123.442C31.2833 123.952 32.1755 124.462 33.0683 124.971C34.9639 126.051 36.8553 127.138 38.7455 128.227C39.5477 128.69 40.3501 129.152 41.1526 129.614L42.3676 130.313L95.7443 161.037L98.1706 162.434L98.6557 162.713C100.52 163.786 102.384 164.859 104.248 165.931C108.191 168.197 112.134 170.464 116.062 172.756C119.667 174.86 123.283 176.943 126.912 179.006C129.435 180.44 131.957 181.876 134.463 183.338C135.928 184.195 137.393 185.05 138.861 185.902C139.606 186.334 140.351 186.766 141.096 187.199C142.36 187.942 143.625 188.684 144.895 189.418L146.135 190.132C147.782 191.108 149.4 192.234 151.312 192.567C154.228 192.616 156.21 191.363 158.272 189.461C162.733 184.808 163.343 180.051 163.391 173.876C163.396 173.146 163.404 172.415 163.414 171.685C163.442 169.989 163.466 168.293 163.481 166.598Z" fill="#64748B"/>
<path d="M36.2838 44.9647C37.8835 45.7137 39.399 46.6153 40.9243 47.506C41.7153 47.957 42.5066 48.4074 43.2981 48.8574C47.8416 51.4498 52.3459 54.1116 56.8477 56.777C59.6912 58.4586 62.5487 60.1145 65.4105 61.7636C69.0172 63.8422 72.6113 65.941 76.1945 68.0608C80.0989 70.3698 84.0178 72.6533 87.9371 74.9365C89.9512 76.1101 91.9645 77.2851 93.9778 78.46C94.7817 78.929 95.5855 79.398 96.3894 79.867C103.624 84.088 103.624 84.088 110.859 88.309C111.257 88.5413 111.655 88.7737 112.065 89.013C112.866 89.4801 113.666 89.9473 114.467 90.4145C116.526 91.6166 118.587 92.8174 120.648 94.0161C122.669 95.1914 124.687 96.372 126.704 97.5545C127.608 98.0813 128.515 98.6005 129.425 99.1165C137.709 103.87 143.051 111.532 145.662 120.756C146.056 122.353 146.336 123.829 146.334 125.478C146.335 126.008 146.335 126.008 146.336 126.548C146.334 126.931 146.333 127.313 146.332 127.708C146.332 128.114 146.332 128.521 146.332 128.939C146.331 130.281 146.329 131.623 146.326 132.965C146.325 133.896 146.324 134.827 146.324 135.758C146.323 138.208 146.319 140.657 146.315 143.106C146.311 145.606 146.309 148.106 146.308 150.606C146.304 155.51 146.297 160.414 146.289 165.319C145.59 164.969 144.89 164.618 144.191 164.266C143.802 164.071 143.412 163.876 143.011 163.674C141.201 162.739 139.457 161.7 137.71 160.652C136.927 160.187 136.145 159.722 135.362 159.257C134.762 158.9 134.762 158.9 134.15 158.536C132.158 157.355 130.157 156.189 128.157 155.024C127.556 154.674 127.556 154.674 126.943 154.317C126.131 153.843 125.318 153.37 124.505 152.896C122.089 151.489 119.675 150.079 117.26 148.67C115.242 147.492 113.223 146.315 111.203 145.139C107.326 142.879 103.452 140.613 99.5893 138.328C96.1498 136.293 92.6944 134.288 89.2325 132.294C85.8648 130.352 82.5117 128.387 79.1667 126.406C76.3234 124.725 73.4662 123.069 70.6046 121.42C66.998 119.342 63.4038 117.243 59.8207 115.123C55.9162 112.814 51.9973 110.531 48.0781 108.248C45.6668 106.843 43.2566 105.436 40.8464 104.029C38.9765 102.937 37.1063 101.847 35.2346 100.759C34.5736 100.374 33.9128 99.9899 33.252 99.6053C32.4243 99.1236 31.5963 98.6424 30.7681 98.1616C30.3922 97.9428 30.0163 97.7239 29.629 97.4984C29.3018 97.3083 28.9746 97.1182 28.6375 96.9223C28.2846 96.711 27.9317 96.4997 27.5682 96.282C27.2014 96.1182 27.2014 96.1182 26.8271 95.9511C25.9525 95.5127 25.2983 95.0994 24.6001 94.406C24.1608 93.0647 24.2091 91.7692 24.2396 90.3665C24.2368 89.9594 24.234 89.5522 24.2311 89.1327C24.2256 87.7858 24.2415 86.4402 24.2581 85.0934C24.2599 84.1554 24.2605 83.2174 24.2602 82.2794C24.2625 80.3118 24.2744 78.3445 24.2947 76.377C24.3205 73.8626 24.3256 71.3486 24.3245 68.8341C24.3249 66.8956 24.333 64.9573 24.3438 63.0189C24.3485 62.0924 24.3514 61.1658 24.3525 60.2393C24.3557 58.9391 24.3688 57.6393 24.3845 56.3392C24.3839 55.9605 24.3832 55.5818 24.3825 55.1917C24.4455 51.6143 25.334 48.4512 27.7305 45.7576C30.092 43.7096 33.4974 43.9749 36.2838 44.9647Z" fill="#030712"/>
<path d="M51.8335 21.6384C53.4792 22.4916 55.0924 23.3974 56.7035 24.3148C57.1547 24.5698 57.6059 24.8246 58.0571 25.0793C60.9171 26.6973 63.7553 28.3503 66.5747 30.039C68.6638 31.2882 70.77 32.5075 72.8749 33.7294C73.2829 33.9663 73.6909 34.2033 74.1112 34.4475C76.0522 35.5744 77.9938 36.7004 79.9359 37.8253C80.5975 38.2085 81.259 38.592 81.9204 38.9756C82.7494 39.4564 83.5787 39.9366 84.4084 40.4164C84.9754 40.7453 84.9754 40.7453 85.5539 41.0808C85.9096 41.2867 86.2654 41.4926 86.6319 41.7048C87.7752 42.3887 88.8771 43.1237 89.965 43.8935C90.8045 44.2638 91.2521 44.1009 92.0987 43.8013C92.1127 43.3069 92.1266 42.8125 92.141 42.3031C92.4637 32.888 92.4637 32.888 95.2343 30.0419C96.9528 28.5486 98.5231 28.177 100.743 28.278C104.41 28.7042 107.644 30.8016 110.763 32.6494C111.222 32.9175 111.68 33.1852 112.139 33.4527C113.079 34.0018 114.019 34.5526 114.957 35.105C116.645 36.0976 118.339 37.0793 120.032 38.0613C121.232 38.757 122.43 39.4543 123.629 40.152C125.639 41.3223 127.65 42.4917 129.661 43.6603C130.464 44.1274 131.268 44.5948 132.071 45.0626C133.943 46.153 135.818 47.2403 137.699 48.3154C138.361 48.6937 139.022 49.0731 139.683 49.4528C140.509 49.9269 141.336 50.3991 142.164 50.8688C144.526 52.2278 146.664 53.7128 148.768 55.4462C149.145 55.7328 149.522 56.0195 149.91 56.3149C155.656 61.6116 159.82 69.8885 160.388 77.716C160.488 80.0879 160.466 82.4607 160.453 84.8341C160.453 85.6269 160.453 86.4196 160.453 87.2124C160.454 89.3495 160.447 91.4865 160.439 93.6235C160.432 95.8625 160.432 98.1015 160.43 100.34C160.427 104.574 160.418 108.807 160.406 113.04C160.394 117.862 160.388 122.684 160.382 127.506C160.371 137.419 160.351 147.332 160.326 157.245C158.555 156.541 158.555 156.541 157.716 156.118C157.716 135.541 157.716 114.963 157.716 93.7617C157.101 93.5137 156.486 93.2658 155.852 93.0104C155.137 92.6253 154.43 92.2274 153.727 91.8204C153.312 91.5806 152.897 91.3409 152.469 91.0939C152.02 90.8328 151.571 90.5716 151.122 90.3105C150.653 90.0392 150.185 89.768 149.716 89.4969C148.512 88.8004 147.31 88.1024 146.108 87.4038C145.042 86.7845 143.976 86.1661 142.909 85.5474C140.913 84.3882 138.918 83.227 136.922 82.0654C135.706 81.3578 134.49 80.6513 133.273 79.9451C129.375 77.6825 125.481 75.4133 121.599 73.1248C118.363 71.2183 115.115 69.3364 111.859 67.4667C108.234 65.3857 104.622 63.2844 101.022 61.1622C97.098 58.8504 93.1599 56.5642 89.2213 54.2784C87.1973 53.1034 85.1742 51.9269 83.1509 50.7507C82.3431 50.2811 81.5353 49.8115 80.7275 49.342C75.8808 46.5247 71.034 43.7074 66.1873 40.8901C65.7872 40.6575 65.3871 40.4249 64.9748 40.1853C64.1697 39.7173 63.3647 39.2493 62.5596 38.7812C60.4988 37.5831 58.4377 36.3857 56.3759 35.1894C55.5375 34.7027 54.6991 34.2161 53.8607 33.7294C53.4582 33.4959 53.0556 33.2625 52.6409 33.0219C50.8407 31.9764 49.044 30.9261 47.2591 29.8541C46.9655 29.678 46.6719 29.5019 46.3694 29.3204C45.8374 29.0003 45.3064 28.6785 44.7766 28.3547C43.6218 27.6592 42.7158 27.2303 41.3944 26.8974C41.3944 28.5089 41.3944 30.1204 41.3944 31.7807C39.1574 31.0294 39.1574 31.0294 38.4117 30.2782C38.1617 27.4564 38.6405 24.52 40.3924 22.2253C43.8309 18.922 47.8713 19.773 51.8335 21.6384Z" fill="#262AB5"/>
<path d="M24.3354 95.6844C26.8084 96.9007 29.2488 98.1319 31.6064 99.5608C32.1479 99.8842 32.6896 100.207 33.2316 100.53C33.671 100.792 33.671 100.792 34.1193 101.059C35.9674 102.152 37.8282 103.223 39.6877 104.296C40.0975 104.533 40.5074 104.769 40.9296 105.013C41.7713 105.499 42.613 105.985 43.4547 106.471C45.4801 107.641 47.5045 108.812 49.5289 109.983C50.3317 110.447 51.1344 110.911 51.9371 111.376C59.1617 115.554 59.1617 115.554 66.3863 119.732C66.7837 119.962 67.1811 120.192 67.5906 120.428C68.3928 120.892 69.1949 121.356 69.997 121.82C72.0127 122.986 74.0286 124.151 76.0452 125.316C79.9175 127.552 83.7858 129.795 87.6433 132.057C90.8583 133.942 94.0866 135.803 97.3224 137.651C100.924 139.709 104.513 141.786 108.092 143.885C111.991 146.17 115.904 148.431 119.818 150.691C122.228 152.083 124.638 153.477 127.047 154.87C129.095 156.055 131.143 157.239 133.192 158.422C133.611 158.663 134.029 158.905 134.461 159.154C135.244 159.607 136.027 160.059 136.811 160.511C137.559 160.943 138.3 161.386 139.034 161.84C140.039 162.391 140.899 162.759 141.968 163.128C143.826 163.848 145.423 164.581 146.598 166.248C147.632 169.627 147.332 173.336 147.202 176.833C147.16 178.153 147.154 179.472 147.144 180.792C147.121 183.373 147.057 185.952 146.968 188.532C140.252 184.865 133.594 181.104 126.995 177.228C124.659 175.856 122.315 174.498 119.969 173.142C119.368 172.796 119.369 172.796 118.756 172.442C117.945 171.973 117.133 171.505 116.322 171.036C114.311 169.874 112.3 168.711 110.29 167.548C109.487 167.084 108.684 166.62 107.881 166.156C106.276 165.227 104.671 164.299 103.065 163.37C102.668 163.14 102.27 162.911 101.861 162.674C101.059 162.21 100.257 161.746 99.4544 161.282C97.4387 160.116 95.4228 158.951 93.4062 157.786C89.5339 155.55 85.6656 153.307 81.8081 151.045C78.5931 149.16 75.3648 147.299 72.129 145.451C68.5273 143.393 64.9381 141.316 61.3599 139.217C57.4609 136.932 53.5474 134.672 49.6335 132.412C47.225 131.021 44.8176 129.628 42.4102 128.235C40.5495 127.159 38.6886 126.083 36.8268 125.008C36.1725 124.631 35.5183 124.253 34.8641 123.875C34.047 123.403 33.2298 122.932 32.4125 122.461C31.3241 121.832 30.2375 121.201 29.1518 120.568C28.6211 120.26 28.6211 120.26 28.0796 119.945C27.5802 119.652 27.5802 119.652 27.0707 119.352C26.7761 119.179 26.4815 119.007 26.178 118.829C25.0109 118.047 24.6827 117.478 24.3354 116.111C24.2566 114.497 24.2709 112.897 24.3354 111.283C26.0142 111.897 27.5286 112.73 29.0824 113.604C29.5166 113.847 29.5166 113.847 29.9596 114.095C32.7243 115.65 35.4603 117.254 38.1953 118.86C41.0975 120.564 44.0134 122.241 46.9355 123.91C50.5372 125.967 54.1263 128.045 57.7045 130.143C61.6036 132.429 65.5171 134.689 69.4309 136.949C71.4423 138.111 73.4528 139.274 75.4634 140.437C76.2661 140.901 77.0689 141.365 77.8716 141.83C101.954 155.757 101.954 155.757 103.159 156.454C103.956 156.915 104.753 157.376 105.55 157.837C107.422 158.919 109.293 160.001 111.165 161.084C111.827 161.467 112.49 161.851 113.153 162.234C113.985 162.715 114.816 163.197 115.648 163.678C117.565 164.786 119.482 165.893 121.404 166.991C120.935 165.578 120.504 165.465 119.229 164.746C118.846 164.526 118.462 164.307 118.066 164.082C117.647 163.847 117.228 163.612 116.796 163.37C116.359 163.122 115.922 162.873 115.485 162.624C114.575 162.106 113.665 161.59 112.754 161.074C110.69 159.905 108.638 158.712 106.585 157.521C105.782 157.056 104.979 156.592 104.177 156.128C99.3601 153.343 94.5437 150.557 89.7273 147.772C89.3299 147.542 88.9325 147.312 88.5231 147.075C87.7209 146.611 86.9188 146.148 86.1167 145.684C84.101 144.518 82.085 143.352 80.0685 142.188C76.1962 139.951 72.3279 137.708 68.4703 135.446C65.2554 133.561 62.0271 131.701 58.7912 129.852C55.1896 127.795 51.6004 125.717 48.0222 123.619C45.3342 122.043 42.6402 120.478 39.9424 118.919C39.5483 118.692 39.1542 118.464 38.7482 118.229C36.8497 117.132 34.9508 116.036 33.0516 114.941C32.1594 114.426 31.2674 113.911 30.3754 113.396C29.7437 113.031 29.1117 112.667 28.4798 112.303C27.9077 111.972 27.9077 111.972 27.324 111.635C26.9876 111.441 26.6511 111.247 26.3045 111.047C25.6354 110.651 24.9819 110.229 24.3354 109.797C24.2367 108.717 24.2066 107.717 24.2269 106.637C24.2293 106.169 24.2293 106.169 24.2317 105.691C24.2379 104.692 24.2518 103.693 24.266 102.694C24.2715 102.018 24.2766 101.341 24.2812 100.665C24.2934 99.0045 24.3126 97.3445 24.3354 95.6844Z" fill="#262AB5"/>
<path d="M37.669 127.064C39.5499 127.839 41.2424 128.88 42.9848 129.93C43.7893 130.409 44.594 130.888 45.3987 131.366C45.8137 131.614 46.2286 131.861 46.6561 132.116C48.6629 133.308 50.6805 134.48 52.6985 135.652C53.5109 136.125 54.3233 136.597 55.1356 137.07C55.5391 137.304 55.9425 137.539 56.3582 137.781C58.3767 138.954 60.3944 140.13 62.4122 141.305C63.2178 141.774 64.0234 142.243 64.829 142.712C66.4402 143.65 68.0514 144.588 69.6626 145.527C70.0614 145.759 70.4602 145.991 70.8711 146.23C71.6761 146.699 72.4811 147.168 73.2861 147.637C75.309 148.815 77.3322 149.992 79.3559 151.169C83.242 153.429 87.1241 155.695 90.9954 157.981C94.2219 159.885 97.4617 161.765 100.709 163.633C104.324 165.712 107.926 167.811 111.517 169.931C115.43 172.241 119.357 174.525 123.285 176.808C124.901 177.748 126.517 178.689 128.133 179.63C128.935 180.097 129.737 180.564 130.539 181.031C133.023 182.477 135.506 183.925 137.988 185.373C139.206 186.083 140.424 186.79 141.644 187.496C142.992 188.278 144.332 189.07 145.664 189.88C145.933 190.04 146.203 190.201 146.481 190.367C146.958 190.653 147.433 190.943 147.904 191.239C149.623 192.254 150.828 192.299 152.763 192.153C153.011 192.076 153.26 191.999 153.515 191.92C154.824 191.667 155.865 192.585 156.946 193.256C157.188 193.4 157.429 193.545 157.678 193.695C158.273 194.052 158.865 194.416 159.456 194.78C158.909 196.437 157.611 196.822 156.156 197.595C154.224 198.639 152.31 199.694 150.441 200.849C150.126 201.042 149.81 201.234 149.486 201.433C148.875 201.808 148.267 202.189 147.663 202.575C147.384 202.744 147.106 202.914 146.819 203.089C146.575 203.242 146.331 203.395 146.08 203.552C144.749 203.966 143.786 203.203 142.613 202.586C142.322 202.419 142.03 202.252 141.729 202.08C141.396 201.89 141.062 201.699 140.718 201.503C140.36 201.297 140.002 201.09 139.633 200.878C139.256 200.662 138.878 200.445 138.489 200.222C135.467 198.486 132.464 196.72 129.464 194.947C126.583 193.245 123.688 191.569 120.787 189.902C117.173 187.823 113.571 185.723 109.98 183.603C106.067 181.294 102.139 179.01 98.2113 176.726C96.1928 175.553 94.1751 174.377 92.1574 173.202C91.3518 172.733 90.5462 172.264 89.7406 171.795C67.9894 159.13 67.9894 159.13 46.2382 146.465C45.839 146.232 45.4398 146 45.0285 145.76C44.2273 145.294 43.4263 144.827 42.6253 144.36C40.7623 143.275 38.8987 142.191 37.0326 141.111C36.3787 140.732 35.725 140.353 35.0714 139.975C34.2566 139.502 33.4413 139.031 32.6256 138.56C30.1153 137.104 27.6601 135.577 25.2307 133.987C26.1899 132.892 27.2921 132.255 28.5436 131.533C28.7548 131.411 28.9661 131.288 29.1837 131.162C29.8558 130.773 30.5294 130.387 31.203 130C31.6574 129.737 32.1118 129.474 32.566 129.211C36.6719 126.838 36.6719 126.838 37.669 127.064Z" fill="#373D4D"/>
<path d="M42.6616 29.0764C44.0922 29.6072 45.3818 30.2613 46.7057 31.0156C47.1276 31.2554 47.5496 31.4952 47.9843 31.7422C48.4397 32.0028 48.8951 32.2633 49.3505 32.5239C49.8244 32.794 50.2984 33.0641 50.7724 33.3341C54.0933 35.2275 57.4038 37.1385 60.7097 39.0577C64.6621 41.352 68.6293 43.6205 72.5969 45.8888C74.6355 47.0546 76.6733 48.2218 78.7111 49.3889C79.5247 49.8548 80.3383 50.3207 81.152 50.7866C134.851 81.5349 134.851 81.5349 136.072 82.2343C136.882 82.6981 137.692 83.1618 138.502 83.6256C140.375 84.6977 142.247 85.7699 144.119 86.8426C144.77 87.216 145.422 87.5893 146.074 87.9626C146.882 88.4259 147.691 88.8894 148.5 89.353C150.567 90.5372 152.637 91.7168 154.709 92.8916C154.95 93.0278 155.19 93.1641 155.438 93.3045C156.023 93.6364 156.608 93.9682 157.194 94.3001C157.237 105.062 157.27 115.824 157.29 126.586C157.292 127.858 157.295 129.13 157.297 130.401C157.298 130.655 157.298 130.908 157.299 131.169C157.307 135.263 157.321 139.358 157.339 143.453C157.356 147.657 157.367 151.861 157.371 156.065C157.373 158.425 157.379 160.785 157.392 163.146C157.405 165.368 157.409 167.591 157.406 169.814C157.407 170.629 157.41 171.443 157.418 172.258C157.487 180.518 157.487 180.518 155.316 183.004C154.702 183.515 154.078 184.015 153.439 184.495C153.445 184.048 153.451 183.602 153.458 183.142C153.608 172.524 153.71 161.906 153.755 151.288C153.761 149.979 153.767 148.67 153.773 147.361C153.775 147.1 153.776 146.84 153.777 146.571C153.798 142.36 153.851 138.15 153.916 133.94C153.981 129.614 154.012 125.289 154.012 120.963C154.013 118.535 154.03 116.109 154.086 113.681C154.896 104.243 154.896 104.243 152.175 95.5975C150.091 93.6713 147.824 92.7053 145.097 91.9876C143.677 91.585 142.615 90.947 141.378 90.1551C140.658 89.7429 139.937 89.3309 139.216 88.9191C138.396 88.4498 137.575 87.9805 136.755 87.5113C136.347 87.2783 135.94 87.0454 135.52 86.8053C133.481 85.6395 131.444 84.4723 129.406 83.3052C128.592 82.8393 127.778 82.3734 126.965 81.9076C109.065 71.6581 91.1657 61.4087 73.2661 51.1593C72.8633 50.9286 72.4605 50.698 72.0455 50.4604C71.2325 49.9948 70.4195 49.5292 69.6065 49.0636C67.5635 47.8936 65.5202 46.7241 63.4763 45.5556C52.4543 39.2524 52.4543 39.2524 48.2261 36.7628C47.4659 36.3282 46.6941 35.9132 45.9158 35.5113C45.5051 35.2937 45.0944 35.0761 44.6712 34.8519C44.1053 34.5632 44.1053 34.5632 43.528 34.2687C42.6616 33.5489 42.6616 33.5489 42.3875 32.342C42.3804 31.2188 42.4642 30.1813 42.6616 29.0764Z" fill="#030712"/>
<path d="M33.304 35.1311C34.7358 35.7016 35.9442 36.2798 37.2691 37.0387C37.6816 37.2742 38.0942 37.5098 38.5193 37.7525C38.9658 38.0091 39.4124 38.2657 39.8589 38.5223C40.3247 38.7889 40.7905 39.0554 41.2564 39.3218C42.4526 40.0061 43.648 40.692 44.8431 41.3785C45.9025 41.987 46.9624 42.5947 48.0221 43.2025C50.0078 44.3422 51.9924 45.4836 53.9766 46.6256C55.5777 47.5469 57.1793 48.4671 58.781 49.3873C59.985 50.079 61.1889 50.7709 62.3929 51.4628C64.0081 52.391 65.6237 53.3185 67.2396 54.2456C71.1129 56.4685 74.9823 58.6976 78.8409 60.9458C82.0568 62.8191 85.286 64.6683 88.5228 66.5055C92.1254 68.5504 95.7156 70.6151 99.2948 72.7004C103.195 74.972 107.11 77.2184 111.025 79.4645C113.036 80.6191 115.047 81.775 117.059 82.9309C117.862 83.3923 118.665 83.8537 119.468 84.315C124.285 87.0834 124.285 87.0834 125.491 87.7761C126.29 88.2354 127.089 88.6947 127.889 89.1539C129.737 90.2157 131.585 91.2775 133.432 92.3399C134.075 92.7097 134.718 93.0794 135.361 93.4491C136.159 93.908 136.957 94.3669 137.756 94.826C140.611 96.4675 143.473 98.0962 146.336 99.7254C146.336 104.719 146.336 109.713 146.336 114.859C145.427 113.652 144.872 112.698 144.251 111.352C140.772 104.353 135.545 100.005 128.876 96.2664C127.754 95.6358 126.639 94.9944 125.524 94.3502C123.49 93.1743 121.451 92.0054 119.411 90.8384C117.39 89.6817 115.371 88.5208 113.353 87.3602C112.55 86.8988 111.747 86.4374 110.944 85.976C57.9486 55.5245 57.9486 55.5245 56.7429 54.8316C55.9443 54.3727 55.1455 53.914 54.3467 53.4555C52.4902 52.3897 50.6347 51.3224 48.7827 50.2489C48.1342 49.8731 47.4854 49.4978 46.8365 49.1227C46.0281 48.6552 45.2203 48.1867 44.4132 47.7169C42.5585 46.6457 40.6909 45.603 38.7905 44.6141C38.457 44.4402 38.1235 44.2663 37.7799 44.0872C36.3132 43.4496 36.3132 43.4496 33.304 42.8825C33.304 40.3245 33.304 37.7666 33.304 35.1311Z" fill="#030712"/>
<path d="M37.6149 32.1038C39.0486 32.6348 40.341 33.2891 41.6677 34.0438C42.0905 34.2837 42.5133 34.5236 42.949 34.7707C43.4054 35.0313 43.8617 35.292 44.3181 35.5527C44.793 35.823 45.268 36.0931 45.743 36.3632C49.071 38.2574 52.3886 40.1692 55.7015 42.0892C59.6623 44.3844 63.638 46.6539 67.614 48.9231C69.657 50.0894 71.6991 51.2571 73.7413 52.4247C74.5566 52.8908 75.372 53.3569 76.1873 53.823C130 84.584 130 84.584 131.225 85.2838C132.036 85.7478 132.848 86.2117 133.66 86.6756C135.536 87.7482 137.412 88.8208 139.288 89.894C139.941 90.2675 140.594 90.641 141.247 91.0144C142.058 91.478 142.868 91.9416 143.679 92.4054C146.578 94.0635 149.485 95.7088 152.391 97.3545C152.391 125.778 152.391 154.201 152.391 183.486C150.133 182.367 150.133 182.367 149.757 181.994C149.718 181.247 149.705 180.498 149.703 179.749C149.7 179.261 149.697 178.773 149.695 178.27C149.694 177.724 149.693 177.178 149.692 176.631C149.689 176.06 149.687 175.489 149.684 174.917C149.679 173.684 149.674 172.45 149.671 171.216C149.665 169.264 149.656 167.311 149.646 165.359C149.619 159.805 149.597 154.252 149.578 148.698C149.567 145.634 149.554 142.569 149.538 139.504C149.527 137.566 149.521 135.627 149.516 133.688C149.513 132.477 149.506 131.267 149.499 130.056C149.496 129.497 149.495 128.938 149.495 128.379C149.493 125.781 149.46 123.305 148.791 120.777C148.561 119.818 148.586 118.933 148.651 117.953C148.683 117.373 148.683 117.373 148.716 116.783C148.74 116.376 148.765 115.969 148.79 115.55C149.676 106.785 149.676 106.785 147.509 98.6035C145.544 96.6748 143.132 95.9227 140.521 95.1727C138.287 94.4372 136.373 93.185 134.375 91.9714C133.554 91.4994 132.732 91.0299 131.909 90.5629C129.046 88.929 126.184 87.293 123.323 85.6569C121.275 84.4864 119.228 83.3164 117.179 82.1473C113.246 79.9018 109.317 77.65 105.399 75.379C101.91 73.3573 98.4052 71.3649 94.8938 69.3824C91.4779 67.4534 88.0767 65.5005 84.6838 63.5319C81.7998 61.8612 78.9017 60.2157 75.9992 58.5769C72.3409 56.5113 68.6953 54.4256 65.0608 52.319C61.1082 50.0288 57.1409 47.7639 53.1732 45.4993C51.4379 44.5088 49.7028 43.5177 47.9679 42.5263C47.1483 42.058 46.3286 41.5898 45.5089 41.1217C44.7585 40.693 44.0095 40.2619 43.2619 39.8284C42.468 39.3791 41.6637 38.9476 40.8526 38.5297C40.441 38.312 40.0294 38.0943 39.6053 37.87C39.2306 37.6792 38.8559 37.4883 38.4699 37.2917C37.6149 36.5781 37.6149 36.5781 37.3417 35.3714C37.3332 34.2471 37.417 33.2098 37.6149 32.1038Z" fill="#030712"/>
<path d="M157.827 157.245C159.899 157.953 159.899 157.953 160.296 158.378C160.336 159.039 160.352 159.701 160.358 160.364C160.363 160.789 160.367 161.213 160.372 161.651C160.375 162.115 160.377 162.579 160.38 163.057C160.383 163.532 160.386 164.007 160.389 164.497C160.394 165.508 160.397 166.519 160.4 167.53C160.404 168.814 160.416 170.098 160.43 171.383C160.442 172.617 160.443 173.851 160.446 175.086C160.452 175.542 160.458 175.998 160.465 176.468C160.455 180.743 159.399 184.52 156.769 187.813C155.322 189.186 153.996 190.396 152.031 190.549C150.774 190.455 150.774 190.455 150.113 190.031C149.574 189.069 149.478 188.163 149.364 187.059C149.56 187.035 149.756 187.011 149.959 186.986C152.573 186.537 154.263 185.269 155.823 182.981C156.981 180.924 157.557 178.915 157.587 176.525C157.594 176.094 157.601 175.664 157.608 175.22C157.612 174.761 157.617 174.302 157.621 173.83C157.628 173.355 157.634 172.881 157.641 172.392C157.659 171.138 157.673 169.884 157.687 168.629C157.701 167.346 157.719 166.064 157.736 164.781C157.77 162.269 157.8 159.757 157.827 157.245Z" fill="#262AB5"/>
<path d="M128.17 170.365C130.047 170.548 131.393 171.19 132.957 172.177C133.178 172.309 133.398 172.441 133.625 172.577C134.177 172.918 134.708 173.29 135.234 173.668C135.234 173.91 135.234 174.152 135.234 174.402C133.358 174.219 132.011 173.576 130.447 172.59C130.227 172.457 130.006 172.325 129.779 172.189C129.228 171.848 128.697 171.476 128.17 171.099C128.17 170.856 128.17 170.614 128.17 170.365Z" fill="#64748B"/>
<path d="M149.364 183.486C150.862 184.152 150.862 184.152 152.391 184.831C152.266 185.054 152.141 185.276 152.013 185.504C151.138 185.504 150.264 185.504 149.364 185.504C149.364 184.838 149.364 184.172 149.364 183.486Z" fill="#030712"/>
<path d="M30.8182 94.1041C34.9036 96.7931 38.4018 100.124 41.3028 104.051C41.4025 104.186 41.5023 104.321 41.605 104.459C45.2877 109.507 47.8421 115.531 47.2847 121.863C46.9523 123.942 45.9831 126.129 44.4148 127.566C40.9623 130.058 40.9623 130.058 39.6773 130.058C39.8988 130.847 40.1218 131.635 40.3449 132.424C40.4075 132.647 40.47 132.87 40.5345 133.099C40.6265 133.424 40.6265 133.424 40.7204 133.754C40.7764 133.953 40.8323 134.151 40.8899 134.355C41.0654 134.947 41.0654 134.947 41.3232 135.552C41.535 136.096 41.535 136.096 41.5586 136.68C41.1515 137.598 40.3931 137.897 39.5322 138.36C39.1722 138.56 38.8124 138.761 38.4528 138.963C38.27 139.064 38.0872 139.165 37.8988 139.269C37.3759 139.567 36.867 139.879 36.3594 140.202C36.1266 140.348 36.1266 140.348 35.8892 140.498C35.5955 140.684 35.3033 140.873 35.0127 141.064C34.4049 141.443 33.9927 141.672 33.2672 141.649C29.05 140.033 25.4922 135.659 23.1909 131.916C23.1909 131.763 23.1909 131.609 23.1909 131.451C22.9885 131.392 22.7862 131.333 22.5777 131.272C15.373 128.641 9.43196 120.282 6.2655 113.673C5.6668 112.359 5.21968 111.02 4.84677 109.624C4.77344 109.361 4.7001 109.098 4.62454 108.827C3.8047 105.529 3.66273 101.909 5.38556 98.8658C6.7066 96.9781 8.52196 95.7283 10.5358 94.6762C10.9456 94.4572 11.3552 94.238 11.7648 94.0186C11.9676 93.9106 12.1703 93.8027 12.3792 93.6915C12.9397 93.3885 13.4934 93.0764 14.0451 92.7578C14.2104 92.6626 14.3756 92.5673 14.5458 92.4692C14.8516 92.2921 15.1567 92.1139 15.461 91.9343C20.3375 89.1314 26.4272 91.3446 30.8182 94.1041Z" fill="#CCFE41"/>
<path d="M30.8182 94.1041C34.9036 96.7931 38.4018 100.124 41.3028 104.051C41.4025 104.186 41.5023 104.321 41.605 104.459C45.2877 109.507 47.8421 115.531 47.2847 121.863C46.9523 123.942 45.9831 126.129 44.4148 127.566C40.9623 130.058 40.9623 130.058 39.6773 130.058C39.8988 130.847 40.1218 131.635 40.3449 132.424C40.4075 132.647 40.47 132.87 40.5345 133.099C40.6265 133.424 40.6265 133.424 40.7204 133.754C40.7764 133.953 40.8323 134.151 40.8899 134.355C41.0654 134.947 41.0654 134.947 41.3232 135.552C41.535 136.096 41.535 136.096 41.5586 136.68C41.1515 137.598 40.3931 137.897 39.5322 138.36C39.1722 138.56 38.8124 138.761 38.4528 138.963C38.27 139.064 38.0872 139.165 37.8988 139.269C37.3759 139.567 36.867 139.879 36.3594 140.202C36.1266 140.348 36.1266 140.348 35.8892 140.498C35.5955 140.684 35.3033 140.873 35.0127 141.064C34.4049 141.443 33.9927 141.672 33.2672 141.649C29.05 140.033 25.4922 135.659 23.1909 131.916C23.1909 131.763 23.1909 131.609 23.1909 131.451C22.9885 131.392 22.7862 131.333 22.5777 131.272C15.373 128.641 9.43196 120.282 6.2655 113.673C5.6668 112.359 5.21968 111.02 4.84677 109.624C4.77344 109.361 4.7001 109.098 4.62454 108.827C3.8047 105.529 3.66273 101.909 5.38556 98.8658C6.7066 96.9781 8.52196 95.7283 10.5358 94.6762C10.9456 94.4572 11.3552 94.238 11.7648 94.0186C11.9676 93.9106 12.1703 93.8027 12.3792 93.6915C12.9397 93.3885 13.4934 93.0764 14.0451 92.7578C14.2104 92.6626 14.3756 92.5673 14.5458 92.4692C14.8516 92.2921 15.1567 92.1139 15.461 91.9343C20.3375 89.1314 26.4272 91.3446 30.8182 94.1041ZM6.9366 99.1751C5.25521 101.657 5.53503 105.157 5.9062 108.013C8.06519 116.559 14.0592 124.557 21.6075 129.089C21.9108 129.266 22.2152 129.442 22.5207 129.616C23.8771 130.39 24.5475 131.24 25.4258 132.511C27.1056 134.894 29.0401 137.052 31.318 138.882C31.4713 138.882 31.6245 138.882 31.7824 138.882C31.5899 137.435 31.3005 136.019 30.9978 134.592C30.8766 133.904 30.8033 133.307 30.8536 132.612C31.2539 132.212 31.8314 132.265 32.3774 132.192C34.4123 131.856 35.6824 131.257 36.9979 129.644C38.6276 127.299 38.8906 124.406 38.4275 121.631C37.3778 116.585 35.0041 111.995 31.7824 107.999C31.6782 107.87 31.5741 107.74 31.4668 107.607C27.251 102.418 21.419 97.4893 14.5993 96.3887C11.248 96.1782 9.2305 96.6296 6.9366 99.1751Z" fill="#64748B"/>
<path d="M29.9241 95.2303C32.1495 96.6134 34.0805 98.293 35.9614 100.107C36.1368 100.267 36.3122 100.428 36.4929 100.594C39.2825 103.226 41.4316 106.456 43.1597 109.859C43.2357 110.007 43.3117 110.155 43.39 110.307C45.4541 114.367 46.7732 118.858 45.4926 123.382C44.9278 124.872 44.0539 126.174 42.6953 127.042C42.542 127.042 42.3888 127.042 42.2309 127.042C42.28 126.888 42.3291 126.734 42.3797 126.575C42.8555 124.982 43.0473 123.535 43.0291 121.876C43.0257 121.525 43.0257 121.525 43.0222 121.167C42.976 119.209 42.7019 117.503 41.9987 115.664C41.9288 115.479 41.859 115.294 41.787 115.104C39.9396 110.318 37.2933 105.806 33.4915 102.302C33.1749 101.964 33.1749 101.964 33.1749 101.5C33.0483 101.447 32.9217 101.395 32.7913 101.341C31.8272 100.8 31.085 99.9832 30.286 99.2276C29.7236 98.6746 29.7236 98.6746 28.9953 98.4811C28.9953 98.711 28.9953 98.9409 28.9953 99.1777C29.121 99.2298 29.2467 99.2819 29.3762 99.3355C30.0954 99.738 30.6627 100.271 31.2593 100.832C31.3833 100.948 31.5074 101.064 31.6353 101.184C31.8832 101.416 32.1305 101.649 32.3773 101.883C32.6484 102.138 32.9234 102.389 33.1994 102.639C36.9666 106.173 39.8857 111.025 41.5343 115.896C41.6775 116.305 41.6775 116.305 41.8236 116.723C42.7656 119.751 43.089 123.611 41.7665 126.578C41.2043 127.619 40.553 128.42 39.4444 128.9C39.2912 128.823 39.1379 128.747 38.98 128.668C39.0555 128.489 39.0555 128.489 39.1324 128.307C40.7676 123.81 39.269 118.781 37.3854 114.613C35.6402 110.892 33.3399 107.575 30.4862 104.628C30.1532 104.283 29.8255 103.933 29.4978 103.583C25.2713 99.1375 19.6104 95.6879 13.4376 94.998C14.0328 94.3292 14.7134 93.9229 15.4839 93.4742C15.7201 93.335 15.9562 93.1958 16.1996 93.0524C20.675 90.7162 25.919 92.8768 29.9241 95.2303Z" fill="#030712"/>
<path d="M38.5166 131.22C38.764 131.973 39.0038 132.728 39.2422 133.484C39.3125 133.698 39.3829 133.911 39.4554 134.131C39.5519 134.441 39.5519 134.441 39.6504 134.757C39.7112 134.947 39.772 135.137 39.8346 135.332C39.9301 136.007 39.8468 136.244 39.4454 136.793C38.9098 137.175 38.9098 137.175 38.2481 137.544C38.0107 137.677 37.7734 137.81 37.5288 137.947C37.2801 138.084 37.0313 138.22 36.775 138.36C36.5263 138.5 36.2776 138.64 36.0213 138.784C34.1733 139.811 34.1733 139.811 33.6403 139.811C33.405 139.029 33.174 138.245 32.9437 137.46C32.844 137.129 32.844 137.129 32.7423 136.791C32.419 135.682 32.1527 134.71 32.2471 133.542C32.5295 133.466 32.5295 133.466 32.8176 133.388C34.4412 132.923 35.8496 132.361 37.2993 131.492C37.82 131.22 37.82 131.22 38.5166 131.22Z" fill="#030712"/>
<path d="M28.9963 98.4793C30.0105 98.5863 30.6014 99.2588 31.3039 99.9306C31.4228 100.042 31.5418 100.153 31.6644 100.267C32.4159 100.972 33.1447 101.698 33.8726 102.427C34.0145 102.558 34.1564 102.689 34.3025 102.824C38.1736 106.456 40.7104 111.423 42.4641 116.359C42.553 116.598 42.6419 116.838 42.7335 117.085C43.2225 118.649 43.2294 120.233 43.2478 121.859C43.2511 122.086 43.2544 122.312 43.2578 122.545C43.2482 123.964 43.1189 125.294 42.4641 126.576C41.8401 127.055 41.8401 127.055 41.3031 127.273C41.3507 127.135 41.3983 126.998 41.4474 126.856C41.5099 126.673 41.5725 126.489 41.6369 126.3C41.6989 126.12 41.7608 125.939 41.8247 125.753C42.8011 122.571 42.4013 118.98 41.3031 115.895C41.2483 115.74 41.1935 115.585 41.137 115.426C39.2809 110.308 36.2061 106.105 32.4794 102.195C32.3285 102.034 32.1777 101.874 32.0222 101.708C31.1976 100.854 30.3303 100.157 29.3455 99.4916C29.2303 99.3874 29.1151 99.2833 28.9963 99.1759C28.9963 98.946 28.9963 98.7162 28.9963 98.4793Z" fill="#64748B"/>
<path d="M30.3895 117.055C31.1387 117.708 31.3005 118.068 31.4199 119.058C31.3184 119.842 31.3184 119.842 31.0571 120.291C30.3843 120.673 29.9888 120.675 29.2285 120.538C28.368 119.771 28.1068 119.435 27.9514 118.289C28.0675 117.52 28.0675 117.52 28.3142 117.055C29.0683 116.666 29.5931 116.832 30.3895 117.055Z" fill="#64748B"/>
<path d="M22.0296 112.397C22.9117 112.71 23.1956 112.992 23.6551 113.805C23.7534 114.62 23.8117 115.161 23.3938 115.88C22.721 116.262 22.3255 116.264 21.5652 116.127C20.8229 115.449 20.4529 115.005 20.2736 114.008C20.4042 113.341 20.4042 113.341 20.7815 112.775C21.333 112.412 21.333 112.412 22.0296 112.397Z" fill="#64748B"/>
<path d="M14.3668 107.999C15.1814 108.27 15.5145 108.443 15.9922 109.16C16.1399 109.983 16.1516 110.734 15.731 111.482C15.0761 111.831 14.6324 111.818 13.9024 111.714C13.3083 111.329 13.0479 111.02 12.8329 110.343C12.6793 109.527 12.6689 109.047 13.1042 108.333C13.6702 107.999 13.6702 107.999 14.3668 107.999Z" fill="#64748B"/>
<path d="M20.8693 94.0652C22.2423 94.1789 23.2437 94.5996 24.454 95.2408C24.6238 95.3283 24.7937 95.4159 24.9687 95.5061C25.3836 95.7203 25.7969 95.9374 26.21 96.1551C26.1334 96.3849 26.0567 96.6148 25.9778 96.8517C24.9467 96.4437 23.9221 96.0215 22.9011 95.5891C22.7311 95.5195 22.5611 95.4499 22.3859 95.3782C21.9491 95.1917 21.5241 94.9784 21.1015 94.7618C21.0249 94.5319 20.9483 94.3021 20.8693 94.0652Z" fill="#64748B"/>
<path d="M79.3289 139.655C79.7862 139.92 80.2435 140.184 80.701 140.449C81.6426 140.995 82.5822 141.544 83.5206 142.096C85.0127 142.972 86.5109 143.838 88.0104 144.702C88.2646 144.849 88.5188 144.995 88.7808 145.146C89.2964 145.443 89.812 145.74 90.3276 146.037C91.8602 146.92 93.392 147.804 94.9239 148.689C96.2105 149.431 97.4974 150.173 98.785 150.913C100.059 151.646 101.331 152.381 102.603 153.118C103.341 153.544 104.081 153.967 104.821 154.39C105.285 154.657 105.748 154.925 106.212 155.193C106.422 155.312 106.631 155.431 106.847 155.553C108.407 156.46 109.913 157.485 110.641 159.196C110.702 159.72 110.702 159.72 110.706 160.296C110.708 160.513 110.71 160.73 110.713 160.953C110.712 161.302 110.712 161.302 110.712 161.659C110.713 161.899 110.714 162.14 110.715 162.389C110.716 162.898 110.716 163.407 110.715 163.917C110.715 164.694 110.72 165.472 110.726 166.249C110.727 166.745 110.727 167.24 110.727 167.736C110.729 167.967 110.731 168.199 110.733 168.438C110.723 169.966 110.54 170.994 109.49 172.173C108.189 173.312 106.851 174.182 105.329 174.999C104.853 175.261 104.376 175.524 103.9 175.787C103.533 175.989 103.533 175.989 103.158 176.196C101.64 177.042 100.147 177.93 98.6507 178.814C94.5475 181.226 90.8068 182.45 86.0239 181.576C84.0314 181.036 82.282 179.997 80.506 178.972C80.2999 178.853 80.0939 178.734 79.8816 178.612C78.7146 177.937 77.551 177.256 76.3887 176.573C74.7866 175.632 73.1738 174.712 71.5596 173.792C69.2709 172.488 66.9902 171.171 64.7164 169.841C63.0083 168.842 61.2963 167.85 59.5821 166.862C59.3308 166.717 59.0795 166.571 58.8207 166.422C57.6278 165.733 56.4335 165.047 55.2337 164.37C54.8143 164.133 54.3955 163.896 53.9767 163.658C53.4527 163.36 52.9277 163.065 52.4016 162.771C48.2256 160.393 48.2256 160.393 47.6462 158.525C47.5409 157.994 47.511 157.507 47.5041 156.965C47.501 156.759 47.498 156.552 47.4949 156.339C47.4932 156.117 47.4914 155.895 47.4896 155.667C47.4877 155.437 47.4858 155.207 47.4839 154.97C47.4806 154.484 47.4781 153.998 47.4762 153.512C47.4735 153.015 47.4687 152.519 47.4618 152.023C47.4517 151.305 47.4479 150.588 47.4455 149.87C47.4414 149.649 47.4373 149.429 47.433 149.202C47.4384 147.574 47.7643 146.619 48.8411 145.364C50.108 144.31 51.5116 143.52 52.9459 142.716C53.3541 142.484 53.7623 142.252 54.1703 142.02C54.4492 141.862 54.7283 141.703 55.0075 141.545C55.9496 141.01 56.8842 140.464 57.8155 139.911C58.1872 139.69 58.1872 139.69 58.5664 139.466C59.0317 139.189 59.4963 138.911 59.96 138.632C66.9826 134.481 72.6081 135.723 79.3289 139.655Z" fill="#CCFE41"/>
<path d="M48.9577 151.661C49.1847 151.809 49.1847 151.809 49.4161 151.96C51.1199 153.058 52.8589 154.077 54.6228 155.075C55.0601 155.324 55.4972 155.572 55.9344 155.821C56.2319 155.99 56.5295 156.16 56.8271 156.329C58.2981 157.165 59.7643 158.01 61.2296 158.857C61.48 159.001 61.7304 159.146 61.9883 159.295C62.4933 159.587 62.9982 159.878 63.5032 160.17C64.7755 160.905 66.0485 161.639 67.3213 162.373C67.8314 162.668 68.3415 162.962 68.8516 163.256C69.1041 163.402 69.3566 163.548 69.6168 163.698C71.9122 165.022 71.9122 165.022 72.6782 165.464C73.1854 165.757 73.6926 166.049 74.1999 166.341C75.382 167.022 76.5632 167.705 77.7412 168.393C78.1549 168.635 78.5689 168.876 78.983 169.117C79.4998 169.418 80.016 169.72 80.5316 170.023C84.5636 172.366 88.572 173.709 93.2628 172.468C95.7987 171.721 98.1083 170.288 100.37 168.951C100.61 168.81 100.85 168.669 101.097 168.524C101.846 168.083 102.594 167.642 103.342 167.2C103.84 166.907 104.337 166.614 104.835 166.322C105.73 165.794 106.624 165.267 107.518 164.739C107.696 164.634 107.873 164.529 108.056 164.421C108.453 164.181 108.842 163.926 109.228 163.668C109.255 164.698 109.272 165.728 109.287 166.758C109.295 167.05 109.303 167.341 109.311 167.641C109.337 170.062 109.337 170.062 108.829 170.885C108.269 171.455 107.77 171.846 107.08 172.247C106.889 172.359 106.889 172.359 106.695 172.474C106.207 172.76 105.716 173.04 105.226 173.321C104.757 173.592 104.289 173.864 103.82 174.136C102.765 174.748 101.707 175.356 100.649 175.963C99.6911 176.513 98.7374 177.067 97.7884 177.631C97.5891 177.749 97.3897 177.867 97.1843 177.988C96.821 178.204 96.4584 178.42 96.0971 178.639C93.1093 180.4 89.6605 180.889 86.2704 180.08C84.6407 179.615 83.1375 178.77 81.6679 177.941C81.4882 177.841 81.3085 177.74 81.1233 177.637C79.3824 176.657 77.6589 175.648 75.9356 174.639C74.0916 173.559 72.2387 172.495 70.3819 171.438C68.0944 170.134 65.8148 168.818 63.5423 167.488C61.7989 166.469 60.0512 165.457 58.3014 164.448C58.0464 164.301 57.7914 164.154 57.5286 164.002C56.3454 163.32 55.1615 162.639 53.9754 161.961C53.7703 161.844 53.5652 161.726 53.354 161.605C52.9776 161.39 52.6009 161.175 52.2236 160.961C49.5458 159.423 49.5458 159.423 48.9577 157.783C48.9042 157.071 48.9226 156.376 48.9577 155.664C49.1298 155.764 49.3018 155.864 49.479 155.968C50.7039 156.682 51.9289 157.397 53.1541 158.111C53.3797 158.242 53.6052 158.374 53.8376 158.509C54.3153 158.788 54.7931 159.066 55.2709 159.344C56.402 160.003 57.5317 160.665 58.6555 161.336C58.8384 161.445 59.0214 161.554 59.2098 161.666C59.5461 161.867 59.8818 162.069 60.2167 162.272C60.9336 162.699 61.5628 163.022 62.3773 163.197C61.8051 162.562 61.1868 162.178 60.4451 161.757C60.1975 161.616 59.95 161.474 59.6949 161.329C59.4293 161.178 59.1636 161.028 58.89 160.873C58.6151 160.715 58.3404 160.558 58.0657 160.4C57.5035 160.078 56.941 159.756 56.3783 159.434C56.24 159.355 56.1018 159.275 55.9593 159.194C55.5654 158.969 55.1714 158.743 54.7774 158.518C54.0722 158.113 53.3688 157.706 52.6658 157.297C52.4546 157.177 52.2434 157.056 52.0259 156.932C50.8314 156.235 49.8254 155.575 48.9577 154.487C48.783 153.529 48.8933 152.629 48.9577 151.661Z" fill="#030712"/>
<path d="M79.3289 139.655C79.7862 139.92 80.2435 140.184 80.701 140.449C81.6426 140.995 82.5822 141.544 83.5206 142.096C85.0127 142.972 86.5109 143.838 88.0104 144.702C88.2646 144.849 88.5188 144.995 88.7808 145.146C89.2964 145.443 89.812 145.74 90.3276 146.037C91.8602 146.92 93.392 147.804 94.9239 148.689C96.2105 149.431 97.4974 150.173 98.785 150.913C100.059 151.646 101.331 152.381 102.603 153.118C103.341 153.544 104.081 153.967 104.821 154.39C105.285 154.657 105.748 154.925 106.212 155.193C106.422 155.312 106.631 155.431 106.847 155.553C108.407 156.46 109.913 157.485 110.641 159.196C110.702 159.72 110.702 159.72 110.706 160.296C110.708 160.513 110.71 160.73 110.713 160.953C110.712 161.302 110.712 161.302 110.712 161.659C110.713 161.899 110.714 162.14 110.715 162.389C110.716 162.898 110.716 163.407 110.715 163.917C110.715 164.694 110.72 165.472 110.726 166.249C110.727 166.745 110.727 167.24 110.727 167.736C110.729 167.967 110.731 168.199 110.733 168.438C110.723 169.966 110.54 170.994 109.49 172.173C108.189 173.312 106.851 174.182 105.329 174.999C104.853 175.261 104.376 175.524 103.9 175.787C103.533 175.989 103.533 175.989 103.158 176.196C101.64 177.042 100.147 177.93 98.6507 178.814C94.5475 181.226 90.8068 182.45 86.0239 181.576C84.0314 181.036 82.282 179.997 80.506 178.972C80.2999 178.853 80.0939 178.734 79.8816 178.612C78.7146 177.937 77.551 177.256 76.3887 176.573C74.7866 175.632 73.1738 174.712 71.5596 173.792C69.2709 172.488 66.9902 171.171 64.7164 169.841C63.0083 168.842 61.2963 167.85 59.5821 166.862C59.3308 166.717 59.0795 166.571 58.8207 166.422C57.6278 165.733 56.4335 165.047 55.2337 164.37C54.8143 164.133 54.3955 163.896 53.9767 163.658C53.4527 163.36 52.9277 163.065 52.4016 162.771C48.2256 160.393 48.2256 160.393 47.6462 158.525C47.5409 157.994 47.511 157.507 47.5041 156.965C47.501 156.759 47.498 156.552 47.4949 156.339C47.4932 156.117 47.4914 155.895 47.4896 155.667C47.4877 155.437 47.4858 155.207 47.4839 154.97C47.4806 154.484 47.4781 153.998 47.4762 153.512C47.4735 153.015 47.4687 152.519 47.4618 152.023C47.4517 151.305 47.4479 150.588 47.4455 149.87C47.4414 149.649 47.4373 149.429 47.433 149.202C47.4384 147.574 47.7643 146.619 48.8411 145.364C50.108 144.31 51.5116 143.52 52.9459 142.716C53.3541 142.484 53.7623 142.252 54.1703 142.02C54.4492 141.862 54.7283 141.703 55.0075 141.545C55.9496 141.01 56.8842 140.464 57.8155 139.911C58.1872 139.69 58.1872 139.69 58.5664 139.466C59.0317 139.189 59.4963 138.911 59.96 138.632C66.9826 134.481 72.6081 135.723 79.3289 139.655ZM58.3903 141.306C57.4793 141.848 56.5606 142.374 55.6387 142.897C55.3639 143.053 55.0891 143.209 54.8143 143.366C54.2756 143.672 53.736 143.977 53.1955 144.28C50.6487 145.65 50.6487 145.65 48.9583 147.895C48.8098 148.85 48.9225 149.246 49.4108 150.09C50.2125 151.166 51.2596 151.726 52.4162 152.368C52.6428 152.498 52.8695 152.628 53.103 152.762C53.5886 153.039 54.0752 153.316 54.5626 153.591C55.5642 154.157 56.5594 154.735 57.555 155.312C58.5875 155.909 59.6217 156.504 60.6558 157.099C61.9368 157.836 63.2167 158.575 64.4967 159.313C65.0068 159.608 65.5169 159.902 66.027 160.196C67.0472 160.785 68.0674 161.373 69.0876 161.962C69.3403 162.108 69.5929 162.254 69.8532 162.404C70.3619 162.697 70.8707 162.991 71.3795 163.284C72.6752 164.032 73.9709 164.779 75.2668 165.527C75.5281 165.677 75.7894 165.828 76.0586 165.983C76.5761 166.282 77.0936 166.58 77.6113 166.878C78.7794 167.55 79.945 168.226 81.1038 168.915C81.3049 169.033 81.5059 169.152 81.7131 169.274C82.079 169.491 82.444 169.709 82.8078 169.929C85.7985 171.692 89.2322 172.198 92.6285 171.368C94.6339 170.807 96.3872 169.841 98.1633 168.775C98.6576 168.482 99.1521 168.189 99.6467 167.897C100.031 167.669 100.031 167.669 100.423 167.436C101.249 166.95 102.079 166.472 102.911 165.997C103.119 165.878 103.119 165.878 103.332 165.756C104.004 165.371 104.678 164.988 105.352 164.605C105.595 164.465 105.839 164.326 106.09 164.182C106.304 164.06 106.518 163.938 106.739 163.812C107.823 163.135 108.693 162.498 109.229 161.315C109.366 160.394 109.276 159.99 108.831 159.166C107.998 158.13 107.019 157.462 105.871 156.807C105.63 156.669 105.389 156.531 105.141 156.389C104.883 156.242 104.624 156.095 104.358 155.944C104.084 155.787 103.811 155.631 103.537 155.474C102.97 155.149 102.401 154.824 101.833 154.499C100.529 153.754 99.2286 153.002 97.9279 152.251C97.4178 151.956 96.9077 151.662 96.3976 151.368C93.337 149.602 90.2764 147.836 87.2158 146.07C86.963 145.925 86.7102 145.779 86.4497 145.629C85.9427 145.336 85.4356 145.043 84.9286 144.751C83.7463 144.069 82.5638 143.387 81.3808 142.706C80.965 142.466 80.5493 142.227 80.1335 141.987C79.6143 141.688 79.0951 141.389 78.5757 141.091C77.2639 140.335 75.9617 139.568 74.6743 138.771C69.0498 135.629 63.3278 138.358 58.3903 141.306ZM48.9583 151.662C48.9003 152.092 48.8596 152.524 48.8259 152.957C48.8013 153.197 48.7767 153.438 48.7514 153.685C49.1328 155.163 50.431 155.951 51.6681 156.754C52.2929 157.122 52.9253 157.469 53.5639 157.813C54.0384 158.074 54.5126 158.336 54.9866 158.599C55.2313 158.734 55.4761 158.868 55.7282 159.007C57.0415 159.736 58.3418 160.487 59.641 161.241C59.8873 161.382 60.1336 161.524 60.3873 161.669C60.7271 161.867 60.7271 161.867 61.0738 162.068C61.2748 162.184 61.4758 162.3 61.6829 162.42C62.1424 162.727 62.1424 162.727 62.3779 163.198C61.2965 162.752 60.2838 162.266 59.2676 161.682C59.1343 161.605 59.001 161.529 58.8637 161.45C58.4356 161.205 58.0083 160.958 57.581 160.711C57.2853 160.541 56.9896 160.371 56.6939 160.202C54.1023 158.711 51.5201 157.205 48.9583 155.664C48.8584 156.889 48.8305 157.969 49.5307 159.039C51.0358 160.637 53.4381 161.646 55.3297 162.727C55.7337 162.959 56.1378 163.191 56.5419 163.423C56.9575 163.662 57.3732 163.9 57.7889 164.139C59.0846 164.882 60.378 165.629 61.6716 166.376C62.1817 166.671 62.6918 166.965 63.2019 167.259C72.3837 172.556 72.3837 172.556 73.1498 172.998C73.6564 173.291 74.1631 173.583 74.6698 173.875C75.8576 174.56 77.0449 175.245 78.2308 175.933C78.6501 176.177 79.0694 176.42 79.4889 176.663C80.0146 176.967 80.54 177.272 81.0652 177.578C84.7535 179.713 88.1583 181.08 92.4982 180.134C95.2165 179.366 97.6401 177.812 100.047 176.373C100.958 175.83 101.877 175.299 102.798 174.773C102.935 174.694 103.072 174.616 103.213 174.535C103.898 174.144 104.583 173.753 105.268 173.363C105.52 173.219 105.772 173.075 106.032 172.926C106.257 172.798 106.481 172.67 106.713 172.538C107.816 171.851 108.68 171.231 109.229 170.026C109.325 169.298 109.325 169.298 109.297 168.52C109.295 168.237 109.293 167.954 109.291 167.662C109.282 167.223 109.282 167.223 109.273 166.774C109.268 166.327 109.268 166.327 109.263 165.871C109.255 165.137 109.243 164.403 109.229 163.669C109.075 163.769 108.921 163.87 108.762 163.973C107.137 165.022 105.478 165.987 103.784 166.921C102.02 167.9 100.265 168.89 98.5312 169.923C94.2638 172.446 90.4528 173.571 85.4454 172.445C83.5098 171.88 81.7691 170.793 80.0351 169.79C79.8199 169.666 79.6047 169.543 79.3829 169.415C78.2078 168.738 77.0368 168.054 75.8682 167.366C74.3684 166.483 72.8619 165.612 71.3536 164.743C71.0995 164.597 70.8453 164.45 70.5834 164.299C70.0677 164.002 69.5521 163.705 69.0364 163.408C67.7582 162.671 66.4807 161.934 65.203 161.197C64.6929 160.903 64.1828 160.608 63.6727 160.314C62.6525 159.725 61.6323 159.137 60.6121 158.548C60.3592 158.402 60.1063 158.256 59.8457 158.106C59.3398 157.814 58.8339 157.522 58.3281 157.23C57.1331 156.54 55.9377 155.851 54.7407 155.165C54.1754 154.841 53.6103 154.516 53.0452 154.192C52.6464 153.963 52.2471 153.735 51.8479 153.506C51.6063 153.367 51.3647 153.229 51.1158 153.086C50.9033 152.964 50.6907 152.842 50.4717 152.717C49.9399 152.393 49.4488 152.045 48.9583 151.662Z" fill="#64748B"/>
<path d="M49.1933 160.605C51.1835 161.733 53.1628 162.879 55.138 164.033C57.9154 165.656 60.7008 167.265 63.4881 168.871C64.7663 169.607 66.0438 170.344 67.3215 171.081C67.8316 171.376 68.3417 171.67 68.8518 171.964C71.9124 173.73 71.9124 173.73 72.6784 174.172C73.1855 174.465 73.6927 174.757 74.2001 175.049C75.3822 175.73 76.5634 176.413 77.7413 177.101C78.155 177.343 78.569 177.584 78.9831 177.825C79.4999 178.126 80.0162 178.428 80.5318 178.731C84.51 181.043 88.1123 182.158 92.7186 181.41C95.5417 180.66 97.9474 179.067 100.424 177.564C102.004 176.618 103.612 175.718 105.215 174.811C105.621 174.58 106.028 174.349 106.434 174.118C106.667 173.986 106.9 173.854 107.14 173.718C107.855 173.295 108.54 172.843 109.228 172.376C109.814 173.548 110.187 174.58 109.934 175.908C109.333 177.713 107.826 178.481 106.248 179.364C105.593 179.733 104.943 180.11 104.292 180.488C103.235 181.101 102.176 181.711 101.115 182.318C100.17 182.86 99.2315 183.41 98.3008 183.977C95.3519 185.765 92.8146 186.795 89.3195 186.855C89.0235 186.862 89.0235 186.862 88.7214 186.869C85.9172 186.84 83.5447 185.773 81.1972 184.324C80.7035 184.028 80.2097 183.732 79.7156 183.437C79.4603 183.283 79.2049 183.129 78.9418 182.971C77.7374 182.253 76.5192 181.56 75.3001 180.867C74.6032 180.471 73.9071 180.074 73.2109 179.677C73.0732 179.598 72.9354 179.519 72.7934 179.438C70.5894 178.18 68.393 176.909 66.1956 175.639C65.1783 175.051 64.1606 174.464 63.1429 173.877C62.6348 173.584 62.1269 173.291 61.6189 172.998C60.3064 172.24 58.9932 171.484 57.6789 170.729C53.0246 168.055 53.0246 168.055 51.3564 167.05C51.0336 166.856 51.0336 166.856 50.7043 166.658C49.5622 165.85 48.751 164.98 48.2516 163.665C48.0801 162.293 48.4108 161.708 49.1933 160.605Z" fill="#373D4D"/>
<path d="M67.0866 165.55C67.9418 165.871 68.7133 166.256 69.5025 166.715C69.7434 166.855 69.9844 166.995 70.2327 167.139C70.4909 167.289 70.7492 167.44 71.0153 167.595C71.2875 167.753 71.5597 167.911 71.832 168.069C72.3988 168.398 72.9654 168.727 73.5318 169.057C75.6228 170.273 77.7178 171.482 79.8157 172.686C80.4567 173.055 81.095 173.429 81.7329 173.804C85.4601 175.972 89.0397 176.851 93.3499 175.729C95.946 174.799 98.323 173.269 100.626 171.773C101.224 171.436 101.224 171.436 101.93 171.436C101.93 171.669 101.93 171.902 101.93 172.142C101.116 172.627 100.301 173.108 99.4831 173.586C99.0725 173.828 98.6632 174.071 98.254 174.315C94.4689 176.526 90.45 177.894 86.0387 176.851C82.4982 175.706 79.2804 173.532 76.1001 171.655C74.5071 170.719 72.9037 169.802 71.3019 168.882C69.8086 168.022 68.3249 167.149 66.8511 166.256C66.9288 166.023 67.0065 165.79 67.0866 165.55Z" fill="#64748B"/>
<path d="M62.6128 148.363C63.5238 148.502 64.1939 148.773 64.9938 149.226C65.3427 149.422 65.3427 149.422 65.6986 149.623C65.9477 149.765 66.1967 149.908 66.4533 150.055C66.7143 150.203 66.9753 150.35 67.2442 150.503C69.4647 151.764 71.6713 153.049 73.8739 154.341C74.9104 154.949 75.9499 155.551 76.9915 156.149C77.1305 156.229 77.2695 156.309 77.4127 156.391C78.0862 156.778 78.7599 157.165 79.4341 157.551C82.0411 159.048 82.0411 159.048 82.8598 159.663C82.8598 159.819 82.8598 159.974 82.8598 160.134C81.6348 160.018 80.7657 159.565 79.7404 158.927C79.3835 158.712 79.0263 158.496 78.669 158.281C78.474 158.163 78.2789 158.045 78.078 157.923C76.8997 157.218 75.7074 156.537 74.5168 155.852C73.9919 155.55 73.4671 155.247 72.9423 154.944C71.9874 154.395 71.0321 153.845 70.0761 153.297C69.6637 153.061 69.2515 152.824 68.8392 152.587C68.325 152.292 67.8105 151.997 67.2957 151.703C66.0967 151.013 64.9066 150.311 63.7302 149.584C63.5155 149.451 63.3007 149.319 63.0795 149.182C62.9255 149.067 62.7715 148.952 62.6128 148.833C62.6128 148.678 62.6128 148.523 62.6128 148.363Z" fill="#64748B"/>
<path d="M66.6158 146.011C67.4142 146.169 68.031 146.476 68.7383 146.875C68.9718 147.006 69.2053 147.137 69.4459 147.272C69.8222 147.485 69.8222 147.485 70.2061 147.703C70.467 147.85 70.7279 147.997 70.9966 148.149C73.2588 149.429 75.5057 150.734 77.7463 152.051C78.6376 152.574 79.533 153.089 80.4335 153.596C80.6424 153.715 80.8512 153.833 81.0664 153.955C81.4577 154.176 81.8499 154.395 82.2433 154.613C82.4151 154.711 82.5869 154.808 82.7639 154.909C82.9141 154.992 83.0643 155.076 83.2191 155.163C83.5668 155.428 83.5668 155.428 83.8022 156.134C82.8912 155.995 82.2212 155.724 81.4212 155.271C81.1885 155.14 80.9558 155.009 80.716 154.874C80.4671 154.731 80.2182 154.589 79.9617 154.442C79.7019 154.295 79.4421 154.148 79.1744 153.996C76.9177 152.715 74.6742 151.41 72.4372 150.094C71.5435 149.57 70.6451 149.055 69.7407 148.549C69.5309 148.431 69.321 148.313 69.1047 148.191C68.7105 147.969 68.3152 147.75 67.9186 147.532C67.4726 147.28 67.0421 147.001 66.6158 146.717C66.6158 146.484 66.6158 146.251 66.6158 146.011Z" fill="#64748B"/>
<path d="M89.2165 159.195C90.3436 159.33 91.1592 159.816 92.1153 160.387C92.2672 160.475 92.4191 160.564 92.5756 160.656C92.9478 160.873 93.3189 161.093 93.6897 161.314C93.612 161.547 93.5343 161.78 93.4543 162.02C92.4574 161.659 91.5727 161.161 90.6733 160.607C90.5326 160.523 90.3919 160.44 90.247 160.353C89.8948 160.138 89.5544 159.903 89.2165 159.666C89.2165 159.51 89.2165 159.355 89.2165 159.195Z" fill="#64748B"/>
<path d="M107.816 168.374C107.04 169.243 106.259 169.741 105.226 170.258C104.915 170.258 104.604 170.258 104.284 170.258C104.591 169.335 104.943 169.241 105.785 168.786C106.015 168.659 106.245 168.531 106.482 168.4C107.109 168.139 107.109 168.139 107.816 168.374Z" fill="#64748B"/>
<path d="M105.697 168.845C105.852 168.923 106.007 169.001 106.167 169.081C106.02 169.537 106.02 169.537 105.697 170.022C104.961 170.199 104.961 170.199 104.284 170.258C104.519 169.551 104.519 169.551 105.093 169.139C105.292 169.042 105.492 168.945 105.697 168.845Z" fill="#64748B"/>
<path d="M69.882 183.776C71.0681 184.31 72.1835 184.982 73.309 185.635C73.5414 185.768 73.7737 185.901 74.0131 186.038C75.9387 187.143 75.9387 187.143 76.8209 187.737C78.2495 188.684 79.2177 188.947 80.9327 188.779C82.6768 188.806 84.3286 190.079 85.8051 190.926C86.0541 191.068 86.3032 191.21 86.5598 191.357C88.4542 192.442 90.3356 193.548 92.2121 194.664C93.9567 195.702 95.7102 196.722 97.4672 197.737C99.6662 199.008 101.857 200.292 104.042 201.588C105.674 202.556 107.308 203.518 108.945 204.477C109.188 204.619 109.43 204.761 109.68 204.907C110.968 205.661 112.258 206.408 113.555 207.146C121.163 211.487 129.625 216.525 133.636 224.765C134.572 226.685 135.588 228.067 137.152 229.515C137.872 230.231 138.137 230.673 138.263 231.678C138.158 232.549 137.87 232.905 137.274 233.527C136.591 233.874 135.979 233.857 135.238 233.757C134.802 233.608 134.368 233.453 133.936 233.294C132.322 232.778 130.816 232.761 129.145 232.823C118.71 233.179 110.025 227.717 101.312 222.515C100.912 222.277 100.513 222.039 100.113 221.801C99.2308 221.275 98.3488 220.748 97.4672 220.221C97.3739 220.32 97.2806 220.42 97.1844 220.522C96.4609 221.23 96.0318 221.57 95.0217 221.757C93.8155 221.654 92.8395 221.028 91.8128 220.422C91.4891 220.236 91.4891 220.236 91.1588 220.047C90.4695 219.651 89.7838 219.248 89.0988 218.844C88.8791 218.716 88.6594 218.587 88.433 218.454C87.3102 217.796 86.1901 217.132 85.0718 216.466C83.6384 215.612 82.1992 214.768 80.7586 213.926C80.5144 213.783 80.2701 213.64 80.0185 213.493C79.5232 213.204 79.0278 212.914 78.5324 212.625C77.062 211.765 75.5921 210.905 74.1224 210.044C72.9891 209.381 71.8554 208.718 70.7202 208.057C70.3225 207.826 69.9249 207.594 69.5273 207.363C69.0316 207.074 68.5357 206.786 68.0395 206.498C61.7241 202.816 61.7241 202.816 60.7131 199.42C60.4437 198.133 60.5681 196.948 60.8271 195.672C60.7152 195.332 60.7152 195.332 60.6009 194.984C60.29 191.68 61.4933 188.762 63.5059 186.193C65.1859 184.356 67.3912 182.823 69.882 183.776Z" fill="#64748B"/>
<path d="M64.1265 203.795C64.3096 203.9 64.4928 204.005 64.6814 204.113C66.0292 204.883 67.3795 205.648 68.7404 206.395C71.0049 207.639 73.2382 208.933 75.4695 210.234C77.674 211.52 79.8887 212.788 82.1021 214.059C82.8569 214.492 83.6111 214.927 84.3652 215.361C90.0484 219.411 90.0484 219.411 96.33 221.091C96.9726 220.545 96.9726 220.545 97.472 219.953C98.4368 219.953 99.0962 220.427 99.913 220.892C100.182 221.043 100.182 221.043 100.457 221.197C101.965 222.046 103.458 222.92 104.952 223.793C109.056 226.185 113.133 228.468 117.571 230.194C117.725 230.254 117.879 230.314 118.038 230.376C119.012 230.746 119.993 231.052 120.997 231.332C121.151 231.376 121.305 231.42 121.465 231.466C125.28 232.519 129.18 232.334 133.101 232.242C133.101 232.317 133.101 232.392 133.101 232.47C132.574 232.47 132.046 232.47 131.503 232.47C132.321 234.44 133.273 235.719 134.862 237.097C135.509 237.847 135.617 238.315 135.614 239.297C135.346 239.741 135.346 239.741 134.929 239.98C134.468 240.013 134.468 240.013 133.958 239.937C133.792 239.915 133.626 239.893 133.455 239.871C132.873 239.752 132.873 239.752 132.146 239.521C131.239 239.288 130.473 239.243 129.538 239.243C129.204 239.24 128.869 239.237 128.535 239.234C128.276 239.233 128.276 239.233 128.011 239.231C124.704 239.201 121.647 238.971 118.484 237.932C118.33 237.883 118.177 237.835 118.018 237.785C113.347 236.29 109.042 233.811 104.85 231.32C103.58 230.573 102.299 229.845 101.018 229.118C100.59 228.875 100.163 228.632 99.7357 228.388C98.5021 227.675 98.5021 227.675 97.2436 227.008C97.2083 227.332 97.2083 227.332 97.1722 227.662C97.0152 228.373 97.0152 228.373 96.33 228.828C94.9795 228.781 94.0526 228.31 92.9184 227.648C92.742 227.548 92.5656 227.447 92.3839 227.344C91.7942 227.007 91.207 226.667 90.6202 226.325C90.312 226.146 90.312 226.146 89.9976 225.964C89.1073 225.448 88.2176 224.931 87.329 224.413C85.5402 223.369 83.7425 222.341 81.9412 221.318C79.7238 220.059 77.5127 218.79 75.3116 217.503C74.1014 216.796 72.8867 216.098 71.6653 215.41C71.3956 215.258 71.1259 215.105 70.8562 214.952C70.3441 214.663 69.8311 214.375 69.317 214.089C67.1669 212.871 65.3297 211.613 64.2978 209.299C64.0318 208.173 64.0112 207.062 64.255 205.928C64.3921 205.187 64.2434 204.535 64.1265 203.795Z" fill="#030712"/>
<path d="M117.435 210.376C118.275 210.856 119.079 211.368 119.878 211.914C120.109 212.071 120.109 212.071 120.344 212.23C122.656 213.818 124.824 215.546 126.873 217.477C126.992 217.59 127.112 217.702 127.235 217.818C129.647 220.112 131.638 222.709 132.965 225.822C132.765 225.947 132.564 226.071 132.358 226.199C131.245 226.964 130.405 227.956 130.032 229.299C129.986 229.62 129.945 229.942 129.908 230.265C129.874 230.558 129.841 230.851 129.806 231.154C123.487 231.346 118.086 229.604 112.433 226.75C112.243 226.654 112.052 226.559 111.856 226.46C111.292 226.173 110.734 225.877 110.177 225.576C110.008 225.489 109.839 225.402 109.665 225.313C108.471 224.644 107.881 223.916 107.469 222.577C106.943 219.137 108.308 216.086 110.177 213.305C111.975 211.071 114.551 209.102 117.435 210.376Z" fill="#030712"/>
<path d="M82.3334 189.914C82.8114 190.155 83.266 190.42 83.7235 190.699C83.898 190.801 84.0726 190.903 84.2524 191.008C84.6357 191.232 85.018 191.459 85.3993 191.686C86.0491 192.074 86.7018 192.457 87.3553 192.838C88.2883 193.383 89.2196 193.931 90.1498 194.481C91.0423 195.008 91.9382 195.527 92.8385 196.04C93.1438 196.215 93.1438 196.215 93.4552 196.394C93.8382 196.612 94.2219 196.83 94.6065 197.046C95.0371 197.292 95.4577 197.557 95.8757 197.825C95.8757 197.977 95.8757 198.129 95.8757 198.286C95.7341 198.348 95.5925 198.41 95.4466 198.474C93.4086 199.423 91.7332 200.691 90.6021 202.671C89.8494 202.518 89.2614 202.238 88.5922 201.863C88.3883 201.749 88.1843 201.635 87.9742 201.518C87.7632 201.399 87.5522 201.279 87.3347 201.157C87.1202 201.037 86.9056 200.917 86.6845 200.793C86.1555 200.497 85.6271 200.2 85.0992 199.902C85.3757 200.737 85.5526 200.788 86.2958 201.201C86.4906 201.311 86.6853 201.421 86.886 201.535C87.0908 201.648 87.2957 201.761 87.5067 201.878C87.9109 202.103 88.3146 202.329 88.7176 202.557C88.8975 202.656 89.0773 202.756 89.2626 202.858C89.6849 203.133 89.6849 203.133 89.9142 203.594C89.7232 204.079 89.5089 204.553 89.2837 205.022C89.1566 205.291 89.0295 205.559 88.8985 205.836C88.7797 206.086 88.6609 206.337 88.5385 206.595C88.3024 207.131 88.0756 207.669 87.8506 208.21C86.9085 207.92 86.0956 207.569 85.2461 207.068C85.0119 206.931 84.7778 206.794 84.5365 206.653C84.2871 206.505 84.0377 206.357 83.7808 206.205C83.3842 205.973 82.9875 205.74 82.5908 205.507C82.1775 205.265 81.7646 205.022 81.3517 204.779C79.9913 203.979 78.6255 203.189 77.2604 202.397C76.7747 202.115 76.289 201.833 75.8032 201.551C74.8524 200.999 73.9005 200.449 72.947 199.902C72.7282 197.964 73.6959 196.281 74.552 194.594C75.8048 194.944 76.8197 195.548 77.9196 196.224C78.2641 196.434 78.6089 196.643 78.9541 196.852C79.1051 196.944 79.256 197.037 79.4115 197.132C79.8565 197.397 79.8565 197.397 80.5134 197.594C80.5134 197.365 80.5134 197.137 80.5134 196.901C80.3683 196.85 80.2232 196.798 80.0737 196.745C79.0865 196.319 78.1667 195.787 77.2318 195.257C77.0401 195.149 76.8484 195.041 76.651 194.93C76.1802 194.664 75.7099 194.399 75.2399 194.132C75.963 192.101 77.5588 191.135 79.3303 190.044C80.3677 189.619 81.2843 189.519 82.3334 189.914Z" fill="#030712"/>
<path d="M63.7869 196.066C64.4819 196.378 64.4819 196.378 65.1761 196.778C65.4363 196.927 65.6964 197.075 65.9644 197.227C66.243 197.39 66.5216 197.552 66.8001 197.714C67.0921 197.882 67.3843 198.049 67.6766 198.216C68.4166 198.64 69.1547 199.066 69.8924 199.494C70.5107 199.852 71.1304 200.207 71.7502 200.563C72.4279 200.952 73.1056 201.341 73.7826 201.731C75.5677 202.758 77.3618 203.77 79.1586 204.778C81.4199 206.046 83.6759 207.323 85.9192 208.622C87.0138 209.255 88.1113 209.881 89.2218 210.486C89.6361 210.712 90.0494 210.94 90.4625 211.168C90.9839 211.455 91.507 211.739 92.0321 212.019C94.0898 213.158 95.9555 214.617 96.6264 216.928C96.8319 218.651 96.8319 218.651 96.3735 219.41C95.8145 219.747 95.4265 219.734 94.791 219.611C93.7048 219.256 92.7512 218.629 91.7791 218.046C91.2773 217.751 90.7754 217.456 90.2734 217.162C90.0149 217.009 89.7565 216.856 89.4902 216.699C88.2376 215.964 86.9733 215.25 85.709 214.535C85.2001 214.247 84.6912 213.958 84.1824 213.669C83.8033 213.454 83.8033 213.454 83.4166 213.235C82.1522 212.518 80.8883 211.8 79.6244 211.082C79.1197 210.796 78.6151 210.509 78.1105 210.222C77.1012 209.649 76.092 209.076 75.0827 208.503C74.8326 208.361 74.5824 208.219 74.3247 208.073C73.8236 207.788 73.3225 207.503 72.8216 207.218C71.6475 206.55 70.4723 205.884 69.2923 205.227C68.8754 204.994 68.4588 204.761 68.0424 204.527C67.5204 204.235 66.9976 203.943 66.4739 203.654C62.9995 201.702 62.9995 201.702 62.1857 199.921C62.095 199.728 62.0043 199.536 61.9109 199.338C61.4939 198.352 61.3802 197.594 61.4578 196.525C61.9955 195.529 62.7975 195.87 63.7869 196.066Z" fill="#030712"/>
<path d="M90.6838 204.679C91.5746 204.811 92.2115 205.056 92.9834 205.501C93.2017 205.626 93.4201 205.75 93.6451 205.879C93.8796 206.015 94.1142 206.151 94.3558 206.291C94.8625 206.581 95.3694 206.87 95.8763 207.16C96.1388 207.31 96.4012 207.461 96.6717 207.616C97.9659 208.353 99.27 209.074 100.573 209.796C103.148 211.227 105.7 212.69 108.239 214.178C108.09 215.062 107.808 215.805 107.434 216.623C106.448 218.892 106.307 220.781 106.366 223.224C103.964 222.014 101.607 220.742 99.2883 219.388C98.9292 219.184 98.5609 218.994 98.1914 218.807C97.7059 218.475 97.7059 218.475 97.5221 218.027C97.49 217.78 97.49 217.78 97.4572 217.528C97.1314 215.746 96.268 214.281 94.8971 213.047C93.9737 212.434 93.0081 211.906 92.0297 211.379C91.772 211.237 91.5144 211.095 91.2489 210.949C90.0418 210.281 90.0418 210.281 88.8113 209.655C89.1734 207.814 89.617 206.256 90.6838 204.679Z" fill="#030712"/>
<path d="M98.1497 199.447C99.1736 199.889 100.105 200.477 101.049 201.075C101.322 201.243 101.595 201.411 101.869 201.578C102.433 201.923 102.995 202.27 103.557 202.619C104.851 203.421 106.164 204.19 107.474 204.965C109.508 206.177 111.531 207.405 113.537 208.667C113.314 209.128 113.314 209.128 112.547 209.489C110.781 210.365 109.367 211.919 108.185 213.508C106.422 212.622 104.714 211.674 103.028 210.641C102.561 210.357 102.095 210.074 101.628 209.79C101.388 209.644 101.148 209.498 100.901 209.348C99.6396 208.585 98.3715 207.835 97.1044 207.083C95.203 205.952 93.3128 204.81 91.4597 203.596C92.6579 200.971 95.2811 198.978 98.1497 199.447Z" fill="#030712"/>
<path d="M69.6887 184.716C69.9422 184.861 70.1957 185.006 70.457 185.156C70.595 185.234 70.7331 185.312 70.8754 185.392C71.3145 185.642 71.751 185.895 72.1876 186.148C72.4789 186.314 72.7704 186.479 73.062 186.645C74.5007 187.463 75.9255 188.301 77.3305 189.175C77.1771 189.325 77.0236 189.475 76.8656 189.629C76.7592 189.735 76.6528 189.84 76.5432 189.949C76.2822 190.201 76.0146 190.447 75.7424 190.688C73.61 192.63 72.3843 194.974 71.5211 197.654C71.2869 198.269 71.2869 198.269 70.822 198.496C70.2579 198.24 70.2579 198.24 69.5544 197.846C69.3 197.705 69.0456 197.563 68.7835 197.418C68.5138 197.266 68.2441 197.114 67.9745 196.961C67.4504 196.669 66.9262 196.376 66.4019 196.084C66.1687 195.953 65.9355 195.821 65.6952 195.686C64.2352 194.854 64.2352 194.854 62.6137 194.503C62.3308 194.47 62.048 194.437 61.7566 194.404C61.2634 193.439 61.4191 192.307 61.683 191.292C62.6739 188.461 64.2828 185.902 67.0901 184.535C68.0516 184.263 68.7741 184.318 69.6887 184.716Z" fill="#DB46EF"/>
</svg>
