<svg width="75" height="72" viewBox="0 0 75 72" fill="none" xmlns="http://www.w3.org/2000/svg">
<path d="M51.1902 6.43886C56.334 10.4191 59.6155 15.5867 60.9932 21.945C61.0013 22.382 61.003 22.8193 60.9932 23.2563C60.8221 23.2215 60.651 23.1867 60.4748 23.1508C60.131 23.0813 60.131 23.0813 59.7802 23.0104C59.5551 22.9648 59.3299 22.9192 59.0979 22.8721C58.8579 22.8258 58.6179 22.7795 58.3706 22.7318C58.1251 22.6841 57.8797 22.6364 57.6268 22.5873C52.0472 21.7952 46.8215 23.356 42.2786 26.5978C40.5367 27.9339 38.4897 29.6557 38.1765 31.9109C39.0185 31.8312 39.3933 31.749 39.9826 31.1231C40.1385 30.9017 40.2943 30.6802 40.4549 30.4521C42.9913 27.1377 46.934 24.8384 51.0273 24.0431C51.314 23.9836 51.6006 23.9241 51.896 23.8628C57.341 23.4013 62.1007 24.6843 66.4515 28.0589C69.654 30.8252 72.3102 34.9685 72.7949 39.2542C72.9854 42.2776 73.0396 45.2874 72.0081 48.171C71.9412 48.3857 71.8742 48.6004 71.8053 48.8216C71.0822 50.9079 69.6739 53.4862 67.8119 54.7275C67.8498 54.5649 67.8877 54.4023 67.9267 54.2348C69.1634 48.3345 67.5768 42.6331 64.9732 37.3364C64.6711 36.8089 64.6711 36.8089 63.878 36.6316C63.944 36.7647 64.01 36.8978 64.0781 37.0349C65.365 39.6456 66.5957 42.1843 67.2874 45.0239C67.3459 45.2616 67.4044 45.4992 67.4646 45.7441C68.1928 49.1572 67.9035 52.3561 66.6973 55.6127C64.9761 58.1945 61.5686 59.5398 58.6328 60.235C53.1641 61.049 48.3841 60.3361 43.7495 57.1104C42.0193 55.7863 40.3247 54.2553 39.3075 52.3057C38.7451 51.4737 38.7451 51.4737 37.6745 51.4063C37.2627 51.4036 36.8508 51.4074 36.439 51.4165C29.6589 51.3094 23.4149 48.5781 18.5972 43.8099C17.1147 42.2405 15.9268 40.5883 14.8354 38.7297C14.689 38.4964 14.5426 38.2631 14.3918 38.0228C14.0486 37.4184 14.0486 37.4184 14.0486 36.8938C13.8579 36.8742 13.6672 36.8546 13.4708 36.8344C10.0033 36.381 7.5646 34.9031 5.13172 32.4354C4.9779 32.2843 4.82408 32.1332 4.6656 31.9775C2.08897 29.2435 1.54393 25.6092 1.64141 22.0034C1.83273 18.4604 3.82079 15.4126 6.3457 13.0282C9.08358 10.7188 12.3085 9.62305 15.8844 9.88103C15.7221 10.1204 15.7221 10.1204 15.5566 10.3646C12.7162 14.6758 10.4882 19.3159 10.3769 24.5676C10.8097 24.6542 11.2424 24.7407 11.6882 24.8299C11.7109 24.5726 11.7335 24.3153 11.7569 24.0503C12.4466 17.1073 15.8439 11.17 21.2423 6.73493C21.8873 6.26016 22.5415 5.83569 23.2277 5.4226C23.6537 5.1655 23.6537 5.1655 24.0882 4.90321C26.7209 3.40281 28.9032 3.16754 31.8549 3.9529C35.3679 4.99213 38.1887 6.87382 40.8923 9.29811C41.5485 9.92221 41.5485 9.92221 42.3727 10.1433C39.2441 5.96809 34.3864 4.10258 29.5219 2.8C35.8996 -0.726282 45.8045 2.58619 51.1902 6.43886Z" fill="white"/>
<path d="M53.3213 6.07901C53.7832 6.46901 54.2424 6.8621 54.6982 7.25919C54.8622 7.40084 55.0261 7.54249 55.1951 7.68843C59.0265 11.2507 62.3712 17.2857 62.5916 22.5584C62.5831 23.0535 62.5745 23.5487 62.566 24.0438C62.7983 24.1152 63.0305 24.1865 63.2698 24.26C67.3858 25.7193 70.5841 29.4381 72.5319 33.2229C74.7694 37.9274 75.2945 43.5246 73.6544 48.5346C73.1168 50.0069 72.3959 51.3771 71.6017 52.7255C71.1238 53.5528 71.1238 53.5528 70.9583 54.466C71.3471 54.9646 71.3471 54.9646 71.909 55.4167C73.6552 57.0833 74.4346 58.6203 74.5152 61.0553C74.4001 63.7861 73.1964 65.4769 71.2206 67.3168C65.1857 71.8795 57.1086 72.6084 49.7952 71.6051C45.5857 70.8711 41.8696 69.1388 38.7003 66.2677C38.535 65.9731 38.535 65.9731 38.3663 65.6725C37.6994 65.0041 37.0969 65.0993 36.1795 65.0869C35.9457 65.0871 35.712 65.0873 35.4712 65.0876C28.3454 64.9115 21.1509 63.0685 15.6214 58.3999C15.3942 58.2431 15.167 58.0862 14.933 57.9246C13.0357 56.1771 11.3553 53.3677 11.1097 50.7514C11.1057 50.5384 11.1016 50.3254 11.0974 50.106C11.0873 49.7926 11.0873 49.7926 11.0769 49.4728C11.1992 48.3697 11.5717 47.3753 11.9498 46.336C11.806 46.282 11.6622 46.2281 11.5141 46.1725C7.21492 44.5455 2.7881 42.8685 0.672575 38.4682C0.175452 36.9096 0.0948663 34.9102 0.635694 33.3664C0.918444 32.8296 0.918444 32.8296 1.20427 32.3788C1.73562 31.4057 1.77489 30.7874 1.4696 29.7152C1.34722 29.4015 1.22484 29.0878 1.09875 28.7645C-0.204822 25.3854 -0.427816 21.4289 0.934835 18.0119C1.03423 17.76 1.13362 17.5081 1.23602 17.2486C2.58673 14.2232 4.85403 11.7555 7.7536 10.144C7.91926 10.0457 8.08491 9.94729 8.25558 9.84593C10.0421 8.85711 12.0465 8.28735 14.0909 8.29388C16.7587 8.31341 16.7587 8.31341 18.9488 6.8658C19.1733 6.62881 19.3978 6.39182 19.6291 6.14765C28.4512 -2.81395 44.1835 -1.22631 53.3213 6.07901ZM29.5212 2.5385C30.3618 3.09892 30.9885 3.26155 31.9635 3.50559C36.0331 4.64859 39.7299 6.80391 42.372 10.144C41.4541 9.63146 40.6589 9.04256 39.8531 8.36867C36.4705 5.56083 32.3337 3.3118 27.8237 3.42978C24.7465 3.95457 22.0539 5.97312 19.8176 8.04597C19.5975 8.24205 19.3774 8.43813 19.1507 8.64015C14.6308 12.8727 12.0895 18.6905 11.6875 24.8306C11.2548 24.7441 10.822 24.6575 10.3762 24.5684C10.4916 19.1233 12.8828 14.3081 15.8837 9.88179C12.0808 9.60743 8.96428 10.8836 6.0653 13.2994C3.60064 15.5975 1.88467 18.5566 1.64888 21.9406C1.51638 25.9305 2.29055 29.5321 5.08957 32.5355C7.64842 35.1414 10.4341 36.5018 14.0478 36.8946C14.1205 37.0859 14.1932 37.2773 14.2681 37.4744C16.6491 43.1985 21.7831 47.1975 27.2971 49.6624C28.9584 50.2907 30.6724 50.6827 32.4061 51.0566C32.613 51.1101 32.8199 51.1635 33.033 51.2185C33.6672 51.3116 34.2142 51.3139 34.8525 51.2912C38.2479 51.2032 38.2479 51.2032 39.4594 52.2153C39.8425 52.7598 40.2062 53.3184 40.5505 53.8882C42.7265 57.4713 47.2088 59.3971 51.1054 60.3894C56.0835 61.1531 61.3604 60.0704 65.4509 57.0886C67.2632 55.5252 67.6934 53.0715 67.8737 50.7903C67.9903 45.7078 66.2371 41.0699 63.8773 36.6323C64.6641 36.8946 64.6641 36.8946 65.1056 37.6701C65.2624 38.0056 65.4155 38.3427 65.5656 38.6812C65.6461 38.8596 65.7267 39.0379 65.8097 39.2216C68.0154 44.192 69.0623 49.3551 67.8112 54.7283C70.6597 52.1387 72.6254 48.2897 72.8258 44.4126C73.0082 38.5697 71.8624 33.6523 67.8081 29.2655C64.4058 25.8224 59.5086 23.787 54.6818 23.6668C50.1599 23.8358 46.0876 25.2811 42.6342 28.24C42.474 28.3661 42.3137 28.4922 42.1486 28.6221C41.322 29.2887 40.6932 29.9231 40.11 30.8134C39.4871 31.6494 39.4871 31.6494 38.7495 31.8953C38.5602 31.9007 38.3709 31.9061 38.1758 31.9116C38.6779 30.084 39.7575 29.0403 41.0607 27.7155C41.204 27.5688 41.3473 27.422 41.495 27.2709C45.4761 23.5538 50.9342 22.2481 56.2303 22.4288C57.3651 22.512 58.4456 22.7858 59.5398 23.085C60.218 23.2899 60.218 23.2899 60.9924 23.2571C60.4665 17.6817 57.8363 12.7576 53.9114 8.83275C53.7096 8.63092 53.5078 8.42909 53.2998 8.22115C48.0105 3.20531 41.2997 1.53226 34.2081 1.71023C32.6053 1.79855 31.0706 2.12729 29.5212 2.5385Z" fill="#F3F4FE"/>
<path d="M53.3206 6.07902C53.7824 6.46901 54.2417 6.8621 54.6974 7.25919C54.8614 7.40084 55.0254 7.54249 55.1943 7.68843C59.0257 11.2507 62.3704 17.2857 62.5909 22.5584C62.5823 23.0535 62.5738 23.5487 62.5653 24.0438C62.7975 24.1152 63.0298 24.1865 63.2691 24.26C67.3851 25.7193 70.5833 29.4381 72.5311 33.223C74.7623 37.914 75.3147 43.5452 73.649 48.5386C71.6578 53.9217 67.9931 58.0318 62.8275 60.498C58.5011 62.3766 53.0177 62.9508 48.4872 61.3842C48.1998 61.2648 47.9125 61.1455 47.6164 61.0225C47.45 60.9535 47.2836 60.8845 47.1121 60.8134C43.4074 59.233 40.1301 56.8401 37.9128 53.417C37.9128 53.2439 37.9128 53.0708 37.9128 52.8925C37.4975 52.9153 37.4975 52.9153 37.0738 52.9386C30.6174 53.1818 24.4819 51.0484 19.5546 46.8605C19.3297 46.6779 19.1049 46.4954 18.8733 46.3073C16.6755 44.4458 14.849 42.2169 13.5718 39.6319C12.9276 38.5006 12.3362 38.2262 11.0967 37.8617C10.6489 37.7501 10.6489 37.7501 10.1921 37.6363C6.80126 36.7856 3.9932 34.2023 2.10504 31.3216C0.186423 27.7197 -0.552801 23.3599 0.442347 19.3559C0.593002 18.9033 0.75737 18.455 0.934085 18.0119C1.03348 17.76 1.13287 17.5081 1.23527 17.2486C2.58598 14.2232 4.85328 11.7555 7.75285 10.144C7.91851 10.0457 8.08416 9.94729 8.25484 9.84593C10.0413 8.85711 12.0457 8.28735 14.0901 8.29389C16.7579 8.31341 16.7579 8.31341 18.9481 6.8658C19.1726 6.62881 19.397 6.39182 19.6283 6.14765C28.4505 -2.81395 44.1827 -1.22631 53.3206 6.07902ZM29.5205 2.5385C30.3611 3.09892 30.9877 3.26155 31.9628 3.50559C36.0323 4.64859 39.7292 6.80391 42.3712 10.144C41.4533 9.63146 40.6581 9.04257 39.8524 8.36867C36.4697 5.56083 32.3329 3.3118 27.8229 3.42978C24.7458 3.95457 22.0531 5.97312 19.8168 8.04597C19.5967 8.24205 19.3767 8.43813 19.1499 8.64015C14.6301 12.8727 12.0887 18.6905 11.6868 24.8306C11.254 24.7441 10.8213 24.6575 10.3755 24.5684C10.4909 19.1233 12.882 14.3081 15.8829 9.88179C12.08 9.60743 8.96353 10.8836 6.06455 13.2994C3.59989 15.5975 1.88392 18.5566 1.64813 21.9406C1.51563 25.9305 2.2898 29.5321 5.08882 32.5355C7.64767 35.1414 10.4333 36.5018 14.0471 36.8946C14.1198 37.0859 14.1925 37.2773 14.2674 37.4744C16.6484 43.1985 21.7823 47.1975 27.2964 49.6624C28.9577 50.2907 30.6716 50.6827 32.4053 51.0567C32.6122 51.1101 32.8191 51.1635 33.0323 51.2185C33.6665 51.3116 34.2135 51.3139 34.8517 51.2913C38.2471 51.2032 38.2471 51.2032 39.4587 52.2153C39.8417 52.7598 40.2054 53.3184 40.5497 53.8882C42.7258 57.4713 47.2081 59.3971 51.1047 60.3894C56.0828 61.1531 61.3597 60.0704 65.4501 57.0886C67.2625 55.5252 67.6927 53.0715 67.8729 50.7903C67.9896 45.7078 66.2363 41.0699 63.8766 36.6323C64.6633 36.8946 64.6633 36.8946 65.1049 37.6701C65.2617 38.0056 65.4148 38.3428 65.5649 38.6812C65.6454 38.8596 65.7259 39.0379 65.8089 39.2216C68.0146 44.192 69.0616 49.3551 67.8105 54.7283C70.659 52.1388 72.6247 48.2897 72.825 44.4126C73.0075 38.5697 71.8616 33.6523 67.8074 29.2655C64.405 25.8224 59.5078 23.787 54.6811 23.6668C50.1592 23.8358 46.0868 25.2811 42.6335 28.24C42.4732 28.3661 42.313 28.4922 42.1479 28.6221C41.3212 29.2887 40.6925 29.9231 40.1092 30.8134C39.4863 31.6494 39.4863 31.6494 38.7487 31.8953C38.5594 31.9007 38.3701 31.9061 38.175 31.9117C38.6771 30.084 39.7568 29.0403 41.0599 27.7155C41.2033 27.5688 41.3466 27.422 41.4943 27.2709C45.4754 23.5538 50.9335 22.2481 56.2295 22.4288C57.3644 22.512 58.4449 22.7858 59.539 23.085C60.2172 23.2899 60.2172 23.2899 60.9917 23.2571C60.4657 17.6817 57.8356 12.7576 53.9107 8.83275C53.7088 8.63092 53.507 8.42909 53.2991 8.22115C48.0098 3.20531 41.2989 1.53226 34.2073 1.71023C32.6045 1.79855 31.0698 2.12729 29.5205 2.5385Z" fill="#373D4D"/>
<path d="M58.3711 29.291C60.0787 30.0343 61.5284 31.7099 62.5673 33.2249C62.5673 33.4846 62.5673 33.7442 62.5673 34.0117C61.791 33.9233 61.5365 33.769 60.9937 33.187C60.8206 32.9561 60.6475 32.7252 60.4692 32.4873C59.9475 31.7975 59.4578 31.1626 58.83 30.5665C58.3711 30.0778 58.3711 30.0778 58.3711 29.291Z" fill="#373D4D"/>
<path d="M44.2056 11.7168C45.4848 12.6083 46.5571 13.7844 47.3527 15.1262C47.2662 15.3858 47.1797 15.6455 47.0905 15.913C46.0708 15.5731 45.6746 14.9405 45.058 14.1099C44.9467 13.9676 44.8355 13.8253 44.7209 13.6786C44.4064 13.2596 44.4064 13.2596 43.9434 12.5036C44.0299 12.2439 44.1165 11.9843 44.2056 11.7168Z" fill="#373D4D"/>
</svg>
