<svg width="63" height="69" viewBox="0 0 63 69" fill="none" xmlns="http://www.w3.org/2000/svg">
<path d="M31.6758 0.01703C32.2803 0.22196 32.7933 0.467641 33.3469 0.785358C33.6616 0.964498 33.6616 0.964498 33.9827 1.14726C34.2073 1.27741 34.4319 1.40756 34.6634 1.54166C35.0166 1.74388 35.0166 1.74388 35.3769 1.9502C36.128 2.38122 36.8775 2.81493 37.6265 3.24948C37.8692 3.39008 38.1119 3.53067 38.362 3.67553C39.7706 4.49247 41.1767 5.31358 42.5811 6.1376C43.2066 6.50446 43.8326 6.87045 44.4588 7.23624C44.8234 7.44968 45.188 7.66315 45.5526 7.87667C45.7185 7.97352 45.8843 8.07037 46.0552 8.17015C47.1752 8.82779 47.1752 8.82779 47.4356 9.08821C47.435 9.4302 47.4181 9.77217 47.3946 10.1134C46.7881 15.8915 46.7881 15.8915 48.1315 21.3376C49.359 22.5057 50.862 23.0033 52.4537 23.5076C53.8977 24.0253 55.1641 24.8483 56.471 25.641C56.977 25.934 57.4836 26.226 57.9909 26.5168C62.1142 28.9049 62.1142 28.9049 62.6163 29.407C62.6547 30.0935 62.6779 30.7748 62.691 31.462C62.6959 31.6777 62.7008 31.8934 62.7059 32.1157C62.7486 34.11 62.7734 36.1046 62.7928 38.0992C62.806 39.44 62.825 40.78 62.8582 42.1204C62.89 43.4155 62.9069 44.71 62.9134 46.0054C62.9185 46.4987 62.9287 46.992 62.9444 47.4851C63.0585 51.2411 63.0585 51.2411 62.3281 52.21C61.5161 52.9324 60.5863 53.2993 59.5801 53.6961C59.0592 53.975 58.5574 54.2769 58.0502 54.581C57.5241 54.8801 56.9977 55.1787 56.471 55.4769C55.9 55.801 55.3292 56.1255 54.7586 56.4503C54.5446 56.5722 54.5446 56.5722 54.3262 56.6965C53.3474 57.2548 52.3739 57.8213 51.4032 58.3935C51.1475 58.544 50.8919 58.6945 50.6285 58.8496C50.1446 59.1351 49.6614 59.4216 49.1787 59.7092C48.8542 59.9006 48.8542 59.9006 48.5231 60.0959C48.3347 60.2078 48.1464 60.3198 47.9524 60.4352C47.4431 60.6987 47.072 60.8798 46.5014 60.9361C45.9912 60.7358 45.9912 60.7358 45.4322 60.4097C45.1166 60.2284 45.1166 60.2284 44.7947 60.0435C44.5679 59.9094 44.3411 59.7752 44.1075 59.637C43.8695 59.4992 43.6314 59.3614 43.3862 59.2195C42.6324 58.7824 41.881 58.3414 41.1298 57.9C40.6674 57.6306 40.2048 57.3615 39.7422 57.0926C38.8151 56.5533 37.8889 56.0124 36.9633 55.4705C34.7213 54.1593 32.4695 52.8651 30.2189 51.5687C28.6983 50.6926 27.1783 49.8152 25.6583 48.9381C24.3876 48.2049 23.1168 47.472 21.8456 46.7398C19.1641 45.1948 16.4863 43.6438 13.8146 42.082C11.8665 40.9442 9.91271 39.8163 7.95577 38.6937C7.47734 38.4186 7.00293 38.1364 6.53201 37.8486C5.81528 37.4268 5.07722 37.111 4.30987 36.7915C0.860199 35.2425 0.860199 35.2425 0.225402 33.6364C-0.149153 31.702 0.0234276 29.7668 0.171106 27.8159C0.196912 27.2223 0.22035 26.6285 0.241353 26.0347C0.297671 24.5874 0.383293 23.1441 0.492236 21.6999C1.10922 21.3439 1.7262 20.988 2.34318 20.632C2.88608 20.3188 3.42898 20.0056 3.97187 19.6923C5.25253 18.9534 6.53323 18.2146 7.81416 17.4761C8.21827 17.2432 8.62237 17.0102 9.02647 16.7771C9.53056 16.4865 10.0347 16.1959 10.5388 15.9053C11.0053 15.6363 11.4706 15.3654 11.9347 15.0925C12.4255 14.8135 12.9251 14.5499 13.4305 14.2984C14.7694 13.6818 14.7694 13.6818 15.6476 12.5804C15.6926 12.0519 15.6677 11.5846 15.5999 11.0588C15.522 10.3648 15.4668 9.76176 15.6729 9.08821C16.2855 8.46933 17.0125 8.09692 17.7749 7.68692C18.2152 7.4274 18.6552 7.16737 19.095 6.9069C19.5839 6.62611 20.0732 6.34607 20.5629 6.06667C20.9617 5.83784 21.3605 5.60901 21.7593 5.38011C22.1736 5.14244 22.5881 4.90508 23.0026 4.66777C24.4001 3.86723 25.7948 3.0618 27.1898 2.2569C27.4458 2.1094 27.7019 1.9619 27.9657 1.80993C28.2049 1.67203 28.4441 1.53412 28.6905 1.39204C28.9002 1.27124 29.1098 1.15044 29.3258 1.02598C29.9287 0.685827 29.9287 0.685827 30.5071 0.271049C31.0872 -0.0202033 31.0872 -0.0202033 31.6758 0.01703Z" fill="#64748B"/>
<path d="M17.0742 10.9567C17.9925 11.2537 18.7946 11.5679 19.625 12.0615C19.9511 12.2537 19.9511 12.2537 20.2839 12.4499C20.6315 12.6573 20.6315 12.6573 20.9861 12.8688C21.4844 13.1631 21.9829 13.4571 22.4814 13.751C22.7412 13.9045 23.0009 14.058 23.2686 14.2162C24.9098 15.1831 26.5645 16.127 28.2163 17.0756C28.4595 17.2156 28.7027 17.3555 28.9532 17.4997C29.1683 17.6232 29.3833 17.7467 29.6049 17.874C30.0293 18.1239 30.4438 18.3906 30.8536 18.6638C30.9398 19.21 30.9398 19.21 30.9378 19.9081C30.9388 20.172 30.9397 20.436 30.9407 20.708C30.9382 20.9989 30.9357 21.2899 30.9331 21.5896C30.9333 22.0476 30.9333 22.0476 30.9334 22.5148C30.9336 23.3535 30.9295 24.192 30.9246 25.0306C30.9202 25.9065 30.9198 26.7824 30.919 27.6583C30.9168 29.3175 30.911 30.9767 30.904 32.6359C30.8962 34.5246 30.8923 36.4133 30.8888 38.302C30.8815 42.1878 30.8692 46.0736 30.8536 49.9594C30.009 49.6294 29.2413 49.26 28.4569 48.8035C28.2176 48.6647 27.9783 48.526 27.7317 48.383C27.4758 48.2337 27.2199 48.0843 26.9562 47.9304C26.5519 47.6957 26.1475 47.4611 25.7431 47.2265C25.3207 46.9813 24.8984 46.7358 24.4762 46.4902C23.196 45.746 21.9134 45.0059 20.6307 44.266C20.2316 44.0357 19.8326 43.8051 19.4337 43.5744C19.1921 43.435 18.9506 43.2955 18.7017 43.1518C18.4884 43.0285 18.2751 42.9053 18.0553 42.7783C17.7328 42.5948 17.4061 42.4182 17.0742 42.2522C17.0742 41.2503 17.0742 40.2484 17.0742 39.2161C18.6502 39.7415 18.6502 39.7415 19.3823 40.1822C19.5427 40.2778 19.7031 40.3734 19.8684 40.4719C20.035 40.5729 20.2015 40.6739 20.373 40.778C20.7246 40.9878 21.0761 41.1976 21.4277 41.4074C21.5997 41.5108 21.7718 41.6141 21.949 41.7206C22.6477 42.1399 23.349 42.5546 24.0514 42.9675C24.2676 43.0954 24.4838 43.2234 24.7065 43.3552C25.2584 43.6803 25.2584 43.6803 25.949 43.8871C25.949 43.6559 25.949 43.4247 25.949 43.1864C25.7967 43.1313 25.6444 43.0762 25.4874 43.0195C24.5627 42.6264 23.7013 42.1445 22.8253 41.6538C22.5765 41.5163 22.5765 41.5163 22.3226 41.376C21.9669 41.1777 21.6154 40.972 21.2679 40.7597C20.5651 40.3539 20.5651 40.3539 19.7039 40.0731C18.6557 39.6593 17.7618 39.1985 17.0742 38.2819C16.4159 36.3332 16.6685 34.1226 16.7321 32.0992C16.7386 31.4896 16.7436 30.88 16.7471 30.2703C16.7579 28.8332 16.7866 27.397 16.8219 25.9603C16.8611 24.3236 16.8803 22.6869 16.8979 21.0498C16.9344 17.685 16.9959 14.3208 17.0742 10.9567Z" fill="#E25AF6"/>
<path d="M7.85297 38.0804C8.59931 38.4608 9.18694 38.9185 9.83449 39.4497C10.2483 39.7092 10.6704 39.9486 11.0959 40.1883C11.5998 40.4729 12.0966 40.7675 12.5933 41.0645C14.078 41.9493 15.5689 42.8233 17.0599 43.6974C17.2051 43.7825 17.3503 43.8677 17.4999 43.9554C20.293 45.5931 23.0958 47.2138 25.9023 48.8284C27.1642 49.5547 28.4251 50.2826 29.6862 51.0104C30.1922 51.3023 30.6982 51.5943 31.2042 51.8862C34.2404 53.6378 34.2404 53.6378 35.0005 54.0764C35.5029 54.3662 36.0053 54.6561 36.5077 54.9459C37.6875 55.6265 38.8672 56.3071 40.0468 56.9879C40.4646 57.229 40.8824 57.4701 41.3002 57.7113C41.8245 58.0138 42.3488 58.3164 42.873 58.619C43.3366 58.8865 43.8009 59.1528 44.266 59.4176C44.6338 59.6324 44.9972 59.8552 45.3519 60.0911C45.8062 60.403 45.8062 60.403 46.5017 60.7027C47.4978 60.4528 48.3221 60.0313 49.2003 59.5076C49.4402 59.3658 49.6802 59.224 49.9274 59.0779C50.1746 58.9301 50.4217 58.7822 50.6764 58.6299C51.4018 58.1982 52.1277 57.7682 52.8587 57.346C53.2561 57.1134 53.649 56.8724 54.0326 56.6177C54.4971 56.3309 54.4971 56.3309 55.3766 56.0317C56.1263 56.2291 56.6993 56.6156 57.3325 57.0535C57.5046 57.1641 57.6766 57.2748 57.8539 57.3888C58.1966 57.6093 58.5376 57.8325 58.8767 58.0586C59.4902 58.4613 60.1248 58.8224 60.7628 59.1846C61.3111 59.4984 61.3111 59.4984 61.6824 59.7685C61.6824 59.9226 61.6824 60.0768 61.6824 60.2356C61.4439 60.3662 61.2055 60.4969 60.9598 60.6315C58.8538 61.7909 56.7659 62.9781 54.6905 64.1913C54.3363 64.3976 54.3363 64.3976 53.9749 64.608C52.8367 65.2719 51.7033 65.942 50.5788 66.629C50.3778 66.75 50.1768 66.8711 49.9697 66.9958C49.5951 67.2217 49.2224 67.4506 48.8518 67.6831C48.685 67.7829 48.5182 67.8827 48.3464 67.9856C48.2035 68.0736 48.0606 68.1617 47.9134 68.2524C47.0101 68.5502 46.2491 68.2774 45.4145 67.8837C45.2061 67.7605 44.9976 67.6373 44.7829 67.5103C44.4257 67.3014 44.4257 67.3014 44.0613 67.0883C43.8069 66.9368 43.5525 66.7852 43.2904 66.629C43.0202 66.4702 42.7498 66.3116 42.4794 66.1532C41.9179 65.8243 41.3571 65.4943 40.7966 65.1636C39.512 64.4067 38.2186 63.6649 36.9262 62.9214C36.4201 62.6295 35.9141 62.3376 35.4081 62.0456C35.1576 61.9011 34.9072 61.7566 34.6491 61.6077C27.8178 57.6665 20.9865 53.7254 14.1551 49.7843C13.9044 49.6396 13.6537 49.4949 13.3953 49.3459C12.8919 49.0555 12.3886 48.7651 11.8852 48.4747C10.7165 47.8004 9.54776 47.1261 8.37881 46.4522C7.96997 46.2165 7.56114 45.9808 7.15232 45.7451C6.64329 45.4515 6.13423 45.1581 5.62513 44.8647C3.98908 43.9212 2.35658 42.9718 0.726074 42.0188C5.67436 37.9956 5.67436 37.9956 7.85297 38.0804Z" fill="#373D4D"/>
<path d="M32.2551 31.0419C32.663 31.2643 33.0709 31.4868 33.4788 31.7092C33.8195 31.895 33.8195 31.895 34.1671 32.0846C36.8006 33.5218 39.4129 34.9917 42.0058 36.5011C42.3644 36.7095 42.3644 36.7095 42.7303 36.9221C42.9573 37.0547 43.1842 37.1873 43.418 37.324C43.6188 37.4412 43.8195 37.5584 44.0263 37.6792C44.2266 37.801 44.4269 37.9228 44.6332 38.0483C44.8737 38.1778 45.1141 38.3073 45.3619 38.4408C46.0345 38.9825 46.0345 38.9825 46.203 39.6978C46.1999 39.9779 46.1968 40.2579 46.1936 40.5465C46.1939 40.779 46.1939 40.779 46.1942 41.0163C46.1932 41.5271 46.1824 42.0371 46.1714 42.5478C46.1688 42.9025 46.1668 43.2573 46.1654 43.612C46.16 44.5444 46.1463 45.4764 46.1307 46.4087C46.1164 47.3605 46.11 48.3123 46.1029 49.2642C46.0879 51.1309 46.064 52.9973 46.0345 54.8639C45.2874 54.571 44.6028 54.2659 43.9171 53.8485C43.7459 53.7457 43.5748 53.6429 43.3984 53.5369C43.0431 53.3213 42.6879 53.1054 42.3329 52.8892C42.162 52.7867 41.9912 52.6842 41.8151 52.5786C41.6611 52.4849 41.5071 52.3913 41.3484 52.2948C40.8882 52.057 40.468 51.932 39.9622 51.8277C40.5231 52.4469 41.1265 52.8342 41.8471 53.2528C42.0756 53.3864 42.3041 53.5201 42.5395 53.6578C42.7776 53.7957 43.0158 53.9336 43.2611 54.0756C43.7339 54.3509 44.2064 54.6264 44.6788 54.9022C44.9932 55.0845 44.9932 55.0845 45.3139 55.2704C45.801 55.5645 45.801 55.5645 46.0345 55.7981C46.0515 56.3087 46.0541 56.8199 46.0491 57.3307C46.047 57.6104 46.0449 57.8901 46.0427 58.1783C46.04 58.3947 46.0373 58.6112 46.0345 58.8342C44.0698 57.8104 42.135 56.7494 40.2305 55.6172C39.1472 54.9737 38.0593 54.339 36.9672 53.7107C36.8291 53.6313 36.6909 53.5518 36.5487 53.4699C35.9908 53.1491 35.4328 52.8285 34.8745 52.5085C34.4829 52.284 34.0916 52.0591 33.7002 51.8341C33.4723 51.7034 33.2444 51.5728 33.0096 51.4381C32.4887 51.1271 32.4887 51.1271 32.2551 50.8935C32.2329 50.2752 32.2258 49.6631 32.2286 49.0447C32.2286 48.851 32.2285 48.6574 32.2285 48.4579C32.2287 47.8146 32.2305 47.1714 32.2323 46.5282C32.2328 46.0834 32.2331 45.6387 32.2333 45.1939C32.2342 44.021 32.2365 42.848 32.2391 41.675C32.2415 40.4791 32.2425 39.2831 32.2437 38.0871C32.2462 35.7387 32.2502 33.3903 32.2551 31.0419Z" fill="#CCFE41"/>
<path d="M60.982 31.2755C60.982 37.8265 60.982 44.3776 60.982 51.1271C59.0552 52.2061 57.1285 53.2851 55.1433 54.3968C54.119 54.9869 53.0963 55.5776 52.078 56.1776C51.4197 56.5639 50.7613 56.95 50.1026 57.3356C49.7457 57.5448 49.3894 57.7549 49.0338 57.9664C47.9548 58.6007 47.9548 58.6007 47.4362 58.6007C47.3101 57.6385 47.2681 56.7571 47.4362 55.7981C47.9902 55.0963 48.749 54.7928 49.5381 54.3968C50.0601 54.1003 50.5775 53.7969 51.0946 53.4919C51.4557 53.2792 51.8183 53.069 52.1824 52.8613C52.3502 52.7647 52.5181 52.6681 52.691 52.5686C52.9186 52.4388 52.9186 52.4388 53.1508 52.3065C53.5479 52.0767 53.5479 52.0767 53.742 51.5942C51.846 52.517 49.999 53.4768 48.1906 54.5638C47.6697 54.8639 47.6697 54.8639 47.4362 54.8639C47.3547 52.8298 47.2926 50.7962 47.2547 48.7608C47.2364 47.8154 47.2117 46.8711 47.1719 45.9264C46.9229 39.8637 46.9229 39.8637 47.7426 38.4565C48.5203 37.6724 49.4241 37.3348 50.4694 37.0321C51.2061 36.7947 51.8239 36.3899 52.4785 35.9829C52.9724 35.6979 53.4666 35.4133 53.9609 35.129C54.3509 34.9045 54.3509 34.9045 54.7487 34.6755C56.245 33.8152 57.7425 32.9569 59.245 32.1075C59.3978 32.0208 59.5505 31.9341 59.7079 31.8447C60.7205 31.2755 60.7205 31.2755 60.982 31.2755Z" fill="#CCFE41"/>
<path d="M47.0482 22.0991C47.7154 22.4228 48.3577 22.7707 49.0005 23.1404C49.261 23.2897 49.5215 23.4391 49.7899 23.5929C50.0708 23.755 50.3517 23.9171 50.6327 24.0792C50.9217 24.2453 51.2109 24.4113 51.5 24.5773C52.2518 25.0091 53.003 25.4419 53.754 25.875C54.2057 26.1355 54.6576 26.3958 55.1094 26.6561C56.8341 27.6495 58.5581 28.6443 60.2811 29.6406C59.7207 30.2608 59.1217 30.6402 58.3972 31.0528C58.0361 31.2598 58.0361 31.2598 57.6676 31.471C57.2778 31.6921 57.2778 31.6921 56.8801 31.9177C56.4718 32.1507 56.0635 32.3837 55.6553 32.6169C55.3726 32.7784 55.0897 32.9397 54.8068 33.1009C53.7992 33.6756 52.797 34.2589 51.7967 34.8462C51.5205 35.0078 51.2443 35.1693 50.968 35.3308C50.4413 35.639 49.9153 35.9484 49.39 36.2591C49.1507 36.3985 48.9114 36.538 48.6648 36.6817C48.4552 36.805 48.2456 36.9282 48.0296 37.0552C47.409 37.361 46.9594 37.5382 46.2682 37.5812C45.6746 37.3418 45.6746 37.3418 45.0393 36.9609C44.8 36.8199 44.5607 36.679 44.3142 36.5337C44.0582 36.3785 43.8023 36.2232 43.5386 36.0632C43.1338 35.8229 42.729 35.5827 42.324 35.3429C42.0436 35.1765 41.7634 35.0097 41.4835 34.8424C40.4886 34.2481 39.4862 33.6688 38.4781 33.0973C38.2005 32.9395 37.9229 32.7816 37.6453 32.6238C37.1163 32.3235 36.587 32.0239 36.0571 31.7252C35.697 31.5192 35.697 31.5192 35.3297 31.3092C35.1189 31.1896 34.908 31.07 34.6908 30.9468C34.1096 30.5655 33.6617 30.1484 33.1895 29.6406C33.4213 29.5071 33.4213 29.5071 33.6579 29.3709C36.7896 27.5674 39.9181 25.759 43.0377 23.9349C43.4608 23.6876 43.8845 23.4415 44.3089 23.1966C44.6594 22.99 45.0058 22.7762 45.3455 22.5523C46.3683 21.893 46.3683 21.893 47.0482 22.0991Z" fill="#CCFE41"/>
<path d="M32.0222 1.70249C32.3179 1.89035 32.3179 1.89035 32.6197 2.08201C32.8579 2.22441 33.096 2.36681 33.3413 2.51353C33.5994 2.67941 33.8574 2.84529 34.1232 3.0162C34.4048 3.18292 34.6873 3.34799 34.9707 3.51158C35.6192 3.88645 36.2643 4.26633 36.9075 4.65013C38.5098 5.60253 40.1281 6.52763 41.7445 7.4558C42.1327 7.67871 42.5207 7.90189 42.9086 8.12509C43.1341 8.25454 43.3596 8.384 43.5918 8.51738C44.0249 8.77209 44.4484 9.04332 44.8664 9.32203C44.8664 9.47617 44.8664 9.63031 44.8664 9.78913C44.2493 10.1452 43.6321 10.5012 43.015 10.8573C42.4738 11.1695 41.9326 11.4818 41.3914 11.7941C40.0914 12.5443 38.7912 13.2943 37.4903 14.043C37.07 14.2849 36.6498 14.5268 36.2296 14.7689C35.6982 15.0749 35.1667 15.3807 34.6351 15.6863C34.3942 15.8251 34.1533 15.9638 33.9051 16.1068C33.6931 16.2288 33.481 16.3509 33.2625 16.4766C32.8407 16.7255 32.4287 16.991 32.0212 17.2627C30.9441 17.1929 30.19 16.8512 29.2661 16.3121C29.0064 16.162 28.7466 16.0119 28.479 15.8573C28.2001 15.6933 27.9211 15.5292 27.6422 15.3651C27.3543 15.1978 27.0662 15.0307 26.778 14.8638C26.1805 14.5174 25.5837 14.1698 24.9874 13.8213C24.0935 13.2992 23.197 12.7815 22.2998 12.2651C22.1585 12.1838 22.0173 12.1025 21.8718 12.0188C21.5948 11.8594 21.3179 11.6999 21.0409 11.5405C20.0293 10.9579 19.0189 10.3734 18.0083 9.78913C18.0083 9.63498 18.0083 9.48084 18.0083 9.32203C18.1417 9.24718 18.275 9.17233 18.4125 9.09521C21.0767 7.59844 23.733 6.08928 26.3723 4.54887C26.5988 4.41667 26.8254 4.28446 27.0588 4.14826C27.2769 4.02064 27.495 3.89303 27.7197 3.76155C27.9305 3.63936 28.1413 3.51717 28.3585 3.39127C28.7858 3.13549 29.2067 2.86872 29.6213 2.59278C31.1465 1.59317 31.1465 1.59317 32.0222 1.70249Z" fill="#D946EF"/>
<path d="M1.89346 23.5684C3.58472 24.385 5.21047 25.2848 6.82718 26.2396C7.31707 26.5273 7.80697 26.815 8.2969 27.1026C8.54779 27.2502 8.79869 27.3978 9.05719 27.5499C9.84929 28.0147 10.6429 28.4768 11.437 28.9382C11.6943 29.0877 11.9515 29.2372 12.2165 29.3912C12.7143 29.6804 13.2121 29.9694 13.7102 30.2582C13.9337 30.3883 14.1571 30.5184 14.3874 30.6524C14.5853 30.7673 14.7833 30.8823 14.9872 31.0007C15.4393 31.2755 15.4393 31.2755 15.6729 31.509C15.6933 31.942 15.6978 32.3757 15.6957 32.8091C15.6949 33.0717 15.6942 33.3344 15.6934 33.605C15.6904 34.0198 15.6904 34.0198 15.6874 34.443C15.6864 34.7204 15.6853 34.9978 15.6843 35.2837C15.6815 35.9717 15.6776 36.6597 15.6729 37.3478C14.8255 37.0189 14.0806 36.6461 13.3082 36.1654C12.6828 35.7767 12.1697 35.4794 11.469 35.2458C11.469 35.477 11.469 35.7082 11.469 35.9465C11.6315 36.0064 11.7941 36.0663 11.9616 36.128C12.7137 36.4461 13.3932 36.8308 14.0964 37.2456C14.3433 37.3904 14.5901 37.5352 14.8445 37.6844C15.4393 38.0484 15.4393 38.0484 15.6729 38.2819C15.6898 38.7926 15.6924 39.3037 15.6874 39.8146C15.6853 40.0943 15.6832 40.374 15.6811 40.6621C15.6784 40.8786 15.6756 41.0951 15.6729 41.3181C14.8152 40.8534 13.9593 40.3856 13.1038 39.9168C12.9573 39.8366 12.8108 39.7565 12.6599 39.6739C10.396 38.433 8.15333 37.1577 5.92218 35.8589C5.68308 35.7199 5.44398 35.581 5.19764 35.4379C4.9707 35.3052 4.74376 35.1726 4.50994 35.036C4.30921 34.9188 4.10847 34.8015 3.90166 34.6808C3.70138 34.5589 3.5011 34.4371 3.29475 34.3116C3.0413 34.1887 2.78784 34.0657 2.52671 33.9391C1.82979 33.3209 1.79614 33.2436 1.73438 32.3709C1.7346 31.9607 1.74247 31.5504 1.75661 31.1405C1.7586 30.9241 1.76058 30.7077 1.76262 30.4847C1.77046 29.7944 1.78804 29.1047 1.80588 28.4145C1.81291 27.9462 1.8193 27.4779 1.82503 27.0096C1.84047 25.8622 1.86466 24.7154 1.89346 23.5684Z" fill="#030712"/>
<path d="M45.8007 10.9567C45.8007 14.1937 45.8007 17.4306 45.8007 20.7657C44.847 21.31 43.8932 21.8544 42.9106 22.4152C41.1076 23.4445 39.3055 24.4754 37.5079 25.5143C37.3692 25.5944 37.2306 25.6745 37.0877 25.7571C36.4246 26.1404 35.7617 26.5241 35.0991 26.9083C34.8614 27.0459 34.6236 27.1834 34.3787 27.3252C34.1708 27.4457 33.963 27.5662 33.7488 27.6904C33.259 27.9663 32.7577 28.2215 32.2549 28.4728C32.2549 25.2359 32.2549 21.9989 32.2549 18.6638C33.1316 18.158 34.0083 17.6522 34.9115 17.1311C35.2049 16.9618 35.4983 16.7925 35.8006 16.6181C37.0732 15.8838 38.3459 15.1496 39.619 14.416C40.0356 14.1758 40.4523 13.9356 40.8689 13.6954C41.3943 13.3926 41.9197 13.0898 42.4452 12.7871C42.6846 12.6491 42.9239 12.5111 43.1706 12.3689C43.3802 12.2481 43.5898 12.1273 43.8058 12.0028C44.2218 11.7607 44.6348 11.5135 45.0455 11.2625C45.5672 10.9567 45.5672 10.9567 45.8007 10.9567Z" fill="#D946EF"/>
<path d="M15.6732 14.927C15.6732 19.8596 15.6732 24.7921 15.6732 29.8741C11.6489 27.7278 11.6489 27.7278 10.2869 26.911C9.95859 26.715 9.63015 26.5192 9.30166 26.3235C9.12825 26.2201 8.95484 26.1166 8.77618 26.0101C8.12247 25.6248 7.46431 25.2478 6.80561 24.8711C6.5696 24.7349 6.33358 24.5987 6.09042 24.4584C5.62367 24.1892 5.15579 23.9219 4.68673 23.6566C4.36952 23.4725 4.36952 23.4725 4.0459 23.2846C3.85591 23.1759 3.66592 23.0673 3.47018 22.9553C3.33532 22.8493 3.20047 22.7433 3.06152 22.6341C3.06152 22.4029 3.06152 22.1717 3.06152 21.9335C3.19489 21.8586 3.32826 21.7838 3.46567 21.7067C9.11752 18.5597 9.11752 18.5597 14.665 15.235C15.2061 14.927 15.2061 14.927 15.6732 14.927Z" fill="#030712"/>
<path d="M33.8901 48.3246C34.9947 48.4457 35.719 48.7434 36.6489 49.3464C36.872 49.4879 37.0951 49.6294 37.3249 49.7751C37.8605 50.193 37.8605 50.193 38.094 50.8936C37.0253 50.7628 36.2301 50.3042 35.3352 49.7405C35.1957 49.6563 35.0561 49.5722 34.9124 49.4855C34.5625 49.2683 34.225 49.0314 33.8901 48.7917C33.8901 48.6375 33.8901 48.4834 33.8901 48.3246Z" fill="#64748B"/>
<path d="M5.63052 31.7426C6.79175 32.1546 7.83391 32.7687 8.90021 33.3774C8.82314 33.6086 8.74607 33.8398 8.66666 34.078C7.50543 33.666 6.46327 33.0518 5.39697 32.4432C5.47404 32.212 5.55112 31.9808 5.63052 31.7426Z" fill="#64748B"/>
</svg>
