<svg width="202" height="240" viewBox="0 0 202 240" fill="none" xmlns="http://www.w3.org/2000/svg">
<path d="M48.5193 10.2978C49.6699 10.8413 50.7637 11.4745 51.8616 12.1164C52.1116 12.2611 52.3616 12.4056 52.6117 12.55C53.1242 12.8463 53.6363 13.1433 54.148 13.4411C55.0711 13.9781 55.9967 14.5106 56.9222 15.0435C57.5784 15.4214 58.2341 15.8001 58.8897 16.1789C59.7737 16.6898 60.6581 17.2 61.5428 17.7096C63.6764 18.9388 65.8077 20.1716 67.9331 21.4149C69.704 22.4507 71.4823 23.4731 73.2647 24.4889C75.2486 25.6195 77.2258 26.7611 79.1968 27.9141C81.3445 29.1701 83.5002 30.4121 85.6562 31.654C86.7641 32.2924 87.8716 32.9315 88.9791 33.5706C89.4212 33.8257 89.8634 34.0808 90.3056 34.3359C103.571 41.989 116.836 49.6421 130.102 57.2951C130.321 57.4214 130.539 57.5477 130.765 57.6778C131.207 57.9328 131.649 58.1877 132.091 58.4427C133.201 59.0833 134.311 59.7237 135.422 60.3636C137.555 61.5926 139.686 62.8251 141.811 64.0681C143.703 65.1747 145.604 66.2652 147.508 67.3503C149.361 68.4063 151.205 69.475 153.045 70.553C154.363 71.3239 155.687 72.084 157.015 72.8384C158.216 73.5211 159.415 74.2078 160.612 74.8972C160.73 74.9654 160.849 75.0336 160.971 75.1038C161.781 75.5706 162.587 76.0427 163.393 76.5172C163.597 76.6351 163.801 76.7531 164.011 76.8746C167.786 79.118 170.408 82.4788 172.041 86.5299C172.101 86.6799 172.162 86.8298 172.224 86.9843C173.194 89.6263 173.12 92.4043 173.115 95.1743C173.116 95.5934 173.117 96.0125 173.118 96.4315C173.121 97.5776 173.121 98.7238 173.12 99.8699C173.12 101.108 173.122 102.346 173.124 103.584C173.128 106.008 173.129 108.431 173.129 110.854C173.129 112.824 173.13 114.793 173.131 116.763C173.132 117.33 173.132 117.898 173.133 118.466C173.133 118.678 173.133 118.678 173.133 118.894C173.135 122.861 173.137 126.828 173.137 130.795C173.137 130.945 173.137 131.094 173.137 131.248C173.137 132.005 173.137 132.763 173.137 133.52C173.137 133.745 173.137 133.746 173.137 133.976C173.137 134.28 173.137 134.584 173.137 134.888C173.136 139.622 173.139 144.356 173.145 149.09C173.151 154.413 173.155 159.735 173.154 165.058C173.154 165.625 173.154 166.193 173.154 166.76C173.154 166.97 173.154 166.97 173.154 167.184C173.154 169.431 173.157 171.678 173.16 173.925C173.164 176.184 173.164 178.442 173.162 180.7C173.16 181.923 173.16 183.146 173.164 184.369C173.167 185.489 173.166 186.608 173.163 187.728C173.162 188.133 173.163 188.538 173.165 188.942C173.179 191.512 173.12 193.816 171.428 195.918C170.766 196.484 170.09 196.945 169.334 197.376C169.125 197.496 168.917 197.615 168.702 197.739C168.478 197.866 168.253 197.993 168.023 198.125C167.785 198.261 167.547 198.397 167.31 198.533C166.817 198.815 166.324 199.097 165.831 199.379C164.715 200.016 163.601 200.658 162.487 201.301C162.273 201.424 162.059 201.547 161.838 201.674C160.618 202.377 159.402 203.088 158.189 203.806C157.919 203.966 157.648 204.126 157.377 204.286C156.857 204.594 156.338 204.903 155.819 205.212C155.581 205.353 155.343 205.494 155.105 205.635C154.897 205.759 154.689 205.883 154.475 206.01C153.119 206.727 151.919 206.906 150.408 206.734C148.695 206.175 147.119 205.292 145.561 204.4C145.231 204.214 145.231 204.214 144.895 204.023C142.988 202.94 141.093 201.836 139.202 200.727C137.915 199.973 136.623 199.227 135.331 198.482C135.111 198.355 134.89 198.228 134.663 198.097C134.216 197.839 133.769 197.582 133.322 197.324C132.215 196.686 131.107 196.047 130 195.408C129.557 195.153 129.115 194.898 128.673 194.643C117.176 188.01 105.68 181.377 94.1832 174.745C93.9642 174.618 93.7453 174.492 93.5198 174.362C93.0779 174.107 92.6361 173.852 92.1943 173.597C91.0839 172.956 89.9735 172.316 88.8627 171.676C86.7297 170.447 84.5989 169.215 82.4739 167.972C80.703 166.936 78.9247 165.913 77.1423 164.898C75.1584 163.767 73.1813 162.625 71.2103 161.472C69.0625 160.216 66.9068 158.974 64.7509 157.732C63.643 157.094 62.5355 156.455 61.428 155.816C60.9858 155.561 60.5436 155.306 60.1014 155.051C53.9109 151.479 47.7205 147.908 41.53 144.336C41.3109 144.21 41.0918 144.084 40.866 143.953C40.4259 143.699 39.9859 143.445 39.546 143.191C38.529 142.602 37.511 142.017 36.4874 141.44C32.1014 138.969 28.6562 136.735 26.1218 132.244C26.0228 132.07 25.9239 131.895 25.822 131.715C24.4827 129.2 23.7874 126.366 23.8784 123.525C23.9471 119.137 23.85 115.914 21.5757 112.071C20.8978 110.833 20.4051 109.516 19.8972 108.201C19.8421 108.059 19.7869 107.918 19.73 107.772C16.8009 100.237 14.5569 92.4333 12.2442 84.6932C10.554 85.5121 8.9232 86.4015 7.30793 87.359C6.69432 87.721 6.08046 88.0824 5.46531 88.4417C5.09737 88.6575 4.73099 88.8759 4.36658 89.0976C4.20574 89.1929 4.0449 89.2881 3.87919 89.3863C3.73994 89.4706 3.60069 89.5549 3.45722 89.6417C2.97082 89.8299 2.72727 89.7639 2.24414 89.5912C2.35471 88.3245 2.65276 87.26 3.10511 86.0755C3.20596 85.8049 3.20596 85.8049 3.30885 85.5289C3.53056 84.9351 3.75471 84.3422 3.97884 83.7493C4.13621 83.329 4.29338 82.9086 4.45038 82.4882C4.77663 81.6149 5.10369 80.7419 5.43133 79.8692C6.10713 78.0672 6.77293 76.2615 7.43877 74.4558C7.79859 73.4803 8.15917 72.5051 8.51967 71.5299C8.66423 71.1387 8.80879 70.7476 8.95334 70.3564C9.82069 68.0095 9.82069 68.0095 10.0375 67.4229C10.1822 67.0313 10.3269 66.6397 10.4716 66.2481C10.8306 65.2767 11.1897 64.3053 11.5491 63.334C12.2287 61.497 12.9067 59.6595 13.5802 57.8203C13.8992 56.9493 14.219 56.0785 14.5388 55.2077C14.6915 54.7916 14.8437 54.3753 14.9955 53.9589C15.2058 53.3825 15.4173 52.8065 15.6291 52.2306C15.6908 52.0603 15.7525 51.8901 15.816 51.7146C16.1233 50.883 16.4451 50.1309 16.9381 49.387C17.9159 49.4959 18.5839 49.7749 19.4285 50.2734C19.5436 50.3406 19.6586 50.4078 19.7772 50.477C20.1414 50.6901 20.504 50.9058 20.8666 51.1217C21.1131 51.2667 21.3597 51.4115 21.6064 51.5561C22.0565 51.8201 22.5058 52.0853 22.9547 52.3513C23.2571 52.5284 23.5634 52.6996 23.8769 52.8564C23.8761 52.7105 23.8753 52.5646 23.8746 52.4144C23.8565 48.8556 23.843 45.2969 23.8346 41.7382C23.8304 40.0172 23.8246 38.2962 23.8153 36.5752C23.8071 35.0741 23.8019 33.573 23.8 32.072C23.799 31.2781 23.7965 30.4842 23.7905 29.6904C23.7849 28.9411 23.7833 28.1919 23.7845 27.4426C23.7842 27.0407 23.7798 26.6388 23.7753 26.237C23.7859 23.9093 24.1519 21.7046 25.8396 19.995C26.7377 19.2486 27.7305 18.7141 28.7621 18.1751C29.2214 17.9267 29.6806 17.678 30.1396 17.4289C30.3617 17.3098 30.5837 17.1906 30.8125 17.0678C31.6029 16.6388 32.3779 16.1875 33.1498 15.7261C35.0602 14.5923 36.9824 13.4793 38.9112 12.3771C39.7023 11.9243 40.4849 11.4622 41.2597 10.982C43.828 9.41548 45.6736 9.06525 48.5193 10.2978Z" fill="#64748B"/>
<path d="M30.4081 20.2029C31.5596 20.6346 32.6057 21.2298 33.6734 21.8356C34.0334 22.0353 34.3935 22.2349 34.7536 22.4343C36.9732 23.6711 39.168 24.9508 41.3604 26.235C42.9416 27.1603 44.5306 28.0715 46.1224 28.9785C48.1064 30.109 50.0835 31.2507 52.0545 32.4037C54.2022 33.6596 56.3579 34.9017 58.5139 36.1436C59.6218 36.7819 60.7292 37.421 61.8368 38.0601C62.2789 38.3152 62.7211 38.5703 63.1633 38.8254C80.4082 48.7744 80.4082 48.7744 97.6532 58.7234C97.8721 58.8497 98.091 58.976 98.3166 59.1062C98.7584 59.3611 99.2003 59.616 99.6421 59.871C100.752 60.5116 101.863 61.152 102.974 61.7919C105.107 63.0209 107.238 64.2534 109.362 65.4964C111.133 66.5322 112.912 67.5546 114.694 68.5704C116.678 69.701 118.655 70.8426 120.626 71.9956C122.774 73.2516 124.93 74.4936 127.085 75.7355C128.193 76.3739 129.301 77.013 130.408 77.6521C130.851 77.9072 131.293 78.1623 131.735 78.4174C132.619 78.9276 133.504 79.4378 134.388 79.948C134.607 80.0743 134.826 80.2006 135.051 80.3307C135.493 80.5856 135.935 80.8406 136.377 81.0955C137.711 81.8651 139.045 82.634 140.379 83.4025C140.822 83.6578 141.264 83.9136 141.706 84.1698C142.803 84.8053 143.903 85.4351 145.01 86.0537C150.114 88.9283 153.654 92.5116 155.316 98.2951C155.538 99.1973 155.568 100.052 155.562 100.978C155.563 101.239 155.563 101.239 155.564 101.506C155.566 102.089 155.565 102.672 155.564 103.255C155.564 103.677 155.565 104.1 155.566 104.522C155.568 105.683 155.568 106.843 155.567 108.004C155.566 109.256 155.568 110.507 155.57 111.759C155.572 114.211 155.573 116.663 155.572 119.115C155.572 121.108 155.572 123.101 155.573 125.094C155.573 125.38 155.573 125.667 155.573 125.953C155.574 126.385 155.574 126.816 155.574 127.248C155.576 131.26 155.577 135.272 155.576 139.284C155.576 139.436 155.576 139.587 155.576 139.743C155.575 140.509 155.575 141.276 155.575 142.042C155.575 142.194 155.575 142.346 155.575 142.503C155.575 142.811 155.575 143.119 155.575 143.427C155.574 148.217 155.575 153.007 155.579 157.797C155.583 163.179 155.586 168.562 155.585 173.944C155.585 174.518 155.585 175.092 155.584 175.666C155.584 175.807 155.584 175.949 155.584 176.094C155.584 178.227 155.586 180.36 155.588 182.493C155.59 184.919 155.59 187.345 155.588 189.77C155.587 191.008 155.587 192.246 155.589 193.484C155.591 194.617 155.591 195.75 155.588 196.883C155.587 197.293 155.588 197.703 155.589 198.113C155.606 202.564 155.606 202.564 154.516 204.272C153.669 205.094 152.955 205.406 151.773 205.446C149.876 205.389 148.535 204.595 146.939 203.673C146.509 203.43 146.078 203.187 145.648 202.945C144.291 202.178 142.94 201.399 141.59 200.619C141.01 200.284 140.43 199.95 139.849 199.616C137.525 198.279 135.208 196.932 132.894 195.579C131.323 194.662 129.744 193.757 128.163 192.857C126.18 191.726 124.202 190.584 122.231 189.431C120.084 188.175 117.928 186.933 115.772 185.691C114.664 185.053 113.557 184.414 112.449 183.775C112.007 183.52 111.565 183.265 111.123 183.01C99.626 176.377 88.1294 169.744 76.6327 163.112C76.4138 162.985 76.1949 162.859 75.9694 162.729C75.5275 162.474 75.0857 162.219 74.6438 161.964C73.5335 161.323 72.423 160.683 71.3122 160.043C69.1792 158.814 67.0484 157.582 64.9235 156.339C63.1526 155.303 61.3743 154.28 59.5919 153.265C57.6077 152.134 55.6303 150.992 53.6589 149.839C50.4537 147.965 47.2352 146.114 44.01 144.275C41.4851 142.834 38.9696 141.379 36.4623 139.908C35.948 139.608 35.4318 139.312 34.9147 139.017C30.1058 136.263 26.9956 132.565 25.4753 127.151C25.1353 125.684 25.2213 124.174 25.255 122.678C25.2591 122.356 25.2629 122.035 25.2662 121.714C25.2751 120.938 25.2891 120.163 25.3061 119.387C25.7732 119.967 26.2337 120.548 26.6732 121.15C27.8477 122.744 29.0386 124.279 30.4081 125.713C30.5344 125.853 30.6607 125.992 30.7908 126.135C33.0078 128.495 36.6271 130.858 39.9282 131.067C40.1792 131.064 40.4302 131.061 40.6887 131.058C41.0636 131.056 41.0636 131.056 41.4461 131.054C42.1874 131.044 42.1874 131.044 42.6728 130.928C44.1789 130.627 45.0636 131.242 46.3138 132.04C46.7497 132.306 47.1857 132.572 47.622 132.838C47.8459 132.976 48.0698 133.115 48.3005 133.257C49.3901 133.924 50.4987 134.556 51.6071 135.191C52.0531 135.447 52.499 135.704 52.9448 135.961C53.1663 136.089 53.3877 136.217 53.6159 136.348C54.7238 136.986 55.8313 137.625 56.9388 138.265C57.381 138.52 57.8231 138.775 58.2653 139.03C66.2245 143.622 74.1837 148.214 82.1429 152.805C82.3619 152.932 82.5808 153.058 82.8063 153.188C83.2482 153.443 83.69 153.698 84.1318 153.953C85.2422 154.594 86.3526 155.234 87.4634 155.874C89.5964 157.103 91.7273 158.335 93.8522 159.578C95.6231 160.614 97.4014 161.637 99.1838 162.652C101.166 163.782 103.142 164.922 105.111 166.075C106.409 166.834 107.71 167.588 109.014 168.337C109.472 168.601 109.929 168.866 110.386 169.132C111.308 169.667 112.227 170.2 113.174 170.69C115.153 171.736 116.229 173.096 117.486 174.926C119.027 177.099 121.393 179.561 123.878 180.612C125.021 180.564 125.723 180.053 126.64 179.424C127.273 179.121 127.496 179.199 128.163 179.387C128.682 179.643 128.682 179.643 129.237 179.969C129.446 180.091 129.655 180.213 129.871 180.338C130.094 180.471 130.318 180.603 130.549 180.739C130.904 180.946 131.258 181.154 131.613 181.361C131.983 181.577 132.353 181.794 132.722 182.011C133.924 182.716 135.132 183.411 136.34 184.107C136.665 184.295 136.665 184.295 136.997 184.486C137.402 184.721 137.809 184.955 138.215 185.188C138.58 185.397 138.944 185.609 139.307 185.823C139.468 185.917 139.629 186.011 139.795 186.107C139.934 186.19 140.073 186.272 140.217 186.356C140.665 186.585 140.665 186.585 141.429 186.53C141.402 186.141 141.402 186.141 141.225 185.714C140.791 185.366 140.791 185.366 140.231 185.072C140.019 184.952 139.807 184.832 139.589 184.709C139.359 184.582 139.128 184.454 138.891 184.323C138.652 184.189 138.414 184.055 138.176 183.92C137.678 183.639 137.179 183.359 136.68 183.08C135.459 182.396 134.248 181.694 133.036 180.994C132.817 180.869 132.599 180.743 132.374 180.614C131.228 179.955 130.096 179.28 128.98 178.571C129.236 177.801 129.448 177.753 130.148 177.374C130.352 177.262 130.556 177.15 130.767 177.034C131.101 176.854 131.101 176.854 131.442 176.67C131.912 176.412 132.382 176.153 132.853 175.894C132.973 175.828 133.093 175.762 133.217 175.694C134.397 175.044 135.561 174.368 136.722 173.686C137.123 173.45 137.525 173.215 137.926 172.98C138.129 172.861 138.331 172.742 138.54 172.62C139.709 171.938 140.881 171.262 142.054 170.586C142.276 170.458 142.498 170.33 142.727 170.198C143.136 169.962 143.546 169.727 143.955 169.491C144.286 169.301 144.616 169.109 144.944 168.915C145.876 168.367 145.876 168.367 146.327 168.367C146.321 167.886 146.321 167.886 146.123 167.346C145.71 167.009 145.321 166.735 144.873 166.453C141.023 163.86 138.362 160.12 136.123 156.122C136.039 155.973 135.955 155.825 135.868 155.672C132.796 150.19 128.342 141.853 128.335 135.483C128.334 135.29 128.333 135.097 128.332 134.898C128.329 134.248 128.327 133.599 128.326 132.949C128.324 132.485 128.322 132.02 128.32 131.555C128.314 130.292 128.31 129.028 128.306 127.765C128.301 126.445 128.296 125.125 128.29 123.806C128.281 121.59 128.273 119.374 128.265 117.158C128.257 114.876 128.248 112.594 128.239 110.311C128.239 110.171 128.238 110.03 128.238 109.885C128.235 109.179 128.232 108.474 128.229 107.768C128.206 101.913 128.184 96.0581 128.163 90.2031C128.029 90.1358 127.894 90.0685 127.755 89.9991C127.755 104.748 127.755 119.497 127.755 134.693C127.273 134.211 127.198 133.896 127.009 133.245C126.945 133.026 126.88 132.806 126.814 132.58C126.745 132.34 126.675 132.1 126.604 131.852C126.492 131.468 126.38 131.084 126.267 130.701C126.148 130.291 126.029 129.881 125.91 129.47C125.537 128.186 125.16 126.903 124.784 125.619C124.657 125.186 124.53 124.752 124.403 124.319C123.241 120.352 122.044 116.395 120.817 112.448C120.763 112.277 120.71 112.107 120.656 111.931C119.577 108.465 118.454 105.022 117.156 101.632C117.106 101.501 117.057 101.37 117.006 101.235C116.482 99.8533 115.923 98.537 115.175 97.2567C112.399 92.3187 113.011 86.9299 113.265 81.4276C113.063 81.4276 112.861 81.4276 112.653 81.4276C112.653 84.6603 112.653 87.8929 112.653 91.2236C112.269 90.7113 111.926 90.2405 111.599 89.6993C110.048 87.1571 108.377 84.8248 106.327 82.6521C106.172 82.4819 106.017 82.3117 105.858 82.1363C103.755 79.9061 101.064 78.3129 98.1634 77.346C98.1634 75.797 98.1634 74.248 98.1634 72.6521C98.0287 72.7194 97.894 72.7868 97.7552 72.8561C97.6879 74.2704 97.6205 75.6847 97.5511 77.1419C96.0843 77.0909 96.0843 77.0909 95.6409 77.0683C93.0849 77.027 90.8932 78.2834 88.7629 79.5526C88.5205 79.6944 88.278 79.8359 88.0354 79.9771C87.3281 80.3898 86.6232 80.8065 85.9185 81.2235C85.4557 81.4971 84.9925 81.7699 84.529 82.0422C84.2301 82.2185 84.2301 82.2185 83.9251 82.3983C83.4695 82.6521 83.4695 82.6521 83.2654 82.6521C83.2654 76.5235 83.2654 70.3949 83.2654 64.0806C83.0634 64.0806 82.8613 64.0806 82.6531 64.0806C82.6609 64.3139 82.6686 64.5471 82.6765 64.7874C82.747 66.991 82.7989 69.1943 82.8329 71.3988C82.851 72.5321 82.8755 73.6645 82.9149 74.7973C82.9527 75.8917 82.9733 76.9853 82.9823 78.0803C82.9887 78.4969 83.0012 78.9134 83.02 79.3295C83.1575 82.5031 83.1575 82.5031 82.3174 83.4311C81.4887 84.0829 80.5813 84.518 79.6107 84.9178C78.991 85.1838 78.4333 85.5208 77.8564 85.8696C77.4443 86.1067 77.0322 86.3438 76.62 86.5807C74.5828 87.7532 72.5506 88.9337 70.5234 90.1232C70.3323 90.2351 70.1411 90.347 69.9442 90.4622C69.6935 90.6094 69.6935 90.6094 69.4377 90.7594C69.0206 90.9962 68.5923 91.2131 68.1633 91.4276C68.1633 79.5072 68.1633 67.5867 68.1633 55.3051C67.9613 55.3051 67.7592 55.3051 67.5511 55.3051C67.5522 55.4945 67.5533 55.6839 67.5545 55.8791C67.5817 60.4864 67.6018 65.0936 67.6145 69.7009C67.6208 71.929 67.6294 74.157 67.6434 76.385C67.6556 78.3267 67.6635 80.2684 67.6663 82.2102C67.6679 83.2385 67.6716 84.2668 67.6805 85.2952C67.6888 86.2629 67.6914 87.2304 67.6896 88.1982C67.6899 88.5535 67.6923 88.9089 67.697 89.2642C67.7031 89.7493 67.7017 90.2338 67.6983 90.7189C67.7019 90.8597 67.7054 91.0004 67.7091 91.1454C67.6987 91.7038 67.6564 92.1241 67.2804 92.5518C66.9754 92.8058 66.6514 93.0364 66.3266 93.2644C65.994 93.6177 65.994 93.6177 65.7358 93.9707C65.6388 94.0989 65.5417 94.227 65.4416 94.3591C65.2925 94.5622 65.2925 94.5622 65.1403 94.7695C65.0339 94.9135 64.9275 95.0575 64.8179 95.2058C63.7923 96.6142 62.8872 98.0692 62.0408 99.5909C61.9603 99.7338 61.8798 99.8766 61.7969 100.024C60.0129 103.216 58.5752 106.566 57.1114 109.912C56.4662 111.381 55.788 112.834 55.1021 114.285C54.311 113.95 53.5607 113.568 53.0612 112.856C52.8727 111.982 52.8965 111.115 52.9062 110.223C52.9049 109.95 52.9029 109.676 52.9005 109.402C52.8955 108.651 52.8981 107.899 52.9019 107.148C52.9046 106.337 52.9003 105.526 52.8969 104.716C52.8919 103.311 52.8914 101.907 52.894 100.503C52.8976 98.4723 52.8945 96.4418 52.8898 94.4114C52.8823 91.1171 52.8803 87.8229 52.8817 84.5286C52.883 81.3285 52.8818 78.1284 52.8771 74.9282C52.8768 74.731 52.8765 74.5337 52.8762 74.3305C52.8747 73.341 52.8732 72.3515 52.8717 71.362C52.859 63.1526 52.8552 54.9431 52.8571 46.7336C52.7898 46.7336 52.7225 46.7336 52.6531 46.7336C52.552 79.0602 52.552 79.0602 52.449 112.04C43.5911 103.182 40.2071 89.0362 36.6964 77.3842C36.6282 77.1588 36.56 76.9333 36.4897 76.7011C36.2951 76.0562 36.102 75.4109 35.9096 74.7654C35.8514 74.5729 35.7933 74.3804 35.7334 74.1821C35.4414 73.1948 35.2151 72.2473 35.102 71.2235C37.2644 69.9068 39.4529 68.6367 41.6477 67.375C41.9788 67.1846 41.9788 67.1846 42.3166 66.9904C42.5141 66.877 42.7116 66.7637 42.915 66.6469C43.098 66.5408 43.2809 66.4348 43.4694 66.3255C43.6615 66.2276 43.8537 66.1297 44.0516 66.0289C44.1962 65.9247 44.3408 65.8206 44.4898 65.7133C44.4898 65.4439 44.4898 65.1745 44.4898 64.8969C44.3609 64.8253 44.232 64.7538 44.0992 64.68C41.5101 63.2404 38.9331 61.7842 36.3779 60.2853C34.5479 59.2129 32.7071 58.1603 30.8631 57.1124C30.4229 56.8619 29.9864 56.6047 29.5543 56.3405C29.0108 56.0236 28.4913 55.8161 27.8911 55.6301C26.833 55.2504 25.9699 54.8096 25.3061 53.8765C24.6818 51.8888 24.8729 49.651 24.9274 47.5897C24.9462 46.7488 24.9457 45.9078 24.9476 45.0666C24.9534 43.6546 24.9719 42.2433 24.9995 40.8316C25.0382 38.845 25.0521 36.8587 25.0619 34.8717C25.0697 33.4905 25.0839 32.1093 25.099 30.7281C25.1026 30.3946 25.1059 30.0611 25.109 29.7276C25.118 28.7763 25.1309 27.8253 25.1503 26.8741C25.1555 26.587 25.1595 26.2998 25.162 26.0126C25.1793 24.2013 25.2799 22.6126 26.5003 21.1914C26.6794 21.0557 26.6794 21.0557 26.8622 20.9172C26.9827 20.8225 27.1032 20.7278 27.2273 20.6302C28.2048 19.9561 29.2672 20.0383 30.4081 20.2029Z" fill="#030712"/>
<path d="M48.7751 11.8364C49.5198 12.2183 50.2451 12.6283 50.969 13.0481C51.27 13.2204 51.27 13.2204 51.577 13.3962C52.2088 13.7587 52.8391 14.1236 53.469 14.4894C53.6692 14.6057 53.8695 14.7219 54.0758 14.8417C55.0881 15.4303 56.0992 16.0209 57.1098 16.6124C59.0689 17.7582 61.0366 18.8891 63.0033 20.0219C64.1112 20.6602 65.2187 21.2994 66.3262 21.9385C66.7684 22.1936 67.2105 22.4487 67.6527 22.7038C80.9181 30.3568 94.1834 38.0099 107.449 45.663C107.668 45.7893 107.887 45.9156 108.112 46.0457C108.554 46.3006 108.996 46.5556 109.438 46.8105C110.548 47.4512 111.658 48.0916 112.769 48.7314C114.902 49.9605 117.033 51.193 119.158 52.436C120.929 53.4718 122.707 54.4942 124.49 55.51C126.474 56.6406 128.451 57.7822 130.422 58.9352C132.569 60.1912 134.725 61.4332 136.881 62.6751C137.989 63.3134 139.096 63.9526 140.204 64.5917C140.646 64.8468 141.088 65.1019 141.53 65.357C145.952 67.908 150.374 70.459 154.796 73.0101C155.015 73.1365 155.234 73.2629 155.46 73.3931C155.899 73.6467 156.339 73.9005 156.778 74.1544C157.803 74.7469 158.829 75.3376 159.859 75.9217C160.221 76.1272 160.583 76.3333 160.945 76.5396C161.397 76.7972 161.85 77.0537 162.303 77.3089C164.016 78.2872 165.591 79.3644 166.939 80.8162C167.06 80.9385 167.181 81.0609 167.305 81.1869C170.908 84.978 171.933 89.7144 171.914 94.7681C171.915 95.1873 171.916 95.6065 171.917 96.0257C171.92 97.1722 171.919 98.3187 171.917 99.4653C171.915 100.704 171.917 101.942 171.919 103.181C171.922 105.465 171.921 107.749 171.92 110.033C171.918 112.143 171.918 114.253 171.919 116.363C171.919 116.573 171.919 116.573 171.919 116.788C171.919 117.356 171.919 117.925 171.919 118.494C171.921 123.827 171.92 129.159 171.916 134.492C171.913 139.227 171.914 143.962 171.916 148.698C171.92 154.022 171.921 159.345 171.919 164.669C171.919 165.237 171.919 165.805 171.919 166.372C171.919 166.582 171.919 166.582 171.918 166.796C171.918 168.905 171.919 171.013 171.92 173.122C171.922 175.52 171.921 177.918 171.918 180.316C171.917 181.539 171.916 182.762 171.918 183.985C171.92 185.105 171.919 186.225 171.915 187.345C171.915 187.75 171.915 188.155 171.917 188.56C171.933 193.508 171.933 193.508 170.523 195.013C170.405 195.144 170.288 195.274 170.167 195.409C169.767 195.739 169.486 195.837 168.98 195.919C169.013 195.719 169.046 195.52 169.08 195.315C169.203 194.447 169.213 193.593 169.212 192.718C169.212 192.456 169.212 192.456 169.213 192.189C169.215 191.605 169.215 191.021 169.215 190.437C169.216 190.014 169.217 189.591 169.218 189.168C169.22 188.005 169.221 186.842 169.222 185.679C169.223 184.425 169.226 183.171 169.228 181.917C169.233 178.888 169.236 175.86 169.239 172.831C169.239 171.975 169.24 171.12 169.241 170.264C169.246 164.949 169.251 159.634 169.253 154.32C169.254 153.089 169.254 151.858 169.255 150.627C169.255 150.398 169.255 150.398 169.255 150.164C169.258 145.209 169.264 140.254 169.273 135.299C169.281 130.202 169.287 125.104 169.288 120.007C169.288 119.286 169.288 118.566 169.288 117.845C169.288 117.703 169.288 117.561 169.288 117.415C169.289 115.137 169.293 112.86 169.299 110.582C169.304 108.29 169.306 105.999 169.303 103.707C169.302 102.466 169.303 101.226 169.308 99.9855C169.313 98.8482 169.312 97.7109 169.309 96.5736C169.308 96.1639 169.309 95.7542 169.312 95.3445C169.335 92.1429 168.91 89.2121 167.309 86.3774C167.231 86.2358 167.153 86.0941 167.073 85.9482C165.293 82.7961 163.017 80.6479 159.887 78.8568C159.322 78.5338 158.759 78.2078 158.197 77.8817C157.059 77.2233 155.92 76.5676 154.781 75.9124C153.663 75.2692 152.546 74.6243 151.428 73.9794C150.986 73.7243 150.544 73.4692 150.102 73.2141C140.374 67.6019 130.646 61.9896 120.918 56.3773C120.699 56.251 120.48 56.1248 120.255 55.9946C119.813 55.7397 119.371 55.4848 118.929 55.2298C117.819 54.5892 116.708 53.9488 115.598 53.3089C113.465 52.0799 111.334 50.8474 109.209 49.6044C107.438 48.5686 105.66 47.5462 103.877 46.5304C101.893 45.3997 99.9163 44.2582 97.9453 43.1052C95.7975 41.8492 93.6418 40.6071 91.4859 39.3653C90.378 38.7269 89.2705 38.0878 88.163 37.4487C87.7208 37.1936 87.2786 36.9385 86.8364 36.6834C84.1834 35.1528 81.5303 33.6222 78.8772 32.0915C78.6583 31.9652 78.4393 31.8389 78.2138 31.7088C77.7722 31.4541 77.3307 31.1993 76.8892 30.9445C75.774 30.3009 74.6585 29.6579 73.5424 29.016C73.0928 28.7572 72.6431 28.4983 72.1935 28.2395C71.867 28.0516 71.867 28.0516 71.5338 27.8599C70.4477 27.2337 69.3654 26.602 68.2889 25.9595C68.0827 25.8366 67.8765 25.7136 67.6641 25.5869C67.2754 25.3545 66.8873 25.1212 66.4998 24.8868C66.3273 24.7836 66.1547 24.6803 65.977 24.574C65.827 24.4834 65.6769 24.3928 65.5223 24.2994C65.1092 24.0852 64.7399 23.9689 64.2854 23.8772C64.9823 24.6712 65.765 25.0981 66.6833 25.5864C68.1699 26.3945 69.6375 27.2297 71.0966 28.0864C72.9011 29.1443 74.7128 30.1889 76.5303 31.2242C78.5143 32.3547 80.4913 33.4964 82.4623 34.6494C84.6101 35.9054 86.7658 37.1474 88.9217 38.3893C90.0296 39.0277 91.1371 39.6668 92.2446 40.3059C92.6868 40.561 93.129 40.8161 93.5712 41.0712C105.068 47.7038 116.564 54.3365 128.061 60.9692C128.28 61.0955 128.499 61.2218 128.724 61.3519C129.166 61.6068 129.608 61.8618 130.05 62.1167C131.16 62.7574 132.271 63.3978 133.382 64.0376C135.515 65.2667 137.645 66.4991 139.77 67.7422C141.541 68.7779 143.319 69.8004 145.102 70.8162C147.084 71.946 149.06 73.0866 151.03 74.2391C152.321 74.9944 153.615 75.7447 154.911 76.4913C155.585 76.8794 156.258 77.2685 156.931 77.6577C157.684 78.0926 158.439 78.5235 159.197 78.9492C160.866 79.8933 162.327 80.8576 163.673 82.2448C163.827 82.3968 163.981 82.5489 164.14 82.7056C167.831 86.5422 168.839 91.0008 168.83 96.1527C168.831 96.5746 168.832 96.9965 168.833 97.4184C168.835 98.5752 168.835 99.732 168.835 100.889C168.835 102.137 168.837 103.386 168.839 104.635C168.842 107.08 168.843 109.525 168.844 111.97C168.844 113.957 168.845 115.944 168.846 117.931C168.846 118.504 168.847 119.076 168.847 119.649C168.847 119.862 168.847 119.862 168.847 120.08C168.85 124.082 168.851 128.084 168.851 132.085C168.851 132.236 168.851 132.387 168.851 132.542C168.851 133.307 168.851 134.071 168.851 134.835C168.851 135.063 168.851 135.063 168.851 135.295C168.851 135.602 168.851 135.909 168.851 136.216C168.851 140.992 168.854 145.768 168.859 150.545C168.866 155.913 168.869 161.282 168.869 166.65C168.869 167.223 168.869 167.795 168.869 168.368C168.869 168.579 168.869 168.579 168.869 168.795C168.869 171.062 168.871 173.329 168.875 175.597C168.878 177.875 168.879 180.154 168.876 182.432C168.875 183.666 168.875 184.9 168.878 186.135C168.881 187.265 168.881 188.395 168.877 189.525C168.877 189.933 168.877 190.342 168.88 190.75C168.902 195.01 168.902 195.01 167.959 196.531C167.392 197.05 166.8 197.396 166.122 197.755C165.723 197.989 165.324 198.224 164.926 198.458C164.487 198.709 164.049 198.96 163.61 199.209C161.708 200.297 159.819 201.403 157.952 202.55C157.797 202.645 157.641 202.74 157.481 202.837C157.346 202.921 157.211 203.004 157.071 203.089C156.735 203.266 156.735 203.266 156.326 203.266C156.36 203.133 156.393 203 156.427 202.863C156.558 202.079 156.56 201.309 156.558 200.517C156.559 200.255 156.559 200.255 156.56 199.988C156.562 199.4 156.562 198.813 156.562 198.225C156.563 197.801 156.564 197.377 156.565 196.952C156.567 195.784 156.568 194.616 156.569 193.447C156.57 192.188 156.573 190.929 156.575 189.669C156.58 186.77 156.583 183.871 156.585 180.972C156.586 179.969 156.587 178.966 156.588 177.962C156.593 172.624 156.598 167.287 156.6 161.949C156.601 160.712 156.601 159.475 156.602 158.239C156.602 158.085 156.602 157.932 156.602 157.773C156.605 152.796 156.611 147.818 156.619 142.841C156.628 137.721 156.634 132.602 156.635 127.482C156.635 126.758 156.635 126.035 156.635 125.311C156.635 125.168 156.635 125.026 156.635 124.879C156.636 122.591 156.64 120.303 156.646 118.015C156.651 115.713 156.652 113.41 156.65 111.108C156.649 109.862 156.65 108.616 156.655 107.37C156.66 106.227 156.659 105.084 156.655 103.942C156.655 103.53 156.656 103.118 156.659 102.707C156.682 99.4992 156.26 96.5646 154.656 93.7244C154.578 93.5826 154.5 93.4408 154.419 93.2947C152.512 89.9189 150.012 87.6956 146.658 85.8123C145.853 85.3582 145.054 84.8941 144.254 84.4312C143.573 84.0366 142.89 83.6432 142.207 83.25C140.859 82.4735 139.511 81.696 138.163 80.9182C136.832 80.1501 135.501 79.3822 134.169 78.6151C132.036 77.3861 129.905 76.1536 127.78 74.9106C125.888 73.804 123.988 72.7135 122.083 71.6284C120.231 70.5725 118.386 69.5036 116.546 68.4262C114.982 67.5117 113.411 66.6111 111.837 65.7141C109.853 64.5835 107.875 63.4419 105.904 62.2889C103.757 61.0329 101.601 59.7909 99.4451 58.549C98.3372 57.9107 97.2297 57.2715 96.1222 56.6324C95.68 56.3773 95.2378 56.1222 94.7956 55.8671C81.5303 48.2141 68.265 40.561 54.9996 32.9079C54.7807 32.7816 54.5618 32.6553 54.3363 32.5252C53.8944 32.2703 53.4526 32.0153 53.0107 31.7604C51.9004 31.1197 50.7899 30.4793 49.6791 29.8395C47.5461 28.6104 45.4153 27.3779 43.2904 26.1349C40.781 24.6678 38.2585 23.2242 35.7319 21.787C35.1757 21.4704 34.62 21.1529 34.0645 20.8351C33.7767 20.6714 33.4889 20.5077 33.2011 20.3441C33.0793 20.2741 32.9575 20.2042 32.832 20.1322C32.0433 19.6861 31.2441 19.3238 30.4077 18.9793C30.8975 18.4373 31.4209 18.1058 32.0539 17.7452C32.2643 17.6247 32.4746 17.5042 32.6913 17.38C32.9184 17.2511 33.1456 17.1223 33.3797 16.9895C33.6164 16.8542 33.853 16.7188 34.0896 16.5833C34.5838 16.3005 35.0782 16.018 35.5728 15.736C36.7785 15.048 37.9808 14.354 39.1832 13.6604C39.3983 13.5367 39.6134 13.4129 39.835 13.2855C40.9834 12.6239 42.1239 11.9523 43.2529 11.2581C45.1396 10.1892 46.9768 10.997 48.7751 11.8364Z" fill="#3438D0"/>
<path d="M102.027 80.3733C103.03 81.0839 103.978 81.8405 104.898 82.6541C105.086 82.8191 105.086 82.8191 105.276 82.9873C111.528 88.8834 114.782 98.0404 117.552 105.92C117.636 106.159 117.721 106.399 117.809 106.646C120.381 113.974 122.485 121.469 124.69 128.913C126.927 136.465 129.232 144.024 132.45 151.226C132.539 151.426 132.628 151.625 132.72 151.831C135.303 157.566 138.76 163.619 144.064 167.22C144.205 167.33 144.345 167.439 144.49 167.552C144.49 167.687 144.49 167.822 144.49 167.961C144.354 168.036 144.218 168.112 144.077 168.19C140.652 170.096 140.652 170.096 137.263 172.065C135.975 172.828 134.678 173.578 133.381 174.325C133.158 174.454 132.936 174.582 132.706 174.714C131.76 175.26 130.813 175.805 129.866 176.35C129.251 176.704 128.635 177.058 128.02 177.413C127.673 177.613 127.325 177.812 126.978 178.012C126.767 178.133 126.557 178.254 126.341 178.379C126.063 178.539 126.063 178.539 125.779 178.702C125.411 178.92 125.051 179.152 124.694 179.389C123.181 179.315 122.291 178.323 121.225 177.348C121.118 177.25 121.01 177.152 120.9 177.051C118.246 174.588 116.253 171.72 114.49 168.573C114.406 168.424 114.322 168.276 114.236 168.123C109.591 159.835 106.903 150.539 104.187 141.49C103.806 140.224 103.413 138.963 103.012 137.704C102.585 136.364 102.189 135.02 101.824 133.662C96.0964 112.11 96.0964 112.11 83.6739 94.0827C83.5521 93.962 83.4303 93.8412 83.3048 93.7168C80.8292 91.3684 77.7746 90.1337 74.4902 89.3888C74.98 88.8469 75.5034 88.5154 76.1364 88.1548C76.3465 88.0344 76.5566 87.9141 76.773 87.7901C77.1141 87.5965 77.1141 87.5965 77.4622 87.399C77.7013 87.2624 77.9403 87.1257 78.1793 86.9889C78.6758 86.7047 79.1727 86.4209 79.6697 86.1375C80.8028 85.4908 81.932 84.8374 83.0617 84.1847C83.5001 83.932 83.9386 83.6793 84.3771 83.4266C85.1798 82.9636 85.9818 82.4993 86.7827 82.0331C87.1398 81.8254 87.4971 81.6179 87.8544 81.4105C88.2996 81.152 88.7445 80.893 89.1889 80.6332C93.8335 77.9399 97.3247 77.3059 102.027 80.3733Z" fill="#D5FF4D"/>
<path d="M17.5509 51.0195C18.2932 51.1275 18.8819 51.4793 19.5304 51.8414C19.8725 52.0318 19.8725 52.0318 20.2215 52.226C20.4665 52.3638 20.7115 52.5016 20.9565 52.6394C21.2094 52.7809 21.4622 52.9222 21.7151 53.0636C23.1517 53.8683 24.5799 54.6859 25.995 55.5279C27.3504 56.333 28.7196 57.1139 30.0892 57.8946C31.9969 58.9822 33.9021 60.0739 35.8035 61.1726C38.0826 62.4894 40.3663 63.7979 42.653 65.1012C42.358 65.9864 41.6901 66.1816 40.9056 66.5936C40.5739 66.7724 40.2426 66.9518 39.9115 67.1317C39.731 67.2296 39.5506 67.3276 39.3647 67.4285C38.2645 68.0368 37.1814 68.6747 36.0969 69.3104C35.8779 69.4386 35.6588 69.5668 35.4332 69.6989C34.9144 70.0027 34.3959 70.3069 33.8775 70.6114C34.0016 72.0187 34.3602 73.2975 34.7743 74.6452C34.8444 74.8768 34.9145 75.1083 34.9867 75.3469C35.2149 76.0988 35.4453 76.8501 35.676 77.6013C35.7949 77.9906 35.9139 78.3799 36.0328 78.7692C37.2881 82.8754 38.5805 86.967 40 91.0197C40.0874 91.2693 40.1748 91.5188 40.2648 91.776C42.425 97.8851 44.9199 104.128 48.7755 109.387C48.8624 109.507 48.9494 109.626 49.039 109.749C50.512 111.752 52.2017 113.916 54.2857 115.305C54.1747 116.156 53.9872 116.816 53.5906 117.576C53.4901 117.769 53.3897 117.962 53.2862 118.162C53.1783 118.364 53.0704 118.566 52.9592 118.775C52.8486 118.984 52.7381 119.193 52.6242 119.408C50.4439 123.485 47.6791 128.191 43.074 129.77C40.2027 130.523 37.5924 129.606 35.102 128.163C21.2555 119.233 17.4327 97.8278 13.0611 83.0605C12.3999 83.1847 11.8688 83.3147 11.281 83.6448C11.1393 83.7238 10.9976 83.8027 10.8516 83.8841C10.6257 84.013 10.6257 84.013 10.3953 84.1446C10.2379 84.2333 10.0805 84.3219 9.91827 84.4132C8.01902 85.49 6.15078 86.6199 4.28558 87.7543C4.05014 87.048 4.11152 86.9183 4.365 86.2456C4.4671 85.9703 4.4671 85.9703 4.57127 85.6895C4.64799 85.4885 4.72471 85.2876 4.80375 85.0806C4.88295 84.8685 4.96214 84.6565 5.04374 84.4381C5.30803 83.7316 5.57491 83.0262 5.8417 82.3207C6.02788 81.8241 6.21384 81.3274 6.39959 80.8307C6.69035 80.0533 6.98118 79.276 7.27287 78.4989C8.21808 75.9806 9.14839 73.4569 10.0763 70.9321C10.5215 69.7212 10.9674 68.5105 11.4133 67.2999C11.4999 67.0646 11.5866 66.8294 11.6758 66.587C12.7073 63.7864 13.742 60.9871 14.7772 58.1879C14.843 58.0102 14.9087 57.8324 14.9764 57.6493C15.1039 57.3046 15.2314 56.9601 15.359 56.6155C15.6832 55.7397 16.0054 54.8632 16.325 53.9857C16.3908 53.8055 16.4567 53.6253 16.5245 53.4397C16.6502 53.0952 16.7755 52.7506 16.9002 52.4058C17.324 51.2465 17.324 51.2465 17.5509 51.0195Z" fill="#D5FF4D"/>
<path d="M39.5922 143.062C39.7558 143.157 39.9194 143.251 40.088 143.348C41.2924 144.039 42.4988 144.725 43.715 145.395C45.7384 146.51 47.734 147.67 49.7277 148.837C51.0315 149.601 52.3394 150.357 53.6483 151.111C53.8686 151.238 54.089 151.365 54.316 151.496C54.763 151.753 55.21 152.011 55.657 152.268C56.765 152.907 57.8724 153.546 58.98 154.185C59.4221 154.44 59.8643 154.695 60.3065 154.95C80.2045 166.43 80.2045 166.43 100.103 177.91C100.321 178.036 100.54 178.162 100.766 178.292C101.208 178.547 101.65 178.802 102.091 179.057C103.202 179.698 104.312 180.338 105.423 180.978C107.556 182.207 109.687 183.44 111.812 184.683C113.583 185.718 115.361 186.741 117.143 187.757C119.127 188.887 121.104 190.029 123.075 191.182C125.223 192.438 127.379 193.68 129.535 194.922C130.643 195.56 131.75 196.199 132.858 196.838C133.3 197.093 133.742 197.348 134.184 197.603C135.069 198.114 135.953 198.624 136.837 199.134C137.056 199.261 137.276 199.387 137.501 199.517C137.941 199.771 138.38 200.024 138.82 200.278C139.845 200.869 140.87 201.461 141.895 202.051C142.256 202.259 142.616 202.466 142.977 202.674C143.427 202.933 143.877 203.192 144.327 203.451C145.3 204.012 146.268 204.578 147.227 205.162C149.088 206.281 150.967 206.949 153.141 206.412C154.666 205.865 156.029 204.941 157.401 204.094C158.118 203.659 158.854 203.257 159.592 202.859C159.592 202.993 159.592 203.128 159.592 203.267C159.735 203.32 159.878 203.373 160.025 203.428C160.667 203.698 161.251 204.018 161.855 204.365C162.031 204.465 162.031 204.465 162.21 204.568C162.588 204.784 162.965 205.001 163.342 205.218C163.601 205.367 163.859 205.515 164.118 205.663C165.888 206.68 167.648 207.711 169.388 208.777C168.571 209.479 167.716 209.979 166.774 210.486C165.284 211.301 163.812 212.141 162.348 212.999C160.397 214.141 158.443 215.277 156.482 216.401C155.35 217.051 154.225 217.71 153.11 218.388C152.887 218.522 152.665 218.656 152.436 218.793C152.013 219.049 151.591 219.306 151.172 219.567C150.982 219.681 150.792 219.795 150.597 219.912C150.432 220.014 150.267 220.115 150.097 220.219C149.429 220.471 149.052 220.393 148.368 220.206C147.826 219.95 147.826 219.95 147.274 219.624C146.962 219.441 146.962 219.441 146.644 219.255C146.421 219.122 146.199 218.99 145.97 218.854C145.734 218.715 145.498 218.576 145.261 218.438C144.771 218.15 144.281 217.862 143.791 217.573C142.668 216.912 141.538 216.263 140.409 215.614C139.967 215.359 139.524 215.104 139.082 214.848C138.863 214.722 138.644 214.596 138.419 214.466C134.218 212.042 130.018 209.619 125.817 207.195C125.598 207.069 125.379 206.943 125.154 206.813C124.712 206.558 124.27 206.303 123.828 206.048C122.718 205.407 121.607 204.767 120.496 204.127C118.363 202.898 116.233 201.665 114.108 200.422C112.337 199.387 110.558 198.364 108.776 197.348C106.792 196.218 104.815 195.076 102.844 193.923C100.696 192.667 98.5405 191.425 96.3846 190.183C95.2767 189.545 94.1692 188.906 93.0617 188.267C92.6195 188.012 92.1773 187.757 91.7351 187.501C80.2385 180.869 68.7419 174.236 57.2453 167.603C57.0264 167.477 56.8074 167.351 56.5819 167.221C56.14 166.966 55.6982 166.711 55.2564 166.456C54.146 165.815 53.0356 165.175 51.9248 164.535C49.7918 163.306 47.661 162.073 45.536 160.83C43.7651 159.795 41.9868 158.772 40.2044 157.756C37.8108 156.392 35.4265 155.012 33.0506 153.617C32.4179 153.248 31.7825 152.884 31.1467 152.52C30.7305 152.28 30.3144 152.04 29.8983 151.8C29.703 151.689 29.5077 151.579 29.3064 151.465C29.0406 151.311 29.0406 151.311 28.7694 151.153C28.6125 151.063 28.4556 150.974 28.2939 150.881C28.1835 150.793 28.0732 150.705 27.9595 150.614C27.9595 150.412 27.9595 150.209 27.9595 150.001C28.1678 149.887 28.3762 149.773 28.5909 149.655C30.6666 148.513 32.7202 147.335 34.764 146.136C35.663 145.609 36.562 145.083 37.4708 144.572C37.6056 144.497 37.7403 144.421 37.8792 144.343C38.224 144.15 38.5697 143.959 38.9153 143.767C39.4109 143.513 39.4109 143.513 39.5922 143.062Z" fill="#373D4D"/>
<path d="M32.8568 190.815C33.4215 191.061 33.9315 191.38 34.4512 191.708C34.7563 191.898 35.0616 192.088 35.3672 192.277C35.5239 192.375 35.6806 192.472 35.842 192.572C36.3244 192.855 36.8134 193.103 37.3172 193.346C39.6632 194.511 39.6632 194.511 40.0579 195.661C40.1096 196.384 40.1 197.037 39.9997 197.754C40.5104 197.474 41.0206 197.194 41.5303 196.912C41.691 196.824 41.8516 196.735 42.0172 196.644C43.0103 196.092 43.9941 195.527 44.9718 194.949C45.1902 194.82 45.4085 194.691 45.6335 194.558C46.065 194.302 46.4958 194.045 46.9258 193.787C47.1249 193.669 47.3241 193.551 47.5292 193.429C47.7939 193.271 47.7939 193.271 48.064 193.109C48.7241 192.78 49.2665 192.545 49.9896 192.784C50.1793 192.894 50.1793 192.894 50.3728 193.007C50.5901 193.13 50.5901 193.13 50.8117 193.257C50.9647 193.348 51.1177 193.439 51.2753 193.532C51.4344 193.624 51.5935 193.716 51.7575 193.81C52.2618 194.102 52.7634 194.397 53.2651 194.693C53.6 194.888 53.9351 195.082 54.2703 195.277C56.6792 196.679 56.6792 196.679 56.9385 196.938C56.9562 197.242 56.9604 197.546 56.9585 197.851C56.9578 198.034 56.9572 198.218 56.9565 198.407C56.9548 198.6 56.9531 198.793 56.9513 198.991C56.9504 199.185 56.9495 199.379 56.9485 199.579C56.9461 200.059 56.9427 200.539 56.9385 201.02C57.0791 201.071 57.2196 201.123 57.3644 201.177C58.0431 201.463 58.6722 201.813 59.3086 202.182C59.4967 202.29 59.4967 202.29 59.6886 202.4C60.086 202.628 60.483 202.857 60.8799 203.086C61.1505 203.241 61.4211 203.397 61.6918 203.552C62.3528 203.932 63.013 204.312 63.6733 204.693C63.6733 205.703 63.6733 206.713 63.6733 207.754C67.1471 205.827 67.1471 205.827 70.5865 203.838C70.7204 203.76 70.8542 203.681 70.9921 203.6C71.7577 203.149 72.5178 202.689 73.2755 202.225C73.6249 202.014 73.9743 201.804 74.3238 201.594C74.4852 201.493 74.6465 201.392 74.8128 201.288C74.9658 201.196 75.1188 201.105 75.2764 201.011C75.4104 200.929 75.5443 200.847 75.6824 200.762C76.5389 200.469 77.2064 200.748 77.9941 201.129C78.3339 201.326 78.3339 201.326 78.6805 201.528C78.8645 201.634 78.8645 201.634 79.0522 201.743C79.4414 201.967 79.829 202.195 80.2167 202.423C80.4776 202.574 80.7387 202.725 80.9999 202.876C81.6885 203.275 82.3755 203.677 83.0611 204.081C83.2543 204.163 83.4476 204.246 83.6467 204.331C84.0815 204.693 84.0815 204.693 84.1973 205.437C84.1972 205.745 84.1914 206.052 84.1811 206.36C84.1797 206.522 84.1782 206.684 84.1767 206.852C84.171 207.369 84.1582 207.887 84.1452 208.405C84.1401 208.756 84.1355 209.107 84.1313 209.458C84.12 210.319 84.1024 211.179 84.0815 212.04C83.9362 212.123 83.7908 212.206 83.6411 212.291C80.3283 214.181 77.0201 216.079 73.7177 217.987C72.6148 218.624 71.5113 219.261 70.408 219.897C69.9695 220.15 69.531 220.403 69.0926 220.656C68.2908 221.119 67.4889 221.581 66.687 222.043C66.3297 222.249 65.9725 222.455 65.6152 222.661C65.1704 222.918 64.7256 223.174 64.2807 223.431C64.0766 223.548 63.8724 223.666 63.6621 223.787C63.3635 223.958 63.3635 223.958 63.0588 224.133C62.6306 224.383 62.2067 224.64 61.7861 224.903C61.5707 225.036 61.3553 225.168 61.1334 225.305C60.9403 225.427 60.7471 225.549 60.5481 225.675C59.8929 225.965 59.6489 225.945 58.9794 225.714C58.4683 225.469 58.4683 225.469 57.9318 225.163C57.7335 225.051 57.5351 224.938 57.3308 224.822C57.1256 224.704 56.9204 224.585 56.7089 224.464C56.5085 224.35 56.308 224.236 56.1015 224.119C55.6972 223.888 55.2947 223.654 54.8938 223.418C54.4792 223.174 54.0605 222.938 53.6385 222.707C52.0955 221.824 52.0955 221.824 51.8213 220.867C51.8474 220.619 51.8734 220.37 51.9003 220.114C51.9205 219.862 51.9408 219.609 51.9616 219.349C51.9877 219.16 52.0137 218.97 52.0406 218.775C51.8188 218.911 51.8188 218.911 51.5925 219.05C51.3952 219.165 51.1979 219.281 50.9946 219.4C50.7034 219.574 50.7034 219.574 50.4063 219.751C49.6524 220.057 49.3462 220.034 48.5712 219.795C48.0097 219.522 47.4821 219.205 46.9513 218.877C46.8016 218.786 46.6519 218.696 46.4977 218.603C46.1869 218.415 45.8765 218.227 45.5666 218.037C45.1133 217.761 44.658 217.489 44.2017 217.218C42.0765 215.954 42.0765 215.954 41.8365 215.713C41.8216 215.233 41.8194 214.753 41.8237 214.272C41.8255 214.009 41.8274 213.745 41.8293 213.474C41.8317 213.27 41.834 213.066 41.8365 212.856C41.7057 212.947 41.575 213.038 41.4403 213.131C41.2637 213.247 41.0872 213.362 40.9053 213.481C40.7325 213.597 40.5597 213.713 40.3816 213.833C39.6087 214.16 39.1843 214.05 38.3671 213.877C37.6965 213.564 37.6965 213.564 37.0134 213.164C36.891 213.093 36.7686 213.023 36.6425 212.95C36.2552 212.725 35.8698 212.497 35.4844 212.27C35.2244 212.118 34.9642 211.967 34.7039 211.816C34.0184 211.417 33.3349 211.016 32.6528 210.611C32.4596 210.51 32.2665 210.408 32.0676 210.303C31.9239 210.203 31.7803 210.102 31.6323 209.999C31.5547 209.431 31.5345 208.992 31.5686 208.43C31.5732 208.287 31.5778 208.144 31.5825 207.996C31.5945 207.643 31.6128 207.291 31.6323 206.938C31.4845 207.029 31.3367 207.119 31.1843 207.213C30.987 207.328 30.7897 207.444 30.5864 207.563C30.3923 207.679 30.1981 207.795 29.9981 207.915C29.253 208.217 28.9378 208.147 28.163 207.958C27.5595 207.67 27.5595 207.67 26.9329 207.305C26.7039 207.172 26.4749 207.039 26.2389 206.902C26.1211 206.832 26.0034 206.763 25.882 206.691C25.5254 206.48 25.1673 206.272 24.8087 206.065C24.1533 205.682 23.5005 205.299 22.8568 204.897C22.7277 204.826 22.5986 204.754 22.4657 204.681C22.0664 204.439 21.7472 204.218 21.4282 203.877C21.296 203.248 21.2583 202.838 21.2887 202.215C21.2908 202.057 21.2928 201.9 21.2949 201.738C21.3028 201.239 21.3207 200.741 21.339 200.241C21.3461 199.902 21.3526 199.563 21.3585 199.223C21.3742 198.393 21.3988 197.564 21.4282 196.734C21.5448 196.668 21.6613 196.603 21.7814 196.536C24.1394 195.211 26.49 193.875 28.8262 192.512C29.1411 192.328 29.1411 192.328 29.4624 192.141C31.9224 190.703 31.9224 190.703 32.8568 190.815Z" fill="#64748B"/>
<path d="M83.2652 95.3047C83.4924 95.4956 83.719 95.6871 83.9455 95.8789C84.0717 95.9855 84.198 96.0921 84.3281 96.2019C84.8677 96.6848 85.3115 97.2196 85.7525 97.7919C85.8939 97.9746 85.8939 97.9746 86.0382 98.161C90.7521 104.375 93.5786 111.677 96.1606 118.965C96.2067 119.095 96.2527 119.225 96.3002 119.359C96.3913 119.618 96.4807 119.878 96.5682 120.139C96.6825 120.463 96.8067 120.784 96.939 121.101C97.6736 122.993 97.6614 124.752 97.6436 126.748C97.6434 127.114 97.6435 127.48 97.644 127.846C97.6442 128.834 97.6394 129.821 97.6337 130.808C97.6286 131.843 97.6281 132.877 97.6272 133.912C97.6246 135.868 97.618 137.823 97.6097 139.779C97.6006 142.007 97.5961 144.235 97.592 146.463C97.5835 151.043 97.5692 155.623 97.551 160.203C96.7156 159.933 95.9909 159.637 95.2327 159.193C95.0244 159.072 94.8161 158.951 94.6014 158.826C94.2683 158.63 94.2683 158.63 93.9285 158.43C93.5744 158.224 93.2203 158.017 92.8661 157.811C92.4979 157.596 92.1299 157.381 91.7619 157.166C90.574 156.472 89.381 155.787 88.1887 155.101C86.9376 154.38 86.9376 154.38 86.3623 154.027C85.7339 153.654 85.7339 153.654 85.0698 153.481C84.2423 153.183 83.8338 152.923 83.2652 152.244C82.7675 150.529 82.957 148.619 82.9872 146.855C82.9892 146.293 82.9876 145.732 82.9861 145.171C82.9848 143.963 82.9925 142.756 83.0063 141.548C83.0262 139.801 83.0326 138.055 83.0356 136.309C83.041 133.476 83.0573 130.642 83.0804 127.809C83.1029 125.057 83.1203 122.305 83.1307 119.553C83.1313 119.383 83.132 119.214 83.1326 119.039C83.1358 118.188 83.1389 117.336 83.142 116.485C83.1673 109.425 83.2105 102.365 83.2652 95.3047Z" fill="#030712"/>
<path d="M81.4287 93.877C81.9324 94.112 82.2548 94.2949 82.6532 94.6933C82.7039 95.1091 82.7039 95.1091 82.7034 95.6327C82.7042 95.8319 82.705 96.0311 82.7059 96.2362C82.7041 96.5668 82.7041 96.5668 82.7023 96.904C82.7026 97.1369 82.703 97.3697 82.7033 97.6096C82.7039 98.2579 82.7026 98.9062 82.7006 99.5544C82.6988 100.253 82.6994 100.951 82.6997 101.65C82.6999 102.86 82.6986 104.071 82.6963 105.281C82.693 107.032 82.692 108.782 82.6915 110.532C82.6906 113.372 82.6878 116.211 82.684 119.051C82.6802 121.81 82.6773 124.569 82.6756 127.328C82.6755 127.498 82.6754 127.668 82.6753 127.843C82.6748 128.695 82.6742 129.548 82.6737 130.401C82.6695 137.478 82.6623 144.555 82.6532 151.632C81.6675 151.32 80.8291 150.906 79.9491 150.369C79.6407 150.185 79.3322 150 79.0236 149.816C78.8546 149.715 78.6857 149.614 78.5117 149.51C77.2682 148.774 76.0123 148.059 74.7588 147.34C74.3345 147.096 73.9138 146.846 73.4965 146.591C72.8651 146.22 72.2244 145.943 71.5452 145.67C68.5519 144.361 68.5519 144.361 67.9042 142.874C67.5233 141.23 67.5742 139.552 67.6275 137.875C67.6466 137.14 67.6419 136.405 67.6405 135.67C67.6416 134.436 67.6602 133.203 67.6901 131.97C67.7245 130.549 67.7345 129.13 67.7307 127.708C67.7274 126.334 67.7381 124.96 67.7562 123.586C67.7638 123.004 67.7672 122.423 67.7672 121.842C67.7772 116.843 67.7772 116.843 69.0353 115.564C69.5304 115.154 70.0633 114.822 70.6123 114.489C71.0401 114.042 71.3955 113.568 71.7475 113.061C71.8378 112.934 71.928 112.807 72.021 112.676C75.4907 107.691 77.8462 102.017 80.2751 96.4817C80.6566 95.6121 81.042 94.7443 81.4287 93.877Z" fill="#030712"/>
<path d="M80.2044 92.6527C80.4064 92.9558 80.4064 92.9558 80.6126 93.265C80.3961 93.829 80.161 94.3369 79.8855 94.8721C79.7113 95.2238 79.5378 95.576 79.365 95.9284C79.2223 96.2187 79.2223 96.2187 79.0767 96.5148C78.5832 97.5445 78.1273 98.5905 77.6669 99.6353C73.1791 109.794 73.1791 109.794 69.5921 113.877C69.4772 114.014 69.3622 114.15 69.2438 114.291C66.8608 116.913 63.1484 118.449 60.1018 120.178C58.7853 120.926 57.4726 121.68 56.161 122.436C55.8317 122.625 55.8317 122.625 55.4958 122.819C54.1461 123.598 52.8033 124.387 51.4844 125.217C50.9353 125.556 50.6605 125.714 50.0002 125.714C50.1751 125.468 50.1751 125.468 50.3534 125.217C53.9487 120.05 56.376 114.204 58.9342 108.483C65.6781 93.4077 65.6781 93.4077 71.7222 90.9308C74.6992 89.954 77.6317 91.0814 80.2044 92.6527Z" fill="#A5C63B"/>
<path d="M67.5507 117.348C67.5507 125.833 67.5507 134.319 67.5507 143.062C64.0561 141.156 60.5768 139.226 57.156 137.19C56.6912 136.914 56.225 136.641 55.7586 136.368C55.5976 136.274 55.4366 136.179 55.2707 136.082C54.9604 135.901 54.65 135.719 54.3395 135.538C53.2878 134.922 53.2878 134.922 53.0608 134.695C53.0419 134.406 53.0369 134.117 53.0377 133.828C53.0377 133.645 53.0377 133.461 53.0377 133.271C53.0388 133.072 53.0398 132.872 53.0409 132.666C53.0412 132.462 53.0415 132.259 53.0418 132.049C53.0429 131.396 53.0455 130.743 53.0481 130.09C53.0491 129.649 53.05 129.207 53.0509 128.766C53.0531 127.681 53.0566 126.596 53.0608 125.511C53.1898 125.439 53.3187 125.368 53.4515 125.294C57.0855 123.273 60.7027 121.225 64.2607 119.073C64.4499 118.958 64.6391 118.844 64.834 118.726C65.1915 118.509 65.5484 118.292 65.9047 118.073C66.141 117.929 66.141 117.929 66.382 117.783C66.5197 117.699 66.6574 117.614 66.7992 117.527C67.1425 117.348 67.1425 117.348 67.5507 117.348Z" fill="#030712"/>
<path d="M98.1638 125.715C98.5724 126.328 98.7374 126.791 98.9444 127.493C99.0163 127.735 99.0883 127.977 99.1624 128.226C99.2406 128.493 99.3189 128.76 99.3971 129.026C99.4795 129.305 99.5621 129.583 99.6447 129.861C99.8211 130.456 99.9968 131.051 100.172 131.646C100.448 132.582 100.726 133.518 101.004 134.454C101.051 134.61 101.097 134.765 101.145 134.926C101.238 135.241 101.332 135.556 101.426 135.871C101.567 136.345 101.708 136.819 101.848 137.294C106.074 152.162 106.074 152.162 112.125 166.349C112.595 167.283 112.736 167.935 112.654 168.98C111.93 168.706 111.264 168.386 110.59 168.008C110.388 167.895 110.186 167.782 109.978 167.666C109.763 167.544 109.547 167.422 109.325 167.297C109.1 167.17 108.875 167.044 108.643 166.913C103.769 164.164 103.769 164.164 102.326 163.235C101.761 162.927 101.37 162.776 100.766 162.618C99.6559 162.261 98.8119 161.814 98.1638 160.817C97.524 158.481 97.7497 155.919 97.812 153.522C97.8338 152.544 97.8358 151.565 97.8399 150.587C97.8506 148.736 97.8791 146.886 97.914 145.036C97.9528 142.929 97.9718 140.821 97.9892 138.714C98.0254 134.38 98.0864 130.048 98.1638 125.715Z" fill="#030712"/>
<path d="M77.3474 202.245C77.936 202.531 77.936 202.531 78.5384 202.89C78.7554 203.018 78.9725 203.147 79.1961 203.279C79.4194 203.413 79.6428 203.548 79.8729 203.687C80.101 203.822 80.3291 203.957 80.5641 204.097C81.1256 204.43 81.6859 204.766 82.2454 205.102C81.5498 205.683 80.8505 206.16 80.0619 206.605C79.7211 206.799 79.7211 206.799 79.3734 206.996C79.2533 207.063 79.1333 207.131 79.0096 207.201C78.497 207.489 77.9856 207.78 77.474 208.07C77.2094 208.22 76.9447 208.37 76.68 208.52C75.3934 209.249 74.1123 209.987 72.8321 210.727C72.3942 210.98 71.9562 211.233 71.5183 211.486C71.3021 211.611 71.0858 211.736 70.863 211.865C70.1973 212.25 69.5313 212.633 68.8652 213.017C68.6437 213.145 68.4221 213.272 68.1938 213.404C67.7524 213.658 67.3107 213.912 66.8688 214.166C65.7429 214.813 64.6236 215.47 63.5121 216.141C63.2886 216.275 63.0652 216.409 62.8349 216.547C62.409 216.803 61.9845 217.061 61.5616 217.322C61.3713 217.435 61.181 217.549 60.985 217.666C60.7358 217.818 60.7358 217.818 60.4817 217.973C59.8697 218.215 59.6014 218.166 58.98 217.96C58.5822 217.759 58.1921 217.542 57.8089 217.315C57.5912 217.186 57.3735 217.058 57.1492 216.926C56.9242 216.792 56.6991 216.657 56.4672 216.518C56.2382 216.383 56.0092 216.248 55.7733 216.108C55.2087 215.774 54.645 215.439 54.082 215.103C54.6792 214.455 55.2746 214.03 56.0415 213.6C56.3833 213.406 56.3833 213.406 56.732 213.209C56.9796 213.071 57.2273 212.932 57.4749 212.794C57.7324 212.649 57.9899 212.503 58.2473 212.357C58.6441 212.133 59.041 211.909 59.4381 211.685C60.7275 210.958 62.0099 210.219 63.2912 209.477C63.7292 209.224 64.1671 208.972 64.605 208.719C64.9294 208.531 64.9294 208.531 65.2603 208.34C65.926 207.955 66.592 207.572 67.2581 207.188C67.4796 207.06 67.7012 206.933 67.9294 206.801C68.371 206.547 68.8129 206.293 69.255 206.039C70.3792 205.393 71.4959 204.737 72.6041 204.064C72.8266 203.93 73.0491 203.796 73.2784 203.658C73.7019 203.403 74.1238 203.145 74.5438 202.883C74.7334 202.77 74.923 202.656 75.1184 202.539C75.366 202.387 75.366 202.387 75.6185 202.232C76.2889 201.979 76.6605 202.054 77.3474 202.245Z" fill="#030712"/>
<path d="M82.8569 206.328C83.3963 210.416 83.3963 210.416 82.6019 211.609C81.836 212.278 80.8871 212.63 79.956 213.014C78.8717 213.496 77.8689 214.129 76.8492 214.734C76.3907 214.999 75.9317 215.263 75.4725 215.527C74.124 216.304 72.7761 217.081 71.4283 217.859C70.9893 218.112 70.5503 218.365 70.1113 218.619C68.9607 219.282 67.8103 219.946 66.6599 220.611C65.9908 220.997 65.3215 221.383 64.6521 221.768C63.9391 222.179 63.2267 222.591 62.5156 223.005C62.2552 223.156 61.9948 223.307 61.7344 223.458C61.5218 223.582 61.3092 223.706 61.0902 223.834C60.6119 224.083 60.6119 224.083 60.2038 224.083C60.126 223.336 60.0794 222.589 60.0379 221.838C60.0157 221.628 59.9935 221.418 59.9706 221.201C59.9422 220.515 59.9669 220.036 60.2038 219.389C60.8924 218.761 61.6541 218.352 62.4836 217.944C63.0691 217.65 63.629 217.315 64.1937 216.983C64.6535 216.722 65.1135 216.461 65.5737 216.201C66.0785 215.914 66.5831 215.626 67.0875 215.339C67.276 215.231 67.276 215.231 67.4683 215.122C68.6653 214.439 69.8562 213.746 71.0456 213.05C72.9776 211.92 74.9143 210.798 76.854 209.681C77.8921 209.083 78.9295 208.484 79.9647 207.881C80.1461 207.775 80.3275 207.67 80.5145 207.561C80.8519 207.365 81.1892 207.168 81.5262 206.971C82.6302 206.328 82.6302 206.328 82.8569 206.328Z" fill="#030712"/>
<path d="M79.7965 214.287C80.0988 214.46 80.0988 214.46 80.4072 214.637C80.6713 214.788 80.9355 214.939 81.1996 215.091C81.3325 215.167 81.4653 215.243 81.6022 215.321C82.3246 215.736 82.3246 215.736 83.0618 216.124C83.0618 216.259 83.0618 216.393 83.0618 216.532C82.9144 216.616 82.7669 216.7 82.615 216.786C80.0364 218.255 77.4594 219.726 74.8986 221.226C73.1363 222.258 71.3667 223.276 69.5924 224.287C67.7422 225.342 65.8961 226.403 64.0567 227.476C63.8623 227.589 63.6679 227.703 63.4676 227.82C63.2826 227.928 63.0977 228.036 62.9071 228.147C62.7292 228.25 62.5513 228.354 62.368 228.46C62.0035 228.678 61.644 228.904 61.289 229.137C61.1127 229.251 60.9364 229.366 60.7547 229.483C60.5995 229.588 60.4443 229.692 60.2845 229.799C59.6252 230.072 59.2546 229.985 58.572 229.797C58.037 229.544 58.037 229.544 57.5061 229.226C57.3121 229.11 57.1181 228.995 56.9182 228.876C56.7189 228.755 56.5196 228.634 56.3143 228.509C56.1143 228.39 55.9142 228.272 55.7081 228.149C54.7742 227.589 53.9031 227.022 53.0618 226.328C53.278 226.2 53.4943 226.072 53.7171 225.941C54.0004 225.772 54.2836 225.604 54.5669 225.435C54.7095 225.351 54.852 225.267 54.999 225.18C55.1358 225.098 55.2726 225.017 55.4135 224.933C55.5396 224.858 55.6657 224.783 55.7957 224.706C56.1573 224.485 56.1573 224.485 56.5312 224.083C56.7085 224.203 56.8858 224.324 57.0685 224.447C57.3059 224.602 57.5435 224.757 57.7812 224.912C57.8974 224.992 58.0137 225.071 58.1335 225.153C58.7135 225.526 59.0758 225.724 59.7719 225.671C60.4364 225.505 60.9141 225.278 61.5025 224.93C61.7106 224.808 61.9187 224.686 62.1331 224.561C62.3554 224.429 62.5777 224.296 62.8067 224.16C63.0428 224.021 63.279 223.882 63.5154 223.744C64.006 223.456 64.4961 223.168 64.9858 222.879C66.1084 222.218 67.2386 221.569 68.3679 220.92C68.8077 220.666 69.2475 220.412 69.6873 220.158C70.5953 219.635 71.5036 219.111 72.4121 218.588C74.8806 217.166 77.3451 215.738 79.7965 214.287Z" fill="#373D4D"/>
<path d="M50.7147 194.542C51.0497 194.772 51.3849 195.003 51.7042 195.254C52.1731 195.612 52.6742 195.902 53.1816 196.201C53.6932 196.504 54.1936 196.824 54.6943 197.144C54.4335 197.926 54.1893 197.982 53.4762 198.369C53.2646 198.486 53.0529 198.602 52.8349 198.722C52.6067 198.845 52.3784 198.968 52.1433 199.095C51.6709 199.355 51.1987 199.615 50.7267 199.875C50.3801 200.065 50.3801 200.065 50.0266 200.26C49.2316 200.7 48.447 201.156 47.6662 201.621C45.9243 202.656 44.1685 203.666 42.4124 204.677C42.1941 204.803 41.9759 204.928 41.751 205.058C41.5562 205.17 41.3613 205.282 41.1605 205.397C40.6092 205.706 40.6092 205.706 40.1078 206.075C39.4257 206.409 39.0906 206.33 38.3677 206.124C37.5614 205.748 36.8093 205.279 36.0463 204.822C35.8377 204.702 35.6291 204.582 35.4141 204.457C35.1186 204.282 35.1186 204.282 34.817 204.103C34.5466 203.943 34.5466 203.943 34.2706 203.78C34.0763 203.627 34.0763 203.627 33.8779 203.47C33.8779 203.268 33.8779 203.066 33.8779 202.858C34.0232 202.775 34.1686 202.692 34.3183 202.607C38.0007 200.507 38.0007 200.507 41.6748 198.392C42.1138 198.139 42.5537 197.887 42.9944 197.637C44.0476 197.037 45.0762 196.422 46.0822 195.746C49.0982 193.762 49.0982 193.762 50.7147 194.542Z" fill="#DB46EF"/>
<path d="M56.9392 202.246C57.5278 202.531 57.5278 202.531 58.1302 202.89C58.3472 203.019 58.5643 203.147 58.7879 203.279C59.0112 203.414 59.2346 203.548 59.4647 203.687C59.6928 203.822 59.9209 203.958 60.1559 204.097C60.7173 204.431 61.2777 204.766 61.8372 205.103C61.1774 205.652 60.5254 206.111 59.7732 206.523C59.5712 206.635 59.3693 206.747 59.1612 206.862C58.9457 206.98 58.7301 207.098 58.5081 207.22C56.6634 208.242 54.8307 209.28 53.0106 210.345C52.8056 210.465 52.6006 210.585 52.3893 210.709C51.3244 211.331 51.3244 211.331 50.2733 211.976C49.7963 212.246 49.7963 212.246 49.3363 212.243C48.4903 211.939 47.7315 211.504 46.9519 211.059C46.7916 210.97 46.6312 210.88 46.466 210.788C45.5771 210.287 44.7182 209.763 43.8779 209.184C44.4211 208.605 44.9336 208.191 45.6286 207.808C45.9048 207.655 45.9048 207.655 46.1866 207.498C46.3844 207.389 46.5823 207.281 46.7861 207.169C47.2083 206.934 47.6302 206.699 48.052 206.464C48.3802 206.281 48.3802 206.281 48.7149 206.094C49.831 205.466 50.9362 204.819 52.0412 204.172C53.2371 203.471 53.2371 203.471 53.7895 203.151C54.0968 202.97 54.401 202.783 54.6999 202.588C55.5515 202.043 55.97 202.003 56.9392 202.246Z" fill="#030712"/>
<path d="M200.613 204.9C201.461 205.789 201.747 206.452 201.727 207.665C201.547 208.624 200.955 209.211 200.205 209.798C199.544 210.148 198.88 210.402 198.164 210.614C198.041 210.653 197.918 210.692 197.791 210.732C195.806 211.117 193.622 210.972 191.837 210.002C191.007 209.439 190.385 208.902 190.001 207.961C189.912 207.041 189.909 206.535 190.281 205.69C193.019 202.692 197.367 202.889 200.613 204.9Z" fill="#030712"/>
<path d="M7.55104 128.949C7.81878 129.076 8.08209 129.213 8.34106 129.358C8.49078 129.441 8.64051 129.524 8.79477 129.609C9.03148 129.743 9.03148 129.743 9.27298 129.88C9.435 129.971 9.59703 130.063 9.76396 130.157C10.0935 130.344 10.4227 130.531 10.7515 130.72C11.1847 130.967 11.6201 131.21 12.056 131.452C12.2978 131.591 12.5393 131.73 12.7806 131.87C13.1003 132.052 13.1003 132.052 13.4264 132.237C13.5753 132.364 13.7242 132.491 13.8776 132.622C13.9058 133.156 13.9058 133.156 13.8776 133.643C13.6771 133.755 13.6771 133.755 13.4726 133.87C12.8591 134.215 12.2459 134.56 11.6327 134.905C11.4225 135.023 11.2123 135.141 10.9957 135.263C10.686 135.438 10.686 135.438 10.3699 135.616C10.1663 135.73 9.96269 135.844 9.7529 135.962C9.25083 136.256 8.78045 136.573 8.30359 136.906C7.7601 137.241 7.55008 137.316 6.88857 137.365C5.71773 136.978 4.71196 136.358 3.66072 135.722C3.44382 135.593 3.22691 135.465 3.00344 135.332C1.98464 134.726 0.976848 134.111 0 133.439C0.0746002 132.917 0.140337 132.679 0.541047 132.324C0.687399 132.233 0.83375 132.142 0.984537 132.047C1.23369 131.891 1.23369 131.891 1.48787 131.731C1.67034 131.621 1.85282 131.511 2.04082 131.398C2.23145 131.282 2.42208 131.167 2.61849 131.048C3.22596 130.686 3.83787 130.333 4.45154 129.982C4.66029 129.859 4.86904 129.736 5.08412 129.61C5.28497 129.495 5.48583 129.38 5.69278 129.262C5.87346 129.158 6.05414 129.053 6.2403 128.946C6.80756 128.715 6.99315 128.721 7.55104 128.949Z" fill="#64748B"/>
<path d="M101.021 231.633C102.014 231.677 102.734 231.954 103.636 232.373C105.406 233.14 106.78 232.701 108.572 232.245C109.171 232.207 109.171 232.207 109.592 232.245C109.693 232.346 109.693 232.346 109.796 232.449C109.72 233.447 109.495 234.056 108.98 234.898C109.271 235.771 109.873 236.049 110.606 236.568C111.053 236.968 111.175 237.165 111.225 237.755C111.021 237.959 111.021 237.959 110.577 237.975C110.385 237.972 110.192 237.97 109.994 237.967C107.281 237.824 107.281 237.824 104.975 238.98C104.853 239.127 104.73 239.274 104.604 239.426C104.286 239.796 104.286 239.796 103.559 240C103.395 240 103.231 240 103.062 240C102.857 239.669 102.653 239.337 102.449 239.005C102.336 238.821 102.222 238.636 102.105 238.446C101.837 237.959 101.837 237.959 101.837 237.551C101.65 237.526 101.463 237.502 101.27 237.476C99.9378 237.294 98.6424 237.097 97.3474 236.735C97.3681 236.267 97.3681 236.267 97.5515 235.714C98.1303 235.347 98.1303 235.347 98.8525 235.038C99.0898 234.934 99.3271 234.83 99.5716 234.722C100.205 234.49 100.205 234.49 100.817 234.49C100.814 234.301 100.812 234.112 100.81 233.917C100.808 233.672 100.806 233.428 100.804 233.176C100.802 232.932 100.799 232.688 100.797 232.437C100.817 231.837 100.817 231.837 101.021 231.633Z" fill="#DB46EF"/>
<path d="M32.5132 192.188C33.1054 192.47 33.6667 192.781 34.2322 193.114C34.4499 193.242 34.6676 193.369 34.8918 193.501C35.1169 193.634 35.342 193.766 35.5738 193.903C35.8029 194.038 36.0319 194.172 36.2678 194.311C36.8319 194.642 37.3957 194.974 37.9591 195.306C37.3317 195.799 36.6801 196.202 35.9884 196.598C35.6498 196.792 35.6498 196.792 35.3044 196.991C35.0668 197.127 34.8293 197.262 34.5917 197.398C34.1304 197.663 33.669 197.927 33.2078 198.192C32.9802 198.321 32.7526 198.451 32.5182 198.584C32.0612 198.849 31.6088 199.123 31.1614 199.404C30.9485 199.537 30.7357 199.669 30.5164 199.806C30.3282 199.926 30.14 200.047 29.946 200.171C29.2417 200.47 28.8929 200.413 28.1631 200.204C27.6404 199.966 27.6404 199.966 27.1276 199.67C26.9409 199.563 26.7542 199.456 26.5619 199.346C26.2749 199.177 26.2749 199.177 25.982 199.005C25.6913 198.839 25.6913 198.839 25.3948 198.67C23.8367 197.768 23.8367 197.768 23.2651 197.143C23.4222 197.054 23.5793 196.964 23.7411 196.872C24.3386 196.533 24.9358 196.192 25.533 195.852C25.9293 195.626 26.326 195.401 26.7226 195.176C28.3793 194.233 28.3793 194.233 30.0046 193.238C30.1438 193.15 30.2829 193.062 30.4263 192.971C30.777 192.747 31.1248 192.518 31.4723 192.288C32.0407 192.041 32.0407 192.041 32.5132 192.188Z" fill="#030712"/>
<path d="M55.5106 198.572C55.6821 199.37 55.72 200.024 55.5106 200.817C54.8728 201.445 54.111 201.814 53.3187 202.213C52.6137 202.575 51.9285 202.971 51.24 203.364C50.6403 203.706 50.0387 204.044 49.4368 204.382C48.1124 205.129 46.7978 205.892 45.4851 206.659C45.175 206.84 45.175 206.84 44.8586 207.025C43.7819 207.653 43.7819 207.653 42.7181 208.303C42.2453 208.572 42.2453 208.572 41.8371 208.572C41.8561 208.752 41.875 208.932 41.8945 209.117C42.0129 211.022 42.0129 211.022 41.4879 211.629C40.9288 211.974 40.4622 212.246 39.7963 212.246C39.7186 211.498 39.672 210.751 39.6305 210.001C39.6082 209.791 39.586 209.58 39.5631 209.364C39.5347 208.678 39.5594 208.198 39.7963 207.552C40.485 206.923 41.2467 206.514 42.0761 206.106C42.6616 205.813 43.2215 205.477 43.7863 205.146C44.246 204.885 44.706 204.624 45.1662 204.363C45.6668 204.079 46.1671 203.794 46.6673 203.509C46.7923 203.437 46.9172 203.366 47.046 203.293C48.3158 202.569 49.5798 201.835 50.8422 201.098C51.0365 200.984 51.2307 200.871 51.4308 200.754C52.5268 200.114 53.6147 199.463 54.6942 198.794C55.1025 198.572 55.1025 198.572 55.5106 198.572Z" fill="#DB46EF"/>
<path d="M62.4486 206.328C62.4986 206.675 62.534 207.025 62.5634 207.374C62.5953 207.665 62.5953 207.665 62.6279 207.962C62.3302 208.976 61.4965 209.296 60.6118 209.798C60.3247 209.963 60.3247 209.963 60.0317 210.132C59.4031 210.489 58.7708 210.839 58.1373 211.188C56.51 212.089 54.8929 212.999 53.3138 213.983C52.4899 214.491 52.4899 214.491 52.0404 214.491C52.0617 214.669 52.083 214.846 52.105 215.029C52.1573 215.771 52.1727 216.411 52.0404 217.144C51.511 217.736 50.9333 218.067 50.2036 218.369C50.1363 218.369 50.0689 218.369 49.9996 218.369C49.9219 217.587 49.8752 216.806 49.8337 216.022C49.8115 215.802 49.7893 215.582 49.7664 215.356C49.7383 214.647 49.7624 214.141 49.9996 213.471C50.6848 212.836 51.444 212.431 52.2761 212.026C52.8759 211.727 53.4479 211.383 54.0254 211.044C54.4944 210.777 54.9637 210.51 55.4332 210.244C55.9327 209.96 56.4319 209.676 56.9312 209.392C57.0535 209.322 57.1758 209.253 57.3018 209.181C58.5858 208.45 59.8634 207.708 61.1381 206.96C62.2226 206.328 62.2226 206.328 62.4486 206.328Z" fill="#030712"/>
<path d="M200.613 204.9C201.461 205.789 201.747 206.452 201.727 207.665C201.547 208.624 200.955 209.211 200.205 209.798C199.544 210.148 198.88 210.402 198.164 210.614C198.041 210.653 197.918 210.692 197.791 210.732C195.806 211.117 193.622 210.972 191.837 210.002C191.007 209.439 190.385 208.902 190.001 207.961C189.912 207.041 189.909 206.535 190.281 205.69C193.019 202.692 197.367 202.889 200.613 204.9ZM191.477 206.205C191.18 206.55 191.18 206.55 191.047 207.145C191.316 208.068 191.865 208.467 192.654 208.981C194.306 209.867 196.277 209.892 198.068 209.393C199.454 208.852 199.454 208.852 200.409 207.757C200.579 207.162 200.579 207.162 200.409 206.532C199.513 205.311 198.17 204.933 196.735 204.696C194.82 204.487 192.9 204.832 191.477 206.205Z" fill="#64748B"/>
<path d="M26.6967 206.723C27.3855 207.131 27.3855 207.131 27.9937 207.596C28.548 208.021 28.548 208.021 29.2102 207.936C29.722 207.779 30.1137 207.622 30.5615 207.335C31.2248 206.94 31.2248 206.94 31.6329 206.94C31.6329 207.95 31.6329 208.96 31.6329 210.001C31.835 210.068 32.037 210.136 32.2452 210.205C31.6794 210.856 30.9641 211.265 30.2299 211.697C30.1049 211.776 29.9799 211.854 29.8512 211.935C29.4789 212.154 29.4789 212.154 28.7758 212.45C28.0487 212.227 27.4113 211.866 26.7541 211.488C26.5686 211.381 26.3831 211.275 26.1921 211.165C26.0008 211.055 25.8095 210.944 25.6125 210.83C25.4212 210.72 25.23 210.61 25.0329 210.497C24.511 210.197 23.9896 209.896 23.4696 209.593C23.2806 209.488 23.0916 209.384 22.8968 209.276C22.7491 209.178 22.6014 209.081 22.4492 208.981C22.4492 208.846 22.4492 208.711 22.4492 208.572C23.5565 207.545 25.1691 206.347 26.6967 206.723Z" fill="#373D4D"/>
<path d="M46.3263 218.367C46.654 218.528 46.9813 218.69 47.3085 218.852C47.4908 218.942 47.6731 219.032 47.861 219.125C48.3672 219.388 48.3672 219.388 48.9794 219.796C50.0503 219.747 50.7357 219.31 51.6325 218.775C51.7672 218.775 51.9019 218.775 52.0407 218.775C52.0521 219.074 52.0521 219.074 52.0638 219.379C52.0839 219.768 52.0839 219.768 52.1044 220.166C52.1163 220.424 52.1281 220.682 52.1403 220.948C52.1858 221.626 52.1858 221.626 52.5596 222.03C52.6578 222.101 52.7559 222.172 52.857 222.245C52.3691 222.549 51.8801 222.85 51.3901 223.15C51.2527 223.236 51.1152 223.322 50.9736 223.411C50.8388 223.493 50.704 223.575 50.565 223.66C50.3807 223.774 50.3807 223.774 50.1926 223.89C49.7061 224.125 49.3151 224.238 48.7753 224.286C48.3107 224.1 48.3107 224.1 47.8402 223.806C47.6667 223.699 47.4932 223.593 47.3145 223.483C47.1357 223.369 46.957 223.255 46.7728 223.138C46.5964 223.028 46.42 222.919 46.2383 222.807C45.8893 222.59 45.5414 222.372 45.1946 222.152C44.8655 221.945 44.5339 221.741 44.1999 221.542C44.0506 221.452 43.9013 221.363 43.7474 221.271C43.6147 221.192 43.4819 221.114 43.3451 221.034C43.2513 220.962 43.1576 220.89 43.061 220.816C43.061 220.681 43.061 220.547 43.061 220.408C43.5281 220.135 43.9959 219.863 44.4641 219.592C44.597 219.514 44.7298 219.436 44.8667 219.356C45.8719 218.775 45.8719 218.775 46.3263 218.775C46.3263 218.641 46.3263 218.506 46.3263 218.367Z" fill="#373D4D"/>
<path d="M37.5896 213.049C37.7945 213.198 37.9994 213.347 38.2106 213.501C38.8287 213.913 39.0727 214.002 39.7962 213.878C40.2456 213.664 40.2456 213.664 40.6508 213.368C41.392 212.858 41.392 212.858 41.837 212.858C41.8485 213.156 41.8485 213.156 41.8601 213.461C41.8803 213.851 41.8803 213.851 41.9008 214.248C41.9126 214.506 41.9245 214.764 41.9367 215.03C42.0477 215.758 42.1307 215.868 42.6533 216.327C42.0658 216.682 41.4737 217.028 40.8804 217.373C40.7137 217.474 40.5471 217.575 40.3754 217.678C40.2129 217.772 40.0505 217.865 39.8831 217.961C39.7345 218.049 39.586 218.137 39.4329 218.227C38.8003 218.424 38.5417 218.259 37.9595 217.96C37.5702 217.747 37.1848 217.527 36.8027 217.302C36.5869 217.175 36.371 217.049 36.1486 216.918C35.9254 216.786 35.7022 216.654 35.4722 216.518C35.0272 216.257 34.5821 215.995 34.1369 215.733C33.9403 215.617 33.7438 215.501 33.5412 215.382C33.25 215.212 32.9547 215.049 32.6533 214.899C33.0271 213.777 34.2196 213.268 35.2307 212.742C36.1839 212.343 36.6904 212.531 37.5896 213.049Z" fill="#373D4D"/>
<path d="M7.1491 130.207C8.0508 130.591 8.88459 131.102 9.73236 131.59C9.93138 131.702 10.1304 131.815 10.3354 131.931C10.619 132.093 10.619 132.093 10.9082 132.259C11.0815 132.358 11.2548 132.457 11.4333 132.559C11.837 132.827 11.837 132.827 12.041 133.235C11.2809 133.753 10.5087 134.248 9.73236 134.741C9.51756 134.887 9.30276 135.034 9.08145 135.185C8.43115 135.589 7.8837 135.895 7.14307 136.093C6.25991 135.864 5.62443 135.406 4.89817 134.868C4.61928 134.705 4.3381 134.545 4.05394 134.391C3.81225 134.253 3.5707 134.114 3.32928 133.975C3.20314 133.903 3.077 133.831 2.94703 133.756C2.6449 133.583 2.34294 133.409 2.04102 133.235C2.04102 133.101 2.04102 132.966 2.04102 132.827C2.80398 132.377 3.5701 131.932 4.33694 131.488C4.55398 131.36 4.77101 131.231 4.99463 131.099C5.20377 130.979 5.41292 130.859 5.6284 130.735C5.82077 130.622 6.01314 130.51 6.21135 130.395C6.73491 130.174 6.73491 130.174 7.1491 130.207Z" fill="#030712"/>
<path d="M52.449 126.123C52.449 128.817 52.449 131.511 52.449 134.286C50.7882 133.456 49.2029 132.627 47.6148 131.684C47.4134 131.567 47.2121 131.449 47.0046 131.328C46.8137 131.215 46.6229 131.102 46.4262 130.986C46.2548 130.885 46.0833 130.784 45.9067 130.679C45.5102 130.409 45.5102 130.409 45.3062 130.001C45.4522 129.919 45.5982 129.838 45.7486 129.755C46.298 129.449 46.8472 129.142 47.3963 128.836C47.7477 128.64 48.0994 128.444 48.4511 128.249C49.4361 127.699 50.4148 127.149 51.3648 126.54C52.0409 126.123 52.0409 126.123 52.449 126.123Z" fill="#030712"/>
<path d="M53.2654 216.123C54.038 216.432 54.696 216.743 55.4122 217.151C55.6207 217.27 55.8292 217.388 56.044 217.51C56.367 217.695 56.367 217.695 56.6965 217.883C56.9158 218.008 57.1351 218.133 57.361 218.261C57.9009 218.568 58.4403 218.876 58.9797 219.184C58.9797 220.801 58.9797 222.417 58.9797 224.082C58.207 223.773 57.5491 223.462 56.8328 223.054C56.6243 222.935 56.4159 222.817 56.2011 222.695C55.9857 222.572 55.7704 222.449 55.5486 222.322C55.2196 222.135 55.2196 222.135 54.8841 221.944C54.3442 221.637 53.8047 221.329 53.2654 221.021C53.2654 219.405 53.2654 217.788 53.2654 216.123Z" fill="#030712"/>
<path d="M43.061 210.205C43.8281 210.512 44.4548 210.81 45.1561 211.226C45.3544 211.344 45.5528 211.461 45.7572 211.582C45.9618 211.704 46.1665 211.827 46.3774 211.953C46.6891 212.137 46.6891 212.137 47.0072 212.325C48.5417 213.237 48.5417 213.237 48.7753 213.47C48.7931 213.819 48.7972 214.168 48.7953 214.517C48.7946 214.728 48.794 214.939 48.7933 215.157C48.7916 215.379 48.7899 215.601 48.7881 215.83C48.7872 216.053 48.7862 216.276 48.7853 216.506C48.7829 217.059 48.7795 217.611 48.7753 218.164C48.0184 217.88 47.3308 217.536 46.6285 217.136C46.42 217.018 46.2115 216.899 45.9967 216.777C45.7814 216.654 45.5661 216.531 45.3442 216.404C45.0153 216.217 45.0153 216.217 44.6797 216.026C44.1398 215.719 43.6004 215.411 43.061 215.103C43.061 213.487 43.061 211.87 43.061 210.205Z" fill="#030712"/>
<path d="M22.6532 198.367C23.9938 199.093 25.3285 199.829 26.6583 200.574C26.8034 200.655 26.9485 200.736 27.098 200.819C28.1395 201.404 28.1395 201.404 28.3675 201.633C28.3853 201.996 28.3893 202.36 28.3874 202.724C28.3868 202.944 28.3861 203.165 28.3854 203.392C28.3837 203.623 28.382 203.855 28.3803 204.094C28.3793 204.327 28.3784 204.56 28.3775 204.799C28.3751 205.376 28.3717 205.953 28.3675 206.53C27.1313 205.888 27.1313 205.888 26.5877 205.586C25.9062 205.208 25.2457 204.864 24.5123 204.598C23.6672 204.233 23.2166 204.001 22.6532 203.265C22.3264 201.661 22.4925 199.985 22.6532 198.367Z" fill="#030712"/>
<path d="M32.8569 204.285C33.5518 204.615 34.2312 204.955 34.9109 205.313C35.3322 205.523 35.7612 205.7 36.1956 205.88C37.1145 206.303 37.9797 206.702 38.5712 207.55C38.9689 209.076 38.7722 210.699 38.5712 212.244C37.8143 211.96 37.1267 211.616 36.4244 211.216C36.2159 211.098 36.0074 210.979 35.7926 210.857C35.5773 210.734 35.362 210.611 35.1401 210.484C34.8112 210.297 34.8112 210.297 34.4756 210.106C33.9357 209.799 33.3963 209.491 32.8569 209.183C32.8569 207.567 32.8569 205.95 32.8569 204.285Z" fill="#DB46EF"/>
<path d="M38.1634 196.531C38.2981 196.531 38.4328 196.531 38.5716 196.531C38.8108 197.354 38.8542 197.961 38.5716 198.776C37.3819 199.921 35.6303 200.571 34.1519 201.259C33.3088 201.667 32.5604 202.052 31.8369 202.654C31.6352 203.379 31.6417 203.951 31.6846 204.699C31.6328 205.307 31.6328 205.307 31.2302 205.748C30.03 206.531 30.03 206.531 29.592 206.531C29.5143 205.75 29.4677 204.969 29.4262 204.184C29.4039 203.964 29.3817 203.744 29.3588 203.518C29.3308 202.81 29.3558 202.303 29.592 201.633C30.2721 200.999 31.0288 200.598 31.8566 200.195C32.3747 199.936 32.8715 199.646 33.3712 199.354C33.7457 199.135 34.1221 198.92 34.4995 198.706C34.6856 198.601 34.6856 198.601 34.8754 198.494C35.0008 198.423 35.1261 198.352 35.2553 198.279C35.6431 198.059 36.0308 197.839 36.4183 197.619C36.7632 197.423 37.1085 197.228 37.4537 197.032C37.9317 196.78 37.9317 196.78 38.1634 196.531Z" fill="#030712"/>
<path d="M18.5713 165.92C19.7065 165.965 20.6108 166.728 21.5249 167.336C22.2842 167.825 22.2842 167.825 23.1559 167.974C24.0741 167.589 24.9086 167.064 25.756 166.545C25.9661 166.421 25.9661 166.421 26.1805 166.295C26.3065 166.218 26.4325 166.141 26.5624 166.062C27.0349 165.884 27.286 165.961 27.7549 166.124C27.735 166.579 27.735 166.579 27.5509 167.144C27.1108 167.488 26.7173 167.754 26.2371 168.025C26.1149 168.098 25.9927 168.171 25.8668 168.247C24.9644 168.777 24.9644 168.777 24.4896 168.777C24.4896 168.912 24.4896 169.046 24.4896 169.185C24.6362 169.24 24.7827 169.296 24.9337 169.353C25.5085 169.593 26.031 169.866 26.5687 170.18C26.8319 170.331 26.8319 170.331 27.1005 170.485C27.5759 170.836 27.748 171.09 27.959 171.634C27.8243 171.769 27.6896 171.904 27.5509 172.042C26.4156 171.997 25.5113 171.235 24.5973 170.627C23.8379 170.137 23.8379 170.137 22.9662 169.989C22.048 170.374 21.2135 170.898 20.3661 171.417C20.156 171.541 20.156 171.541 19.9416 171.668C19.8156 171.744 19.6896 171.821 19.5597 171.9C19.0756 172.083 18.8381 172.045 18.3672 171.838C18.2998 171.636 18.2325 171.434 18.1631 171.226C18.6962 170.622 19.3194 170.263 20.0126 169.861C20.2296 169.734 20.4467 169.607 20.6703 169.476C21.2243 169.185 21.2243 169.185 21.6325 169.185C21.6325 169.051 21.6325 168.916 21.6325 168.777C21.4127 168.694 21.4127 168.694 21.1884 168.61C20.6136 168.37 20.0911 168.096 19.5534 167.782C19.3779 167.682 19.2025 167.581 19.0217 167.478C18.5463 167.126 18.3741 166.873 18.1631 166.328C18.2978 166.193 18.4325 166.059 18.5713 165.92Z" fill="#64748B"/>
<path d="M191.43 96.1235C191.557 96.5062 191.557 96.5062 191.634 96.9398C191.162 97.4119 190.924 97.4492 190.282 97.5776C190.115 97.6118 189.948 97.646 189.776 97.6812C189.585 97.7183 189.585 97.7183 189.389 97.7562C189.553 97.9677 189.718 98.1792 189.887 98.3971C190.1 98.6766 190.312 98.9561 190.524 99.2358C190.687 99.4445 190.687 99.4445 190.854 99.6575C190.956 99.793 191.058 99.9284 191.163 100.068C191.258 100.192 191.353 100.316 191.451 100.444C191.634 100.817 191.634 100.817 191.43 101.634C190.689 101.701 189.948 101.768 189.185 101.838C189.454 102.177 189.454 102.177 189.728 102.523C189.959 102.822 190.191 103.121 190.422 103.419C190.541 103.568 190.659 103.717 190.781 103.871C190.892 104.015 191.004 104.16 191.118 104.309C191.222 104.442 191.325 104.574 191.432 104.711C191.634 105.103 191.634 105.103 191.577 105.548C191.43 105.919 191.43 105.919 191.226 106.124C190.802 106.205 190.377 106.276 189.95 106.34C189.718 106.376 189.485 106.412 189.245 106.45C188.671 106.52 188.13 106.548 187.552 106.532C187.425 106.149 187.425 106.149 187.348 105.715C187.857 105.206 188.098 105.234 188.802 105.18C188.978 105.166 189.154 105.153 189.335 105.139C189.564 105.121 189.564 105.121 189.797 105.103C189.722 105.008 189.647 104.914 189.569 104.816C189.23 104.387 188.895 103.954 188.56 103.521C188.441 103.373 188.323 103.224 188.201 103.07C188.034 102.853 188.034 102.853 187.864 102.632C187.76 102.499 187.657 102.367 187.55 102.23C187.348 101.838 187.348 101.838 187.418 101.38C187.462 101.262 187.507 101.143 187.552 101.021C187.887 100.927 187.887 100.927 188.228 100.83C188.686 100.698 189.141 100.56 189.593 100.409C189.429 100.198 189.264 99.9862 189.095 99.7683C188.882 99.4888 188.67 99.2093 188.458 98.9296C188.295 98.7209 188.295 98.7209 188.128 98.5079C188.026 98.3724 187.924 98.237 187.819 98.0974C187.724 97.9734 187.629 97.8494 187.531 97.7217C187.348 97.348 187.348 97.348 187.421 96.893C187.464 96.7738 187.508 96.6545 187.552 96.5317C188.865 96.1767 190.073 96.0725 191.43 96.1235Z" fill="#64748B"/>
<path d="M16.1218 29.3581C16.405 29.7055 16.405 29.7055 16.6551 30.1529C16.7455 30.3143 16.8358 30.4757 16.9289 30.642C17.0204 30.8118 17.1118 30.9816 17.206 31.1566C17.3013 31.324 17.3967 31.4915 17.4949 31.664C18.182 32.9153 18.182 32.9153 18.0854 33.4945C18.0435 33.6111 18.0017 33.7277 17.9585 33.8479C17.4866 33.8096 17.4866 33.8096 16.9381 33.6438C16.7361 33.3071 16.534 32.9703 16.3259 32.6234C16.2585 35.5193 16.1912 38.4153 16.1218 41.3989C15.7177 41.5 15.7177 41.5 15.3055 41.603C14.8973 41.1949 14.8973 41.1949 14.8482 40.7661C14.8491 40.5894 14.85 40.4127 14.8509 40.2306C14.851 39.9303 14.851 39.9303 14.851 39.624C14.8531 39.4073 14.8553 39.1907 14.8574 38.9675C14.858 38.7461 14.8586 38.5247 14.8592 38.2966C14.8615 37.5875 14.8666 36.8784 14.8718 36.1693C14.8738 35.6894 14.8757 35.2095 14.8774 34.7296C14.8819 33.5513 14.8887 32.3731 14.8973 31.1948C14.7742 31.2638 14.651 31.3327 14.5242 31.4037C13.9587 31.6579 13.6463 31.5616 13.0605 31.3989C13.1193 30.7233 13.1775 30.4531 13.7023 30.0038C13.882 29.9002 14.0616 29.7965 14.2468 29.6897C14.4249 29.5829 14.603 29.4761 14.7865 29.3661C15.378 29.1244 15.5411 29.1239 16.1218 29.3581Z" fill="#64748B"/>
<path d="M188.823 151.654C188.956 151.653 189.089 151.652 189.225 151.652C189.666 151.65 190.107 151.649 190.548 151.649C190.853 151.649 191.158 151.648 191.464 151.647C192.105 151.646 192.745 151.646 193.386 151.646C194.209 151.646 195.031 151.643 195.853 151.639C196.484 151.637 197.115 151.637 197.746 151.637C198.049 151.637 198.352 151.636 198.656 151.634C199.079 151.632 199.503 151.633 199.926 151.634C200.168 151.634 200.409 151.633 200.658 151.633C201.225 151.684 201.225 151.684 201.633 152.092C201.524 152.813 201.524 152.813 201.225 153.112C200.801 153.133 200.377 153.14 199.953 153.142C199.82 153.142 199.687 153.143 199.551 153.144C199.11 153.146 198.669 153.146 198.228 153.146C197.923 153.147 197.617 153.148 197.312 153.148C196.671 153.15 196.031 153.15 195.39 153.15C194.567 153.15 193.745 153.153 192.923 153.156C192.292 153.158 191.661 153.159 191.03 153.159C190.727 153.159 190.424 153.16 190.12 153.161C189.697 153.163 189.273 153.163 188.85 153.162C188.487 153.162 188.487 153.162 188.118 153.163C187.551 153.112 187.551 153.112 187.143 152.704C187.318 151.547 187.727 151.657 188.823 151.654Z" fill="#64748B"/>
<path d="M109.184 218.98C109.482 219.078 109.78 219.176 110.077 219.274C110.243 219.328 110.409 219.383 110.579 219.439C111.021 219.593 111.021 219.593 111.429 219.797C112.019 219.779 112.602 219.749 113.189 219.708C113.353 219.697 113.517 219.686 113.685 219.675C114.09 219.649 114.494 219.621 114.899 219.593C114.831 219.75 114.763 219.908 114.693 220.07C114.453 220.715 114.464 220.99 114.695 221.634C114.96 221.912 115.232 222.185 115.511 222.45C115.326 222.448 115.141 222.446 114.95 222.444C113.135 222.488 112.102 222.781 110.817 224.083C110.028 223.333 110.028 223.333 109.784 222.73C109.125 221.922 108.14 221.951 107.144 221.838C107.737 221.375 108.271 221.073 108.98 220.817C109.048 220.211 109.115 219.605 109.184 218.98Z" fill="#3438D0"/>
<path d="M181.988 157.783C182.238 157.784 182.488 157.784 182.745 157.785C182.951 157.785 182.951 157.785 183.161 157.784C183.617 157.785 184.073 157.786 184.529 157.788C184.845 157.788 185.16 157.788 185.476 157.789C186.307 157.789 187.139 157.791 187.971 157.794C188.819 157.796 189.667 157.797 190.515 157.798C192.18 157.8 193.846 157.803 195.511 157.808C195.52 158.148 195.519 158.488 195.511 158.828C195.307 159.032 195.307 159.032 194.755 159.057C194.509 159.056 194.263 159.056 194.01 159.055C193.874 159.055 193.739 159.055 193.599 159.055C193.15 159.055 192.701 159.054 192.251 159.052C191.94 159.052 191.629 159.051 191.319 159.051C190.499 159.051 189.679 159.049 188.86 159.046C188.024 159.044 187.188 159.043 186.352 159.042C184.711 159.04 183.07 159.037 181.429 159.032C181.351 158.694 181.283 158.354 181.225 158.012C181.429 157.808 181.429 157.808 181.988 157.783Z" fill="#64748B"/>
<path d="M76.9392 0C77.2759 0 77.6127 0 77.9596 0C78.131 0.394834 78.3008 0.79038 78.4698 1.18623C78.6119 1.51652 78.6119 1.51652 78.7568 1.85348C78.98 2.44899 78.98 2.44899 78.98 3.06123C79.1147 3.06123 79.2494 3.06123 79.3882 3.06123C79.4395 2.94838 79.4908 2.83552 79.5436 2.71924C79.8403 2.16235 80.1887 1.68558 80.5744 1.18623C80.7104 1.00655 80.8464 0.826868 80.9866 0.641743C81.4831 0.150588 81.7645 0.0609618 82.4494 0C82.5782 0.367258 82.5782 0.367258 82.6535 0.816329C82.3262 1.31679 82.0024 1.75165 81.6203 2.20664C81.4655 2.39689 81.4655 2.39689 81.3076 2.59099C81.0107 2.95426 80.7105 3.31441 80.4086 3.67348C80.2692 3.84001 80.1297 4.00653 79.9861 4.17811C79.7219 4.48883 79.4537 4.79605 79.1841 5.10206C78.8005 5.0488 78.8005 5.0488 78.3678 4.89798C78.144 4.55702 78.144 4.55702 77.9756 4.11752C77.9137 3.95797 77.8519 3.79841 77.7882 3.63402C77.7269 3.46605 77.6656 3.29807 77.6025 3.12501C77.538 2.96098 77.4736 2.79696 77.4072 2.62796C77.065 1.72232 76.8566 0.983368 76.9392 0Z" fill="#64748B"/>
<path d="M48.7761 14.6914C49.5006 14.9656 50.1638 15.2868 50.8369 15.6696C51.0331 15.7807 51.2293 15.8919 51.4315 16.0065C51.637 16.1239 51.8425 16.2413 52.0542 16.3623C52.2637 16.4819 52.4733 16.6014 52.6892 16.7246C53.103 16.9608 53.5167 17.1972 53.9302 17.4339C54.3994 17.7008 54.8703 17.9638 55.3434 18.2238C55.6725 18.4073 55.6725 18.4073 56.0083 18.5945C56.2857 18.7468 56.2857 18.7468 56.5687 18.9022C56.691 18.9943 56.8134 19.0864 56.9394 19.1812C56.9394 19.3833 56.9394 19.5853 56.9394 19.7935C56.1211 19.6735 55.5428 19.416 54.834 18.9947C54.6274 18.8729 54.4207 18.7511 54.2078 18.6256C53.9938 18.4975 53.7798 18.3693 53.5593 18.2373C53.3508 18.114 53.1423 17.9906 52.9275 17.8635C52.5066 17.6144 52.0861 17.3648 51.6658 17.1147C50.638 16.5051 49.6051 15.9043 48.572 15.3037C48.6394 15.1016 48.7067 14.8996 48.7761 14.6914Z" fill="#64748B"/>
</svg>
