<svg width="251" height="240" viewBox="0 0 251 240" fill="none" xmlns="http://www.w3.org/2000/svg">
<path d="M162.6 11.8756V0.724411C162.6 0.324355 163.003 0 163.5 0C163.997 0 164.4 0.324355 164.4 0.724411V11.8756C164.4 12.2757 163.997 12.6 163.5 12.6C163.003 12.6 162.6 12.2757 162.6 11.8756Z" fill="#373D4D"/>
<path d="M157.9 3.34173C158.104 3.01688 158.558 2.9055 158.913 3.09301L168.829 8.33456C169.184 8.52214 169.305 8.93748 169.101 9.26233C168.896 9.58716 168.442 9.69838 168.087 9.51083L158.171 4.2695C157.816 4.08195 157.695 3.66659 157.9 3.34173Z" fill="#373D4D"/>
<path d="M31.4675 63.0094C31.9036 62.9462 32.3148 63.2094 32.386 63.5973C32.4571 63.9853 32.1611 64.3512 31.725 64.4144L29.241 64.7743L32.236 68.2834C32.4057 68.4822 32.4459 68.7455 32.342 68.9773C32.2381 69.2092 32.0052 69.3757 31.7283 69.4161L29.2387 69.7793L32.2365 73.2982C32.4058 73.4968 32.446 73.7599 32.3423 73.9914C32.2385 74.223 32.006 74.3894 31.7295 74.4302L27.9302 74.9903C27.4942 75.0546 27.0823 74.7924 27.0099 74.4046C26.9377 74.0168 27.2324 73.6502 27.6684 73.5859L30.1605 73.2184L27.1614 69.6982C26.992 69.4994 26.9522 69.2362 27.0562 69.0045C27.1602 68.7728 27.3929 68.6064 27.6697 68.566L30.1577 68.2025L27.1619 64.6927C26.9921 64.4938 26.952 64.2302 27.0562 63.9983C27.1603 63.7664 27.3934 63.6 27.6704 63.5598L31.4675 63.0094Z" fill="#373D4D"/>
<path d="M244.564 159.005C244.836 159.032 245.068 159.226 245.157 159.5L246.633 164.062L249.92 166.655C250.11 166.805 250.215 167.047 250.198 167.298C250.182 167.548 250.046 167.773 249.838 167.893L247.755 169.099L248.282 173.165C248.324 173.489 248.158 173.805 247.876 173.938C247.594 174.071 247.262 173.991 247.063 173.741L244.185 170.134L241.425 170.214C241.218 170.22 241.019 170.127 240.883 169.962C240.747 169.797 240.687 169.575 240.721 169.359L241.27 165.775L238.896 161.491C238.744 161.219 238.774 160.874 238.97 160.635C239.165 160.396 239.483 160.316 239.759 160.436L242.652 161.696L243.896 159.375L243.922 159.329C244.063 159.105 244.309 158.98 244.564 159.005ZM243.558 162.989C243.386 163.311 243.014 163.447 242.69 163.306L241.139 162.631L242.595 165.258C242.677 165.406 242.708 165.58 242.682 165.75L242.227 168.716L244.481 168.651H244.52C244.717 168.657 244.902 168.751 245.03 168.911L246.58 170.853L246.313 168.796C246.274 168.493 246.415 168.195 246.668 168.049L248.22 167.15L245.631 165.108C245.518 165.02 245.434 164.897 245.388 164.756L244.343 161.524L243.558 162.989Z" fill="#373D4D"/>
<path d="M134.486 204.693C134.841 204.505 135.296 204.616 135.501 204.942C135.706 205.268 135.584 205.684 135.229 205.872L125.316 211.11C124.96 211.298 124.506 211.187 124.3 210.861C124.095 210.535 124.217 210.119 124.573 209.931L134.486 204.693Z" fill="#373D4D"/>
<path d="M124.3 204.941C124.505 204.616 124.959 204.505 125.314 204.693L135.23 209.934C135.585 210.122 135.706 210.537 135.501 210.862C135.296 211.187 134.842 211.298 134.487 211.11L124.572 205.869C124.217 205.682 124.095 205.266 124.3 204.941Z" fill="#373D4D"/>
<path d="M95.533 199.243C95.8962 199.08 96.3271 199.233 96.4956 199.586L96.9814 200.602C97.15 200.954 96.9919 201.373 96.6287 201.536C96.2655 201.7 95.8346 201.546 95.6661 201.194L95.1805 200.178C95.012 199.825 95.1698 199.407 95.533 199.243ZM90.5077 198.524C90.8544 198.33 91.2979 198.445 91.4982 198.782C91.6983 199.118 91.5796 199.549 91.2329 199.743L89.9102 200.484C89.5635 200.679 89.1201 200.563 88.9199 200.227C88.7196 199.89 88.8384 199.46 89.1851 199.266L90.5077 198.524ZM98.7502 197.742C98.8116 197.358 99.182 197.095 99.5777 197.155L101.386 197.427C101.782 197.487 102.053 197.846 101.991 198.23C101.93 198.614 101.559 198.877 101.164 198.818L99.3555 198.545C98.9598 198.486 98.6888 198.126 98.7502 197.742ZM87.0086 195.971C87.0699 195.587 87.4405 195.324 87.8361 195.383L89.6491 195.656C90.0448 195.715 90.3159 196.075 90.2546 196.459C90.1934 196.843 89.823 197.106 89.4274 197.046L87.6142 196.774C87.2185 196.715 86.9474 196.355 87.0086 195.971ZM99.0898 193.717C99.4365 193.522 99.8798 193.638 100.08 193.974C100.28 194.311 100.162 194.741 99.8151 194.935L98.4923 195.677C98.1456 195.871 97.7021 195.756 97.5018 195.419C97.3016 195.083 97.4203 194.652 97.767 194.458L99.0898 193.717ZM92.3736 192.667C92.7368 192.504 93.168 192.657 93.3364 193.009L93.8197 194.021C93.9882 194.373 93.8302 194.792 93.467 194.955C93.1038 195.119 92.6728 194.965 92.5043 194.613L92.0211 193.602C91.8526 193.249 92.0103 192.831 92.3736 192.667Z" fill="#373D4D"/>
<path d="M149.394 231.6C150.944 231.601 152.53 231.94 153.796 232.651L153.917 232.721L154.036 232.792C155.246 233.544 155.998 234.604 156 235.803C156.003 237.041 155.205 238.132 153.926 238.887C152.644 239.644 151.006 240.001 149.407 240C147.807 239.998 146.169 239.639 144.885 238.88V238.879C143.605 238.124 142.803 237.034 142.8 235.796C142.798 234.557 143.596 233.466 144.876 232.711C146.158 231.954 147.795 231.598 149.394 231.6ZM149.392 233.039C147.975 233.037 146.597 233.357 145.58 233.958L145.579 233.958C144.557 234.561 144.207 235.251 144.208 235.793C144.209 236.32 144.542 236.985 145.495 237.576L145.589 237.633L145.589 237.633C146.61 238.236 147.99 238.559 149.408 238.56C150.826 238.561 152.205 238.241 153.223 237.64C154.244 237.037 154.594 236.348 154.592 235.806C154.591 235.263 154.237 234.572 153.213 233.967V233.967C152.191 233.364 150.81 233.041 149.392 233.039Z" fill="#373D4D"/>
<path d="M7.76977 151.277C7.98636 151.168 8.24315 151.176 8.45402 151.301L15.8364 155.663C16.0614 155.796 16.2 156.041 16.2 156.307C16.2 156.573 16.0614 156.819 15.8364 156.951L8.47041 161.302C8.24554 161.434 7.96852 161.434 7.74369 161.301L0.363591 156.941C0.138692 156.808 2.5718e-05 156.563 1.50624e-09 156.297C-1.66792e-05 156.031 0.138515 155.786 0.36336 155.653L7.72707 151.301L7.76977 151.277ZM2.18039 156.297L8.10705 159.798L14.0187 156.307L8.09043 152.804L2.18039 156.297Z" fill="#373D4D"/>
<path d="M219.103 99.4216L65.6739 10.9806C62.8891 9.37477 60.3673 9.21977 58.5399 10.2643L58.5352 10.2657C58.5328 10.2671 58.5304 10.2685 58.5304 10.2685L50.9603 14.6316C50.9603 14.633 50.9579 14.633 50.9555 14.6359L50.946 14.6415C49.1258 15.6934 48.0024 17.9417 48.0024 21.1407L48 127.344C48 133.76 52.5222 141.566 58.0991 144.78L211.526 233.223C214.321 234.832 216.847 234.985 218.674 233.93L218.677 233.932L226.23 229.578V229.576C228.065 228.53 229.2 226.28 229.2 223.061V116.858C229.2 110.443 224.678 102.638 219.103 99.4216Z" fill="white"/>
<path d="M48 127.344L48.0023 21.1407C48.0023 17.9417 49.1258 15.6935 50.946 14.6416L50.9555 14.6358L50.9603 14.6317L58.5304 10.2685L58.5352 10.2657L58.5398 10.2643C60.3672 9.21983 62.8892 9.37467 65.674 10.9805L219.104 99.4215C224.678 102.638 229.2 110.443 229.2 116.858V223.061C229.2 226.28 228.065 228.53 226.231 229.576V229.578L218.677 233.932L218.675 233.93C216.904 234.953 214.478 234.84 211.787 233.369L211.526 233.223L58.0992 144.78C52.5223 141.566 48 133.76 48 127.344ZM48.237 127.344C48.237 130.501 49.351 134.016 51.1633 137.144C52.9757 140.273 55.4736 142.994 58.2177 144.575L211.645 233.018C214.396 234.602 216.828 234.723 218.556 233.725L218.712 233.635L218.715 233.637L225.994 229.441V229.438L226.113 229.371C227.848 228.382 228.963 226.229 228.963 223.061V116.858C228.963 113.702 227.849 110.187 226.037 107.059C224.282 104.028 221.883 101.379 219.241 99.7781L218.985 99.6265L65.5555 11.1855C62.8138 9.60452 60.3861 9.48163 58.6577 10.4695L58.6341 10.4832L58.6297 10.4843L51.1129 14.817L51.1119 14.8182L51.0774 14.839L51.068 14.8445L51.0647 14.8464C49.3434 15.841 48.2393 17.9915 48.2393 21.1407L48.237 127.344Z" fill="#373D4D"/>
<path d="M47.4001 127.338L47.4025 21.2553C47.4025 17.9216 48.5734 15.3831 50.6773 14.1507C50.6912 14.1413 50.7057 14.1326 50.7203 14.1241L58.2797 9.76586C58.2945 9.75719 58.3096 9.74923 58.325 9.74163C60.4495 8.54624 63.2426 8.80564 66.1406 10.477H66.1409L219.354 98.8182L219.354 98.8185C222.274 100.503 224.877 103.361 226.749 106.594C228.621 109.827 229.8 113.503 229.8 116.865V222.948C229.8 226.29 228.625 228.826 226.518 230.056C226.503 230.067 226.487 230.077 226.471 230.087L218.928 234.436C218.907 234.448 218.885 234.459 218.863 234.468C216.741 235.658 213.954 235.394 211.06 233.727H211.06L57.8489 145.385C54.928 143.701 52.3241 140.843 50.452 137.61C48.5799 134.377 47.4001 130.701 47.4001 127.338ZM51.4669 15.3722L51.4671 15.372C51.4679 15.3715 51.4687 15.3709 51.4697 15.3704L51.4713 15.3694C51.4697 15.3704 51.4682 15.3714 51.4669 15.3722ZM50.3577 14.7093C50.3568 14.7241 50.3563 14.7389 50.3563 14.7536C50.3563 14.7388 50.3568 14.7239 50.3577 14.7093ZM50.3623 14.6613C50.3608 14.6726 50.3598 14.684 50.3588 14.6954C50.3598 14.684 50.3609 14.6726 50.3623 14.6613ZM50.369 14.6199C50.3671 14.6301 50.3654 14.6402 50.3639 14.6504C50.3654 14.6402 50.3671 14.63 50.369 14.6199ZM50.3773 14.5807C50.3757 14.5873 50.3741 14.5939 50.3727 14.6005C50.3741 14.5939 50.3757 14.5873 50.3773 14.5807ZM50.3887 14.5401C50.3871 14.545 50.3854 14.5499 50.384 14.5548C50.3855 14.5499 50.3871 14.545 50.3887 14.5401ZM50.403 14.4978C50.401 14.5031 50.3991 14.5084 50.3972 14.5138C50.3991 14.5084 50.401 14.5031 50.403 14.4978ZM50.4508 14.3953C50.4471 14.402 50.4436 14.4089 50.44 14.4159C50.4436 14.409 50.447 14.4021 50.4508 14.3953ZM50.4698 14.3639C50.4681 14.3666 50.4666 14.3693 50.4649 14.372C50.4666 14.3694 50.4681 14.3666 50.4698 14.3639ZM48.8558 127.338C48.8558 130.385 49.934 133.812 51.7121 136.882C53.4901 139.953 55.9285 142.599 58.5767 144.126L211.787 232.468H211.787C214.446 233.999 216.678 234.053 218.197 233.175L218.251 233.147C218.254 233.146 218.256 233.145 218.258 233.144L225.7 228.853C225.715 228.843 225.73 228.833 225.746 228.824C227.271 227.954 228.345 226.008 228.345 222.948V116.865C228.345 113.819 227.267 110.392 225.489 107.322C223.711 104.251 221.273 101.605 218.626 100.077V100.077L65.4131 11.736C62.7645 10.2084 60.5356 10.1523 59.0147 11.0218C59.0049 11.0274 58.9948 11.0324 58.9849 11.0375L51.4713 15.3694C51.4734 15.3681 51.4757 15.3665 51.4782 15.3648C51.475 15.3669 51.4721 15.3688 51.4697 15.3704L51.4692 15.3706C51.4685 15.371 51.4678 15.3715 51.4671 15.372L51.4667 15.3722H51.4669C51.4623 15.3751 51.4579 15.3784 51.4532 15.3812L51.4438 15.387C51.4407 15.3888 51.4376 15.3907 51.4345 15.3925C49.9207 16.2675 48.8581 18.2128 48.8581 21.2553L48.8558 127.338Z" fill="#373D4D"/>
<path d="M224.872 130.434V119.311C224.872 116.169 223.77 112.661 221.972 109.532C220.173 106.404 217.697 103.69 214.983 102.114L72.6604 19.4839C72.4863 19.3828 72.4268 19.159 72.5272 18.9839C72.6278 18.8089 72.8503 18.7487 73.0244 18.8498L215.347 101.48C218.197 103.135 220.756 105.956 222.602 109.166C224.448 112.376 225.6 116.01 225.6 119.311V130.434C225.6 130.636 225.437 130.8 225.236 130.8C225.035 130.8 224.872 130.636 224.872 130.434ZM61.8486 12.7827C61.9492 12.6076 62.172 12.5476 62.3461 12.6487L67.95 15.9036C68.124 16.0047 68.1836 16.2285 68.0832 16.4036C67.9826 16.5786 67.7598 16.6386 67.5858 16.5375L61.9818 13.2828C61.8078 13.1817 61.7481 12.9577 61.8486 12.7827Z" fill="#373D4D"/>
<path d="M224.89 154.87C224.89 154.668 225.049 154.505 225.245 154.505C225.441 154.505 225.6 154.668 225.6 154.87V225.31L225.597 225.617C225.531 228.735 224.422 231.018 222.574 232.125C222.435 232.236 222.234 232.226 222.106 232.095L222.104 232.092C222.026 232.012 221.988 231.898 222.003 231.786C222.018 231.673 222.083 231.573 222.179 231.517C223.814 230.56 224.892 228.455 224.89 225.31V154.87ZM224.89 147.218V139.566C224.89 139.365 225.049 139.201 225.245 139.201C225.441 139.201 225.6 139.365 225.6 139.566V147.218C225.6 147.42 225.441 147.583 225.245 147.583C225.049 147.583 224.89 147.42 224.89 147.218Z" fill="#373D4D"/>
<path d="M211.314 103.687C216.884 106.905 221.4 114.716 221.4 121.136L221.398 227.419C221.398 233.841 216.884 236.434 211.312 233.218L58.0858 144.71C52.5163 141.493 48 133.682 48 127.261L48.0024 20.978C48.0024 14.5592 52.5163 11.9623 58.0858 15.1794L211.314 103.687Z" fill="white"/>
<path d="M48 127.261L48.0023 20.9781C48.0023 14.5593 52.5163 11.9623 58.0859 15.1794L211.314 103.687C216.884 106.905 221.4 114.716 221.4 121.136L221.398 227.419L221.394 227.717C221.259 233.822 216.937 236.305 211.572 233.365L211.312 233.218L58.0859 144.71C52.6034 141.543 48.1414 133.925 48.0032 127.563L48 127.261ZM48.2367 127.261C48.2367 130.42 49.3492 133.937 51.1592 137.068C52.9691 140.199 55.4638 142.922 58.2043 144.505L211.43 233.013C214.173 234.596 216.6 234.72 218.326 233.728C220.052 232.736 221.161 230.58 221.161 227.419L221.163 121.136C221.163 117.978 220.051 114.461 218.241 111.329C216.487 108.296 214.092 105.646 211.452 104.044L211.196 103.892L57.9676 15.3846C55.2257 13.8008 52.799 13.6782 51.0734 14.6706C49.3481 15.663 48.239 17.8187 48.239 20.9781L48.2367 127.261Z" fill="#373D4D"/>
<path d="M47.4001 127.257L47.4025 21.098C47.4025 17.7388 48.5892 15.1858 50.716 13.9622C52.8421 12.7391 55.6489 12.9933 58.5615 14.6762L211.566 103.081C214.483 104.767 217.083 107.627 218.953 110.862C220.822 114.097 222 117.776 222 121.14L221.998 227.3C221.998 230.661 220.811 233.214 218.684 234.437C216.558 235.66 213.75 235.405 210.837 233.723L57.8346 145.317C54.9178 143.631 52.3174 140.772 50.4478 137.536C48.5783 134.301 47.4002 130.622 47.4001 127.257ZM48.8538 127.257C48.8538 130.306 49.9306 133.736 51.7062 136.808C53.4818 139.881 55.917 142.529 58.5615 144.057L211.564 232.463C214.214 233.993 216.442 234.049 217.96 233.176C219.477 232.303 220.545 230.354 220.545 227.3L220.547 121.14C220.547 118.092 219.47 114.663 217.694 111.591C215.919 108.518 213.484 105.869 210.839 104.341L57.8346 15.936C55.1858 14.4056 52.9583 14.3501 51.4403 15.2234C49.9232 16.0963 48.8561 18.046 48.8561 21.098L48.8538 127.257Z" fill="#373D4D"/>
<path d="M175.2 95.3423C175.2 98.6138 172.905 99.9377 170.076 98.2969L91.5241 52.7584C88.6947 51.1177 86.3999 47.1344 86.3999 43.8601C86.3999 40.5888 88.6947 39.2647 91.5217 40.9054L170.076 86.4456C172.903 88.0861 175.2 92.0693 175.2 95.3423Z" fill="#E5E5FE"/>
<path d="M86.3999 43.86C86.3999 40.5887 88.6948 39.2647 91.5218 40.9054L170.076 86.4456C172.903 88.0862 175.2 92.0695 175.2 95.3424L175.198 95.4943C175.129 98.6044 172.932 99.8716 170.208 98.3716L170.076 98.2969L91.5241 52.7583C88.6947 51.1176 86.3999 47.1343 86.3999 43.86ZM86.6365 43.86C86.6365 45.4455 87.1937 47.2191 88.1058 48.8028C89.0179 50.3865 90.272 51.7581 91.6424 52.5528L170.194 98.0912C171.566 98.8866 172.753 98.9335 173.581 98.4558C174.409 97.9783 174.963 96.9279 174.963 95.3424C174.963 93.7576 174.406 91.9842 173.493 90.4007C172.581 88.8173 171.327 87.4458 169.957 86.6512V86.6514L91.4035 41.1112L91.4033 41.111C90.0328 40.3156 88.8466 40.269 88.0185 40.7468C87.1907 41.2244 86.6365 42.2747 86.6365 43.86Z" fill="#373D4D"/>
<path d="M47.4001 21.1154C47.4001 17.7488 48.5867 15.1902 50.7135 13.9639C52.8397 12.738 55.6467 12.9929 58.5593 14.6794L211.566 103.278H211.566C214.483 104.968 217.083 107.834 218.953 111.076C220.822 114.318 222 118.005 222 121.377V132.47C222 132.731 221.862 132.971 221.637 133.102C221.412 133.232 221.135 133.232 220.91 133.102L47.7637 32.8404C47.5388 32.7102 47.4002 32.4695 47.4001 32.2091V21.1154ZM48.8538 31.7882L220.547 131.208V121.377C220.547 118.322 219.47 114.886 217.694 111.806C215.919 108.727 213.484 106.072 210.839 104.54V104.541L57.8325 15.942C55.1836 14.4082 52.956 14.3527 51.4381 15.2279C49.9209 16.1026 48.8538 18.0566 48.8538 21.1154V31.7882Z" fill="#373D4D"/>
<path d="M86.4001 43.3703C86.4002 41.5878 87.0363 40.1425 88.2733 39.4349C89.5094 38.7279 91.0855 38.9064 92.637 39.8001L171.491 85.1411L171.637 85.2268C173.133 86.1309 174.448 87.595 175.395 89.2266C176.373 90.9108 177 92.8418 177 94.6292C177 96.4117 176.364 97.857 175.127 98.5648C173.891 99.272 172.314 99.0939 170.761 98.201L91.9067 52.8611L91.9062 52.8608C90.3507 51.9647 88.9825 50.4587 88.0047 48.7742C87.0271 47.0897 86.4001 45.1583 86.4001 43.3703ZM87.8607 43.3703C87.8607 44.8422 88.3856 46.5239 89.2691 48.0462C90.1524 49.568 91.3546 50.8624 92.6367 51.6013L171.491 96.9412C172.779 97.6817 173.774 97.6612 174.4 97.3034C175.024 96.9461 175.54 96.1039 175.54 94.6292C175.54 93.1581 175.015 91.4767 174.131 89.9549C173.248 88.4332 172.044 87.139 170.761 86.4009L91.9067 41.0598L91.9062 41.0596C90.6199 40.3185 89.6256 40.3388 89.0006 40.6963C88.3764 41.0533 87.8607 41.8955 87.8607 43.3703Z" fill="#373D4D"/>
<path d="M64.4309 25.853C64.7938 25.7026 65.2046 25.8882 65.3483 26.2678C65.492 26.6474 65.3143 27.0769 64.9516 27.2273L61.7664 28.5474L65.2875 34.261C65.4989 34.6041 65.4044 35.0615 65.0765 35.2828C64.7486 35.504 64.3112 35.4052 64.0997 35.0621L60.113 28.5923C59.9984 28.4063 59.9694 28.1765 60.034 27.9659C60.0986 27.7553 60.2499 27.5858 60.4465 27.5043L64.4309 25.853Z" fill="#373D4D"/>
<path d="M60.0921 27.3807C60.2813 27.0186 60.7002 26.8944 61.0279 27.1035L68.0577 31.5889C68.3853 31.798 68.4975 32.2612 68.3083 32.6234C68.1191 32.9854 67.7002 33.1094 67.3725 32.9004L60.343 28.415C60.0153 28.2059 59.903 27.7429 60.0921 27.3807Z" fill="#373D4D"/>
<path d="M77.1513 33.1171C77.5069 32.8977 77.9809 32.9956 78.2102 33.3359L79.6779 35.5139C79.8022 35.6983 79.8334 35.9264 79.7633 36.1353C79.6932 36.3443 79.5291 36.5121 79.3159 36.5929L77.8481 37.1484C77.4547 37.2973 77.0096 37.1128 76.8539 36.7363C76.6983 36.3598 76.8912 35.9339 77.2846 35.7849L77.8842 35.5577L76.9226 34.1304C76.6933 33.7901 76.7956 33.3365 77.1513 33.1171Z" fill="#373D4D"/>
<path d="M73.8 36.5838C73.8001 35.4249 74.2145 34.4134 75.0993 33.9075C75.9549 33.4183 77.0007 33.5451 77.9797 34.0799L78.0743 34.1331L78.0747 34.1333L79.3609 34.8752C79.7177 35.0809 79.8397 35.5363 79.6335 35.8922C79.4272 36.2481 78.9707 36.3699 78.6139 36.1641L77.3277 35.4222V35.422C76.5916 34.9985 76.1 35.0515 75.8415 35.1993C75.5845 35.3463 75.2927 35.7391 75.2926 36.5838C75.2926 37.4246 75.5936 38.4065 76.1162 39.3077C76.6061 40.1525 77.2555 40.8654 77.9375 41.2984L78.0743 41.3814L78.075 41.3816C78.808 41.8048 79.298 41.7517 79.5562 41.6036C79.8141 41.4556 80.1064 41.0604 80.1075 40.2149C80.108 39.8038 80.4426 39.4708 80.8547 39.4713C81.2668 39.4719 81.6006 39.8057 81.6001 40.2168C81.5986 41.3759 81.1834 42.3875 80.3001 42.8942C79.4173 43.4006 78.3326 43.2502 77.3282 42.6705V42.6708C76.3173 42.0886 75.4436 41.121 74.8243 40.0532C74.2052 38.9854 73.8 37.7479 73.8 36.5838Z" fill="#373D4D"/>
<path d="M181.899 98.1795C182.102 97.8174 182.55 97.6933 182.901 97.9023L190.434 102.388C190.785 102.597 190.905 103.06 190.702 103.422C190.499 103.784 190.051 103.908 189.7 103.699L182.168 99.2135C181.817 99.0045 181.696 98.5415 181.899 98.1795Z" fill="#373D4D"/>
<path d="M185.4 104.862V96.1387C185.4 95.731 185.803 95.4004 186.3 95.4004C186.797 95.4004 187.2 95.731 187.2 96.1387V104.862C187.2 105.27 186.797 105.6 186.3 105.6C185.803 105.6 185.4 105.27 185.4 104.862Z" fill="#373D4D"/>
<path d="M204.357 107.5C204.698 107.295 205.134 107.416 205.331 107.771L210.505 117.086C210.702 117.441 210.585 117.895 210.244 118.101C209.903 118.306 209.467 118.184 209.269 117.829L204.096 108.514C203.899 108.16 204.016 107.705 204.357 107.5Z" fill="#373D4D"/>
<path d="M209.532 110.506C209.873 110.292 210.309 110.42 210.505 110.792C210.702 111.165 210.584 111.64 210.243 111.854L205.069 115.099C204.728 115.313 204.292 115.185 204.096 114.812C203.899 114.44 204.017 113.964 204.358 113.75L209.532 110.506Z" fill="#373D4D"/>
<path d="M228.711 127.302C229.058 127.095 229.502 127.218 229.703 127.576C229.903 127.935 229.784 128.394 229.437 128.601L221.89 133.101C221.543 133.308 221.098 133.185 220.898 132.826C220.697 132.467 220.816 132.009 221.163 131.802L228.711 127.302Z" fill="#373D4D"/>
<path d="M77.9995 116.701C77.9995 102.618 66.5824 91.2012 52.5007 91.2012C38.4167 91.2012 26.9995 102.618 26.9995 116.701C26.9995 130.784 38.4167 142.201 52.5007 142.201C66.5824 142.201 77.9995 130.784 77.9995 116.701Z" fill="white"/>
<path d="M77.7631 116.701C77.7631 102.749 66.4519 91.4376 52.5008 91.4376C38.5473 91.4376 27.2359 102.749 27.2359 116.701C27.236 130.654 38.5473 141.965 52.5008 141.965V142.201L52.1711 142.199C38.3486 142.024 27.1767 130.852 27.0016 117.031L26.9995 116.701C26.9995 102.618 38.4167 91.2012 52.5008 91.2012L52.8303 91.2032C66.7601 91.3797 77.9995 102.728 77.9995 116.701L77.9975 117.031C77.821 130.962 66.4724 142.201 52.5008 142.201V141.965C66.4518 141.965 77.7631 130.654 77.7631 116.701Z" fill="#373D4D"/>
<path d="M77.1529 116.7C77.1529 103.084 66.115 92.0467 52.5012 92.0467C38.8849 92.0467 27.847 103.084 27.847 116.7C27.847 130.315 38.8849 141.353 52.5012 141.353C66.115 141.353 77.1528 130.315 77.1529 116.7ZM78.5999 116.7C78.5999 131.114 66.9142 142.8 52.5012 142.8C38.0858 142.8 26.4 131.114 26.3999 116.7C26.3999 102.285 38.0858 90.5996 52.5012 90.5996C66.9142 90.5997 78.5999 102.285 78.5999 116.7Z" fill="#373D4D"/>
<path d="M60.6001 93.6013V63.5964C60.6048 62.3667 59.8177 61.1375 58.2344 60.2009C55.0747 58.3284 49.9463 58.3322 46.7797 60.2078C45.1987 61.1443 44.4048 62.3705 44.4002 63.5964V93.6013C44.3956 94.831 45.1826 96.0605 46.7659 96.9971C49.9256 98.8693 55.054 98.8655 58.2206 96.9895C59.8016 96.0534 60.5955 94.8272 60.6001 93.6013Z" fill="white"/>
<path d="M60.3693 63.5956C60.3735 62.4806 59.6598 61.3174 58.119 60.4059H58.1188C56.5824 59.4955 54.5528 59.0343 52.5097 59.0356C50.4667 59.0369 48.4353 59.5007 46.8952 60.4129C45.356 61.3247 44.6352 62.4854 44.631 63.5972V93.6023C44.6269 94.6824 45.2964 95.808 46.739 96.7059L46.8813 96.7919V96.7921C48.4176 97.7025 50.4473 98.1636 52.4903 98.1622C54.5334 98.1608 56.565 97.6969 58.1051 96.7845L58.2471 96.6983C59.6883 95.8008 60.3649 94.6781 60.3693 93.6013V63.5956ZM60.6001 93.6013C60.5955 94.8272 59.8014 96.0535 58.2205 96.9896C55.0539 98.8656 49.9255 98.8692 46.7659 96.997C45.1826 96.0604 44.3956 94.831 44.4002 93.6013V63.5963C44.4047 62.4087 45.1499 61.2209 46.6338 60.2963L46.7796 60.2078C49.9462 58.3323 55.0748 58.3284 58.2344 60.2009C59.8176 61.1374 60.6047 62.3666 60.6001 63.5963V93.6013Z" fill="#373D4D"/>
<path d="M52.8097 58.1992C55.0208 58.1978 57.2704 58.6876 59.0208 59.7114L59.1827 59.8083C60.8342 60.8234 61.8049 62.2264 61.8003 63.771V94.0303C61.7942 95.6201 60.7531 97.0592 59.0068 98.0799L59.0065 98.0797C57.2532 99.1048 55.0023 99.5978 52.7911 99.5992C50.5799 99.6007 48.33 99.1111 46.5796 98.0873V98.0871C44.8289 97.0647 43.7943 95.6201 43.8003 94.0247V63.7682C43.8064 62.1784 44.8476 60.7394 46.5938 59.7184C48.3472 58.6933 50.5984 58.2006 52.8097 58.1992ZM52.8107 59.6675C50.8499 59.6688 48.9248 60.0958 47.4594 60.9099L47.3189 60.9899C45.8349 61.8577 45.2539 62.8916 45.2505 63.774V94.0303C45.2472 94.887 45.7852 95.8847 47.1679 96.734L47.3044 96.8158L47.3049 96.816C48.7824 97.6802 50.766 98.1325 52.7902 98.1312C54.8142 98.1298 56.8 97.6747 58.2817 96.8083H58.2819C59.7643 95.942 60.3458 94.9093 60.3503 94.0275V63.7682C60.3537 62.8839 59.7803 61.8496 58.2964 60.9831L58.2957 60.9829C56.8183 60.1187 54.8347 59.6663 52.8107 59.6675Z" fill="#373D4D"/>
<path d="M44.1717 89.4004C44.3759 89.4012 44.541 89.5627 44.5402 89.7613C44.5362 90.7673 45.1943 91.8421 46.6716 92.7133L46.8172 92.7969L46.8175 92.7972C48.0881 93.5111 49.6973 93.9439 51.3861 94.0825C51.5896 94.0993 51.7406 94.2732 51.7234 94.471C51.7062 94.6689 51.5273 94.8158 51.3237 94.7991C49.5536 94.6538 47.8335 94.1983 46.4475 93.4196V93.4198C44.7316 92.4581 43.7948 91.1453 43.8003 89.7586C43.8011 89.56 43.9674 89.3996 44.1717 89.4004ZM57.0985 93.3724C57.2894 93.3016 57.5031 93.3946 57.5759 93.5801C57.6487 93.7656 57.5531 93.9732 57.3622 94.044C56.4946 94.3658 55.5515 94.5904 54.5829 94.7193C54.3805 94.7462 54.194 94.6085 54.1663 94.4118C54.1386 94.2151 54.2802 94.0338 54.4825 94.0068C55.4019 93.8845 56.2895 93.6725 57.0985 93.3724Z" fill="#373D4D"/>
<path d="M46.7656 66.9962C43.6059 65.1251 43.6128 62.0854 46.7794 60.2083C49.9459 58.332 55.0743 58.3282 58.2339 60.2016C61.3935 62.0726 61.3889 65.1124 58.2201 66.9886C55.0535 68.8658 49.9252 68.8695 46.7656 66.9962Z" fill="white"/>
<path d="M46.7793 60.2083C49.9459 58.3321 55.0742 58.3282 58.2339 60.2015C61.3935 62.0725 61.3889 65.1123 58.2201 66.9885L58.0702 67.0753C54.8938 68.8654 49.8758 68.8402 46.7656 66.9962C43.606 65.1252 43.6128 62.0854 46.7793 60.2083ZM52.5094 59.0357C50.4664 59.037 48.4348 59.5009 46.8947 60.4134C45.3534 61.3272 44.6333 62.4909 44.6309 63.6051C44.6287 64.6841 45.2994 65.808 46.7392 66.7049L46.881 66.791C48.4174 67.7019 50.447 68.1634 52.49 68.162C54.5331 68.1606 56.5647 67.6963 58.1047 66.7834L58.2469 66.6971C59.6916 65.7975 60.3674 64.6718 60.3694 63.5926C60.3715 62.4789 59.6562 61.3172 58.1187 60.4067H58.1185C56.5821 59.4958 54.5525 59.0344 52.5094 59.0357Z" fill="#373D4D"/>
<path d="M52.809 58.1992C55.02 58.1978 57.2696 58.6989 59.02 59.7461C60.7665 60.7899 61.8033 62.2648 61.8003 63.8947C61.7973 65.5236 60.7563 66.9984 59.0061 68.0442C57.2528 69.0932 55.0019 69.5977 52.7906 69.5992C50.5796 69.6008 48.3299 69.0995 46.5795 68.0521V68.0524C44.8328 67.0084 43.7969 65.5334 43.8003 63.9035C43.8037 62.2747 44.8443 60.7994 46.5933 59.753H46.5935C48.3468 58.7046 50.5978 58.2006 52.809 58.1992ZM52.81 59.7013C50.8492 59.7025 48.9242 60.1392 47.4588 60.972L47.3186 61.0538C45.8327 61.9428 45.2524 63.0023 45.2505 63.9066C45.2486 64.8098 45.8231 65.8662 47.3041 66.7514L47.3046 66.7516C48.782 67.6357 50.7656 68.0986 52.7897 68.0972C54.8136 68.0958 56.7995 67.6301 58.2811 66.7437H58.2813C59.7683 65.8552 60.3485 64.7958 60.3502 63.8918C60.3518 62.9888 59.7767 61.9323 58.2956 61.0471L58.2951 61.0468C56.8177 60.1628 54.8341 59.7 52.81 59.7013Z" fill="#373D4D"/>
<path d="M78.0002 116.711H77.9836C78.0002 112.925 75.5115 109.14 70.5173 106.257C66.0974 103.703 60.4603 102.288 54.6809 102C48.8659 102.284 43.1813 103.705 38.7258 106.277C33.7364 109.161 31.2334 112.937 31.2168 116.711H31.2002C31.2002 130.11 41.4945 141.087 54.6002 142.2C67.7059 141.087 78.0002 130.11 78.0002 116.711Z" fill="#D5FF4D"/>
<path d="M54.6808 102C60.4602 102.288 66.0974 103.703 70.5173 106.256C75.5115 109.14 78.0004 112.926 77.9838 116.711H78.0002C78.0002 130.11 67.7059 141.087 54.6002 142.2C41.4945 141.087 31.2002 130.11 31.2002 116.711H31.2169L31.2194 116.534C31.3123 112.819 33.8144 109.116 38.7257 106.277C43.1813 103.705 48.8658 102.284 54.6808 102ZM54.6804 102.238C48.8975 102.521 43.2568 103.936 38.8446 106.483C33.8982 109.342 31.4702 113.052 31.4541 116.712L31.453 116.949H31.4388C31.5595 130.108 41.703 140.856 54.6002 141.962C67.4974 140.856 77.6409 130.108 77.7616 116.949H77.7454L77.7465 116.71C77.7626 113.04 75.3493 109.32 70.3987 106.462C66.0218 103.933 60.4281 102.525 54.6804 102.238Z" fill="#373D4D"/>
<path d="M52.5304 101.4C59.1141 101.396 65.734 102.838 70.817 105.77C75.8357 108.662 78.5298 112.545 78.5822 116.585C78.5936 116.636 78.5999 116.688 78.5999 116.743C78.5999 131.134 66.9142 142.8 52.5012 142.8C38.0858 142.8 26.3999 131.134 26.3999 116.743C26.3999 116.686 26.4067 116.631 26.419 116.579C26.5063 112.553 29.2097 108.682 34.2249 105.79V105.79C39.3202 102.855 45.9463 101.404 52.5304 101.4ZM52.5313 102.845C46.1342 102.849 39.7725 104.262 34.9482 107.041L34.948 107.041C30.1294 109.82 27.8782 113.357 27.8633 116.746C27.8631 116.796 27.8578 116.844 27.8479 116.891C27.9282 130.416 38.9347 141.356 52.5012 141.356C66.066 141.356 77.0725 130.415 77.1517 116.889C77.1415 116.84 77.1363 116.79 77.1365 116.739C77.1515 113.343 74.914 109.798 70.0939 107.021L70.0937 107.021C65.283 104.246 58.9285 102.841 52.5313 102.845Z" fill="#373D4D"/>
<path d="M52.5304 101.4C59.1178 101.396 65.7415 102.834 70.8273 105.758H70.8275C75.9085 108.675 78.6083 112.605 78.5999 116.685C78.5915 120.763 75.8768 124.695 70.7852 127.62L70.785 127.62C65.6891 130.549 59.0595 131.996 52.4713 132C45.8831 132.005 39.258 130.567 34.1721 127.643V127.643C29.0913 124.725 26.3916 120.796 26.3999 116.716C26.4083 112.638 29.1229 108.705 34.2144 105.778L34.2149 105.778C39.313 102.851 45.9427 101.404 52.5304 101.4ZM52.5313 102.841C46.1306 102.845 39.7653 104.254 34.9383 107.026L34.9381 107.026C30.1095 109.801 27.8548 113.335 27.8478 116.719C27.8409 120.102 30.0802 123.63 34.896 126.396H34.8963C39.7096 129.162 46.0689 130.564 52.4704 130.56C58.8717 130.555 65.2368 129.146 70.0613 126.373L70.2859 126.242C74.9601 123.488 77.1452 120.012 77.152 116.682C77.159 113.299 74.9197 109.771 70.1038 107.006L70.1036 107.005C65.2902 104.239 58.9321 102.837 52.5313 102.841Z" fill="#373D4D"/>
<path d="M71.7082 112.665C71.885 112.568 72.1073 112.632 72.2049 112.807C73.3616 114.887 73.5119 117.129 72.6434 119.259C71.7787 121.38 69.9184 123.359 67.1119 124.966L67.1121 124.966C63.1148 127.258 57.9015 128.397 52.7098 128.4C47.5992 128.403 42.471 127.307 38.5058 125.091L38.3179 124.985C36.2335 123.791 34.677 122.391 33.6611 120.88C33.549 120.713 33.5944 120.488 33.7624 120.377C33.9304 120.265 34.1575 120.31 34.2696 120.477C35.2103 121.877 36.6744 123.205 38.6836 124.356L38.8652 124.459C42.6951 126.599 47.6917 127.677 52.7093 127.674C57.8066 127.671 62.886 126.551 66.7462 124.338H66.7464C69.4558 122.786 71.1788 120.917 71.9656 118.987C72.7485 117.067 72.6186 115.053 71.5646 113.158C71.4671 112.982 71.5314 112.762 71.7082 112.665ZM66.6481 108.181C66.7491 108.008 66.9727 107.948 67.1476 108.049C68.1442 108.621 69.0211 109.239 69.7768 109.894C69.9289 110.026 69.9446 110.255 69.8118 110.406C69.6789 110.557 69.4479 110.573 69.2958 110.441C68.5792 109.82 67.7416 109.228 66.7816 108.677C66.6068 108.577 66.547 108.355 66.6481 108.181Z" fill="#373D4D"/>
<path d="M124.8 130.313C124.8 120.31 116.742 112.201 106.8 112.201C96.8705 112.201 88.8192 120.292 88.8027 130.28C88.8027 130.287 88.8003 130.293 88.8003 130.3V167.144C88.8121 169.815 90.5724 172.488 94.0861 174.529C101.123 178.618 112.523 178.627 119.545 174.545C123.061 172.504 124.812 169.824 124.8 167.144V130.313Z" fill="white"/>
<path d="M124.564 130.313C124.564 120.441 116.612 112.439 106.8 112.439C97.0009 112.439 89.0549 120.424 89.0386 130.28C89.0386 130.295 89.0373 130.307 89.0363 130.315V167.143L89.0381 167.263C89.1007 169.782 90.7875 172.339 94.2039 174.323L94.2042 174.323C97.6783 176.342 102.244 177.361 106.821 177.364C111.398 177.367 115.96 176.355 119.427 174.34L119.589 174.245C122.952 172.242 124.575 169.67 124.564 167.145V130.313ZM124.8 167.144C124.812 169.824 123.061 172.504 119.545 174.545L119.38 174.64C112.345 178.626 101.068 178.586 94.0862 174.529C90.5726 172.488 88.8121 169.816 88.8003 167.144V130.3C88.8003 130.294 88.8026 130.286 88.8026 130.28C88.8192 120.292 96.8707 112.201 106.8 112.201L107.033 112.203C116.867 112.328 124.8 120.388 124.8 130.313V167.144Z" fill="#373D4D"/>
<path d="M123.959 130.37C123.959 120.808 116.277 113.056 106.801 113.056C97.3351 113.056 89.6601 120.791 89.6443 130.338C89.6443 130.359 89.6435 130.378 89.6423 130.394C89.6422 130.395 89.6421 130.396 89.642 130.396V167.054L89.6436 167.163C89.7002 169.443 91.2254 171.858 94.5319 173.784V173.784C97.8916 175.742 102.338 176.744 106.821 176.747C111.305 176.75 115.747 175.754 119.099 173.801H119.1C122.46 171.844 123.969 169.378 123.959 167.061V130.37ZM89.6342 130.461C89.6334 130.466 89.6327 130.471 89.6326 130.471C89.6328 130.47 89.6332 130.468 89.6336 130.466C89.6342 130.462 89.6351 130.455 89.6363 130.446L89.6342 130.461ZM125.4 167.054L125.4 167.196C125.352 170.167 123.388 172.983 119.82 175.06C116.197 177.172 111.49 178.205 106.82 178.202C102.224 178.198 97.588 177.192 93.9819 175.142L93.8112 175.044C90.1901 172.935 88.2137 170.072 88.2004 167.061V130.358C88.2004 130.336 88.2015 130.316 88.2027 130.3C88.2028 130.299 88.2031 130.298 88.2032 130.297C88.2411 119.965 96.5527 111.602 106.801 111.602C117.073 111.602 125.4 120.005 125.4 130.37V167.054Z" fill="#373D4D"/>
<path d="M124.8 166.741V135.05C124.8 135.054 124.798 135.059 124.798 135.064C124.812 132.411 123.052 129.759 119.517 127.739C116.551 126.042 112.807 125.069 108.939 124.801C105.057 125.07 101.294 126.049 98.3115 127.754C94.776 129.776 93.0047 132.425 93 135.073V166.741C93.0119 169.384 94.7831 172.027 98.3115 174.046C101.294 175.752 105.057 176.731 108.939 177.001C112.807 176.733 116.553 175.76 119.519 174.063C123.052 172.043 124.812 169.392 124.8 166.741Z" fill="#E5E5FE"/>
<path d="M108.939 124.801C112.806 125.069 116.551 126.042 119.517 127.739C123.052 129.759 124.812 132.411 124.797 135.064C124.797 135.059 124.8 135.054 124.8 135.049V166.741C124.812 169.392 123.052 172.043 119.519 174.063C116.553 175.76 112.806 176.733 108.939 177.001L108.575 176.974C104.944 176.679 101.435 175.761 98.5933 174.204L98.3115 174.046C94.7833 172.027 93.0119 169.384 93 166.741V135.073C93.0047 132.426 94.7761 129.776 98.3115 127.754C101.294 126.049 105.057 125.07 108.939 124.801ZM108.938 125.036C105.089 125.305 101.37 126.277 98.4299 127.957L98.4296 127.957C94.9374 129.955 93.2417 132.539 93.2371 135.073V166.74L93.239 166.858C93.302 169.35 94.9992 171.88 98.4301 173.843C101.37 175.524 105.09 176.496 108.939 176.765C112.774 176.497 116.477 175.532 119.401 173.859L119.563 173.765C122.942 171.784 124.574 169.24 124.563 166.742V135.064H124.56C124.56 135.063 124.56 135.063 124.56 135.062C124.574 132.564 122.942 130.019 119.561 128.036L119.398 127.942C116.474 126.269 112.773 125.304 108.938 125.036Z" fill="#373D4D"/>
<path d="M115.2 115.843V97.1574H115.198C115.203 95.9383 114.387 94.7192 112.747 93.7905C109.471 91.934 104.154 91.9378 100.868 93.7973C99.2284 94.726 98.4076 95.942 98.4028 97.1574H98.4004V115.843H98.4028C98.398 117.063 99.2141 118.282 100.853 119.21C104.13 121.067 109.45 121.063 112.733 119.203C114.372 118.274 115.193 117.059 115.198 115.843H115.2Z" fill="white"/>
<path d="M100.868 93.7972C104.154 91.9377 109.471 91.9341 112.747 93.7905C114.387 94.7193 115.203 95.9383 115.198 97.1574H115.2V115.843H115.198C115.193 117.059 114.372 118.274 112.733 119.203C109.45 121.063 104.13 121.067 100.853 119.21C99.2141 118.282 98.3979 117.063 98.4027 115.843H98.4004V97.1574H98.4027L98.4055 97.0435C98.4596 95.8663 99.2798 94.6969 100.868 93.7972ZM106.811 92.6351C104.693 92.6364 102.585 93.0959 100.987 94.0003C99.3915 94.9044 98.6464 96.0559 98.642 97.1583L98.6411 97.3922H98.6397V115.608H98.643L98.642 115.844C98.6377 116.95 99.3778 118.103 100.973 119.007V119.007C102.566 119.91 104.671 120.367 106.79 120.366C108.909 120.364 111.016 119.904 112.613 119L112.761 118.914C114.255 118.024 114.955 116.91 114.959 115.842L114.96 115.608H114.961V97.3922H114.958L114.959 97.1565C114.963 96.0511 114.223 94.8974 112.628 93.9937C111.035 93.091 108.93 92.6338 106.811 92.6351Z" fill="#373D4D"/>
<path d="M106.81 91.8008C109.021 91.7994 111.271 92.2771 113.021 93.2755C114.741 94.2569 115.769 95.6375 115.796 97.164C115.798 97.1873 115.8 97.2109 115.8 97.2347V115.767C115.8 115.792 115.798 115.818 115.795 115.843C115.758 117.315 114.79 118.651 113.168 119.624L113.006 119.719C111.253 120.719 109.002 121.199 106.79 121.201C104.648 121.202 102.469 120.754 100.744 119.818L100.578 119.726C98.8582 118.745 97.8301 117.365 97.8032 115.839C97.8008 115.815 97.7996 115.791 97.7996 115.767V97.2347C97.7996 97.2086 97.8012 97.1828 97.8039 97.1574C97.8424 95.6373 98.874 94.2624 100.593 93.2821H100.593C102.347 92.2827 104.599 91.8022 106.81 91.8008ZM106.811 93.2328C104.787 93.234 102.8 93.6776 101.317 94.5224L101.317 94.5222C99.8344 95.368 99.2552 96.3765 99.2518 97.2375C99.2518 97.2548 99.2508 97.272 99.2495 97.2891V115.711C99.2511 115.73 99.2519 115.75 99.2518 115.769C99.2485 116.632 99.8221 117.641 101.304 118.486V118.486C102.781 119.329 104.765 119.77 106.789 119.769C108.814 119.768 110.8 119.324 112.281 118.479C113.764 117.633 114.344 116.625 114.347 115.764L114.348 115.727C114.349 115.722 114.349 115.717 114.35 115.712V97.29C114.348 97.2708 114.347 97.2514 114.347 97.232C114.351 96.3965 113.812 95.4234 112.432 94.5952L112.295 94.5154C110.818 93.6726 108.835 93.2315 106.811 93.2328Z" fill="#373D4D"/>
<path d="M100.853 100.598C97.5768 98.7266 97.584 95.6871 100.868 93.8099C104.154 91.9336 109.472 91.9298 112.748 93.803C116.023 95.6743 116.018 98.7138 112.734 100.59C109.45 102.467 104.13 102.471 100.853 100.598Z" fill="white"/>
<path d="M100.868 93.8098C104.154 91.9335 109.472 91.9299 112.749 93.8031C116.023 95.6744 116.018 98.7138 112.734 100.59C109.45 102.467 104.13 102.471 100.853 100.598C97.5768 98.7267 97.5839 95.687 100.868 93.8098ZM106.812 92.6372C104.759 92.6385 102.717 93.0739 101.139 93.9308L100.987 94.015C99.3889 94.9288 98.6422 96.0924 98.6397 97.2065C98.6373 98.3203 99.3784 99.4821 100.973 100.393H100.973C102.566 101.303 104.671 101.765 106.791 101.764C108.91 101.762 111.017 101.298 112.614 100.385L112.762 100.299C114.259 99.399 114.959 98.2735 114.961 97.1943C114.963 96.0805 114.222 94.9186 112.629 94.008H112.629C111.035 93.0972 108.931 92.6359 106.812 92.6372Z" fill="#373D4D"/>
<path d="M106.81 91.8008C109.022 91.7994 111.271 92.2741 113.022 93.2663H113.022C114.767 94.2554 115.803 95.6528 115.8 97.1966C115.797 98.7396 114.756 100.137 113.007 101.128L113.008 101.128C111.254 102.122 109.003 102.599 106.791 102.601C104.579 102.602 102.329 102.127 100.579 101.135V101.135C98.832 100.146 97.7962 98.7489 97.7996 97.2047C97.803 95.6617 98.8437 94.2644 100.592 93.273L100.593 93.2728C102.347 92.2797 104.599 91.8022 106.81 91.8008ZM106.811 93.2238C104.787 93.225 102.8 93.6659 101.318 94.5054L101.317 94.5051C99.8317 95.3474 99.2516 96.3513 99.2497 97.2079C99.2478 98.0635 99.8222 99.0644 101.303 99.903H101.304C102.781 100.741 104.765 101.179 106.79 101.178C108.814 101.176 110.801 100.735 112.283 99.8955C113.768 99.0538 114.348 98.0505 114.35 97.1939C114.351 96.3381 113.777 95.337 112.297 94.4984C110.819 93.6609 108.835 93.2225 106.811 93.2238Z" fill="#373D4D"/>
<path d="M106.821 123.602C111.49 123.599 116.195 124.639 119.818 126.767C123.413 128.876 125.379 131.74 125.398 134.757C125.399 134.778 125.4 134.798 125.4 134.819V166.97L125.4 167.112C125.352 170.106 123.388 172.943 119.82 175.036C116.197 177.164 111.49 178.205 106.82 178.202C102.224 178.198 97.588 177.184 93.9819 175.119L93.8112 175.02C90.1901 172.895 88.2137 170.01 88.2004 166.976V134.841C88.2058 131.802 90.1857 128.911 93.8112 126.782L93.9821 126.683C97.5893 124.619 102.225 123.604 106.821 123.602ZM106.822 125.067C102.409 125.07 98.0317 126.048 94.6901 127.959L94.5319 128.051C91.168 130.027 89.6461 132.512 89.642 134.844V166.97L89.6436 167.079C89.7002 169.376 91.2254 171.81 94.5319 173.75V173.751C97.8916 175.724 102.338 176.733 106.821 176.736C111.305 176.739 115.747 175.736 119.099 173.767H119.1C122.46 171.796 123.969 169.311 123.959 166.976V134.891C123.958 134.872 123.957 134.853 123.957 134.833C123.957 134.832 123.957 134.831 123.957 134.829C123.969 132.494 122.46 130.009 119.097 128.036L119.097 128.036C115.746 126.068 111.305 125.064 106.822 125.067Z" fill="#373D4D"/>
<path d="M88.5648 162.002C88.7669 162.001 88.9314 162.167 88.9323 162.373C88.9434 164.916 90.6004 167.536 94.0721 169.576L94.3258 169.723C99.691 172.756 107.52 173.446 113.999 171.754C114.194 171.703 114.394 171.824 114.444 172.023C114.494 172.222 114.376 172.425 114.18 172.476C107.555 174.206 99.5267 173.516 93.9689 170.373L93.7062 170.222C90.1015 168.103 88.2131 165.278 88.2004 162.376C88.1995 162.17 88.3627 162.003 88.5648 162.002ZM120.037 169.163C120.206 169.052 120.433 169.102 120.542 169.275C120.652 169.448 120.603 169.678 120.433 169.79C120.2 169.942 119.96 170.092 119.709 170.239L119.709 170.239C119.083 170.606 118.427 170.941 117.74 171.245C117.555 171.326 117.339 171.24 117.259 171.051C117.178 170.862 117.264 170.643 117.449 170.561C118.112 170.269 118.743 169.946 119.344 169.593H119.344C119.583 169.453 119.813 169.31 120.037 169.163Z" fill="#373D4D"/>
<path d="M106.822 123.602C111.491 123.599 116.196 124.655 119.818 126.815C123.436 128.971 125.406 131.903 125.4 134.99C125.395 138.076 123.416 141.01 119.79 143.171C116.16 145.335 111.45 146.398 106.781 146.402C102.184 146.405 97.5511 145.381 93.9513 143.288L93.7808 143.188C90.1634 141.032 88.1945 138.1 88.2005 135.013C88.2064 131.927 90.1856 128.992 93.8112 126.83H93.8114C97.4435 124.667 102.153 123.605 106.822 123.602ZM106.823 125.09C102.341 125.092 97.8941 126.117 94.532 128.119C91.1681 130.124 89.6466 132.647 89.6421 135.016C89.6375 137.383 91.1482 139.901 94.5016 141.899H94.5018C97.8538 143.898 102.296 144.917 106.78 144.914C111.263 144.911 115.709 143.886 119.069 141.883V141.883C122.433 139.878 123.954 137.356 123.959 134.988C123.963 132.621 122.452 130.102 119.098 128.104L119.097 128.104C115.746 126.105 111.306 125.087 106.823 125.09Z" fill="#373D4D"/>
<path d="M119.224 133.233C119.412 133.163 119.622 133.259 119.692 133.447C120.637 135.981 119.391 138.647 116.252 140.519L116.101 140.607C113.559 142.075 110.252 142.799 106.966 142.802C103.68 142.804 100.375 142.083 97.8377 140.619C96.5124 139.854 95.5137 138.954 94.8615 137.974C94.7502 137.807 94.7955 137.581 94.9629 137.47C95.1302 137.359 95.3563 137.404 95.4677 137.571C96.0446 138.437 96.9507 139.267 98.2017 139.989H98.2019C100.602 141.374 103.773 142.076 106.965 142.074C110.158 142.072 113.332 141.366 115.737 139.977V139.977C118.812 138.203 119.799 135.816 119.01 133.701C118.939 133.513 119.035 133.303 119.224 133.233ZM115.625 129.784C115.725 129.61 115.948 129.55 116.122 129.65C116.758 130.017 117.316 130.414 117.798 130.836C117.95 130.968 117.966 131.198 117.833 131.349C117.701 131.5 117.471 131.516 117.32 131.384C116.876 130.996 116.356 130.626 115.758 130.281C115.584 130.18 115.524 129.958 115.625 129.784Z" fill="#373D4D"/>
<path d="M190.006 195.605L190.029 195.603L176.506 142.698L176.48 142.7C176.234 141.714 175.483 140.762 174.171 140.004C170.936 138.131 165.685 138.135 162.443 140.011C161.134 140.769 160.378 141.717 160.125 142.701L160.094 142.698L146.57 195.603L146.608 195.606C145.705 199.401 147.745 203.383 152.778 206.294C161.33 211.246 175.213 211.236 183.784 206.274C188.817 203.362 190.878 199.39 190.006 195.605Z" fill="white"/>
<path d="M162.443 140.011C165.685 138.135 170.936 138.131 174.171 140.004C175.442 140.739 176.187 141.654 176.455 142.608L176.48 142.7L176.506 142.698L190.029 195.603L190.006 195.605C190.878 199.39 188.817 203.362 183.784 206.274L183.582 206.39C175.064 211.197 161.479 211.207 152.979 206.41L152.778 206.294C147.745 203.383 145.705 199.401 146.608 195.606L146.57 195.603L160.094 142.698L160.125 142.701C160.37 141.748 161.087 140.828 162.322 140.083L162.443 140.011ZM168.31 138.838C166.218 138.84 164.138 139.304 162.561 140.216C161.29 140.952 160.587 141.855 160.354 142.76L160.304 142.954L160.273 142.951L146.869 195.387L146.902 195.39L146.838 195.66C145.968 199.317 147.915 203.208 152.896 206.089L153.096 206.203C157.302 208.577 162.78 209.768 168.274 209.765C173.854 209.761 179.425 208.524 183.666 206.069C188.648 203.186 190.616 199.304 189.776 195.658L189.714 195.391L189.731 195.389L176.326 142.95L176.299 142.953L176.251 142.758C176.024 141.85 175.326 140.945 174.053 140.209H174.053C172.48 139.298 170.402 138.837 168.31 138.838Z" fill="#373D4D"/>
<path d="M168.309 138.002C170.512 138.001 172.754 138.485 174.498 139.497L174.63 139.575C175.902 140.343 176.74 141.331 177.079 142.438C177.113 142.496 177.141 142.561 177.159 142.63L190.606 195.348C190.623 195.416 190.63 195.486 190.628 195.555C191.481 199.69 189.143 203.841 184.057 206.79C179.66 209.341 173.947 210.598 168.274 210.602C162.601 210.606 156.892 209.356 152.504 206.811V206.81C147.437 203.873 145.118 199.732 145.974 195.603C145.965 195.519 145.971 195.432 145.992 195.348L159.44 142.63L159.459 142.567C159.478 142.514 159.503 142.464 159.532 142.418C159.892 141.286 160.779 140.278 162.114 139.503C163.861 138.49 166.105 138.003 168.309 138.002ZM168.309 139.453C166.293 139.455 164.313 139.904 162.837 140.76C161.652 141.448 161.06 142.253 160.87 142.993C160.852 143.062 160.825 143.126 160.79 143.185L147.45 195.48C147.455 195.553 147.45 195.627 147.433 195.699C146.636 199.055 148.382 202.745 153.226 205.554H153.226C157.342 207.942 162.787 209.154 168.273 209.151C173.759 209.147 179.209 207.927 183.334 205.534H183.335C188.182 202.723 189.948 199.039 189.179 195.693C189.166 195.639 189.16 195.584 189.16 195.529L175.805 143.171C175.773 143.115 175.748 143.053 175.732 142.988C175.547 142.246 174.962 141.441 173.776 140.754L173.776 140.754C172.303 139.899 170.327 139.452 168.309 139.453Z" fill="#373D4D"/>
<path d="M190.006 195.59L190.029 195.588L183.779 171.116H183.763C183.356 169.187 181.894 167.319 179.339 165.841C173.257 162.316 163.386 162.323 157.287 165.853C154.737 167.332 153.267 169.194 152.846 171.116H152.82L146.57 195.588L146.608 195.591C145.705 199.39 147.745 203.375 152.778 206.29C161.33 211.246 175.213 211.237 183.784 206.27C188.817 203.355 190.878 199.379 190.006 195.59Z" fill="white"/>
<path d="M157.287 165.853C163.386 162.323 173.257 162.316 179.339 165.84C181.814 167.273 183.264 169.071 183.721 170.936L183.763 171.116H183.779L190.029 195.588L190.006 195.59C190.878 199.379 188.817 203.355 183.784 206.27L183.582 206.386C175.064 211.198 161.479 211.208 152.979 206.406L152.778 206.29C147.745 203.375 145.705 199.39 146.608 195.591L146.57 195.588L152.82 171.116H152.847L152.889 170.936C153.345 169.138 154.724 167.401 157.051 165.993L157.287 165.853ZM168.319 163.438C164.483 163.441 160.657 164.265 157.689 165.898L157.405 166.059C154.893 167.515 153.479 169.329 153.077 171.167L153.037 171.353H153.004L146.869 195.372L146.902 195.375L146.838 195.645C145.968 199.306 147.915 203.2 152.896 206.085L153.096 206.199C157.302 208.575 162.78 209.768 168.274 209.764C173.854 209.76 179.425 208.522 183.666 206.065C188.648 203.179 190.616 199.293 189.776 195.643L189.714 195.375L189.731 195.374L183.596 171.353H183.571L183.531 171.165C183.143 169.322 181.738 167.503 179.221 166.046H179.221C176.224 164.309 172.279 163.436 168.319 163.438Z" fill="#373D4D"/>
<path d="M190.005 195.604L190.028 195.602L183.753 171.045H183.736C183.328 169.109 181.86 167.235 179.295 165.751C176.803 164.308 173.676 163.465 170.435 163.201C167.18 163.466 164.039 164.314 161.531 165.764C158.97 167.247 157.495 169.116 157.072 171.045H157.046L150.771 195.602L150.808 195.605C149.902 199.418 151.95 203.417 157.004 206.342C160.736 208.504 165.479 209.721 170.357 210.001C175.247 209.719 180.009 208.493 183.758 206.322C188.812 203.396 190.881 199.406 190.005 195.604Z" fill="#D5FF4D"/>
<path d="M170.435 163.201C173.676 163.465 176.804 164.308 179.295 165.751C181.78 167.188 183.235 168.992 183.695 170.864L183.736 171.045H183.753L190.028 195.602L190.005 195.604C190.881 199.406 188.812 203.396 183.758 206.322C180.009 208.493 175.247 209.719 170.357 210.001L169.9 209.972C165.259 209.65 160.766 208.475 157.179 206.443L157.004 206.342C151.95 203.417 149.902 199.418 150.808 195.605L150.77 195.602L157.046 171.045H157.072L157.115 170.864C157.588 168.999 159.051 167.201 161.531 165.764C164.039 164.314 167.18 163.466 170.435 163.201ZM170.435 163.44C167.213 163.704 164.115 164.544 161.649 165.97L161.649 165.97C159.127 167.431 157.708 169.252 157.304 171.096L157.263 171.283H157.23L151.071 195.386L151.104 195.389L151.039 195.66C150.166 199.333 152.121 203.242 157.122 206.136L157.296 206.236C160.958 208.311 165.587 209.488 170.357 209.763C175.215 209.481 179.933 208.263 183.639 206.116C188.641 203.22 190.617 199.32 189.774 195.658L189.712 195.389L189.729 195.388L183.569 171.283H183.544L183.504 171.094C183.126 169.302 181.79 167.533 179.41 166.095L179.176 165.957C176.727 164.539 173.644 163.704 170.435 163.44Z" fill="#373D4D"/>
<path d="M168.318 162.602C172.379 162.599 176.477 163.492 179.637 165.324L179.883 165.47C182.332 166.95 183.859 168.841 184.346 170.893C184.364 170.933 184.38 170.975 184.391 171.02L190.606 195.36C190.623 195.428 190.63 195.498 190.628 195.567C191.481 199.699 189.143 203.846 184.057 206.793C179.66 209.342 173.947 210.598 168.274 210.602C162.601 210.605 156.892 209.357 152.504 206.813V206.813C147.437 203.878 145.118 199.741 145.974 195.615C145.965 195.531 145.971 195.444 145.992 195.36L152.207 171.02L152.225 170.961C152.238 170.923 152.254 170.888 152.272 170.854C152.799 168.756 154.414 166.829 156.987 165.337L156.987 165.337C160.155 163.502 164.257 162.604 168.318 162.602ZM168.319 164.052C164.444 164.054 160.607 164.915 157.71 166.593L157.709 166.593C155.289 167.996 154.001 169.702 153.639 171.355C153.623 171.426 153.597 171.493 153.562 171.555L147.45 195.492C147.455 195.565 147.45 195.639 147.433 195.711C146.636 199.065 148.382 202.751 153.226 205.557H153.227C157.342 207.943 162.787 209.155 168.273 209.152C173.759 209.148 179.209 207.929 183.334 205.537H183.335C188.182 202.729 189.948 199.048 189.179 195.705C189.166 195.651 189.16 195.596 189.16 195.541L183.028 171.522C183.001 171.469 182.98 171.41 182.968 171.349C182.619 169.692 181.339 167.984 178.915 166.58H178.915C176.027 164.906 172.193 164.049 168.319 164.052Z" fill="#373D4D"/>
<path d="M147.554 191.402L147.59 191.404C147.695 191.413 147.792 191.467 147.854 191.553C147.916 191.638 147.938 191.747 147.913 191.85C147.105 195.242 148.903 198.884 153.609 201.603C160.687 205.695 171.707 206.174 179.733 203.018C179.919 202.945 180.13 203.037 180.203 203.223C180.276 203.41 180.184 203.62 179.998 203.694C171.791 206.921 160.537 206.446 153.246 202.231C148.448 199.459 146.358 195.61 147.172 191.843C147.164 191.808 147.161 191.772 147.164 191.734C147.18 191.534 147.355 191.386 147.554 191.402ZM184.813 200.178C184.97 200.053 185.198 200.08 185.322 200.237C185.446 200.394 185.42 200.622 185.263 200.746C184.615 201.26 183.892 201.751 183.091 202.212C182.918 202.312 182.697 202.253 182.597 202.079C182.497 201.905 182.556 201.684 182.73 201.584C183.501 201.139 184.195 200.668 184.813 200.178Z" fill="#373D4D"/>
<path d="M168.319 162.602C172.448 162.599 176.616 163.482 179.829 165.293C183.037 167.101 184.805 169.572 184.8 172.192C184.794 174.811 183.018 177.284 179.803 179.096C176.583 180.91 172.412 181.799 168.282 181.802C164.152 181.804 159.984 180.921 156.77 179.11C153.562 177.302 151.794 174.831 151.8 172.211C151.805 169.592 153.582 167.118 156.797 165.306L156.797 165.306C160.018 163.492 164.189 162.604 168.319 162.602ZM168.32 164.036C164.38 164.038 160.477 164.889 157.531 166.548L157.531 166.548C154.584 168.21 153.273 170.286 153.269 172.214C153.265 174.14 154.566 176.212 157.505 177.868L157.505 177.868C160.442 179.523 164.341 180.37 168.281 180.368C172.221 180.365 176.124 179.513 179.068 177.854C182.016 176.193 183.326 174.117 183.33 172.19C183.334 170.263 182.034 168.191 179.095 166.535H179.094C176.158 164.88 172.26 164.033 168.32 164.036Z" fill="#373D4D"/>
<path d="M176.4 143.342V124.259C176.405 123.013 175.589 121.769 173.947 120.82C170.67 118.924 165.352 118.928 162.068 120.827C160.429 121.776 159.605 123.017 159.6 124.259V143.342C159.596 144.587 160.412 145.832 162.054 146.781C165.33 148.677 170.649 148.673 173.933 146.773C175.572 145.825 176.396 144.583 176.4 143.342Z" fill="white"/>
<path d="M176.161 124.258C176.165 123.129 175.425 121.951 173.827 121.028H173.827C172.234 120.106 170.129 119.639 168.01 119.64C165.892 119.641 163.785 120.111 162.188 121.035C160.592 121.958 159.844 123.134 159.84 124.26V143.343C159.836 144.437 160.53 145.576 162.026 146.486L162.173 146.573C163.767 147.495 165.871 147.962 167.99 147.961C170.109 147.959 172.216 147.489 173.813 146.565C175.409 145.643 176.156 144.468 176.161 143.342V124.258ZM176.4 143.342C176.396 144.583 175.572 145.825 173.933 146.773C170.649 148.673 165.33 148.677 162.054 146.781C160.412 145.832 159.596 144.587 159.6 143.342V124.259C159.605 123.056 160.378 121.853 161.917 120.917L162.068 120.827C165.352 118.928 170.67 118.924 173.947 120.82C175.589 121.769 176.405 123.013 176.4 124.259V143.342Z" fill="#373D4D"/>
<path d="M168.011 120.262C165.987 120.263 164.001 120.716 162.519 121.578C161.035 122.442 160.454 123.47 160.451 124.349V143.259C160.447 144.139 161.021 145.168 162.505 146.03L162.505 146.031C163.982 146.891 165.966 147.341 167.99 147.34C170.014 147.338 172 146.886 173.482 146.023L173.482 146.023C174.964 145.161 175.546 144.133 175.55 143.256V124.343C175.554 123.463 174.98 122.433 173.496 121.571L173.496 121.571C172.019 120.711 170.035 120.261 168.011 120.262ZM176.275 143.256L177 143.259C176.994 144.791 176.017 146.183 174.369 147.192L174.207 147.289C172.454 148.309 170.202 148.799 167.991 148.801C165.78 148.802 163.53 148.315 161.78 147.296V147.296C160.029 146.278 158.994 144.841 159.001 143.253V124.343C159.007 122.761 160.048 121.329 161.794 120.313L161.96 120.219C163.688 119.262 165.868 118.802 168.01 118.801C170.221 118.799 172.47 119.287 174.221 120.306L174.383 120.402C176.034 121.412 177.005 122.808 177 124.346H177.001V143.259L176.275 143.256Z" fill="#373D4D"/>
<path d="M162.053 127.598C158.777 125.727 158.784 122.687 162.068 120.81C165.352 118.934 170.67 118.93 173.947 120.803C177.224 122.674 177.217 125.714 173.933 127.59C170.649 129.467 165.33 129.471 162.053 127.598Z" fill="white"/>
<path d="M162.068 120.81C165.352 118.934 170.67 118.93 173.947 120.803C177.224 122.674 177.217 125.714 173.933 127.59L173.777 127.677C170.483 129.467 165.279 129.442 162.054 127.598C158.777 125.727 158.784 122.687 162.068 120.81ZM168.01 119.637C165.892 119.639 163.785 120.103 162.187 121.015C160.589 121.929 159.842 123.092 159.84 124.207C159.837 125.32 160.578 126.482 162.173 127.393H162.173C163.767 128.303 165.871 128.765 167.99 128.764C170.109 128.762 172.216 128.298 173.813 127.385C175.412 126.472 176.159 125.308 176.161 124.194C176.163 123.08 175.422 121.919 173.828 121.008H173.827C172.234 120.097 170.129 119.636 168.01 119.637Z" fill="#373D4D"/>
<path d="M168.01 118.801C170.221 118.799 172.471 119.3 174.221 120.348C175.968 121.392 177.004 122.867 177 124.496C176.997 126.125 175.956 127.6 174.207 128.646C172.454 129.695 170.203 130.199 167.991 130.201C165.78 130.202 163.53 129.701 161.78 128.654V128.654C160.033 127.61 158.997 126.135 159 124.505C159.004 122.876 160.045 121.401 161.794 120.355H161.794C163.547 119.306 165.798 118.802 168.01 118.801ZM168.011 120.303C166.05 120.304 164.125 120.741 162.659 121.574L162.519 121.655C161.033 122.544 160.453 123.604 160.451 124.508C160.449 125.411 161.023 126.468 162.504 127.353L162.505 127.353C163.982 128.237 165.966 128.7 167.99 128.699C170.014 128.697 172 128.232 173.482 127.345C174.968 126.457 175.548 125.397 175.55 124.493C175.552 123.59 174.978 122.534 173.497 121.649L173.496 121.648C172.019 120.764 170.035 120.302 168.011 120.303Z" fill="#373D4D"/>
<path d="M178.67 170.513C178.856 170.443 179.063 170.538 179.133 170.725C179.965 172.959 178.833 175.302 176.048 176.915C173.869 178.177 171.039 178.799 168.229 178.8C165.507 178.802 162.767 178.222 160.621 177.041L160.415 176.925C159.278 176.267 158.423 175.491 157.861 174.646C157.75 174.48 157.795 174.256 157.96 174.146C158.125 174.035 158.349 174.08 158.459 174.246C158.947 174.98 159.712 175.685 160.775 176.3C162.814 177.481 165.511 178.081 168.229 178.079C170.946 178.077 173.645 177.474 175.688 176.291C178.301 174.778 179.122 172.757 178.459 170.977C178.389 170.79 178.484 170.582 178.67 170.513ZM175.575 167.581C175.675 167.408 175.895 167.349 176.067 167.449C176.609 167.764 177.091 168.106 177.506 168.469C177.655 168.6 177.67 168.828 177.539 168.978C177.409 169.128 177.181 169.143 177.032 169.012C176.657 168.683 176.214 168.368 175.707 168.073C175.535 167.973 175.476 167.753 175.575 167.581Z" fill="#373D4D"/>
<path d="M183.6 39.0012C183.6 41.652 181.452 43.8012 178.8 43.8012C176.15 43.8012 174 41.652 174 39.0012C174 36.3501 176.15 34.2012 178.8 34.2012C181.452 34.2012 183.6 36.3501 183.6 39.0012Z" fill="white"/>
<path d="M183.359 39.0011C183.359 36.4833 181.319 34.4426 178.8 34.4425C176.284 34.4425 174.241 36.4833 174.241 39.0011C174.241 41.5186 176.284 43.5598 178.8 43.5598V43.8012L178.676 43.7995C176.084 43.7338 174 41.6105 174 39.0011C174 36.35 176.15 34.2012 178.8 34.2012L178.924 34.2028C181.519 34.2685 183.6 36.3914 183.6 39.0011L183.598 39.125C183.533 41.7186 181.411 43.8011 178.8 43.8012V43.5598C181.319 43.5598 183.359 41.5186 183.359 39.0011Z" fill="#373D4D"/>
<path d="M182.754 39.0016C182.754 36.8178 180.985 35.0479 178.8 35.0478C176.617 35.0478 174.846 36.818 174.846 39.0016C174.846 41.185 176.617 42.9555 178.8 42.9555C180.985 42.9555 182.754 41.1852 182.754 39.0016ZM184.2 39.0016C184.2 41.9837 181.784 44.4015 178.8 44.4016C175.819 44.4016 173.4 41.984 173.4 39.0016C173.4 36.0189 175.819 33.6016 178.8 33.6016C181.784 33.6016 184.2 36.0192 184.2 39.0016Z" fill="#373D4D"/>
<path d="M180.068 39.9852C180.236 39.6499 180.663 39.5059 181.02 39.6635L191.589 44.3217C191.946 44.4794 192.1 44.8789 191.932 45.2141C191.764 45.5493 191.337 45.6933 190.98 45.5357L180.411 40.8777C180.054 40.7201 179.9 40.3204 180.068 39.9852Z" fill="#373D4D"/>
<path d="M205.2 47.4C205.2 52.0391 201.44 55.8 196.802 55.8C192.163 55.8 188.4 52.0391 188.4 47.4C188.4 42.7609 192.163 39 196.802 39C201.44 39 205.2 42.7609 205.2 47.4Z" fill="white"/>
<path d="M204.964 47.4001C204.964 42.8915 201.31 39.2362 196.802 39.2362C192.293 39.2362 188.637 42.8915 188.637 47.4001C188.637 51.9087 192.293 55.5638 196.802 55.5638V55.8L196.585 55.7972C192.118 55.6841 188.516 52.0836 188.403 47.6167L188.4 47.4001C188.4 42.761 192.163 39 196.802 39L197.018 39.0028C201.557 39.1178 205.2 42.8335 205.2 47.4001L205.198 47.6167C205.083 52.1556 201.368 55.8 196.802 55.8V55.5638C201.31 55.5638 204.964 51.9087 204.964 47.4001Z" fill="#373D4D"/>
<path d="M204 47.2925C204 46.0877 203.747 44.9432 203.295 43.9046C202.256 43.453 201.113 43.1992 199.907 43.1992C195.209 43.1992 191.4 47.0079 191.4 51.7059C191.4 52.9107 191.654 54.0553 192.104 55.0938C193.144 55.5454 194.288 55.7992 195.494 55.7992C200.192 55.7992 204 51.9905 204 47.2925Z" fill="#D5FF4D"/>
<path d="M203.761 47.2926C203.761 46.1552 203.528 45.0734 203.112 44.0871C202.126 43.6715 201.045 43.4384 199.907 43.4384C195.341 43.4384 191.64 47.1401 191.64 51.7061C191.64 52.8432 191.873 53.9248 192.287 54.9111C193.275 55.3268 194.356 55.56 195.494 55.56V55.7992L195.268 55.7964C194.22 55.7689 193.222 55.5496 192.3 55.1762L192.104 55.0938C191.682 54.1202 191.433 53.0535 191.403 51.9312L191.4 51.7061C191.4 47.008 195.209 43.1992 199.907 43.1992L200.133 43.2023C201.255 43.2318 202.321 43.4813 203.295 43.9047C203.747 44.9432 204 46.0878 204 47.2926L203.998 47.5122C203.881 52.1087 200.119 55.7992 195.494 55.7992V55.56C200.06 55.56 203.761 51.8585 203.761 47.2926Z" fill="#373D4D"/>
<path d="M204.319 47.7005C204.319 43.3818 200.819 39.8808 196.501 39.8807C192.182 39.8807 188.68 43.3821 188.68 47.7005C188.68 52.0189 192.182 55.5201 196.501 55.5201C200.819 55.52 204.319 52.0192 204.319 47.7005ZM205.799 47.7005C205.799 52.8365 201.636 57.0004 196.501 57.0004C191.365 57.0004 187.199 52.8368 187.199 47.7005C187.199 42.5642 191.365 38.4004 196.501 38.4004C201.636 38.4004 205.799 42.5645 205.799 47.7005Z" fill="#373D4D"/>
<path d="M206.923 35.0377C207.201 34.7362 207.668 34.7204 207.966 35.0023C208.263 35.2844 208.279 35.7577 208.001 36.0593L201.077 43.5637C200.798 43.8653 200.331 43.8813 200.034 43.5993C199.736 43.3172 199.72 42.844 199.999 42.5423L206.923 35.0377Z" fill="#373D4D"/>
<path d="M197.948 52.2292C198.348 52.1183 198.763 52.3463 198.876 52.7385L202.772 66.2621C202.885 66.6543 202.653 67.0621 202.254 67.1731C201.854 67.2841 201.439 67.056 201.326 66.6638L197.429 53.1402C197.316 52.7481 197.549 52.3402 197.948 52.2292Z" fill="#373D4D"/>
<path d="M214.2 33.9004C214.2 36.3858 212.05 38.4004 209.4 38.4004C206.748 38.4004 204.6 36.3858 204.6 33.9004C204.6 31.415 206.748 29.4004 209.4 29.4004C212.05 29.4004 214.2 31.415 214.2 33.9004Z" fill="white"/>
<path d="M213.959 33.9003C213.959 31.5399 211.916 29.6266 209.4 29.6266C206.881 29.6267 204.841 31.5399 204.841 33.9003C204.841 36.2607 206.881 38.1741 209.4 38.1741V38.4004L209.276 38.3989C206.681 38.3372 204.6 36.3468 204.6 33.9003C204.6 31.4149 206.748 29.4004 209.4 29.4004C212.05 29.4004 214.2 31.4149 214.2 33.9003L214.198 34.0165C214.133 36.4482 212.008 38.4004 209.4 38.4004V38.1741C211.917 38.1741 213.959 36.2607 213.959 33.9003Z" fill="#373D4D"/>
<path d="M213.354 33.9012C213.354 31.5963 211.583 29.7278 209.4 29.7278C207.215 29.7278 205.446 31.596 205.446 33.9012C205.446 36.2064 207.215 38.0748 209.4 38.0748C211.583 38.0748 213.354 36.2061 213.354 33.9012ZM214.8 33.9012C214.8 37.0496 212.381 39.6012 209.4 39.6012C206.416 39.6011 204 37.0493 204 33.9012C204 30.7531 206.416 28.2012 209.4 28.2012C212.381 28.2012 214.8 30.7528 214.8 33.9012Z" fill="#373D4D"/>
<path d="M207.601 69.0013C207.601 71.6521 205.453 73.8012 202.801 73.8012C200.151 73.8012 198.001 71.6521 198.001 69.0013C198.001 66.3502 200.151 64.2012 202.801 64.2012C205.453 64.2012 207.601 66.3502 207.601 69.0013Z" fill="white"/>
<path d="M207.36 69.0012C207.36 66.4835 205.32 64.4426 202.801 64.4425C200.285 64.4425 198.242 66.4835 198.242 69.0012C198.242 71.5186 200.285 73.5598 202.801 73.5598V73.8012L202.677 73.7995C200.085 73.7338 198.001 71.6105 198.001 69.0012C198.001 66.3502 200.151 64.2012 202.801 64.2012L202.925 64.2028C205.52 64.2685 207.601 66.3916 207.601 69.0012L207.599 69.1251C207.534 71.7186 205.412 73.8011 202.801 73.8012V73.5598C205.32 73.5598 207.36 71.5187 207.36 69.0012Z" fill="#373D4D"/>
<path d="M206.755 69.0016C206.755 66.8178 204.986 65.0478 202.801 65.0478C200.618 65.0478 198.847 66.818 198.847 69.0016C198.847 71.1849 200.618 72.9554 202.801 72.9554C204.986 72.9553 206.755 71.1851 206.755 69.0016ZM208.201 69.0016C208.201 71.9836 205.785 74.4015 202.801 74.4016C199.82 74.4016 197.401 71.9839 197.401 69.0016C197.401 66.0191 199.82 63.6016 202.801 63.6016C205.785 63.6016 208.201 66.0194 208.201 69.0016Z" fill="#373D4D"/>
<path d="M56.4003 202.262V197.943C56.3907 195.658 54.8356 193.374 51.7301 191.628C45.5119 188.133 35.4479 188.125 29.2442 191.614C26.1387 193.36 24.5931 195.652 24.6027 197.943H24.6003V202.262H24.6027C24.6124 204.545 26.1675 206.831 29.2706 208.575C35.4864 212.073 45.5551 212.078 51.7589 208.589C54.8644 206.845 56.4099 204.554 56.4003 202.262Z" fill="white"/>
<path d="M29.2442 191.614C35.448 188.125 45.512 188.133 51.7301 191.628C54.8356 193.374 56.3907 195.658 56.4003 197.943V202.262C56.4099 204.554 54.8644 206.845 51.759 208.589C45.5552 212.078 35.4863 212.073 29.2705 208.575C26.1675 206.831 24.6123 204.545 24.6027 202.262H24.6003V197.943H24.6027C24.5932 195.688 26.0907 193.432 29.0996 191.696L29.2442 191.614ZM40.4817 189.236C36.4439 189.233 32.4211 190.098 29.3644 191.817C26.3031 193.538 24.8339 195.764 24.8431 197.942L24.844 198.177H24.8407V202.028H24.8421L24.8431 202.261C24.8522 204.432 26.3314 206.653 29.3907 208.372H29.3909C32.4538 210.096 36.4809 210.965 40.5195 210.968C44.5581 210.97 48.5822 210.105 51.6388 208.386V208.386C54.7 206.667 56.1691 204.442 56.16 202.263V197.944C56.1509 195.805 54.7176 193.622 51.7522 191.912L51.61 191.831C48.5459 190.109 44.5193 189.239 40.4817 189.236Z" fill="#373D4D"/>
<path d="M56.4003 202.262V197.943C56.3907 195.658 54.8356 193.374 51.7301 191.628C45.5119 188.133 35.4479 188.125 29.2442 191.614C26.1387 193.36 24.5931 195.652 24.6027 197.943H24.6003V202.262H24.6027C24.6124 204.545 26.1675 206.831 29.2706 208.575C35.4864 212.073 45.5551 212.078 51.7589 208.589C54.8644 206.845 56.4099 204.554 56.4003 202.262Z" fill="white"/>
<path d="M29.2442 191.614C35.448 188.125 45.512 188.133 51.7301 191.628C54.8356 193.374 56.3907 195.658 56.4003 197.943V202.262C56.4099 204.554 54.8644 206.845 51.759 208.589C45.5552 212.078 35.4863 212.073 29.2705 208.575C26.1675 206.831 24.6123 204.545 24.6027 202.262H24.6003V197.943H24.6027C24.5932 195.688 26.0907 193.432 29.0996 191.696L29.2442 191.614ZM40.4817 189.236C36.4439 189.233 32.4211 190.098 29.3644 191.817C26.3031 193.538 24.8339 195.764 24.8431 197.942L24.844 198.177H24.8407V202.028H24.8421L24.8431 202.261C24.8522 204.432 26.3314 206.653 29.3907 208.372H29.3909C32.4538 210.096 36.4809 210.965 40.5195 210.968C44.5581 210.97 48.5822 210.105 51.6388 208.386V208.386C54.7 206.667 56.1691 204.442 56.16 202.263V197.944C56.1509 195.805 54.7176 193.622 51.7522 191.912L51.61 191.831C48.5459 190.109 44.5193 189.239 40.4817 189.236Z" fill="#373D4D"/>
<path d="M47.9353 206.447C52.0293 204.109 52.0197 200.309 47.9161 197.963C43.8101 195.618 37.1613 195.613 33.0673 197.954C28.9709 200.295 28.9781 204.092 33.0841 206.438C37.1877 208.786 43.8389 208.789 47.9353 206.447Z" fill="#DB46EF"/>
<path d="M33.0673 197.954C37.1613 195.613 43.8101 195.618 47.9161 197.963C52.0197 200.309 52.0292 204.109 47.9353 206.447C43.8389 208.789 37.1876 208.786 33.084 206.438C29.0422 204.128 28.9721 200.413 32.8783 198.065L33.0673 197.954ZM40.487 196.439C37.8308 196.437 35.1891 197.015 33.1874 198.16C31.1831 199.305 30.2371 200.773 30.2398 202.193C30.2426 203.614 31.1946 205.084 33.204 206.232L33.2043 206.232C35.211 207.381 37.8558 207.962 40.5126 207.963C43.1693 207.965 45.8121 207.386 47.815 206.241H47.8153C49.8182 205.097 50.7628 203.629 50.7595 202.208C50.7562 200.832 49.8627 199.409 47.981 198.277L47.796 198.169C45.788 197.022 43.1432 196.44 40.487 196.439Z" fill="#373D4D"/>
<path d="M40.4817 188.402C44.6111 188.405 48.7815 189.291 52.0018 191.097V191.098C55.2143 192.901 56.9886 195.357 56.9995 197.963V202.238L56.9988 202.36C56.9551 204.928 55.1945 207.347 52.0304 209.12L52.0307 209.12C48.8168 210.925 44.648 211.805 40.5178 211.802C36.3875 211.8 32.2163 210.915 28.997 209.106V209.106C25.8134 207.32 24.0428 204.887 24.003 202.308C24.0009 202.286 23.9995 202.264 23.9995 202.241V197.966C23.9995 197.945 24.0008 197.925 24.0025 197.905C24.0204 195.315 25.783 192.873 28.9709 191.084L29.1222 191C32.315 189.252 36.4169 188.4 40.4817 188.402ZM40.4806 189.827C36.5404 189.825 32.6421 190.668 29.7042 192.318H29.7039C26.7591 193.97 25.4597 196.04 25.4678 197.963C25.4679 197.982 25.467 198.001 25.4655 198.02V202.186C25.4668 202.203 25.4677 202.22 25.4678 202.238C25.4757 204.095 26.7057 206.092 29.4588 207.716L29.73 207.872L29.7305 207.873C32.6749 209.526 36.5778 210.375 40.5187 210.377C44.4598 210.38 48.3594 209.536 51.2975 207.886L51.2979 207.886C54.2423 206.236 55.5416 204.167 55.5336 202.244V197.969L55.5324 197.879C55.4843 195.985 54.1695 193.96 51.2691 192.332C48.3232 190.679 44.4206 189.83 40.4806 189.827Z" fill="#373D4D"/>
<path d="M40.481 188.402C44.6104 188.405 48.7808 189.294 52.0011 191.108C55.2173 192.919 56.994 195.393 56.9995 198.012C57.005 200.631 55.2376 203.103 52.0297 204.91L52.0295 204.909C48.8157 206.721 44.6474 207.605 40.5173 207.602C36.3871 207.6 32.2157 206.711 28.9963 204.896V204.896C25.7817 203.084 24.005 200.612 23.9995 197.993C23.994 195.374 25.7615 192.902 28.9703 191.094C32.1842 189.282 36.3517 188.399 40.481 188.402ZM40.4799 189.833C36.5398 189.83 32.6414 190.677 29.7035 192.333H29.7032C26.7626 193.99 25.4614 196.063 25.4655 197.99C25.4695 199.919 26.7807 201.995 29.7295 203.657L29.7298 203.657C32.6742 205.318 36.5773 206.17 40.5183 206.172C44.4592 206.174 48.3588 205.327 51.2967 203.671L51.297 203.67C54.2362 202.015 55.5376 199.942 55.5336 198.014C55.5295 196.086 54.2183 194.009 51.2683 192.347C48.3225 190.688 44.4199 189.836 40.4799 189.833Z" fill="#373D4D"/>
<path d="M40.4878 191.4C43.0471 191.402 45.626 191.956 47.6485 193.082L47.8424 193.192L47.8426 193.192C49.8893 194.391 50.9959 196.012 50.9998 197.706C51.0035 199.348 49.9715 200.919 48.0497 202.103L47.861 202.216C45.8152 203.414 43.1542 204.002 40.5118 204C37.8693 203.999 35.2068 203.408 33.1578 202.207V202.207C31.1099 201.008 30.003 199.388 29.9998 197.694C29.9966 195.999 31.0978 194.38 33.1415 193.184L33.3349 193.073C35.3523 191.95 37.9285 191.399 40.4878 191.4ZM40.4875 192.125C38.0175 192.123 35.567 192.657 33.6797 193.708L33.4987 193.811C31.5855 194.931 30.7117 196.349 30.7142 197.692C30.7167 198.995 31.5424 200.368 33.3381 201.473L33.515 201.58L33.5152 201.58C35.4302 202.702 37.962 203.275 40.5122 203.276C43.0625 203.277 45.5925 202.708 47.5038 201.589L47.504 201.588C49.4158 200.47 50.2886 199.052 50.2856 197.708C50.2825 196.363 49.4024 194.943 47.4852 193.82V193.819C45.569 192.698 43.0371 192.126 40.4875 192.125Z" fill="#373D4D"/>
</svg>
