<svg width="218" height="240" viewBox="0 0 218 240" fill="none" xmlns="http://www.w3.org/2000/svg">
<path d="M59.2793 157.728C61.1012 158.689 62.5407 159.786 64.1073 161.086C74.2855 168.933 84.777 171.146 97.5969 170.768C97.5969 171.215 97.5969 171.661 97.5969 172.121C98.099 172.297 98.601 172.473 99.1183 172.653C101.397 173.555 103.475 174.629 105.621 175.784C106.041 176.009 106.46 176.235 106.893 176.467C107.781 176.945 108.668 177.424 109.555 177.904C110.877 178.619 112.202 179.33 113.527 180.041C116.138 181.445 118.738 182.866 121.332 184.298C122.01 184.672 122.01 184.672 122.701 185.053C124.024 185.787 125.342 186.529 126.659 187.274C127.432 187.709 128.206 188.145 129.003 188.593C129.557 188.962 130.111 189.331 130.682 189.71C130.682 190.157 130.682 190.603 130.682 191.063C130.161 191.346 129.639 191.628 129.102 191.92C127.124 192.992 125.145 194.065 123.167 195.139C121.907 195.822 120.647 196.505 119.388 197.187C118.572 197.63 117.756 198.073 116.915 198.529C116.09 198.966 115.264 199.403 114.413 199.853C111.965 201.172 111.965 201.172 109.741 202.746C107.604 204.157 105.849 205.222 103.351 205.946C100.019 205.246 97.5267 203.666 94.72 201.887C93.4038 201.176 92.0834 200.472 90.7585 199.776C89.4103 199.03 88.0637 198.282 86.7184 197.532C85.2015 196.693 83.6844 195.855 82.167 195.017C81.3914 194.588 80.6158 194.158 79.8168 193.716C75.955 191.588 72.0767 189.486 68.198 187.385C67.0494 186.762 67.0494 186.762 65.8776 186.126C62.2124 184.139 58.5456 182.154 54.8764 180.172C53.1651 179.248 51.4544 178.323 49.7438 177.397C48.5415 176.748 47.3383 176.099 46.135 175.451C42.5924 173.534 39.0993 171.609 35.7422 169.415C39.6519 166.355 43.9217 164.084 48.3289 161.72C49.1402 161.269 49.9514 160.818 50.7873 160.354C51.5707 159.934 52.3541 159.515 53.1613 159.083C53.8729 158.696 54.5845 158.31 55.3176 157.911C57.3194 157.238 57.3194 157.238 59.2793 157.728Z" fill="#F3F4FE"/>
<path d="M35.3097 0C40.1132 0.260213 43.668 2.38684 47.734 4.79538C48.5344 5.25242 49.3349 5.70947 50.1597 6.18036C52.7672 7.67534 55.3601 9.19355 57.9521 10.7152C59.7031 11.7328 61.4545 12.7497 63.2062 13.7659C66.9074 15.9173 70.6024 18.0787 74.2952 20.2443C80.0399 23.6058 85.816 26.9107 91.5998 30.2042C100.601 35.331 109.596 40.4691 118.564 45.6541C119.464 46.17 120.365 46.6859 121.293 47.2175C135.498 55.4612 135.498 55.4612 139.523 62.1368C140.027 62.9484 140.531 63.76 141.05 64.5962C145.224 72.6458 145.673 79.1898 145.631 88.1748C145.635 89.5224 145.64 90.8699 145.646 92.2175C145.658 95.8588 145.653 99.5 145.645 103.141C145.638 106.959 145.644 110.776 145.648 114.594C145.654 121 145.647 127.406 145.634 133.813C145.618 141.215 145.623 148.618 145.639 156.021C145.651 162.385 145.653 168.75 145.646 175.114C145.641 178.912 145.641 182.709 145.65 186.507C145.658 190.075 145.653 193.643 145.636 197.21C145.633 198.519 145.634 199.827 145.64 201.135C145.648 202.923 145.636 204.71 145.624 206.497C145.623 207.497 145.622 208.496 145.621 209.526C145.184 212.884 143.967 215.383 141.555 217.795C134.053 218.862 129.346 215.532 123.092 211.701C122.027 211.064 120.96 210.429 119.892 209.796C117.677 208.481 115.467 207.159 113.26 205.831C108.18 202.783 103.034 199.848 97.8955 196.901C95.8874 195.743 93.8796 194.585 91.8721 193.426C87.8 191.077 83.7262 188.732 79.651 186.389C75.6061 184.063 71.5654 181.73 67.5279 179.392C63.6433 177.142 59.7453 174.918 55.8366 172.71C54.0063 171.662 52.1763 170.614 50.3465 169.565C49.5194 169.105 48.6923 168.645 47.8401 168.172C40.8073 164.106 35.5088 159.031 32.0585 151.573C31.6969 150.811 31.3352 150.048 30.9627 149.263C29.3805 145.583 29.0359 142.785 29.0252 138.801C29.0199 137.623 29.0146 136.445 29.0091 135.231C29.0079 133.922 29.0069 132.614 29.0059 131.306C29.0016 129.93 28.997 128.554 28.992 127.178C28.9798 123.439 28.9738 119.699 28.9697 115.96C28.9669 113.625 28.9631 111.289 28.959 108.954C28.9463 101.65 28.9373 94.3453 28.9337 87.041C28.9295 78.6044 28.9132 70.1679 28.8863 61.7314C28.8663 55.2126 28.8569 48.6938 28.8556 42.1749C28.8547 38.2801 28.8492 34.3854 28.8326 30.4907C28.8173 26.8283 28.8153 23.1661 28.8234 19.5037C28.8241 18.1591 28.8201 16.8144 28.8109 15.4698C28.7992 13.6353 28.8062 11.8007 28.8143 9.96621C28.8129 8.93923 28.8115 7.91224 28.8101 6.85414C29.4126 2.25222 30.7173 0.682692 35.3097 0Z" fill="white"/>
<path d="M35.3098 0C40.1133 0.260212 43.6679 2.38696 47.7339 4.79549C48.5344 5.25253 49.3351 5.70961 50.1598 6.1805C52.7673 7.67547 55.3602 9.19365 57.9522 10.7153C59.7031 11.7329 61.4545 12.7498 63.2062 13.766C66.9073 15.9174 70.6025 18.0786 74.2952 20.2443C80.0399 23.6057 85.816 26.9108 91.5997 30.2043C100.601 35.3311 109.596 40.4692 118.564 45.6541C119.464 46.1701 120.365 46.6859 121.293 47.2175C135.498 55.4611 135.498 55.4612 139.523 62.1367C140.027 62.9482 140.531 63.76 141.05 64.5961C145.224 72.6457 145.673 79.19 145.631 88.1749C145.635 89.5224 145.64 90.8701 145.646 92.2176C145.658 95.8589 145.653 99.4999 145.645 103.141C145.637 106.959 145.644 110.776 145.648 114.594C145.654 121 145.647 127.406 145.634 133.813L145.626 139.365C145.622 144.917 145.627 150.469 145.639 156.021C145.652 162.385 145.653 168.75 145.646 175.114L145.643 180.81C145.643 182.709 145.646 184.608 145.65 186.507C145.658 190.075 145.653 193.643 145.637 197.211C145.633 198.519 145.634 199.827 145.64 201.135C145.648 202.922 145.636 204.71 145.624 206.497C145.623 207.497 145.622 208.496 145.621 209.526C145.184 212.884 143.967 215.383 141.555 217.795L141.205 217.841C133.906 218.758 129.248 215.472 123.092 211.7C122.56 211.382 122.026 211.064 121.493 210.747L119.892 209.796C117.677 208.481 115.467 207.159 113.26 205.831C109.45 203.545 105.603 201.323 101.75 199.111L97.8954 196.901C95.8874 195.743 93.8797 194.585 91.8722 193.426C87.8002 191.077 83.7261 188.732 79.651 186.389C77.6286 185.226 75.6071 184.061 73.5867 182.895L67.5282 179.392C64.6147 177.704 61.6936 176.031 58.7663 174.369L55.8368 172.71C54.0066 171.662 52.1764 170.614 50.3467 169.565C49.5196 169.105 48.6924 168.645 47.8402 168.172C40.8074 164.106 35.509 159.031 32.0587 151.573L30.9629 149.263C29.3807 145.583 29.0359 142.785 29.0252 138.801L29.0091 135.231C29.008 133.922 29.0069 132.614 29.0059 131.305L28.992 127.178C28.9859 125.308 28.9813 123.439 28.9777 121.569L28.9592 108.954C28.9528 105.302 28.9474 101.65 28.9431 97.9977L28.9339 87.0409C28.9308 80.7134 28.9208 74.3861 28.9046 68.0586L28.8864 61.7312C28.8714 56.8422 28.8624 51.9532 28.8583 47.0641L28.8558 42.1748C28.8548 38.2801 28.8492 34.3854 28.8326 30.4907C28.8173 26.8283 28.8155 23.166 28.8237 19.5036C28.8244 18.159 28.82 16.8144 28.8108 15.4698C28.7991 13.6353 28.8064 11.8006 28.8144 9.96612C28.8131 8.93916 28.8115 7.91219 28.8101 6.85411C29.4126 2.2522 30.7174 0.682692 35.3098 0ZM35.3761 1.4681C33.2748 1.79563 32.2498 2.28663 31.6351 2.95011C30.9959 3.64013 30.5649 4.76476 30.2707 6.95503C30.2721 7.9769 30.2737 8.97065 30.275 9.96433V9.97254C30.267 11.8074 30.2598 13.6345 30.2715 15.4598C30.2806 16.8081 30.285 18.1566 30.2843 19.5047V19.5072C30.2761 23.1668 30.278 26.8258 30.2932 30.4846C30.3098 34.382 30.3154 38.2787 30.3164 42.1745C30.3176 48.692 30.327 55.2094 30.3471 61.7266L30.3652 68.0551C30.3814 74.3834 30.3914 80.7117 30.3945 87.0402C30.3981 94.3439 30.4071 101.648 30.4198 108.952L30.4305 115.958C30.4346 119.697 30.4404 123.435 30.4526 127.173L30.4665 131.301V131.305C30.4675 132.611 30.4686 133.918 30.4697 135.224C30.4752 136.438 30.4805 137.616 30.4858 138.795V138.797C30.4961 142.648 30.8232 145.232 32.2944 148.662L33.3785 150.947L33.3813 150.954L33.3842 150.96C36.6812 158.086 41.7369 162.954 48.5637 166.903L51.0563 168.289L51.0645 168.293L51.0731 168.298C52.9001 169.345 54.7275 170.392 56.555 171.438L59.4873 173.099C62.4178 174.763 65.3423 176.438 68.2599 178.128C72.2962 180.466 76.3357 182.798 80.3791 185.123C84.4547 187.466 88.5292 189.812 92.6018 192.16L92.6025 192.161C94.6097 193.32 96.6172 194.478 98.625 195.635C103.437 198.396 108.272 201.154 113.055 204.007L114.011 204.579L114.013 204.58C116.218 205.906 118.425 207.227 120.637 208.54L122.24 209.492L123.841 210.447L123.856 210.455C130.068 214.262 134.258 217.186 140.862 216.411C142.797 214.362 143.778 212.26 144.16 209.425C144.161 208.431 144.163 207.463 144.164 206.496V206.487C144.176 204.7 144.187 202.92 144.179 201.142L144.174 199.174C144.173 198.518 144.174 197.862 144.176 197.206V197.204C144.192 193.639 144.198 190.075 144.19 186.511L144.184 183.66C144.181 180.811 144.182 177.961 144.185 175.112C144.191 170.34 144.191 165.568 144.186 160.796L144.178 156.024C144.163 148.62 144.158 141.215 144.173 133.809C144.186 127.404 144.193 121 144.188 114.595L144.182 108.868C144.181 106.959 144.18 105.049 144.184 103.139V103.138C144.193 99.4976 144.198 95.8604 144.185 92.224C144.179 90.8757 144.174 89.5272 144.17 88.1788V88.1678C144.212 79.2737 143.764 73.0254 139.778 65.3161C139.27 64.4979 138.776 63.7027 138.282 62.9076L138.277 62.8994L138.272 62.8909C136.249 59.5347 135.358 58.0791 133.301 56.3955C131.137 54.6249 127.722 52.6373 120.56 48.4809C119.634 47.9508 118.736 47.4361 117.838 46.9215L117.833 46.9186C108.869 41.7361 99.8774 36.5998 90.8769 31.4734C85.092 28.1793 79.3097 24.8711 73.5575 21.5052L73.5564 21.5041C69.8649 19.3392 66.1719 17.1793 62.4734 15.0294L57.2183 11.978L57.2154 11.9766L57.2126 11.9748C54.6217 10.4538 52.0353 8.93908 49.4356 7.44856C48.6108 6.97766 47.8102 6.52094 47.0097 6.0639L46.9997 6.05819L46.9897 6.05213C42.9287 3.64653 39.6966 1.7402 35.3761 1.4681Z" fill="#373D4D"/>
<path d="M87.8444 65.5267C95.313 70.7906 100.205 77.994 102.619 86.8121C103.381 92.1478 102.852 96.1768 99.8334 100.772C96.3587 103.094 93.6429 103.32 89.6214 102.633C82.4095 99.6784 76.9851 93.4473 73.4329 86.6376C71.3078 81.3577 71.1803 75.6521 71.9823 70.0601C73.2273 67.5982 74.2017 65.8689 76.3341 64.1271C80.4959 62.9995 84.1091 63.5002 87.8444 65.5267Z" fill="#D5FF4D"/>
<path d="M87.8444 65.5267C95.313 70.7906 100.205 77.994 102.619 86.8121C103.381 92.1478 102.852 96.1768 99.8334 100.772C96.3587 103.094 93.6429 103.32 89.6214 102.633C82.4095 99.6784 76.9851 93.4473 73.4329 86.6376C71.3078 81.3577 71.1803 75.6521 71.9823 70.0601C73.2273 67.5982 74.2017 65.8689 76.3341 64.1271C80.4959 62.9995 84.1091 63.5002 87.8444 65.5267ZM75.9642 68.8568C73.7496 72.8057 74.1523 76.8419 74.7674 81.2281C77.156 88.2887 81.4417 94.2304 87.2424 98.8527C90.3906 100.161 92.7461 100.217 96.12 99.8415C98.5485 98.1373 98.8771 97.1335 99.8334 94.2575C100.633 86.4045 97.5164 80.0166 92.9287 73.8409C90.0542 70.3855 87.7589 67.6967 83.1409 66.9845C79.15 66.7265 79.15 66.7265 75.9642 68.8568Z" fill="#373D4D"/>
<path d="M55.0957 134.01C58.9764 135.205 62.3167 136.681 65.8205 138.739C66.7963 139.31 67.7721 139.88 68.7774 140.467C70.3212 141.382 70.3212 141.382 71.8963 142.314C72.966 142.945 74.0358 143.575 75.1057 144.205C77.2737 145.483 79.4394 146.765 81.6037 148.05C84.5498 149.794 87.5053 151.52 90.4638 153.243C92.154 154.239 93.8437 155.235 95.5329 156.233C96.3229 156.69 97.1128 157.147 97.9267 157.618C98.6399 158.044 99.3531 158.469 100.088 158.908C101.023 159.458 101.023 159.458 101.977 160.019C102.63 160.576 102.63 160.576 103.296 161.145C103.296 162.072 103.296 162.998 103.296 163.952C99.5899 162.802 96.3766 161.451 93.0418 159.46C92.1594 158.937 91.277 158.414 90.3678 157.875C88.9671 157.033 88.9672 157.033 87.5382 156.174C85.5588 154.992 83.5794 153.811 81.6 152.629C80.5928 152.025 79.5855 151.422 78.5477 150.8C75.5419 149.013 72.5205 147.257 69.492 145.509C68.5517 144.961 67.6113 144.414 66.6425 143.85C64.8388 142.801 63.0309 141.759 61.2185 140.725C60.412 140.252 59.6054 139.779 58.7744 139.291C57.7053 138.674 57.7053 138.674 56.6146 138.044C56.1134 137.639 55.6121 137.234 55.0957 136.817C55.0957 135.891 55.0957 134.964 55.0957 134.01Z" fill="#373D4D"/>
<path d="M55.0957 111.736C59.1019 112.297 61.9682 113.753 65.4572 115.789C65.9992 116.104 66.5412 116.418 67.0996 116.742C68.8292 117.747 70.5534 118.762 72.2778 119.776C73.4069 120.433 74.5364 121.089 75.6663 121.744C78.4722 123.376 81.2657 125.028 84.0532 126.692C85.204 127.377 86.3572 128.058 87.5125 128.735C89.2222 129.738 90.9235 130.754 92.6234 131.774C93.6225 132.367 94.6216 132.96 95.6509 133.571C96.3663 134.112 97.0816 134.653 97.8186 135.21C97.8186 136.14 97.8186 137.07 97.8186 138.027C94.0139 136.851 90.7391 135.431 87.3157 133.388C86.3981 132.843 85.4805 132.299 84.5351 131.738C83.5742 131.16 82.6134 130.583 81.6234 129.987C80.6368 129.398 79.6502 128.809 78.6337 128.202C76.6577 127.021 74.6829 125.837 72.7095 124.652C70.2907 123.204 67.8631 121.775 65.4282 120.356C64.1703 119.615 62.9126 118.874 61.6551 118.133C61.0853 117.805 60.5155 117.477 59.9284 117.139C56.13 114.873 56.13 114.873 55.0957 111.736Z" fill="#373D4D"/>
<path d="M55.0957 123.057C59.8109 123.56 63.2125 125.814 67.1686 128.227C68.5752 129.069 69.9822 129.91 71.3897 130.75C72.0943 131.173 72.7989 131.596 73.5249 132.031C76.708 133.925 79.9256 135.756 83.1491 137.58C84.2185 138.186 85.2879 138.792 86.3897 139.417C87.1487 139.846 87.9078 140.275 88.6898 140.717C88.6898 141.637 88.6898 142.557 88.6898 143.505C84.88 142.958 82.1969 141.723 78.8988 139.769C77.4499 138.918 77.4499 138.918 75.9717 138.05C74.9721 137.454 73.9725 136.858 72.9426 136.244C70.9621 135.076 68.9815 133.908 67.0009 132.74C66.0738 132.19 65.1466 131.641 64.1914 131.075C61.1779 129.298 58.1439 127.562 55.0957 125.845C55.0957 124.925 55.0957 124.005 55.0957 123.057Z" fill="#373D4D"/>
<path d="M106.217 141.68C109.748 142.222 112.349 143.221 115.43 145.004C116.172 145.429 116.914 145.853 117.679 146.291C118.234 146.617 118.79 146.943 119.362 147.279C119.362 148.203 119.362 149.126 119.362 150.078C116.053 149.456 113.557 148.115 110.677 146.404C109.839 145.914 109.002 145.425 108.139 144.92C107.505 144.467 106.87 144.013 106.217 143.546C106.217 142.93 106.217 142.314 106.217 141.68Z" fill="#373D4D"/>
<path d="M130.92 158.967C132.626 160.046 134.155 161.265 135.677 162.588C135.972 162.831 136.268 163.073 136.573 163.324C145.456 170.867 151.951 183.489 152.899 195.089C153.223 200.68 152.41 206.271 148.838 210.734C147.223 212.542 145.289 213.62 143.185 214.782C142.799 215.001 142.412 215.22 142.014 215.445C141.238 215.884 140.462 216.32 139.684 216.754C138.719 217.293 137.759 217.841 136.802 218.395C136.29 218.689 135.778 218.984 135.266 219.278C135.04 219.409 134.814 219.539 134.581 219.674C131.068 221.659 127.2 222.022 123.29 221.071C112.756 217.825 105.111 208.766 99.9831 199.4C98.1608 195.935 96.9453 192.269 95.8751 188.514C95.8044 188.268 95.7338 188.022 95.661 187.769C93.8952 181.356 94.0773 174.441 97.0847 168.476C98.9671 165.419 101.502 163.764 104.616 162.086C105.365 161.673 106.114 161.261 106.863 160.849C107.412 160.549 107.412 160.549 107.972 160.244C108.915 159.725 109.849 159.195 110.779 158.655C111.171 158.429 111.171 158.429 111.57 158.198C112.044 157.925 112.516 157.649 112.987 157.372C118.887 153.995 125.342 155.79 130.92 158.967Z" fill="#D5FF4D"/>
<path d="M130.92 158.967C132.626 160.046 134.155 161.265 135.677 162.588C135.972 162.831 136.268 163.073 136.573 163.324C145.456 170.867 151.951 183.489 152.899 195.089C153.223 200.68 152.41 206.271 148.838 210.734C147.223 212.542 145.289 213.62 143.185 214.782C142.799 215.001 142.412 215.22 142.014 215.445C141.238 215.884 140.462 216.32 139.684 216.754C138.719 217.293 137.759 217.841 136.802 218.395C136.29 218.689 135.778 218.984 135.266 219.278C135.04 219.409 134.814 219.539 134.581 219.674C131.068 221.659 127.2 222.022 123.29 221.071C112.756 217.825 105.111 208.766 99.9831 199.4C98.1608 195.935 96.9453 192.269 95.8751 188.514C95.8044 188.268 95.7338 188.022 95.661 187.769C93.8952 181.356 94.0773 174.441 97.0847 168.476C98.9671 165.419 101.502 163.764 104.616 162.086C105.365 161.673 106.114 161.261 106.863 160.849C107.412 160.549 107.412 160.549 107.972 160.244C108.915 159.725 109.849 159.195 110.779 158.655C111.171 158.429 111.171 158.429 111.57 158.198C112.044 157.925 112.516 157.649 112.987 157.372C118.887 153.995 125.342 155.79 130.92 158.967ZM102.083 166.239C101.86 166.412 101.637 166.586 101.408 166.764C98.2615 169.543 97.1517 173.649 96.8907 177.704C96.5749 190.257 102.866 202.131 111.326 211.062C115.865 215.407 121.935 219.435 128.407 219.302C131.207 218.997 133.751 217.963 135.677 215.9C138.937 211.109 139.644 205.325 138.689 199.674C138.545 198.995 138.393 198.318 138.233 197.642C138.139 197.226 138.046 196.81 137.949 196.381C135.248 185.3 128.312 173.992 118.439 167.967C117.86 167.627 117.275 167.298 116.689 166.969C116.399 166.806 116.109 166.642 115.81 166.473C112.027 164.465 105.717 163.31 102.083 166.239Z" fill="#373D4D"/>
<path d="M130.087 161.082C132.255 162.472 134.146 164.14 136.042 165.874C136.286 166.091 136.529 166.309 136.78 166.533C144.323 173.634 150.243 185.33 150.71 195.719C150.741 198.491 150.712 201.171 149.918 203.85C149.829 204.152 149.739 204.455 149.647 204.767C148.805 207.201 147.451 209.062 145.536 210.787C145.175 210.908 144.813 211.028 144.441 211.153C144.546 210.833 144.652 210.512 144.76 210.183C147.872 199.91 145.236 189.524 140.308 180.303C138.75 177.498 136.939 174.958 134.947 172.446C134.758 172.173 134.568 171.9 134.373 171.619C133.859 170.88 133.859 170.88 132.756 170.621C133.47 171.869 134.243 172.951 135.175 174.044C141.175 181.474 145.233 191.092 145.24 200.677C145.244 201.001 145.249 201.324 145.253 201.658C145.262 205.547 144.696 209.632 141.953 212.599C140.291 214.074 140.291 214.074 139.329 214.074C139.434 213.737 139.54 213.4 139.648 213.053C142.717 202.576 139.714 192.121 134.631 182.782C129.811 174.289 122.503 166.418 113.038 163.318C111.705 163.006 110.377 162.766 109.021 162.587C110.019 161.43 111.291 160.749 112.604 160.008C112.935 159.816 112.935 159.816 113.272 159.62C119.084 156.31 124.565 158 130.087 161.082Z" fill="white"/>
<path d="M111.477 213.972C112.402 214.491 113.133 215.083 113.928 215.785C119.095 220.021 124.422 221.215 130.931 221.011C130.931 221.252 130.931 221.493 130.931 221.742C131.185 221.836 131.44 221.931 131.703 222.029C132.86 222.515 133.915 223.095 135.004 223.719C135.217 223.84 135.43 223.962 135.65 224.087C136.101 224.345 136.551 224.604 137.002 224.863C137.673 225.249 138.345 225.633 139.018 226.016C140.344 226.774 141.664 227.541 142.981 228.314C143.325 228.516 143.325 228.516 143.676 228.722C144.347 229.118 145.017 229.518 145.685 229.92C146.078 230.156 146.471 230.391 146.875 230.633C147.157 230.832 147.438 231.031 147.728 231.236C147.728 231.477 147.728 231.718 147.728 231.966C147.463 232.118 147.198 232.271 146.926 232.428C145.921 233.007 144.916 233.586 143.912 234.166C143.273 234.534 142.633 234.903 141.994 235.272C141.579 235.51 141.165 235.749 140.738 235.995C140.319 236.231 139.9 236.467 139.468 236.71C138.225 237.422 138.225 237.422 137.096 238.272C136.011 239.034 135.12 239.609 133.852 239.999C132.16 239.621 130.895 238.768 129.47 237.808C128.802 237.425 128.131 237.045 127.459 236.669C126.774 236.266 126.091 235.863 125.408 235.458C124.637 235.005 123.867 234.552 123.097 234.1C122.703 233.868 122.309 233.637 121.904 233.398C119.943 232.249 117.974 231.115 116.005 229.98C115.422 229.644 115.422 229.644 114.827 229.301C112.966 228.228 111.104 227.157 109.242 226.087C108.373 225.588 107.504 225.089 106.636 224.59C106.025 224.239 105.415 223.889 104.804 223.539C103.005 222.504 101.232 221.465 99.5273 220.281C101.512 218.629 103.68 217.403 105.918 216.127C106.329 215.884 106.741 215.641 107.166 215.39C107.563 215.164 107.961 214.937 108.371 214.704C108.732 214.495 109.093 214.286 109.466 214.071C110.482 213.708 110.482 213.708 111.477 213.972Z" fill="#F3F4FE"/>
<path d="M117.967 176.008C118.88 176.099 118.88 176.099 119.61 176.829C119.705 177.758 119.705 177.758 119.71 178.945C119.714 179.389 119.717 179.833 119.721 180.289C119.72 180.771 119.72 181.252 119.72 181.748C119.721 182.244 119.723 182.741 119.724 183.237C119.727 184.279 119.727 185.32 119.725 186.361C119.723 187.697 119.729 189.033 119.738 190.369C119.743 191.395 119.743 192.42 119.742 193.446C119.742 194.178 119.748 194.911 119.753 195.644C119.75 196.087 119.748 196.531 119.746 196.988C119.746 197.38 119.746 197.771 119.746 198.175C119.701 198.482 119.656 198.788 119.61 199.104C118.514 199.834 118.514 199.834 117.556 199.72C116.689 199.469 116.689 199.469 116.323 199.104C116.285 198.413 116.273 197.721 116.27 197.029C116.268 196.586 116.266 196.142 116.263 195.685C116.263 195.197 116.262 194.709 116.262 194.221C116.261 193.724 116.26 193.227 116.258 192.73C116.256 191.686 116.256 190.643 116.256 189.6C116.256 188.261 116.251 186.922 116.245 185.583C116.241 184.556 116.24 183.529 116.24 182.502C116.24 182.008 116.238 181.514 116.235 181.021C116.232 180.331 116.233 179.641 116.235 178.951C116.234 178.558 116.234 178.165 116.233 177.76C116.358 176.474 116.678 176.137 117.967 176.008Z" fill="#373D4D"/>
<path d="M117.945 203.713C119.245 203.85 119.245 203.85 119.976 204.443C120.466 205.607 120.315 206.3 119.976 207.501C119.245 208.232 119.245 208.232 117.99 208.369C116.689 208.232 116.689 208.232 115.959 207.638C115.469 206.475 115.62 205.781 115.959 204.58C116.689 203.85 116.689 203.85 117.945 203.713Z" fill="#373D4D"/>
<path d="M118.88 160.762C120.823 160.944 122.2 161.413 123.901 162.359C124.306 162.58 124.711 162.802 125.128 163.03C125.992 163.564 126.652 163.988 127.279 164.778C127.279 165.019 127.279 165.26 127.279 165.509C125.861 165.3 124.9 164.885 123.696 164.117C122.127 163.14 120.545 162.293 118.88 161.492C118.88 161.251 118.88 161.01 118.88 160.762Z" fill="#373D4D"/>
<path d="M18.6235 117.637C19.2855 117.688 19.9473 117.742 20.609 117.796C21.1618 117.841 21.1618 117.841 21.7258 117.886C22.6401 118.002 22.6401 118.002 23.0053 118.367C23.0201 118.975 23.0209 119.584 23.0053 120.193C21.2083 120.254 19.9002 120.283 18.2583 119.462C18.3788 118.86 18.4993 118.257 18.6235 117.637Z" fill="#373D4D"/>
<path d="M0.730306 114.715C1.33233 114.729 1.93383 114.771 2.53325 114.829C2.86039 114.858 3.18753 114.886 3.52458 114.916C4.38184 115.08 4.38184 115.08 5.11215 115.81C4.97521 116.586 4.97521 116.586 4.74699 117.271C4.22985 117.291 3.71248 117.305 3.19509 117.317C2.90702 117.325 2.61895 117.334 2.32215 117.342C1.38491 117.265 0.806402 117.01 0 116.541C0.319509 115.126 0.319509 115.126 0.730306 114.715Z" fill="#373D4D"/>
<path d="M6.93807 119.828C6.93807 120.43 6.93807 121.033 6.93807 121.654C4.60109 123.137 4.60109 123.137 3.49194 123.023C3.30366 122.933 3.11537 122.842 2.92139 122.749C2.98985 121.905 2.98985 121.905 3.28654 120.923C4.5034 119.943 5.39057 119.695 6.93807 119.828Z" fill="#373D4D"/>
<path d="M20.0841 112.162C20.2046 112.644 20.3251 113.126 20.4492 113.623C20.0581 113.94 19.6614 114.251 19.2625 114.558C19.0422 114.732 18.8219 114.906 18.5949 115.085C17.8931 115.448 17.8931 115.448 17.0773 115.321C16.8645 115.243 16.6517 115.164 16.4325 115.083C16.312 114.601 16.1915 114.119 16.0674 113.623C17.4538 112.591 18.3261 111.955 20.0841 112.162Z" fill="#373D4D"/>
<path d="M8.0341 110.334C8.90134 110.425 8.90134 110.425 9.85986 110.699C10.362 111.338 10.362 111.338 10.5902 112.16C10.4532 113.164 10.4532 113.164 10.225 113.986C9.74302 113.986 9.26101 113.986 8.76441 113.986C8.10256 113.187 8.10256 113.187 7.66895 112.16C7.78306 111.133 7.78306 111.133 8.0341 110.334Z" fill="#373D4D"/>
<path d="M13.1453 120.924C13.83 121.038 13.83 121.038 14.606 121.289C15.4422 122.543 15.4014 123.109 15.3363 124.575C14.7338 124.575 14.1313 124.575 13.5105 124.575C12.9171 123.571 12.9171 123.571 12.415 122.384C12.7117 121.517 12.7117 121.517 13.1453 120.924Z" fill="#373D4D"/>
<path d="M155.199 5.16694C155.497 5.54162 155.795 5.9163 156.102 6.30234C156.867 7.09229 157.262 7.33749 158.361 7.51244C159.549 7.521 160.723 7.47202 161.909 7.4035C169.011 7.21089 175.594 8.82481 180.965 13.7252C184.011 16.6209 186.131 19.9813 188.177 23.63C188.658 24.4734 189.14 25.3164 189.622 26.159C189.854 26.5655 190.087 26.972 190.326 27.3908C191.198 28.9093 192.081 30.4191 192.993 31.9144C193.124 32.1378 193.256 32.3612 193.391 32.5913C194.941 35.1005 196.913 36.6043 199.634 37.6884C200.077 37.8701 200.521 38.0518 200.977 38.239C201.815 38.5684 202.653 38.8941 203.494 39.2146C208.409 41.1379 210.663 43.8324 213.259 48.255C213.461 48.5756 213.662 48.8961 213.87 49.2264C214.894 50.9078 215.402 52.0832 215.084 54.0975C214.303 56.8499 212.923 58.8924 211.068 61.0354C210.823 61.3244 210.578 61.6134 210.326 61.9112C199.466 74.3845 181.927 84.6043 165.789 88.0567C165.44 88.1377 165.092 88.2187 164.733 88.3021C161.58 88.9688 157.742 89.5003 154.721 88.1067C152.564 86.6571 151.512 84.0958 150.361 81.8491C150.236 81.6066 150.111 81.3641 149.983 81.1143C148.237 77.5746 147.56 73.5987 148.626 69.7306C149.656 65.5833 149.466 61.4906 147.336 57.7604C147.198 57.5359 147.061 57.3114 146.919 57.08C146.101 55.741 145.322 54.3796 144.534 53.0229C144.094 52.2686 143.651 51.5162 143.205 50.766C140.401 46.043 137.523 41.091 137.307 35.4747C137.292 35.1414 137.278 34.8081 137.262 34.4648C137.12 28.083 138.844 22.1292 142.921 17.1485C143.773 16.0778 143.773 16.0778 143.834 14.7294C143.728 14.3453 143.623 13.9612 143.514 13.5655C143.282 11.0086 143.283 8.68333 144.975 6.62755C147.996 4.08892 151.593 3.02329 155.199 5.16694ZM145.34 17.5822C140.86 22.8696 138.965 28.9288 139.498 35.8398C140.253 40.9636 142.528 45.3483 145.135 49.7613C145.369 50.1637 145.604 50.5662 145.846 50.9808C146.918 52.8155 148.003 54.64 149.11 56.4539C149.837 57.6618 150.462 58.8425 150.954 60.1681C151.07 60.4741 151.186 60.7801 151.305 61.0953C151.385 61.3165 151.465 61.5378 151.548 61.7657C151.819 61.4946 152.09 61.2234 152.369 60.9441C152.978 60.3355 153.593 59.7327 154.218 59.1412C154.917 58.5409 154.917 58.5409 154.834 57.749C155.051 57.6527 155.268 57.5564 155.491 57.4572C156.327 57.001 156.826 56.5394 157.471 55.8448C163.307 49.8513 174.133 42.1965 182.586 40.952C181.617 41.719 180.689 42.2955 179.562 42.7991C179.258 42.9378 178.954 43.0764 178.641 43.2193C178.316 43.3673 177.991 43.5153 177.656 43.6678C172.005 46.304 166.616 49.4233 161.772 53.3672C161.578 53.5248 161.384 53.6824 161.184 53.8448C154.18 59.525 154.18 59.525 151.068 67.7223C151.007 68.076 150.946 68.4297 150.882 68.7942C150.487 71.214 150.379 73.5573 150.452 76.0067C150.693 76.0067 150.934 76.0067 151.183 76.0067C151.624 75.33 151.624 75.33 152.073 74.4548C158.53 63.3698 172.433 55.6172 183.681 50.4459C183.945 50.3233 184.209 50.2007 184.48 50.0744C191.758 46.706 198.972 44.133 207.051 43.8732C205.375 42.0869 203.192 41.3627 200.926 40.5634C194.28 38.1973 191.688 34.2794 188.291 28.2629C183.549 19.9668 179.225 12.8136 169.423 10.0699C160.455 7.87753 151.509 10.862 145.34 17.5822Z" fill="#373D4D"/>
<path d="M212.163 51.176C212.529 51.5412 212.529 51.5412 212.688 52.7736C212.589 57.0583 208.796 60.4004 205.956 63.2261C205.648 63.5339 205.34 63.8418 205.023 64.1589C200.084 68.8515 194.306 72.6082 188.428 76.0065C188.146 76.1725 187.863 76.3385 187.572 76.5096C179.188 81.4151 169.428 86.2055 159.559 86.4133C159.263 86.4245 158.967 86.4357 158.663 86.4472C157.089 86.4479 156.473 86.3675 155.184 85.3764C154.469 84.405 154.469 84.405 154.378 83.2867C156.066 76.5762 163.183 70.9163 168.71 67.2428C168.976 67.4546 168.976 67.4546 169.247 67.6707C173.031 70.6107 176.32 71.6622 181.11 71.3563C183.704 71.0196 185.917 69.5522 187.698 67.6992C188.289 66.9433 188.289 66.9433 188.794 66.1473C189.03 65.7865 189.03 65.7865 189.271 65.4184C190.911 62.2359 190.379 58.3027 190.254 54.8276C193.49 53.3722 196.685 52.1146 200.113 51.176C200.5 51.0664 200.887 50.9567 201.286 50.8437C204.93 49.8952 208.78 49.2128 212.163 51.176Z" fill="#E5E5FE"/>
<path d="M196.122 125.543C198.652 125.543 201.183 125.543 203.79 125.543C203.79 130.001 203.79 134.46 203.79 139.054C208.248 139.054 212.707 139.054 217.3 139.054C217.3 141.705 217.3 144.356 217.3 147.087C212.962 147.087 208.624 147.087 204.155 147.087C204.155 151.546 204.155 156.004 204.155 160.598C201.383 160.598 198.612 160.598 195.756 160.598C195.756 156.139 195.756 151.681 195.756 147.087C191.418 147.087 187.08 147.087 182.611 147.087C182.611 144.436 182.611 141.785 182.611 139.054C187.069 139.054 191.528 139.054 196.122 139.054C196.122 134.595 196.122 130.137 196.122 125.543Z" fill="#DB46EF"/>
<path d="M202.004 127.329H197.908V140.84H184.397V145.301H197.543V158.811H202.369V145.301H215.514V140.84H202.004V127.329ZM217.3 139.054V147.087H204.155V160.598H195.756V147.087H182.611V139.054H196.122V125.543H203.79V139.054H217.3Z" fill="#373D4D"/>
<path d="M204.769 44.8317C205.037 44.8222 205.305 44.8127 205.581 44.8028C206.911 44.7986 207.712 44.9266 208.86 45.6162C209.596 46.4173 209.858 46.8239 209.973 47.8899C209.533 47.904 209.533 47.904 209.085 47.9184C190.562 48.8425 172.348 60.2349 159.216 72.7203C158.845 73.0627 158.845 73.0627 158.466 73.4121C156.163 75.5973 154.305 78.2201 153.009 81.1188C152.026 80.1793 151.58 79.6733 151.462 78.2789C151.818 73.3832 157.431 68.7992 160.905 65.7824C166.276 61.2525 172.096 57.548 178.204 54.0975C178.607 53.866 178.607 53.866 179.018 53.6298C185.011 50.1987 191.607 47.4613 198.288 45.699C198.549 45.618 198.811 45.537 199.081 45.4536C200.954 44.9325 202.836 44.8718 204.769 44.8317Z" fill="white"/>
<path d="M155.822 139.123C157.392 139.307 158.488 140.068 159.816 140.892C160.087 141.056 160.358 141.22 160.638 141.389C161.462 141.889 162.282 142.394 163.102 142.9C163.585 143.194 164.068 143.487 164.551 143.78C167.762 145.734 167.762 145.734 168.214 146.186C168.247 147.24 168.256 148.284 168.25 149.337C168.249 149.653 168.249 149.969 168.248 150.294C168.246 151.306 168.242 152.318 168.237 153.33C168.235 154.014 168.233 154.699 168.232 155.383C168.228 157.065 168.222 158.746 168.214 160.427C167.617 160.859 167.617 160.859 166.754 161.158C165.757 160.767 165.757 160.767 164.624 160.095C164.212 159.854 163.8 159.613 163.375 159.364C162.942 159.102 162.508 158.841 162.075 158.579C161.646 158.327 161.217 158.075 160.788 157.824C159.602 157.122 158.423 156.418 157.26 155.68C157.028 155.556 156.797 155.431 156.558 155.302C154.837 154.281 154.837 154.281 154.481 153.147C154.401 152.278 154.406 151.446 154.441 150.574C154.444 150.261 154.447 149.949 154.449 149.627C154.461 148.631 154.491 147.638 154.521 146.643C154.531 145.968 154.539 145.294 154.547 144.619C154.626 139.322 154.626 139.322 155.822 139.123Z" fill="#373D4D"/>
<path d="M18.2685 169.875C19.6877 169.985 20.4808 170.419 21.7175 171.11C24.3206 172.373 25.8886 172.097 28.6098 171.43C29.369 171.34 30.1299 171.263 30.892 171.202C31.2253 171.174 31.5585 171.147 31.9019 171.119C32.141 171.101 32.3801 171.083 32.6265 171.065C33.0458 171.689 33.0458 171.689 33.3568 172.525C33.0287 173.361 33.0287 173.361 32.4895 174.214C31.7484 175.301 31.7484 175.301 31.531 176.542C32.2428 177.179 32.2428 177.179 33.1286 177.82C33.9881 178.464 34.7879 179.068 35.5477 179.828C35.4108 180.604 35.4108 180.604 35.1826 181.289C34.9381 181.283 34.6937 181.277 34.4418 181.27C28.8089 180.975 28.8089 180.975 23.9541 183.32C23.6773 183.622 23.4005 183.924 23.1154 184.234C22.4022 184.94 22.4022 184.94 20.9416 184.94C20.8385 184.663 20.7354 184.386 20.6292 184.1C19.6268 181.81 19.6268 181.81 17.6381 180.426C16.425 180.153 15.2394 179.962 14.0037 179.828C11.478 179.493 11.478 179.493 10.7173 178.733C10.7173 178.251 10.7173 177.769 10.7173 177.272C12.6453 176.429 14.5733 175.585 16.5597 174.716C16.6125 174.001 16.6652 173.285 16.7195 172.548C16.9068 170.006 16.9068 170.006 18.2685 169.875Z" fill="#373D4D"/>
<path d="M188.063 56.2871C188.807 58.5185 188.825 61.2252 188.123 63.4718C186.868 65.9093 184.841 67.9077 182.335 69.0447C179.571 69.9078 176.607 69.8631 173.982 68.6339C172.612 67.9061 171.822 67.0236 170.901 65.7811C183.006 56.2871 183.006 56.2871 188.063 56.2871Z" fill="white"/>
<path d="M174.98 99.1084C178.373 100.168 180.701 102.581 182.516 105.57C184.1 108.611 184.35 111.397 184.109 114.81C183.568 116.38 182.984 117.247 181.553 118.096C179.99 118.617 178.68 118.761 177.107 118.156C172.977 116.03 170.695 112.677 169.001 108.443C168.588 106.089 168.432 103.765 169.206 101.482C170.831 99.2405 172.283 98.6324 174.98 99.1084ZM171.557 102.007C170.577 103.853 170.705 105.404 171.218 107.401C172.515 111.292 174.523 114.399 178.267 116.271C179.608 116.445 180.223 116.444 181.325 115.632C182.265 113.751 182.268 112.121 181.918 110.063C180.648 106.572 178.873 103.702 175.688 101.687C174.022 101.085 172.984 100.843 171.557 102.007Z" fill="#373D4D"/>
<path d="M156.895 142.17C157.124 142.289 157.353 142.408 157.589 142.531C159.073 143.289 160.512 144.012 162.101 144.521C163.739 145.132 165.095 145.741 166.024 147.282C166.729 150.724 166.352 154.398 166.024 157.872C165.738 157.724 165.452 157.577 165.158 157.425C162.731 156.159 162.731 156.159 160.175 155.2C158.709 154.635 157.635 154.169 156.895 152.759C156.285 149.296 156.611 145.656 156.895 142.17Z" fill="white"/>
<path d="M71.3647 207.98C73.2847 208.228 74.7883 209.486 76.3784 210.538C77.879 211.552 77.879 211.552 79.6035 211.613C79.8934 211.425 80.1834 211.236 80.4821 211.041C80.8888 210.803 81.2955 210.564 81.7145 210.318C82.3817 209.914 83.0462 209.507 83.7057 209.091C84.7736 208.451 85.4076 208.104 86.6669 208.216C87.0397 208.349 87.0397 208.349 87.42 208.485C87.3972 209.301 87.3972 209.301 87.0549 210.311C86.1977 210.915 85.4225 211.39 84.4988 211.863C84.027 212.116 83.5553 212.369 83.0838 212.622C82.7073 212.823 82.3307 213.025 81.9427 213.232C81.8222 213.353 81.7017 213.473 81.5776 213.598C83.5056 214.682 85.4336 215.767 87.42 216.884C87.42 217.486 87.42 218.089 87.42 218.71C84.9136 218.538 83.404 217.544 81.3693 216.144C80.0243 215.237 80.0243 215.237 78.4652 215.231C78.1668 215.415 77.8683 215.599 77.5609 215.788C77.1542 216.023 76.7475 216.257 76.3285 216.499C75.662 216.897 74.998 217.299 74.3373 217.707C73.0445 218.474 72.1347 218.887 70.623 218.71C70.5025 218.228 70.382 217.746 70.2578 217.249C72.1662 215.951 74.0803 214.715 76.1003 213.598C74.6439 212.335 73.0779 211.434 71.3932 210.517C70.623 209.946 70.623 209.946 70.3092 209.17C70.2922 208.944 70.2753 208.718 70.2578 208.485C70.623 208.12 70.623 208.12 71.3647 207.98Z" fill="#373D4D"/>
<path d="M19.4812 172.891C20.6072 173.061 21.4294 173.316 22.4595 173.826C23.9941 174.497 25.306 174.406 26.944 174.237C27.2111 174.215 27.4783 174.192 27.7535 174.169C28.4047 174.114 29.0552 174.051 29.7055 173.986C29.5841 174.268 29.4626 174.55 29.3375 174.84C28.9074 175.994 28.927 176.486 29.3403 177.638C29.8158 178.136 30.3017 178.624 30.801 179.098C30.47 179.095 30.1391 179.092 29.7982 179.088C26.5498 179.167 24.7013 179.69 22.4024 182.019C21.62 181.289 21.237 180.787 20.7364 179.806C19.4632 178.271 18.1119 178.215 16.1948 178.003C16.1948 177.762 16.1948 177.521 16.1948 177.272C17.1588 176.911 18.1228 176.549 19.1161 176.177C19.2366 175.092 19.3571 174.008 19.4812 172.891Z" fill="white"/>
<path d="M187.698 48.9852C187.698 49.2262 187.698 49.4672 187.698 49.7155C187.259 49.9113 186.82 50.1071 186.367 50.3089C178.359 53.958 170.83 58.4167 163.879 63.8207C163.183 64.3606 162.478 64.8898 161.772 65.4171C161.531 65.2966 161.29 65.1761 161.042 65.0519C162.785 62.8743 164.629 61.232 166.93 59.6659C167.246 59.4481 167.562 59.2304 167.888 59.006C173.135 55.4458 178.711 52.4759 184.412 49.7155C184.804 49.5013 185.196 49.2871 185.6 49.0665C186.603 48.62 186.603 48.62 187.698 48.9852Z" fill="#373D4D"/>
<path d="M182.951 40.9529C182.113 41.892 181.312 42.3661 180.168 42.88C179.661 43.1127 179.661 43.1127 179.144 43.3502C178.781 43.5155 178.418 43.6809 178.044 43.8513C172.235 46.5676 166.791 49.7301 161.772 53.7333C161.133 54.2282 160.494 54.7227 159.855 55.2167C159.398 55.5739 158.942 55.9313 158.486 56.2894C158.245 56.1689 158.004 56.0484 157.755 55.9242C162.483 49.3189 171.763 45.0228 178.98 41.7517C179.255 41.6261 179.529 41.5005 179.812 41.3711C181.718 40.5421 181.718 40.5421 182.951 40.9529Z" fill="#373D4D"/>
</svg>
