<svg width="87" height="72" viewBox="0 0 87 72" fill="none" xmlns="http://www.w3.org/2000/svg">
<path d="M86.3079 0.206112C86.3775 0.971041 86.3833 1.38401 85.9637 2.04064C85.7171 2.31928 85.7171 2.31928 85.4656 2.60355C84.4986 3.7523 83.6191 4.93568 82.7604 6.16732C81.6661 7.73188 80.5606 9.28713 79.4396 10.8326C78.3491 12.3373 77.2686 13.8482 76.1998 15.3683C74.9916 17.0865 73.7662 18.7914 72.5338 20.4922C71.5863 21.8014 70.6497 23.1178 69.7202 24.4397C68.6514 25.9598 67.5707 27.4707 66.4804 28.9754C64.863 31.2083 63.2712 33.4586 61.6855 35.7142C59.9623 38.1654 58.2284 40.6078 56.4696 43.0337C55.3391 44.5952 54.2254 46.1681 53.1214 47.7485C52.4627 48.6877 51.7881 49.6007 51.059 50.4876C50.0562 50.3343 49.3185 50.036 48.4378 49.5369C48.1813 49.3925 47.9248 49.2481 47.6606 49.0992C47.3868 48.9426 47.1131 48.7861 46.8311 48.6247C46.5477 48.4646 46.2643 48.3045 45.9723 48.1396C44.4798 47.2934 42.9962 46.4336 41.5189 45.5611C41.2385 45.3958 40.9581 45.2305 40.6693 45.0601C40.1318 44.7421 39.5955 44.4223 39.0604 44.1005C38.8169 43.956 38.5735 43.8116 38.3226 43.6628C38.1101 43.5352 37.8975 43.4077 37.6785 43.2762C37.0231 42.9514 36.496 42.7775 35.7672 42.7121C35.1897 43.103 34.732 43.4718 34.2283 43.9432C33.9306 44.2088 33.6322 44.4737 33.3334 44.738C33.1798 44.875 33.0263 45.012 32.8681 45.1532C31.968 45.9378 31.0204 46.662 30.076 47.3921C29.3736 47.9363 28.6858 48.4855 28.01 49.0631C27.7848 49.2552 27.5596 49.4473 27.3276 49.6453C27.0384 49.8998 27.0384 49.8998 26.7434 50.1596C26.0105 50.5844 25.6811 50.4243 24.8816 50.2284C24.8331 50.0764 24.7846 49.9244 24.7346 49.7678C24.2218 48.1611 23.7086 46.5545 23.1952 44.9479C23.0046 44.3513 22.8141 43.7547 22.6237 43.158C22.5319 42.8702 22.44 42.5824 22.3454 42.2859C22.2542 41.9999 22.163 41.7139 22.0691 41.4192C21.8856 40.8466 21.7008 40.2744 21.5146 39.7027C21.1004 38.4295 20.6977 37.1587 20.3465 35.8665C19.6826 33.3705 19.6826 33.3705 17.9423 31.5389C17.4657 31.2958 16.9811 31.068 16.4905 30.8545C15.9525 30.586 15.4149 30.3167 14.8777 30.0466C14.6024 29.914 14.327 29.7815 14.0433 29.6449C12.7084 28.981 11.4367 28.2159 10.1567 27.4527C8.64355 26.5612 7.12795 25.6752 5.59553 24.8171C4.96721 24.4653 4.34018 24.1111 3.71314 23.7569C3.26398 23.5047 2.81285 23.2559 2.36169 23.0072C2.0905 22.8539 1.81932 22.7005 1.53991 22.5424C1.29854 22.4081 1.05717 22.2737 0.808491 22.1353C0.259183 21.7183 0.259183 21.7183 0.049546 21.1484C0.0331958 20.9944 0.0168456 20.8403 0 20.6816C1.23731 19.7839 2.58635 19.5392 4.04973 19.2075C4.47142 19.1089 4.47142 19.1089 4.90163 19.0084C6.57586 18.6188 8.25263 18.2404 9.92893 17.8599C10.4933 17.7318 11.0577 17.6036 11.6221 17.4753C12.0078 17.3877 12.3935 17.3002 12.7793 17.2128C15.7213 16.5455 18.6496 15.834 21.5736 15.0918C24.4244 14.3691 27.2862 13.7102 30.1576 13.0731C32.5563 12.5371 34.9402 11.9556 37.3223 11.351C40.3668 10.5782 43.4192 9.86584 46.4859 9.18538C48.8847 8.64936 51.2686 8.06791 53.6509 7.46323C56.6953 6.69047 59.7477 5.97809 62.8144 5.29764C65.3863 4.72293 67.9409 4.09325 70.4949 3.44455C73.4773 2.68805 76.4706 1.99355 79.4755 1.33244C81.1356 0.965418 82.7678 0.570637 84.3911 0.0626633C85.1041 -0.0702355 85.6115 0.0226954 86.3079 0.206112Z" fill="#373D4D"/>
<path d="M85.2706 23.2734C84.7057 24.456 83.97 25.4999 83.2295 26.578C83.004 26.9073 83.004 26.9073 82.7739 27.2432C81.7027 28.7965 80.5886 30.3103 79.4447 31.8105C78.448 33.1261 77.512 34.4765 76.588 35.8438C75.4266 37.5624 74.222 39.2336 72.9645 40.8827C71.9681 42.1981 71.0322 43.5481 70.1084 44.9152C68.9471 46.6338 67.7424 48.305 66.4849 49.9541C65.4885 51.2695 64.5526 52.6195 63.6288 53.9866C62.4675 55.7052 61.2629 57.3764 60.0053 59.0255C58.8571 60.5414 57.7913 62.1076 56.727 63.6831C55.6646 65.2479 54.5496 66.7646 53.405 68.27C52.4858 69.4815 51.6133 70.7145 50.7993 71.9998C49.1971 71.5778 47.8677 70.7188 46.4579 69.8778C45.8972 69.5469 45.3363 69.2161 44.7753 68.8856C44.486 68.7147 44.1968 68.5438 43.8988 68.3677C42.4999 67.5447 41.0935 66.7348 39.6868 65.9252C39.1205 65.5989 38.5542 65.2726 37.9879 64.9462C37.7067 64.7842 37.4255 64.6222 37.1357 64.4553C35.7287 63.6446 34.3222 62.8329 32.9156 62.0213C32.3541 61.6973 31.7925 61.3733 31.2309 61.0494C27.8616 59.1055 24.4922 57.1616 21.1228 55.2177C20.8448 55.0573 20.5668 54.897 20.2803 54.7317C19.7192 54.408 19.158 54.0842 18.5969 53.7604C17.1868 52.9468 15.7765 52.1335 14.3658 51.3209C11.5502 49.6986 8.73653 48.0729 5.92821 46.4379C5.67492 46.2907 5.42163 46.1435 5.16066 45.9919C3.77017 45.1811 2.39623 44.3506 1.03613 43.4897C1.90252 42.9121 2.56767 42.7496 3.57886 42.508C3.75721 42.465 3.93555 42.4219 4.11931 42.3776C4.70842 42.2358 5.29804 42.0963 5.88771 41.9569C6.29734 41.8589 6.70695 41.7609 7.11652 41.6627C7.97472 41.4574 8.83316 41.2532 9.69181 41.0497C10.793 40.7888 11.8936 40.5257 12.9941 40.2618C13.8398 40.0592 14.6856 39.8576 15.5315 39.6562C15.9375 39.5595 16.3434 39.4625 16.7493 39.3654C17.3161 39.2299 17.8833 39.0955 18.4505 38.9615C18.7733 38.8848 19.0962 38.8081 19.4288 38.729C20.2157 38.5652 20.2157 38.5652 20.9932 38.5652C21.1215 38.3086 21.1215 38.3086 21.2524 38.0469C22.5354 42.0668 23.8183 46.0867 25.1401 50.2285C26.3819 49.9801 26.6545 49.8873 27.5538 49.1269C27.8891 48.8483 27.8891 48.8483 28.2311 48.564C28.3559 48.4589 28.4808 48.3539 28.6094 48.2456C29.6103 47.4091 30.6285 46.5932 31.6431 45.7734C32.4279 45.1382 33.2091 44.5017 33.9716 43.84C34.1951 43.6496 34.4186 43.4591 34.6489 43.2629C34.9311 43.0154 34.9311 43.0154 35.2189 42.7628C35.7667 42.453 35.7667 42.453 36.3542 42.5123C37.1827 42.7461 37.8307 43.095 38.5762 43.5262C38.8705 43.6954 39.1648 43.8646 39.468 44.039C39.6227 44.1292 39.7774 44.2193 39.9368 44.3122C40.4199 44.5937 40.9044 44.8726 41.3893 45.151C42.9445 46.0467 44.4891 46.957 46.0206 47.8928C46.408 48.1279 46.408 48.1279 46.8032 48.3679C47.2871 48.6629 47.7689 48.9613 48.2484 49.2634C48.5724 49.4609 48.5724 49.4609 48.903 49.6625C49.1818 49.8367 49.1818 49.8367 49.4663 50.0144C50.1963 50.2957 50.5844 50.2249 51.3176 49.9693C51.7161 49.6179 51.7161 49.6179 52.0061 49.1441C52.1842 48.8834 52.1842 48.8834 52.3659 48.6174C52.4904 48.4274 52.6149 48.2374 52.7431 48.0416C53.0189 47.6357 53.2949 47.2301 53.5713 46.8247C53.7834 46.5103 53.7834 46.5103 53.9998 46.1896C54.6728 45.2045 55.3768 44.2427 56.0801 43.2791C57.431 41.4176 58.7535 39.5375 60.0683 37.6504C61.0841 36.1951 62.1158 34.7525 63.159 33.3168C64.6936 31.2047 66.1784 29.0609 67.6462 26.902C67.8172 26.9875 67.9883 27.0731 68.1645 27.1612C68.6736 27.0814 69.1788 26.9772 69.6811 26.8625C70.1591 26.7543 70.1591 26.7543 70.6468 26.6439C70.9965 26.5626 71.3462 26.4813 71.6959 26.3998C72.0537 26.3179 72.4115 26.236 72.7693 26.1543C75.8179 25.453 78.8529 24.6971 81.8826 23.9189C82.2135 23.8345 82.5444 23.7502 82.8853 23.6632C83.1776 23.5879 83.4698 23.5126 83.7709 23.435C84.493 23.2734 84.493 23.2734 85.2706 23.2734Z" fill="#F3F4FE"/>
<path d="M81.6425 4.35352C81.6425 5.48197 80.9677 6.09288 80.298 6.94535C79.0943 8.51044 77.9508 10.1028 76.8476 11.7402C75.6866 13.4589 74.4817 15.13 73.2241 16.7791C72.2278 18.0945 71.2919 19.4446 70.368 20.8116C69.2067 22.5302 68.0021 24.2014 66.7445 25.8505C65.7482 27.1659 64.8123 28.516 63.8885 29.883C62.7271 31.6016 61.5225 33.2728 60.265 34.9219C59.1163 36.4384 58.0502 38.0052 56.9855 39.5812C55.9356 41.1276 54.8332 42.625 53.7011 44.1118C52.5801 45.5904 51.5451 47.1138 50.5406 48.6738C49.5532 48.3047 48.663 47.8498 47.7493 47.3252C47.4577 47.1583 47.1662 46.9914 46.8658 46.8194C46.5518 46.6384 46.2378 46.4574 45.9239 46.2764C45.5998 46.0902 45.2757 45.9042 44.9515 45.7181C41.0076 43.4522 37.0706 41.1734 33.1753 38.8248C33.4901 37.8804 33.7714 37.7431 34.5816 37.1918C34.823 37.0259 35.0643 36.86 35.313 36.6891C35.5752 36.5119 35.8373 36.3346 36.1073 36.152C36.6571 35.7752 37.2069 35.3982 37.7566 35.0211C38.0334 34.8322 38.3102 34.6432 38.5955 34.4485C39.7323 33.6698 40.8602 32.8785 41.9875 32.0861C43.8421 30.786 45.7002 29.491 47.5599 28.1983C50.0732 26.4513 52.5822 24.6981 55.0888 22.9415C56.1643 22.188 57.2402 21.4351 58.316 20.682C58.748 20.3797 59.18 20.0773 59.612 19.7749C66.9555 14.6344 74.299 9.49398 81.6425 4.35352Z" fill="white"/>
<path d="M77.4954 3.83446C73.6543 5.70695 69.8117 7.57262 65.9293 9.35829C62.8595 10.7713 59.8214 12.2441 56.7858 13.7289C53.9135 15.1332 51.029 16.5025 48.1237 17.8374C45.5853 19.0088 43.073 20.2306 40.5618 21.4589C37.4501 22.9809 34.3304 24.4769 31.1805 25.9188C29.5482 26.6687 27.9304 27.4419 26.3219 28.2412C25.9513 28.4244 25.5807 28.6076 25.2101 28.7908C24.4968 29.1435 23.786 29.5009 23.0762 29.8608C22.7523 30.0213 22.4282 30.1818 22.1041 30.342C21.8205 30.4848 21.5369 30.6276 21.2446 30.7747C20.3762 31.0839 20.0397 31.0907 19.1792 30.7895C18.6776 30.5421 18.1858 30.2745 17.7021 29.9937C17.4132 29.8273 17.1242 29.6608 16.8266 29.4893C16.5146 29.3072 16.2027 29.125 15.8908 28.9428C15.5685 28.7562 15.2462 28.5699 14.9237 28.3836C14.2564 27.9979 13.5898 27.6113 12.9235 27.2238C11.9568 26.662 10.9876 26.1045 10.0177 25.5481C9.42133 25.2057 8.82503 24.8631 8.22873 24.5205C7.9532 24.3623 7.67767 24.204 7.39379 24.041C5.94751 23.207 4.51915 22.354 3.10986 21.4589C3.9725 20.9789 4.82369 20.7387 5.77965 20.5001C6.10908 20.4176 6.4385 20.3351 6.77791 20.2501C7.1373 20.1616 7.49672 20.0731 7.85615 19.9848C8.23008 19.892 8.604 19.7992 8.97793 19.7064C11.7951 19.0106 14.6224 18.3673 17.4553 17.7385C19.8547 17.2025 22.2393 16.6209 24.622 16.0161C27.6665 15.2433 30.7189 14.5309 33.7856 13.8505C36.1844 13.3144 38.5683 12.733 40.9506 12.1283C43.995 11.3556 47.0474 10.6432 50.1141 9.96272C52.6875 9.38768 55.2435 8.75727 57.7991 8.10858C60.689 7.37606 63.5886 6.70489 66.4996 6.0613C68.1896 5.68517 69.8731 5.29285 71.5504 4.8641C71.7192 4.82105 71.888 4.77801 72.062 4.73365C72.8682 4.52745 73.6736 4.31821 74.4781 4.10522C74.9032 3.99525 74.9032 3.99525 75.3369 3.88305C75.7101 3.78433 75.7101 3.78433 76.0909 3.6836C76.7178 3.57527 76.7178 3.57527 77.4954 3.83446Z" fill="white"/>
<path d="M74.9035 6.68555C75.16 6.81384 75.16 6.81384 75.4218 6.94473C70.9925 10.0774 66.5478 13.1875 62.0932 16.284C59.8329 17.8557 57.5772 19.4338 55.3226 21.0138C54.2471 21.7673 53.1712 22.5202 52.0954 23.2733C51.6634 23.5756 51.2314 23.878 50.7994 24.1804C49.9355 24.7852 49.0716 25.3899 48.2076 25.9947C47.9939 26.1443 47.7801 26.294 47.5598 26.4481C47.1273 26.7509 46.6946 27.0537 46.262 27.3565C45.1916 28.1058 44.1213 28.8552 43.0513 29.605C40.6955 31.2557 38.3377 32.9034 35.9774 34.5477C35.7328 34.7184 35.4881 34.8891 35.236 35.0649C35.0012 35.2284 34.7665 35.3918 34.5246 35.5601C34.2983 35.7186 34.072 35.877 33.8388 36.0402C33.4054 36.3349 32.965 36.62 32.5177 36.8934C31.1566 37.7311 30.441 38.4217 29.8218 39.8934C29.6551 40.256 29.488 40.6184 29.3207 40.9807C29.2338 41.1739 29.147 41.3671 29.0576 41.5662C28.5172 42.7408 27.926 43.8905 27.3434 45.0446C27.1191 45.4927 26.895 45.9409 26.6711 46.3891C26.5064 46.7185 26.3418 47.0479 26.1771 47.3773C26.006 47.3773 25.8349 47.3773 25.6587 47.3773C25.0767 45.57 24.4957 43.7623 23.9154 41.9544C23.7181 41.34 23.5205 40.7256 23.3226 40.1113C23.0376 39.2262 22.7535 38.3408 22.4695 37.4554C22.3815 37.1827 22.2935 36.9099 22.2028 36.6289C21.7485 35.2095 21.3349 33.7954 20.9934 32.3447C24.8345 30.4722 28.6771 28.6065 32.5594 26.8208C35.6291 25.4079 38.667 23.9352 41.7024 22.4505C44.5871 21.0402 47.4839 19.6646 50.4016 18.3235C52.84 17.1985 55.2549 16.0283 57.6678 14.8498C60.7451 13.347 63.8326 11.8725 66.9441 10.4415C68.3358 9.80128 69.723 9.1544 71.1008 8.48464C71.4827 8.29943 71.4827 8.29943 71.8724 8.11048C72.3466 7.8796 72.8201 7.64704 73.2925 7.41254C73.4987 7.31229 73.7049 7.21203 73.9173 7.10874C74.0965 7.02025 74.2756 6.93175 74.4601 6.84058C74.6064 6.78942 74.7527 6.73826 74.9035 6.68555Z" fill="#CCFE41"/>
<path d="M31.62 39.8613C32.6025 40.237 33.5347 40.6782 34.471 41.1572C34.1598 42.0908 33.8494 42.2829 33.0779 42.8743C32.0516 43.6722 31.037 44.4792 30.0325 45.3042C29.7912 45.502 29.55 45.6997 29.3015 45.9035C29.1258 46.0479 28.95 46.1922 28.7689 46.3409C28.6834 46.1698 28.5979 45.9988 28.5098 45.8225C28.7379 45.2444 28.7379 45.2444 29.099 44.5337C29.2914 44.1521 29.2914 44.1521 29.4878 43.7627C29.6248 43.4963 29.7617 43.2298 29.9029 42.9553C30.0379 42.6879 30.1728 42.4204 30.3119 42.1449C31.3173 40.164 31.3173 40.164 31.62 39.8613Z" fill="white"/>
</svg>
