<svg width="239" height="240" viewBox="0 0 239 240" fill="none" xmlns="http://www.w3.org/2000/svg">
<path d="M16.4659 60.4789C17.6828 61.3233 18.4858 62.1902 19.1478 63.5143C19.2736 65.0239 19.2967 65.8591 18.6489 67.2357C16.4975 69.656 13.6954 70.5908 10.5277 70.939C7.46563 71.0602 4.21318 70.4864 1.78796 68.5039C0.645586 67.4396 0.087202 66.3257 0 64.7617C0.0433418 63.1174 0.673474 62.2478 1.80356 61.0948C5.87266 57.8128 12.0179 58.1607 16.4659 60.4789Z" fill="#030712"/>
<path d="M16.4659 60.4789C17.6828 61.3233 18.4858 62.1902 19.1478 63.5143C19.2736 65.0239 19.2967 65.8591 18.6489 67.2357C16.4975 69.656 13.6954 70.5908 10.5277 70.939C7.46563 71.0602 4.21318 70.4864 1.78796 68.5039C0.645586 67.4396 0.087202 66.3257 0 64.7617C0.0433418 63.1174 0.673474 62.2478 1.80356 61.0948C5.87266 57.8128 12.0179 58.1607 16.4659 60.4789ZM2.80669 62.9737C2.12953 63.8104 2.12953 63.8104 1.9335 64.824C2.31128 66.3667 3.19614 67.0114 4.51149 67.8386C7.08525 69.173 10.0711 69.2286 12.8614 68.6066C14.837 67.9702 16.084 67.3146 17.152 65.5101C17.4846 64.6785 17.4846 64.6785 17.152 63.8469C15.6895 62.0118 13.76 61.2345 11.497 60.8531C8.17404 60.5224 5.49415 60.9312 2.80669 62.9737Z" fill="#64748B"/>
<path d="M113.181 200.982C114.93 201.208 116.3 202.354 117.749 203.312C119.116 204.236 119.116 204.236 120.686 204.292C120.951 204.12 121.215 203.948 121.487 203.771C121.857 203.554 122.228 203.336 122.61 203.112C123.217 202.744 123.823 202.373 124.424 201.994C125.396 201.411 125.974 201.095 127.121 201.197C127.461 201.318 127.461 201.318 127.807 201.442C127.786 202.186 127.786 202.186 127.474 203.106C126.694 203.656 125.987 204.089 125.146 204.519C124.716 204.75 124.286 204.98 123.857 205.211C123.514 205.394 123.171 205.578 122.817 205.767C122.708 205.877 122.598 205.986 122.485 206.099C124.241 207.087 125.998 208.075 127.807 209.093C127.807 209.642 127.807 210.191 127.807 210.756C125.524 210.6 124.149 209.694 122.295 208.419C121.07 207.593 121.07 207.593 119.65 207.587C119.378 207.755 119.106 207.923 118.826 208.095C118.455 208.309 118.085 208.522 117.703 208.742C117.096 209.105 116.491 209.471 115.889 209.843C114.711 210.542 113.883 210.918 112.505 210.756C112.396 210.317 112.286 209.878 112.173 209.426C113.911 208.243 115.655 207.117 117.495 206.099C116.168 204.95 114.742 204.128 113.207 203.293C112.505 202.773 112.505 202.773 112.22 202.066C112.204 201.86 112.189 201.654 112.173 201.442C112.505 201.11 112.505 201.11 113.181 200.982Z" fill="#64748B"/>
<path d="M218.034 95.3488C218.251 95.3477 218.467 95.3465 218.69 95.3454C219.408 95.3422 220.127 95.3416 220.846 95.3412C221.343 95.3401 221.841 95.339 222.338 95.3379C223.383 95.3359 224.427 95.3353 225.472 95.3354C226.812 95.3355 228.153 95.3309 229.493 95.3252C230.521 95.3215 231.55 95.3208 232.578 95.321C233.072 95.3206 233.566 95.3191 234.061 95.3166C234.751 95.3133 235.442 95.3143 236.132 95.3163C236.526 95.3158 236.919 95.3153 237.324 95.3148C238.248 95.3971 238.248 95.3971 238.914 96.0624C238.735 97.2385 238.735 97.2385 238.248 97.7256C237.558 97.7604 236.866 97.7717 236.175 97.7739C235.959 97.775 235.743 97.7762 235.52 97.7773C234.801 97.7805 234.083 97.7811 233.364 97.7815C232.866 97.7825 232.369 97.7837 231.871 97.7848C230.827 97.7868 229.782 97.7874 228.738 97.7872C227.397 97.7872 226.057 97.7917 224.716 97.7975C223.688 97.8012 222.66 97.8018 221.632 97.8017C221.137 97.8021 220.643 97.8035 220.149 97.8061C219.458 97.8094 218.768 97.8084 218.077 97.8064C217.487 97.8071 217.487 97.8071 216.885 97.8078C215.961 97.7256 215.961 97.7256 215.296 97.0603C215.582 95.1752 216.248 95.3545 218.034 95.3488Z" fill="#64748B"/>
<path d="M177.155 158.65C177.4 158.759 177.646 158.867 177.899 158.979C180.167 159.956 182.405 160.73 184.805 161.312C184.805 161.97 184.805 162.629 184.805 163.307C183.58 164.019 182.355 164.73 181.129 165.439C180.711 165.681 180.294 165.923 179.877 166.165C179.279 166.513 178.68 166.859 178.081 167.206C177.721 167.415 177.36 167.624 176.988 167.839C176.157 168.297 176.157 168.297 175.824 168.297C175.785 167.251 175.762 166.205 175.741 165.158C175.73 164.866 175.719 164.573 175.707 164.272C175.675 162.108 176.124 160.55 177.155 158.65Z" fill="#030712"/>
<path d="M53.6398 69.5664C54.1887 69.6762 54.7375 69.786 55.303 69.8991C55.4237 71.3873 55.4237 71.3873 54.8872 72.1652C54.3051 72.5602 54.3051 72.5602 52.9745 72.5602C53.1426 72.7935 53.3107 73.0267 53.4839 73.2671C54.8197 75.2178 55.6934 76.4945 55.303 78.8804C54.5916 79.5918 54.2609 79.6876 53.3071 79.8784C53.6634 80.8879 54.0284 81.6156 54.6793 82.4772C55.5027 83.877 55.4898 84.5973 55.303 86.1986C54.3051 86.8639 54.3051 86.8639 52.9745 86.8639C52.8647 87.303 52.755 87.7421 52.6419 88.1945C52.2028 88.0847 51.7637 87.9749 51.3113 87.8618C51.0826 87.0926 51.0826 87.0926 50.9786 86.1986C51.5818 85.3542 51.9715 85.2024 52.9745 84.868C52.6063 83.8554 52.172 82.9705 51.6023 82.0614C50.9633 80.9627 50.7741 80.166 50.9786 78.8804C51.3944 78.2567 51.3944 78.2567 51.9766 77.8825C52.4157 77.8825 52.8547 77.8825 53.3071 77.8825C52.6755 76.5698 52.6755 76.5698 51.935 75.3175C51.2219 74.2231 50.9778 73.6095 50.9994 72.2899C51.3113 71.2296 51.3113 71.2296 52.3092 70.5643C52.6385 70.5643 52.9678 70.5643 53.3071 70.5643C53.4169 70.235 53.5267 69.9057 53.6398 69.5664Z" fill="#64748B"/>
<path d="M206.893 105.336C207.3 105.337 207.707 105.337 208.127 105.338C208.463 105.338 208.463 105.338 208.805 105.338C209.549 105.338 210.292 105.341 211.035 105.343C211.55 105.344 212.064 105.345 212.578 105.345C213.933 105.346 215.289 105.349 216.645 105.353C218.027 105.356 219.41 105.358 220.792 105.36C223.506 105.363 226.22 105.369 228.935 105.376C228.949 105.93 228.948 106.485 228.935 107.039C228.602 107.372 228.602 107.372 227.703 107.412C227.302 107.411 226.901 107.41 226.488 107.41C226.267 107.41 226.046 107.41 225.819 107.41C225.086 107.409 224.354 107.407 223.621 107.404C223.115 107.404 222.608 107.403 222.101 107.403C220.765 107.402 219.429 107.398 218.093 107.395C216.731 107.391 215.369 107.39 214.006 107.388C211.332 107.384 208.657 107.379 205.982 107.372C205.855 106.821 205.745 106.266 205.649 105.709C205.982 105.376 205.982 105.376 206.893 105.336Z" fill="#64748B"/>
<path d="M213.895 150.865C214.67 150.907 214.67 150.907 215.559 151.198C216.073 152.092 216.073 152.092 216.473 153.194C216.858 154.451 216.858 154.451 217.554 155.522C218.762 153.985 219.969 152.449 221.214 150.865C222.037 151.03 222.037 151.03 222.877 151.198C222.698 152.464 222.4 153.19 221.577 154.164C221.385 154.396 221.192 154.628 220.994 154.867C220.792 155.104 220.59 155.341 220.382 155.585C219.983 156.06 219.584 156.536 219.186 157.013C219.009 157.222 218.832 157.43 218.649 157.646C218.194 158.178 218.194 158.178 217.887 158.849C217.338 158.849 216.789 158.849 216.224 158.849C215.767 157.77 215.319 156.688 214.873 155.605C214.743 155.299 214.613 154.993 214.479 154.678C214.358 154.382 214.237 154.086 214.112 153.781C213.999 153.509 213.886 153.238 213.769 152.958C213.541 152.115 213.607 151.679 213.895 150.865Z" fill="#64748B"/>
<path d="M62.4176 178.383C62.29 180.048 61.4253 180.905 60.2918 182.028C60.1117 182.21 59.9315 182.392 59.7459 182.58C59.365 182.963 58.9824 183.345 58.5982 183.725C58.0114 184.307 57.4331 184.897 56.8549 185.488C56.4834 185.859 56.1113 186.231 55.7388 186.602C55.5665 186.778 55.3942 186.955 55.2167 187.137C54.4139 187.92 53.947 188.342 52.8142 188.472C52.5804 188.436 52.3465 188.4 52.1057 188.362C51.9934 187.654 51.9934 187.654 52.1057 186.699C52.6842 185.972 53.2358 185.367 53.9014 184.729C54.0844 184.548 54.2674 184.366 54.456 184.18C55.0409 183.602 55.6315 183.03 56.2221 182.458C56.6175 182.068 57.0125 181.678 57.4072 181.287C60.8386 177.909 60.8386 177.909 62.4176 178.383Z" fill="#64748B"/>
<path d="M61.8793 166.462C62.0573 166.554 62.2354 166.646 62.4189 166.741C62.3002 168.444 61.3635 169.325 60.2086 170.47C60.0203 170.66 59.832 170.851 59.6379 171.047C59.24 171.447 58.8403 171.846 58.4391 172.243C57.8246 172.853 57.2184 173.47 56.6126 174.089C56.2248 174.477 55.8365 174.865 55.4477 175.252C55.2664 175.437 55.0851 175.623 54.8984 175.814C54.3772 176.323 54.3772 176.323 53.4375 177.053C52.6466 176.999 52.6466 176.999 52.1069 176.72C52.2256 175.017 53.1623 174.135 54.3172 172.991C54.5055 172.8 54.6939 172.61 54.8879 172.414C55.2859 172.013 55.6855 171.615 56.0867 171.218C56.7013 170.608 57.3074 169.99 57.9133 169.372C58.3011 168.984 58.6894 168.596 59.0782 168.209C59.2594 168.023 59.4407 167.838 59.6275 167.646C60.909 166.396 60.909 166.396 61.8793 166.462Z" fill="#64748B"/>
<path d="M61.8793 154.821C62.0573 154.913 62.2354 155.005 62.4189 155.1C62.3002 156.803 61.3635 157.685 60.2086 158.829C60.0203 159.02 59.832 159.21 59.6379 159.406C59.24 159.807 58.8403 160.205 58.4391 160.602C57.8246 161.212 57.2184 161.83 56.6126 162.448C56.2248 162.836 55.8365 163.224 55.4477 163.611C55.2664 163.797 55.0851 163.982 54.8984 164.174C54.3772 164.682 54.3772 164.682 53.4375 165.412C52.6466 165.358 52.6466 165.358 52.1069 165.079C52.2256 163.376 53.1623 162.495 54.3172 161.35C54.5055 161.16 54.6939 160.969 54.8879 160.773C55.2859 160.373 55.6855 159.974 56.0867 159.577C56.7013 158.967 57.3074 158.35 57.9133 157.731C58.3011 157.343 58.6894 156.956 59.0782 156.568C59.2594 156.383 59.4407 156.197 59.6275 156.006C60.909 154.755 60.909 154.755 61.8793 154.821Z" fill="#64748B"/>
<path d="M88.0045 187.922C88.6076 187.969 89.2105 188.017 89.8133 188.067C90.3169 188.108 90.3169 188.108 90.8307 188.149C91.6636 188.255 91.6636 188.255 91.9963 188.587C92.0098 189.141 92.0105 189.696 91.9963 190.25C91.4628 190.268 90.9291 190.281 90.3954 190.292C90.0982 190.3 89.8011 190.307 89.4949 190.315C88.6698 190.25 88.6698 190.25 87.6719 189.585C87.7816 189.036 87.8914 188.487 88.0045 187.922Z" fill="#64748B"/>
<path d="M104.637 190.584C105.255 190.614 105.872 190.666 106.488 190.73C106.993 190.78 106.993 190.78 107.508 190.832C107.898 190.874 107.898 190.874 108.296 190.917C108.424 191.468 108.534 192.023 108.629 192.58C108.519 192.69 108.41 192.799 108.296 192.912C107.678 192.883 107.061 192.831 106.446 192.767C105.941 192.716 105.941 192.716 105.426 192.664C105.036 192.623 105.036 192.623 104.637 192.58C104.51 192.029 104.4 191.474 104.305 190.917C104.414 190.807 104.524 190.697 104.637 190.584Z" fill="#64748B"/>
<path d="M105.428 185.345C105.606 185.427 105.785 185.509 105.969 185.594C105.969 186.143 105.969 186.692 105.969 187.258C103.84 188.609 103.84 188.609 102.829 188.505C102.658 188.423 102.486 188.34 102.31 188.255C102.351 187.507 102.351 187.507 102.642 186.592C104.264 185.222 104.264 185.222 105.428 185.345Z" fill="#64748B"/>
<path d="M93.4723 192.498C93.7296 192.703 93.7296 192.703 93.9921 192.913C93.9505 193.496 93.9505 193.496 93.6595 194.244C92.7239 195.013 92.7239 195.013 91.6636 195.575C90.8736 195.491 90.8736 195.491 90.333 195.242C90.333 194.693 90.333 194.144 90.333 193.579C92.4619 192.187 92.4619 192.187 93.4723 192.498Z" fill="#64748B"/>
<path d="M99.3146 193.578C100.105 193.661 100.105 193.661 100.978 193.911C101.435 194.493 101.435 194.493 101.643 195.241C101.518 196.156 101.518 196.156 101.31 196.905C100.52 196.842 100.52 196.842 99.6472 196.572C99.1162 195.679 98.9396 195.17 99.1067 194.139C99.1753 193.954 99.2439 193.769 99.3146 193.578Z" fill="#64748B"/>
<path d="M94.9908 183.932C95.4299 183.932 95.869 183.932 96.3214 183.932C97.3449 185.733 97.3449 185.733 97.2154 186.718C97.1399 186.896 97.0645 187.074 96.9867 187.258C96.1967 187.175 96.1967 187.175 95.3235 186.925C94.8661 186.343 94.8661 186.343 94.6582 185.595C94.7829 184.68 94.7829 184.68 94.9908 183.932Z" fill="#64748B"/>
<path d="M211.89 193.681C210.537 192.889 209.178 192.112 207.804 191.357L163.714 165.985C163.52 165.86 163.325 165.737 163.129 165.616L162.8 165.415C162.141 165.006 161.472 164.617 160.799 164.231C160.491 164.055 160.183 163.878 159.875 163.701L159.402 163.429C158.631 162.986 157.861 162.543 157.09 162.099L156.187 161.579L155.734 161.318L135.803 149.842L134.897 149.321L134.703 149.209C134.011 148.81 133.32 148.412 132.628 148.014C131.156 147.168 129.683 146.321 128.217 145.465C126.871 144.679 125.52 143.901 124.165 143.131C123.086 142.517 122.008 141.9 120.935 141.275C119.355 140.353 117.772 139.434 116.185 138.523L116.104 138.477C115.734 138.265 115.365 138.053 114.996 137.84C112.739 136.537 110.234 134.566 107.583 134.33L107.214 134.332C106.476 134.328 105.888 134.508 105.236 134.853L104.838 135.092L104.397 135.355C104.118 135.522 103.839 135.687 103.559 135.852L103.174 136.076L102.782 136.305L102.379 136.541C101.643 136.971 100.908 137.401 100.163 137.816L99.7207 138.06C99.4368 138.218 99.1528 138.375 98.8687 138.531C97.9115 139.048 97.0694 139.584 96.2902 140.348C95.0834 141.754 95.0834 141.754 95.1077 146.206L95.1077 146.206C95.1099 146.565 95.1111 146.924 95.1114 147.283C95.1113 148.133 95.1123 148.983 95.1164 149.833C95.1208 150.711 95.1237 151.589 95.1235 152.467C95.1234 153.23 95.1238 153.994 95.1256 154.757L95.1284 155.851C95.1287 156.373 95.1292 156.894 95.1319 157.415L95.1347 157.896C95.1337 159.05 95.2422 160.1 95.5258 161.219C96.5986 165.168 98.9621 168.484 102.497 170.584L102.919 170.829C103.385 171.104 103.852 171.378 104.319 171.651L104.792 171.925C105.695 172.449 106.599 172.971 107.505 173.49C108.262 173.923 109.019 174.358 109.775 174.794L110.681 175.315L111.134 175.576L138.312 191.225L139.218 191.747L139.412 191.859C140.104 192.257 140.795 192.655 141.487 193.053C142.96 193.9 144.432 194.746 145.899 195.602C147.245 196.388 148.595 197.166 149.95 197.937C151.167 198.629 152.382 199.326 153.591 200.032C155.042 200.88 156.498 201.72 157.954 202.557C158.713 202.993 159.471 203.43 160.23 203.867L161.135 204.388L161.588 204.649L192.39 222.384L193.296 222.906C194.052 223.342 194.809 223.777 195.565 224.212C197.038 225.059 198.51 225.905 199.977 226.761C201.323 227.547 202.673 228.326 204.028 229.096C205.123 229.718 206.215 230.344 207.301 230.98C209.204 232.094 211.173 233.486 213.283 234.172C214.301 234.371 215.444 234.408 216.375 233.911L216.78 233.669L217.229 233.402C217.52 233.229 217.811 233.058 218.104 232.888C218.528 232.645 218.952 232.4 219.377 232.156C220.187 231.688 220.996 231.217 221.815 230.762C222.065 230.623 222.315 230.484 222.565 230.345C222.806 230.209 223.047 230.074 223.288 229.939C223.979 229.563 224.664 229.21 225.242 228.67C226.408 227.374 226.775 225.875 226.782 224.163L226.78 223.72C226.781 223.221 226.781 222.722 226.78 222.224C226.779 221.868 226.778 221.511 226.778 221.155C226.778 220.315 226.778 219.475 226.776 218.635C226.773 217.764 226.772 216.894 226.772 216.023C226.772 215.268 226.772 214.513 226.771 213.758L226.77 212.677C226.769 212.159 226.769 211.642 226.768 211.125L226.766 210.65C226.767 209.587 226.727 208.597 226.48 207.557C225.39 203.573 223.021 200.165 219.438 198.033L219.019 197.789C217.661 196.987 216.294 196.202 214.922 195.424C213.908 194.848 212.897 194.27 211.89 193.681Z" fill="#64748B"/>
<path d="M101.426 140.56C102.523 141.112 103.576 141.746 104.634 142.367C104.909 142.527 105.183 142.686 105.458 142.845C106.013 143.167 106.568 143.49 107.122 143.814C108.461 144.595 109.806 145.365 111.15 146.137C111.908 146.572 112.664 147.007 113.421 147.443C113.724 147.617 114.026 147.79 114.328 147.964C126.114 154.743 126.114 154.743 137.9 161.522C138.05 161.608 138.199 161.694 138.353 161.783C138.655 161.956 138.957 162.13 139.259 162.304C140.018 162.74 140.777 163.177 141.536 163.613C142.994 164.45 144.45 165.29 145.903 166.137C147.113 166.843 148.328 167.539 149.547 168.231C150.902 169.002 152.254 169.78 153.601 170.565C155.069 171.421 156.542 172.267 158.015 173.113C158.773 173.548 159.529 173.984 160.286 174.419C160.589 174.593 160.891 174.767 161.193 174.941C169.05 179.46 176.908 183.979 184.765 188.499C184.915 188.585 185.064 188.671 185.218 188.759C185.52 188.933 185.822 189.107 186.124 189.28C186.883 189.717 187.642 190.153 188.401 190.589C189.859 191.427 191.315 192.266 192.768 193.113C193.978 193.819 195.193 194.516 196.412 195.208C197.767 195.978 199.119 196.756 200.466 197.542C201.932 198.397 203.404 199.242 204.876 200.087C205.344 200.356 205.812 200.625 206.28 200.894C206.435 200.983 206.59 201.072 206.749 201.164C207.055 201.34 207.362 201.517 207.668 201.693C208.356 202.09 209.045 202.485 209.737 202.875C210.841 203.5 211.908 204.109 212.87 204.942C212.96 205.012 213.05 205.081 213.142 205.153C215.061 206.697 216.35 209.072 217.194 211.338C217.243 211.46 217.293 211.582 217.344 211.708C217.963 213.479 217.832 215.342 217.826 217.193C217.826 217.573 217.827 217.953 217.828 218.333C217.829 219.127 217.827 219.921 217.825 220.715C217.822 221.628 217.823 222.542 217.826 223.456C217.828 224.245 217.828 225.035 217.827 225.824C217.826 226.293 217.826 226.763 217.828 227.232C217.829 227.755 217.827 228.279 217.824 228.802C217.825 228.955 217.826 229.107 217.827 229.265C217.812 230.709 217.454 231.868 216.48 232.953C215.892 233.439 215.325 233.489 214.579 233.491C214.418 233.494 214.258 233.496 214.093 233.498C212.795 233.373 211.753 232.756 210.638 232.118C210.484 232.031 210.329 231.943 210.17 231.853C209.136 231.267 208.109 230.67 207.086 230.065C206.301 229.602 205.51 229.148 204.719 228.694C204.488 228.561 204.488 228.561 204.251 228.425C203.935 228.243 203.618 228.061 203.301 227.879C202.539 227.442 201.776 227.003 201.014 226.565C200.712 226.391 200.41 226.217 200.108 226.043C195.877 223.61 191.646 221.176 187.415 218.743C187.265 218.657 187.116 218.571 186.962 218.482C186.66 218.308 186.358 218.135 186.056 217.961C185.297 217.524 184.538 217.088 183.779 216.652C182.321 215.815 180.865 214.975 179.412 214.128C178.202 213.422 176.987 212.726 175.769 212.033C174.413 211.263 173.061 210.485 171.714 209.7C170.246 208.844 168.773 207.998 167.3 207.151C166.543 206.716 165.786 206.281 165.029 205.846C164.726 205.672 164.424 205.498 164.122 205.324C153.847 199.414 143.572 193.504 133.297 187.595C133.148 187.509 132.998 187.423 132.844 187.334C132.542 187.16 132.24 186.986 131.938 186.813C131.179 186.376 130.42 185.94 129.661 185.504C128.203 184.667 126.747 183.827 125.295 182.98C124.084 182.274 122.869 181.577 121.651 180.885C120.295 180.115 118.944 179.337 117.596 178.551C116.129 177.696 114.655 176.849 113.182 176.003C112.425 175.568 111.668 175.133 110.911 174.697C110.609 174.524 110.306 174.35 110.004 174.176C109.098 173.654 109.098 173.654 108.191 173.133C108.041 173.047 107.891 172.961 107.737 172.872C107.436 172.699 107.136 172.526 106.836 172.353C106.138 171.951 105.44 171.55 104.738 171.156C104.492 171.019 104.247 170.88 104.002 170.742C103.697 170.569 103.391 170.398 103.084 170.228C99.592 168.249 97.4538 165.122 96.2273 161.374C95.9667 160.414 95.9642 159.486 95.9618 158.498C95.9609 158.331 95.96 158.163 95.959 157.991C95.9563 157.438 95.9546 156.884 95.9533 156.331C95.9527 156.14 95.9521 155.949 95.9515 155.758C95.9489 154.859 95.9469 153.961 95.9457 153.063C95.9444 152.029 95.9407 150.995 95.9351 149.962C95.9308 149.16 95.9288 148.359 95.9283 147.558C95.928 147.08 95.9268 146.603 95.9232 146.125C95.9198 145.592 95.92 145.058 95.9209 144.525C95.9192 144.368 95.9174 144.212 95.9155 144.051C95.9232 142.892 96.1215 141.904 96.8757 140.994C98.3863 139.775 99.682 139.787 101.426 140.56Z" fill="#030712"/>
<path d="M111.072 136.545C111.206 136.619 111.339 136.693 111.477 136.769C112.453 137.313 113.419 137.874 114.379 138.446C115.168 138.915 115.963 139.373 116.758 139.831C116.912 139.92 117.066 140.009 117.225 140.101C117.541 140.283 117.858 140.466 118.174 140.648C118.936 141.088 119.697 141.527 120.458 141.967C120.76 142.142 121.062 142.316 121.363 142.49C125.891 145.106 125.891 145.106 130.419 147.721C130.568 147.808 130.717 147.894 130.871 147.983C131.173 148.157 131.475 148.331 131.776 148.506C132.534 148.944 133.292 149.381 134.05 149.819C135.506 150.659 136.961 151.501 138.411 152.351C139.62 153.059 140.834 153.758 142.051 154.452C143.405 155.225 144.755 156.005 146.1 156.793C147.566 157.652 149.038 158.501 150.509 159.349C151.266 159.786 152.022 160.223 152.778 160.659C153.079 160.834 153.381 161.008 153.683 161.183C162.738 166.414 171.793 171.645 180.848 176.875C180.998 176.962 181.147 177.048 181.301 177.137C181.603 177.311 181.904 177.486 182.206 177.66C182.964 178.098 183.722 178.535 184.48 178.973C185.936 179.813 187.391 180.655 188.841 181.505C190.05 182.213 191.264 182.912 192.481 183.606C193.835 184.379 195.185 185.159 196.53 185.947C197.996 186.806 199.468 187.655 200.939 188.504C201.695 188.94 202.451 189.377 203.207 189.813C203.509 189.988 203.811 190.162 204.113 190.337C207.131 192.08 210.15 193.824 213.168 195.568C213.318 195.654 213.467 195.74 213.621 195.829C213.922 196.003 214.222 196.176 214.522 196.35C215.219 196.754 215.917 197.156 216.617 197.554C216.862 197.694 217.107 197.833 217.352 197.973C217.657 198.147 217.962 198.321 218.268 198.494C221.987 200.622 224.444 203.76 225.636 207.878C225.887 208.889 225.956 209.851 225.953 210.89C225.954 211.045 225.955 211.201 225.955 211.361C225.957 211.87 225.957 212.38 225.957 212.89C225.957 213.247 225.958 213.603 225.959 213.96C225.96 214.707 225.96 215.453 225.959 216.199C225.958 217.058 225.96 217.917 225.963 218.776C225.965 219.607 225.966 220.438 225.965 221.269C225.965 221.62 225.966 221.972 225.968 222.323C225.969 222.816 225.968 223.308 225.967 223.801C225.968 223.944 225.969 224.087 225.97 224.234C225.961 225.532 225.81 226.948 224.94 227.965C224.112 228.75 223.188 229.282 222.197 229.839C221.886 230.016 221.575 230.193 221.264 230.371C221.112 230.457 220.96 230.542 220.803 230.631C220.197 230.977 219.597 231.335 218.998 231.694C218.671 231.871 218.671 231.871 218.392 231.871C218.516 230.964 218.516 230.964 218.605 230.554C218.669 230.204 218.689 229.887 218.689 229.532C218.69 229.402 218.691 229.272 218.691 229.139C218.691 228.998 218.691 228.857 218.691 228.712C218.691 228.563 218.692 228.413 218.692 228.259C218.694 227.764 218.694 227.27 218.694 226.775C218.695 226.43 218.695 226.085 218.696 225.74C218.696 225.016 218.697 224.293 218.697 223.569C218.697 222.645 218.698 221.721 218.701 220.797C218.702 220.084 218.703 219.371 218.703 218.658C218.703 218.318 218.703 217.978 218.704 217.637C218.726 215.184 218.726 215.184 218.392 212.76C218.364 212.62 218.336 212.479 218.307 212.335C217.592 208.902 215.285 205.427 212.367 203.501C211.247 202.803 210.087 202.169 208.936 201.524C208.098 201.053 207.267 200.57 206.438 200.084C204.821 199.136 203.199 198.198 201.575 197.261C200.819 196.825 200.063 196.388 199.307 195.951C199.005 195.777 198.703 195.602 198.401 195.428C189.346 190.197 180.291 184.966 171.236 179.735C171.087 179.649 170.937 179.562 170.783 179.474C170.482 179.299 170.18 179.125 169.878 178.951C169.12 178.513 168.362 178.075 167.604 177.638C166.148 176.798 164.694 175.955 163.243 175.106C161.952 174.349 160.654 173.604 159.354 172.862C158.09 172.141 156.831 171.41 155.575 170.674C154.507 170.048 153.434 169.433 152.36 168.82C151.005 168.047 149.656 167.267 148.31 166.479C146.844 165.62 145.373 164.771 143.901 163.922C143.145 163.486 142.389 163.049 141.633 162.612C141.331 162.438 141.029 162.264 140.727 162.089C134.087 158.253 127.447 154.417 120.806 150.581C120.657 150.495 120.507 150.408 120.353 150.319C120.052 150.145 119.75 149.971 119.449 149.797C118.691 149.359 117.933 148.921 117.174 148.484C115.718 147.644 114.264 146.801 112.813 145.952C111.523 145.196 110.226 144.451 108.926 143.709C107.757 143.042 106.592 142.368 105.43 141.688C105.292 141.608 105.153 141.527 105.011 141.444C104.44 141.111 103.871 140.778 103.308 140.432C102.227 139.776 101.206 139.391 99.9795 139.108C100.351 138.681 100.793 138.442 101.282 138.165C101.367 138.116 101.452 138.068 101.54 138.018C101.812 137.863 102.084 137.709 102.356 137.556C102.54 137.451 102.724 137.347 102.907 137.243C104.767 136.186 104.767 136.186 106.109 136.318C107.37 136.689 108.495 137.303 109.618 137.974C109.855 138.114 110.092 138.253 110.33 138.392C110.573 138.536 110.817 138.68 111.06 138.824C111.821 139.273 112.587 139.713 113.353 140.154C114.203 140.644 115.052 141.135 115.9 141.628C116.146 141.771 116.392 141.914 116.638 142.057C116.946 142.236 117.253 142.414 117.56 142.594C118.419 143.092 119.286 143.558 120.179 143.99C119.772 143.547 119.365 143.257 118.842 142.963C118.686 142.875 118.531 142.787 118.37 142.696C118.201 142.601 118.032 142.507 117.863 142.412C117.687 142.313 117.512 142.213 117.336 142.114C117.065 141.96 116.794 141.807 116.523 141.654C115.643 141.157 114.768 140.652 113.893 140.145C113.747 140.061 113.6 139.976 113.449 139.889C112.754 139.487 112.059 139.084 111.364 138.68C111.118 138.537 110.872 138.394 110.626 138.251C110.318 138.072 110.011 137.893 109.703 137.714C108.041 136.721 108.041 136.721 106.231 136.065C106.101 136.032 105.972 136 105.838 135.966C105.744 135.944 105.649 135.922 105.552 135.899C107.117 134.27 109.473 135.646 111.072 136.545Z" fill="#030712"/>
<path d="M104.103 171.841C104.479 172.017 104.479 172.017 104.864 172.242C105.08 172.368 105.08 172.368 105.301 172.496C105.532 172.632 105.532 172.632 105.768 172.771C105.931 172.866 106.094 172.961 106.257 173.056C106.592 173.251 106.927 173.446 107.262 173.642C107.977 174.062 108.695 174.477 109.413 174.892C109.617 175.011 109.617 175.011 109.825 175.132C110.905 175.757 111.99 176.373 113.076 176.988C114.439 177.758 115.797 178.536 117.151 179.322C118.627 180.178 120.108 181.025 121.589 181.871C122.35 182.306 123.111 182.742 123.872 183.177C124.176 183.351 124.479 183.525 124.783 183.699C138.454 191.523 138.454 191.523 152.124 199.348C152.274 199.434 152.425 199.52 152.58 199.609C152.883 199.782 153.187 199.956 153.49 200.13C154.253 200.566 155.016 201.003 155.779 201.439C157.245 202.277 158.708 203.117 160.168 203.964C161.385 204.67 162.607 205.367 163.831 206.059C165.194 206.83 166.553 207.608 167.907 208.394C169.382 209.25 170.863 210.096 172.344 210.943C173.106 211.378 173.866 211.814 174.627 212.249C174.931 212.423 175.235 212.597 175.539 212.771C202.879 228.419 202.879 228.419 203.335 228.68C203.638 228.854 203.942 229.027 204.245 229.201C205.013 229.641 205.781 230.08 206.549 230.521C207.308 230.955 208.067 231.389 208.826 231.823C209.25 232.066 209.674 232.309 210.098 232.553C210.359 232.703 210.619 232.852 210.88 233.001C210.996 233.068 211.112 233.135 211.231 233.204C212.826 234.114 214.322 234.779 216.206 234.355C217.153 234.008 218.007 233.449 218.861 232.922C219.293 232.658 219.737 232.428 220.195 232.21C220.31 232.288 220.31 232.288 220.427 232.368C221.17 232.868 221.927 233.32 222.719 233.74C222.308 234.181 221.899 234.471 221.373 234.764C221.216 234.852 221.059 234.94 220.898 235.031C220.728 235.125 220.558 235.219 220.388 235.313C220.212 235.412 220.036 235.511 219.86 235.609C219.588 235.762 219.317 235.914 219.045 236.066C218.285 236.491 217.529 236.921 216.774 237.354C216.468 237.528 216.162 237.702 215.856 237.875C215.184 238.256 214.526 238.641 213.888 239.077C213.783 239.147 213.677 239.217 213.569 239.288C213.379 239.415 213.194 239.546 213.013 239.684C212.726 239.873 212.547 239.963 212.203 239.999C211.593 239.804 211.068 239.492 210.521 239.165C210.391 239.092 210.262 239.02 210.129 238.945C209.737 238.724 209.349 238.498 208.961 238.269C208.665 238.097 208.369 237.924 208.074 237.752C207.922 237.664 207.771 237.576 207.615 237.485C206.863 237.047 206.107 236.615 205.35 236.183C205.124 236.053 205.124 236.053 204.892 235.921C204.585 235.745 204.278 235.57 203.97 235.394C203.209 234.959 202.448 234.523 201.688 234.088C201.384 233.914 201.08 233.74 200.776 233.566C195.308 230.436 189.84 227.307 184.372 224.177C184.221 224.091 184.071 224.005 183.916 223.916C183.612 223.742 183.309 223.569 183.005 223.395C182.243 222.958 181.48 222.522 180.717 222.085C179.251 221.248 177.787 220.408 176.327 219.561C175.111 218.855 173.889 218.158 172.664 217.465C171.301 216.695 169.943 215.917 168.589 215.131C167.113 214.275 165.632 213.428 164.151 212.582C163.39 212.147 162.629 211.711 161.868 211.275C161.565 211.102 161.261 210.928 160.957 210.754C153.059 206.233 145.16 201.712 137.262 197.192C137.111 197.106 136.961 197.02 136.806 196.931C136.502 196.757 136.199 196.583 135.895 196.41C135.133 195.973 134.37 195.536 133.607 195.1C132.141 194.263 130.677 193.423 129.217 192.575C128.001 191.869 126.779 191.172 125.554 190.48C124.191 189.71 122.833 188.931 121.479 188.146C120.003 187.29 118.522 186.443 117.041 185.597C116.28 185.161 115.519 184.726 114.758 184.29C114.455 184.116 114.151 183.942 113.847 183.769C108.683 180.813 103.518 177.857 98.354 174.901C98.354 174.763 98.354 174.626 98.354 174.484C98.5023 174.402 98.5023 174.402 98.6535 174.318C99.1088 174.066 99.5639 173.814 100.019 173.562C100.174 173.476 100.33 173.39 100.49 173.302C100.644 173.217 100.797 173.132 100.956 173.044C101.108 172.96 101.261 172.875 101.418 172.788C101.939 172.491 102.44 172.169 102.937 171.835C103.383 171.652 103.641 171.716 104.103 171.841Z" fill="#373D4D"/>
<path d="M157.399 182.289C157.691 182.43 157.691 182.43 157.843 182.855C157.899 183.044 157.955 183.234 158.01 183.423C159.048 186.777 159.048 186.777 161.741 189.009C162.327 189.349 162.851 189.77 163.381 190.185C162.816 190.649 162.229 191.002 161.584 191.349C161.49 191.4 161.396 191.451 161.299 191.504C161.069 191.629 160.839 191.753 160.609 191.877C160.638 192.14 160.638 192.14 160.667 192.409C160.803 193.641 160.937 194.873 161.046 196.107C160.516 195.721 160.101 195.322 159.688 194.821C159.528 194.628 159.367 194.435 159.204 194.245C159.004 193.992 159.004 193.992 158.77 193.629C158.235 192.853 158.235 192.853 157.388 192.469C156.873 192.444 156.381 192.459 155.867 192.494C155.692 192.501 155.516 192.507 155.335 192.513C154.904 192.53 154.474 192.553 154.044 192.582C154.133 191.557 154.257 190.547 154.422 189.531C154.538 188.597 154.523 188.014 154.013 187.197C153.915 187.038 153.818 186.879 153.718 186.715C153.614 186.55 153.509 186.385 153.405 186.22C153.203 185.894 153.001 185.567 152.8 185.24C152.71 185.097 152.62 184.953 152.527 184.805C152.315 184.442 152.149 184.089 152.001 183.699C152.094 183.738 152.188 183.777 152.284 183.818C152.709 183.995 153.134 184.169 153.56 184.342C153.707 184.404 153.854 184.466 154.006 184.529C154.148 184.587 154.291 184.645 154.437 184.704C154.568 184.758 154.699 184.812 154.833 184.868C155.276 184.985 155.51 184.982 155.94 184.827C156.171 184.58 156.171 184.58 156.331 184.258C156.394 184.144 156.457 184.03 156.523 183.913C156.586 183.793 156.65 183.673 156.715 183.549C156.781 183.429 156.848 183.308 156.916 183.184C157.079 182.887 157.24 182.589 157.399 182.289Z" fill="#DB46EF"/>
<path d="M179.026 194.48C179.328 194.946 179.429 195.324 179.571 195.862C180.234 198.232 180.786 199.91 182.971 201.196C183.521 201.54 184.016 201.961 184.516 202.377C184.111 202.817 183.645 203.095 183.135 203.39C183.047 203.442 182.96 203.494 182.87 203.547C182.218 203.928 182.218 203.928 181.908 203.928C181.921 204.02 181.933 204.112 181.946 204.207C182.003 204.631 182.058 205.055 182.114 205.479C182.134 205.624 182.153 205.769 182.174 205.919C182.278 206.72 182.343 207.49 182.32 208.299C181.853 207.825 181.399 207.342 180.956 206.845C180.845 206.72 180.733 206.596 180.618 206.467C180.261 206.043 180.261 206.043 180.102 205.746C179.905 205.402 179.741 205.167 179.438 204.915C178.803 204.756 178.185 204.763 177.534 204.774C177.361 204.772 177.188 204.77 177.01 204.769C176.584 204.765 176.159 204.767 175.733 204.774C175.825 203.83 175.968 202.913 176.154 201.984C176.363 200.857 176.186 200.076 175.578 199.107C175.467 198.922 175.355 198.738 175.243 198.553C175.187 198.462 175.131 198.37 175.074 198.276C174.827 197.87 174.589 197.458 174.352 197.045C174.274 196.91 174.196 196.776 174.115 196.637C173.949 196.314 173.949 196.314 173.949 196.032C174.805 196.31 175.624 196.637 176.447 197.006C176.805 197.149 177.138 197.237 177.517 197.301C177.551 197.205 177.584 197.11 177.619 197.012C177.827 196.508 178.082 196.046 178.349 195.573C178.424 195.439 178.424 195.439 178.5 195.301C178.87 194.641 178.87 194.641 179.026 194.48Z" fill="#030712"/>
<path d="M200.48 205.861C200.576 205.908 200.672 205.954 200.771 206.002C200.879 206.323 200.972 206.639 201.059 206.965C201.951 210.114 201.951 210.114 204.377 212.288C204.484 212.346 204.591 212.404 204.701 212.464C205.124 212.696 205.504 212.969 205.896 213.246C206.084 213.371 206.272 213.494 206.461 213.616C206.156 213.934 205.862 214.15 205.47 214.358C205.366 214.414 205.262 214.47 205.155 214.528C205.048 214.585 204.94 214.642 204.829 214.7C204.72 214.759 204.61 214.818 204.498 214.878C204.229 215.022 203.959 215.165 203.689 215.309C203.749 216.438 203.824 217.532 204.068 218.641C204.13 218.993 204.137 219.323 204.127 219.68C203.634 219.208 203.154 218.729 202.686 218.234C202.504 218.043 202.323 217.852 202.14 217.662C201.939 217.424 201.939 217.424 201.733 217.095C201.378 216.557 201.136 216.212 200.48 216.04C199.968 215.998 199.471 215.993 198.957 216.005C198.781 216.004 198.604 216.003 198.423 216.002C197.989 216 197.557 216.004 197.124 216.014C197.101 215.2 197.178 214.466 197.343 213.669C197.385 213.465 197.426 213.26 197.466 213.056C197.494 212.923 197.494 212.923 197.522 212.787C197.633 211.963 197.539 211.5 197.093 210.783C196.996 210.623 196.898 210.464 196.798 210.299C196.694 210.133 196.59 209.967 196.486 209.801C196.283 209.473 196.082 209.145 195.881 208.817C195.79 208.673 195.7 208.528 195.607 208.38C195.396 208.016 195.23 207.662 195.082 207.271C196.352 207.728 197.62 208.186 198.875 208.681C198.911 208.586 198.947 208.491 198.984 208.393C199.205 207.889 199.476 207.427 199.759 206.954C199.839 206.819 199.839 206.819 199.92 206.682C200.313 206.022 200.313 206.022 200.48 205.861Z" fill="#030712"/>
<path d="M113.507 157.09C113.603 157.09 113.7 157.09 113.799 157.09C113.843 157.228 113.888 157.367 113.934 157.51C114.103 158.031 114.28 158.55 114.459 159.068C114.534 159.292 114.608 159.516 114.68 159.74C115.185 161.308 115.684 162.227 117.154 163.153C117.378 163.316 117.6 163.481 117.822 163.647C118.021 163.791 118.221 163.935 118.422 164.078C118.526 164.153 118.63 164.228 118.737 164.306C118.987 164.486 119.238 164.665 119.489 164.845C119.006 165.369 118.475 165.675 117.847 166.008C117.753 166.06 117.658 166.111 117.56 166.164C117.328 166.289 117.095 166.413 116.863 166.537C116.964 168 117.126 169.452 117.3 170.908C116.718 170.46 116.241 170.022 115.777 169.454C115.292 168.866 114.794 168.298 114.268 167.744C114.091 167.524 114.091 167.524 114.091 167.242C112.791 167.242 111.491 167.242 110.151 167.242C110.452 165.383 110.452 165.383 110.549 164.8C110.573 164.647 110.597 164.494 110.622 164.337C110.647 164.181 110.672 164.025 110.698 163.864C110.773 162.996 110.44 162.415 109.996 161.681C109.938 161.584 109.88 161.486 109.821 161.385C109.7 161.182 109.579 160.98 109.458 160.777C109.226 160.39 108.996 160 108.767 159.611C108.548 159.24 108.328 158.87 108.109 158.5C108.743 158.694 109.366 158.898 109.981 159.144C110.078 159.183 110.175 159.222 110.276 159.262C110.471 159.341 110.666 159.421 110.86 159.502C111.439 159.745 111.439 159.745 112.048 159.628C112.243 159.374 112.243 159.374 112.41 159.059C112.474 158.945 112.539 158.831 112.605 158.713C112.671 158.593 112.737 158.474 112.805 158.35C112.906 158.169 112.906 158.169 113.01 157.985C113.177 157.687 113.342 157.389 113.507 157.09Z" fill="#DB46EF"/>
<path d="M135.599 170.096C135.979 170.442 136.065 170.817 136.214 171.274C136.278 171.461 136.343 171.649 136.408 171.836C136.51 172.129 136.61 172.423 136.705 172.718C137.172 174.16 137.678 174.947 139.1 175.802C139.324 175.956 139.546 176.111 139.768 176.267C139.967 176.403 140.167 176.538 140.368 176.673C140.472 176.744 140.576 176.814 140.683 176.887C140.933 177.056 141.184 177.226 141.434 177.395C141.264 177.861 141.192 177.879 140.732 178.093C140.62 178.146 140.509 178.198 140.394 178.252C140.277 178.306 140.16 178.36 140.039 178.415C139.922 178.47 139.804 178.525 139.683 178.582C139.392 178.718 139.101 178.853 138.808 178.987C138.854 179.449 138.899 179.911 138.945 180.372C138.964 180.566 138.964 180.566 138.984 180.764C139.061 181.544 139.148 182.323 139.246 183.101C138.712 182.736 138.301 182.358 137.887 181.882C137.362 181.284 136.817 180.713 136.246 180.152C136.036 179.916 136.036 179.916 136.036 179.651C134.785 179.651 133.533 179.651 132.243 179.651C132.337 178.621 132.448 177.651 132.636 176.641C132.722 175.795 132.541 175.191 132.052 174.474C131.955 174.329 131.858 174.185 131.758 174.036C131.657 173.888 131.555 173.74 131.45 173.588C131.347 173.437 131.245 173.285 131.143 173.134C130.956 172.857 130.767 172.58 130.578 172.304C130.387 172.015 130.214 171.727 130.055 171.423C130.993 171.692 131.899 172.009 132.806 172.354C133.227 172.512 133.534 172.617 133.994 172.617C134.037 172.546 134.081 172.474 134.125 172.4C134.321 172.077 134.518 171.754 134.714 171.431C134.783 171.318 134.851 171.205 134.921 171.089C134.987 170.982 135.052 170.875 135.119 170.764C135.18 170.665 135.24 170.565 135.302 170.463C135.453 170.228 135.453 170.228 135.599 170.096Z" fill="#DB46EF"/>
<path d="M125.317 146.523C125.803 146.706 126.242 146.919 126.689 147.183C126.819 147.259 126.949 147.336 127.083 147.414C127.293 147.538 127.293 147.538 127.507 147.665C127.811 147.843 128.114 148.02 128.418 148.198C128.574 148.29 128.731 148.382 128.892 148.477C129.647 148.918 130.405 149.354 131.163 149.79C131.314 149.877 131.465 149.964 131.62 150.053C131.926 150.229 132.232 150.405 132.538 150.581C133.295 151.017 134.053 151.453 134.811 151.89C135.113 152.064 135.416 152.238 135.718 152.413C145.7 158.162 145.7 158.162 155.682 163.912C155.832 163.998 155.982 164.085 156.136 164.174C156.438 164.348 156.74 164.522 157.043 164.696C157.802 165.134 158.562 165.571 159.322 166.008C160.781 166.847 162.238 167.689 163.692 168.538C164.903 169.246 166.12 169.944 167.339 170.638C168.696 171.41 170.049 172.19 171.397 172.977C172.866 173.835 174.341 174.683 175.816 175.532C176.574 175.968 177.331 176.404 178.089 176.841C178.392 177.015 178.694 177.189 178.996 177.363C189.281 183.287 199.565 189.211 209.85 195.135C210 195.222 210.149 195.308 210.304 195.397C210.605 195.571 210.907 195.744 211.209 195.918C211.978 196.362 212.748 196.804 213.519 197.246C214.278 197.681 215.036 198.118 215.793 198.558C216.053 198.708 216.314 198.858 216.575 199.008C220.354 201.171 222.911 204.377 224.099 208.588C224.357 209.635 224.352 210.664 224.34 211.734C224.339 211.941 224.339 212.148 224.338 212.355C224.337 212.893 224.333 213.432 224.328 213.971C224.324 214.524 224.322 215.076 224.32 215.628C224.315 216.708 224.308 217.787 224.299 218.866C224.161 218.82 224.023 218.774 223.88 218.727C223.88 218.618 223.879 218.509 223.879 218.397C223.873 217.362 223.866 216.327 223.855 215.291C223.849 214.759 223.845 214.227 223.843 213.695C223.84 213.18 223.836 212.665 223.829 212.15C223.827 211.955 223.826 211.76 223.826 211.566C223.821 207.985 222.259 204.699 219.822 202.118C219.687 201.985 219.55 201.853 219.413 201.721C219.323 201.635 219.232 201.548 219.139 201.458C218.365 200.739 217.55 200.207 216.629 199.692C216.485 199.609 216.34 199.526 216.19 199.441C215.884 199.266 215.577 199.092 215.27 198.918C214.665 198.575 214.062 198.227 213.459 197.879C213.004 197.616 212.549 197.354 212.093 197.092C211.182 196.568 210.272 196.043 209.361 195.519C209.059 195.344 208.756 195.17 208.454 194.996C203.009 191.86 197.564 188.723 192.12 185.587C191.97 185.501 191.82 185.415 191.666 185.326C191.364 185.152 191.061 184.978 190.759 184.803C190 184.366 189.24 183.928 188.48 183.491C187.021 182.652 185.563 181.81 184.11 180.961C182.898 180.254 181.682 179.555 180.462 178.862C179.105 178.089 177.753 177.31 176.404 176.522C174.935 175.664 173.461 174.816 171.986 173.968C171.228 173.532 170.47 173.095 169.713 172.659C169.41 172.485 169.108 172.31 168.805 172.136C158.823 166.386 158.823 166.386 148.841 160.637C148.691 160.55 148.542 160.464 148.387 160.375C148.085 160.201 147.783 160.027 147.481 159.853C146.721 159.415 145.961 158.978 145.202 158.541C143.742 157.701 142.285 156.86 140.831 156.011C139.62 155.303 138.403 154.605 137.184 153.911C135.827 153.139 134.475 152.36 133.127 151.572C132.103 150.974 131.075 150.381 130.047 149.79C128.416 148.853 126.795 147.901 125.178 146.942C125.224 146.804 125.27 146.666 125.317 146.523Z" fill="#64748B"/>
<path d="M135.606 168.471C136.119 168.678 136.119 168.678 136.294 168.976C136.325 169.068 136.355 169.159 136.387 169.254C136.423 169.358 136.459 169.462 136.496 169.569C136.532 169.681 136.569 169.793 136.607 169.909C136.665 170.081 136.665 170.081 136.725 170.258C136.85 170.626 136.971 170.995 137.093 171.364C137.177 171.613 137.261 171.861 137.345 172.11C137.958 173.928 137.958 173.928 137.958 174.257C138.037 174.294 138.116 174.331 138.197 174.369C138.524 174.539 138.805 174.733 139.101 174.952C139.213 175.035 139.325 175.117 139.44 175.202C139.556 175.288 139.672 175.374 139.791 175.463C139.961 175.588 139.961 175.588 140.135 175.717C140.361 175.883 140.586 176.05 140.811 176.218C141.029 176.379 141.249 176.538 141.471 176.694C141.572 176.765 141.673 176.837 141.778 176.911C141.868 176.974 141.959 177.037 142.052 177.102C142.148 177.194 142.148 177.194 142.247 177.288C142.247 177.424 142.247 177.561 142.247 177.701C141.792 177.955 141.336 178.207 140.88 178.459C140.751 178.531 140.621 178.604 140.488 178.678C140.364 178.746 140.24 178.815 140.112 178.885C139.997 178.949 139.883 179.012 139.765 179.078C139.48 179.217 139.48 179.217 139.203 179.217C139.227 179.373 139.227 179.373 139.251 179.532C139.325 180.012 139.398 180.493 139.471 180.973C139.509 181.219 139.509 181.219 139.547 181.469C139.704 182.508 139.822 183.542 139.895 184.59C139.712 184.635 139.529 184.681 139.341 184.728C138.452 183.71 137.564 182.691 136.686 181.662C136.623 181.588 136.56 181.515 136.495 181.438C136.224 181.12 135.977 180.805 135.744 180.457C135.328 180.386 135.328 180.386 134.839 180.386C134.569 180.379 134.569 180.379 134.293 180.371C134.102 180.368 133.911 180.365 133.72 180.362C133.528 180.357 133.336 180.353 133.144 180.348C132.673 180.336 132.203 180.327 131.732 180.319C131.601 179.804 131.6 179.424 131.701 178.904C131.726 178.767 131.752 178.631 131.778 178.49C131.805 178.349 131.833 178.208 131.861 178.063C132.173 176.449 132.268 175.553 131.394 174.119C131.32 173.993 131.245 173.866 131.168 173.736C130.817 173.143 130.457 172.555 130.094 171.97C130.036 171.875 129.978 171.781 129.918 171.684C129.809 171.509 129.699 171.335 129.588 171.162C129.442 170.928 129.442 170.928 129.241 170.537C129.287 170.401 129.333 170.264 129.38 170.124C130.373 170.216 131.258 170.68 132.163 171.068C132.361 171.151 132.361 171.151 132.563 171.235C132.682 171.286 132.802 171.337 132.924 171.39C133.283 171.531 133.283 171.531 133.807 171.502C133.857 171.415 133.906 171.328 133.957 171.238C134.181 170.847 134.405 170.455 134.628 170.064C134.706 169.927 134.785 169.79 134.865 169.649C134.939 169.519 135.014 169.389 135.091 169.255C135.159 169.134 135.228 169.014 135.299 168.89C135.467 168.608 135.467 168.608 135.606 168.471ZM135.606 169.711C135.378 170.095 135.15 170.48 134.922 170.864C134.858 170.974 134.793 171.083 134.726 171.196C134.664 171.301 134.602 171.406 134.538 171.513C134.452 171.658 134.452 171.658 134.365 171.806C134.266 171.977 134.172 172.152 134.084 172.328C133.163 172.235 132.378 171.833 131.543 171.461C131.429 171.412 131.315 171.362 131.198 171.311C131.094 171.265 130.991 171.219 130.884 171.172C130.616 171.052 130.616 171.052 130.348 171.226C130.394 171.302 130.44 171.379 130.487 171.457C131.564 173.244 131.564 173.244 131.784 173.612C131.936 173.862 132.091 174.109 132.249 174.355C132.362 174.534 132.362 174.534 132.479 174.717C132.548 174.823 132.617 174.929 132.688 175.039C132.974 175.648 132.821 176.235 132.7 176.875C132.65 177.21 132.601 177.546 132.553 177.882C132.529 178.038 132.504 178.194 132.479 178.354C132.406 178.865 132.406 178.865 132.423 179.63C133.61 179.63 134.798 179.63 136.021 179.63C136.112 179.812 136.203 179.994 136.297 180.181C136.422 180.343 136.553 180.5 136.689 180.653C136.765 180.74 136.842 180.827 136.921 180.917C137.04 181.051 137.04 181.051 137.162 181.189C137.318 181.366 137.475 181.543 137.631 181.721C137.708 181.807 137.784 181.894 137.863 181.983C138.221 182.39 138.574 182.801 138.926 183.212C139.073 182.755 139.055 182.406 138.987 181.933C138.968 181.795 138.949 181.656 138.929 181.513C138.908 181.369 138.887 181.225 138.866 181.077C138.825 180.791 138.785 180.506 138.745 180.22C138.727 180.094 138.709 179.967 138.69 179.837C138.649 179.492 138.649 179.492 138.649 178.941C139.882 178.259 139.882 178.259 141.14 177.564C140.87 177.025 140.757 176.893 140.29 176.561C140.176 176.479 140.062 176.397 139.945 176.312C139.826 176.228 139.706 176.143 139.583 176.057C139.349 175.889 139.115 175.721 138.881 175.553C138.777 175.48 138.673 175.406 138.566 175.33C138.402 175.208 138.402 175.208 138.234 175.084C138.092 174.981 137.95 174.879 137.804 174.774C137.351 174.344 137.178 173.954 137 173.373C136.968 173.277 136.936 173.18 136.903 173.081C136.802 172.776 136.705 172.471 136.609 172.165C136.509 171.857 136.409 171.55 136.308 171.244C136.246 171.053 136.185 170.863 136.124 170.672C135.995 170.27 135.91 170.013 135.606 169.711Z" fill="#64748B"/>
<path d="M200.702 205.049C200.957 205.116 200.957 205.116 201.262 205.324C201.421 205.704 201.545 206.061 201.66 206.453C201.734 206.685 201.808 206.917 201.882 207.149C201.996 207.514 202.109 207.878 202.218 208.244C202.702 209.855 203.115 210.874 204.618 211.8C204.863 211.973 205.106 212.147 205.349 212.323C205.7 212.569 206.052 212.813 206.406 213.055C206.575 213.174 206.575 213.174 206.748 213.296C206.849 213.366 206.951 213.436 207.055 213.508C207.275 213.728 207.275 213.728 207.275 214.279C206.917 214.481 206.559 214.682 206.2 214.882C206.099 214.939 205.998 214.996 205.894 215.054C205.746 215.137 205.746 215.137 205.595 215.221C205.505 215.272 205.415 215.322 205.322 215.374C205.002 215.537 204.675 215.667 204.338 215.795C204.359 215.928 204.381 216.062 204.402 216.199C204.481 216.697 204.559 217.194 204.637 217.692C204.671 217.907 204.705 218.122 204.739 218.336C204.788 218.646 204.836 218.956 204.885 219.266C204.9 219.361 204.915 219.456 204.931 219.554C205.014 220.097 205.053 220.619 205.037 221.168C204.853 221.213 204.668 221.259 204.478 221.306C203.634 220.337 202.79 219.369 201.952 218.395C201.889 218.322 201.826 218.249 201.761 218.173C201.275 217.609 201.275 217.609 201.09 217.292C200.852 216.995 200.852 216.995 200.422 216.96C200.255 216.957 200.087 216.954 199.914 216.951C199.642 216.944 199.642 216.944 199.364 216.937C199.172 216.935 198.98 216.933 198.788 216.931C198.595 216.928 198.401 216.923 198.208 216.919C197.734 216.909 197.261 216.902 196.787 216.897C196.62 216.41 196.671 216.044 196.76 215.542C196.8 215.309 196.8 215.309 196.84 215.071C196.898 214.746 196.955 214.42 197.013 214.095C197.039 213.939 197.066 213.783 197.093 213.622C197.118 213.481 197.143 213.339 197.169 213.193C197.245 212.325 197.065 211.705 196.618 210.961C196.527 210.807 196.436 210.653 196.343 210.495C196.246 210.336 196.149 210.177 196.053 210.017C195.958 209.858 195.863 209.7 195.769 209.541C195.373 208.878 194.973 208.221 194.543 207.58C194.453 207.427 194.362 207.273 194.27 207.115C194.316 206.979 194.362 206.843 194.409 206.702C195.411 206.769 196.277 207.163 197.198 207.537C197.36 207.602 197.522 207.667 197.689 207.735C198.088 207.895 198.486 208.056 198.884 208.218C198.924 208.116 198.963 208.014 199.004 207.909C199.146 207.57 199.303 207.269 199.492 206.954C199.554 206.851 199.615 206.748 199.679 206.642C199.743 206.537 199.806 206.432 199.872 206.323C199.968 206.162 199.968 206.162 200.067 205.998C200.542 205.207 200.542 205.207 200.702 205.049ZM200.702 206.289C199.676 207.572 199.676 207.572 199.164 209.044C198.01 208.59 196.857 208.135 195.668 207.666C195.622 207.757 195.576 207.848 195.528 207.942C195.689 208.234 195.856 208.507 196.039 208.785C196.149 208.958 196.258 209.132 196.368 209.306C196.541 209.579 196.715 209.851 196.893 210.121C197.563 211.144 198.074 211.96 197.853 213.225C197.824 213.345 197.795 213.466 197.766 213.591C197.716 213.855 197.666 214.119 197.617 214.383C197.592 214.496 197.568 214.609 197.542 214.725C197.468 215.224 197.478 215.704 197.486 216.208C197.641 216.203 197.641 216.203 197.8 216.197C200.743 216.118 200.743 216.118 201.585 216.625C201.896 217.02 202.132 217.426 202.38 217.861C202.669 218.227 202.979 218.573 203.289 218.921C203.401 219.05 203.401 219.05 203.514 219.181C203.692 219.387 203.875 219.589 204.059 219.79C204.105 219.79 204.151 219.79 204.198 219.79C204.142 219.094 204.078 218.4 203.982 217.707C203.969 217.61 203.956 217.513 203.942 217.413C203.915 217.221 203.888 217.03 203.859 216.838C203.717 215.806 203.717 215.806 203.919 215.382C204.291 215.118 204.694 214.929 205.107 214.736C205.328 214.63 205.548 214.523 205.767 214.416C205.914 214.346 205.914 214.346 206.064 214.276C206.321 214.155 206.321 214.155 206.436 213.866C206.362 213.813 206.288 213.759 206.212 213.704C205.87 213.457 205.528 213.21 205.186 212.962C205.07 212.878 204.954 212.794 204.834 212.708C204.598 212.536 204.362 212.363 204.129 212.189C203.788 211.935 203.788 211.935 203.439 211.74C202.276 211.013 202.054 209.883 201.69 208.648C201.593 208.331 201.494 208.015 201.395 207.699C201.334 207.503 201.274 207.307 201.216 207.111C201.146 206.88 201.065 206.653 200.982 206.427C200.89 206.381 200.797 206.336 200.702 206.289Z" fill="#64748B"/>
<path d="M113.57 156.277C113.832 156.303 113.832 156.303 114.131 156.416C114.3 156.718 114.3 156.718 114.438 157.116C114.489 157.262 114.54 157.408 114.593 157.558C114.673 157.792 114.673 157.792 114.754 158.032C114.81 158.19 114.867 158.349 114.926 158.512C115.161 159.174 115.392 159.828 115.537 160.516C115.922 162.171 117.068 162.83 118.435 163.709C118.868 163.99 119.281 164.292 119.696 164.597C119.898 164.742 120.099 164.886 120.301 165.031C120.268 165.355 120.268 165.355 120.161 165.726C119.9 165.932 119.9 165.932 119.564 166.098C119.385 166.188 119.385 166.188 119.201 166.281C119.075 166.341 118.95 166.402 118.82 166.464C118.693 166.527 118.567 166.59 118.437 166.655C118.124 166.811 117.811 166.964 117.497 167.115C117.561 168.102 117.653 169.08 117.786 170.059C117.897 170.888 117.954 171.698 117.917 172.534C117.356 172.534 117.356 172.534 117.15 172.372C117.086 172.296 117.023 172.22 116.957 172.142C116.884 172.057 116.812 171.972 116.737 171.885C116.661 171.792 116.585 171.7 116.506 171.605C116.427 171.512 116.348 171.418 116.266 171.322C116.102 171.128 115.939 170.934 115.776 170.739C115.545 170.464 115.311 170.191 115.076 169.919C114.015 168.69 114.015 168.69 113.851 168.366C113.667 168.361 113.667 168.361 113.48 168.355C113.027 168.342 112.574 168.328 112.121 168.314C111.925 168.308 111.729 168.302 111.533 168.297C111.251 168.289 110.969 168.28 110.688 168.271C110.518 168.266 110.349 168.261 110.174 168.255C109.785 168.227 109.785 168.227 109.644 168.088C109.652 167.012 109.854 165.95 110.075 164.899C110.341 163.554 109.913 162.732 109.206 161.601C109.124 161.466 109.042 161.33 108.957 161.191C108.659 160.703 108.359 160.217 108.058 159.731C107.914 159.498 107.771 159.264 107.629 159.03C107.553 158.908 107.476 158.786 107.398 158.66C107.261 158.362 107.261 158.362 107.401 157.945C108.265 158.026 109.012 158.377 109.802 158.709C110.077 158.824 110.352 158.938 110.627 159.052C110.748 159.103 110.869 159.154 110.994 159.206C111.291 159.32 111.577 159.405 111.888 159.473C111.935 159.305 111.935 159.305 111.983 159.133C112.217 158.511 112.541 157.973 112.887 157.406C112.953 157.297 113.018 157.188 113.086 157.076C113.247 156.81 113.408 156.543 113.57 156.277ZM113.57 157.528C113.53 157.603 113.49 157.678 113.448 157.755C113.266 158.094 113.081 158.432 112.896 158.77C112.832 158.888 112.769 159.006 112.704 159.128C112.642 159.24 112.58 159.352 112.516 159.468C112.46 159.572 112.403 159.676 112.345 159.784C112.168 160.029 112.168 160.029 111.748 160.168C111.421 160.067 111.421 160.067 111.042 159.903C110.905 159.846 110.769 159.788 110.628 159.729C110.414 159.637 110.414 159.637 110.197 159.543C109.915 159.422 109.633 159.301 109.35 159.182C109.225 159.128 109.1 159.074 108.971 159.019C108.662 158.877 108.662 158.877 108.382 159.056C108.444 159.158 108.506 159.259 108.569 159.364C109.208 160.419 109.847 161.475 110.486 162.53C110.566 162.65 110.646 162.77 110.729 162.894C110.923 163.256 110.944 163.396 110.876 163.793C110.86 163.901 110.843 164.009 110.826 164.12C110.806 164.237 110.786 164.355 110.766 164.475C110.73 164.739 110.695 165.002 110.66 165.266C110.623 165.538 110.585 165.81 110.547 166.082C110.447 166.8 110.447 166.8 110.346 167.532C111.595 167.532 112.844 167.532 114.131 167.532C114.224 167.715 114.316 167.899 114.412 168.088C114.539 168.251 114.671 168.409 114.808 168.564C114.886 168.652 114.963 168.74 115.043 168.83C115.165 168.966 115.165 168.966 115.288 169.104C115.447 169.283 115.605 169.462 115.764 169.641C115.841 169.728 115.919 169.815 115.999 169.905C116.361 170.315 116.719 170.73 117.076 171.145C117.258 170.784 117.198 170.602 117.138 170.205C117.109 170.006 117.109 170.006 117.079 169.803C117.047 169.595 117.047 169.595 117.015 169.382C116.953 168.978 116.894 168.575 116.842 168.169C116.803 167.869 116.756 167.57 116.707 167.271C116.795 166.837 116.795 166.837 117.02 166.64C117.335 166.442 117.654 166.273 117.987 166.108C118.211 165.993 118.435 165.876 118.658 165.758C118.808 165.684 118.808 165.684 118.96 165.607C119.033 165.555 119.105 165.502 119.179 165.448C119.179 165.31 119.179 165.173 119.179 165.031C118.913 164.773 118.913 164.773 118.56 164.524C118.43 164.427 118.3 164.331 118.167 164.231C118.029 164.131 117.892 164.031 117.751 163.928C117.483 163.73 117.215 163.532 116.947 163.334C116.827 163.246 116.708 163.159 116.584 163.068C116.469 162.982 116.354 162.896 116.235 162.808C116.113 162.728 115.992 162.648 115.867 162.565C115.432 162.157 115.279 161.715 115.097 161.164C115.061 161.06 115.024 160.956 114.987 160.849C114.872 160.518 114.76 160.187 114.648 159.855C114.571 159.63 114.493 159.405 114.415 159.18C114.224 158.63 114.037 158.079 113.851 157.528C113.758 157.528 113.666 157.528 113.57 157.528Z" fill="#64748B"/>
<path d="M179.418 193.668C179.677 193.686 179.677 193.686 179.978 193.807C180.164 194.16 180.164 194.16 180.325 194.628C180.384 194.797 180.444 194.966 180.505 195.141C180.566 195.322 180.627 195.502 180.687 195.683C180.749 195.859 180.81 196.035 180.872 196.211C181.043 196.706 181.211 197.202 181.379 197.697C181.424 197.826 181.469 197.955 181.516 198.088C181.799 198.902 181.799 198.902 181.799 199.365C181.879 199.402 181.959 199.439 182.042 199.477C182.373 199.65 182.657 199.845 182.957 200.066C183.07 200.149 183.183 200.232 183.3 200.318C183.417 200.405 183.534 200.491 183.655 200.581C183.827 200.707 183.827 200.707 184.003 200.837C184.232 201.005 184.46 201.174 184.687 201.343C184.907 201.505 185.13 201.663 185.355 201.817C185.458 201.888 185.56 201.96 185.666 202.033C185.758 202.095 185.849 202.157 185.944 202.22C186.141 202.422 186.141 202.422 186.141 202.977C185.216 203.482 184.292 203.986 183.34 204.506C183.397 205.526 183.456 206.52 183.629 207.528C183.764 208.334 183.789 209.11 183.76 209.925C183.251 209.892 183.077 209.803 182.708 209.441C182.584 209.291 182.462 209.139 182.342 208.987C182.207 208.823 182.073 208.659 181.938 208.495C181.869 208.41 181.801 208.325 181.73 208.238C181.387 207.818 181.032 207.409 180.679 206.998C179.997 206.205 179.997 206.205 179.804 205.874C179.57 205.577 179.57 205.577 179.153 205.557C178.911 205.562 178.911 205.562 178.664 205.568C178.402 205.572 178.402 205.572 178.134 205.575C177.951 205.581 177.768 205.586 177.58 205.591C177.218 205.599 176.856 205.605 176.494 205.611C176.333 205.616 176.172 205.62 176.006 205.624C175.637 205.617 175.637 205.617 175.497 205.478C175.503 204.756 175.618 204.036 175.745 203.326C175.765 203.217 175.784 203.108 175.804 202.996C175.844 202.779 175.884 202.563 175.927 202.347C175.955 202.193 175.955 202.193 175.984 202.037C176.001 201.947 176.019 201.857 176.037 201.765C176.093 200.898 175.846 200.25 175.397 199.524C175.346 199.438 175.294 199.352 175.241 199.263C175.077 198.989 174.91 198.717 174.744 198.444C174.633 198.261 174.523 198.077 174.412 197.893C173.86 196.972 173.86 196.972 173.288 196.062C173.116 195.752 173.116 195.752 173.16 195.431C173.191 195.353 173.223 195.276 173.256 195.196C173.825 195.289 174.319 195.465 174.852 195.683C175.02 195.752 175.188 195.82 175.362 195.891C175.538 195.963 175.714 196.036 175.891 196.108C176.07 196.181 176.249 196.254 176.428 196.327C176.865 196.506 177.301 196.684 177.738 196.864C177.797 196.676 177.797 196.676 177.857 196.484C177.994 196.097 178.14 195.782 178.351 195.432C178.445 195.276 178.445 195.276 178.54 195.117C178.605 195.011 178.669 194.906 178.735 194.797C178.801 194.688 178.867 194.579 178.934 194.467C179.095 194.2 179.256 193.934 179.418 193.668ZM179.558 194.78C179.371 195.064 179.192 195.349 179.016 195.639C178.942 195.76 178.942 195.76 178.866 195.883C178.723 196.117 178.58 196.351 178.438 196.586C178.357 196.714 178.275 196.843 178.192 196.975C177.995 197.262 177.995 197.262 178.018 197.558C176.986 197.29 176.035 196.906 175.063 196.476C174.687 196.29 174.687 196.29 174.376 196.308C174.558 196.919 174.797 197.402 175.148 197.934C175.243 198.082 175.337 198.23 175.435 198.382C175.633 198.689 175.834 198.995 176.036 199.299C176.561 200.128 176.893 200.697 176.698 201.68C176.671 201.787 176.645 201.894 176.617 202.005C176.581 202.216 176.546 202.427 176.512 202.638C176.474 202.838 176.437 203.038 176.398 203.238C176.29 203.806 176.197 204.341 176.197 204.923C176.305 204.919 176.413 204.915 176.524 204.911C179.594 204.831 179.594 204.831 180.456 205.348C180.767 205.745 180.997 206.149 181.239 206.59C181.505 206.935 181.791 207.261 182.079 207.589C182.147 207.669 182.214 207.749 182.284 207.831C182.446 208.023 182.612 208.21 182.779 208.396C182.826 208.396 182.872 208.396 182.92 208.396C182.947 207.453 182.84 206.551 182.709 205.617C182.689 205.47 182.669 205.323 182.649 205.171C182.6 204.81 182.55 204.45 182.499 204.089C182.605 204.049 182.71 204.008 182.818 203.967C183.129 203.84 183.408 203.707 183.697 203.541C183.826 203.467 183.826 203.467 183.958 203.392C184.046 203.341 184.133 203.29 184.224 203.238C184.314 203.186 184.404 203.134 184.498 203.081C184.719 202.954 184.94 202.827 185.16 202.7C184.558 202.065 183.887 201.544 183.191 201.015C183.022 200.886 183.022 200.886 182.85 200.754C182.268 200.296 182.268 200.296 181.649 199.893C181.243 199.517 181.123 199.049 180.957 198.538C180.92 198.431 180.884 198.323 180.846 198.213C180.73 197.871 180.617 197.528 180.504 197.185C180.425 196.953 180.347 196.72 180.268 196.488C180.076 195.919 179.887 195.35 179.698 194.78C179.652 194.78 179.606 194.78 179.558 194.78Z" fill="#64748B"/>
<path d="M157.468 181.475C157.752 181.497 157.752 181.497 158.029 181.614C158.21 181.991 158.35 182.343 158.482 182.737C158.542 182.906 158.542 182.906 158.602 183.079C158.686 183.318 158.768 183.558 158.849 183.798C158.974 184.165 159.102 184.531 159.23 184.897C159.311 185.13 159.392 185.362 159.472 185.594C159.529 185.759 159.529 185.759 159.587 185.927C159.733 186.357 159.851 186.715 159.851 187.171C159.931 187.209 160.011 187.246 160.094 187.284C160.424 187.456 160.709 187.652 161.009 187.873C161.122 187.956 161.235 188.039 161.352 188.125C161.469 188.211 161.587 188.298 161.707 188.387C161.88 188.514 161.88 188.514 162.056 188.643C162.771 189.169 163.483 189.698 164.195 190.228C164.164 190.482 164.164 190.482 164.055 190.784C163.782 190.987 163.782 190.987 163.428 191.173C163.302 191.24 163.176 191.307 163.046 191.376C162.847 191.479 162.847 191.479 162.645 191.583C162.512 191.653 162.379 191.724 162.241 191.796C161.912 191.97 161.583 192.142 161.252 192.312C161.319 192.848 161.386 193.384 161.453 193.919C161.482 194.145 161.482 194.145 161.511 194.376C161.625 195.291 161.625 195.291 161.756 196.203C161.826 196.721 161.822 197.21 161.813 197.731C161.273 197.706 161.111 197.592 160.72 197.207C160.58 197.042 160.442 196.875 160.306 196.707C160.233 196.619 160.16 196.532 160.085 196.442C159.865 196.178 159.648 195.913 159.43 195.647C159.307 195.499 159.184 195.351 159.06 195.203C158.205 194.174 158.205 194.174 157.931 193.757C157.633 193.387 157.633 193.387 157.172 193.332C157.004 193.33 156.837 193.328 156.665 193.326C156.483 193.322 156.302 193.318 156.114 193.314C155.923 193.313 155.732 193.312 155.541 193.311C155.348 193.308 155.155 193.304 154.962 193.301C154.489 193.292 154.017 193.287 153.544 193.285C153.521 192.308 153.629 191.428 153.815 190.471C153.873 190.159 153.921 189.848 153.965 189.534C153.981 189.436 153.997 189.338 154.013 189.238C154.111 188.171 153.52 187.412 152.958 186.546C152.768 186.247 152.58 185.947 152.391 185.647C152.301 185.505 152.211 185.363 152.118 185.216C151.655 184.479 151.655 184.479 151.435 184.11C151.378 184.016 151.322 183.922 151.263 183.826C151.139 183.497 151.186 183.328 151.302 183.003C151.838 183.091 152.298 183.248 152.797 183.459C152.945 183.522 153.094 183.584 153.246 183.648C153.4 183.713 153.553 183.778 153.711 183.845C154.016 183.975 154.322 184.104 154.628 184.232C154.763 184.29 154.898 184.347 155.037 184.406C155.351 184.548 155.351 184.548 155.646 184.531C155.692 184.449 155.737 184.366 155.783 184.281C155.988 183.907 156.194 183.533 156.4 183.159C156.506 182.964 156.506 182.964 156.615 182.765C156.718 182.578 156.718 182.578 156.823 182.388C156.886 182.273 156.95 182.158 157.015 182.039C157.188 181.753 157.188 181.753 157.468 181.475ZM157.468 182.586C156.705 183.893 156.705 183.893 155.927 185.226C155.328 185.127 154.929 185.049 154.391 184.831C154.267 184.781 154.143 184.731 154.016 184.68C153.889 184.628 153.762 184.576 153.632 184.523C153.502 184.47 153.372 184.418 153.238 184.364C152.92 184.235 152.601 184.106 152.283 183.976C152.483 184.519 152.743 184.978 153.056 185.465C153.201 185.699 153.346 185.933 153.49 186.167C153.639 186.404 153.792 186.639 153.944 186.874C154.643 188.018 154.775 188.781 154.525 190.089C154.5 190.282 154.474 190.474 154.45 190.667C154.426 190.82 154.402 190.973 154.376 191.131C154.291 191.673 154.239 192.181 154.245 192.729C154.349 192.721 154.453 192.713 154.56 192.705C157.509 192.507 157.509 192.507 158.352 193.001C158.666 193.402 158.901 193.815 159.15 194.258C159.439 194.627 159.749 194.976 160.061 195.326C160.135 195.413 160.209 195.499 160.286 195.589C160.464 195.796 160.648 196 160.832 196.203C160.878 196.203 160.924 196.203 160.972 196.203C160.852 194.811 160.701 193.423 160.551 192.035C160.685 191.961 160.818 191.887 160.956 191.811C161.133 191.712 161.311 191.613 161.488 191.514C161.576 191.465 161.664 191.417 161.754 191.367C162.28 191.072 162.751 190.757 163.214 190.367C163.004 190.193 162.794 190.019 162.583 189.846C162.443 189.728 162.303 189.609 162.158 189.487C161.83 189.223 161.505 189.02 161.13 188.829C159.052 187.679 158.6 185.559 157.979 183.419C157.91 183.185 157.83 182.955 157.749 182.725C157.656 182.679 157.564 182.633 157.468 182.586Z" fill="#64748B"/>
<path d="M57.592 135.957C58.6536 137.242 59.9975 138.337 61.538 138.985L72.2627 144.742C72.4623 144.842 73.1409 145.041 74.2587 145.041C75.3764 145.041 79.914 142.179 82.0431 140.749C82.5088 140.516 83.4603 139.91 83.5401 139.351C83.6199 138.792 84.771 131.664 85.3365 128.17C85.4363 126.54 84.9173 122.9 82.0431 121.382C79.1688 119.865 75.9885 117.755 74.7577 116.89L76.0551 109.303C76.3212 108.105 76.614 105.47 75.6559 104.511C74.4583 103.313 74.0591 102.415 72.2627 102.914C70.8255 103.313 67.2727 105.543 65.6759 106.608L62.8815 110.102L61.584 109.004L57.3924 106.608C56.4571 106.041 55.7208 105.483 54.644 105.333C52.3957 105.291 50.2077 106.755 48.61 108.267C46.2358 110.848 45.4898 113.83 45.5194 117.237C45.5225 117.562 45.5243 117.888 45.5247 118.213C45.5245 118.899 45.5253 119.585 45.5298 120.271C45.5366 121.155 45.5421 122.039 45.542 122.923C45.5418 123.618 45.5425 124.313 45.5449 125.008L45.549 126.004C45.5494 126.477 45.5502 126.949 45.554 127.422L45.558 127.858C45.561 128.362 45.5791 128.866 45.616 129.368C45.9728 130.858 46.488 131.62 47.7965 132.441L48.1859 132.675C48.6237 132.943 49.0629 133.207 49.5048 133.467L50.0072 133.761C50.5804 134.096 51.1547 134.429 51.7324 134.756L52.3151 135.084C53.7076 135.884 54.6888 136.431 56.325 136.026L56.7812 135.857L57.2482 135.689L57.592 135.558V135.957Z" fill="#64748B"/>
<path d="M65.8634 107.65C66.6116 107.723 66.6116 107.723 67.1604 108.161C67.3826 108.426 67.3826 108.426 67.6093 108.696C67.7245 108.809 67.8398 108.921 67.9585 109.037C68.7067 110.35 68.3493 111.921 68.0707 113.32C68.0345 113.514 67.9984 113.708 67.9611 113.907C67.8462 114.522 67.7281 115.135 67.6093 115.749C67.4908 116.365 67.373 116.982 67.2575 117.599C67.1859 117.981 67.1124 118.363 67.0371 118.745C66.9881 119.005 66.9881 119.005 66.9382 119.271C66.9088 119.422 66.8794 119.574 66.8491 119.73C66.805 120.248 66.8626 120.65 67.0107 121.148C67.4344 121.506 67.4344 121.506 67.9865 121.784C68.1889 121.896 68.3912 122.008 68.5997 122.123C68.8161 122.239 69.0325 122.354 69.2554 122.473C69.6944 122.715 70.1332 122.957 70.5719 123.199C70.7839 123.315 70.9958 123.431 71.2142 123.55C71.93 123.944 72.633 124.352 73.3334 124.772C73.6123 124.938 73.6123 124.938 73.8969 125.108C75.4427 126.106 76.3491 127.342 77.0746 129.003C77.4694 131.484 76.9736 133.908 76.5487 136.354C76.4381 136.995 76.333 137.636 76.2282 138.278C76.1583 138.688 76.0882 139.098 76.0177 139.509C75.9869 139.699 75.9561 139.889 75.9244 140.085C75.6958 141.366 75.3529 142.137 74.4558 143.109C73.6848 143.475 73.0367 143.465 72.1985 143.328C70.5903 142.67 69.0817 141.774 67.5844 140.908C66.2711 140.151 64.9559 139.4 63.6218 138.679C63.3921 138.553 63.1625 138.428 62.9258 138.299C62.4869 138.059 62.0465 137.823 61.6045 137.589C59.6311 136.506 57.9706 135.165 57.0216 133.125C56.9123 132.897 56.803 132.669 56.6904 132.433C56.3189 131.581 56.2074 130.957 56.1943 130.035C56.1905 129.782 56.1866 129.528 56.1827 129.266C56.1797 128.988 56.1769 128.711 56.1744 128.433C56.1724 128.223 56.1724 128.223 56.1704 128.009C56.1639 127.269 56.159 126.529 56.1551 125.788C56.1516 125.176 56.1446 124.564 56.1347 123.952C56.1227 123.212 56.1165 122.472 56.1146 121.732C56.1129 121.45 56.1091 121.169 56.1033 120.887C56.0608 118.731 56.0608 118.731 56.4596 118.032C57.1831 117.359 57.9453 117.383 58.8915 117.401C59.5811 117.359 60.2029 117.279 60.7146 116.783C61.3798 115.862 61.7981 114.816 62.2344 113.779C62.373 113.472 62.5126 113.165 62.6533 112.859C62.9242 112.267 63.1895 111.673 63.4504 111.077C64.9139 107.757 64.9139 107.757 65.8634 107.65Z" fill="#030712"/>
<path d="M55.643 107.181C55.8345 107.297 56.0259 107.414 56.2232 107.533C56.5427 107.725 56.5427 107.725 56.8687 107.921C57.0899 108.057 57.311 108.193 57.5321 108.329C57.7524 108.462 57.9728 108.595 58.1933 108.727C58.6166 108.983 59.0386 109.242 59.4592 109.503C59.8085 109.717 60.1612 109.926 60.5189 110.125C61.5033 110.689 61.5033 110.689 61.7747 111.411C61.7229 112.642 61.2467 113.688 60.4113 114.57C59.4366 115.295 58.372 115.847 57.3029 116.407C56.4195 116.882 55.8914 117.38 55.4414 118.305C55.4201 118.685 55.411 119.066 55.4076 119.446C55.4051 119.686 55.4027 119.925 55.4002 120.172C55.3986 120.436 55.3972 120.699 55.3959 120.963C55.3951 121.096 55.3943 121.229 55.3935 121.366C55.3895 122.073 55.3868 122.779 55.385 123.486C55.3829 124.209 55.3764 124.932 55.3687 125.656C55.3637 126.217 55.3621 126.778 55.3614 127.339C55.3601 127.733 55.355 128.128 55.3499 128.522C55.3533 130.021 55.5393 131.277 56.023 132.694C56.1926 133.204 56.3069 133.697 56.3972 134.228C55.6848 134.472 55.0345 134.529 54.2945 134.424C53.2341 133.869 53.2341 133.869 53.024 133.308C52.9303 132.675 52.9219 132.047 52.9166 131.408C52.9147 131.264 52.9129 131.119 52.9109 130.971C52.9052 130.493 52.9011 130.016 52.8975 129.538C52.8963 129.374 52.895 129.21 52.8937 129.041C52.8875 128.169 52.8828 127.297 52.8791 126.425C52.8757 125.71 52.8691 124.994 52.8595 124.279C52.8479 123.41 52.8421 122.541 52.8403 121.672C52.8386 121.344 52.8351 121.016 52.8294 120.688C52.7902 118.293 53.1993 116.385 54.1034 114.177C53.024 115.138 52.6003 116.735 52.4836 118.159C52.4348 119.11 52.4366 120.06 52.4391 121.012C52.4366 121.361 52.4336 121.71 52.4303 122.059C52.4227 122.968 52.4207 123.878 52.42 124.788C52.4182 125.72 52.411 126.651 52.4043 127.583C52.3921 129.405 52.3857 131.227 52.3831 133.048C51.401 132.651 50.5055 132.157 49.5875 131.623C49.4234 131.532 49.2593 131.44 49.0902 131.346C48.9325 131.254 48.7749 131.162 48.6124 131.067C48.3978 130.944 48.3978 130.944 48.1788 130.819C47.4784 130.223 47.2441 129.526 47.1493 128.61C47.1459 128.347 47.1456 128.084 47.1479 127.821C47.1464 127.604 47.1464 127.604 47.1448 127.383C47.1423 126.907 47.144 126.432 47.1459 125.956C47.1455 125.623 47.145 125.29 47.1443 124.957C47.1434 124.26 47.1446 123.563 47.1473 122.865C47.1506 121.976 47.1487 121.087 47.1453 120.198C47.1432 119.51 47.1439 118.822 47.1453 118.135C47.1457 117.807 47.1453 117.48 47.1439 117.152C47.1334 113.872 47.7298 111.416 49.9467 108.955C51.5265 107.513 53.5613 106.192 55.643 107.181Z" fill="#3438D0"/>
<path d="M73.1859 103.752C73.9888 104.29 74.5466 104.788 74.8831 105.729C75.2825 107.772 74.4274 110.324 74.0614 112.346C73.9327 113.057 73.8052 113.769 73.6784 114.48C73.634 114.722 73.634 114.722 73.5887 114.969C73.3533 116.095 73.3533 116.095 73.3832 117.225C73.7741 117.59 73.7741 117.59 74.3149 117.865C74.5135 117.978 74.7121 118.091 74.9168 118.207C75.1309 118.324 75.345 118.441 75.5656 118.562C76.0016 118.809 76.4375 119.057 76.8734 119.304C77.2881 119.536 77.7029 119.767 78.1179 119.998C80.6588 121.418 82.7415 122.802 83.6417 125.744C83.9297 127.981 83.3752 130.304 83 132.5C82.8892 133.151 82.7827 133.801 82.6765 134.452C82.6068 134.87 82.5368 135.287 82.4665 135.704C82.4351 135.897 82.4036 136.089 82.3712 136.288C81.9413 138.767 81.9413 138.767 81.1087 139.563C80.9039 139.685 80.9039 139.685 80.6949 139.81C80.463 139.952 80.463 139.952 80.2263 140.097C80.0514 140.198 79.8764 140.3 79.6962 140.405C79.4886 140.531 79.2811 140.657 79.0673 140.787C77.3962 141.791 77.3962 141.791 76.9342 141.791C77.0099 140.422 77.1718 139.082 77.4097 137.733C77.4358 137.584 77.4619 137.436 77.4887 137.283C77.5974 136.667 77.7072 136.052 77.8203 135.437C78.6672 130.895 78.6672 130.895 77.2148 126.656C75.8088 124.739 74.0059 123.672 71.9776 122.537C71.726 122.395 71.4746 122.252 71.2232 122.11C70.7618 121.848 70.2999 121.588 69.8375 121.328C69.3043 121.025 68.7777 120.714 68.254 120.395C68.3828 118.317 68.7699 116.288 69.14 114.243C69.2222 113.788 69.3026 113.332 69.3829 112.876C69.4208 112.671 69.4208 112.671 69.4595 112.462C69.7621 110.734 69.7392 109.261 68.8458 107.715C68.4969 107.35 68.1469 107.051 67.7392 106.755C67.6487 106.68 67.5581 106.604 67.4648 106.526C67.4648 106.395 67.4648 106.265 67.4648 106.13C68.1933 105.691 68.926 105.26 69.6596 104.83C69.9693 104.643 69.9693 104.643 70.2853 104.452C70.4862 104.336 70.6871 104.219 70.8941 104.098C71.078 103.989 71.2619 103.881 71.4514 103.768C72.1282 103.505 72.4936 103.556 73.1859 103.752Z" fill="#030712"/>
<path d="M58.5248 110.09C58.5248 110.309 58.5248 110.529 58.5248 110.755C58.1011 111.1 57.6953 111.393 57.242 111.683C57.1211 111.765 57.0003 111.846 56.8757 111.93C56.2995 112.309 55.9575 112.528 55.2734 112.528C55.5792 111.636 56.0559 111.305 56.7848 110.81C56.9815 110.674 57.1783 110.538 57.381 110.398C57.9152 110.09 57.9152 110.09 58.5248 110.09Z" fill="#64748B"/>
<path d="M53.9957 114.152C54.149 114.152 54.3022 114.152 54.4602 114.152C54.3135 115.032 53.9644 115.772 53.5312 116.591C53.3013 116.533 53.0714 116.476 52.8345 116.417C52.9541 115.497 53.3581 114.924 53.9957 114.152Z" fill="#64748B"/>
<path d="M56.4927 110.902C56.6268 110.979 56.7609 111.056 56.8991 111.135C56.6208 111.869 56.4949 112.062 55.8831 112.528C55.6819 112.528 55.4807 112.528 55.2734 112.528C55.5566 111.746 55.8788 111.37 56.4927 110.902Z" fill="#64748B"/>
<path d="M101.808 58.8295L102.75 59.3836L155.693 89.5563C157.199 90.6104 161.205 92.297 165.18 90.6104C169.156 88.9239 174.968 84.587 177.378 82.6294C178.231 81.4247 180.088 78.4732 180.691 76.3048C181.443 73.5942 182.196 65.3515 178.432 59.3836C174.667 53.4157 170.752 49.9117 163.975 45.565C158.554 42.0876 132.864 27.2504 120.697 20.2665C120.063 19.9529 119.44 19.6348 118.826 19.2852L118.09 18.8524L117.245 18.3571C114.367 16.6666 111.48 14.9938 108.58 13.3415C106.079 11.917 103.581 10.4887 101.096 9.03544C100.512 8.69357 99.9278 8.35225 99.343 8.01148C98.2551 7.37779 97.1664 6.74552 96.0824 6.10502C95.1622 5.55996 94.2413 5.01611 93.3177 4.47675C92.9506 4.26283 92.5838 4.04853 92.2171 3.83382C89.4616 2.18812 86.7727 0.868364 83.6526 0.0879963C80.931 -0.164939 78.9072 0.0751386 76.5503 1.49974C75.7091 2.01885 74.8672 2.52623 74.0052 3.0103L73.0515 3.53265C72.4004 3.89074 71.7491 4.24838 71.0975 4.60558C68.7151 5.89763 66.432 7.08922 64.7117 9.22904C62.2856 13.2864 62.0938 17.685 62.9282 22.243C65.0092 31.3787 69.975 39.7769 77.9303 44.9626C78.4363 45.1531 78.9394 45.3516 79.4362 45.565C79.7801 46.4619 79.7801 46.4619 79.8973 47.1732L80.0385 47.9744C80.7118 50.9401 81.2693 53.7813 80.8397 56.833C80.7495 57.3905 80.692 57.953 80.6408 58.5154C80.9891 59.0001 80.9891 59.0001 81.5444 59.4189C84.5095 60.5829 87.334 60.7013 90.2783 59.4189C91.8885 58.3792 93.2311 56.9453 93.8171 55.0895L93.8924 54.6001C96.0674 55.33 96.0674 55.33 98.0249 56.5901L98.9288 57.1248L100.838 58.2519L101.808 58.8295Z" fill="#64748B"/>
<path d="M107.777 114.418L109.283 115.021L158.134 142.899C158.385 145.007 159.067 149.917 159.79 152.687C160.513 155.458 167.52 160.267 170.933 162.325C173.544 160.719 179.095 157.416 180.42 157.054C181.746 156.693 181.976 154.494 181.926 153.44L186.143 151.633C188.903 150.278 194.756 147.116 196.081 145.309C197.738 143.05 199.093 141.092 198.34 131.304C197.738 123.474 189.958 114.79 186.143 111.427C160.021 96.067 106.976 64.986 103.772 63.5404C100.568 62.0947 97.7187 63.44 96.6946 64.2933L93.591 65.959L92.8116 66.4212L91.9487 66.9318L91.0434 67.473C89.6241 68.3111 88.2135 69.161 86.814 70.0318L86.0906 70.4976C85.4575 70.9049 85.4575 70.9049 84.8882 71.3505L84.8882 71.3506C82.697 73.8345 81.7292 76.891 81.7559 80.161L81.7824 81.101C81.7907 82.0076 81.803 82.9138 81.8232 83.8202C82.3115 90.9822 86.5618 98.972 91.7281 103.845L92.4175 104.479C95.5699 107.593 95.5699 107.593 105.212 113.019L106.153 113.543C106.69 113.842 107.231 114.135 107.777 114.418Z" fill="#64748B"/>
<path d="M72.3593 7.50369C72.6978 7.48894 73.0364 7.47418 73.3851 7.45898C76.5271 7.66254 79.5449 9.8 82.185 11.3436C82.5534 11.5569 82.922 11.77 83.2906 11.9829C84.0465 12.4199 84.8018 12.858 85.5564 13.2971C86.6025 13.9056 87.651 14.5098 88.7002 15.113C92.128 17.084 95.5461 19.071 98.9592 21.0672C101.278 22.4208 103.607 23.7552 105.94 25.0846C108.868 26.7531 111.785 28.4378 114.694 30.1393C117.864 31.9928 121.045 33.8257 124.226 35.6584C125.861 36.6005 127.496 37.5437 129.13 38.4868C129.783 38.8632 130.435 39.2397 131.088 39.6162C132.393 40.3691 133.698 41.122 135.003 41.875C135.326 42.0614 135.649 42.2477 135.982 42.4398C136.634 42.8157 137.285 43.1917 137.937 43.5677C139.583 44.5175 141.229 45.4664 142.876 46.4137C144.507 47.3521 146.136 48.2935 147.765 49.2366C148.389 49.5974 149.014 49.957 149.64 50.3154C159.082 55.7247 165.389 62.7137 168.31 73.331C169.303 77.4814 169.448 82.1438 167.172 85.9025C166.054 87.4422 164.651 88.3365 162.862 88.9331C158.064 89.3847 154.505 87.0307 150.513 84.7167C150.241 84.5588 149.969 84.401 149.688 84.2383C148.188 83.3672 146.69 82.4922 145.194 81.6155C143.269 80.4893 141.339 79.3735 139.408 78.2603C139.083 78.0729 138.757 77.8855 138.422 77.6924C137.763 77.3123 137.103 76.9323 136.443 76.5522C134.808 75.6102 133.174 74.667 131.54 73.7239C130.887 73.3474 130.235 72.971 129.582 72.5945C110.006 61.3006 110.006 61.3006 109.026 60.735C108.378 60.3613 107.73 59.9875 107.082 59.6137C105.561 58.7361 104.039 57.8584 102.518 56.9804C101.979 56.6695 101.441 56.3586 100.902 56.0477C100.226 55.6575 99.5496 55.2673 98.8736 54.8771C98.2761 54.5323 97.6781 54.1882 97.0797 53.8449C96.6021 53.5683 96.1269 53.2876 95.6559 52.9999C94.6461 52.3887 94.2098 52.1901 92.9896 52.1901C92.9053 52.43 92.8211 52.6699 92.7343 52.9171C91.9597 54.9644 91.2648 56.4362 89.3755 57.6112C89.1989 57.7238 89.0222 57.8364 88.8402 57.9524C87.8998 58.3193 87.0687 58.2931 86.0626 58.2888C85.6961 58.2904 85.3296 58.2919 84.952 58.2935C84.0036 58.2175 83.5603 58.0558 82.7497 57.6112C82.7654 57.0323 82.7654 57.0323 82.7815 56.4418C82.8416 53.2769 82.7391 50.4298 81.8462 47.3713C81.7414 46.9491 81.7414 46.9491 81.6344 46.5184C81.0234 44.5206 80.0338 43.834 78.2545 42.8244C76.5404 41.7636 75.1446 40.3485 73.7146 38.9385C73.4975 38.7254 73.2805 38.5122 73.0569 38.2927C67.3502 32.2874 64.5059 24.1435 64.6159 15.9906C64.7021 13.2299 65.4679 11.1376 67.3899 9.12249C69.052 7.82606 70.283 7.56448 72.3593 7.50369Z" fill="#3438D0"/>
<path d="M97.3064 72.4264C98.3157 72.9685 99.3123 73.5285 100.306 74.0985C100.668 74.303 101.029 74.5074 101.391 74.7114C103.69 76.0114 105.973 77.3382 108.242 78.6879C109.93 79.6894 111.631 80.6671 113.332 81.6466C113.665 81.8388 113.999 82.031 114.342 82.229C115.026 82.6229 115.71 83.0168 116.394 83.4106C118.04 84.3589 119.686 85.3087 121.332 86.2583C121.984 86.6348 122.637 87.0113 123.289 87.3877C124.594 88.1407 125.899 88.8936 127.205 89.6465C127.528 89.8329 127.851 90.0193 128.183 90.2113C128.836 90.5875 129.488 90.9637 130.14 91.3399C131.778 92.2854 133.417 93.2304 135.056 94.1747C138.204 95.9884 141.348 97.8073 144.484 99.6417C147.098 101.17 149.722 102.679 152.352 104.178C155.277 105.845 158.192 107.527 161.097 109.227C162.685 110.157 164.275 111.081 165.871 111.997C166.045 112.097 166.22 112.197 166.4 112.3C167.239 112.783 168.079 113.264 168.92 113.744C173.594 116.428 177.693 119.09 180.964 123.453C181.142 123.684 181.321 123.915 181.505 124.153C184.173 127.757 186.086 131.794 187.288 136.102C187.399 136.473 187.399 136.473 187.512 136.852C188.446 140.556 188.417 145.199 186.588 148.587C185.478 150.394 184.359 151.405 182.338 152.14C179.468 152.744 176.536 152.018 174.037 150.483C173.081 149.926 172.696 149.906 171.627 149.956C171.382 150.489 171.138 151.023 170.893 151.556C170.689 152.002 170.689 152.002 170.48 152.456C170.026 153.485 169.78 154.331 169.725 155.447C169.712 155.688 169.7 155.93 169.687 156.179C169.669 156.556 169.669 156.556 169.651 156.94C169.638 157.194 169.625 157.449 169.612 157.711C169.58 158.338 169.549 158.966 169.519 159.594C164.28 155.469 160.38 148.457 159.581 141.825C159.349 141.764 159.118 141.703 158.879 141.64C157.325 141.053 155.96 140.208 154.536 139.359C153.884 138.974 153.232 138.59 152.581 138.206C152.245 138.007 151.908 137.809 151.562 137.604C149.937 136.648 148.302 135.707 146.668 134.766C146.01 134.387 145.352 134.007 144.694 133.628C144.367 133.44 144.04 133.252 143.703 133.058C142.068 132.116 140.434 131.173 138.8 130.229C138.147 129.853 137.495 129.477 136.842 129.1C135.537 128.347 134.232 127.594 132.927 126.841C132.604 126.655 132.281 126.469 131.948 126.276C131.296 125.9 130.644 125.524 129.992 125.148C128.353 124.202 126.714 123.257 125.075 122.313C121.631 120.329 118.192 118.335 114.761 116.328C112.609 115.071 110.447 113.832 108.282 112.599C107.044 111.893 105.808 111.184 104.572 110.476C103.611 109.928 102.647 109.384 101.683 108.842C98.5428 107.055 95.8391 105.277 93.3227 102.672C93.021 102.391 93.021 102.391 92.7133 102.104C87.4841 97.2059 83.7882 88.8384 83.5428 81.6836C83.5079 78.3382 83.966 75.439 86.1487 72.7738C89.5168 69.5791 93.5139 70.578 97.3064 72.4264Z" fill="#CDFE41"/>
<path d="M81.5631 1.8204C81.8275 1.81264 82.0918 1.80487 82.3642 1.79688C84.8486 2.0456 86.9687 3.02095 89.1112 4.2486C89.368 4.39276 89.6248 4.53691 89.8894 4.68544C92.1928 5.98494 94.476 7.32028 96.7571 8.65832C99.1053 10.0356 101.466 11.3906 103.831 12.7379C106.759 14.4062 109.676 16.0911 112.585 17.7926C115.755 19.6461 118.936 21.479 122.117 23.3117C123.752 24.2537 125.387 25.197 127.021 26.14C127.674 26.5165 128.326 26.893 128.979 27.2694C138.767 32.9164 138.767 32.9164 148.555 38.5634C148.878 38.7499 149.202 38.9365 149.535 39.1287C150.184 39.5031 150.833 39.8776 151.482 40.2522C152.991 41.1233 154.5 41.9936 156.012 42.8602C156.541 43.1639 157.071 43.468 157.6 43.7721C158.26 44.1512 158.921 44.5297 159.581 44.9074C162.858 46.7908 165.843 48.6712 168.583 51.2879C168.85 51.5214 168.85 51.5214 169.123 51.7597C174.505 56.6561 178.1 64.9783 178.588 72.1323C178.679 75.3366 178.23 78.5762 176.112 81.104C175.442 81.7531 174.746 82.3463 174.004 82.911C173.703 82.3086 173.703 82.3086 173.867 81.7028C173.953 81.459 174.039 81.2152 174.128 80.964C174.644 79.321 174.758 77.8302 174.738 76.1158C174.734 75.6836 174.734 75.6836 174.731 75.2426C174.553 67.6597 171.027 60.5939 166.174 54.902C166.04 54.7253 165.907 54.5487 165.77 54.3667C162.671 50.3638 157.836 48.1069 153.5 45.7477C152.346 45.1134 151.211 44.4514 150.08 43.7774C147.981 42.5315 145.87 41.3067 143.755 40.0881C143.422 39.8959 143.088 39.7038 142.745 39.5058C142.061 39.1119 141.377 38.718 140.693 38.3241C139.047 37.3758 137.401 36.426 135.755 35.4764C135.103 35.0999 134.45 34.7234 133.798 34.347C114.221 23.053 114.221 23.053 113.241 22.4876C112.593 22.1135 111.944 21.7395 111.296 21.3656C109.782 20.4927 108.268 19.6188 106.757 18.7407C106.225 18.4318 105.693 18.1233 105.162 17.8149C104.497 17.4293 103.832 17.0431 103.169 16.6561C101.313 15.5807 99.4383 14.5737 97.5064 13.6414C98.3877 14.5975 99.2662 15.2236 100.398 15.859C100.734 16.0493 101.071 16.2395 101.417 16.4356C101.782 16.6398 102.148 16.8441 102.513 17.0484C102.893 17.2629 103.273 17.4775 103.653 17.6925C104.239 18.0237 104.824 18.3549 105.411 18.6853C107.313 19.7582 109.206 20.8486 111.097 21.9425C111.743 22.3158 112.389 22.6891 113.036 23.0624C113.355 23.2469 113.674 23.4313 114.003 23.6213C114.985 24.1886 115.968 24.755 116.951 25.3212C120.099 27.1352 123.245 28.9546 126.381 30.7894C129.173 32.4224 131.978 34.0317 134.789 35.6331C137.522 37.1909 140.244 38.7679 142.958 40.358C145.1 41.6101 147.251 42.8439 149.407 44.0711C150.298 44.5793 151.188 45.0897 152.079 45.5998C153.381 46.3458 154.687 47.0848 155.996 47.8186C159.269 49.6731 162.07 51.5727 164.668 54.2996C164.906 54.5322 165.144 54.7647 165.389 55.0043C170.838 60.5867 174.214 68.68 174.127 76.4478C174.042 79.1469 173.711 81.6972 171.896 83.8145C171.215 84.3664 170.523 84.8393 169.788 85.3204C169.346 84.437 169.663 83.9104 169.919 82.9675C171.63 75.764 169.036 68.2618 165.27 62.1301C161.023 55.5734 155.609 51.8795 148.913 48.088C148.168 47.6645 147.423 47.2405 146.679 46.8162C146.493 46.7106 146.308 46.605 146.117 46.4962C144.35 45.4887 142.593 44.4658 140.837 43.4386C137.373 41.4118 133.897 39.4047 130.419 37.4012C128.784 36.4592 127.15 35.516 125.515 34.5729C124.863 34.1964 124.21 33.8199 123.558 33.4435C96.1511 17.6319 96.1511 17.6319 95.1715 17.0668C94.5215 16.6918 93.8714 16.3168 93.2213 15.9418C91.2095 14.7814 89.1985 13.6197 87.188 12.4571C86.1993 11.8862 85.2095 11.3172 84.2195 10.7485C83.1522 10.135 82.0898 9.51509 81.0337 8.88265C78.5636 7.41924 76.219 6.43799 73.4126 5.81093C74.0338 5.14501 74.6327 4.68036 75.4267 4.23684C75.6371 4.11882 75.8475 4.0008 76.0643 3.8792C76.3916 3.69867 76.3916 3.69867 76.7255 3.5145C76.9437 3.39182 77.1619 3.26914 77.3867 3.14274C78.8054 2.3522 79.9086 1.84897 81.5631 1.8204Z" fill="#030712"/>
<path d="M97.8396 66.8338C98.6051 67.211 98.6051 67.211 99.4242 67.6926C99.7323 67.8722 100.04 68.0517 100.358 68.2367C100.688 68.4322 101.019 68.6277 101.36 68.8291C101.709 69.0338 102.059 69.2383 102.409 69.4426C103.137 69.8671 103.863 70.2926 104.589 70.7188C106.249 71.6919 107.918 72.6503 109.585 73.6102C110.238 73.9866 110.89 74.3631 111.543 74.7396C111.866 74.9259 112.189 75.1123 112.522 75.3043C123.289 81.516 123.289 81.516 124.268 82.0809C124.919 82.4566 125.57 82.8324 126.222 83.2081C127.872 84.1601 129.522 85.1124 131.172 86.0653C133.111 87.1853 135.051 88.3038 136.992 89.4217C137.43 89.6742 137.43 89.6742 137.876 89.9317C140.581 91.4901 143.286 93.0324 146.051 94.4816C148.113 95.5742 150.117 96.7651 152.129 97.9462C154.503 99.3385 156.888 100.709 159.279 102.071C162.204 103.738 165.121 105.418 168.024 107.122C169.601 108.047 171.184 108.96 172.776 109.858C179.646 113.743 179.646 113.743 182.469 116.226C182.683 116.411 182.898 116.596 183.118 116.786C189.141 122.379 193.107 131.036 193.424 139.209C193.368 142.099 192.843 145.319 190.799 147.488C190.171 147.942 189.521 148.189 188.794 148.451C188.837 148.26 188.88 148.069 188.925 147.873C190.598 139.461 188.285 131.422 183.682 124.348C180.6 119.986 176.99 116.565 172.358 113.932C171.526 113.458 170.698 112.979 169.87 112.499C168.192 111.527 166.512 110.56 164.831 109.593C163.168 108.637 161.505 107.679 159.843 106.72C159.519 106.533 159.194 106.346 158.859 106.153C156.698 104.906 154.543 103.651 152.389 102.391C149.776 100.862 147.152 99.3536 144.521 97.8545C141.593 96.186 138.676 94.5014 135.767 92.7998C132.598 90.9464 129.416 89.1134 126.235 87.2807C124.6 86.3387 122.965 85.3955 121.331 84.4524C120.678 84.0759 120.026 83.6995 119.373 83.323C115.458 81.0642 115.458 81.0642 114.479 80.4991C113.829 80.124 113.178 79.749 112.528 79.3741C110.859 78.4112 109.19 77.4477 107.522 76.4831C105.887 75.5379 104.251 74.595 102.613 73.6534C101.837 73.2058 101.062 72.7554 100.288 72.3043C97.7379 70.829 95.3766 69.6225 92.4185 69.2432C93.1321 68.4689 93.8988 67.919 94.7902 67.3609C95.171 67.1163 95.171 67.1163 95.5596 66.8668C96.5119 66.4557 96.8523 66.5572 97.8396 66.8338Z" fill="#030712"/>
<path d="M155.912 95.0032L155.169 94.555L103.17 64.2934C103.17 64.0926 102.778 63.8115 101.212 64.2934C99.6458 64.7753 98.5516 65.3977 98.2002 65.6486L148.435 95.1432C150.225 96.1278 152.001 97.1361 153.77 98.1578C154.438 98.5443 155.106 98.9306 155.775 99.3167L157.377 100.242C158.569 100.931 159.761 101.62 160.954 102.308L162.892 103.425L163.316 103.67C164.815 104.536 166.314 105.401 167.815 106.263C169.472 107.215 171.128 108.168 172.781 109.125C173.4 109.484 174.018 109.843 174.637 110.202C177.583 111.894 180.595 113.471 183.043 115.863L183.672 116.526C185.315 118.228 186.834 120.006 188.198 121.939C192.198 128.077 195.15 135.944 193.611 143.331C193.217 144.469 192.924 144.884 193.31 146.041C194.323 145.239 195.253 144.427 196.096 143.444C197.97 139.828 198.025 135.176 197.169 131.239C194.231 120.93 188.277 113.673 178.984 108.416C177.501 107.579 176.025 106.73 174.55 105.878C173.888 105.495 173.226 105.112 172.563 104.73L171.551 104.147C170.541 103.564 169.53 102.981 168.52 102.399L167.53 101.829L165.565 100.696L165.511 100.666C163.891 99.7346 162.271 98.8038 160.665 97.8481L159.641 97.2349C158.986 96.8454 158.332 96.4556 157.678 96.0655L156.763 95.509L155.912 95.0032Z" fill="#030712"/>
<path d="M93.5893 31.7109C94.7293 32.1374 95.7569 32.6609 96.8116 33.2674C97.1468 33.4596 97.4821 33.6518 97.8276 33.8498C98.1905 34.0592 98.5534 34.2685 98.9162 34.478C99.2948 34.6955 99.6733 34.9129 100.052 35.1302C101.024 35.6886 101.996 36.2483 102.967 36.8084C103.828 37.3049 104.689 37.8007 105.55 38.2967C107.164 39.2266 108.777 40.158 110.389 41.0898C112.017 42.0301 113.645 42.9692 115.274 43.9084C115.926 44.2849 116.579 44.6613 117.231 45.0378C117.554 45.2242 117.877 45.4105 118.21 45.6025C119.189 46.1672 120.168 46.7319 121.146 47.2966C121.47 47.4831 121.793 47.6695 122.126 47.8617C122.776 48.2369 123.427 48.6121 124.077 48.9874C125.742 49.948 127.407 50.908 129.072 51.8671C130.705 52.8072 132.336 53.7498 133.966 54.6931C134.799 55.1729 135.633 55.6487 136.469 56.1235C136.939 56.3936 137.41 56.6638 137.88 56.9341C138.092 57.0528 138.304 57.1715 138.522 57.2939C139.936 58.1116 139.936 58.1116 140.271 59.1176C138.704 58.9686 137.592 58.39 136.28 57.5741C135.824 57.298 135.367 57.0223 134.91 56.747C134.66 56.5961 134.411 56.4451 134.154 56.2895C132.646 55.3871 131.121 54.5155 129.598 53.64C128.921 53.2499 128.244 52.8597 127.566 52.4695C127.226 52.2736 126.886 52.0778 126.536 51.8761C124.89 50.9277 123.244 49.978 121.598 49.0283C119.634 47.8948 117.669 46.7616 115.704 45.6296C112.264 43.6474 108.83 41.6566 105.403 39.6516C102.581 38.0037 99.7428 36.3837 96.9017 34.7686C96.3912 34.478 96.3912 34.478 95.8704 34.1815C95.5678 34.0096 95.2653 33.8377 94.9536 33.6606C94.3871 33.3306 93.8336 32.9781 93.2881 32.6145C93.3875 32.3163 93.4869 32.0181 93.5893 31.7109Z" fill="#64748B"/>
<path d="M112.596 95.1426C113.646 95.3464 114.456 95.766 115.385 96.2896C115.694 96.4633 116.004 96.637 116.323 96.816C116.652 97.003 116.981 97.1899 117.32 97.3825C117.661 97.5747 118.002 97.7669 118.353 97.965C120.402 99.1243 122.441 100.299 124.466 101.5C126.367 102.628 128.281 103.733 130.195 104.837C130.529 105.029 130.862 105.221 131.206 105.419C131.89 105.813 132.574 106.207 133.258 106.6C134.904 107.549 136.55 108.499 138.195 109.448C138.848 109.825 139.5 110.201 140.153 110.578C141.458 111.331 142.763 112.084 144.068 112.836C144.392 113.023 144.715 113.21 145.049 113.402C145.696 113.776 146.343 114.149 146.991 114.523C148.517 115.403 150.044 116.284 151.571 117.164C152.291 117.579 153.011 117.994 153.731 118.41C154.239 118.702 154.746 118.994 155.253 119.286C155.561 119.464 155.869 119.642 156.187 119.825C156.457 119.98 156.727 120.136 157.006 120.297C157.259 120.444 157.511 120.591 157.772 120.742C158.053 120.892 158.334 121.041 158.623 121.195C158.839 121.344 159.055 121.492 159.277 121.646C159.277 121.944 159.277 122.242 159.277 122.549C158.131 122.374 157.312 122.048 156.319 121.455C156.038 121.289 155.757 121.123 155.468 120.952C155.015 120.681 155.015 120.681 154.553 120.403C153.898 120.016 153.244 119.629 152.589 119.242C152.251 119.042 151.913 118.841 151.565 118.635C149.939 117.675 148.302 116.733 146.666 115.792C146.009 115.413 145.351 115.034 144.694 114.655C144.034 114.275 143.373 113.894 142.713 113.514C138.609 111.15 134.508 108.78 130.42 106.389C128.268 105.132 126.106 103.893 123.94 102.659C122.708 101.957 121.477 101.253 120.246 100.548C119.566 100.158 118.885 99.7698 118.204 99.3819C117.261 98.8443 116.321 98.3023 115.382 97.759C114.956 97.5182 114.956 97.5182 114.523 97.2725C114.267 97.1236 114.012 96.9747 113.749 96.8214C113.525 96.6928 113.301 96.5641 113.07 96.4316C112.914 96.3044 112.757 96.1772 112.596 96.0461C112.596 95.7479 112.596 95.4498 112.596 95.1426Z" fill="#64748B"/>
<path d="M71.2144 26.4609C72.6965 26.6365 73.8011 27.2949 75.0731 28.0233C75.4261 28.2224 75.4261 28.2224 75.7862 28.4255C78.0302 29.6969 80.2558 31.0007 82.481 32.3046C84.8401 33.686 87.2105 35.0465 89.5859 36.3996C92.5217 38.0728 95.4508 39.757 98.3651 41.4676C99.9328 42.3876 101.505 43.2973 103.087 44.1936C103.591 44.4815 103.591 44.4815 104.105 44.7752C104.754 45.1455 105.405 45.5131 106.056 45.8779C106.49 46.1262 106.49 46.1262 106.931 46.3795C107.188 46.5245 107.445 46.6696 107.71 46.8191C107.891 46.9586 108.072 47.0981 108.259 47.2418C108.259 47.54 108.259 47.8381 108.259 48.1453C106.95 47.8604 105.876 47.2375 104.72 46.583C104.484 46.4505 104.247 46.318 104.004 46.1815C101.423 44.7271 98.8687 43.2282 96.3128 41.7313C94.3887 40.6051 92.4587 39.4893 90.527 38.3761C90.2023 38.1889 89.8776 38.0017 89.5431 37.8089C88.5535 37.2386 87.5638 36.6685 86.5741 36.0984C84.6122 34.9684 82.6506 33.838 80.6907 32.7044C79.5218 32.0285 78.3511 31.3563 77.1775 30.6888C76.3369 30.21 75.4982 29.728 74.659 29.2468C74.347 29.0707 74.035 28.8946 73.7136 28.7132C73.4289 28.5492 73.1441 28.3852 72.8508 28.2162C72.5994 28.073 72.348 27.9299 72.089 27.7824C71.5155 27.3645 71.5155 27.3645 71.2144 26.4609Z" fill="#64748B"/>
<path d="M172.531 151.764C172.832 151.891 173.134 152.018 173.445 152.148C173.849 152.315 174.253 152.482 174.658 152.648C174.856 152.732 175.053 152.816 175.257 152.902C176.559 153.434 177.751 153.702 179.157 153.872C179.458 154.173 179.458 154.173 179.573 155.027C179.458 155.98 179.458 155.98 178.808 156.572C178.363 156.823 178.363 156.823 177.908 157.079C177.586 157.263 177.264 157.448 176.932 157.638C176.592 157.824 176.251 158.01 175.9 158.201C175.563 158.394 175.226 158.587 174.878 158.786C172.374 160.196 172.374 160.196 171.326 160.196C171.095 154.314 171.095 154.314 172.531 151.764Z" fill="#030712"/>
<path d="M112.596 100.564C113.663 100.969 114.646 101.442 115.642 102C115.939 102.166 116.237 102.333 116.543 102.504C116.862 102.684 117.18 102.864 117.509 103.049C117.842 103.237 118.176 103.425 118.52 103.618C121.372 105.226 124.201 106.871 127.025 108.527C128.924 109.639 130.83 110.741 132.737 111.84C133.059 112.026 133.382 112.212 133.715 112.404C135.398 113.374 137.082 114.343 138.766 115.311C140.401 116.252 142.033 117.195 143.665 118.141C144.443 118.59 145.223 119.035 146.005 119.478C146.42 119.718 146.835 119.957 147.249 120.197C147.594 120.394 147.94 120.591 148.295 120.794C149.038 121.345 149.038 121.345 149.3 122.019C149.313 122.195 149.325 122.37 149.339 122.55C148.199 122.124 147.171 121.6 146.116 120.994C145.781 120.801 145.446 120.609 145.1 120.411C144.737 120.202 144.375 119.992 144.012 119.783C143.633 119.565 143.255 119.348 142.876 119.131C141.904 118.572 140.932 118.013 139.961 117.453C139.1 116.956 138.239 116.46 137.378 115.964C135.764 115.034 134.151 114.103 132.539 113.171C131.237 112.419 129.935 111.668 128.633 110.917C127.984 110.543 127.335 110.168 126.685 109.793C125.176 108.922 123.667 108.052 122.155 107.185C121.626 106.881 121.096 106.577 120.567 106.273C119.907 105.894 119.246 105.516 118.586 105.138C117.69 104.623 116.798 104.102 115.909 103.576C115.591 103.389 115.273 103.201 114.946 103.008C114.642 102.823 114.338 102.638 114.025 102.447C113.75 102.281 113.476 102.114 113.193 101.943C112.996 101.786 112.799 101.63 112.596 101.468C112.596 101.17 112.596 100.872 112.596 100.564Z" fill="#64748B"/>
<path d="M166.504 126.465C167.774 126.645 168.693 127.085 169.804 127.718C170.139 127.907 170.474 128.096 170.819 128.291C171.169 128.492 171.519 128.692 171.869 128.893C172.224 129.095 172.58 129.297 172.936 129.498C173.805 129.991 174.672 130.486 175.539 130.982C175.539 131.38 175.539 131.778 175.539 132.187C173.693 131.496 172.044 130.482 170.344 129.495C170.008 129.305 169.673 129.114 169.327 128.917C169.009 128.733 168.691 128.548 168.363 128.358C167.925 128.106 167.925 128.106 167.479 127.848C166.805 127.368 166.805 127.368 166.504 126.465Z" fill="#64748B"/>
<path d="M147.502 63.0332C149.149 63.3464 150.551 64.2865 151.998 65.0924C152.528 65.3858 153.06 65.6733 153.592 65.9608C153.926 66.1458 154.259 66.3308 154.602 66.5214C154.909 66.6898 155.215 66.8582 155.53 67.0317C156.236 67.5508 156.236 67.5508 156.489 68.2175C156.505 68.395 156.521 68.5726 156.538 68.7555C154.52 68.1407 152.818 67.1205 151.004 66.0637C150.499 65.7775 150.499 65.7775 149.984 65.4855C149.666 65.3009 149.348 65.1163 149.02 64.9261C148.729 64.758 148.437 64.59 148.137 64.4168C147.928 64.2584 147.718 64.0999 147.502 63.9367C147.502 63.6386 147.502 63.3404 147.502 63.0332Z" fill="#64748B"/>
<path d="M83.3477 5.50977C85.1473 5.78873 86.5284 6.66839 88.0911 7.5615C88.3835 7.72242 88.6758 7.88334 88.977 8.04914C89.3934 8.28586 89.3934 8.28586 89.8182 8.52737C90.072 8.67055 90.3258 8.81374 90.5873 8.96126C91.1781 9.425 91.1781 9.425 91.4137 10.0834C91.4354 10.2637 91.457 10.444 91.4793 10.6297C89.8038 9.99285 88.2917 9.12204 86.7358 8.23914C86.4435 8.07705 86.1512 7.91497 85.85 7.74797C85.5724 7.59054 85.2948 7.43311 85.0088 7.27092C84.755 7.12807 84.5012 6.98523 84.2397 6.83805C83.6488 6.41328 83.6488 6.41328 83.3477 5.50977Z" fill="#64748B"/>
</svg>
