<svg width="156" height="240" viewBox="0 0 156 240" fill="none" xmlns="http://www.w3.org/2000/svg">
<path d="M34.3069 134.492C36.2597 135.605 38.0368 136.838 39.7225 138.323C40.7333 139.071 40.7333 139.071 42.0401 138.865C43.531 138.376 44.8639 137.768 46.256 137.045C47.0904 136.611 47.9248 136.178 48.7592 135.744C48.7129 136.268 48.6667 136.792 48.619 137.332C48.5378 140.6 48.5378 140.6 49.2932 143.749C51.4163 145.922 53.8826 147.095 56.6027 148.386C57.295 148.74 57.9858 149.096 58.6752 149.456C59.9491 150.119 61.2267 150.759 62.5181 151.389C64.246 152.288 64.246 152.288 65.977 153.465C67.3672 154.553 67.3672 154.553 68.9521 154.456C71.2993 153.674 73.3466 152.493 75.4605 151.221C75.286 151.957 75.286 151.957 75.108 152.709C74.8475 155.191 74.7032 157.028 75.9945 159.226C79.4109 162.126 83.6456 163.953 87.6698 165.859C89.73 166.889 91.6399 168.093 93.5539 169.371C94.651 170.005 94.651 170.005 95.8154 169.756C97.1296 169.246 98.3707 168.641 99.6252 167.998C100.34 167.634 100.34 167.634 101.069 167.262C101.429 167.075 101.79 166.889 102.162 166.697C102.12 167.187 102.078 167.677 102.035 168.181C101.992 170.334 102.118 172.09 102.696 174.168C104.355 175.877 106.288 176.779 108.418 177.808C109.87 178.557 111.247 179.398 112.638 180.255C113.161 180.577 113.684 180.898 114.223 181.229C115.274 181.875 116.324 182.523 117.373 183.173C117.861 183.466 118.349 183.758 118.852 184.06C119.507 184.459 119.507 184.459 120.176 184.867C121.585 185.459 122.123 185.393 123.523 184.842C124.18 184.484 124.826 184.106 125.459 183.708C126.351 183.212 126.351 183.212 127.261 182.707C127.614 182.883 127.966 183.059 128.329 183.241C128.153 183.593 127.977 183.945 127.795 184.308C128.214 184.418 128.632 184.528 129.063 184.642C131.69 185.637 133.968 187.088 136.339 188.577C134.339 190.755 131.765 192.042 129.23 193.514C128.729 193.816 128.229 194.119 127.713 194.431C127.224 194.714 126.736 194.998 126.233 195.29C125.79 195.551 125.347 195.812 124.891 196.08C123.123 196.729 122.124 196.541 120.319 196.049C118.999 195.429 118.999 195.429 117.69 194.644C116.946 194.203 116.946 194.203 116.187 193.753C115.656 193.432 115.125 193.111 114.578 192.78C113.423 192.094 112.267 191.408 111.111 190.722C110.515 190.367 109.919 190.012 109.305 189.646C106.427 187.94 103.527 186.274 100.626 184.608C99.4596 183.936 98.2929 183.264 97.1261 182.592C96.5467 182.259 95.9672 181.925 95.3702 181.582C92.4711 179.912 89.5731 178.241 86.6751 176.57C85.518 175.903 84.361 175.236 83.2039 174.569C71.6333 167.898 60.0628 161.227 48.4922 154.556C47.9185 154.225 47.3447 153.895 46.7536 153.554C45.6064 152.892 44.4593 152.23 43.3124 151.568C40.5985 150.002 37.8828 148.439 35.1603 146.887C33.8724 146.153 32.5856 145.417 31.2989 144.681C30.3888 144.161 29.477 143.644 28.5653 143.127C28.0156 142.812 27.4659 142.498 26.8996 142.173C26.4147 141.897 25.9297 141.621 25.4301 141.337C24.3149 140.625 23.4753 139.923 22.5919 138.946C30.3368 132.684 30.3368 132.684 34.3069 134.492Z" fill="#373D4D"/>
<path d="M154.548 99.9211V189.632C154.653 190.998 154.11 192.697 153.76 193.178C151.615 194.798 146.72 198.222 144.303 198.958C141.886 199.693 139.531 198.651 138.655 198.038C101.002 176.322 25.2227 132.443 23.3313 130.657C21.4399 128.87 21.0545 125.709 21.0983 124.352V115.814C19.5659 113.187 15.8444 106.462 13.2174 100.578C9.93368 93.2223 11.1158 87.0489 11.9039 84.816C12.5344 83.0297 14.4433 82.3204 15.319 82.189C15.3627 80.6129 15.6605 76.5673 16.5011 72.9947C17.3417 69.422 19.9161 66.1646 21.0983 64.9824V35.2977C21.0983 31.0946 22.5869 30.1314 23.3312 30.1751C24.382 29.2557 27.1928 27.0754 30.03 25.7093C32.8671 24.3433 35.2401 25.1402 36.072 25.7093C71.7549 46.4624 144.303 88.5726 149.031 90.9894C153.76 93.4062 154.679 97.9509 154.548 99.9211Z" fill="#64748B" stroke="#64748B"/>
<path d="M24.244 30.7715C26.0638 31.0234 27.4166 31.8108 28.9627 32.7706C29.5239 33.1084 30.0852 33.446 30.6467 33.7834C30.9349 33.9582 31.2231 34.1331 31.5201 34.3133C32.9272 35.1601 34.3519 35.9759 35.7764 36.7931C36.3504 37.1238 36.9244 37.4545 37.4983 37.7854C37.7834 37.9496 38.0684 38.1138 38.3621 38.283C39.7882 39.1047 41.2138 39.9274 42.6394 40.75C43.2085 41.0783 43.7777 41.4067 44.3469 41.7351C54.5921 47.6458 64.8372 53.5564 75.0824 59.4671C75.3642 59.6297 75.646 59.7922 75.9363 59.9597C76.505 60.2879 77.0738 60.616 77.6425 60.9442C79.0717 61.7688 80.5011 62.5932 81.931 63.4168C84.6766 64.9988 87.4194 66.5853 90.1546 68.1853C92.4342 69.5186 94.7232 70.8346 97.0175 72.1422C99.5713 73.5975 102.116 75.067 104.653 76.5512C107.418 78.1678 110.193 79.7666 112.968 81.3652C114.394 82.1869 115.82 83.0096 117.245 83.8322C117.814 84.1606 118.384 84.4889 118.953 84.8173C120.091 85.474 121.229 86.1308 122.368 86.7875C122.65 86.9501 122.931 87.1127 123.222 87.2801C123.79 87.6083 124.359 87.9364 124.928 88.2646C126.645 89.2552 128.362 90.2451 130.079 91.2343C130.93 91.7247 131.78 92.2166 132.629 92.7085C133.775 93.3709 134.924 94.0251 136.077 94.6746C136.641 94.9954 137.205 95.3163 137.768 95.6371C138.025 95.7797 138.282 95.9223 138.546 96.0692C140.744 97.3277 142.547 98.7603 143.63 101.104C143.754 101.366 143.878 101.627 144.006 101.897C144.479 103.042 144.599 103.977 144.6 105.218C144.601 105.538 144.602 105.858 144.603 106.187C144.603 106.542 144.603 106.897 144.602 107.252C144.603 107.629 144.604 108.006 144.605 108.383C144.607 109.42 144.607 110.457 144.608 111.493C144.608 112.611 144.61 113.729 144.612 114.847C144.615 117.291 144.617 119.736 144.618 122.18C144.619 123.706 144.62 125.232 144.621 126.758C144.624 130.982 144.627 135.205 144.628 139.429C144.628 139.699 144.628 139.97 144.628 140.248C144.628 140.519 144.628 140.79 144.628 141.069C144.628 141.618 144.629 142.167 144.629 142.717C144.629 142.989 144.629 143.261 144.629 143.542C144.63 147.958 144.634 152.373 144.641 156.789C144.647 161.32 144.65 165.852 144.65 170.384C144.651 172.929 144.652 175.474 144.657 178.019C144.661 180.186 144.662 182.353 144.66 184.52C144.659 185.625 144.659 186.731 144.663 187.837C144.666 188.849 144.666 189.861 144.663 190.873C144.662 191.239 144.663 191.606 144.666 191.972C144.668 192.47 144.666 192.968 144.663 193.465C144.663 193.742 144.664 194.018 144.664 194.303C144.541 195.276 144.225 196.213 143.515 196.923C141.69 197.172 140.5 196.405 138.95 195.511C138.566 195.295 138.566 195.295 138.173 195.074C137.411 194.644 136.653 194.209 135.897 193.771C135.701 193.657 135.505 193.544 135.303 193.427C134.415 192.911 133.531 192.389 132.649 191.864C131.162 190.981 129.662 190.119 128.163 189.256C127.873 189.088 127.582 188.92 127.282 188.748C126.686 188.404 126.089 188.061 125.493 187.717C124.056 186.89 122.621 186.061 121.186 185.233C120.616 184.905 120.047 184.576 119.478 184.248C118.34 183.591 117.201 182.934 116.063 182.278C115.781 182.115 115.499 181.953 115.209 181.785C114.64 181.457 114.072 181.129 113.503 180.801C112.074 179.976 110.644 179.152 109.214 178.328C106.469 176.746 103.726 175.159 100.991 173.559C98.7112 172.226 96.4222 170.91 94.1279 169.603C91.5742 168.147 89.0292 166.678 86.4921 165.194C83.7275 163.577 80.9526 161.978 78.1775 160.38C76.7514 159.558 75.3259 158.735 73.9002 157.913C73.3311 157.584 72.7619 157.256 72.1927 156.927C61.9476 151.017 51.7024 145.106 41.4572 139.195C41.1752 139.033 40.8932 138.87 40.6026 138.702C40.0362 138.376 39.4698 138.049 38.9035 137.722C37.4389 136.876 35.9736 136.032 34.5071 135.19C33.0755 134.368 31.6461 133.542 30.2185 132.713C29.6077 132.359 28.9951 132.009 28.3819 131.659C25.6428 130.055 23.755 128.098 22.7919 125.003C22.6473 124.284 22.645 123.613 22.6488 122.88C22.6496 122.587 22.6505 122.294 22.6514 121.992C22.6536 121.688 22.6558 121.383 22.658 121.069C22.6592 120.761 22.6604 120.452 22.6616 120.135C22.6647 119.373 22.669 118.612 22.6744 117.851C23.4948 118.651 24.2428 119.456 24.9402 120.363C26.2071 121.967 27.579 123.457 28.9792 124.944C29.2377 125.224 29.2377 125.224 29.5015 125.51C31.0928 127.176 32.9231 128.552 34.7585 129.935C34.9806 130.104 35.2028 130.272 35.4316 130.445C38.701 132.826 42.1833 134.56 46.0544 135.715C46.3782 135.813 46.7019 135.912 47.0354 136.013C52.3294 137.287 56.9304 135.864 61.4359 133.204C62.1589 132.778 62.8848 132.357 63.611 131.936C64.9626 131.153 66.3105 130.363 67.6575 129.572C68.2931 129.2 68.9311 128.833 69.5709 128.469C74.4369 125.673 77.491 122.063 78.9736 116.604C80.33 111.407 80.1287 105.449 78.8915 100.251C78.8138 99.8859 78.7368 99.5209 78.6606 99.1558C77.6552 94.4694 75.9802 90.1122 73.9002 85.8024C73.8086 85.6118 73.7169 85.4213 73.6224 85.2249C70.6299 79.095 66.5122 73.6424 61.8162 68.7271C61.6391 68.5362 61.462 68.3452 61.2795 68.1484C55.8129 62.4137 47.7832 57.6055 39.7614 57.3426C35.3349 57.2755 32.1847 58.9203 28.4538 61.1089C27.7635 61.5105 27.0729 61.9115 26.3821 62.3121C25.9428 62.5673 25.5042 62.8237 25.0663 63.0813C24.8679 63.1974 24.6695 63.3135 24.4651 63.4332C24.2902 63.5362 24.1153 63.6391 23.9351 63.7452C23.4625 63.9986 23.4625 63.9986 22.6744 64.2613C22.6499 60.1053 22.6314 55.9494 22.62 51.7934C22.6146 49.8636 22.6072 47.9339 22.5952 46.0042C22.5847 44.3222 22.5779 42.6402 22.5756 40.9581C22.5742 40.0676 22.571 39.1771 22.5633 38.2866C22.5557 37.2921 22.5547 36.2979 22.5551 35.3034C22.5514 35.0085 22.5476 34.7135 22.5437 34.4096C22.5543 32.4144 22.5543 32.4144 23.1749 31.3704C23.7252 30.8989 23.7252 30.8989 24.244 30.7715Z" fill="#030712"/>
<path d="M33.9705 26.1693C34.807 26.4987 35.5623 26.9265 36.3348 27.3843C36.5608 27.5134 36.7867 27.6425 37.0196 27.7755C37.7573 28.1987 38.491 28.6284 39.2244 29.0589C39.7257 29.3499 40.2272 29.6406 40.7288 29.9312C41.7818 30.5426 42.833 31.1569 43.8832 31.7731C45.5548 32.7533 47.2323 33.7231 48.9114 34.6905C49.195 34.854 49.4786 35.0174 49.7709 35.1859C50.3462 35.5174 50.9216 35.8489 51.497 36.1804C52.9231 37.002 54.3487 37.8248 55.7743 38.6474C56.3435 38.9757 56.9126 39.3041 57.4818 39.6325C83.0947 54.4092 83.0947 54.4091 108.708 69.1858C108.989 69.3484 109.271 69.511 109.562 69.6784C110.13 70.0066 110.699 70.3347 111.268 70.6629C112.697 71.4876 114.126 72.3119 115.556 73.1355C118.302 74.7175 121.045 76.304 123.78 77.9041C126.059 79.2373 128.348 80.5534 130.643 81.8609C133.194 83.3146 135.736 84.7809 138.269 86.2653C139.657 87.0777 141.047 87.8836 142.444 88.6808C142.751 88.8569 143.059 89.033 143.367 89.2092C143.95 89.5422 144.533 89.8743 145.117 90.2052C148.965 92.4073 151.615 94.2962 152.972 98.6735C153.147 99.9607 153.15 101.236 153.139 102.533C153.14 102.913 153.142 103.294 153.145 103.675C153.15 104.713 153.148 105.751 153.144 106.789C153.141 107.912 153.145 109.035 153.149 110.158C153.155 112.353 153.153 114.549 153.15 116.745C153.147 118.529 153.146 120.313 153.148 122.098C153.148 122.352 153.148 122.606 153.148 122.868C153.149 123.385 153.149 123.902 153.15 124.418C153.153 129.257 153.149 134.095 153.142 138.934C153.136 143.086 153.137 147.237 153.143 151.389C153.15 156.213 153.153 161.037 153.149 165.861C153.149 166.375 153.148 166.89 153.148 167.404C153.148 167.657 153.147 167.91 153.147 168.171C153.146 169.953 153.148 171.736 153.151 173.519C153.155 175.691 153.154 177.862 153.147 180.034C153.143 181.142 153.142 182.25 153.146 183.358C153.15 184.372 153.148 185.385 153.141 186.399C153.14 186.766 153.14 187.133 153.143 187.5C153.168 190.584 153.168 190.584 152.349 191.603C150.737 192.982 150.737 192.982 149.82 192.982C149.819 192.787 149.819 192.593 149.819 192.393C149.804 180.883 149.784 169.373 149.759 157.863C149.757 156.481 149.754 155.099 149.751 153.717C149.75 153.304 149.75 153.304 149.749 152.883C149.74 148.428 149.733 143.973 149.728 139.518C149.722 134.947 149.713 130.375 149.702 125.804C149.695 122.983 149.69 120.163 149.688 117.342C149.687 115.408 149.683 113.474 149.676 111.539C149.673 110.423 149.67 109.307 149.671 108.191C149.672 107.169 149.669 106.147 149.664 105.124C149.662 104.755 149.662 104.386 149.664 104.017C149.673 101.421 149.397 99.3202 148.063 97.0645C147.948 96.8633 147.833 96.6622 147.715 96.4549C146.179 94.481 144.126 93.3088 141.972 92.1061C141.515 91.8472 141.059 91.5883 140.603 91.3292C140.133 91.0624 139.662 90.7966 139.191 90.5309C137.737 89.7093 136.292 88.8708 134.846 88.0343C134.277 87.7058 133.708 87.3775 133.138 87.0492C118.34 78.5115 103.541 69.9739 88.7427 61.4363C88.4609 61.2737 88.1791 61.1111 87.8888 60.9437C87.32 60.6155 86.7513 60.2874 86.1826 59.9592C84.7533 59.1345 83.3239 58.3102 81.8941 57.4866C79.1485 55.9046 76.4057 54.3181 73.6705 52.718C71.3909 51.3848 69.1019 50.0687 66.8075 48.7612C64.2542 47.306 61.7095 45.837 59.1729 44.3528C56.9739 43.0666 54.768 41.7927 52.5597 40.5225C51.0962 39.6799 49.6358 38.8323 48.1807 37.9752C47.8898 37.8042 47.599 37.6332 47.2993 37.457C46.7425 37.1293 46.1863 36.8006 45.6307 36.4709C45.3832 36.3253 45.1356 36.1797 44.8806 36.0296C44.5537 35.8361 44.5537 35.8361 44.2203 35.6387C43.7121 35.3233 43.7121 35.3233 43.1649 35.3637C43.0348 35.6237 43.0348 35.6237 42.9022 35.8891C43.0912 35.9608 43.2802 36.0325 43.475 36.1063C44.2034 36.4093 44.871 36.7553 45.5589 37.141C45.8184 37.2862 46.078 37.4315 46.3454 37.5811C46.6232 37.7379 46.9011 37.8947 47.1874 38.0563C47.4787 38.22 47.7699 38.3838 48.07 38.5525C50.557 39.9553 53.0247 41.3902 55.488 42.8341C57.1444 43.8047 58.8066 44.7652 60.47 45.7237C60.7537 45.8873 61.0375 46.0508 61.3299 46.2193C61.9051 46.5508 62.4804 46.8822 63.0557 47.2136C64.4818 48.0353 65.9073 48.858 67.3329 49.6806C67.9021 50.009 68.4713 50.3374 69.0405 50.6657C70.1788 51.3225 71.3172 51.9792 72.4555 52.636C72.7373 52.7985 73.0191 52.9611 73.3094 53.1286C73.8782 53.4567 74.4469 53.7849 75.0157 54.113C76.4449 54.9377 77.8743 55.762 79.3041 56.5856C82.0497 58.1677 84.7925 59.7542 87.5277 61.3542C89.8073 62.6874 92.0963 64.0035 94.3907 65.3111C96.9444 66.7664 99.4893 68.2358 102.026 69.72C104.791 71.3367 107.566 72.9355 110.341 74.534C111.767 75.3557 113.193 76.1784 114.618 77.001C115.187 77.3294 115.757 77.6578 116.326 77.9862C119.741 79.9564 123.156 81.9266 126.571 83.8968C126.853 84.0594 127.135 84.222 127.425 84.3894C127.994 84.7176 128.562 85.0457 129.131 85.3739C130.56 86.1986 131.99 87.0229 133.42 87.8465C134.557 88.502 135.695 89.1584 136.832 89.8157C137.982 90.4811 139.135 91.1427 140.29 91.8023C140.856 92.1279 141.422 92.4536 141.988 92.7793C142.247 92.9262 142.506 93.0732 142.773 93.2247C144.667 94.3189 146.422 95.3952 147.521 97.3436C147.642 97.5519 147.762 97.7601 147.886 97.9747C148.063 98.3206 148.063 98.3206 148.243 98.6735C148.379 98.9143 148.514 99.1551 148.653 99.4032C149.298 100.935 149.141 102.615 149.133 104.247C149.134 104.63 149.136 105.014 149.138 105.397C149.141 106.448 149.14 107.499 149.138 108.55C149.137 109.685 149.14 110.819 149.143 111.953C149.148 114.175 149.148 116.396 149.147 118.617C149.145 120.422 149.146 122.226 149.147 124.031C149.147 124.288 149.148 124.545 149.148 124.809C149.148 125.331 149.149 125.853 149.149 126.375C149.153 131.266 149.151 136.158 149.148 141.049C149.146 145.527 149.149 150.005 149.155 154.483C149.162 159.079 149.164 163.676 149.162 168.272C149.162 170.853 149.162 173.435 149.167 176.016C149.171 178.212 149.171 180.409 149.166 182.605C149.164 183.726 149.163 184.847 149.167 185.969C149.171 186.994 149.17 188.019 149.165 189.045C149.164 189.417 149.165 189.788 149.167 190.16C149.171 190.664 149.167 191.168 149.163 191.672C149.163 191.952 149.163 192.232 149.163 192.521C148.998 193.428 148.686 193.721 147.981 194.295C146.799 195.083 146.799 195.083 146.142 195.083C146.142 194.89 146.142 194.696 146.141 194.497C146.132 183.028 146.117 171.56 146.095 160.091C146.093 158.714 146.09 157.337 146.087 155.959C146.087 155.685 146.086 155.411 146.086 155.128C146.078 150.69 146.073 146.251 146.07 141.813C146.067 137.257 146.06 132.702 146.049 128.147C146.042 125.337 146.039 122.527 146.039 119.716C146.039 117.789 146.035 115.861 146.028 113.933C146.025 112.822 146.022 111.71 146.025 110.598C146.027 109.579 146.024 108.56 146.018 107.54C146.016 107.173 146.017 106.806 146.019 106.438C146.034 103.635 145.636 101.172 143.958 98.8541C143.818 98.6546 143.678 98.4552 143.534 98.2497C141.983 96.4642 140.094 95.3739 138.048 94.2241C137.59 93.9634 137.132 93.7027 136.674 93.4419C136.201 93.1729 135.728 92.9048 135.255 92.6367C133.8 91.8117 132.353 90.973 130.905 90.1359C130.336 89.8074 129.767 89.4791 129.198 89.1508C114.399 80.6131 99.6008 72.0755 84.8023 63.5378C84.5205 63.3753 84.2387 63.2127 83.9484 63.0452C83.3796 62.7171 82.8109 62.3889 82.2421 62.0608C80.8129 61.2361 79.3835 60.4118 77.9537 59.5882C75.208 58.0061 72.4652 56.4196 69.73 54.8196C67.4505 53.4864 65.1615 52.1703 62.8671 50.8627C60.3134 49.4074 57.7684 47.938 55.2313 46.4538C52.4667 44.8371 49.6919 43.2383 46.9168 41.6398C45.7749 40.9818 44.6334 40.3233 43.4919 39.6646C42.9238 39.3368 42.3557 39.0091 41.7876 38.6814C40.3543 37.8548 38.9214 37.0274 37.4892 36.199C33.7892 34.0596 30.0776 31.942 26.3523 29.847C26.3523 29.6737 26.3523 29.5003 26.3523 29.3216C27.2236 28.7887 28.1007 28.2663 28.9793 27.7455C29.2248 27.5951 29.4703 27.4448 29.7232 27.2898C31.2262 26.407 32.2247 25.8701 33.9705 26.1693Z" fill="#030712"/>
<path d="M44.681 68.2347C49.1291 71.1633 52.9844 74.8243 56.2994 78.9725C56.4664 79.1713 56.6333 79.3701 56.8053 79.5749C63.435 87.5497 68.0986 97.6236 69.6969 107.869C69.7421 108.155 69.7873 108.441 69.8339 108.735C70.6463 115.019 70.2025 122.341 66.2819 127.571C65.4418 128.487 64.5652 129.353 63.6549 130.198C62.5933 129.844 62.4681 129.381 61.9146 128.419C61.8242 128.264 61.7339 128.108 61.6409 127.948C61.3468 127.441 61.056 126.931 60.7653 126.422C60.5647 126.075 60.3639 125.727 60.163 125.38C59.7618 124.687 59.362 123.992 58.9634 123.297C58.3313 122.195 57.6934 121.096 57.0552 119.997C56.5389 119.108 56.025 118.217 55.5113 117.326C55.6154 117.21 55.7195 117.095 55.8267 116.975C58.4717 113.973 59.6363 110.32 59.5092 106.323C58.975 98.7196 55.8133 91.9405 51.0455 86.0653C50.9323 85.9257 50.8192 85.7861 50.7026 85.6423C47.4111 81.6517 42.4655 78.1094 37.1841 77.5872C34.7662 77.4994 32.661 78.0241 30.7696 79.5677C28.8591 81.392 27.9444 83.4902 27.4849 86.0489C27.4509 86.2285 27.4168 86.4082 27.3818 86.5933C27.2993 87.0299 27.2194 87.467 27.1401 87.9042C24.8419 86.6546 22.5508 85.3924 20.2607 84.1279C19.9069 83.9326 19.553 83.7373 19.1992 83.542C18.3435 83.0697 17.4879 82.5973 16.6323 82.1249C16.5981 80.3954 16.6281 78.7378 16.9442 77.0351C16.9964 76.7504 16.9964 76.7504 17.0496 76.4599C17.9212 72.0244 20.0218 68.0118 23.8133 65.4631C30.4833 61.5218 38.6411 64.4028 44.681 68.2347Z" fill="#3438D0"/>
<path d="M12.6919 86.5898C13.8892 86.9482 14.9035 87.434 15.9848 88.0583C16.1428 88.149 16.3007 88.2396 16.4634 88.3331C16.9638 88.6208 17.463 88.9106 17.9622 89.2004C18.2982 89.3939 18.6343 89.5874 18.9704 89.7807C19.8562 90.2908 20.741 90.8027 21.6236 91.3184C21.8709 91.454 22.1183 91.5897 22.3731 91.7294C22.9371 92.1065 22.9371 92.1065 23.1341 92.8125C23.1558 93.0996 23.1774 93.3868 23.1998 93.6826C24.1865 102.473 28.6519 110.724 35.3659 116.472C38.8292 119.194 42.8675 121.286 47.3678 121.003C47.8332 120.923 48.2972 120.834 48.7593 120.737C49.1081 120.665 49.1081 120.665 49.464 120.591C49.6392 120.554 49.8143 120.516 49.9948 120.478C50.0762 120.616 50.1577 120.754 50.2416 120.896C50.4931 121.322 50.7446 121.747 50.9962 122.173C51.2952 122.679 51.5938 123.186 51.8923 123.692C52.684 125.035 53.4792 126.375 54.2847 127.709C54.6756 128.357 55.0651 129.006 55.4544 129.655C55.6458 129.973 55.838 130.291 56.031 130.608C56.3023 131.054 56.5709 131.502 56.8393 131.95C56.995 132.208 57.1507 132.465 57.3112 132.731C57.4108 132.935 57.5104 133.139 57.613 133.35C57.3503 133.875 57.3503 133.875 56.8536 134.09C56.5468 134.187 56.5468 134.187 56.2338 134.286C56.032 134.351 55.8302 134.416 55.6222 134.484C49.7893 136.13 44.3281 133.994 39.2242 131.248C38.1218 130.618 37.0868 129.91 36.0719 129.147C35.8535 128.983 35.635 128.82 35.41 128.651C31.7582 125.816 28.3998 122.55 25.564 118.902C25.4537 118.76 25.3433 118.619 25.2296 118.473C18.5059 109.79 12.2794 97.82 12.6919 86.5898Z" fill="#CCFE41"/>
<path d="M91.7636 99.4609C92.8061 99.6487 93.5426 99.9338 94.4593 100.473C94.728 100.629 94.9967 100.786 95.2736 100.947C95.5619 101.118 95.8503 101.288 96.1473 101.464C96.4525 101.643 96.7578 101.821 97.0632 101.999C97.6974 102.369 98.3312 102.741 98.9645 103.112C100.412 103.961 101.868 104.797 103.322 105.634C103.891 105.963 104.461 106.291 105.03 106.619C105.452 106.863 105.452 106.863 105.884 107.112C106.737 107.605 107.591 108.097 108.445 108.59C108.727 108.752 109.009 108.915 109.299 109.083C109.866 109.409 110.432 109.736 110.999 110.063C112.31 110.82 113.622 111.577 114.935 112.331C115.393 112.594 115.851 112.857 116.309 113.12C116.878 113.447 117.447 113.774 118.016 114.1C118.527 114.394 119.036 114.693 119.542 114.996C120.39 115.498 120.39 115.498 121.288 115.893C123.633 117.065 123.633 117.065 124.112 118.454C124.209 119.534 124.198 120.563 124.146 121.642C124.14 122.034 124.135 122.426 124.131 122.817C124.118 123.842 124.085 124.866 124.047 125.89C124.012 126.938 123.996 127.986 123.979 129.034C123.943 131.086 123.885 133.137 123.813 135.188C122.925 134.983 122.241 134.673 121.444 134.224C121.184 134.078 120.923 133.932 120.655 133.781C120.375 133.622 120.095 133.463 119.806 133.3C119.514 133.135 119.222 132.97 118.92 132.8C116.43 131.391 113.958 129.952 111.489 128.505C109.833 127.535 108.171 126.574 106.507 125.616C106.225 125.453 105.943 125.29 105.653 125.123C104.49 124.453 103.328 123.784 102.165 123.114C101.276 122.602 100.386 122.089 99.4967 121.577C99.2348 121.426 98.9729 121.275 98.7031 121.12C98.1726 120.814 97.6473 120.499 97.1271 120.176C96.4035 119.783 95.8148 119.545 95.0419 119.301C93.6854 118.81 92.5712 118.301 91.7636 117.062C91.0465 114.379 91.3233 111.468 91.457 108.722C91.5029 107.678 91.5231 106.634 91.5455 105.589C91.5932 103.545 91.6692 101.503 91.7636 99.4609Z" fill="#3438D0"/>
<path d="M53.6727 63.735C55.8165 65.2416 57.8169 66.9205 59.7147 68.7262C59.8546 68.8589 59.9944 68.9916 60.1385 69.1284C62.2656 71.16 64.1956 73.2662 65.9472 75.6301C66.2723 76.0685 66.6028 76.5025 66.9338 76.9365C74.6507 87.2232 79.8788 100.891 78.2359 113.87C77.4468 118.109 75.5944 122.795 71.9332 125.336C69.3633 127.045 69.3633 127.045 68.6464 127.045C69.0262 125.842 69.4816 124.681 69.9599 123.515C71.2078 120.317 71.3816 117.064 71.3719 113.664C71.3717 113.475 71.3716 113.285 71.3715 113.091C71.36 109.773 71.0529 106.621 70.2226 103.402C70.1663 103.182 70.11 102.962 70.052 102.736C68.7599 97.835 66.829 93.1562 64.4433 88.6912C64.3523 88.5193 64.2613 88.3475 64.1675 88.1704C61.4485 83.0707 58.0597 78.2055 53.8667 74.2008C53.41 73.7175 53.41 73.7175 53.41 73.1921C53.2526 73.1216 53.0951 73.0512 52.9329 72.9786C52.351 72.6622 52.0291 72.3658 51.5876 71.8786C45.7803 65.936 38.1941 62.783 30.03 62.1588C31.0736 60.9877 32.5231 60.8498 34.0228 60.7386C42.0145 60.4581 49.0482 64.6769 54.7892 69.9084C55.2954 70.3872 55.7989 70.8688 56.2997 71.3532C56.4296 71.4763 56.5595 71.5995 56.6933 71.7263C58.7974 73.7223 60.6103 75.8595 62.3417 78.1833C62.452 78.3288 62.5623 78.4743 62.676 78.6242C68.2019 85.9295 72.5011 94.8788 74.021 103.944C74.0679 104.112 74.1148 104.28 74.163 104.453C74.3364 104.54 74.5098 104.626 74.6884 104.716C73.7455 99.2632 72.1147 94.1945 69.6972 89.2166C69.593 89.0013 69.4888 88.7861 69.3814 88.5643C66.6161 82.9233 63.1729 77.8995 58.941 73.2649C58.4786 72.7524 58.0356 72.2306 57.5967 71.698C56.7276 70.6832 55.7517 69.8394 54.7235 68.9889C54.5863 68.8733 54.449 68.7577 54.3076 68.6386C48.129 63.4481 41.807 60.5938 33.7078 60.0573C38.4456 55.3194 49.3443 60.8033 53.6727 63.735Z" fill="#030712"/>
<path d="M35.5467 85.8027C35.5782 85.9717 35.6097 86.1407 35.6422 86.3148C37.1823 94.4396 40.0674 100.995 45.7918 107.081C45.9361 107.242 46.0804 107.404 46.229 107.57C48.799 110.33 52.5961 112.674 56.2997 113.386C55.7067 115.626 53.2307 116.792 51.3762 117.895C48.6216 119.447 46.0243 119.965 42.8858 119.149C35.6776 116.616 30.6949 110.289 27.4031 103.666C25.6623 99.9671 24.6393 96.1923 24.5134 92.1074C28.8461 89.5457 28.8461 89.5457 30.4077 88.6596C30.5807 88.5614 30.7538 88.4632 30.932 88.362C31.3435 88.167 31.3435 88.167 31.8689 88.167C31.8892 88.484 31.8892 88.484 31.91 88.8073C32.6235 96.2024 36.2981 103.694 41.5887 108.92C41.7621 109.007 41.9355 109.093 42.1141 109.183C41.6001 108.267 41.0143 107.459 40.3494 106.647C36.5092 101.949 33.5689 96.3159 32.657 90.2686C32.5986 89.9069 32.5986 89.9069 32.539 89.5379C32.4699 88.7489 32.4543 88.1478 32.657 87.3789C33.3726 86.713 34.5121 85.8027 35.5467 85.8027Z" fill="#030712"/>
<path d="M37.9108 79.2344C44.2218 80.49 48.867 85.0387 52.3789 90.2139C55.5834 95.098 57.9236 100.74 57.9578 106.62C57.9593 106.863 57.9607 107.105 57.9623 107.355C57.9458 108.912 57.7365 110.301 57.3503 111.809C55.5416 112.352 53.6959 111.193 52.1107 110.343C50.3516 109.271 48.8511 107.978 47.3678 106.555C47.1457 106.343 46.9235 106.132 46.6947 105.914C46.4834 105.692 46.2721 105.47 46.0543 105.241C45.8857 105.071 45.7171 104.901 45.5433 104.726C40.2823 99.2086 37.1062 91.4269 37.0242 83.8316C37.0205 83.6149 37.0168 83.3983 37.0131 83.1751C37.0246 81.6963 37.3225 80.5915 37.9108 79.2344Z" fill="#030712"/>
<path d="M110.415 151.213C111.52 151.549 112.468 151.967 113.464 152.55C113.742 152.711 114.02 152.872 114.306 153.038C114.907 153.392 115.507 153.748 116.105 154.107C116.411 154.29 116.718 154.473 117.025 154.656C117.177 154.746 117.328 154.836 117.485 154.929C118.426 155.478 119.369 155.929 120.38 156.332C123.053 157.457 123.053 157.457 123.813 158.568C124.398 160.883 124.119 163.32 123.813 165.661C122.782 165.505 122.025 165.191 121.119 164.679C120.854 164.53 120.588 164.381 120.315 164.227C119.892 163.986 119.892 163.986 119.462 163.74C119.173 163.577 118.883 163.413 118.586 163.244C111.098 158.988 111.098 158.988 110.415 158.306C110.392 157.78 110.387 157.254 110.39 156.728C110.39 156.409 110.391 156.09 110.392 155.761C110.394 155.425 110.397 155.089 110.399 154.743C110.4 154.406 110.401 154.069 110.402 153.721C110.406 152.885 110.41 152.049 110.415 151.213Z" fill="#CBFD41"/>
<path d="M91.7636 99.4609C92.8061 99.6487 93.5426 99.9338 94.4593 100.473C94.728 100.629 94.9967 100.786 95.2736 100.947C95.5619 101.118 95.8503 101.288 96.1473 101.464C96.4525 101.643 96.7578 101.821 97.0632 101.999C97.6974 102.369 98.3312 102.741 98.9645 103.112C100.412 103.961 101.868 104.797 103.322 105.634C103.891 105.963 104.461 106.291 105.03 106.619C105.452 106.863 105.452 106.863 105.884 107.112C106.737 107.605 107.591 108.097 108.445 108.59C108.727 108.752 109.009 108.915 109.299 109.083C109.866 109.409 110.432 109.736 110.999 110.063C112.31 110.82 113.622 111.577 114.935 112.331C115.393 112.594 115.851 112.857 116.309 113.12C116.878 113.447 117.447 113.774 118.016 114.1C118.527 114.394 119.036 114.693 119.542 114.996C120.39 115.498 120.39 115.498 121.288 115.893C123.633 117.065 123.633 117.065 124.112 118.454C124.209 119.534 124.198 120.563 124.146 121.642C124.14 122.034 124.135 122.426 124.131 122.817C124.118 123.842 124.085 124.866 124.047 125.89C124.012 126.938 123.996 127.986 123.979 129.034C123.943 131.086 123.885 133.137 123.813 135.188C122.925 134.983 122.241 134.673 121.444 134.224C121.184 134.078 120.923 133.932 120.655 133.781C120.375 133.622 120.095 133.463 119.806 133.3C119.514 133.135 119.222 132.97 118.92 132.8C116.43 131.391 113.958 129.952 111.489 128.505C109.833 127.535 108.171 126.574 106.507 125.616C106.225 125.453 105.943 125.29 105.653 125.123C104.49 124.453 103.328 123.784 102.165 123.114C101.276 122.602 100.386 122.089 99.4967 121.577C99.2348 121.426 98.9729 121.275 98.7031 121.12C98.1726 120.814 97.6473 120.499 97.1271 120.176C96.4035 119.783 95.8148 119.545 95.0419 119.301C93.6854 118.81 92.5712 118.301 91.7636 117.062C91.0465 114.379 91.3233 111.468 91.457 108.722C91.5029 107.678 91.5231 106.634 91.5455 105.589C91.5932 103.545 91.6692 101.503 91.7636 99.4609ZM92.5517 100.512C92.4477 102.555 92.3686 104.598 92.3203 106.644C92.2971 107.594 92.2657 108.542 92.2148 109.492C91.8365 113.475 91.8365 113.475 92.9518 117.116C93.9757 118.041 95.1508 118.518 96.4446 118.957C97.2628 119.252 97.9694 119.687 98.7076 120.143C99.2332 120.446 99.759 120.749 100.285 121.051C100.876 121.392 101.466 121.732 102.057 122.072C102.354 122.243 102.65 122.414 102.956 122.59C104.392 123.417 105.827 124.246 107.263 125.074C108.992 126.071 110.721 127.069 112.45 128.066C112.742 128.234 113.033 128.403 113.334 128.576C113.91 128.908 114.486 129.24 115.062 129.572C116.386 130.335 117.709 131.101 119.028 131.874C119.26 132.01 119.493 132.146 119.733 132.286C120.164 132.539 120.595 132.793 121.026 133.047C121.962 133.656 121.962 133.656 123.024 133.874C123.104 131.856 123.164 129.837 123.201 127.818C123.219 126.88 123.243 125.943 123.282 125.005C123.626 121.171 123.626 121.171 122.73 117.591C121.865 116.692 120.768 116.378 119.609 116.011C119.073 115.714 118.543 115.405 118.022 115.082C117.484 114.773 116.946 114.464 116.408 114.156C115.96 113.898 115.513 113.641 115.066 113.384C114.607 113.12 114.147 112.856 113.688 112.593C112.246 111.764 110.805 110.932 109.364 110.1C107.651 109.111 105.937 108.123 104.223 107.136C103.649 106.805 103.075 106.474 102.501 106.143C102.223 105.983 101.945 105.823 101.658 105.657C100.202 104.817 98.7481 103.974 97.2977 103.124C97.0053 102.953 96.7129 102.782 96.4117 102.606C95.8514 102.277 95.2913 101.948 94.7316 101.619C94.4833 101.473 94.2349 101.328 93.9791 101.178C93.7598 101.049 93.5405 100.92 93.3146 100.787C92.8712 100.491 92.8712 100.491 92.5517 100.512Z" fill="#64748B"/>
<path d="M54.461 118.377C54.8097 118.87 54.8097 118.87 55.1649 119.521C55.2991 119.763 55.4332 120.006 55.5714 120.255C55.7857 120.65 55.7857 120.65 56.0043 121.053C56.3085 121.603 56.6133 122.153 56.9186 122.703C57.0755 122.986 57.2324 123.269 57.3941 123.561C58.3017 125.177 59.254 126.766 60.2037 128.357C60.3387 128.584 60.4737 128.81 60.6128 129.044C60.7314 129.242 60.8499 129.44 60.9721 129.644C61.2737 130.168 61.5461 130.708 61.8165 131.249C60.5161 132.029 60.5161 132.029 59.1895 132.825C58.4899 131.981 57.8882 131.139 57.3424 130.189C57.1958 129.935 57.0492 129.682 56.8982 129.42C56.7441 129.152 56.59 128.883 56.4312 128.606C55.0633 126.235 53.6747 123.88 52.2429 121.548C52.0578 121.243 52.0578 121.243 51.8689 120.932C51.7602 120.755 51.6516 120.578 51.5396 120.395C51.3086 119.953 51.3086 119.953 51.3086 119.428C51.6843 119.2 52.0624 118.976 52.4415 118.754C52.7569 118.567 52.7569 118.567 53.0787 118.376C53.6729 118.114 53.6729 118.114 54.461 118.377Z" fill="#030712"/>
<path d="M110.415 151.213C111.52 151.549 112.468 151.967 113.464 152.55C113.742 152.711 114.02 152.872 114.306 153.038C114.907 153.392 115.507 153.748 116.105 154.107C116.411 154.29 116.718 154.473 117.025 154.656C117.177 154.746 117.328 154.836 117.485 154.929C118.426 155.478 119.369 155.929 120.38 156.332C123.053 157.457 123.053 157.457 123.813 158.568C124.398 160.883 124.119 163.32 123.813 165.661C122.782 165.505 122.025 165.191 121.119 164.679C120.854 164.53 120.588 164.381 120.315 164.227C119.892 163.986 119.892 163.986 119.462 163.74C119.173 163.577 118.883 163.413 118.586 163.244C111.098 158.988 111.098 158.988 110.415 158.306C110.392 157.78 110.387 157.254 110.39 156.728C110.39 156.409 110.391 156.09 110.392 155.761C110.394 155.425 110.397 155.089 110.399 154.743C110.4 154.406 110.401 154.069 110.402 153.721C110.406 152.885 110.41 152.049 110.415 151.213ZM111.203 152.526C111.203 154.347 111.203 156.167 111.203 158.043C111.575 158.253 111.948 158.463 112.331 158.679C112.847 158.971 113.363 159.262 113.88 159.554C114.149 159.706 114.419 159.858 114.697 160.015C116.089 160.801 117.479 161.591 118.866 162.387C119.118 162.532 119.37 162.676 119.63 162.826C120.115 163.104 120.599 163.383 121.083 163.662C121.301 163.787 121.518 163.912 121.742 164.041C121.933 164.151 122.125 164.262 122.322 164.375C122.717 164.631 122.717 164.631 123.025 164.61C123.025 162.79 123.025 160.969 123.025 159.094C122.583 158.84 122.142 158.586 121.688 158.324C121.245 158.069 120.802 157.814 120.36 157.559C120.047 157.379 119.733 157.198 119.42 157.018C117.864 156.122 116.309 155.225 114.765 154.307C114.56 154.185 114.354 154.063 114.143 153.937C113.767 153.712 113.391 153.487 113.017 153.261C112.169 152.709 112.169 152.709 111.203 152.526Z" fill="#64748B"/>
<path d="M36.0722 79.2339C36.2857 80.8837 36.3765 82.4688 35.5468 83.9624C34.2202 85.1803 30.6166 87.9029 28.7167 87.9029C28.8449 84.89 29.6701 82.7649 31.7715 80.5669C33.0937 79.4102 34.3355 79.1995 36.0722 79.2339Z" fill="#030712"/>
<path d="M17.8739 84.3347C18.113 84.476 18.3522 84.6173 18.5986 84.7629C18.8661 84.92 19.1336 85.0771 19.4092 85.239C19.8227 85.4848 19.8227 85.4848 20.2445 85.7357C20.5161 85.8955 20.7877 86.0553 21.0675 86.22C22.7469 87.2099 24.4194 88.211 26.0895 89.2164C25.4347 89.8882 24.8528 90.4013 23.988 90.7926C22.9013 90.4528 21.9291 89.8814 20.9351 89.3334C20.7716 89.2433 20.6081 89.1533 20.4397 89.0605C20.0953 88.8705 19.7511 88.6802 19.4071 88.4895C18.8849 88.2002 18.3619 87.9124 17.8387 87.6248C17.5026 87.4392 17.1665 87.2534 16.8305 87.0676C16.528 86.9004 16.2254 86.7331 15.9137 86.5608C15.0752 86.075 14.2797 85.5596 13.4801 85.0132C15.0444 83.3372 15.8167 83.2652 17.8739 84.3347Z" fill="#030712"/>
<path d="M91.7637 121.266C92.7346 121.418 93.4547 121.683 94.3055 122.172C94.5412 122.306 94.777 122.44 95.0199 122.578C95.3992 122.798 95.3992 122.798 95.7862 123.022C96.0532 123.175 96.3201 123.328 96.5951 123.485C98.7239 124.707 100.843 125.944 102.961 127.185C104.436 128.049 105.916 128.905 107.401 129.751C107.568 129.846 107.734 129.941 107.906 130.038C108.719 130.501 109.532 130.963 110.346 131.424C110.64 131.592 110.935 131.759 111.238 131.932C111.498 132.079 111.758 132.226 112.025 132.378C112.825 132.851 113.603 133.329 114.356 133.875C114.356 134.048 114.356 134.222 114.356 134.4C113.242 134.262 112.447 134.023 111.486 133.446C111.242 133.301 110.998 133.157 110.747 133.007C110.485 132.849 110.224 132.691 109.955 132.529C109.388 132.191 108.82 131.854 108.252 131.517C107.959 131.342 107.666 131.167 107.364 130.987C105.937 130.141 104.498 129.316 103.06 128.49C100.759 127.164 98.4594 125.835 96.1638 124.5C95.9028 124.349 95.6417 124.197 95.3727 124.041C92.6845 122.475 92.6845 122.475 91.7637 121.791C91.7637 121.618 91.7637 121.444 91.7637 121.266Z" fill="#64748B"/>
<path d="M91.7637 135.715C92.8079 135.87 93.5518 136.193 94.4594 136.727C94.7282 136.883 94.9971 137.04 95.274 137.201C95.5622 137.372 95.8505 137.542 96.1474 137.718C96.4514 137.896 96.7556 138.074 97.0598 138.251C97.6929 138.621 98.3254 138.992 98.9577 139.363C100.155 140.064 101.359 140.754 102.562 141.445C104.98 142.832 107.392 144.23 109.791 145.648C110.016 145.779 110.24 145.91 110.471 146.044C110.673 146.164 110.874 146.285 111.082 146.408C111.347 146.565 111.347 146.565 111.617 146.724C111.741 146.819 111.864 146.913 111.991 147.011C111.991 147.184 111.991 147.358 111.991 147.536C110.878 147.397 110.083 147.159 109.122 146.582C108.878 146.437 108.634 146.292 108.382 146.143C108.121 145.985 107.86 145.827 107.591 145.664C107.025 145.328 106.458 144.991 105.892 144.655C105.599 144.48 105.306 144.305 105.004 144.125C103.554 143.266 102.091 142.431 100.63 141.593C99.5124 140.948 98.3961 140.302 97.2803 139.655C97.0139 139.501 96.7475 139.347 96.4731 139.188C95.7281 138.755 94.9852 138.319 94.2429 137.882C94.0208 137.754 93.7988 137.625 93.57 137.493C93.2686 137.314 93.2686 137.314 92.9612 137.131C92.7859 137.028 92.6107 136.925 92.4301 136.819C92.0264 136.503 92.0264 136.503 91.7637 135.715Z" fill="#64748B"/>
<path d="M91.7637 132.561C92.7801 132.716 93.5278 133.018 94.4204 133.524C94.8101 133.743 94.8101 133.743 95.2076 133.967C95.4852 134.126 95.7629 134.285 96.0489 134.449C96.3381 134.612 96.6272 134.776 96.9251 134.945C99.7135 136.529 102.487 138.139 105.25 139.767C105.905 140.153 106.562 140.535 107.22 140.917C107.584 141.13 107.949 141.344 108.314 141.558C108.477 141.652 108.641 141.746 108.81 141.843C109.179 142.062 109.536 142.3 109.89 142.543C109.89 142.716 109.89 142.89 109.89 143.068C108.72 142.928 107.9 142.645 106.887 142.047C106.616 141.889 106.346 141.731 106.066 141.568C105.779 141.397 105.491 141.225 105.194 141.049C104.891 140.871 104.588 140.693 104.285 140.516C103.66 140.149 103.036 139.781 102.412 139.413C101.528 138.891 100.641 138.374 99.7523 137.86C98.2246 136.974 96.7004 136.083 95.1787 135.188C94.9795 135.07 94.7802 134.953 94.575 134.833C94.0742 134.537 93.5753 134.239 93.0772 133.94C92.8171 133.784 92.557 133.628 92.2891 133.468C92.1157 133.342 91.9423 133.216 91.7637 133.086C91.7637 132.913 91.7637 132.739 91.7637 132.561Z" fill="#64748B"/>
<path d="M92.0264 94.4707C94.1139 95.4857 96.1374 96.5715 98.1341 97.7544C98.6802 98.0768 99.2265 98.399 99.7728 98.721C100.052 98.8855 100.331 99.05 100.618 99.2195C101.503 99.7358 102.392 100.241 103.284 100.745C103.574 100.909 103.864 101.074 104.162 101.244C104.721 101.561 105.281 101.877 105.843 102.189C106.095 102.333 106.346 102.476 106.605 102.625C106.939 102.812 106.939 102.812 107.28 103.004C107.788 103.402 107.788 103.402 107.993 103.976C108.012 104.134 108.031 104.291 108.051 104.453C107.096 104.092 106.22 103.664 105.329 103.164C105.06 103.014 104.791 102.863 104.514 102.707C104.086 102.466 104.086 102.466 103.651 102.22C103.21 101.972 103.21 101.972 102.76 101.719C100.391 100.383 98.0386 99.0196 95.7041 97.6231C95.5162 97.5108 95.3283 97.3985 95.1347 97.2828C94.0099 96.61 92.8863 95.9353 91.7637 95.2588C91.8504 94.9987 91.9371 94.7387 92.0264 94.4707Z" fill="#64748B"/>
<path d="M91.7637 91.3184C92.7204 91.4992 93.4648 91.9035 94.3116 92.3763C94.6057 92.54 94.8998 92.7036 95.2028 92.8722C95.5177 93.0492 95.8326 93.2263 96.1474 93.4035C96.4683 93.583 96.7891 93.7625 97.11 93.942C98.9213 94.957 100.726 95.9823 102.518 97.032C102.694 97.1353 102.871 97.2385 103.053 97.3449C104.756 98.354 104.756 98.354 105.424 98.9366C105.424 99.1099 105.424 99.2833 105.424 99.4619C104.311 99.3054 103.517 98.9177 102.549 98.3558C102.401 98.2706 102.252 98.1854 102.1 98.0976C101.62 97.8209 101.141 97.5415 100.663 97.2619C100.333 97.0705 100.003 96.8792 99.6725 96.6881C99.1752 96.3999 98.6781 96.1116 98.1814 95.8225C97.1795 95.2396 96.1727 94.6668 95.1603 94.1023C94.9277 93.9716 94.6951 93.8408 94.4554 93.7061C94.0266 93.4653 93.5966 93.2265 93.1653 92.9901C92.6849 92.7176 92.2217 92.415 91.7637 92.1064C91.7637 91.8464 91.7637 91.5863 91.7637 91.3184Z" fill="#64748B"/>
<path d="M91.7637 147.01C92.8478 147.166 93.6185 147.526 94.561 148.077C94.8451 148.242 95.1293 148.407 95.4221 148.577C95.7241 148.755 96.0261 148.933 96.328 149.111C96.6358 149.291 96.9436 149.471 97.2514 149.651C97.8588 150.007 98.4653 150.363 99.0715 150.721C99.7903 151.144 100.511 151.564 101.233 151.982C101.59 152.19 101.947 152.399 102.304 152.608C102.466 152.701 102.627 152.794 102.793 152.89C103.154 153.104 103.503 153.339 103.848 153.577C103.848 153.751 103.848 153.924 103.848 154.103C102.689 153.963 101.877 153.689 100.877 153.093C100.617 152.94 100.358 152.787 100.09 152.629C99.8187 152.465 99.5469 152.301 99.2669 152.132C98.9879 151.966 98.7088 151.8 98.4213 151.629C97.8622 151.296 97.3036 150.962 96.7457 150.627C96.0623 150.219 95.3758 149.818 94.6862 149.42C94.3304 149.213 93.9747 149.006 93.619 148.799C93.3772 148.662 93.3772 148.662 93.1306 148.521C92.0562 147.887 92.0562 147.887 91.7637 147.01Z" fill="#64748B"/>
<path d="M91.7637 124.418C92.81 124.572 93.5493 124.897 94.4553 125.437C94.717 125.591 94.9788 125.746 95.2485 125.905C95.661 126.152 95.661 126.152 96.0817 126.405C96.6478 126.74 97.2139 127.074 97.78 127.409C98.0539 127.572 98.3279 127.735 98.6101 127.902C99.6061 128.491 100.609 129.068 101.615 129.639C101.899 129.801 102.184 129.963 102.477 130.13C102.669 130.239 102.861 130.348 103.06 130.46C103.06 130.72 103.06 130.98 103.06 131.248C102.013 131.094 101.274 130.769 100.368 130.229C100.106 130.075 99.8445 129.92 99.5748 129.761C99.2998 129.596 99.0248 129.431 98.7415 129.261C98.1755 128.926 97.6094 128.592 97.0433 128.257C96.7693 128.094 96.4954 127.931 96.2132 127.764C95.2172 127.175 94.2146 126.598 93.2085 126.027C92.9241 125.865 92.6396 125.703 92.3465 125.536C92.1542 125.427 91.9618 125.318 91.7637 125.206C91.7637 124.946 91.7637 124.686 91.7637 124.418Z" fill="#64748B"/>
<path d="M92.0264 140.441C99.7569 144.141 99.7569 144.141 102.534 146.483C102.534 146.657 102.534 146.83 102.534 147.009C101.431 146.853 100.649 146.475 99.6907 145.914C99.3987 145.744 99.1066 145.574 98.8057 145.399C98.4997 145.219 98.1937 145.038 97.8878 144.858C97.59 144.684 97.2921 144.511 96.9853 144.332C95.2368 143.311 93.4971 142.276 91.7637 141.229C91.8504 140.969 91.9371 140.709 92.0264 140.441Z" fill="#64748B"/>
<path d="M91.7637 143.857C93.1243 144.004 94.1768 144.67 95.3429 145.335C95.5516 145.453 95.7604 145.571 95.9754 145.692C99.6782 147.797 99.6782 147.797 100.695 148.586C100.695 148.759 100.695 148.933 100.695 149.111C99.6051 148.954 98.8102 148.586 97.8539 148.046C97.5666 147.885 97.2793 147.723 96.9832 147.557C96.537 147.302 96.537 147.302 96.0817 147.043C95.7832 146.875 95.4847 146.707 95.1772 146.535C92.514 145.029 92.514 145.029 91.7637 144.383C91.7637 144.209 91.7637 144.036 91.7637 143.857Z" fill="#64748B"/>
<path d="M74.6884 111.021C74.9484 111.021 75.2085 111.021 75.4764 111.021C75.5783 112.945 75.4289 114.775 75.1152 116.669C75.0656 116.976 75.0656 116.976 75.0149 117.288C74.8464 118.252 74.6775 119.112 74.163 119.953C73.9896 119.953 73.8162 119.953 73.6376 119.953C73.6725 119.68 73.7073 119.406 73.7433 119.124C73.9439 117.519 74.1262 115.912 74.3107 114.305C74.3471 113.989 74.3835 113.673 74.421 113.347C74.5102 112.572 74.5993 111.797 74.6884 111.021Z" fill="#64748B"/>
<path d="M117.508 135.977C118.848 136.25 119.933 136.973 121.104 137.651C121.45 137.846 121.45 137.846 121.804 138.045C122.024 138.172 122.243 138.299 122.47 138.429C122.771 138.602 122.771 138.602 123.079 138.778C123.55 139.129 123.55 139.129 123.813 139.917C122.321 139.681 121.212 138.993 119.922 138.242C119.689 138.112 119.457 137.982 119.218 137.848C118.999 137.722 118.78 137.595 118.554 137.464C118.353 137.349 118.152 137.234 117.945 137.115C117.801 137 117.657 136.884 117.508 136.765C117.508 136.505 117.508 136.245 117.508 135.977Z" fill="#64748B"/>
<path d="M109.102 101.301C110.441 101.574 111.526 102.297 112.697 102.975C113.044 103.171 113.044 103.171 113.398 103.37C113.617 103.496 113.837 103.623 114.063 103.753C114.365 103.926 114.365 103.926 114.672 104.103C115.144 104.453 115.144 104.453 115.406 105.241C113.915 105.005 112.806 104.317 111.515 103.567C111.283 103.437 111.051 103.306 110.812 103.172C110.593 103.046 110.373 102.919 110.147 102.789C109.947 102.673 109.746 102.558 109.539 102.439C109.395 102.324 109.25 102.208 109.102 102.089C109.102 101.829 109.102 101.569 109.102 101.301Z" fill="#64748B"/>
<path d="M34.4958 30.1094C35.6501 30.5287 36.6736 31.1024 37.7303 31.7184C37.8998 31.8163 38.0693 31.9141 38.2439 32.015C38.6587 32.2546 39.073 32.4954 39.4871 32.7363C39.4871 32.9964 39.4871 33.2565 39.4871 33.5244C38.4 33.341 37.4954 32.7944 36.5482 32.2602C36.3797 32.17 36.2112 32.0797 36.0377 31.9867C34.8153 31.2987 34.8153 31.2987 34.5153 30.566C34.5089 30.4153 34.5025 30.2646 34.4958 30.1094Z" fill="#64748B"/>
<path d="M45.7919 112.07C46.5329 112.231 47.1416 112.457 47.8072 112.818C47.9816 112.912 48.156 113.006 48.3357 113.103C48.5149 113.201 48.694 113.299 48.8786 113.4C49.0618 113.499 49.245 113.598 49.4337 113.7C49.8841 113.944 50.3337 114.189 50.7831 114.435C50.7831 114.608 50.7831 114.781 50.7831 114.96C48.885 114.917 47.2894 113.985 45.7919 112.858C45.7919 112.598 45.7919 112.338 45.7919 112.07Z" fill="#64748B"/>
<path d="M113.568 144.908C114.614 145.299 115.568 145.785 116.539 146.337C116.96 146.572 116.96 146.572 117.39 146.812C117.708 147.04 117.708 147.04 118.033 147.272C118.033 147.533 118.033 147.793 118.033 148.061C116.882 147.717 115.93 147.272 114.914 146.632C114.66 146.475 114.406 146.319 114.144 146.157C113.954 146.005 113.764 145.853 113.568 145.696C113.568 145.436 113.568 145.176 113.568 144.908Z" fill="#64748B"/>
<path d="M104.373 147.799C105.407 147.947 106.157 148.224 107 148.85C107 149.11 107 149.37 107 149.638C105.966 149.49 105.216 149.213 104.373 148.587C104.373 148.327 104.373 148.067 104.373 147.799Z" fill="#64748B"/>
<path d="M35.8095 59.533C35.8961 59.7064 35.9828 59.8798 36.0722 60.0584C35.2919 60.0584 34.5117 60.0584 33.7079 60.0584C34.459 59.3073 34.7948 59.1948 35.8095 59.533Z" fill="#373D4D"/>
<path d="M112.586 1.08617C112.983 1.25642 112.983 1.25642 113.388 1.43011C114.231 1.79295 115.073 2.16038 115.915 2.52792C116.477 2.77022 117.039 3.01223 117.601 3.25393C119.121 3.90928 120.64 4.56815 122.154 5.23698C122.543 5.40751 122.543 5.40751 122.94 5.58148C123.196 5.69491 123.451 5.80834 123.714 5.92521C123.943 6.02661 124.173 6.12802 124.409 6.23249C125.421 6.73981 126.245 7.42071 127.096 8.15948C127.454 8.46044 127.812 8.7611 128.17 9.06147C128.348 9.21178 128.526 9.36209 128.709 9.51695C129.714 10.3551 130.751 11.1525 131.784 11.9548C132.368 12.4098 132.926 12.8567 133.45 13.3806C133.423 13.9217 133.423 13.9217 133.286 14.6345C133.233 14.9182 133.18 15.2019 133.126 15.4942C133.094 15.657 133.062 15.8199 133.03 15.9876C132.913 16.5936 132.801 17.2005 132.69 17.8077C132.468 19.0231 132.243 20.238 132.016 21.4526C131.874 22.2138 131.732 22.9752 131.59 23.7366C131.499 24.2284 131.407 24.7203 131.315 25.2122C131.253 25.5476 131.253 25.5476 131.189 25.8899C131.109 26.3216 131.025 26.7529 130.939 27.1837C130.814 27.8337 130.814 27.8337 130.752 28.5176C130.591 29.7925 130.391 30.5271 129.356 31.3325C128.948 31.6002 128.533 31.8593 128.115 32.111C127.889 32.2559 127.664 32.4007 127.432 32.5499C126.689 33.025 125.941 33.4887 125.191 33.953C124.673 34.2826 124.155 34.6133 123.637 34.9448C122.832 35.461 122.026 35.9766 121.218 36.4893C118.52 38.2022 115.869 39.9816 113.224 41.7751C112.495 42.2692 111.765 42.762 111.036 43.2544C110.586 43.558 110.137 43.8616 109.687 44.1653C109.486 44.301 109.285 44.4367 109.078 44.5765C108.183 45.1826 107.298 45.796 106.427 46.4352C105.604 47.0057 105.604 47.0057 104.908 47.1525C104.069 46.953 103.691 46.5732 103.076 45.9713C102.164 45.1079 101.245 44.2811 100.268 43.4921C99.2037 42.6312 98.1562 41.7543 97.1156 40.8652C95.9503 39.8714 94.7636 38.9133 93.5528 37.9755C92.044 36.8054 90.5968 35.576 89.1602 34.3187C87.75 33.0854 86.3079 31.8962 84.851 30.7185C84.3417 30.3029 83.8327 29.887 83.324 29.4707C82.9883 29.1964 82.9883 29.1964 82.6458 28.9166C81.8891 28.295 81.1368 27.6684 80.3851 27.0408C80.4167 26.8713 80.4482 26.7019 80.4807 26.5273C80.6351 25.6969 80.7892 24.8666 80.9434 24.0362C81.0014 23.7244 81.0594 23.4127 81.1192 23.0915C81.459 21.2598 81.7926 19.4272 82.1183 17.5929C82.2232 17.0052 82.3282 16.4174 82.4333 15.8297C82.5015 15.4462 82.5692 15.0627 82.6363 14.679C82.7313 14.1372 82.8279 13.5957 82.9249 13.0542C82.9798 12.7431 83.0347 12.4319 83.0913 12.1113C83.3567 10.9076 83.5976 10.0083 84.5934 9.24002C84.7518 9.1154 84.9103 8.99079 85.0735 8.86239C85.3291 8.66887 85.3291 8.66887 85.5898 8.47143C85.9507 8.19408 86.3116 7.91668 86.6724 7.63921C86.8532 7.50126 87.034 7.36331 87.2202 7.22118C87.696 6.84813 88.151 6.46159 88.6036 6.06098C90.6142 4.31769 92.4725 3.72031 95.0478 3.25034C95.9773 3.06415 96.8796 2.79404 97.7888 2.52792C99.7904 1.95889 101.805 1.44322 103.826 0.946972C104.33 0.822767 104.834 0.696505 105.338 0.570203C105.652 0.493948 105.965 0.417692 106.288 0.339125C106.568 0.270447 106.847 0.201768 107.135 0.131008C109.271 -0.248281 110.652 0.234262 112.586 1.08617Z" fill="#64748B"/>
<path d="M112.615 2.84519C112.852 2.94728 113.089 3.04937 113.333 3.15456C114.085 3.47956 114.836 3.80834 115.587 4.13712C116.091 4.35507 116.595 4.57279 117.099 4.79027C117.586 5.00094 118.072 5.21181 118.558 5.4229C118.782 5.52008 119.006 5.61727 119.237 5.71739C120.581 6.30649 121.897 6.93435 123.205 7.60143C123.058 9.80132 122.702 11.9266 122.269 14.0868C122.177 14.5558 122.177 14.5558 122.083 15.0344C121.933 15.7969 121.781 16.5592 121.629 17.3212C118.362 18.2398 115.088 19.1303 111.804 19.9828C111.299 20.1145 110.794 20.2475 110.289 20.3817C109.548 20.5788 108.806 20.7719 108.063 20.9641C107.839 21.0245 107.615 21.0849 107.384 21.1472C105.412 21.6488 104.143 21.3616 102.268 20.5628C102.103 20.4931 101.938 20.4233 101.767 20.3514C101.234 20.1257 100.702 19.8975 100.17 19.6691C99.6199 19.4343 99.0701 19.2 98.5202 18.9656C98.1559 18.8103 97.7916 18.6548 97.4274 18.499C96.3734 18.0495 95.3149 17.6162 94.2476 17.1991C94.015 17.1068 93.7824 17.0146 93.5428 16.9195C93.1227 16.7538 92.701 16.5919 92.2777 16.4345C91.7243 16.2129 91.7243 16.2129 90.8931 15.745C90.4816 14.6123 90.7244 13.5557 90.9495 12.4069C90.9849 12.2164 91.0202 12.0258 91.0567 11.8295C91.1695 11.2242 91.2857 10.6196 91.402 10.015C91.4794 9.60334 91.5565 9.19168 91.6334 8.77997C91.8219 7.77367 92.0134 6.76798 92.2066 5.76256C94.1859 5.05944 96.188 4.56564 98.2322 4.08787C100.854 3.46618 103.459 2.81277 106.048 2.07044C106.479 1.94752 106.479 1.94752 106.918 1.82211C107.088 1.76183 107.258 1.70156 107.434 1.63945C109.294 1.36089 110.955 2.11289 112.615 2.84519Z" fill="#030712"/>
<path d="M122.154 19.1591C122.836 19.9045 123.333 20.7375 123.845 21.6055C123.99 21.8369 124.136 22.0684 124.285 22.3068C125.059 23.5735 125.059 23.5735 125.306 24.1503C125.176 24.5404 125.176 24.5404 125.043 24.9384C124.331 25.1991 124.331 25.1991 123.369 25.431C123.013 25.5199 122.657 25.6088 122.301 25.6978C122.11 25.7443 121.918 25.7909 121.721 25.8389C120.604 26.1106 119.49 26.3937 118.377 26.6788C118.047 26.76 118.047 26.76 117.71 26.8428C117.173 26.98 116.641 27.1394 116.112 27.3027C116.025 27.4761 115.938 27.6494 115.849 27.8281C116.113 27.7658 116.376 27.7035 116.648 27.6393C117.629 27.4075 118.611 27.176 119.593 26.9446C120.017 26.8446 120.441 26.7444 120.865 26.6442C121.476 26.4999 122.087 26.3559 122.698 26.2119C122.887 26.1673 123.076 26.1227 123.27 26.0767C124.208 25.8558 125.147 25.6454 126.094 25.4638C126.452 26.0205 126.808 26.5788 127.161 27.1385C127.264 27.297 127.366 27.4555 127.472 27.6187C127.729 28.029 127.964 28.4533 128.196 28.8789C128.066 29.1389 128.066 29.1389 127.933 29.4043C127.261 29.6191 126.602 29.8016 125.918 29.9703C125.707 30.0242 125.496 30.0781 125.279 30.1336C124.578 30.312 123.876 30.4872 123.175 30.6623C122.689 30.7851 122.203 30.908 121.717 31.0311C120.697 31.289 119.676 31.5455 118.655 31.8008C117.346 32.1283 116.038 32.4588 114.73 32.7903C113.726 33.0445 112.722 33.2976 111.717 33.5501C111.235 33.6715 110.752 33.7932 110.27 33.9153C109.596 34.0857 108.921 34.2545 108.246 34.4228C108.046 34.4736 107.846 34.5243 107.641 34.5766C106.75 34.7971 106.003 34.9209 105.078 34.9209C104.985 30.9598 105.273 27.0454 105.604 23.0995C108.797 22.1719 112.013 21.3656 115.25 20.6039C116.647 20.2729 118.027 19.9339 119.395 19.4977C121.326 18.9299 121.326 18.9299 122.154 19.1591Z" fill="#CDFE41"/>
<path d="M89.5795 17.0586C90.4785 17.2155 91.2674 17.4437 92.1064 17.801C92.3387 17.8992 92.5711 17.9974 92.8105 18.0986C93.0581 18.2047 93.3058 18.3109 93.561 18.4203C93.8184 18.5295 94.0758 18.6386 94.341 18.7511C95.1624 19.0997 95.983 19.4501 96.8037 19.8005C97.6244 20.1496 98.4453 20.4983 99.2663 20.847C99.7766 21.064 100.287 21.2812 100.797 21.4987C101.145 21.6473 101.145 21.6473 101.501 21.7989C101.704 21.8856 101.907 21.9723 102.116 22.0616C102.751 22.3278 103.388 22.5841 104.028 22.8379C103.866 26.8755 103.584 30.8959 103.24 34.922C101.71 34.4325 100.223 33.8882 98.7472 33.2575C98.5508 33.1745 98.3544 33.0915 98.152 33.0059C97.5161 32.7369 96.8808 32.4667 96.2454 32.1965C95.8038 32.0094 95.3622 31.8225 94.9205 31.6357C94.2455 31.3501 93.5704 31.0644 92.8956 30.7784C90.6652 29.8333 88.4316 28.8963 86.1973 27.9605C85.8444 27.8126 85.4915 27.6647 85.1387 27.5168C84.3423 27.183 83.5458 26.8493 82.7494 26.5157C83.1703 25.6457 83.6559 24.9214 84.2435 24.1514C84.45 23.8791 84.6566 23.6069 84.8694 23.3264C84.988 23.1704 85.1066 23.0145 85.2288 22.8538C86.0763 21.7356 86.9158 20.6114 87.757 19.4885C88.1049 19.0247 88.4527 18.5609 88.8006 18.0971C88.9507 17.897 89.1007 17.697 89.2553 17.4909C89.3623 17.3482 89.4693 17.2056 89.5795 17.0586Z" fill="#030712"/>
<path d="M124.781 8.91406C126.389 9.16348 127.691 10.3465 128.721 11.541C128.917 12.4978 128.722 13.2408 128.458 14.168C128.404 14.5284 128.354 14.8896 128.311 15.2516C128.273 15.5008 128.235 15.7501 128.196 16.0069C128.369 15.9202 128.543 15.8335 128.721 15.7442C128.886 15.1755 129.024 14.5992 129.148 14.0202C129.216 13.7056 129.285 13.391 129.355 13.0669C129.406 12.8234 129.457 12.58 129.509 12.3291C129.872 12.5244 130.226 12.7357 130.576 12.953C130.874 13.1267 130.874 13.1267 131.177 13.304C131.785 14.1465 131.644 14.6549 131.499 15.6608C131.424 16.0922 131.424 16.0922 131.348 16.5323C131.318 16.7114 131.288 16.8905 131.258 17.0751C131.041 18.3698 130.81 19.6613 130.571 20.9521C130.444 21.6428 130.32 22.334 130.196 23.0253C130.116 23.4657 130.035 23.9061 129.954 24.3465C129.917 24.5525 129.88 24.7585 129.842 24.9708C129.668 25.8975 129.514 26.5081 128.984 27.3028C128.785 26.9881 128.586 26.6734 128.387 26.3587C128.258 26.1553 128.129 25.9518 127.996 25.7421C127.71 25.2895 127.427 24.8357 127.145 24.3808C126.471 23.2957 125.793 22.2388 125.01 21.229C123.74 19.5422 123.017 18.3027 123.269 16.1435C123.422 15.2486 123.614 14.3696 123.836 13.4891C124.033 12.6927 124.184 11.8911 124.336 11.085C124.473 10.359 124.626 9.63658 124.781 8.91406Z" fill="#030712"/>
<path d="M124.518 32.2944C120.988 34.6786 117.456 37.0604 113.923 39.4402C113.282 39.8724 112.641 40.3049 112 40.7375C111.151 41.3098 110.302 41.881 109.452 42.451C109.153 42.6518 108.855 42.8531 108.556 43.0548C108.15 43.3292 107.743 43.602 107.335 43.8746C107.113 44.0242 106.89 44.1738 106.661 44.328C106.129 44.6412 106.129 44.6412 105.604 44.6412C105.377 43.6231 105.268 42.6274 105.194 41.5873C105.172 41.2913 105.15 40.9954 105.127 40.6904C105.087 39.8371 105.074 38.9939 105.076 38.1401C105.076 37.8813 105.076 37.6224 105.077 37.3558C105.077 37.1593 105.078 36.9627 105.079 36.7603C107.457 36.1363 109.837 35.515 112.217 34.8971C113.322 34.6101 114.427 34.3222 115.532 34.0322C116.597 33.7523 117.664 33.475 118.73 33.1993C119.137 33.0936 119.544 32.9871 119.951 32.8797C120.52 32.7294 121.09 32.5823 121.66 32.436C121.984 32.3514 122.309 32.2668 122.643 32.1797C123.406 32.0428 123.805 32.0237 124.518 32.2944Z" fill="#030712"/>
<path d="M86.6897 29.9297C88.3163 30.4457 89.887 31.042 91.4541 31.7162C91.6753 31.8105 91.8965 31.9048 92.1243 32.0019C92.8252 32.3009 93.5255 32.6011 94.2258 32.9014C94.9195 33.1977 95.6133 33.4937 96.3072 33.7896C96.7578 33.9824 97.208 34.1762 97.6577 34.3711C98.6641 34.8066 99.6696 35.2302 100.698 35.6124C100.869 35.6784 101.04 35.7444 101.217 35.8124C101.668 35.9847 102.121 36.1497 102.575 36.3141C103.24 36.7598 103.24 36.7598 103.579 37.6703C103.745 38.6971 103.777 39.6604 103.765 40.7002C103.772 41.0355 103.779 41.3707 103.785 41.7161C103.796 42.5175 103.789 43.3144 103.765 44.1153C101.295 42.3103 98.9614 40.3395 96.6305 38.36C95.2578 37.1958 93.8653 36.0567 92.469 34.9209C91.75 34.333 91.0314 33.7447 90.3131 33.1559C89.7951 32.7329 89.276 32.3114 88.7554 31.8917C88.4909 31.6777 88.2264 31.4637 87.9539 31.2432C87.7118 31.0481 87.4697 30.8531 87.2202 30.6521C87.0451 30.5004 86.8701 30.3487 86.6897 30.1924C86.6897 30.1057 86.6897 30.019 86.6897 29.9297Z" fill="#C9FC40"/>
<path d="M90.1049 7.07617C91.061 8.98833 89.3813 13.7104 88.7914 15.7452C88.1857 17.1249 87.2225 18.1052 86.1644 19.1602C85.6652 19.782 85.1932 20.4232 84.7196 21.0648C83.6202 22.5339 83.6202 22.5339 83.0121 22.838C83.2084 20.6633 83.4647 18.4993 83.7949 16.3411C83.853 15.9445 83.9062 15.5472 83.9542 15.1492C84.2318 12.8743 84.5464 11.2171 86.4097 9.74623C86.9339 9.37165 87.4648 9.00609 88.0033 8.65235C88.4212 8.33752 88.8376 8.02068 89.2511 7.70008C89.535 7.49118 89.8193 7.28279 90.1049 7.07617Z" fill="#030712"/>
<path d="M113.485 27.8281C113.485 28.0882 113.485 28.3483 113.485 28.6162C112.927 28.7922 112.369 28.9672 111.81 29.1416C111.499 29.2391 111.188 29.3367 110.868 29.4371C110.07 29.667 110.07 29.667 109.544 29.667C109.631 29.3202 109.718 28.9735 109.807 28.6162C110.272 28.4836 110.737 28.3526 111.203 28.2222C111.462 28.149 111.721 28.0759 111.988 28.0005C112.697 27.8281 112.697 27.8281 113.485 27.8281Z" fill="#64748B"/>
<path d="M13.3318 138.384C14.391 139.104 14.8678 139.747 15.3349 140.946C15.4736 142.179 15.1561 143.062 14.399 144.032C12.5638 145.951 10.0699 146.46 7.50327 146.561C4.99588 146.506 2.82718 145.792 1.0159 144.026C0.302693 143.201 0.135718 142.551 0 141.487C0.155847 140.215 0.688754 139.48 1.68085 138.676C5.12764 136.252 9.70207 136.37 13.3318 138.384Z" fill="#030712"/>
<path d="M13.3318 138.384C14.391 139.104 14.8678 139.747 15.3349 140.946C15.4736 142.179 15.1561 143.062 14.399 144.032C12.5638 145.951 10.0699 146.46 7.50327 146.561C4.99588 146.506 2.82718 145.792 1.0159 144.026C0.302693 143.201 0.135718 142.551 0 141.487C0.155847 140.215 0.688754 139.48 1.68085 138.676C5.12764 136.252 9.70207 136.37 13.3318 138.384ZM2.15083 140.387C1.61231 141.169 1.61231 141.169 1.64185 142.029C2.12273 143.258 2.91481 143.662 4.0564 144.251C5.24436 144.747 6.39383 144.764 7.66745 144.755C7.89954 144.754 8.13163 144.753 8.37076 144.752C10.1105 144.709 11.5898 144.45 12.9706 143.31C13.63 142.321 13.6575 141.854 13.496 140.683C12.1722 139.189 10.5766 138.673 8.61973 138.497C6.21302 138.424 3.90869 138.567 2.15083 140.387Z" fill="#64748B"/>
<path d="M17.8634 169.741C19.5242 169.877 20.5872 170.666 21.9178 171.586C22.9612 172.27 22.9612 172.27 24.1835 172.244C25.3599 171.633 26.4471 170.913 27.5514 170.182C28.3712 169.741 28.7752 169.636 29.6847 169.741C29.8148 170.261 29.8148 170.261 29.9474 170.792C28.5745 171.725 27.1975 172.615 25.7443 173.418C26.792 174.326 27.9186 174.975 29.1306 175.635C29.6847 176.045 29.6847 176.045 29.9105 176.604C29.9227 176.766 29.9349 176.929 29.9474 177.096C29.6847 177.359 29.6847 177.359 29.1511 177.459C27.7698 177.281 26.6881 176.376 25.5442 175.62C24.4646 174.89 24.4646 174.89 23.2241 174.846C23.0155 174.982 22.8069 175.117 22.5919 175.257C22.2994 175.429 22.0068 175.601 21.7053 175.778C21.2253 176.068 20.7473 176.361 20.2728 176.661C19.5046 177.121 19.0485 177.371 18.1425 177.29C17.9637 177.226 17.7849 177.162 17.6007 177.096C17.6007 176.749 17.6007 176.403 17.6007 176.045C17.9624 175.709 17.9624 175.709 18.4627 175.426C18.6405 175.322 18.8182 175.219 19.0014 175.113C19.1894 175.009 19.3773 174.905 19.5709 174.798C19.7589 174.69 19.9468 174.582 20.1404 174.47C20.6054 174.204 21.073 173.942 21.5412 173.681C20.8152 172.918 20.0451 172.447 19.1276 171.924C18.8422 171.761 18.5567 171.597 18.2626 171.429C18.0442 171.305 17.8257 171.182 17.6007 171.054C17.6874 170.621 17.7741 170.187 17.8634 169.741Z" fill="#64748B"/>
<path d="M137.977 51.5154C138.148 51.5145 138.319 51.5136 138.495 51.5127C139.062 51.5102 139.629 51.5097 140.197 51.5094C140.59 51.5086 140.983 51.5077 141.376 51.5068C142.201 51.5052 143.026 51.5047 143.85 51.5049C144.909 51.5049 145.968 51.5013 147.026 51.4968C147.838 51.4939 148.65 51.4933 149.462 51.4935C149.852 51.4932 150.243 51.492 150.633 51.49C151.179 51.4874 151.724 51.4881 152.269 51.4897C152.58 51.4894 152.891 51.489 153.211 51.4886C153.94 51.5535 153.94 51.5535 154.466 52.0789C154.325 53.0078 154.325 53.0078 153.94 53.3924C153.395 53.4199 152.849 53.4288 152.303 53.4306C152.132 53.4315 151.961 53.4323 151.785 53.4332C151.218 53.4358 150.65 53.4363 150.083 53.4365C149.69 53.4374 149.297 53.4383 148.904 53.4392C148.079 53.4408 147.254 53.4412 146.429 53.4411C145.371 53.4411 144.312 53.4447 143.254 53.4492C142.442 53.4521 141.63 53.4526 140.818 53.4525C140.427 53.4528 140.037 53.454 139.647 53.456C139.101 53.4586 138.556 53.4578 138.011 53.4562C137.545 53.4568 137.545 53.4568 137.069 53.4574C136.34 53.3924 136.34 53.3924 135.814 52.867C136.04 51.3783 136.566 51.5199 137.977 51.5154Z" fill="#64748B"/>
<path d="M8.40627 43.622C8.8558 44.3792 9.29668 45.1411 9.73617 45.9042C9.86366 46.1187 9.99116 46.3332 10.1225 46.5542C10.3016 46.8679 10.3016 46.8679 10.4842 47.1879C10.5957 47.3791 10.7071 47.5703 10.8219 47.7673C11.0854 48.4946 10.9786 48.9305 10.7705 49.664C10.3108 49.6312 10.3108 49.6312 9.71975 49.4013C9.37299 48.8812 9.02623 48.361 8.66896 47.8251C8.58227 51.5528 8.49558 55.2804 8.40627 59.1211C7.88613 59.2511 7.88613 59.2511 7.35548 59.3838C6.92832 58.9566 7.0492 58.4757 7.03885 57.8855C7.03361 57.6226 7.02837 57.3596 7.02297 57.0887C7.01858 56.8027 7.01419 56.5168 7.00967 56.2222C7.00421 55.931 6.99875 55.6398 6.99312 55.3398C6.97589 54.4057 6.96043 53.4715 6.94502 52.5372C6.93368 51.9056 6.92222 51.274 6.91064 50.6424C6.88245 49.0904 6.85572 47.5383 6.83009 45.9862C6.57002 46.1596 6.30995 46.333 6.042 46.5116C5.336 46.5445 5.336 46.5445 4.72852 46.5116C4.64183 46.1649 4.55514 45.8181 4.46582 45.4609C4.87343 45.1506 5.2846 44.845 5.69721 44.5414C5.92579 44.3707 6.15436 44.2001 6.38987 44.0242C7.16257 43.582 7.53823 43.5864 8.40627 43.622Z" fill="#64748B"/>
<path d="M129.178 59.4023C129.5 59.4029 129.821 59.4035 130.152 59.4041C130.418 59.4041 130.418 59.4041 130.688 59.404C131.275 59.4042 131.862 59.4062 132.449 59.4083C132.855 59.4088 133.261 59.4091 133.667 59.4094C134.738 59.4104 135.809 59.413 136.879 59.4159C137.971 59.4186 139.063 59.4198 140.154 59.4211C142.298 59.4239 144.441 59.4284 146.585 59.4339C146.596 59.8716 146.595 60.3097 146.585 60.7474C146.322 61.0101 146.322 61.0101 145.612 61.0417C145.295 61.0411 144.979 61.0405 144.652 61.0399C144.478 61.04 144.304 61.04 144.124 61.0401C143.546 61.0399 142.967 61.0378 142.389 61.0358C141.989 61.0353 141.588 61.0349 141.188 61.0346C140.133 61.0336 139.078 61.0311 138.023 61.0282C136.947 61.0255 135.871 61.0243 134.796 61.0229C132.683 61.0201 130.571 61.0156 128.459 61.0101C128.358 60.575 128.271 60.1368 128.196 59.6966C128.459 59.4339 128.459 59.4339 129.178 59.4023Z" fill="#64748B"/>
<path d="M126.62 215.937C127.194 215.839 127.194 215.839 127.933 215.937C128.722 216.69 129.209 217.166 129.329 218.269C129.288 218.545 129.288 218.545 129.247 218.827C128.9 218.914 128.553 219 128.196 219.09C127.88 218.765 127.569 218.436 127.26 218.104C127.086 217.922 126.913 217.739 126.734 217.55C126.357 216.988 126.357 216.988 126.432 216.393C126.494 216.242 126.556 216.092 126.62 215.937Z" fill="#64748B"/>
<path d="M118.476 205.43C119.389 205.579 119.796 205.866 120.397 206.563C120.537 206.719 120.677 206.875 120.821 207.036C121.103 207.531 121.103 207.531 121.016 208.117C120.958 208.271 120.9 208.424 120.84 208.582C120.266 208.697 120.266 208.697 119.527 208.582C118.949 208.042 118.544 207.461 118.214 206.743C118.263 205.971 118.263 205.971 118.476 205.43Z" fill="#64748B"/>
<path d="M123.205 216.199C123.645 216.274 124.083 216.362 124.518 216.462C124.518 217.329 124.518 218.196 124.518 219.089C124.083 219.189 123.645 219.276 123.205 219.352C122.942 219.089 122.942 219.089 122.907 218.498C122.908 218.259 122.908 218.021 122.909 217.775C122.908 217.537 122.908 217.299 122.907 217.053C122.942 216.462 122.942 216.462 123.205 216.199Z" fill="#64748B"/>
<path d="M123.205 205.166C123.645 205.241 124.083 205.328 124.518 205.429C124.518 206.296 124.518 207.163 124.518 208.056C124.083 208.156 123.645 208.243 123.205 208.318C122.942 208.056 122.942 208.056 122.907 207.465C122.908 207.226 122.908 206.988 122.909 206.742C122.908 206.504 122.908 206.265 122.907 206.02C122.942 205.429 122.942 205.429 123.205 205.166Z" fill="#64748B"/>
<path d="M128.984 210.946C129.148 211.57 129.148 211.57 129.247 212.26C128.721 212.785 128.721 212.785 127.802 212.851C126.883 212.785 126.883 212.785 126.357 212.26C126.423 211.718 126.423 211.718 126.62 211.209C127.397 210.821 128.128 210.93 128.984 210.946Z" fill="#64748B"/>
<path d="M119.642 211.684C120.578 211.733 120.578 211.733 121.103 212.258C121.005 212.816 121.005 212.816 120.84 213.309C118.805 213.605 118.805 213.605 118.214 213.309C118.494 211.746 118.494 211.746 119.642 211.684Z" fill="#64748B"/>
<path d="M61.7924 168.088C62.6257 168.491 62.6257 168.491 63.5092 169.005C63.6671 169.096 63.825 169.187 63.9877 169.281C64.4887 169.57 64.9876 169.863 65.4866 170.156C65.8225 170.351 66.1586 170.546 66.4948 170.74C67.3811 171.254 68.2654 171.771 69.1479 172.291C69.5211 172.453 69.5211 172.453 69.9017 172.619C70.4614 173.079 70.4614 173.079 70.6105 173.988C70.6103 174.362 70.6029 174.736 70.5897 175.11C70.5878 175.307 70.5859 175.504 70.584 175.707C70.5767 176.336 70.5602 176.965 70.5435 177.594C70.5369 178.021 70.5309 178.447 70.5255 178.874C70.511 179.92 70.4884 180.965 70.4614 182.01C70.6517 181.894 70.842 181.777 71.0381 181.656C71.2921 181.508 71.546 181.359 71.8077 181.206C72.0576 181.057 72.3075 180.907 72.565 180.753C73.5056 180.372 73.9598 180.425 74.9272 180.697C75.492 180.944 75.492 180.944 76.0006 181.24C76.2774 181.399 76.2774 181.399 76.5598 181.56C76.7471 181.671 76.9344 181.782 77.1273 181.895C77.3207 182.007 77.514 182.119 77.7132 182.234C78.1869 182.507 78.6588 182.784 79.1304 183.061C79.118 182.894 79.1056 182.728 79.0929 182.556C79.0435 181.794 79.0129 181.033 78.9826 180.27C78.9628 180.008 78.943 179.745 78.9226 179.475C78.8658 177.569 78.8658 177.569 79.5818 176.792C80.2003 176.374 80.8256 176.037 81.4946 175.706C81.902 175.468 82.3084 175.228 82.7137 174.986C83.1168 174.76 83.5204 174.535 83.9246 174.31C84.1284 174.194 84.3323 174.078 84.5423 173.959C84.7408 173.848 84.9392 173.738 85.1437 173.624C85.3198 173.525 85.496 173.426 85.6775 173.325C86.3235 173.034 86.8269 172.871 87.5367 172.816C88.2228 173.099 88.2228 173.099 88.9517 173.539C89.3543 173.779 89.3543 173.779 89.765 174.023C90.0428 174.194 90.3207 174.364 90.6069 174.54C90.8797 174.703 91.1525 174.867 91.4335 175.035C91.9753 175.36 92.5161 175.687 93.0557 176.016C94.027 176.607 95.0041 177.188 95.9817 177.768C96.4683 178.07 96.4683 178.07 96.731 178.333C96.7649 178.799 96.7806 179.267 96.7891 179.735C96.7952 180.039 96.8013 180.343 96.8075 180.656C96.8127 180.993 96.818 181.33 96.8234 181.677C96.8298 182.033 96.8362 182.389 96.8427 182.745C96.8997 186.001 96.9314 189.258 96.9568 192.515C96.9742 194.704 96.999 196.893 97.0427 199.083C97.0809 200.993 97.1051 202.902 97.1125 204.812C97.1168 205.823 97.128 206.833 97.1557 207.843C97.3171 213.979 97.3171 213.979 96.3555 215.404C95.4555 216.246 94.4709 216.664 93.3063 217.024C92.4109 217.35 91.6858 217.889 90.9025 218.427C89.5223 219.333 89.5223 219.333 88.8884 219.248C88.2115 219.011 87.6262 218.697 87.002 218.343C86.7459 218.198 86.4897 218.053 86.2257 217.903C85.8262 217.675 85.8262 217.675 85.4187 217.442C85.1594 217.295 84.9002 217.149 84.6331 216.998C79.9097 214.313 79.9097 214.313 79.1304 213.534C79.0687 212.961 79.0217 212.385 78.9826 211.81C78.9606 211.495 78.9386 211.181 78.9159 210.857C78.9 210.613 78.8841 210.37 78.8677 210.119C78.6933 210.236 78.5189 210.353 78.3392 210.473C78.1072 210.622 77.8753 210.77 77.6363 210.923C77.2934 211.147 77.2934 211.147 76.9436 211.376C76.0853 211.766 75.8211 211.689 74.9272 211.432C74.4016 211.17 73.886 210.887 73.3788 210.591C72.9371 210.334 72.9371 210.334 72.4865 210.073C72.1781 209.891 71.8698 209.71 71.5614 209.528C71.2562 209.35 70.951 209.173 70.6456 208.995C70.0582 208.653 69.4724 208.307 68.8887 207.958C68.4061 207.674 67.918 207.398 67.4215 207.139C66.8886 206.851 66.437 206.593 65.9956 206.179C65.7329 205.246 65.7329 205.246 65.7329 204.258C65.7274 203.928 65.722 203.599 65.7164 203.259C65.7219 203.009 65.7273 202.759 65.7329 202.501C65.4713 202.676 65.4713 202.676 65.2044 202.855C64.9724 203.003 64.7405 203.152 64.5015 203.305C64.1586 203.529 64.1586 203.529 63.8088 203.758C62.9471 204.149 62.6905 204.074 61.7924 203.814C61.2223 203.53 60.6624 203.224 60.1105 202.906C59.9529 202.816 59.7952 202.725 59.6328 202.632C59.3004 202.441 58.9686 202.249 58.6373 202.056C58.1346 201.764 57.6304 201.474 57.126 201.185C53.8347 199.288 53.8347 199.288 52.8607 198.56C52.6493 197.653 52.6493 197.653 52.6309 196.656C52.6207 196.324 52.6106 195.992 52.6001 195.65C52.5991 195.27 52.5991 195.27 52.598 194.883C52.4236 194.999 52.2492 195.116 52.0696 195.237C51.8376 195.385 51.6056 195.534 51.3666 195.687C51.1381 195.836 50.9095 195.986 50.674 196.14C49.8157 196.529 49.5515 196.453 48.6576 196.196C48.132 195.934 47.6163 195.651 47.1091 195.355C46.8147 195.184 46.5202 195.013 46.2169 194.836C45.9085 194.655 45.6001 194.473 45.2918 194.291C44.9866 194.114 44.6813 193.936 44.3759 193.759C43.5239 193.262 42.6734 192.763 41.8275 192.256C41.6434 192.181 41.4593 192.106 41.2696 192.029C40.6211 191.728 40.2072 191.474 39.7259 190.942C39.379 189.751 39.3751 188.578 39.3637 187.343C39.3562 186.986 39.3485 186.629 39.3406 186.272C39.3268 185.524 39.3219 184.777 39.322 184.029C39.321 183.264 39.3047 182.503 39.2736 181.74C39.0272 175.611 39.0272 175.611 40.1616 174.059C41.2038 173.145 42.3537 172.647 43.6599 172.22C44.4123 171.948 45.0238 171.525 45.6694 171.059C46.4215 170.541 46.7427 170.45 47.6714 170.47C48.8793 170.769 49.8127 171.279 50.8741 171.913C51.1623 172.08 51.1623 172.08 51.4564 172.251C51.9261 172.524 52.3936 172.801 52.8607 173.079C52.8727 172.883 52.8846 172.687 52.897 172.484C53.2178 171.465 53.7239 171.281 54.6452 170.766C54.7985 170.68 54.9519 170.593 55.1098 170.504C55.4344 170.324 55.7601 170.145 56.087 169.968C56.585 169.698 57.0771 169.419 57.5693 169.138C57.8859 168.963 58.2028 168.789 58.52 168.615C58.8072 168.457 59.0944 168.299 59.3904 168.136C60.3671 167.768 60.7995 167.788 61.7924 168.088Z" fill="#64748B"/>
<path d="M45.7513 194.004C46.7119 194.551 47.5861 195.158 48.4153 195.889C48.9126 196.257 48.9126 196.257 49.5554 196.156C50.2888 195.915 50.9445 195.616 51.6293 195.26C52.0397 195.047 52.4502 194.833 52.8607 194.62C52.8379 194.878 52.8151 195.136 52.7917 195.402C52.7517 197.01 52.7517 197.01 53.1233 198.56C54.1677 199.63 55.3809 200.207 56.719 200.843C57.0595 201.017 57.3994 201.192 57.7385 201.37C58.3651 201.696 58.9936 202.011 59.6289 202.321C60.4788 202.764 60.4788 202.764 61.3304 203.343C62.0143 203.878 62.0143 203.878 62.7939 203.831C63.9485 203.446 64.9556 202.864 65.9955 202.238C65.9096 202.601 65.9096 202.601 65.8221 202.971C65.6939 204.192 65.6229 205.097 66.2582 206.179C67.9388 207.606 70.0219 208.506 72.0014 209.444C73.0149 209.951 73.9544 210.544 74.8959 211.173C75.4356 211.485 75.4356 211.485 76.0084 211.362C76.6548 211.111 77.2654 210.813 77.8825 210.497C78.234 210.317 78.234 210.317 78.5926 210.134C78.77 210.043 78.9475 209.951 79.1303 209.856C79.1096 210.097 79.089 210.339 79.0677 210.587C79.0466 211.647 79.1087 212.511 79.393 213.534C80.2092 214.375 81.16 214.819 82.208 215.326C82.9223 215.695 83.5996 216.108 84.2837 216.53C84.541 216.689 84.7983 216.847 85.0634 217.01C85.5803 217.328 86.0968 217.647 86.6127 217.967C86.8529 218.111 87.0931 218.255 87.3406 218.403C87.6629 218.6 87.6629 218.6 87.9917 218.8C88.685 219.092 88.9495 219.059 89.6382 218.788C89.9613 218.612 90.2791 218.426 90.5904 218.23C91.0293 217.986 91.0293 217.986 91.477 217.737C91.6504 217.824 91.8238 217.911 92.0024 218C91.9157 218.173 91.829 218.347 91.7397 218.525C91.9456 218.58 92.1515 218.634 92.3636 218.69C93.6555 219.18 94.7761 219.894 95.9429 220.627C94.9586 221.699 93.6925 222.332 92.4457 223.057C92.1994 223.206 91.953 223.355 91.6992 223.508C91.4589 223.648 91.2187 223.787 90.9711 223.931C90.7533 224.06 90.5354 224.188 90.311 224.32C89.4412 224.64 88.9501 224.547 88.062 224.305C87.4127 224 87.4127 224 86.769 223.613C86.4028 223.396 86.4028 223.396 86.0293 223.174C85.7682 223.016 85.507 222.858 85.238 222.696C84.6696 222.358 84.1011 222.02 83.5325 221.683C83.2393 221.508 82.9462 221.333 82.6441 221.153C81.2286 220.313 79.8019 219.493 78.375 218.673C77.8011 218.342 77.2271 218.012 76.6531 217.681C76.3681 217.517 76.0831 217.352 75.7894 217.183C74.3632 216.362 72.9377 215.539 71.5121 214.716C70.9429 214.388 70.3738 214.059 69.8046 213.731C64.1128 210.447 58.4211 207.164 52.7293 203.88C52.4471 203.717 52.1648 203.554 51.8741 203.387C51.3097 203.061 50.7455 202.735 50.1813 202.409C48.8463 201.638 47.5104 200.869 46.1711 200.105C45.5376 199.744 44.9046 199.381 44.2716 199.019C43.8239 198.763 43.3754 198.509 42.9269 198.254C42.6565 198.099 42.3861 197.944 42.1075 197.785C41.869 197.649 41.6305 197.513 41.3847 197.373C40.8361 197.022 40.4231 196.677 39.9885 196.196C43.7984 193.114 43.7984 193.114 45.7513 194.004Z" fill="#373D4D"/>
<path d="M80.7065 179.123C81.6612 179.495 82.5213 179.914 83.4033 180.438C83.6586 180.589 83.9139 180.74 84.177 180.896C84.4405 181.053 84.7039 181.21 84.9754 181.372C85.3766 181.61 85.3766 181.61 85.786 181.852C87.7613 183.025 87.7613 183.025 88.062 183.326C88.0873 183.758 88.0941 184.192 88.0936 184.624C88.094 184.905 88.0944 185.187 88.0947 185.476C88.0938 185.787 88.0928 186.098 88.0919 186.419C88.0919 186.744 88.0919 187.069 88.092 187.405C88.0918 188.3 88.0905 189.195 88.0887 190.09C88.087 191.024 88.0869 191.958 88.0866 192.893C88.0858 194.663 88.0836 196.434 88.081 198.204C88.078 200.219 88.0766 202.234 88.0753 204.25C88.0725 208.396 88.0679 212.542 88.062 216.689C85.4226 215.884 82.5676 214.872 80.7065 212.748C79.7578 210.522 80.0122 207.981 80.1206 205.612C80.157 204.679 80.1601 203.746 80.1669 202.812C80.1848 201.049 80.2321 199.288 80.2903 197.526C80.3552 195.518 80.3868 193.51 80.4157 191.502C80.4759 187.374 80.5774 183.249 80.7065 179.123Z" fill="#030712"/>
<path d="M95.1547 180.436C95.1547 191.532 95.1547 202.628 95.1547 214.061C90.4262 216.688 90.4262 216.688 89.6381 216.95C89.5212 212.616 89.4333 208.283 89.3795 203.948C89.3538 201.934 89.3188 199.922 89.2615 197.909C89.2116 196.154 89.1795 194.399 89.1684 192.643C89.162 191.714 89.1469 190.787 89.1103 189.858C88.8965 184.212 88.8965 184.212 90.1433 182.721C91.4697 181.631 93.3782 180.436 95.1547 180.436Z" fill="#030712"/>
<path d="M54.4369 174.131C55.3916 174.503 56.2517 174.922 57.1337 175.445C57.389 175.597 57.6443 175.748 57.9074 175.904C58.1708 176.061 58.4343 176.218 58.7057 176.38C59.107 176.618 59.107 176.618 59.5164 176.86C61.4916 178.033 61.4916 178.033 61.7924 178.334C61.8174 179.062 61.8254 179.782 61.8222 180.51C61.8223 180.738 61.8223 180.966 61.8224 181.201C61.8222 181.959 61.8201 182.716 61.8181 183.474C61.8176 183.998 61.8172 184.522 61.8169 185.045C61.8159 186.427 61.8134 187.809 61.8105 189.19C61.8078 190.599 61.8066 192.007 61.8052 193.416C61.8024 196.182 61.7979 198.948 61.7924 201.714C61.1363 201.365 60.4865 201.01 59.841 200.642C59.1542 200.258 58.4564 199.943 57.7318 199.637C54.7962 198.306 54.7962 198.306 54.1928 196.971C53.8089 195.379 53.9242 193.762 54.0008 192.14C54.0091 191.62 54.0155 191.099 54.0199 190.579C54.0369 189.216 54.0807 187.855 54.1303 186.492C54.1761 185.1 54.1964 183.707 54.2189 182.313C54.2666 179.585 54.3427 176.858 54.4369 174.131Z" fill="#3438D0"/>
<path d="M67.8344 187.002C69.6088 187.593 69.6088 187.593 70.5044 188.126C70.6961 188.239 70.8877 188.352 71.0852 188.469C71.2803 188.586 71.4753 188.704 71.6763 188.824C71.9719 188.999 71.9719 188.999 72.2735 189.177C72.812 189.497 73.3484 189.817 73.8764 190.154C74.0577 190.255 74.239 190.355 74.4258 190.459C74.9272 190.942 74.9272 190.942 75.0535 191.725C75.0512 192.046 75.0488 192.366 75.0464 192.696C75.0466 192.873 75.0468 193.05 75.0469 193.232C75.0462 193.816 75.038 194.4 75.0298 194.984C75.0278 195.39 75.0263 195.795 75.0253 196.2C75.0213 197.267 75.0109 198.333 74.9993 199.399C74.9886 200.487 74.9838 201.575 74.9785 202.664C74.9672 204.799 74.9493 206.934 74.9272 209.068C72.4006 208.226 70.1467 206.712 67.8344 205.391C67.8344 199.322 67.8344 193.254 67.8344 187.002Z" fill="#CDFE41"/>
<path d="M41.3023 176.758C42.2723 177.137 43.1602 177.566 44.0657 178.082C44.3078 178.219 44.5498 178.356 44.7992 178.498C45.1027 178.671 45.4062 178.845 45.7189 179.024C46.6887 179.576 47.6585 180.129 48.6578 180.698C48.6578 185.119 48.6578 189.541 48.6578 194.096C47.6703 193.701 46.8636 193.317 45.961 192.781C45.7057 192.63 45.4504 192.479 45.1873 192.323C44.9238 192.166 44.6604 192.009 44.3889 191.846C43.9877 191.609 43.9877 191.609 43.5783 191.367C41.6031 190.193 41.6031 190.193 41.3023 189.893C41.2778 189.481 41.2714 189.069 41.2724 188.657C41.2725 188.394 41.2725 188.131 41.2725 187.86C41.2739 187.574 41.2752 187.288 41.2766 186.994C41.277 186.703 41.2774 186.411 41.2777 186.111C41.2792 185.177 41.2825 184.243 41.2858 183.309C41.2872 182.677 41.2884 182.046 41.2894 181.414C41.2923 179.862 41.2967 178.31 41.3023 176.758Z" fill="#030712"/>
<path d="M68.8851 175.182C68.9504 176.312 68.9978 177.442 69.0294 178.574C69.0426 178.959 69.0605 179.343 69.0833 179.727C69.1154 180.282 69.1301 180.835 69.1417 181.39C69.1554 181.723 69.1692 182.056 69.1833 182.399C68.8851 183.325 68.8851 183.325 68.2938 183.671C68.0567 183.784 67.8196 183.897 67.5752 184.013C66.5159 184.582 66.5159 184.582 66.0141 185.636C65.9287 186.581 65.9217 187.497 65.9441 188.446C65.942 188.788 65.9399 189.129 65.9377 189.481C65.9323 190.386 65.9425 191.29 65.956 192.194C65.967 193.119 65.9631 194.043 65.9606 194.968C65.9577 196.779 65.9727 198.59 65.9955 200.4C65.1286 200.834 64.2617 201.267 63.3685 201.714C63.2892 198.702 63.2286 195.69 63.1915 192.678C63.1737 191.279 63.1496 189.88 63.1109 188.482C63.0737 187.131 63.0533 185.781 63.0445 184.429C63.0382 183.915 63.0259 183.4 63.0074 182.886C62.872 178.958 62.872 178.958 63.702 177.915C64.6217 177.122 65.6595 176.681 66.7835 176.232C67.1596 176.02 67.5329 175.803 67.9 175.576C68.6224 175.182 68.6224 175.182 68.8851 175.182Z" fill="#3438D0"/>
<path d="M79.1303 189.629C79.1303 195.697 79.1303 201.765 79.1303 208.018C78.2634 208.451 77.3965 208.885 76.5033 209.331C76.4546 206.956 76.4173 204.582 76.3944 202.206C76.3835 201.103 76.3686 200.001 76.3448 198.898C76.3219 197.833 76.3094 196.769 76.3039 195.704C76.3001 195.298 76.2925 194.893 76.2811 194.487C76.1957 191.306 76.1957 191.306 76.9667 190.394C77.683 189.93 78.2689 189.629 79.1303 189.629Z" fill="#C5F73F"/>
<path d="M87.7992 174.918C88.8451 175.435 89.8539 176.019 90.8695 176.593C91.1507 176.748 91.432 176.903 91.7217 177.063C91.9887 177.213 92.2557 177.364 92.5308 177.519C92.7759 177.656 93.021 177.793 93.2735 177.935C93.8412 178.333 93.8412 178.333 94.1039 179.122C93.3898 179.564 92.6719 180 91.9531 180.435C91.7511 180.56 91.5491 180.686 91.341 180.815C91.0451 180.993 91.0451 180.993 90.7433 181.174C90.5631 181.284 90.3828 181.394 90.1972 181.507C89.5011 181.808 89.0781 181.842 88.3246 181.749C87.1967 181.245 86.1519 180.589 85.0902 179.959C84.648 179.706 84.648 179.706 84.1969 179.447C83.9184 179.284 83.6398 179.121 83.3529 178.952C83.0971 178.802 82.8413 178.652 82.5778 178.498C82.3937 178.357 82.2096 178.216 82.0199 178.071C82.0199 177.811 82.0199 177.551 82.0199 177.283C82.7831 176.834 83.5503 176.393 84.3185 175.953C84.6436 175.762 84.6436 175.762 84.9752 175.566C85.1852 175.447 85.3951 175.328 85.6115 175.205C85.804 175.093 85.9966 174.982 86.1951 174.867C86.8805 174.605 87.1209 174.653 87.7992 174.918Z" fill="#030712"/>
<path d="M61.5297 169.928C62.0418 170.186 62.5438 170.465 63.0371 170.758C63.3173 170.923 63.5976 171.088 63.8863 171.258C64.176 171.431 64.4657 171.605 64.7641 171.783C65.0589 171.957 65.3537 172.132 65.6574 172.311C66.3841 172.741 67.1097 173.172 67.8344 173.606C66.9615 174.512 66.0473 175.163 64.9612 175.789C64.8015 175.887 64.6418 175.985 64.4773 176.085C63.2869 176.775 63.2869 176.775 62.4838 176.7C61.6926 176.466 61.0575 176.134 60.3424 175.723C59.9399 175.493 59.9399 175.493 59.5292 175.258C59.252 175.098 58.9749 174.937 58.6893 174.771C58.2659 174.529 58.2659 174.529 57.834 174.281C57.1385 173.883 56.444 173.482 55.7504 173.08C55.7504 172.82 55.7504 172.56 55.7504 172.292C56.3983 171.735 57.1628 171.34 57.9012 170.913C58.1032 170.789 58.3052 170.665 58.5133 170.537C58.7105 170.422 58.9078 170.306 59.111 170.186C59.2912 170.08 59.4715 169.974 59.6571 169.864C60.4014 169.599 60.779 169.69 61.5297 169.928Z" fill="#3438D0"/>
<path d="M48.0157 172.22C48.5665 172.506 49.1077 172.791 49.6385 173.112C49.8109 173.216 49.9832 173.32 50.1608 173.427C50.3366 173.534 50.5123 173.641 50.6934 173.751C50.9631 173.914 50.9631 173.914 51.2383 174.079C52.8196 175.036 52.8196 175.036 52.9971 175.658C53.0898 176.387 53.0933 176.842 52.8606 177.544C51.9173 178.395 50.9197 178.998 49.7083 179.383C48.0271 178.942 46.6249 178.031 45.1439 177.15C44.8754 176.994 44.6069 176.838 44.3302 176.677C44.0766 176.527 43.8229 176.377 43.5616 176.222C43.3295 176.085 43.0974 175.948 42.8583 175.807C42.6081 175.627 42.6081 175.627 42.3528 175.442C42.3528 175.269 42.3528 175.096 42.3528 174.917C43.1088 174.341 43.9467 173.886 44.7663 173.407C44.9934 173.267 45.2204 173.127 45.4543 172.983C45.6753 172.853 45.8963 172.723 46.1239 172.59C46.3261 172.469 46.5284 172.349 46.7367 172.225C47.344 172.027 47.344 172.027 48.0157 172.22Z" fill="#030712"/>
<path d="M74.4346 182.383C74.6838 182.521 74.9331 182.658 75.1898 182.8C75.3513 182.875 75.5128 182.951 75.6792 183.028C76.8903 183.598 78.1595 184.229 79.1303 185.164C79.4591 186.116 79.4013 186.83 79.1303 187.791C78.6788 188.064 78.2239 188.331 77.7676 188.596C77.5146 188.745 77.2616 188.894 77.001 189.048C76.1082 189.423 75.8413 189.364 74.9272 189.105C74.4382 188.871 73.9582 188.617 73.4864 188.35C73.2192 188.2 72.9521 188.049 72.6768 187.893C72.4008 187.735 72.1248 187.577 71.8405 187.414C71.5604 187.256 71.2804 187.099 70.9918 186.937C68.9194 185.758 68.9194 185.758 68.6224 185.164C69.4162 184.663 70.217 184.174 71.0195 183.687C71.2444 183.544 71.4692 183.402 71.7009 183.256C73.3862 182.244 73.3862 182.244 74.4346 182.383Z" fill="#CAFC40"/>
<path d="M52.8606 179.385C52.9139 181.269 52.9507 183.152 52.9761 185.037C52.9866 185.678 53.001 186.318 53.0191 186.959C53.0447 187.881 53.0566 188.802 53.0658 189.723C53.0767 190.01 53.0875 190.296 53.0987 190.591C53.0999 192.534 53.0999 192.534 52.3972 193.263C51.6869 193.723 51.0922 194.096 50.2336 194.096C50.2336 189.675 50.2336 185.253 50.2336 180.698C52.5979 179.385 52.5979 179.385 52.8606 179.385Z" fill="#030712"/>
<path d="M33.5444 207.208C35.1298 208.488 36.2641 210.107 36.9101 212.046C36.938 212.447 36.9518 212.849 36.9566 213.251C36.9617 213.617 36.9617 213.617 36.9669 213.99C36.9688 214.254 36.9707 214.517 36.9727 214.789C36.9749 215.061 36.977 215.334 36.9792 215.615C36.9828 216.192 36.9856 216.77 36.9877 217.348C36.9922 218.226 37.0037 219.103 37.0153 219.981C37.018 220.543 37.0202 221.106 37.022 221.668C37.0266 221.928 37.0312 222.188 37.0359 222.455C37.0273 225.265 36.0996 227.289 34.16 229.301C30.199 232.925 24.4773 234.271 19.2438 234.211C18.9104 234.208 18.577 234.206 18.2336 234.203C12.7884 234.116 7.09966 232.946 2.96587 229.118C0.99186 226.919 0.314067 224.633 0.307094 221.745C0.305346 221.491 0.303597 221.237 0.301795 220.976C0.299142 220.439 0.297903 219.903 0.297987 219.367C0.296842 218.554 0.287302 217.741 0.277336 216.927C0.275794 216.404 0.274751 215.881 0.274257 215.358C0.270482 215.118 0.266707 214.878 0.262817 214.631C0.282211 211.855 1.36166 209.562 3.28501 207.58C11.3294 200.669 25.2199 201.173 33.5444 207.208Z" fill="#64748B"/>
<path d="M16.9792 204.406C22.556 204.225 28.775 205.024 33.0796 208.946C34.4236 210.386 35.206 211.594 35.4654 213.572C35.3689 215.65 34.088 217.51 32.6055 218.89C27.3019 222.838 20.2913 223.482 13.9038 222.695C9.78464 221.95 5.54766 220.277 3.05419 216.762C2.16762 215.215 1.97433 213.803 2.23429 212.045C3.25195 209.321 5.53777 207.704 8.06286 206.463C10.9234 205.225 13.8654 204.521 16.9792 204.406Z" fill="#DB46EF"/>
<path d="M35.3339 218.35C35.3726 219.302 35.3956 220.254 35.416 221.206C35.427 221.473 35.438 221.739 35.4494 222.013C35.489 224.483 34.743 226.229 33.1503 228.102C29.3989 231.618 23.7857 232.643 18.8497 232.617C18.5511 232.616 18.2525 232.614 17.9448 232.613C12.9989 232.542 8.11217 231.469 4.33574 228.069C2.8325 226.43 2.14567 225.072 2.23417 222.815C2.47799 223.038 2.7218 223.26 2.97301 223.489C8.7887 228.422 15.7118 229.066 23.0677 228.532C23.7422 228.471 24.4156 228.406 25.0888 228.332C25.0888 228.072 25.0888 227.812 25.0888 227.544C24.9408 227.581 24.7929 227.618 24.6405 227.656C22.7082 228.095 20.8428 228.161 18.8661 228.151C18.5402 228.15 18.2142 228.149 17.8784 228.148C12.7277 228.082 7.34783 226.79 3.54766 223.078C2.46322 221.772 2.08754 220.755 2.188 219.056C2.20323 218.909 2.21847 218.763 2.23417 218.612C2.35236 218.705 2.47054 218.797 2.5923 218.892C4.84631 220.622 7.12782 222.207 9.85237 223.078C10.1399 223.176 10.4274 223.274 10.7236 223.375C13.2808 224.153 15.833 224.228 18.4885 224.227C19.0082 224.228 19.0082 224.228 19.5385 224.229C25.1261 224.165 30.4683 222.734 34.5725 218.811C35.0712 218.35 35.0712 218.35 35.3339 218.35Z" fill="#030712"/>
<path d="M1.70901 227.545C1.94469 227.805 1.94469 227.805 2.18514 228.07C7.14994 232.966 13.3823 233.922 20.0772 233.933C22.6251 233.909 24.7888 233.652 27.1906 232.799C27.4903 232.701 27.7899 232.602 28.0987 232.501C31.04 231.467 33.4327 230.043 35.3342 227.545C36.0573 228.412 36.2505 228.967 36.193 230.12C35.8683 232.77 34.4365 234.498 32.3911 236.158C30.0089 237.83 27.3992 238.791 24.5636 239.366C24.2991 239.42 24.0347 239.475 23.7622 239.53C17.5538 240.644 10.6134 239.856 5.28209 236.322C3.52408 235.034 1.87184 233.435 1.44631 231.223C1.30646 228.35 1.30646 228.35 1.70901 227.545Z" fill="#373D4D"/>
<path d="M25.1125 208.569C25.7008 208.699 25.7008 208.699 26.4024 208.107C26.9771 208.206 26.9771 208.206 27.4532 208.37C27.5832 208.89 27.5832 208.89 27.7159 209.421C27.4558 209.507 27.1958 209.594 26.9278 209.683C27.0578 209.878 27.0578 209.878 27.1905 210.077C27.5597 211 27.6074 211.864 27.4532 212.836C27.0263 213.607 27.0263 213.607 26.4024 214.149C25.5487 214.363 25.5487 214.363 24.8262 214.412C24.6292 213.952 24.6292 213.952 24.5635 213.361C24.7369 213.193 24.9103 213.025 25.0889 212.852C25.6894 212.355 25.6894 212.355 25.6307 211.637C25.2541 210.773 24.8863 210.61 24.0382 210.209C23.0913 210.084 23.0913 210.084 22.0843 210.11C21.7488 210.108 21.4132 210.106 21.0674 210.104C20.0485 210.214 19.4002 210.483 18.5215 210.997C18.6003 212.258 19.242 212.995 19.9992 213.947C20.7294 214.887 20.7231 215.596 20.6231 216.776C19.9822 218.029 18.9846 218.485 17.7119 218.951C15.9534 219.385 14.1283 219.241 12.3482 218.993C11.5009 218.887 10.9294 218.911 10.1152 219.14C9.90521 218.277 9.82717 217.903 10.1152 217.039C10.0286 216.865 9.94186 216.692 9.85254 216.513C9.72399 215.399 9.74215 214.677 10.4272 213.788C11.1668 213.098 11.4896 212.892 12.4795 212.836C12.6765 213.427 12.6765 213.427 12.7422 214.149C12.3974 214.505 12.0472 214.855 11.6914 215.2C11.65 215.757 11.65 215.757 11.9541 216.251C13.07 217.327 14.3572 217.382 15.8597 217.359C16.8616 217.256 17.6151 216.959 18.5215 216.513C18.8079 216.041 18.8079 216.041 18.7842 215.463C18.419 214.833 18.419 214.833 17.8976 214.215C16.9994 212.988 16.5805 212.266 16.6827 210.734C17.457 209.345 18.4395 208.815 19.9192 208.288C21.7089 207.828 23.3613 208.054 25.1125 208.569Z" fill="#64748B"/>
<path d="M31.9191 224.393C32.1792 224.479 32.4392 224.566 32.7072 224.655C32.7072 224.829 32.7072 225.002 32.7072 225.181C32.1787 225.568 32.1787 225.568 31.4758 225.985C31.2472 226.124 31.0186 226.262 30.7831 226.405C30.0975 226.748 29.5217 226.909 28.7667 227.02C28.816 226.538 28.816 226.538 29.0294 225.969C29.6205 225.588 29.6205 225.588 30.3429 225.263C31.1912 224.918 31.1912 224.918 31.9191 224.393Z" fill="#64748B"/>
</svg>
