<svg preserveAspectRatio="none" width="100%" height="100%" overflow="visible" style="display: block;" viewBox="0 0 26.9791 31.7676" fill="none" xmlns="http://www.w3.org/2000/svg">
<g id="Group 294">
<path id="Vector" d="M16.6774 2.15876C19.2214 3.83328 21.3999 5.9073 23.2064 8.35326C23.2685 8.43712 23.3306 8.52097 23.3946 8.60737C25.6879 11.7507 27.2786 15.5017 26.9315 19.4451C26.7245 20.7394 26.121 22.1016 25.1444 22.9963C22.9944 24.5485 22.9944 24.5485 22.1942 24.5485C22.3321 25.0397 22.4709 25.5306 22.6099 26.0216C22.6489 26.1604 22.6878 26.2991 22.728 26.4421C22.7853 26.6441 22.7853 26.6441 22.8438 26.8502C22.8786 26.9736 22.9134 27.0971 22.9493 27.2242C23.0586 27.5929 23.0586 27.5929 23.2191 27.9698C23.351 28.3081 23.351 28.3081 23.3657 28.6718C23.1122 29.2435 22.6399 29.4299 22.1038 29.7179C21.8796 29.8429 21.6556 29.9681 21.4316 30.0935C21.3178 30.1566 21.204 30.2196 21.0867 30.2845C20.761 30.4698 20.4441 30.6642 20.128 30.8651C19.983 30.9565 19.983 30.9565 19.8352 31.0497C19.6523 31.1656 19.4703 31.283 19.2894 31.4019C18.9109 31.6379 18.6542 31.7808 18.2024 31.7666C15.5762 30.7598 13.3607 28.0362 11.9276 25.7053C11.9276 25.6098 11.9276 25.5144 11.9276 25.4161C11.8016 25.3792 11.6756 25.3423 11.5457 25.3042C7.05916 23.6661 3.35951 18.4605 1.38767 14.3449C1.01484 13.5266 0.736398 12.6928 0.504179 11.8237C0.458511 11.6598 0.412844 11.496 0.365792 11.3272C-0.144747 9.27335 -0.233154 7.01899 0.839696 5.12405C1.66235 3.94851 2.79283 3.1702 4.04688 2.51503C4.30208 2.37867 4.5572 2.24217 4.81224 2.10552C4.9385 2.0383 5.06477 1.97108 5.19485 1.90183C5.54391 1.71316 5.88865 1.51878 6.23226 1.32039C6.33515 1.26109 6.43804 1.20179 6.54405 1.1407C6.73447 1.03042 6.92449 0.919438 7.11398 0.807582C10.1507 -0.937878 13.943 0.440366 16.6774 2.15876Z" fill="var(--fill-0, #CCFE41)"/>
<path id="Vector_2" d="M16.6774 2.15876C19.2214 3.83328 21.3999 5.9073 23.2064 8.35326C23.2685 8.43712 23.3306 8.52097 23.3946 8.60737C25.6879 11.7507 27.2786 15.5017 26.9315 19.4451C26.7245 20.7394 26.121 22.1016 25.1444 22.9963C22.9944 24.5485 22.9944 24.5485 22.1942 24.5485C22.3321 25.0397 22.4709 25.5306 22.6099 26.0216C22.6489 26.1604 22.6878 26.2991 22.728 26.4421C22.7853 26.6441 22.7853 26.6441 22.8438 26.8502C22.8786 26.9736 22.9134 27.0971 22.9493 27.2242C23.0586 27.5929 23.0586 27.5929 23.2191 27.9698C23.351 28.3081 23.351 28.3081 23.3657 28.6718C23.1122 29.2435 22.6399 29.4299 22.1038 29.7179C21.8796 29.8429 21.6556 29.9681 21.4316 30.0935C21.3178 30.1566 21.204 30.2196 21.0867 30.2845C20.761 30.4698 20.4441 30.6642 20.128 30.8651C19.983 30.9565 19.983 30.9565 19.8352 31.0497C19.6523 31.1656 19.4703 31.283 19.2894 31.4019C18.9109 31.6379 18.6542 31.7808 18.2024 31.7666C15.5762 30.7598 13.3607 28.0362 11.9276 25.7053C11.9276 25.6098 11.9276 25.5144 11.9276 25.4161C11.8016 25.3792 11.6756 25.3423 11.5457 25.3042C7.05916 23.6661 3.35951 18.4605 1.38767 14.3449C1.01484 13.5266 0.736398 12.6928 0.504179 11.8237C0.458511 11.6598 0.412844 11.496 0.365792 11.3272C-0.144747 9.27335 -0.233154 7.01899 0.839696 5.12405C1.66235 3.94851 2.79283 3.1702 4.04688 2.51503C4.30208 2.37867 4.5572 2.24217 4.81224 2.10552C4.9385 2.0383 5.06477 1.97108 5.19485 1.90183C5.54391 1.71316 5.88865 1.51878 6.23226 1.32039C6.33515 1.26109 6.43804 1.20179 6.54405 1.1407C6.73447 1.03042 6.92449 0.919438 7.11398 0.807582C10.1507 -0.937878 13.943 0.440366 16.6774 2.15876ZM1.80558 5.31666C0.758525 6.86244 0.932776 9.04188 1.16392 10.8205C2.50838 16.142 6.24103 21.123 10.9415 23.9446C11.1304 24.0553 11.32 24.1649 11.5103 24.2731C12.3549 24.7549 12.7724 25.2842 13.3194 26.0758C14.3654 27.5597 15.5701 28.9036 16.9886 30.0433C17.084 30.0433 17.1795 30.0433 17.2778 30.0433C17.1579 29.1424 16.9777 28.2607 16.7892 27.3716C16.7137 26.9433 16.668 26.5714 16.6994 26.1391C16.9487 25.8898 17.3083 25.9225 17.6483 25.877C18.9155 25.6683 19.7064 25.2947 20.5256 24.2903C21.5405 22.8299 21.7043 21.0288 21.4159 19.3008C20.7622 16.1583 19.284 13.3002 17.2778 10.8115C17.2129 10.7309 17.148 10.6504 17.0812 10.5674C14.4559 7.33632 10.8242 4.26684 6.57738 3.58146C4.49038 3.45039 3.23405 3.73146 1.80558 5.31666Z" fill="var(--fill-0, #373D4D)"/>
<path id="Vector_3" d="M16.1209 2.85827C17.5067 3.71961 18.7092 4.76554 19.8805 5.89487C19.9898 5.99497 20.099 6.09506 20.2115 6.19819C21.9487 7.83744 23.287 9.84877 24.3631 11.9681C24.4105 12.0602 24.4578 12.1522 24.5065 12.2471C25.7919 14.7753 26.6134 17.5719 25.8159 20.3893C25.4642 21.3173 24.92 22.128 24.0739 22.6685C23.9785 22.6685 23.8831 22.6685 23.7847 22.6685C23.8153 22.5725 23.8459 22.4766 23.8774 22.3777C24.1737 21.3853 24.2931 20.4848 24.2818 19.4511C24.2797 19.2327 24.2797 19.2327 24.2775 19.0098C24.2487 17.7907 24.078 16.7279 23.6401 15.5831C23.5966 15.4679 23.5531 15.3528 23.5083 15.2342C22.3579 12.254 20.7099 9.44423 18.3425 7.26179C18.1453 7.05167 18.1453 7.05167 18.1453 6.76247C18.0665 6.72985 17.9876 6.69723 17.9064 6.66362C17.3061 6.32699 16.8439 5.81808 16.3463 5.34754C15.9961 5.00318 15.9961 5.00318 15.5425 4.88267C15.5425 5.02582 15.5425 5.16898 15.5425 5.31647C15.6208 5.3489 15.6991 5.38134 15.7798 5.41475C16.2276 5.66536 16.5809 5.99758 16.9524 6.34674C17.0297 6.41895 17.1069 6.49116 17.1865 6.56555C17.3409 6.71029 17.4949 6.85538 17.6486 7.00083C17.8174 7.15983 17.9887 7.31627 18.1606 7.47191C20.5065 9.67278 22.3243 12.6941 23.3509 15.7277C23.4401 15.9824 23.4401 15.9824 23.5311 16.2422C24.1177 18.128 24.3191 20.532 23.4955 22.3793C23.1454 23.0277 22.7399 23.5268 22.0495 23.8253C21.9541 23.7776 21.8587 23.7298 21.7603 23.6807C21.8073 23.5694 21.8073 23.5694 21.8552 23.4559C22.8735 20.6556 21.9403 17.5237 20.7673 14.9284C19.6805 12.6114 18.248 10.5458 16.471 8.71055C16.2636 8.49567 16.0595 8.27794 15.8555 8.05992C13.2235 5.29143 9.69832 3.14325 5.85432 2.71367C6.22498 2.29716 6.64882 2.04416 7.12861 1.76473C7.27568 1.67806 7.42275 1.59138 7.57427 1.50208C10.3612 0.0472502 13.6269 1.39273 16.1209 2.85827Z" fill="var(--fill-0, #F3F4FE)"/>
<path id="Vector_4" d="M21.4713 25.2714C21.6254 25.7403 21.7747 26.2106 21.9231 26.6812C21.9669 26.8143 22.0107 26.9474 22.0559 27.0845C22.116 27.2775 22.116 27.2775 22.1773 27.4743C22.2152 27.5924 22.253 27.7106 22.2921 27.8323C22.3515 28.2528 22.2996 28.3999 22.0497 28.7418C21.7161 28.98 21.7161 28.98 21.3041 29.2095C21.1563 29.2924 21.0084 29.3754 20.8562 29.4608C20.7013 29.5457 20.5464 29.6305 20.3868 29.7179C20.2319 29.8049 20.077 29.8919 19.9174 29.9816C18.7666 30.6216 18.7666 30.6216 18.4347 30.6216C18.2882 30.1341 18.1443 29.6459 18.0009 29.1575C17.9388 28.9512 17.9388 28.9512 17.8755 28.7407C17.6741 28.0504 17.5083 27.4448 17.5671 26.7174C17.7429 26.6699 17.7429 26.6699 17.9224 26.6214C18.9334 26.3318 19.8105 25.982 20.7132 25.4409C21.0375 25.2714 21.0375 25.2714 21.4713 25.2714Z" fill="var(--fill-0, #F3F4FE)"/>
<path id="Vector_5" d="M15.5425 4.88279C16.1741 4.94943 16.542 5.36821 16.9795 5.78654C17.0536 5.8557 17.1277 5.92485 17.204 5.9961C17.672 6.43497 18.1258 6.88695 18.5791 7.34099C18.6675 7.42264 18.7558 7.50428 18.8469 7.5884C21.2575 9.85036 22.8372 12.9431 23.9293 16.017C23.9847 16.1661 24.04 16.3152 24.0971 16.4689C24.4016 17.4432 24.4059 18.4296 24.4174 19.4422C24.4194 19.5832 24.4215 19.7242 24.4236 19.8694C24.4176 20.7529 24.3371 21.5813 23.9293 22.3794C23.5407 22.6776 23.5407 22.6776 23.2063 22.8132C23.236 22.7276 23.2656 22.6421 23.2961 22.5539C23.3351 22.4397 23.3741 22.3254 23.4142 22.2077C23.4528 22.0953 23.4914 21.9829 23.5311 21.8671C24.1392 19.8855 23.8902 17.6494 23.2063 15.7278C23.1722 15.6315 23.1381 15.5353 23.1029 15.4361C21.947 12.2487 20.0323 9.63174 17.7115 7.19639C17.6176 7.09648 17.5236 6.99657 17.4268 6.89364C16.9133 6.36142 16.3732 5.92741 15.76 5.51316C15.6882 5.44829 15.6165 5.38343 15.5425 5.31659C15.5425 5.17344 15.5425 5.03028 15.5425 4.88279Z" fill="var(--fill-0, #373D4D)"/>
<path id="Vector_6" d="M16.4101 16.4507C16.8767 16.8574 16.9774 17.0816 17.0518 17.6979C16.9885 18.1859 16.9885 18.1859 16.8259 18.4661C16.4068 18.7035 16.1606 18.7049 15.6871 18.6197C15.1513 18.1421 14.9886 17.9326 14.8918 17.2189C14.9641 16.7399 14.9641 16.7399 15.1178 16.4507C15.5874 16.2083 15.9142 16.3115 16.4101 16.4507Z" fill="var(--fill-0, #373D4D)"/>
<path id="Vector_7" d="M11.2045 13.5498C11.7538 13.7443 11.9306 13.9202 12.2167 14.4264C12.2779 14.9335 12.3142 15.2706 12.0541 15.7188C11.635 15.9562 11.3888 15.9576 10.9153 15.8724C10.453 15.4503 10.2227 15.1733 10.111 14.5529C10.1923 14.1372 10.1923 14.1372 10.4273 13.7847C10.7707 13.5588 10.7707 13.5588 11.2045 13.5498Z" fill="var(--fill-0, #373D4D)"/>
<path id="Vector_8" d="M6.43267 10.8114C6.93997 10.9805 7.14738 11.0882 7.44487 11.5344C7.53684 12.0469 7.54413 12.5147 7.2822 12.9804C6.8744 13.1979 6.59808 13.1899 6.14347 13.125C5.77354 12.885 5.61139 12.6924 5.47752 12.271C5.38184 11.7632 5.37535 11.4638 5.64641 11.0193C5.99887 10.8114 5.99887 10.8114 6.43267 10.8114Z" fill="var(--fill-0, #373D4D)"/>
<path id="Vector_9" d="M10.4815 2.13539C11.3365 2.20617 11.9601 2.46819 12.7138 2.86743C12.8196 2.92195 12.9254 2.97647 13.0343 3.03265C13.2927 3.16604 13.5501 3.30123 13.8073 3.43679C13.7596 3.57995 13.7119 3.7231 13.6627 3.87059C13.0206 3.61653 12.3826 3.35364 11.7468 3.08433C11.6409 3.04099 11.535 2.99765 11.4259 2.953C11.154 2.83691 10.8893 2.70408 10.6261 2.56919C10.5784 2.42604 10.5307 2.28288 10.4815 2.13539Z" fill="var(--fill-0, #373D4D)"/>
</g>
</svg>
