<svg width="44" height="43" viewBox="0 0 44 43" fill="none" xmlns="http://www.w3.org/2000/svg">
<path d="M22.1228 0.0119242C22.545 0.155414 22.9033 0.327436 23.29 0.549898C23.5097 0.675329 23.5097 0.675329 23.734 0.803294C23.8909 0.894425 24.0477 0.985555 24.2094 1.07945C24.4561 1.22104 24.4561 1.22104 24.7077 1.3655C25.2323 1.6673 25.7557 1.97098 26.2789 2.27525C26.4484 2.37369 26.6179 2.47213 26.7925 2.57356C27.7763 3.14557 28.7583 3.7205 29.7392 4.29747C30.1761 4.55434 30.6133 4.8106 31.0506 5.06672C31.3053 5.21617 31.5599 5.36564 31.8146 5.51515C31.9304 5.58296 32.0462 5.65077 32.1656 5.72063C32.9478 6.1811 32.9478 6.1811 33.1297 6.36345C33.1293 6.6029 33.1174 6.84235 33.101 7.08124C32.6775 11.127 32.6775 11.127 33.6157 14.9403C34.473 15.7582 35.5227 16.1066 36.6344 16.4597C37.6429 16.8222 38.5274 17.3985 39.4401 17.9535C39.7935 18.1587 40.1474 18.3631 40.5016 18.5667C43.3814 20.2388 43.3814 20.2388 43.7321 20.5904C43.7589 21.0711 43.7751 21.5481 43.7842 22.0293C43.7877 22.1803 43.7911 22.3314 43.7946 22.487C43.8245 23.8834 43.8418 25.28 43.8553 26.6766C43.8646 27.6154 43.8779 28.5536 43.901 29.4922C43.9233 30.399 43.9351 31.3053 43.9396 32.2124C43.9431 32.5578 43.9503 32.9032 43.9613 33.2484C44.0409 35.8784 44.0409 35.8784 43.5308 36.5567C42.9637 37.0626 42.3143 37.3195 41.6116 37.5973C41.2477 37.7926 40.8973 38.004 40.5431 38.2169C40.1756 38.4263 39.808 38.6354 39.4401 38.8442C39.0413 39.0711 38.6427 39.2983 38.2442 39.5258C38.0947 39.6111 38.0947 39.6111 37.9421 39.6981C37.2586 40.089 36.5786 40.4858 35.9007 40.8864C35.7221 40.9918 35.5436 41.0971 35.3596 41.2057C35.0217 41.4056 34.6842 41.6062 34.3471 41.8076C34.1204 41.9416 34.1204 41.9416 33.8892 42.0784C33.7576 42.1568 33.6261 42.2352 33.4906 42.3159C33.1349 42.5004 32.8757 42.6273 32.4772 42.6667C32.1209 42.5264 32.1209 42.5264 31.7305 42.2981C31.5101 42.1712 31.5101 42.1712 31.2852 42.0417C31.1268 41.9478 30.9685 41.8538 30.8053 41.757C30.639 41.6606 30.4728 41.5641 30.3015 41.4647C29.7751 41.1587 29.2503 40.8499 28.7256 40.5408C28.4026 40.3522 28.0796 40.1638 27.7565 39.9755C27.109 39.5979 26.4621 39.2192 25.8157 38.8397C24.2498 37.9216 22.6771 37.0155 21.1053 36.1077C20.0433 35.4943 18.9817 34.88 17.9201 34.2658C17.0326 33.7525 16.1451 33.2393 15.2572 32.7266C13.3845 31.6448 11.5143 30.5588 9.64828 29.4653C8.28772 28.6686 6.92318 27.8789 5.55642 27.0929C5.22227 26.9002 4.89094 26.7026 4.56205 26.5011C4.06147 26.2058 3.546 25.9847 3.01007 25.761C0.600775 24.6763 0.600775 24.6763 0.157424 23.5518C-0.104171 22.1973 0.0163622 20.8423 0.119503 19.4764C0.137526 19.0607 0.153896 18.6449 0.168564 18.2291C0.207898 17.2157 0.267697 16.2052 0.343784 15.194C0.774692 14.9447 1.2056 14.6955 1.63651 14.4463C2.01568 14.227 2.39484 14.0076 2.77401 13.7883C3.66844 13.271 4.5629 12.7536 5.45751 12.2366C5.73975 12.0734 6.02198 11.9103 6.30421 11.7471C6.65627 11.5436 7.00836 11.3401 7.36047 11.1367C7.68623 10.9484 8.01123 10.7587 8.33537 10.5675C8.67812 10.3722 9.0271 10.1877 9.38008 10.0116C10.3151 9.57982 10.3151 9.57982 10.9285 8.80862C10.9599 8.43857 10.9425 8.11138 10.8952 7.74321C10.8408 7.25733 10.8022 6.83506 10.9462 6.36345C11.374 5.93011 11.8817 5.66936 12.4142 5.38228C12.7217 5.20057 13.0291 5.0185 13.3362 4.83612C13.6776 4.63952 14.0194 4.44343 14.3614 4.2478C14.6399 4.08758 14.9185 3.92736 15.197 3.76709C15.4864 3.60067 15.7758 3.43448 16.0653 3.26831C17.0414 2.70779 18.0154 2.14383 18.9897 1.58025C19.1686 1.47697 19.3474 1.3737 19.5316 1.26729C19.6987 1.17073 19.8657 1.07417 20.0379 0.974687C20.1843 0.890105 20.3307 0.805522 20.4815 0.718376C20.9026 0.480207 20.9026 0.480207 21.3066 0.189785C21.7117 -0.0141461 21.7117 -0.0141461 22.1228 0.0119242Z" fill="#373D4D"/>
<path d="M11.3404 8.33325C12.0463 8.53887 12.663 8.75641 13.3013 9.09806C13.552 9.23115 13.552 9.23115 13.8078 9.36694C14.075 9.51051 14.075 9.51051 14.3476 9.65698C14.7307 9.86067 15.1138 10.0642 15.4971 10.2677C15.6968 10.374 15.8965 10.4802 16.1022 10.5897C17.3638 11.2591 18.6359 11.9125 19.9057 12.5692C20.0926 12.666 20.2796 12.7629 20.4722 12.8627C20.6375 12.9482 20.8028 13.0337 20.9731 13.1218C21.2993 13.2948 21.618 13.4795 21.933 13.6686C21.9993 14.0467 21.9993 14.0467 21.9978 14.5299C21.9985 14.7127 21.9992 14.8954 22 15.0837C21.9981 15.2851 21.9961 15.4865 21.9941 15.694C21.9943 16.0111 21.9943 16.0111 21.9944 16.3345C21.9945 16.9151 21.9914 17.4956 21.9876 18.0761C21.9842 18.6824 21.9839 19.2888 21.9833 19.8951C21.9816 21.0437 21.9772 22.1923 21.9718 23.3409C21.9658 24.6484 21.9628 25.9559 21.9601 27.2634C21.9545 29.9533 21.945 32.6433 21.933 35.3333C21.2837 35.1048 20.6936 34.8491 20.0906 34.5331C19.9067 34.437 19.7227 34.341 19.5331 34.242C19.3364 34.1386 19.1397 34.0352 18.937 33.9287C18.6262 33.7662 18.3153 33.6038 18.0044 33.4414C17.6797 33.2717 17.3551 33.1017 17.0306 32.9317C16.0464 32.4165 15.0605 31.9042 14.0744 31.392C13.7676 31.2325 13.4609 31.0729 13.1542 30.9132C12.9685 30.8167 12.7828 30.7201 12.5915 30.6206C12.4276 30.5353 12.2636 30.45 12.0947 30.3621C11.8467 30.235 11.5956 30.1128 11.3404 29.9979C11.3404 29.3043 11.3404 28.6107 11.3404 27.8961C12.552 28.2598 12.552 28.2598 13.1147 28.5649C13.238 28.6311 13.3614 28.6973 13.4884 28.7655C13.6164 28.8354 13.7445 28.9053 13.8763 28.9773C14.1466 29.1226 14.4168 29.2679 14.6871 29.4131C14.8193 29.4846 14.9516 29.5562 15.0879 29.6299C15.625 29.9201 16.164 30.2072 16.704 30.4931C16.8702 30.5816 17.0364 30.6702 17.2076 30.7615C17.6318 30.9865 17.6318 30.9865 18.1627 31.1297C18.1627 30.9696 18.1627 30.8095 18.1627 30.6446C18.0456 30.6065 17.9285 30.5683 17.8079 30.5291C17.097 30.2569 16.4348 29.9234 15.7615 29.5836C15.5702 29.4884 15.5702 29.4884 15.375 29.3913C15.1016 29.2541 14.8313 29.1116 14.5642 28.9647C14.024 28.6838 14.024 28.6838 13.3619 28.4894C12.5562 28.2029 11.869 27.8839 11.3404 27.2494C10.8344 25.9004 11.0285 24.3701 11.0774 22.9694C11.0824 22.5474 11.0863 22.1254 11.089 21.7033C11.0973 20.7085 11.1194 19.7143 11.1465 18.7197C11.1766 17.5867 11.1914 16.4536 11.2049 15.3203C11.233 12.991 11.2803 10.6621 11.3404 8.33325Z" fill="#E5E5FE"/>
<path d="M22.6846 21.3333C22.957 21.4933 23.2294 21.6534 23.5018 21.8135C23.7294 21.9472 23.7294 21.9472 23.9615 22.0836C25.7203 23.1178 27.465 24.1756 29.1967 25.2618C29.4362 25.4118 29.4362 25.4118 29.6806 25.5648C29.8321 25.6602 29.9837 25.7557 30.1399 25.854C30.2739 25.9384 30.408 26.0227 30.5461 26.1096C30.6799 26.1973 30.8136 26.285 30.9514 26.3753C31.112 26.4685 31.2726 26.5617 31.4381 26.6577C31.8873 27.0475 31.8873 27.0475 31.9998 27.5623C31.9978 27.7638 31.9957 27.9653 31.9935 28.173C31.9937 28.3403 31.9937 28.3403 31.994 28.511C31.9933 28.8786 31.986 29.2457 31.9787 29.6132C31.9769 29.8685 31.9756 30.1237 31.9747 30.379C31.9711 31.05 31.9619 31.7207 31.9516 32.3916C31.942 33.0765 31.9377 33.7614 31.933 34.4464C31.923 35.7898 31.907 37.1329 31.8873 38.4761C31.3883 38.2654 30.9311 38.0458 30.4731 37.7454C30.3588 37.6714 30.2445 37.5974 30.1268 37.5212C29.8894 37.366 29.6522 37.2107 29.4151 37.0551C29.301 36.9813 29.1869 36.9075 29.0693 36.8315C28.9665 36.7642 28.8636 36.6968 28.7576 36.6273C28.4503 36.4562 28.1696 36.3663 27.8319 36.2912C28.2064 36.7368 28.6094 37.0155 29.0907 37.3167C29.2433 37.4129 29.3959 37.5091 29.5531 37.6082C29.7122 37.7074 29.8712 37.8067 30.0351 37.9089C30.3508 38.1069 30.6664 38.3052 30.9819 38.5037C31.1918 38.6349 31.1918 38.6349 31.406 38.7687C31.7313 38.9803 31.7313 38.9803 31.8873 39.1484C31.8986 39.5158 31.9004 39.8837 31.897 40.2513C31.8956 40.4526 31.8942 40.6539 31.8928 40.8612C31.891 41.017 31.8892 41.1728 31.8873 41.3333C30.5751 40.5965 29.2829 39.833 28.011 39.0182C27.2876 38.5552 26.561 38.0984 25.8316 37.6463C25.7393 37.5891 25.6471 37.5319 25.5521 37.473C25.1795 37.2421 24.8069 37.0114 24.434 36.7811C24.1725 36.6196 23.9111 36.4577 23.6497 36.2958C23.4975 36.2018 23.3453 36.1078 23.1885 36.0109C22.8406 35.787 22.8406 35.787 22.6846 35.619C22.6698 35.174 22.665 34.7335 22.6669 34.2885C22.6669 34.1491 22.6668 34.0098 22.6668 33.8662C22.6669 33.4033 22.6681 32.9404 22.6694 32.4776C22.6697 32.1575 22.6699 31.8375 22.67 31.5174C22.6706 30.6733 22.6722 29.8292 22.6739 28.9851C22.6755 28.1245 22.6762 27.2638 22.677 26.4032C22.6787 24.7132 22.6813 23.0232 22.6846 21.3333Z" fill="#CCFE41"/>
<path d="M42.6668 21.3333C42.6668 26.1281 42.6668 30.923 42.6668 35.8632C41.3782 36.6529 40.0896 37.4427 38.762 38.2563C38.0769 38.6882 37.393 39.1206 36.7119 39.5597C36.2717 39.8425 35.8314 40.1251 35.3908 40.4073C35.1522 40.5604 34.9138 40.7142 34.6761 40.869C33.9544 41.3333 33.9544 41.3333 33.6076 41.3333C33.5232 40.629 33.4952 39.9839 33.6076 39.282C33.9781 38.7683 34.4856 38.5462 35.0133 38.2563C35.3624 38.0393 35.7085 37.8173 36.0542 37.594C36.2958 37.4384 36.5383 37.2845 36.7817 37.1324C36.894 37.0617 37.0063 36.991 37.1219 36.9182C37.2742 36.8232 37.2742 36.8232 37.4294 36.7264C37.695 36.5582 37.695 36.5582 37.8248 36.205C36.5568 36.8804 35.3215 37.583 34.1121 38.3785C33.7638 38.5982 33.7638 38.5982 33.6076 38.5982C33.5531 37.1094 33.5116 35.621 33.4862 34.1312C33.474 33.4392 33.4575 32.7481 33.4308 32.0566C33.2643 27.6192 33.2643 27.6192 33.8125 26.5892C34.3326 26.0153 34.9371 25.7683 35.6361 25.5467C36.1288 25.3729 36.542 25.0767 36.9798 24.7788C37.3101 24.5701 37.6406 24.3618 37.9712 24.1538C38.232 23.9895 38.232 23.9895 38.4981 23.8219C39.4988 23.1922 40.5003 22.564 41.5051 21.9422C41.6073 21.8788 41.7095 21.8153 41.8147 21.7499C42.4919 21.3333 42.4919 21.3333 42.6668 21.3333Z" fill="#CCFE41"/>
<path d="M32.7195 15.4188C33.1873 15.647 33.6378 15.8923 34.0887 16.1529C34.2714 16.2582 34.454 16.3634 34.6423 16.4719C34.8393 16.5861 35.0363 16.7004 35.2333 16.8147C35.436 16.9318 35.6388 17.0488 35.8416 17.1658C36.3688 17.4703 36.8957 17.7754 37.4224 18.0807C37.7392 18.2643 38.0561 18.4479 38.373 18.6313C39.5825 19.3317 40.7916 20.033 42 20.7353C41.6069 21.1725 41.1869 21.44 40.6788 21.7309C40.4255 21.8768 40.4255 21.8768 40.167 22.0257C39.8937 22.1816 39.8937 22.1816 39.6148 22.3406C39.3284 22.5049 39.0421 22.6691 38.7558 22.8335C38.5575 22.9474 38.3591 23.0611 38.1607 23.1748C37.4541 23.5799 36.7512 23.9911 36.0497 24.4051C35.856 24.519 35.6622 24.6329 35.4685 24.7468C35.0991 24.9641 34.7302 25.1822 34.3618 25.4012C34.194 25.4995 34.0261 25.5978 33.8532 25.6991C33.7062 25.786 33.5592 25.8729 33.4077 25.9624C32.9725 26.178 32.6572 26.3029 32.1724 26.3333C31.7561 26.1644 31.7561 26.1644 31.3106 25.8959C31.1428 25.7965 30.9749 25.6972 30.802 25.5948C30.6225 25.4853 30.443 25.3758 30.2581 25.2631C29.9742 25.0937 29.6903 24.9244 29.4063 24.7553C29.2096 24.638 29.0131 24.5204 28.8168 24.4025C28.1191 23.9835 27.416 23.5751 26.709 23.1722C26.5143 23.0609 26.3197 22.9497 26.125 22.8384C25.754 22.6267 25.3827 22.4155 25.0111 22.2049C24.7586 22.0597 24.7586 22.0597 24.501 21.9116C24.3531 21.8273 24.2053 21.743 24.0529 21.6562C23.6453 21.3874 23.3312 21.0933 23 20.7353C23.1626 20.6412 23.1626 20.6412 23.3285 20.5452C25.5248 19.2738 27.7189 17.9989 29.9068 16.713C30.2035 16.5387 30.5006 16.3651 30.7983 16.1925C31.0441 16.0468 31.2871 15.8961 31.5253 15.7383C32.2426 15.2735 32.2426 15.2735 32.7195 15.4188Z" fill="#CCFE41"/>
<path d="M22.7398 1.36577C22.9453 1.49416 22.9453 1.49416 23.1551 1.62514C23.3206 1.72246 23.4861 1.81978 23.6566 1.92005C23.8359 2.03342 24.0152 2.14678 24.2 2.26359C24.3957 2.37752 24.5921 2.49034 24.789 2.60214C25.2397 2.85833 25.6881 3.11795 26.1351 3.38025C27.2488 4.03113 28.3735 4.66337 29.4969 5.29769C29.7667 5.45003 30.0363 5.60256 30.306 5.7551C30.4627 5.84357 30.6194 5.93205 30.7808 6.0232C31.0818 6.19727 31.3761 6.38264 31.6667 6.57311C31.6667 6.67846 31.6667 6.7838 31.6667 6.89234C31.2377 7.13567 30.8088 7.379 30.3799 7.62232C30.0037 7.83571 29.6276 8.04912 29.2515 8.26256C28.348 8.77527 27.4443 9.28782 26.5402 9.79949C26.2481 9.96481 25.956 10.1302 25.664 10.2956C25.2946 10.5047 24.9253 10.7137 24.5558 10.9226C24.3884 11.0174 24.221 11.1123 24.0485 11.21C23.9011 11.2934 23.7537 11.3768 23.6018 11.4627C23.3087 11.6328 23.0223 11.8143 22.7391 11.9999C21.9905 11.9522 21.4664 11.7187 20.8243 11.3502C20.6438 11.2477 20.4632 11.1451 20.2772 11.0394C20.0834 10.9273 19.8895 10.8152 19.6957 10.7031C19.4955 10.5887 19.2953 10.4745 19.095 10.3605C18.6798 10.1237 18.265 9.88616 17.8505 9.64798C17.2292 9.29118 16.6062 8.93739 15.9826 8.58447C15.8845 8.52892 15.7863 8.47336 15.6852 8.41613C15.4927 8.30717 15.3002 8.19822 15.1077 8.08928C14.4046 7.69113 13.7024 7.29165 13 6.89234C13 6.78699 13 6.68165 13 6.57311C13.0927 6.52196 13.1854 6.4708 13.2809 6.4181C15.1325 5.39518 16.9787 4.36379 18.813 3.31104C18.9705 3.22069 19.1279 3.13034 19.2902 3.03725C19.4418 2.95004 19.5934 2.86283 19.7495 2.77298C19.8961 2.68947 20.0426 2.60596 20.1935 2.51992C20.4905 2.34511 20.783 2.16279 21.0711 1.97421C22.1312 1.29106 22.1312 1.29106 22.7398 1.36577Z" fill="#E5E5FE"/>
<path d="M1.43984 17.3333C2.57044 17.8854 3.65724 18.4936 4.73799 19.1392C5.06548 19.3337 5.39298 19.5282 5.72049 19.7226C5.88821 19.8224 6.05593 19.9222 6.22873 20.025C6.75825 20.3393 7.28877 20.6517 7.81965 20.9636C7.99159 21.0647 8.16354 21.1657 8.3407 21.2699C8.67346 21.4654 9.00629 21.6608 9.3392 21.856C9.48861 21.944 9.63802 22.0319 9.79195 22.1225C9.92426 22.2002 10.0566 22.2779 10.1929 22.358C10.4951 22.5438 10.4951 22.5438 10.6513 22.7017C10.6649 22.9944 10.668 23.2876 10.6665 23.5806C10.666 23.7582 10.6655 23.9357 10.665 24.1187C10.663 24.3991 10.663 24.3991 10.661 24.6852C10.6603 24.8728 10.6596 25.0603 10.6589 25.2536C10.657 25.7187 10.6545 26.1839 10.6513 26.649C10.0848 26.4267 9.58683 26.1747 9.07048 25.8497C8.65245 25.5869 8.30941 25.3859 7.84099 25.228C7.84099 25.3843 7.84099 25.5406 7.84099 25.7017C7.94967 25.7422 8.05835 25.7827 8.17032 25.8244C8.67305 26.0395 9.12735 26.2995 9.5974 26.58C9.76243 26.6779 9.92746 26.7758 10.0975 26.8766C10.4951 27.1227 10.4951 27.1227 10.6513 27.2806C10.6626 27.6258 10.6643 27.9714 10.661 28.3168C10.6596 28.5059 10.6582 28.695 10.6567 28.8898C10.6549 29.0361 10.6531 29.1825 10.6513 29.3333C10.0779 29.0191 9.50573 28.7028 8.93387 28.3859C8.83593 28.3317 8.738 28.2775 8.63709 28.2217C7.12371 27.3827 5.62452 26.5206 4.13301 25.6425C3.97317 25.5485 3.81334 25.4546 3.64866 25.3578C3.49695 25.2682 3.34524 25.1785 3.18894 25.0861C3.05475 25.0069 2.92056 24.9276 2.78231 24.846C2.64842 24.7636 2.51454 24.6813 2.3766 24.5964C2.20716 24.5133 2.03773 24.4302 1.86316 24.3445C1.39728 23.9267 1.37478 23.8744 1.3335 23.2844C1.33364 23.007 1.33891 22.7297 1.34836 22.4525C1.34969 22.3062 1.35101 22.1599 1.35238 22.0092C1.35762 21.5424 1.36937 21.0762 1.38129 20.6096C1.38599 20.293 1.39027 19.9763 1.3941 19.6597C1.40442 18.8841 1.42059 18.1087 1.43984 17.3333Z" fill="#FAFBFB"/>
<path d="M31.9998 8C31.9998 10.2176 31.9998 12.4352 31.9998 14.72C31.3427 15.0929 30.6855 15.4658 30.0085 15.85C28.7662 16.5552 27.5245 17.2614 26.2859 17.9731C26.1904 18.028 26.0949 18.0829 25.9964 18.1395C25.5395 18.4021 25.0828 18.665 24.6262 18.9282C24.4624 19.0224 24.2986 19.1167 24.1299 19.2137C23.9866 19.2963 23.8434 19.3789 23.6958 19.464C23.3584 19.653 23.0129 19.8278 22.6665 20C22.6665 17.7824 22.6665 15.5648 22.6665 13.28C23.2706 12.9335 23.8746 12.587 24.497 12.23C24.6991 12.114 24.9013 11.998 25.1096 11.8786C25.9864 11.3755 26.8634 10.8725 27.7405 10.3699C28.0276 10.2054 28.3147 10.0408 28.6017 9.87629C28.9637 9.66881 29.3257 9.46139 29.6878 9.25402C29.8527 9.15947 30.0177 9.06492 30.1876 8.9675C30.332 8.88474 30.4765 8.80198 30.6253 8.71672C30.9119 8.55084 31.1965 8.38146 31.4795 8.20953C31.8389 8 31.8389 8 31.9998 8Z" fill="#E5E5FE"/>
<path d="M10.6668 10.6665C10.6668 14.1865 10.6668 17.7065 10.6668 21.3332C7.6886 19.8015 7.6886 19.8015 6.68072 19.2186C6.43771 19.0788 6.19465 18.939 5.95155 18.7993C5.82322 18.7255 5.69488 18.6517 5.56266 18.5757C5.07888 18.3007 4.5918 18.0317 4.10433 17.7629C3.92967 17.6657 3.75501 17.5685 3.57505 17.4684C3.22963 17.2762 2.88337 17.0855 2.53624 16.8962C2.30149 16.7648 2.30149 16.7648 2.06199 16.6307C1.92139 16.5532 1.78078 16.4756 1.63592 16.3957C1.53612 16.3201 1.43632 16.2444 1.3335 16.1665C1.3335 16.0015 1.3335 15.8365 1.3335 15.6665C1.4322 15.6131 1.5309 15.5597 1.63259 15.5046C5.81527 13.2589 5.81527 13.2589 9.9207 10.8863C10.3212 10.6665 10.3212 10.6665 10.6668 10.6665Z" fill="#FAFBFB"/>
<path d="M37.3335 36C37.0514 36.666 36.7671 36.9165 36.1069 37.253C35.9458 37.3365 35.7847 37.4199 35.6187 37.506C35.4503 37.5904 35.2819 37.6749 35.1085 37.7619C34.9386 37.8493 34.7687 37.9367 34.5937 38.0268C34.1746 38.242 33.7546 38.4552 33.3335 38.6667C33.3335 38.0952 33.3335 38.0952 33.546 37.8237C34.1024 37.3931 34.7117 37.0617 35.3335 36.7262C35.4593 36.6561 35.5851 36.586 35.7147 36.5138C36.6595 36 36.6595 36 37.3335 36Z" fill="#373D4D"/>
<path d="M24 33.3333C24.7007 33.4589 25.1601 33.7679 25.75 34.3939C25.8915 34.5407 26.033 34.6876 26.1788 34.8389C26.5185 35.2726 26.5185 35.2726 26.6667 35.9999C25.9888 35.8641 25.4843 35.388 24.9167 34.8029C24.8282 34.7156 24.7396 34.6283 24.6484 34.5383C24.4265 34.3129 24.2124 34.0669 24 33.8181C24 33.6581 24 33.4981 24 33.3333Z" fill="#373D4D"/>
<path d="M4.17778 22.6665C5.06171 22.9017 5.855 23.2524 6.66667 23.5998C6.608 23.7318 6.54933 23.8638 6.48889 23.9998C5.60496 23.7646 4.81167 23.414 4 23.0665C4.05867 22.9345 4.11733 22.8025 4.17778 22.6665Z" fill="#373D4D"/>
<path d="M41.3332 33.3333C41.0711 34.6581 40.5722 35.0987 39.8668 35.7551C39.487 35.9999 39.487 35.9999 38.6665 35.9999C38.9155 34.786 39.0952 34.6941 39.7691 34.1041C39.9314 33.9584 40.0938 33.8128 40.2611 33.6627C40.7178 33.3333 40.7178 33.3333 41.3332 33.3333Z" fill="#373D4D"/>
</svg>
