<svg width="96" height="72" viewBox="0 0 96 72" fill="none" xmlns="http://www.w3.org/2000/svg">
<path d="M61.569 0.00410627C62.2362 0.00754493 62.9032 0.00411467 63.5705 3.55486e-05C67.5219 -0.00444813 71.3683 0.414939 75.1969 1.41038C75.4478 1.47476 75.6988 1.53914 75.9574 1.60546C83.2542 3.53746 90.0496 7.04357 94.0716 13.6526C95.0376 15.7386 95.4097 17.7188 95.406 20.0054C95.4078 20.2638 95.4096 20.5222 95.4115 20.7885C95.414 21.3311 95.4142 21.8738 95.4123 22.4165C95.411 23.237 95.421 24.0569 95.4319 24.8773C95.4581 29.9953 94.2234 33.5736 90.5746 37.2828C90.4169 37.4432 90.2593 37.6035 90.0969 37.7688C87.4925 40.2595 84.2276 41.8432 80.9551 43.2682C80.8154 43.3299 80.6757 43.3916 80.5317 43.4551C74.8117 45.9344 68.479 46.5137 62.3184 46.526C61.6951 46.5281 61.072 46.5347 60.4488 46.5415C57.7492 46.5567 55.1783 46.3225 52.5244 45.8334C52.2849 45.7909 52.0454 45.7484 51.7987 45.7046C47.3341 44.8722 43.3304 43.3688 39.2848 41.3273C38.6463 41.0426 38.1998 40.8549 37.5175 41.0546C37.0905 41.314 37.0905 41.314 37.0165 41.8011C36.9878 42.1616 36.961 42.5224 36.9363 42.8833C36.3176 44.4906 34.4019 45.3906 32.9783 46.2075C32.5978 46.4307 32.2176 46.6545 31.8377 46.8788C31.6493 46.99 31.4609 47.1012 31.2667 47.2158C30.4622 47.6984 29.6751 48.2057 28.8901 48.7192C25.8866 50.6808 22.8415 52.5761 19.7989 54.476C18.4765 55.302 17.1555 56.1302 15.8371 56.9625C15.6769 57.0633 15.5167 57.1642 15.3516 57.2681C14.4307 57.849 13.5154 58.4378 12.6039 59.0333C12.3949 59.1689 12.1859 59.3045 11.9706 59.4441C11.5675 59.7058 11.1654 59.9692 10.7646 60.2346C8.71641 61.56 6.8543 62.2075 4.40064 61.7881C2.86897 61.3341 1.61216 60.1197 0.681469 58.8597C-0.162315 57.2798 -0.15397 55.2322 0.333266 53.5414C1.34286 51.2998 3.31478 50.2535 5.43957 49.2001C6.13788 48.8538 6.83203 48.4994 7.52695 48.1464C7.66584 48.0761 7.80473 48.0059 7.94783 47.9335C9.11309 47.343 10.2594 46.7215 11.4014 46.0872C13.4372 44.9619 15.5031 43.8995 17.5739 42.8407C19.8463 41.6788 22.1064 40.502 24.3411 39.2686C25.8644 38.4297 27.4012 37.6185 28.9435 36.8152C29.175 36.6943 29.4065 36.5733 29.645 36.4488C29.8597 36.3374 30.0743 36.226 30.2954 36.1113C30.486 36.0123 30.6766 35.9133 30.873 35.8113C31.3617 35.5727 31.3617 35.5727 32.003 35.3589C31.8327 35.0989 31.8327 35.0989 31.659 34.8337C30.2866 32.6824 29.2178 30.5754 29.1828 27.9674C29.1794 27.7332 29.176 27.499 29.1724 27.2577C29.1628 26.1843 29.1542 25.111 29.1492 24.0377C29.1457 23.4744 29.1399 22.9112 29.1317 22.348C29.0533 16.9201 29.8766 13.5024 33.7131 9.49336C33.8311 9.36192 33.949 9.23048 34.0705 9.09506C35.2074 7.87099 36.5946 6.97549 37.9884 6.07313C38.1888 5.94279 38.3891 5.81245 38.5955 5.67816C45.3351 1.52855 53.762 -0.0435234 61.569 0.00410627Z" fill="#CCFE41"/>
<path d="M61.569 0.00410627C62.2362 0.00754493 62.9032 0.00411467 63.5705 3.55486e-05C67.5219 -0.00444813 71.3683 0.414939 75.1969 1.41038C75.4478 1.47476 75.6988 1.53914 75.9574 1.60546C83.2542 3.53746 90.0496 7.04357 94.0716 13.6526C95.0376 15.7386 95.4097 17.7188 95.406 20.0054C95.4078 20.2638 95.4096 20.5222 95.4115 20.7885C95.414 21.3311 95.4142 21.8738 95.4123 22.4165C95.411 23.237 95.421 24.0569 95.4319 24.8773C95.4581 29.9953 94.2234 33.5736 90.5746 37.2828C90.4169 37.4432 90.2593 37.6035 90.0969 37.7688C87.4925 40.2595 84.2276 41.8432 80.9551 43.2682C80.8154 43.3299 80.6757 43.3916 80.5317 43.4551C74.8117 45.9344 68.479 46.5137 62.3184 46.526C61.6951 46.5281 61.072 46.5347 60.4488 46.5415C57.7492 46.5567 55.1783 46.3225 52.5244 45.8334C52.2849 45.7909 52.0454 45.7484 51.7987 45.7046C47.3341 44.8722 43.3304 43.3688 39.2848 41.3273C38.6463 41.0426 38.1998 40.8549 37.5175 41.0546C37.0905 41.314 37.0905 41.314 37.0165 41.8011C36.9878 42.1616 36.961 42.5224 36.9363 42.8833C36.3176 44.4906 34.4019 45.3906 32.9783 46.2075C32.5978 46.4307 32.2176 46.6545 31.8377 46.8788C31.6493 46.99 31.4609 47.1012 31.2667 47.2158C30.4622 47.6984 29.6751 48.2057 28.8901 48.7192C25.8866 50.6808 22.8415 52.5761 19.7989 54.476C18.4765 55.302 17.1555 56.1302 15.8371 56.9625C15.6769 57.0633 15.5167 57.1642 15.3516 57.2681C14.4307 57.849 13.5154 58.4378 12.6039 59.0333C12.3949 59.1689 12.1859 59.3045 11.9706 59.4441C11.5675 59.7058 11.1654 59.9692 10.7646 60.2346C8.71641 61.56 6.8543 62.2075 4.40064 61.7881C2.86897 61.3341 1.61216 60.1197 0.681469 58.8597C-0.162315 57.2798 -0.15397 55.2322 0.333266 53.5414C1.34286 51.2998 3.31478 50.2535 5.43957 49.2001C6.13788 48.8538 6.83203 48.4994 7.52695 48.1464C7.66584 48.0761 7.80473 48.0059 7.94783 47.9335C9.11309 47.343 10.2594 46.7215 11.4014 46.0872C13.4372 44.9619 15.5031 43.8995 17.5739 42.8407C19.8463 41.6788 22.1064 40.502 24.3411 39.2686C25.8644 38.4297 27.4012 37.6185 28.9435 36.8152C29.175 36.6943 29.4065 36.5733 29.645 36.4488C29.8597 36.3374 30.0743 36.226 30.2954 36.1113C30.486 36.0123 30.6766 35.9133 30.873 35.8113C31.3617 35.5727 31.3617 35.5727 32.003 35.3589C31.8327 35.0989 31.8327 35.0989 31.659 34.8337C30.2866 32.6824 29.2178 30.5754 29.1828 27.9674C29.1794 27.7332 29.176 27.499 29.1724 27.2577C29.1628 26.1843 29.1542 25.111 29.1492 24.0377C29.1457 23.4744 29.1399 22.9112 29.1317 22.348C29.0533 16.9201 29.8766 13.5024 33.7131 9.49336C33.8311 9.36192 33.949 9.23048 34.0705 9.09506C35.2074 7.87099 36.5946 6.97549 37.9884 6.07313C38.1888 5.94279 38.3891 5.81245 38.5955 5.67816C45.3351 1.52855 53.762 -0.0435234 61.569 0.00410627ZM52.0969 2.22536C51.8971 2.26538 51.6972 2.30541 51.4913 2.34665C44.2632 3.82286 36.7621 6.87796 32.3504 13.0873C30.5599 15.9609 29.9908 18.8878 30.6561 22.2107C30.8512 22.8444 31.0834 23.428 31.3617 24.0294C31.4449 24.2209 31.5282 24.4124 31.6139 24.6097C34.1252 29.7884 39.9903 32.8645 45.1979 34.7104C48.0158 35.6572 50.8704 36.3926 53.807 36.8553C53.9631 36.8803 54.1192 36.9053 54.2801 36.9311C61.0229 37.9486 68.3514 37.5293 74.9697 36.0002C75.2859 35.9283 75.2859 35.9283 75.6085 35.8549C76.1874 35.709 76.7521 35.54 77.3211 35.3589C77.4708 35.3119 77.6205 35.2649 77.7748 35.2164C83.6191 33.3564 89.4574 30.1965 92.5945 24.6949C93.998 21.8772 94.4205 19.1588 93.5614 16.0942C92.9529 14.2931 92.0011 12.8665 90.7883 11.4172C90.6241 11.21 90.4599 11.0028 90.2906 10.7893C87.4358 7.37767 82.8938 5.40314 78.8175 3.93548C78.6574 3.87599 78.4972 3.81651 78.3322 3.75522C74.1296 2.2115 69.3968 1.3622 64.9186 1.31937C64.7373 1.31728 64.556 1.3152 64.3693 1.31305C60.1981 1.27502 56.1969 1.3731 52.0969 2.22536Z" fill="#64748B"/>
<path d="M93.5668 33.2207C95.3223 35.3937 95.3276 38.2557 95.0631 40.9162C94.8836 41.8371 94.6068 42.634 94.2081 43.4814C94.1224 43.6726 94.0367 43.8639 93.9484 44.0609C91.1978 49.6258 85.1608 53.0157 79.5001 54.9587C78.4954 55.2901 77.483 55.5903 76.4656 55.8798C76.3219 55.9216 76.1783 55.9635 76.0303 56.0066C73.5088 56.7318 70.9445 57.0825 68.3426 57.3761C68.0764 57.4075 68.0764 57.4075 67.805 57.4395C65.9877 57.6318 64.169 57.6328 62.3438 57.63C62.177 57.6298 62.0102 57.6296 61.8384 57.6294C55.5363 57.613 49.2414 56.5648 43.4453 54.0061C42.7011 53.6818 42.2347 53.5284 41.4082 53.5284C41.5669 53.7664 41.5669 53.7664 41.7288 54.0093C42.0495 54.5972 42.0495 54.5972 42.0495 55.4522C41.7411 55.7441 41.7411 55.7441 41.3038 56.0067C41.1415 56.1064 40.9792 56.2062 40.812 56.309C40.634 56.4142 40.456 56.5195 40.2726 56.6279C39.897 56.8572 39.5216 57.0866 39.1461 57.316C38.9531 57.4326 38.76 57.5491 38.5611 57.6692C37.6857 58.2011 36.8218 58.7507 35.9572 59.3C35.6174 59.5147 35.2775 59.7293 34.9376 59.9438C34.2744 60.3627 33.6114 60.7819 32.9486 61.2013C30.8661 62.5188 28.7781 63.8273 26.6871 65.1313C25.4081 65.93 24.1335 66.7351 22.863 67.5473C22.0938 68.0388 21.3232 68.5281 20.5521 69.0166C20.2192 69.228 19.8866 69.4401 19.5547 69.6531C19.1321 69.9237 18.7073 70.1903 18.2815 70.4559C18.0536 70.6 17.8257 70.7441 17.591 70.8926C15.6746 71.8393 13.8223 72.0147 11.7083 71.9923C11.4753 71.9948 11.2423 71.9972 11.0022 71.9998C8.39876 71.9905 5.66028 71.4769 3.65199 69.7077C3.26523 68.9517 3.10609 68.2494 3.35806 67.4231C4.13876 66.5393 4.95049 65.9959 5.97251 65.4449C6.12154 65.3629 6.27056 65.2809 6.4241 65.1964C7.95833 64.3576 9.51232 63.5565 11.0704 62.7631C11.8919 62.3447 12.7122 61.924 13.5328 61.5036C13.6917 61.4223 13.8507 61.3409 14.0145 61.2571C15.4953 60.4987 16.968 59.7257 18.4385 58.9476C19.5726 58.3475 20.7108 57.7552 21.8487 57.1624C23.3732 56.3678 24.8967 55.5716 26.4179 54.7709C26.5808 54.6852 26.7436 54.5995 26.9114 54.5112C27.744 54.0727 28.5754 53.6323 29.4056 53.1893C29.5727 53.1004 29.7397 53.0114 29.9118 52.9198C30.2284 52.751 30.5448 52.5819 30.861 52.4122C32.2462 51.6742 33.2531 51.5862 34.7857 51.6504C35.7727 51.6706 36.3293 51.5295 37.1329 50.9632C37.274 50.9632 37.4151 50.9632 37.5604 50.9632C37.5604 50.8221 37.5604 50.681 37.5604 50.5357C37.4428 50.483 37.3251 50.4304 37.2039 50.3762C35.4108 49.4121 34.0045 47.9161 32.8576 46.2604C33.7221 45.54 34.6371 44.9145 35.5714 44.2897C36.1884 43.8129 36.6467 43.4092 36.7772 42.6188C36.7799 42.4758 36.7827 42.3328 36.7855 42.1855C36.9191 41.3438 36.9191 41.3438 37.4135 40.9029C38.1696 40.6391 38.5553 40.7862 39.2708 41.1096C39.4217 41.1871 39.5726 41.2647 39.7281 41.3446C46.4422 44.7163 53.5048 46.3522 61.0027 46.3043C61.6363 46.3004 62.2697 46.3 62.9032 46.3C66.0124 46.2947 69.0165 46.1976 72.0701 45.5523C72.3026 45.504 72.5351 45.4557 72.7746 45.406C73.4357 45.2667 74.0958 45.1235 74.7555 44.9778C74.9147 44.9428 75.0738 44.9078 75.2378 44.8717C81.6937 43.4109 89.0112 40.0902 92.827 34.444C93.0811 34.0401 93.3283 33.634 93.5668 33.2207Z" fill="#373D4D"/>
<path d="M59.7313 10.5107C59.9893 10.5075 59.9893 10.5075 60.2525 10.5043C68.9303 10.4194 77.8278 11.5624 84.4287 17.7762C85.6262 19.0197 86.8544 20.4663 87.0072 22.2385C85.3407 26.5237 81.5785 29.0716 77.5322 30.8618C68.2298 34.7714 56.7789 34.8373 47.4332 31.1081C43.4726 29.4587 39.9412 26.9961 37.7494 23.2397C37.4188 22.3752 37.4596 21.7133 37.8054 20.8599C40.721 15.8549 45.9952 13.2207 51.4254 11.7473C54.1721 11.0456 56.8912 10.5396 59.7313 10.5107Z" fill="#030712"/>
<path d="M84.0822 10.3309C84.2495 10.4775 84.4167 10.6241 84.5891 10.7751C84.7541 10.9173 84.9192 11.0595 85.0892 11.206C87.0505 13.0164 88.6879 15.6562 88.9303 18.3479C89.048 21.8397 87.8472 24.4268 85.6178 27.048C80.793 32.1718 72.8241 34.7272 65.9374 34.9458C64.7988 34.9717 63.6603 34.9795 62.5215 34.9819C61.923 34.9839 61.3247 34.9906 60.7263 34.9973C58.1472 35.0125 55.6954 34.7922 53.1657 34.2892C52.957 34.2479 52.7484 34.2065 52.5335 34.1639C52.063 34.0616 51.5995 33.9476 51.1349 33.8216C50.9712 33.7778 50.8075 33.734 50.6389 33.6888C45.4817 32.2362 39.8032 29.4543 37.0398 24.6698C35.7032 22.2197 35.1821 19.7302 35.7772 16.9634C35.9767 16.3693 36.2134 15.8255 36.492 15.2642C36.5909 15.0583 36.6898 14.8525 36.7918 14.6404C39.4216 9.67011 44.9608 6.89604 50.137 5.29906C60.8958 2.24976 75.1346 2.82918 84.0822 10.3309ZM53.5932 11.2026C53.4127 11.2462 53.2322 11.2899 53.0462 11.3348C47.0149 12.8382 41.1437 15.3413 37.7879 20.8621C37.4469 21.7648 37.4412 22.4508 37.8055 23.3497C40.7627 28.4261 46.1008 31.019 51.5958 32.5106C61.0516 34.913 72.2642 34.2412 80.7851 29.1851C83.3984 27.5507 85.7779 25.4565 86.9405 22.5322C87.0735 21.042 86.0967 19.8287 85.2304 18.6844C82.802 15.7873 79.5315 14.0183 76.0385 12.699C75.888 12.6417 75.7375 12.5844 75.5825 12.5254C68.978 10.0777 60.4694 9.51959 53.5932 11.2026Z" fill="#64748B"/>
<path d="M93.7807 24.8848C93.8513 24.8848 93.9218 24.8848 93.9945 24.8848C94.083 27.2362 94.1538 29.3311 93.1394 31.5115C93.0488 31.7104 92.9581 31.9094 92.8647 32.1144C92.1082 33.6274 91.1056 34.7935 89.933 36.0005C89.7395 36.2175 89.7395 36.2175 89.5422 36.4389C87.3946 38.7685 84.4435 40.2604 81.5961 41.5584C81.3542 41.67 81.1123 41.7816 80.863 41.8966C76.8971 43.6008 72.6194 44.5152 68.3427 44.9787C68.0984 45.0062 68.0984 45.0062 67.8491 45.0342C66.624 45.1659 65.4127 45.2318 64.181 45.2434C63.995 45.2455 63.809 45.2475 63.6174 45.2497C59.4876 45.2866 55.5043 45.2456 51.4553 44.3374C51.2453 44.2915 51.0352 44.2457 50.8188 44.1985C46.9174 43.3258 43.2217 41.9527 39.6982 40.0621C39.6982 39.921 39.6982 39.7799 39.6982 39.6345C39.901 39.5464 40.1039 39.4582 40.3128 39.3673C40.9824 38.9924 41.1657 38.8418 41.4084 38.1382C42.2952 38.2788 43.043 38.5731 43.8666 38.9264C47.4731 40.4078 51.2398 41.2198 55.0893 41.7722C55.3492 41.8102 55.609 41.8483 55.8768 41.8875C56.9066 42.0138 57.9291 42.0167 58.9655 42.0143C59.2714 42.0146 59.2714 42.0146 59.5836 42.015C60.0137 42.0151 60.4438 42.0147 60.8739 42.0138C61.5226 42.0127 62.1712 42.0138 62.8199 42.0152C65.91 42.0167 68.9122 41.9466 71.95 41.3179C72.1744 41.2721 72.3989 41.2262 72.6301 41.179C74.3175 40.822 75.9824 40.3991 77.6415 39.9285C77.8635 39.8667 78.0856 39.8049 78.3144 39.7413C78.5178 39.6813 78.7212 39.6212 78.9308 39.5594C79.1106 39.5069 79.2904 39.4543 79.4756 39.4002C79.611 39.3365 79.7465 39.2727 79.886 39.207C79.9566 38.9954 80.0271 38.7838 80.0998 38.5657C79.9746 38.6119 79.8494 38.6581 79.7204 38.7057C70.8649 41.928 60.4903 42.7794 51.2415 40.7034C51.0371 40.6575 50.8327 40.6117 50.6222 40.5645C47.5725 39.8531 44.4307 38.9012 41.6221 37.4969C41.486 37.1628 41.3633 36.8233 41.248 36.4815C40.8307 35.4012 40.4697 34.9012 39.4845 34.2904C38.5571 34.0122 38.1788 34.0748 37.3468 34.5042C36.3324 34.4429 35.7569 33.9337 35.0488 33.2617C34.9374 33.1571 34.8259 33.0525 34.711 32.9448C32.5635 30.8758 30.6797 28.3746 30.5063 25.3123C31.0078 25.9294 31.4915 26.5558 31.9626 27.1961C32.1886 27.4953 32.4157 27.7937 32.644 28.0912C32.8011 28.2967 32.8011 28.2967 32.9613 28.5062C37.8235 34.4636 46.593 36.6841 53.8067 37.9244C54.036 37.9653 54.2654 38.0062 54.5017 38.0483C56.8489 38.4176 59.1829 38.417 61.5541 38.4077C62.2491 38.4054 62.944 38.4077 63.6391 38.4104C66.0316 38.412 68.3316 38.331 70.6941 37.9244C71.0083 37.8784 71.3226 37.8327 71.6369 37.7875C79.065 36.5481 86.8628 33.8183 91.8568 27.8775C92.4127 27.0957 92.918 26.2848 93.4142 25.4643C93.5351 25.273 93.6561 25.0818 93.7807 24.8848Z" fill="#030712"/>
<path d="M88.6501 38.9922C88.8657 41.4175 87.5275 43.6402 86.1075 45.5112C81.7833 50.6536 74.0957 53.0889 67.6248 53.6909C65.9906 53.798 64.355 53.8058 62.7178 53.8088C62.4617 53.8099 62.4617 53.8099 62.2004 53.8111C59.0511 53.8187 55.9386 53.6084 52.8712 52.8468C52.5915 52.7781 52.5915 52.7781 52.3062 52.708C48.237 51.6691 44.4181 50.0682 41.1943 47.329C41.069 47.2367 40.9436 47.1444 40.8144 47.0493C39.0903 45.7317 37.7408 43.6245 37.1328 41.5574C37.5069 41.1165 37.5069 41.1165 37.9879 40.7023C38.6296 40.7888 39.1563 41.0506 39.7281 41.3444C46.4422 44.7162 53.5047 46.352 61.0027 46.3042C61.6362 46.3003 62.2696 46.2998 62.9032 46.2999C66.0123 46.2945 69.0164 46.1974 72.07 45.5521C72.3025 45.5038 72.535 45.4555 72.7745 45.4058C73.4356 45.2665 74.0957 45.1234 74.7554 44.9776C74.9942 44.9251 74.9942 44.9251 75.2377 44.8716C79.7698 43.846 84.35 41.9071 88.1374 39.1976C88.4364 38.9922 88.4364 38.9922 88.6501 38.9922Z" fill="#030712"/>
<path d="M81.3823 28.3044C81.0784 29.2158 80.4276 29.4317 79.6187 29.8542C79.3775 29.9805 79.3775 29.9805 79.1315 30.1094C70.4164 34.5105 59.2201 34.8965 49.9876 32.0453C47.7686 31.3145 45.5258 30.4109 43.5459 29.1594C43.8067 28.3771 44.1094 28.2773 44.8206 27.9188C45.0427 27.8121 45.0427 27.8121 45.2694 27.7032C45.4994 27.591 45.4994 27.591 45.7341 27.4767C56.4947 22.3313 70.9814 22.0611 81.3823 28.3044Z" fill="#030712"/>
<path d="M33.0711 37.2817C34.4615 38.1046 35.0625 39.4413 35.6363 40.9157C35.7832 41.7574 35.7832 41.7574 35.6363 42.4121C34.7144 43.5137 33.509 44.2213 32.3095 44.9906C32.0918 45.1315 31.8741 45.2724 31.6498 45.4175C30.0861 46.4234 28.5018 47.3901 26.9024 48.3379C25.4607 49.194 24.0537 50.0961 22.65 51.0128C21.196 51.962 19.7249 52.8844 18.2546 53.8081C17.8466 54.0645 17.4388 54.3211 17.0311 54.5778C16.3482 55.0077 15.6648 55.4369 14.9812 55.8659C14.7685 55.9999 14.5557 56.1339 14.3366 56.272C13.1184 57.035 11.8889 57.7582 10.6258 58.4445C10.5552 57.6685 10.4847 56.8925 10.412 56.093C13.415 54.2599 16.4238 52.4374 19.4512 50.6448C20.5805 49.976 21.7089 49.3059 22.8372 48.6356C23.1021 48.4782 23.367 48.3209 23.6319 48.1636C24.464 47.6695 25.2943 47.1725 26.1237 46.674C26.4359 46.4888 26.4359 46.4888 26.7544 46.2998C26.9409 46.1871 27.1274 46.0745 27.3195 45.9584C27.4819 45.8611 27.6444 45.7639 27.8117 45.6636C27.9248 45.5782 28.038 45.4928 28.1545 45.4048C28.1545 45.2637 28.1545 45.1226 28.1545 44.9773C27.3474 45.2755 26.6446 45.6479 25.9125 46.0987C25.681 46.2404 25.4495 46.3822 25.2109 46.5282C25.0263 46.642 25.0263 46.642 24.838 46.758C24.1713 47.1686 23.503 47.5764 22.8346 47.9842C22.6942 48.0699 22.5538 48.1556 22.4092 48.2439C20.7967 49.2267 19.1717 50.1883 17.5464 51.1497C15.1563 52.5645 12.7747 53.9915 10.412 55.4518C9.86612 54.9585 9.55626 54.4541 9.20959 53.8084C8.51455 52.6157 7.62383 51.8273 6.56425 50.9627C6.42316 50.8216 6.28208 50.6805 6.13672 50.5352C8.89348 49.0115 11.6699 47.5324 14.47 46.09C15.9434 45.3291 17.4044 44.5502 18.8557 43.7481C21.2537 42.4244 23.6912 41.1789 26.1304 39.9336C26.2839 39.855 26.4374 39.7765 26.5956 39.6957C26.8983 39.541 27.2013 39.3869 27.5045 39.2333C28.2092 38.8743 28.9042 38.5069 29.5873 38.1081C29.8284 37.9691 30.0696 37.83 30.318 37.6867C30.6299 37.4998 30.6299 37.4998 30.948 37.3091C31.7479 37.0013 32.2454 37.0845 33.0711 37.2817Z" fill="#CCFE41"/>
<path d="M73.473 6.50172C73.6221 6.54433 73.7711 6.58694 73.9247 6.63084C77.3106 7.6089 80.6377 9.07417 83.3062 11.4183C83.5223 11.577 83.7383 11.7358 83.9609 11.8993C85.7409 13.4017 87.0956 15.7774 87.5815 18.045C87.612 18.6206 87.6018 19.178 87.5815 19.7551C87.085 19.2839 86.6885 18.7845 86.2856 18.2321C82.6403 13.5245 76.5502 11.3063 70.9079 10.1357C70.5694 10.0558 70.2309 9.97562 69.8925 9.89524C68.268 9.54106 66.6368 9.457 64.9784 9.43598C64.6864 9.43195 64.6864 9.43195 64.3885 9.42783C59.9743 9.37872 55.7525 9.42637 51.4553 10.5633C51.2541 10.6159 51.053 10.6686 50.8458 10.7228C45.4806 12.1897 40.1954 14.9778 37.133 19.7551C37.0625 19.7551 36.9919 19.7551 36.9193 19.7551C36.7299 17.293 37.7132 15.2019 39.2707 13.3422C43.483 8.52812 49.7698 6.369 55.9443 5.4329C56.2188 5.38909 56.4932 5.34527 56.776 5.30013C62.296 4.49066 68.1299 4.90239 73.473 6.50172Z" fill="#030712"/>
<path d="M85.0164 25.0983C84.9206 26.0347 84.356 26.4437 83.6803 27.0489C83.4764 27.2346 83.2725 27.4204 83.0624 27.6117C82.0692 28.3905 82.0692 28.3905 81.3824 28.5185C80.8399 28.3001 80.3874 28.0742 79.886 27.7837C76.6895 26.0696 73.2311 25.1373 69.6687 24.5371C69.2591 24.4674 68.8509 24.3899 68.4429 24.3109C64.0792 23.5717 59.4179 23.83 55.0893 24.6708C54.9231 24.7017 54.757 24.7326 54.5858 24.7644C50.86 25.4688 47.5339 26.7559 44.1873 28.5185C43.9027 28.662 43.618 28.805 43.3322 28.9461C41.9373 27.9904 40.7339 27.0832 39.6982 25.7396C52.168 17.1667 72.1068 18.6598 85.0164 25.0983Z" fill="#373D4D"/>
<path d="M5.19672 51.6081C7.05855 52.3723 8.09164 53.9715 8.90337 55.7306C9.36387 56.9048 9.60909 58.0438 9.08957 59.2469C8.52892 59.9428 7.71213 60.5283 6.80329 60.6263C5.17132 60.6604 3.97062 60.3793 2.75679 59.2469C1.63084 58.0129 1.30651 56.8236 1.36064 55.177C1.52061 53.9154 2.08702 53.0217 2.97056 52.1258C3.7123 51.5545 4.27859 51.4264 5.19672 51.6081Z" fill="#030712"/>
<path d="M39.4843 35.5727C39.8041 35.8833 39.8041 35.8833 40.0053 36.2674C40.0756 36.392 40.1459 36.5165 40.2183 36.6448C40.3941 37.2609 40.373 37.5393 40.1256 38.1379C39.6366 38.5583 39.0966 38.865 38.5357 39.18C38.3873 39.2687 38.2389 39.3574 38.086 39.4488C37.7061 39.6695 37.3132 39.8676 36.9191 40.0617C36.3263 39.7653 36.2308 39.397 35.9438 38.8059C35.8509 38.6168 35.7581 38.4278 35.6624 38.233C35.4227 37.7103 35.4227 37.7103 35.209 37.069C35.6787 36.775 36.1506 36.4866 36.6252 36.2006C36.7572 36.1173 36.8892 36.0339 37.0251 35.948C37.9088 35.4225 38.4602 35.2115 39.4843 35.5727Z" fill="#030712"/>
<path d="M30.5063 28.3047C31.0486 29.009 31.5365 29.743 32.0294 30.4824C33.2111 32.2169 34.6371 33.6271 36.278 34.9314C35.6395 35.4812 35.1795 35.8327 34.3541 36.0002C32.3942 34.028 30.5063 31.1789 30.5063 28.3047Z" fill="#030712"/>
<path d="M90.5744 32.1523C90.5744 33.0074 90.5744 33.0074 90.1352 33.4591C89.8367 33.6919 89.8367 33.6919 89.5323 33.9293C89.3184 34.0963 89.1046 34.2632 88.8843 34.4353C86.2681 36.3974 86.2681 36.3974 85.0165 36.8552C84.946 36.6435 84.8754 36.4319 84.8027 36.2139C85.0094 36.0819 85.2161 35.9499 85.429 35.8139C86.9867 34.8051 88.4135 33.7922 89.7502 32.498C90.1469 32.1523 90.1469 32.1523 90.5744 32.1523Z" fill="#64748B"/>
<path d="M33.7127 41.7715C33.4245 42.6362 33.0217 42.7625 32.2431 43.2144C32.0144 43.35 31.7857 43.4855 31.55 43.6252C30.9338 43.9091 30.9338 43.9091 30.2925 43.6954C31.2619 42.6378 32.2082 41.7715 33.7127 41.7715Z" fill="#64748B"/>
<path d="M80.0998 38.5664C80.0293 38.8486 79.9588 39.1307 79.8861 39.4215C78.7221 39.7389 78.7221 39.7389 77.5347 40.0628C77.6052 39.7806 77.6758 39.4984 77.7484 39.2077C78.1751 38.9839 78.1751 38.9839 78.697 38.8336C78.9545 38.7559 78.9545 38.7559 79.2172 38.6766C79.6723 38.5664 79.6723 38.5664 80.0998 38.5664Z" fill="#64748B"/>
<path d="M31.1477 34.0762C31.6877 34.5813 31.9789 34.8595 32.2166 35.5725C31.7228 35.7136 31.229 35.8547 30.7202 36.0001C30.8613 35.3652 31.0024 34.7303 31.1477 34.0762Z" fill="#373D4D"/>
</svg>
