<svg width="307" height="308" viewBox="0 0 307 308" fill="none" xmlns="http://www.w3.org/2000/svg">
<path d="M37.7386 102.953C66.1943 38.2225 140.892 7.79426 204.95 35.9541C244.032 53.135 269.768 88.0837 277.374 127.317C278.997 135.686 273.528 143.785 265.159 145.408C256.791 147.03 248.692 141.561 247.069 133.193C241.271 103.29 221.78 77.0739 192.526 64.2138C144.672 43.1768 87.8576 65.6512 65.9984 115.376C44.1392 165.101 65.9915 222.157 113.846 243.194C133.148 251.679 153.797 253.093 173.066 248.531C181.361 246.568 189.678 251.7 191.641 259.995C193.605 268.29 188.473 276.606 180.178 278.57C154.657 284.612 127.128 282.754 101.423 271.454C37.3655 243.294 9.28295 167.683 37.7386 102.953ZM216.357 217.502C228.887 214.516 241.466 222.253 244.453 234.782C247.439 247.312 239.702 259.891 227.172 262.878C214.642 265.864 202.064 258.127 199.077 245.597C196.091 233.068 203.828 220.489 216.357 217.502ZM249.447 156.371C266.187 152.381 282.992 162.717 286.981 179.457C290.971 196.196 280.635 213.001 263.896 216.991C247.156 220.981 230.351 210.645 226.361 193.905C222.371 177.165 232.707 160.36 249.447 156.371Z" fill="url(#paint0_linear_3433_1650)"/>
<defs>
<linearGradient id="paint0_linear_3433_1650" x1="239.131" y1="247.783" x2="69.6452" y2="53.4571" gradientUnits="userSpaceOnUse">
<stop stop-color="#FB9341"/>
<stop offset="1" stop-color="#E30D3E"/>
</linearGradient>
</defs>
</svg>
