<svg width="12" height="12" viewBox="0 0 12 12" fill="none" xmlns="http://www.w3.org/2000/svg">
  <g transform="translate(-8 -6)">
    <path d="M11.7192 14.029L13.4891 13.036L13.5189 12.9497L13.4891 12.9017H13.4029L13.1071 12.8835L12.0958 12.8562L11.2188 12.8198L10.3691 12.7742L10.1553 12.7286L9.95483 12.4644L9.97548 12.3326L10.1553 12.2118L10.4128 12.2342L10.9819 12.2731L11.8359 12.332L12.4554 12.3685L13.3731 12.4638H13.5189L13.5395 12.4049L13.4897 12.3685L13.4509 12.332L12.5671 11.7332L11.6105 11.1003L11.1094 10.7359L10.8386 10.5512L10.7019 10.3781L10.643 10.0003L10.889 9.72946L11.2194 9.75193L11.3038 9.7744L11.6385 10.0319L12.3533 10.5852L13.2869 11.2728L13.4235 11.3864L13.4782 11.3475L13.4849 11.3202L13.4235 11.2175L12.9158 10.2998L12.374 9.36625L12.1329 8.97935L12.0691 8.74734C12.0466 8.65198 12.0302 8.57181 12.0302 8.47402L12.3102 8.09381L12.4651 8.04401L12.8386 8.09381L12.9959 8.23047L13.2279 8.76131L13.6039 9.59705L14.187 10.7334L14.3577 11.0705L14.4488 11.3827L14.4828 11.4781H14.5417V11.4234L14.5897 10.7832L14.6783 9.99731L14.7646 8.98604L14.7944 8.70118L14.9353 8.35984L15.2153 8.1752L15.4339 8.27967L15.6137 8.53719L15.5888 8.70361L15.4819 9.39844L15.2724 10.4868L15.1357 11.2157H15.2153L15.3064 11.1246L15.675 10.635L16.2946 9.86065L16.5679 9.55332L16.8867 9.2138L17.0914 9.05224H17.4783L17.7632 9.47558L17.6356 9.91288L17.2372 10.4182L16.9068 10.8464L16.433 11.4841L16.1372 11.9943L16.1646 12.035L16.235 12.0284L17.3052 11.8006L17.8834 11.6961L18.5734 11.5777L18.8856 11.7234L18.9196 11.8716L18.7969 12.1747L18.059 12.3569L17.1935 12.53L15.9046 12.8349L15.8888 12.8465L15.9071 12.8689L16.4877 12.9236L16.7361 12.937H17.3441L18.4762 13.0214L18.772 13.217L18.9494 13.4563L18.9196 13.6385L18.4641 13.8705L17.8494 13.7247L16.4148 13.3834L15.9228 13.2607H15.8548V13.3014L16.2648 13.7023L17.0161 14.3807L17.9569 15.2553L18.0049 15.4715L17.884 15.6422L17.7565 15.624L16.9299 15.002L16.611 14.722L15.8888 14.1141H15.8409V14.1778L16.0073 14.4214L16.8861 15.7424L16.9317 16.1475L16.8679 16.2793L16.6401 16.3589L16.3899 16.3133L15.8755 15.5912L15.3446 14.7779L14.9164 14.0491L14.8642 14.0788L14.6115 16.8005L14.4931 16.9395L14.2198 17.044L13.992 16.8709L13.8712 16.5909L13.992 16.0376L14.1378 15.3154L14.2562 14.7415L14.3631 14.0284L14.4269 13.7915L14.4226 13.7758L14.3704 13.7824L13.8329 14.5204L13.0154 15.6252L12.3685 16.3176L12.2136 16.3789L11.9452 16.2399L11.9701 15.9914L12.1201 15.7704L13.0154 14.6315L13.5553 13.9258L13.904 13.5182L13.9015 13.4593H13.8809L11.503 15.0032L11.0797 15.0579L10.8975 14.8872L10.9199 14.6072L11.0062 14.5161L11.7211 14.0242L11.7186 14.0266L11.7192 14.029Z" fill="#D97757"/>
  </g>
</svg>
