<svg width="16" height="16" viewBox="0 0 16 16" fill="none" xmlns="http://www.w3.org/2000/svg">
<path d="M8 1C4.13 1 1 4.13 1 8C1 11.87 4.13 15 8 15C11.87 15 15 11.87 15 8C15 4.13 11.87 1 8 1ZM10.5 11.5C10.5 11.78 10.28 12 10 12H6C5.72 12 5.5 11.78 5.5 11.5V7C5.5 5.62 6.62 4.5 8 4.5C9.38 4.5 10.5 5.62 10.5 7V11.5ZM7 6.5C6.72 6.5 6.5 6.72 6.5 7C6.5 7.28 6.72 7.5 7 7.5C7.28 7.5 7.5 7.28 7.5 7C7.5 6.72 7.28 6.5 7 6.5ZM9 6.5C8.72 6.5 8.5 6.72 8.5 7C8.5 7.28 8.72 7.5 9 7.5C9.28 7.5 9.5 7.28 9.5 7C9.5 6.72 9.28 6.5 9 6.5Z" fill="#030712"/>
</svg>
