<svg width="16" height="16" viewBox="0 0 16 16" fill="none" xmlns="http://www.w3.org/2000/svg">
  <path d="M14.5011 4.76339L10.5592 2.48753V3.5415C9.09452 3.48004 7.58532 3.53907 5.8672 4.75836C4.33917 5.84277 4.33564 5.84477 3.6855 6.21302L3.62922 6.2449C3.37675 6.38797 2.9306 6.54835 2.44796 6.67693C2.21845 6.73807 2.00387 6.78589 1.83213 6.81759C1.68704 6.84436 1.60781 6.85295 1.58339 6.8556C1.57493 6.85651 1.57305 6.85672 1.57729 6.85672V6.85978C1.55084 6.85868 1.5254 6.85812 1.50109 6.85812V9.14327C1.49685 9.14327 1.49873 9.14348 1.50719 9.14439C1.53161 9.14704 1.61084 9.15563 1.75592 9.1824C1.92767 9.2141 2.14224 9.26192 2.37176 9.32306C2.85439 9.45163 3.30055 9.61202 3.55302 9.75508L3.6093 9.78697C4.25944 10.1552 4.26296 10.1572 5.791 11.2416C7.50912 12.4609 9.01833 12.52 10.483 12.4585V13.5125L14.4249 11.2366L10.483 8.96076V10.1552C9.0845 10.2163 8.31271 10.2291 7.11352 9.37806L7.0921 9.36286C5.87479 8.49896 5.5828 8.29174 5.12477 8.02226C5.63004 7.7288 5.88493 7.54791 7.1683 6.63713L7.18972 6.62193C8.3889 5.77091 9.16069 5.78367 10.5592 5.8448V7.03925L14.5011 4.76339Z" fill="currentColor"/>
</svg>
