<svg width="16" height="16" viewBox="0 0 16 16" fill="none" xmlns="http://www.w3.org/2000/svg">
  <mask id="mask0_1885_3033" style="mask-type:luminance" maskUnits="userSpaceOnUse" x="1" y="1" width="14" height="14">
    <path d="M1.33398 1.3335H14.6673V14.6668H1.33398V1.3335Z" fill="white"/>
  </mask>
  <g mask="url(#mask0_1885_3033)">
    <path
      d="M13.7122 6.78979C13.8612 6.34089 13.9127 5.86536 13.8632 5.39499C13.8138 4.92459 13.6646 4.47016 13.4255 4.06202C13.0711 3.44499 12.5298 2.9565 11.8798 2.66694C11.2298 2.37738 10.5046 2.30174 9.80886 2.45091C9.41366 2.01128 8.90976 1.68336 8.34776 1.50006C7.78576 1.31676 7.18543 1.28454 6.60706 1.40664C6.02866 1.52873 5.49256 1.80085 5.05259 2.19565C4.61263 2.59046 4.28429 3.09407 4.10053 3.65592C3.63696 3.75096 3.19904 3.94382 2.81601 4.22166C2.43298 4.49949 2.11366 4.85589 1.8794 5.26702C1.52104 5.88302 1.36789 6.59702 1.44209 7.30579C1.51629 8.01459 1.81401 8.68139 2.29218 9.20979C2.14244 9.65852 2.09026 10.1341 2.13912 10.6046C2.18798 11.0751 2.33676 11.5298 2.57551 11.9381C2.93044 12.5554 3.47219 13.044 4.12269 13.3335C4.77316 13.6231 5.49879 13.6986 6.19496 13.5493C6.50897 13.903 6.89485 14.1857 7.32683 14.3785C7.75879 14.5713 8.22693 14.6696 8.69996 14.667C9.41313 14.6677 10.108 14.4417 10.6844 14.0217C11.2608 13.6017 11.6888 13.0094 11.9066 12.3304C12.37 12.2351 12.8078 12.0421 13.1907 11.7643C13.5736 11.4865 13.8928 11.1302 14.1272 10.7193C14.4813 10.1042 14.6318 9.39296 14.5573 8.68719C14.4828 7.98142 14.187 7.31729 13.7122 6.78979ZM8.69996 13.7948C8.11606 13.7958 7.55043 13.5912 7.10219 13.217L7.18053 13.172L9.83553 11.6398C9.90146 11.601 9.95623 11.5458 9.99439 11.4794C10.0326 11.4131 10.0529 11.338 10.0533 11.2615V7.51869L11.1755 8.16759C11.1811 8.17039 11.1859 8.17446 11.1895 8.17949C11.1932 8.18452 11.1956 8.19032 11.1966 8.19646V11.2981C11.1952 11.9599 10.9316 12.594 10.4638 13.0619C9.99586 13.5298 9.36166 13.7933 8.69996 13.7948ZM3.33329 11.5026C3.04023 10.9968 2.93498 10.4039 3.03607 9.82812L3.11496 9.87536L5.77219 11.4081C5.83789 11.4467 5.91266 11.467 5.98886 11.467C6.06503 11.467 6.13979 11.4467 6.20553 11.4081L9.45163 9.53646V10.832C9.45139 10.8388 9.44963 10.8454 9.44643 10.8514C9.44326 10.8573 9.43876 10.8625 9.43329 10.8665L6.74439 12.417C6.17063 12.7474 5.48926 12.8366 4.84976 12.6652C4.21026 12.4937 3.66489 12.0756 3.33329 11.5026ZM2.63329 5.72036C2.92827 5.21126 3.39389 4.82296 3.94773 4.62426V7.77812C3.94676 7.85429 3.96626 7.92932 4.00416 7.99539C4.04209 8.06142 4.09703 8.11612 4.16329 8.15369L7.39386 10.0176L6.27163 10.6665C6.26556 10.6697 6.25876 10.6714 6.25189 10.6714C6.24503 10.6714 6.23826 10.6697 6.23219 10.6665L3.54886 9.11869C2.97592 8.78686 2.55787 8.24146 2.38626 7.60199C2.21466 6.96252 2.30348 6.28112 2.63329 5.70702V5.72036ZM11.8539 7.86202L8.61329 5.98036L9.73273 5.33369C9.73883 5.33049 9.74559 5.32879 9.75246 5.32879C9.75933 5.32879 9.76609 5.33049 9.77219 5.33369L12.4555 6.88426C12.866 7.12086 13.2007 7.46942 13.4205 7.88919C13.6403 8.30899 13.7361 8.78262 13.6967 9.25482C13.6574 9.72702 13.4844 10.1783 13.1981 10.5558C12.9118 10.9334 12.524 11.2217 12.08 11.387V8.23259C12.0776 8.15652 12.0556 8.08236 12.0159 8.01739C11.9763 7.95242 11.9204 7.89889 11.8539 7.86202ZM12.9705 6.18259L12.8922 6.13536L10.24 4.58979C10.1738 4.55102 10.0986 4.53059 10.0219 4.53059C9.94523 4.53059 9.86996 4.55102 9.80386 4.58979L6.56053 6.46146V5.16536C6.55983 5.15882 6.56093 5.15226 6.56366 5.14629C6.56639 5.14032 6.57069 5.13522 6.57606 5.13146L9.25939 3.58312C9.67069 3.34642 10.1409 3.23167 10.615 3.25228C11.0891 3.2729 11.5476 3.42802 11.9368 3.69956C12.326 3.97106 12.6299 4.34772 12.8129 4.78556C12.996 5.22339 13.0506 5.70429 12.9705 6.17202V6.18259ZM5.94829 8.47979L4.82606 7.83312C4.82042 7.82975 4.8156 7.82516 4.81196 7.81969C4.80829 7.81419 4.80593 7.80799 4.80496 7.80146V4.70869C4.80589 4.23429 4.94176 3.76996 5.19676 3.36992C5.45173 2.96987 5.81526 2.65063 6.24489 2.44948C6.67453 2.24832 7.15253 2.17356 7.62306 2.23392C8.09359 2.29428 8.53723 2.48727 8.90219 2.79036L8.82329 2.8348L6.16886 4.36702C6.10276 4.40576 6.04789 4.46099 6.00963 4.52732C5.97136 4.59362 5.95099 4.66879 5.95053 4.74536L5.94829 8.47979ZM6.55773 7.16592L8.00329 6.33259L9.45163 7.16592V8.83202L8.00886 9.66536L6.56053 8.83202L6.55773 7.16592Z"
      fill="currentColor"/>
  </g>
</svg>
