<svg width="16" height="16" viewBox="0 0 16 16" fill="none" xmlns="http://www.w3.org/2000/svg">
<path d="M1.96388 5.3595C3.44499 1.99029 7.33379 0.406698 10.668 1.87241C12.7018 2.76669 14.0415 4.5853 14.4375 6.62702C14.5219 7.06251 14.237 7.48409 13.8016 7.56867C13.3661 7.6531 12.9448 7.36908 12.8601 6.9337C12.5584 5.37727 11.5432 4.01222 10.0205 3.34285C7.52987 2.24816 4.57285 3.41785 3.43505 6.00574C2.29729 8.59391 3.43465 11.5645 5.92546 12.6594C6.93007 13.101 8.00536 13.1741 9.0083 12.9366C9.43994 12.8346 9.87259 13.1018 9.97478 13.5335C10.0769 13.9652 9.80964 14.3978 9.3779 14.5C8.04958 14.8144 6.61691 14.7178 5.27899 14.1297C1.94489 12.664 0.482901 8.72865 1.96388 5.3595ZM11.2616 11.3213C11.9135 11.1662 12.5683 11.5689 12.7238 12.2207C12.8792 12.8727 12.4764 13.5273 11.8245 13.6829C11.1723 13.8384 10.5167 13.436 10.3613 12.7838C10.2061 12.1317 10.6095 11.4768 11.2616 11.3213ZM12.984 8.14C13.855 7.93264 14.729 8.47016 14.9368 9.34107C15.1444 10.2122 14.607 11.0869 13.736 11.2948C12.8647 11.5025 11.9897 10.9643 11.782 10.093C11.5746 9.22184 12.1129 8.34764 12.984 8.14Z" fill="url(#paint0_linear_4274_74)"/>
<defs>
<linearGradient id="paint0_linear_4274_74" x1="12.4468" y1="12.8974" x2="3.62569" y2="2.78279" gradientUnits="userSpaceOnUse">
<stop stop-color="#FB9341"/>
<stop offset="1" stop-color="#E30D3E"/>
</linearGradient>
</defs>
</svg>
