<svg width="99" height="64" viewBox="0 0 99 64" fill="none" xmlns="http://www.w3.org/2000/svg">
<path d="M85.9531 3.55293C86.0117 4.19696 86.0166 4.54467 85.6633 5.09752C85.4557 5.33212 85.4557 5.33212 85.2439 5.57146C84.4298 6.53865 83.6892 7.535 82.9662 8.57198C82.0449 9.88926 81.1142 11.1987 80.1703 12.4999C79.2522 13.7668 78.3425 15.0389 77.4426 16.3188C76.4254 17.7654 75.3936 19.2009 74.3559 20.6329C73.5583 21.7352 72.7697 22.8434 71.9871 23.9565C71.0871 25.2363 70.1773 26.5084 69.2593 27.7753C67.8975 29.6553 66.5573 31.55 65.2223 33.449C63.7714 35.5128 62.3115 37.5692 60.8307 39.6117C59.8788 40.9264 58.9412 42.2507 58.0116 43.5813C57.4571 44.3721 56.8891 45.1408 56.2753 45.8875C55.4309 45.7585 54.8098 45.5073 54.0683 45.0871C53.8524 44.9655 53.6364 44.8439 53.4139 44.7186C53.1834 44.5867 52.953 44.4549 52.7156 44.3191C52.4769 44.1843 52.2383 44.0495 51.9925 43.9106C50.7359 43.1981 49.4867 42.4742 48.2429 41.7396C48.0068 41.6005 47.7708 41.4613 47.5276 41.3179C47.0751 41.0501 46.6235 40.7808 46.173 40.5099C45.968 40.3883 45.763 40.2667 45.5518 40.1414C45.3728 40.034 45.1939 39.9265 45.0095 39.8159C44.4576 39.5424 44.0139 39.396 43.4003 39.3409C42.914 39.67 42.5287 39.9805 42.1046 40.3775C41.8539 40.601 41.6027 40.8241 41.3511 41.0466C41.2218 41.162 41.0926 41.2774 40.9594 41.3962C40.2015 42.0568 39.4037 42.6665 38.6085 43.2812C38.0172 43.7394 37.4381 44.2019 36.8691 44.6882C36.6795 44.8499 36.4899 45.0117 36.2945 45.1783C36.0511 45.3927 36.0511 45.3927 35.8027 45.6113C35.1856 45.969 34.9082 45.8342 34.2351 45.6693C34.1943 45.5413 34.1534 45.4134 34.1113 45.2815C33.6796 43.9287 33.2475 42.576 32.8153 41.2234C32.6548 40.7211 32.4944 40.2187 32.3341 39.7163C32.2568 39.474 32.1794 39.2317 32.0998 38.9821C32.023 38.7413 31.9462 38.5005 31.8671 38.2524C31.7126 37.7703 31.557 37.2885 31.4003 36.8071C31.0515 35.7352 30.7125 34.6652 30.4168 33.5773C29.8578 31.4758 29.8578 31.4758 28.3926 29.9336C27.9913 29.729 27.5833 29.5371 27.1702 29.3574C26.7173 29.1313 26.2646 28.9046 25.8123 28.6772C25.5805 28.5656 25.3487 28.4539 25.1098 28.339C23.9859 27.78 22.9151 27.1358 21.8375 26.4933C20.5635 25.7426 19.2874 24.9967 17.9972 24.2742C17.4682 23.978 16.9402 23.6798 16.4123 23.3816C16.0341 23.1692 15.6543 22.9598 15.2744 22.7504C15.0461 22.6212 14.8178 22.4921 14.5825 22.359C14.3793 22.2459 14.1761 22.1328 13.9667 22.0162C13.5042 21.6652 13.5042 21.6652 13.3277 21.1853C13.314 21.0556 13.3002 20.9259 13.286 20.7923C14.3278 20.0364 15.4636 19.8305 16.6957 19.5512C17.0507 19.4682 17.0507 19.4682 17.4129 19.3835C18.8226 19.0556 20.2343 18.7369 21.6457 18.4166C22.1209 18.3087 22.5961 18.2008 23.0713 18.0928C23.396 18.019 23.7208 17.9454 24.0456 17.8718C26.5226 17.3099 28.9881 16.7109 31.4499 16.086C33.8502 15.4775 36.2597 14.9227 38.6773 14.3863C40.6969 13.935 42.704 13.4455 44.7096 12.9364C47.2729 12.2857 49.8429 11.686 52.4249 11.113C54.4445 10.6617 56.4517 10.1722 58.4575 9.66308C61.0207 9.01245 63.5907 8.41266 66.1727 7.83975C68.3381 7.35588 70.489 6.82571 72.6393 6.27954C75.1503 5.64261 77.6706 5.05787 80.2006 4.50125C81.5983 4.19223 82.9725 3.85984 84.3392 3.43215C84.9396 3.32026 85.3668 3.3985 85.9531 3.55293Z" fill="#373D4D"/>
<path d="M85.0799 22.9746C84.6043 23.9702 83.9849 24.8492 83.3615 25.7569C83.1716 26.0341 83.1716 26.0341 82.9779 26.3169C82.0759 27.6248 81.1379 28.8993 80.1748 30.1624C79.3357 31.2701 78.5475 32.407 77.7696 33.5583C76.7918 35.0052 75.7776 36.4123 74.7188 37.8008C73.8799 38.9082 73.0919 40.0449 72.3141 41.1959C71.3363 42.6429 70.3221 44.05 69.2633 45.4384C68.4244 46.5459 67.6364 47.6826 66.8586 48.8336C65.8808 50.2806 64.8666 51.6877 63.8078 53.0761C62.841 54.3524 61.9437 55.6711 61.0476 56.9976C60.1531 58.3151 59.2144 59.5921 58.2506 60.8596C57.4767 61.8795 56.7421 62.9177 56.0567 63.9999C54.7078 63.6445 53.5885 62.9213 52.4015 62.2132C51.9294 61.9346 51.4571 61.6562 50.9848 61.3778C50.7413 61.234 50.4978 61.0901 50.2468 60.9418C49.0691 60.2489 47.8849 59.567 46.7006 58.8854C46.2238 58.6106 45.747 58.3358 45.2702 58.0611C45.0334 57.9247 44.7966 57.7883 44.5527 57.6478C43.368 56.9652 42.1838 56.2818 40.9996 55.5984C40.5268 55.3256 40.054 55.0529 39.5811 54.7801C36.7443 53.1435 33.9074 51.5068 31.0706 49.8702C30.8365 49.7351 30.6024 49.6001 30.3613 49.461C29.8888 49.1884 29.4163 48.9158 28.9439 48.6432C27.7567 47.9581 26.5693 47.2734 25.3815 46.5892C23.0109 45.2233 20.6419 43.8545 18.2775 42.478C18.0642 42.354 17.8509 42.2301 17.6312 42.1024C16.4605 41.4198 15.3037 40.7205 14.1586 39.9957C14.888 39.5094 15.448 39.3726 16.2994 39.1692C16.4496 39.133 16.5997 39.0967 16.7545 39.0594C17.2505 38.94 17.7469 38.8225 18.2434 38.7052C18.5883 38.6227 18.9331 38.5402 19.278 38.4575C20.0005 38.2847 20.7233 38.1127 21.4462 37.9414C22.3734 37.7217 23.3001 37.5002 24.2266 37.278C24.9386 37.1075 25.6508 36.9376 26.363 36.7681C26.7048 36.6867 27.0465 36.6051 27.3883 36.5232C27.8655 36.4092 28.343 36.296 28.8206 36.1832C29.0924 36.1186 29.3642 36.054 29.6443 35.9875C30.3068 35.8496 30.3068 35.8496 30.9615 35.8496C31.0695 35.6335 31.0695 35.6335 31.1797 35.4131C32.2599 38.7977 33.3401 42.1823 34.453 45.6694C35.4984 45.4604 35.728 45.3822 36.4852 44.742C36.7674 44.5074 36.7674 44.5074 37.0554 44.2681C37.1605 44.1796 37.2656 44.0911 37.3739 44C38.2166 43.2956 39.0739 42.6087 39.9282 41.9185C40.5889 41.3837 41.2467 40.8478 41.8886 40.2907C42.0768 40.1303 42.265 39.97 42.4589 39.8048C42.6965 39.5963 42.6965 39.5963 42.9388 39.3837C43.4 39.1229 43.4 39.1229 43.8947 39.1728C44.5923 39.3696 45.1378 39.6634 45.7655 40.0264C46.0133 40.1689 46.2611 40.3114 46.5164 40.4582C46.6466 40.5341 46.7769 40.61 46.911 40.6882C47.3178 40.9252 47.7257 41.16 48.134 41.3945C49.4434 42.1486 50.7439 42.915 52.0333 43.7029C52.3595 43.9009 52.3595 43.9009 52.6923 44.1029C53.0996 44.3513 53.5053 44.6025 53.909 44.8569C54.1818 45.0232 54.1818 45.0232 54.4601 45.1929C54.6949 45.3396 54.6949 45.3396 54.9345 45.4892C55.549 45.7261 55.8758 45.6665 56.4932 45.4512C56.8287 45.1554 56.8287 45.1554 57.0728 44.7565C57.2228 44.537 57.2228 44.537 57.3757 44.313C57.4806 44.153 57.5854 43.993 57.6934 43.8282C57.9255 43.4865 58.158 43.145 58.3907 42.8036C58.5692 42.5389 58.5692 42.5389 58.7514 42.2689C59.3181 41.4395 59.9108 40.6297 60.5029 39.8184C61.6403 38.2511 62.7538 36.6682 63.8608 35.0793C64.716 33.854 65.5847 32.6394 66.4631 31.4306C67.7551 29.6523 69.0052 27.8474 70.241 26.0297C70.385 26.1017 70.529 26.1737 70.6774 26.2479C71.106 26.1807 71.5314 26.093 71.9544 25.9964C72.3568 25.9053 72.3568 25.9053 72.7674 25.8124C73.0618 25.7439 73.3563 25.6754 73.6507 25.6069C73.9519 25.5379 74.2532 25.469 74.5545 25.4001C77.1212 24.8097 79.6765 24.1733 82.2274 23.5181C82.506 23.447 82.7846 23.376 83.0716 23.3028C83.3177 23.2394 83.5638 23.176 83.8173 23.1106C84.4253 22.9746 84.4253 22.9746 85.0799 22.9746Z" fill="#F3F4FE"/>
<path d="M82.0252 7.04443C82.0252 7.99454 81.4571 8.50889 80.8932 9.22663C79.8797 10.5444 78.917 11.8851 77.9881 13.2637C77.0106 14.7108 75.9961 16.1177 74.9373 17.5062C74.0984 18.6137 73.3105 19.7504 72.5326 20.9014C71.5549 22.3483 70.5406 23.7554 69.4818 25.1439C68.643 26.2514 67.855 27.388 67.0772 28.5391C66.0994 29.986 65.0851 31.3931 64.0263 32.7816C63.0593 34.0583 62.1616 35.3775 61.2652 36.7044C60.3813 38.0064 59.4531 39.2672 58.4999 40.519C57.556 41.7639 56.6846 43.0465 55.8388 44.36C55.0075 44.0492 54.2581 43.6662 53.4887 43.2246C53.2433 43.084 52.9978 42.9435 52.7449 42.7987C52.4805 42.6463 52.2162 42.4939 51.9518 42.3414C51.679 42.1847 51.4061 42.0281 51.1332 41.8714C47.8126 39.9636 44.4978 38.045 41.2181 36.0676C41.4832 35.2725 41.72 35.1569 42.4022 34.6927C42.6054 34.553 42.8086 34.4134 43.018 34.2695C43.2387 34.1202 43.4594 33.971 43.6867 33.8172C44.1497 33.4999 44.6125 33.1826 45.0753 32.8651C45.3084 32.706 45.5415 32.5469 45.7817 32.3829C46.7389 31.7273 47.6884 31.0611 48.6376 30.3939C50.1991 29.2993 51.7635 28.209 53.3293 27.1206C55.4454 25.6497 57.5578 24.1736 59.6682 22.6947C60.5737 22.0602 61.4796 21.4263 62.3854 20.7923C62.7491 20.5377 63.1128 20.2831 63.4765 20.0285C69.6594 15.7005 75.8423 11.3725 82.0252 7.04443Z" fill="white"/>
<path d="M78.5336 6.60743C75.2996 8.18397 72.0643 9.75478 68.7955 11.2582C66.2108 12.4479 63.6529 13.6879 61.0971 14.9381C58.6787 16.1204 56.2502 17.2733 53.804 18.3973C51.6668 19.3835 49.5516 20.4122 47.4373 21.4464C44.8174 22.7278 42.1907 23.9874 39.5387 25.2014C38.1644 25.8328 36.8022 26.4837 35.448 27.1567C35.136 27.311 34.8239 27.4652 34.5119 27.6194C33.9113 27.9164 33.3128 28.2173 32.7152 28.5203C32.4425 28.6555 32.1697 28.7906 31.8968 28.9255C31.658 29.0457 31.4192 29.1659 31.1731 29.2898C30.442 29.5501 30.1586 29.5559 29.4342 29.3023C29.0118 29.094 28.5977 28.8686 28.1905 28.6323C27.9472 28.4921 27.704 28.352 27.4533 28.2076C27.1907 28.0542 26.9281 27.9009 26.6655 27.7474C26.3941 27.5904 26.1227 27.4334 25.8512 27.2766C25.2894 26.9519 24.7281 26.6263 24.1672 26.3001C23.3532 25.8271 22.5372 25.3577 21.7206 24.8893C21.2185 24.6009 20.7164 24.3125 20.2144 24.0241C19.9824 23.8908 19.7504 23.7576 19.5114 23.6203C18.2937 22.9182 17.0911 22.2 15.9045 21.4464C16.6308 21.0422 17.3475 20.84 18.1524 20.6391C18.4297 20.5696 18.7071 20.5002 18.9929 20.4286C19.2955 20.3541 19.5981 20.2796 19.9007 20.2052C20.2155 20.1271 20.5303 20.049 20.8452 19.9708C23.2171 19.385 25.5976 18.8434 27.9827 18.314C30.0029 17.8627 32.0106 17.373 34.0168 16.8637C36.5801 16.2131 39.15 15.6133 41.732 15.0404C43.7517 14.5891 45.7589 14.0996 47.7646 13.5905C50.3279 12.9398 52.8978 12.34 55.4799 11.7671C57.6465 11.283 59.7985 10.7522 61.9502 10.206C64.3834 9.58929 66.8247 9.0242 69.2756 8.48232C70.6985 8.16564 72.1159 7.83532 73.5281 7.47434C73.6703 7.43809 73.8124 7.40185 73.9589 7.36451C74.6377 7.19089 75.3158 7.01472 75.9931 6.8354C76.351 6.7428 76.351 6.7428 76.7162 6.64834C77.0304 6.56522 77.0304 6.56522 77.351 6.48042C77.8789 6.38921 77.8789 6.38921 78.5336 6.60743Z" fill="white"/>
<path d="M76.3511 9.0083C76.5671 9.11632 76.5671 9.11632 76.7875 9.22652C73.0583 11.8641 69.316 14.4826 65.5655 17.0898C63.6624 18.413 61.7632 19.7417 59.865 21.072C58.9595 21.7064 58.0536 22.3404 57.1478 22.9744C56.7841 23.2289 56.4204 23.4835 56.0567 23.7381C55.3293 24.2473 54.6019 24.7565 53.8745 25.2657C53.6945 25.3916 53.5145 25.5176 53.3291 25.6474C52.9649 25.9024 52.6006 26.1573 52.2364 26.4123C51.3351 27.0431 50.434 27.6741 49.5331 28.3054C47.5496 29.6951 45.5645 31.0825 43.5772 32.4669C43.3712 32.6106 43.1652 32.7543 42.953 32.9024C42.7553 33.04 42.5577 33.1776 42.354 33.3193C42.1635 33.4527 41.973 33.5861 41.7767 33.7235C41.4117 33.9717 41.0409 34.2116 40.6644 34.4419C39.5183 35.1471 38.9159 35.7286 38.3945 36.9677C38.2542 37.273 38.1135 37.5781 37.9726 37.8832C37.8995 38.0458 37.8264 38.2085 37.7511 38.3761C37.2961 39.3651 36.7983 40.3331 36.3078 41.3048C36.119 41.682 35.9303 42.0594 35.7418 42.4368C35.6031 42.7141 35.4645 42.9914 35.3258 43.2688C35.1818 43.2688 35.0378 43.2688 34.8894 43.2688C34.3993 41.7471 33.9102 40.2251 33.4216 38.703C33.2555 38.1857 33.0891 37.6684 32.9225 37.1512C32.6826 36.406 32.4433 35.6605 32.2043 34.9151C32.1301 34.6854 32.056 34.4557 31.9796 34.2191C31.5972 33.0241 31.2489 31.8335 30.9614 30.612C34.1954 29.0355 37.4307 27.4647 40.6995 25.9612C43.284 24.7716 45.8417 23.5317 48.3974 22.2816C50.8262 21.0942 53.2651 19.936 55.7217 18.8069C57.7747 17.8597 59.8079 16.8745 61.8395 15.8822C64.4304 14.6169 67.03 13.3755 69.6497 12.1707C70.8214 11.6316 71.9894 11.087 73.1494 10.5231C73.471 10.3671 73.471 10.3671 73.799 10.208C74.1983 10.0136 74.597 9.81783 74.9948 9.62039C75.1684 9.53598 75.342 9.45158 75.5208 9.36461C75.6716 9.2901 75.8225 9.21559 75.9778 9.13883C76.101 9.09575 76.2242 9.05268 76.3511 9.0083Z" fill="#CCFE41"/>
<path d="M39.9086 36.9407C40.7358 37.257 41.5206 37.6284 42.309 38.0318C42.047 38.8178 41.7856 38.9795 41.136 39.4775C40.2719 40.1493 39.4177 40.8287 38.572 41.5233C38.3689 41.6898 38.1658 41.8563 37.9565 42.0279C37.8085 42.1494 37.6606 42.271 37.5081 42.3962C37.4361 42.2521 37.3641 42.1081 37.2899 41.9597C37.482 41.4729 37.482 41.4729 37.786 40.8746C37.9481 40.5533 37.9481 40.5533 38.1134 40.2255C38.2287 40.0011 38.344 39.7768 38.4628 39.5457C38.5765 39.3205 38.6901 39.0953 38.8072 38.8633C39.6538 37.1955 39.6538 37.1955 39.9086 36.9407Z" fill="white"/>
<path d="M6.03956 28.5071C6.25424 28.5237 6.46885 28.5411 6.68344 28.5589C6.86272 28.5733 6.86272 28.5733 7.04562 28.588C7.34212 28.6255 7.34212 28.6255 7.46054 28.7439C7.46535 28.9412 7.4656 29.1387 7.46054 29.336C6.87779 29.3557 6.4536 29.3654 5.92114 29.0992C5.96022 28.9038 5.9993 28.7084 6.03956 28.5071Z" fill="#373D4D"/>
<path d="M0.23683 27.5596C0.43206 27.564 0.627119 27.5779 0.821504 27.5966C0.927592 27.6059 1.03368 27.6152 1.14298 27.6248C1.42098 27.678 1.42098 27.678 1.65781 27.9148C1.6134 28.1664 1.6134 28.1664 1.5394 28.3885C1.37169 28.3949 1.20392 28.3995 1.03613 28.4033C0.942713 28.406 0.849295 28.4088 0.753045 28.4116C0.44911 28.3864 0.261507 28.304 0 28.1516C0.103613 27.6928 0.103613 27.6928 0.23683 27.5596Z" fill="#373D4D"/>
<path d="M2.25008 29.2175C2.25008 29.4129 2.25008 29.6083 2.25008 29.8096C1.49222 30.2905 1.49222 30.2905 1.13253 30.2536C1.07148 30.2243 1.01042 30.195 0.94751 30.1648C0.969713 29.891 0.969713 29.891 1.06592 29.5727C1.46054 29.2549 1.74824 29.1745 2.25008 29.2175Z" fill="#373D4D"/>
<path d="M6.51314 26.7311C6.55221 26.8874 6.59129 27.0438 6.63155 27.2048C6.50472 27.3078 6.37608 27.4085 6.2467 27.5082C6.17527 27.5646 6.10383 27.6209 6.03023 27.6789C5.80265 27.7969 5.80265 27.7969 5.53806 27.7557C5.46907 27.7302 5.40007 27.7047 5.32899 27.6785C5.28991 27.5221 5.25083 27.3658 5.21057 27.2048C5.66018 26.8702 5.94305 26.6641 6.51314 26.7311Z" fill="#373D4D"/>
<path d="M2.60548 26.1387C2.88671 26.1683 2.88671 26.1683 3.19755 26.2571C3.36037 26.4643 3.36037 26.4643 3.43438 26.7307C3.38998 27.0564 3.38998 27.0564 3.31597 27.3228C3.15966 27.3228 3.00335 27.3228 2.84231 27.3228C2.62768 27.0638 2.62768 27.0638 2.48706 26.7307C2.52407 26.3977 2.52407 26.3977 2.60548 26.1387Z" fill="#373D4D"/>
<path d="M4.26308 29.5725C4.4851 29.6095 4.4851 29.6095 4.73674 29.6909C5.00792 30.0977 4.99469 30.2813 4.97357 30.7567C4.77818 30.7567 4.5828 30.7567 4.38149 30.7567C4.18907 30.431 4.18907 30.431 4.02625 30.0462C4.12246 29.7649 4.12246 29.7649 4.26308 29.5725Z" fill="#373D4D"/>
<path d="M93.5578 13.5388C94.1804 13.6191 94.668 14.0271 95.1837 14.3682C95.6703 14.697 95.6703 14.697 96.2295 14.717C96.3236 14.6557 96.4176 14.5945 96.5145 14.5315C96.6464 14.4541 96.7782 14.3767 96.9141 14.297C97.1305 14.1659 97.346 14.034 97.5599 13.8989C97.9062 13.6915 98.1118 13.5788 98.5201 13.6151C98.641 13.6584 98.641 13.6584 98.7644 13.7026C98.757 13.9671 98.757 13.9671 98.6459 14.2946C98.368 14.4906 98.1166 14.6446 97.817 14.7979C97.664 14.8798 97.5111 14.9619 97.3582 15.044C97.2361 15.1093 97.1139 15.1746 96.9881 15.242C96.9491 15.281 96.91 15.3201 96.8697 15.3604C97.4949 15.7121 98.1202 16.0638 98.7644 16.4261C98.7644 16.6215 98.7644 16.8169 98.7644 17.0182C97.9516 16.9625 97.462 16.6401 96.8022 16.1863C96.366 15.8922 96.366 15.8922 95.8604 15.89C95.7636 15.9497 95.6669 16.0094 95.5672 16.0709C95.4353 16.1469 95.3034 16.2229 95.1675 16.3012C94.9514 16.4304 94.736 16.5607 94.5218 16.693C94.1025 16.9418 93.8075 17.0758 93.3173 17.0182C93.2782 16.8619 93.2391 16.7056 93.1989 16.5445C93.8177 16.1235 94.4384 15.7228 95.0935 15.3604C94.6212 14.9511 94.1134 14.6587 93.567 14.3612C93.3173 14.1762 93.3173 14.1762 93.2155 13.9246C93.21 13.8513 93.2045 13.7781 93.1989 13.7026C93.3173 13.5841 93.3173 13.5841 93.5578 13.5388Z" fill="#373D4D"/>
<path d="M75.8773 54.5395C76.5911 55.0724 76.5911 55.0724 76.772 55.4343C76.8034 55.9123 76.8162 56.212 76.5036 56.5975C75.8595 57.2416 75.1608 57.4368 74.2666 57.442C73.3877 57.4297 72.6062 57.3049 71.9402 56.687C71.6562 56.3572 71.6238 56.054 71.6413 55.6318C71.7012 55.243 71.8862 55.0073 72.1939 54.7716C73.1671 54.1302 74.8225 53.9556 75.8773 54.5395ZM72.2086 55.5238C72.1489 55.7845 72.1489 55.7845 72.2086 56.0606C72.5278 56.493 72.947 56.7351 73.4613 56.8659C74.3649 56.949 75.1699 56.9057 75.9667 56.4409C76.2146 56.1621 76.2482 55.9841 76.2352 55.6132C75.9296 55.1752 75.4933 54.9336 74.9825 54.8079C73.988 54.6852 72.9075 54.6967 72.2086 55.5238Z" fill="#26343C"/>
<path d="M51.8367 0.00673854C51.8792 0.00651915 51.9217 0.00629976 51.9654 0.00607371C52.1066 0.00545083 52.2477 0.00532548 52.3888 0.00525538C52.4865 0.00504564 52.5842 0.0048259 52.6819 0.00459653C52.887 0.00420474 53.0921 0.00408445 53.2972 0.00412308C53.5605 0.00412972 53.8237 0.00323791 54.087 0.00211295C54.2889 0.00138779 54.4908 0.00125411 54.6927 0.0012887C54.7897 0.00121143 54.8868 0.000921426 54.9839 0.000417793C55.1195 -0.000219881 55.2551 -3.5365e-05 55.3907 0.000359359C55.4679 0.000266272 55.5452 0.000173186 55.6248 7.72792e-05C55.8062 0.0162276 55.8062 0.0162276 55.9369 0.146873C55.9019 0.377836 55.9019 0.377836 55.8062 0.473487C55.6707 0.480327 55.5349 0.482539 55.3991 0.482977C55.3566 0.483196 55.3141 0.483415 55.2704 0.483641C55.1293 0.484264 54.9882 0.48439 54.8471 0.48446C54.7493 0.484669 54.6516 0.484889 54.5539 0.485119C54.3488 0.48551 54.1437 0.485631 53.9386 0.485592C53.6753 0.485585 53.4121 0.486477 53.1489 0.487602C52.947 0.488327 52.7451 0.488461 52.5432 0.488426C52.4461 0.488504 52.349 0.488794 52.2519 0.489297C52.1163 0.489935 51.9808 0.48975 51.8452 0.489356C51.7293 0.489495 51.7293 0.489495 51.611 0.489638C51.4296 0.473487 51.4296 0.473487 51.299 0.342842C51.355 -0.027344 51.4859 0.00786983 51.8367 0.00673854Z" fill="#384850"/>
<path d="M49.6481 1.96826C49.728 1.96841 49.808 1.96855 49.8903 1.9687C49.9563 1.96869 49.9563 1.96869 50.0235 1.96867C50.1695 1.96872 50.3155 1.96923 50.4615 1.96974C50.5624 1.96986 50.6634 1.96995 50.7644 1.97002C51.0306 1.97027 51.2968 1.97091 51.563 1.97163C51.8345 1.9723 52.1059 1.9726 52.3774 1.97293C52.9104 1.97363 53.4434 1.97474 53.9764 1.97612C53.9792 2.08495 53.9791 2.19389 53.9764 2.30273C53.9111 2.36805 53.9111 2.36805 53.7346 2.37591C53.6558 2.37576 53.5771 2.37562 53.4959 2.37547C53.4526 2.37548 53.4092 2.37549 53.3646 2.3755C53.2207 2.37545 53.0769 2.37494 52.933 2.37443C52.8335 2.37431 52.734 2.37422 52.6345 2.37415C52.3722 2.3739 52.1098 2.37326 51.8475 2.37254C51.58 2.37187 51.3124 2.37157 51.0449 2.37124C50.5197 2.37054 49.9944 2.36943 49.4691 2.36805C49.4442 2.25987 49.4225 2.15088 49.4038 2.04144C49.4691 1.97612 49.4691 1.97612 49.6481 1.96826Z" fill="#25333C"/>
</svg>
