<svg width="99" height="64" viewBox="0 0 99 64" fill="none" xmlns="http://www.w3.org/2000/svg">
<path d="M85.9532 3.55293C86.0118 4.19696 86.0167 4.54467 85.6634 5.09752C85.4558 5.33212 85.4558 5.33212 85.244 5.57146C84.4299 6.53865 83.6894 7.535 82.9664 8.57198C82.045 9.88926 81.1143 11.1987 80.1704 12.4999C79.2523 13.7668 78.3426 15.0389 77.4427 16.3188C76.4255 17.7654 75.3937 19.2009 74.3561 20.6329C73.5584 21.7352 72.7698 22.8434 71.9872 23.9565C71.0873 25.2363 70.1774 26.5084 69.2594 27.7753C67.8977 29.6553 66.5574 31.55 65.2224 33.449C63.7715 35.5128 62.3116 37.5692 60.8308 39.6117C59.879 40.9264 58.9413 42.2507 58.0118 43.5813C57.4572 44.3721 56.8892 45.1408 56.2754 45.8875C55.431 45.7585 54.8099 45.5073 54.0685 45.0871C53.8525 44.9655 53.6365 44.8439 53.414 44.7186C53.1836 44.5867 52.9531 44.4549 52.7157 44.3191C52.4771 44.1843 52.2385 44.0495 51.9926 43.9106C50.736 43.1981 49.4869 42.4742 48.243 41.7396C48.007 41.6005 47.7709 41.4613 47.5277 41.3179C47.0752 41.0501 46.6236 40.7808 46.1731 40.5099C45.9681 40.3883 45.7631 40.2666 45.5519 40.1414C45.373 40.034 45.194 39.9265 45.0096 39.8159C44.4578 39.5424 44.014 39.396 43.4004 39.3409C42.9141 39.67 42.5288 39.9805 42.1047 40.3775C41.854 40.601 41.6028 40.8241 41.3512 41.0466C41.222 41.162 41.0927 41.2774 40.9595 41.3962C40.2016 42.0568 39.4038 42.6665 38.6087 43.2812C38.0173 43.7394 37.4382 44.2019 36.8692 44.6882C36.6796 44.8499 36.49 45.0117 36.2947 45.1783C36.0512 45.3927 36.0512 45.3927 35.8028 45.6113C35.1857 45.969 34.9084 45.8342 34.2352 45.6693C34.1944 45.5413 34.1535 45.4134 34.1115 45.2815C33.6797 43.9287 33.2477 42.576 32.8154 41.2234C32.6549 40.7211 32.4945 40.2187 32.3342 39.7163C32.2569 39.474 32.1796 39.2317 32.0999 38.9821C32.0231 38.7413 31.9463 38.5005 31.8672 38.2524C31.7127 37.7703 31.5571 37.2885 31.4004 36.8071C31.0517 35.7352 30.7126 34.6652 30.4169 33.5773C29.8579 31.4758 29.8579 31.4758 28.3927 29.9336C27.9914 29.729 27.5834 29.5371 27.1704 29.3574C26.7174 29.1313 26.2648 28.9046 25.8124 28.6772C25.5806 28.5656 25.3488 28.4539 25.1099 28.339C23.986 27.78 22.9153 27.1358 21.8376 26.4933C20.5636 25.7426 19.2875 24.9967 17.9973 24.2742C17.4683 23.978 16.9404 23.6798 16.4124 23.3816C16.0342 23.1692 15.6544 22.9598 15.2746 22.7504C15.0462 22.6212 14.8179 22.4921 14.5827 22.359C14.3794 22.2459 14.1762 22.1328 13.9668 22.0162C13.5044 21.6652 13.5044 21.6652 13.3278 21.1853C13.3141 21.0556 13.3003 20.9259 13.2861 20.7923C14.3279 20.0364 15.4637 19.8305 16.6958 19.5512C17.0509 19.4682 17.0509 19.4682 17.4131 19.3835C18.8227 19.0556 20.2344 18.7369 21.6458 18.4166C22.121 18.3087 22.5962 18.2008 23.0714 18.0928C23.3961 18.019 23.7209 17.9454 24.0457 17.8718C26.5227 17.3099 28.9882 16.7109 31.45 16.086C33.8503 15.4775 36.2598 14.9227 38.6774 14.3863C40.697 13.935 42.7041 13.4455 44.7097 12.9364C47.273 12.2857 49.843 11.686 52.425 11.113C54.4447 10.6617 56.4519 10.1722 58.4576 9.66308C61.0209 9.01245 63.5908 8.41266 66.1728 7.83975C68.3382 7.35588 70.4891 6.82571 72.6395 6.27954C75.1505 5.64261 77.6707 5.05787 80.2007 4.50125C81.5984 4.19223 82.9727 3.85984 84.3393 3.43215C84.9397 3.32026 85.3669 3.3985 85.9532 3.55293Z" fill="#64748B"/>
<path d="M85.08 22.9746C84.6044 23.9702 83.985 24.8492 83.3616 25.7569C83.1717 26.0341 83.1717 26.0341 82.978 26.3169C82.076 27.6248 81.138 28.8993 80.1749 30.1624C79.3358 31.2701 78.5477 32.407 77.7697 33.5583C76.7919 35.0052 75.7777 36.4123 74.7189 37.8008C73.88 38.9082 73.092 40.0449 72.3142 41.1959C71.3364 42.6429 70.3222 44.05 69.2634 45.4384C68.4245 46.5459 67.6365 47.6826 66.8587 48.8336C65.8809 50.2806 64.8667 51.6877 63.8079 53.0761C62.8412 54.3524 61.9438 55.6711 61.0477 56.9976C60.1532 58.3151 59.2145 59.5921 58.2508 60.8596C57.4769 61.8795 56.7422 62.9177 56.0568 63.9999C54.7079 63.6445 53.5886 62.9213 52.4017 62.2132C51.9295 61.9346 51.4573 61.6562 50.9849 61.3778C50.7414 61.234 50.4979 61.0901 50.247 60.9418C49.0692 60.2489 47.885 59.567 46.7007 58.8854C46.2239 58.6106 45.7471 58.3358 45.2703 58.0611C45.0335 57.9247 44.7968 57.7883 44.5528 57.6478C43.3681 56.9652 42.1839 56.2818 40.9997 55.5984C40.5269 55.3257 40.0541 55.0529 39.5813 54.7801C36.7444 53.1435 33.9076 51.5068 31.0707 49.8702C30.8366 49.7351 30.6026 49.6001 30.3614 49.461C29.8889 49.1884 29.4165 48.9158 28.944 48.6432C27.7568 47.9581 26.5694 47.2734 25.3817 46.5892C23.011 45.2233 20.6421 43.8545 18.2776 42.478C18.0643 42.3541 17.8511 42.2301 17.6313 42.1024C16.4606 41.4198 15.3038 40.7205 14.1587 39.9957C14.8882 39.5094 15.4482 39.3726 16.2995 39.1692C16.4497 39.133 16.5999 39.0967 16.7546 39.0594C17.2506 38.94 17.747 38.8226 18.2435 38.7052C18.5884 38.6227 18.9332 38.5402 19.2781 38.4575C20.0006 38.2847 20.7234 38.1127 21.4464 37.9414C22.3735 37.7217 23.3002 37.5002 24.2268 37.278C24.9387 37.1075 25.6509 36.9376 26.3631 36.7681C26.7049 36.6867 27.0467 36.6051 27.3884 36.5232C27.8657 36.4092 28.3432 36.296 28.8207 36.1832C29.0926 36.1186 29.3644 36.054 29.6444 35.9875C30.3069 35.8496 30.3069 35.8496 30.9616 35.8496C31.0696 35.6335 31.0696 35.6335 31.1798 35.4131C32.26 38.7977 33.3402 42.1823 34.4531 45.6694C35.4986 45.4604 35.7281 45.3822 36.4853 44.742C36.7676 44.5074 36.7676 44.5074 37.0555 44.2681C37.1606 44.1796 37.2657 44.0911 37.374 44C38.2167 43.2956 39.074 42.6087 39.9283 41.9185C40.589 41.3837 41.2468 40.8478 41.8888 40.2907C42.077 40.1303 42.2651 39.97 42.459 39.8048C42.6966 39.5963 42.6966 39.5963 42.939 39.3837C43.4001 39.1229 43.4001 39.1229 43.8948 39.1728C44.5924 39.3696 45.138 39.6634 45.7656 40.0264C46.0134 40.1689 46.2612 40.3114 46.5165 40.4582C46.6467 40.5341 46.777 40.61 46.9112 40.6882C47.3179 40.9252 47.7259 41.16 48.1341 41.3945C49.4435 42.1486 50.744 42.915 52.0334 43.7029C52.3596 43.9009 52.3596 43.9009 52.6924 44.1029C53.0998 44.3513 53.5054 44.6025 53.9091 44.8569C54.1819 45.0232 54.1819 45.0232 54.4603 45.1929C54.6951 45.3396 54.6951 45.3396 54.9346 45.4892C55.5492 45.7261 55.8759 45.6665 56.4933 45.4512C56.8288 45.1554 56.8288 45.1554 57.0729 44.7565C57.2229 44.537 57.2229 44.537 57.3759 44.313C57.4807 44.153 57.5855 43.993 57.6935 43.8282C57.9256 43.4865 58.1581 43.145 58.3908 42.8036C58.5694 42.5389 58.5694 42.5389 58.7516 42.2689C59.3182 41.4395 59.9109 40.6297 60.5031 39.8184C61.6404 38.2511 62.7539 36.6682 63.8609 35.0793C64.7162 33.854 65.5848 32.6394 66.4632 31.4306C67.7552 29.6523 69.0054 27.8474 70.2411 26.0297C70.3851 26.1017 70.5292 26.1737 70.6776 26.2479C71.1061 26.1807 71.5315 26.093 71.9545 25.9964C72.3569 25.9053 72.3569 25.9053 72.7675 25.8124C73.0619 25.7439 73.3564 25.6754 73.6508 25.6069C73.952 25.5379 74.2533 25.469 74.5546 25.4001C77.1213 24.8097 79.6766 24.1733 82.2275 23.5181C82.5061 23.447 82.7847 23.376 83.0717 23.3028C83.3178 23.2394 83.5639 23.176 83.8174 23.1106C84.4254 22.9746 84.4254 22.9746 85.08 22.9746Z" fill="#373D4D"/>
<path d="M82.0253 7.04443C82.0253 7.99454 81.4572 8.50889 80.8933 9.22663C79.8799 10.5444 78.9171 11.8851 77.9883 13.2637C77.0107 14.7108 75.9962 16.1177 74.9374 17.5062C74.0986 18.6137 73.3106 19.7504 72.5328 20.9014C71.555 22.3483 70.5408 23.7554 69.482 25.1439C68.6431 26.2514 67.8551 27.388 67.0773 28.5391C66.0995 29.986 65.0853 31.3931 64.0265 32.7816C63.0594 34.0583 62.1617 35.3775 61.2653 36.7044C60.3814 38.0064 59.4532 39.2672 58.5 40.519C57.5561 41.7639 56.6847 43.0465 55.839 44.36C55.0076 44.0492 54.2582 43.6662 53.4888 43.2246C53.2434 43.084 52.9979 42.9435 52.745 42.7987C52.4806 42.6463 52.2163 42.4939 51.9519 42.3414C51.6791 42.1847 51.4062 42.0281 51.1333 41.8714C47.8127 39.9636 44.498 38.045 41.2183 36.0676C41.4833 35.2725 41.7201 35.1569 42.4023 34.6927C42.6055 34.553 42.8087 34.4134 43.0181 34.2695C43.2388 34.1202 43.4595 33.971 43.6869 33.8172C44.1498 33.4999 44.6127 33.1826 45.0755 32.8651C45.3086 32.706 45.5416 32.5469 45.7818 32.3829C46.739 31.7273 47.6886 31.0611 48.6377 30.3939C50.1992 29.2993 51.7636 28.209 53.3294 27.1206C55.4455 25.6497 57.5579 24.1736 59.6684 22.6947C60.5739 22.0602 61.4797 21.4263 62.3856 20.7923C62.7493 20.5377 63.113 20.2831 63.4767 20.0285C69.6595 15.7005 75.8424 11.3725 82.0253 7.04443Z" fill="#030712"/>
<path d="M78.5333 6.60743C75.2993 8.18397 72.064 9.75478 68.7953 11.2582C66.2106 12.4479 63.6527 13.6879 61.0969 14.9381C58.6785 16.1204 56.2499 17.2733 53.8038 18.3972C51.6665 19.3835 49.5513 20.4122 47.437 21.4464C44.8171 22.7278 42.1905 23.9874 39.5384 25.2014C38.1641 25.8328 36.802 26.4837 35.4477 27.1567C35.1357 27.311 34.8237 27.4652 34.5117 27.6194C33.9111 27.9164 33.3126 28.2173 32.715 28.5203C32.4422 28.6555 32.1694 28.7906 31.8966 28.9255C31.6577 29.0457 31.4189 29.1659 31.1729 29.2898C30.4417 29.5501 30.1584 29.5559 29.4339 29.3023C29.0116 29.094 28.5975 28.8686 28.1902 28.6323C27.947 28.4921 27.7037 28.352 27.4531 28.2076C27.1905 28.0542 26.9278 27.9009 26.6652 27.7474C26.3939 27.5904 26.1225 27.4334 25.851 27.2766C25.2892 26.9519 24.7279 26.6263 24.1669 26.3001C23.353 25.8271 22.5369 25.3577 21.7204 24.8893C21.2182 24.6009 20.7162 24.3125 20.2141 24.0241C19.9821 23.8908 19.7502 23.7576 19.5112 23.6203C18.2935 22.9182 17.0908 22.2 15.9043 21.4464C16.6306 21.0422 17.3473 20.84 18.1521 20.6391C18.4295 20.5696 18.7068 20.5002 18.9926 20.4286C19.2952 20.3541 19.5978 20.2796 19.9004 20.2052C20.2153 20.1271 20.5301 20.049 20.8449 19.9708C23.2169 19.385 25.5973 18.8434 27.9825 18.314C30.0027 17.8627 32.0103 17.373 34.0165 16.8637C36.5798 16.2131 39.1498 15.6133 41.7318 15.0404C43.7514 14.5891 45.7586 14.0996 47.7644 13.5905C50.3276 12.9398 52.8976 12.34 55.4796 11.7671C57.6463 11.283 59.7983 10.7522 61.95 10.206C64.3832 9.58929 66.8245 9.0242 69.2754 8.48232C70.6983 8.16564 72.1157 7.83532 73.5279 7.47434C73.67 7.43809 73.8122 7.40185 73.9587 7.36451C74.6375 7.19089 75.3155 7.01472 75.9929 6.8354C76.3508 6.7428 76.3508 6.7428 76.716 6.64834C77.0302 6.56522 77.0302 6.56522 77.3508 6.48042C77.8787 6.38921 77.8787 6.38921 78.5333 6.60743Z" fill="#030712"/>
<path d="M76.3511 9.0083C76.5671 9.11632 76.5671 9.11632 76.7875 9.22652C73.0583 11.8641 69.316 14.4826 65.5655 17.0898C63.6624 18.413 61.7632 19.7417 59.865 21.072C58.9595 21.7064 58.0536 22.3404 57.1478 22.9744C56.7841 23.2289 56.4204 23.4835 56.0567 23.7381C55.3293 24.2473 54.6019 24.7565 53.8745 25.2657C53.6945 25.3916 53.5145 25.5176 53.3291 25.6474C52.9649 25.9024 52.6006 26.1573 52.2364 26.4123C51.3351 27.0431 50.434 27.6741 49.5331 28.3054C47.5496 29.6951 45.5645 31.0825 43.5772 32.4669C43.3712 32.6106 43.1652 32.7543 42.953 32.9024C42.7553 33.04 42.5577 33.1776 42.354 33.3193C42.1635 33.4527 41.973 33.5861 41.7767 33.7235C41.4117 33.9717 41.0409 34.2116 40.6644 34.4419C39.5183 35.1471 38.9159 35.7286 38.3945 36.9677C38.2542 37.273 38.1135 37.5781 37.9726 37.8832C37.8995 38.0458 37.8264 38.2085 37.7511 38.3761C37.2961 39.3651 36.7983 40.3331 36.3078 41.3048C36.119 41.682 35.9303 42.0594 35.7418 42.4368C35.6031 42.7141 35.4645 42.9914 35.3258 43.2688C35.1818 43.2688 35.0378 43.2688 34.8894 43.2688C34.3993 41.7471 33.9102 40.2251 33.4216 38.703C33.2555 38.1857 33.0891 37.6684 32.9225 37.1512C32.6826 36.406 32.4433 35.6605 32.2043 34.9151C32.1301 34.6854 32.056 34.4557 31.9796 34.2191C31.5972 33.0241 31.2489 31.8335 30.9614 30.612C34.1954 29.0355 37.4307 27.4647 40.6995 25.9612C43.284 24.7716 45.8417 23.5317 48.3974 22.2816C50.8262 21.0942 53.2651 19.936 55.7217 18.8069C57.7747 17.8597 59.8079 16.8745 61.8395 15.8822C64.4304 14.6169 67.03 13.3755 69.6497 12.1707C70.8214 11.6316 71.9894 11.087 73.1494 10.5231C73.471 10.3671 73.471 10.3671 73.799 10.208C74.1983 10.0136 74.597 9.81783 74.9948 9.62039C75.1684 9.53598 75.342 9.45158 75.5208 9.36461C75.6716 9.2901 75.8225 9.21559 75.9778 9.13883C76.101 9.09575 76.2242 9.05268 76.3511 9.0083Z" fill="#CCFE41"/>
<path d="M39.9087 36.9409C40.7359 37.2572 41.5208 37.6287 42.3091 38.032C42.0471 38.818 41.7858 38.9798 41.1362 39.4777C40.2721 40.1495 39.4179 40.8289 38.5721 41.5235C38.369 41.6901 38.1659 41.8566 37.9566 42.0282C37.8087 42.1497 37.6607 42.2712 37.5083 42.3964C37.4362 42.2524 37.3642 42.1084 37.29 41.96C37.4822 41.4732 37.4822 41.4732 37.7861 40.8748C37.9482 40.5535 37.9482 40.5535 38.1135 40.2257C38.2288 40.0014 38.3441 39.777 38.463 39.5459C38.5766 39.3207 38.6903 39.0956 38.8073 38.8636C39.6539 37.1957 39.6539 37.1957 39.9087 36.9409Z" fill="#030712"/>
<path d="M6.03956 28.5068C6.25424 28.5235 6.46885 28.5409 6.68344 28.5586C6.86272 28.5731 6.86272 28.5731 7.04562 28.5878C7.34212 28.6253 7.34212 28.6253 7.46054 28.7437C7.46535 28.941 7.4656 29.1384 7.46054 29.3357C6.87779 29.3555 6.4536 29.3651 5.92114 29.0989C5.96022 28.9035 5.9993 28.7081 6.03956 28.5068Z" fill="#64748B"/>
<path d="M0.23683 27.5596C0.43206 27.564 0.627119 27.5779 0.821504 27.5966C0.927592 27.6059 1.03368 27.6152 1.14298 27.6248C1.42098 27.678 1.42098 27.678 1.65781 27.9148C1.6134 28.1664 1.6134 28.1664 1.5394 28.3885C1.37169 28.3949 1.20392 28.3995 1.03613 28.4033C0.942713 28.406 0.849295 28.4088 0.753046 28.4116C0.44911 28.3864 0.261507 28.304 0 28.1516C0.103613 27.6928 0.103613 27.6928 0.23683 27.5596Z" fill="#64748B"/>
<path d="M2.25008 29.2177C2.25008 29.4131 2.25008 29.6085 2.25008 29.8098C1.49222 30.2908 1.49222 30.2908 1.13253 30.2539C1.07148 30.2246 1.01042 30.1953 0.94751 30.1651C0.969713 29.8912 0.969713 29.8912 1.06592 29.573C1.46054 29.2551 1.74824 29.1747 2.25008 29.2177Z" fill="#64748B"/>
<path d="M6.51301 26.7314C6.55209 26.8877 6.59117 27.044 6.63143 27.205C6.5046 27.308 6.37595 27.4087 6.24658 27.5085C6.17514 27.5648 6.10371 27.6211 6.0301 27.6792C5.80252 27.7971 5.80252 27.7971 5.53794 27.7559C5.46895 27.7305 5.39995 27.705 5.32886 27.6787C5.28979 27.5224 5.25071 27.3661 5.21045 27.205C5.66006 26.8704 5.94293 26.6643 6.51301 26.7314Z" fill="#64748B"/>
<path d="M2.60548 26.1387C2.88671 26.1683 2.88671 26.1683 3.19755 26.2571C3.36037 26.4643 3.36037 26.4643 3.43438 26.7307C3.38998 27.0564 3.38998 27.0564 3.31597 27.3228C3.15966 27.3228 3.00335 27.3228 2.84231 27.3228C2.62768 27.0638 2.62768 27.0638 2.48706 26.7307C2.52407 26.3977 2.52407 26.3977 2.60548 26.1387Z" fill="#64748B"/>
<path d="M4.2632 29.5728C4.48523 29.6098 4.48523 29.6098 4.73686 29.6912C5.00804 30.0979 4.99482 30.2815 4.97369 30.7569C4.7783 30.7569 4.58292 30.7569 4.38161 30.7569C4.18919 30.4313 4.18919 30.4313 4.02637 30.0464C4.12258 29.7652 4.12258 29.7652 4.2632 29.5728Z" fill="#64748B"/>
<path d="M93.5577 13.5391C94.1803 13.6194 94.6679 14.0273 95.1836 14.3684C95.6702 14.6972 95.6702 14.6972 96.2294 14.7172C96.3234 14.656 96.4175 14.5948 96.5144 14.5317C96.6462 14.4543 96.7781 14.3769 96.914 14.2972C97.1304 14.1662 97.3459 14.0342 97.5597 13.8992C97.906 13.6918 98.1116 13.579 98.52 13.6154C98.6409 13.6587 98.6409 13.6587 98.7642 13.7028C98.7568 13.9674 98.7568 13.9674 98.6458 14.2949C98.3679 14.4908 98.1165 14.6448 97.8169 14.7981C97.6639 14.8801 97.511 14.9621 97.3581 15.0442C97.2359 15.1096 97.1138 15.1749 96.988 15.2422C96.9489 15.2813 96.9099 15.3204 96.8696 15.3606C97.4948 15.7123 98.1201 16.064 98.7642 16.4264C98.7642 16.6217 98.7642 16.8171 98.7642 17.0184C97.9514 16.9628 97.4619 16.6403 96.8021 16.1865C96.3659 15.8924 96.3659 15.8924 95.8603 15.8902C95.7635 15.9499 95.6667 16.0096 95.567 16.0711C95.4351 16.1471 95.3033 16.2231 95.1674 16.3015C94.9512 16.4307 94.7359 16.5609 94.5216 16.6933C94.1024 16.942 93.8074 17.076 93.3171 17.0184C93.2781 16.8621 93.239 16.7058 93.1987 16.5448C93.8176 16.1238 94.4383 15.723 95.0934 15.3606C94.6211 14.9513 94.1133 14.6589 93.5669 14.3615C93.3171 14.1765 93.3171 14.1765 93.2154 13.9248C93.2099 13.8516 93.2044 13.7783 93.1987 13.7028C93.3171 13.5844 93.3171 13.5844 93.5577 13.5391Z" fill="#64748B"/>
<path d="M75.8773 54.5395C76.5911 55.0724 76.5911 55.0724 76.772 55.4343C76.8034 55.9123 76.8162 56.212 76.5036 56.5975C75.8595 57.2416 75.1608 57.4368 74.2666 57.442C73.3877 57.4297 72.6062 57.3049 71.9402 56.687C71.6562 56.3572 71.6238 56.054 71.6413 55.6318C71.7012 55.243 71.8862 55.0073 72.1939 54.7716C73.1671 54.1302 74.8225 53.9556 75.8773 54.5395ZM72.2086 55.5238C72.1489 55.7845 72.1489 55.7845 72.2086 56.0606C72.5278 56.493 72.947 56.7351 73.4613 56.8659C74.3649 56.949 75.1699 56.9057 75.9667 56.4409C76.2146 56.1621 76.2482 55.9841 76.2352 55.6132C75.9296 55.1752 75.4933 54.9336 74.9825 54.8079C73.988 54.6852 72.9075 54.6967 72.2086 55.5238Z" fill="#64748B"/>
<path d="M51.8366 0.00673854C51.8791 0.00651915 51.9216 0.00629976 51.9653 0.00607371C52.1064 0.00545083 52.2475 0.00532548 52.3886 0.00525538C52.4864 0.00504564 52.5841 0.0048259 52.6818 0.00459653C52.8869 0.00420474 53.092 0.00408445 53.2971 0.00412308C53.5604 0.00412972 53.8236 0.00323791 54.0868 0.00211295C54.2887 0.00138779 54.4906 0.00125411 54.6925 0.0012887C54.7896 0.00121143 54.8867 0.000921426 54.9838 0.000417793C55.1194 -0.000219881 55.2549 -3.5365e-05 55.3905 0.000359359C55.4678 0.000266272 55.5451 0.000173186 55.6247 7.72792e-05C55.8061 0.0162276 55.8061 0.0162276 55.9368 0.146873C55.9018 0.377836 55.9018 0.377836 55.8061 0.473488C55.6705 0.480327 55.5347 0.482539 55.399 0.482977C55.3565 0.483196 55.314 0.483415 55.2703 0.483641C55.1291 0.484264 54.988 0.48439 54.8469 0.48446C54.7492 0.484669 54.6515 0.484889 54.5538 0.485119C54.3487 0.48551 54.1436 0.485631 53.9385 0.485592C53.6752 0.485585 53.412 0.486477 53.1487 0.487602C52.9468 0.488327 52.7449 0.488461 52.543 0.488426C52.446 0.488504 52.3489 0.488794 52.2518 0.489297C52.1162 0.489935 51.9806 0.48975 51.845 0.489356C51.7291 0.489495 51.7291 0.489495 51.6109 0.489638C51.4295 0.473488 51.4295 0.473488 51.2988 0.342842C51.3549 -0.027344 51.4858 0.00786983 51.8366 0.00673854Z" fill="#64748B"/>
<path d="M49.6481 1.96826C49.728 1.96841 49.808 1.96855 49.8903 1.9687C49.9563 1.96869 49.9563 1.96869 50.0235 1.96867C50.1695 1.96872 50.3155 1.96923 50.4615 1.96974C50.5624 1.96986 50.6634 1.96995 50.7644 1.97002C51.0306 1.97027 51.2968 1.97091 51.563 1.97163C51.8345 1.9723 52.1059 1.9726 52.3774 1.97293C52.9104 1.97363 53.4434 1.97474 53.9764 1.97612C53.9792 2.08495 53.9791 2.19389 53.9764 2.30273C53.9111 2.36805 53.9111 2.36805 53.7346 2.37591C53.6558 2.37576 53.5771 2.37562 53.4959 2.37547C53.4526 2.37548 53.4092 2.37549 53.3646 2.3755C53.2207 2.37545 53.0769 2.37494 52.933 2.37443C52.8335 2.37431 52.734 2.37422 52.6345 2.37415C52.3722 2.3739 52.1098 2.37326 51.8475 2.37254C51.58 2.37187 51.3124 2.37157 51.0449 2.37124C50.5197 2.37054 49.9944 2.36943 49.4691 2.36805C49.4442 2.25987 49.4225 2.15088 49.4038 2.04144C49.4691 1.97612 49.4691 1.97612 49.6481 1.96826Z" fill="#64748B"/>
</svg>
