<svg width="69" height="64" viewBox="0 0 69 64" fill="none" xmlns="http://www.w3.org/2000/svg">
<path d="M7.36436 3.48486C7.62613 3.50513 7.88783 3.52637 8.14949 3.54803C8.36809 3.56562 8.36809 3.56562 8.59112 3.58357C8.95266 3.62925 8.95266 3.62925 9.09705 3.77364C9.10292 4.01422 9.10322 4.25503 9.09705 4.4956C8.38646 4.51969 7.86923 4.53145 7.21997 4.20682C7.26762 3.96857 7.31527 3.73033 7.36436 3.48486Z" fill="#64748B"/>
<path d="M0.288781 2.33008C0.526837 2.33554 0.764684 2.35242 1.00171 2.3752C1.13107 2.38655 1.26043 2.39791 1.39371 2.40961C1.73269 2.47447 1.73269 2.47447 2.02147 2.76325C1.96732 3.07008 1.96732 3.07008 1.87708 3.34081C1.67259 3.34868 1.46801 3.35424 1.26342 3.35886C1.14951 3.36221 1.0356 3.36556 0.918234 3.36901C0.547628 3.33833 0.318871 3.2378 0 3.05203C0.126342 2.49252 0.126342 2.49252 0.288781 2.33008Z" fill="#64748B"/>
<path d="M2.74357 4.35143C2.74357 4.58968 2.74357 4.82792 2.74357 5.07339C1.81947 5.65983 1.81947 5.65983 1.38088 5.61485C1.30643 5.57911 1.23198 5.54338 1.15527 5.50656C1.18235 5.17265 1.18235 5.17265 1.29966 4.7846C1.78084 4.39699 2.13165 4.29898 2.74357 4.35143Z" fill="#64748B"/>
<path d="M7.94157 1.3196C7.98922 1.5102 8.03687 1.70079 8.08596 1.89716C7.93131 2.02271 7.77444 2.14554 7.61669 2.26716C7.52958 2.33585 7.44247 2.40453 7.35273 2.47529C7.07522 2.61912 7.07522 2.61912 6.7526 2.56892C6.66847 2.53783 6.58434 2.50675 6.49766 2.47473C6.45001 2.28413 6.40236 2.09353 6.35327 1.89716C6.90151 1.48917 7.24643 1.23782 7.94157 1.3196Z" fill="#64748B"/>
<path d="M3.17686 0.597168C3.51979 0.633266 3.51979 0.633266 3.89881 0.741559C4.09735 0.994242 4.09735 0.994242 4.1876 1.31912C4.13345 1.7162 4.13345 1.7162 4.04321 2.04107C3.85261 2.04107 3.66201 2.04107 3.46564 2.04107C3.20393 1.72522 3.20393 1.72522 3.03247 1.31912C3.07759 0.913023 3.07759 0.913023 3.17686 0.597168Z" fill="#64748B"/>
<path d="M5.19821 4.78467C5.46894 4.82979 5.46894 4.82979 5.77577 4.92906C6.10644 5.42507 6.09031 5.64889 6.06455 6.22857C5.8263 6.22857 5.58806 6.22857 5.3426 6.22857C5.10796 5.8315 5.10796 5.8315 4.90942 5.36223C5.02674 5.0193 5.02674 5.0193 5.19821 4.78467Z" fill="#64748B"/>
<path d="M62.0615 48.2529C62.8207 48.3508 63.4152 48.8483 64.044 49.2642C64.6374 49.6651 64.6374 49.6651 65.3193 49.6895C65.4339 49.6149 65.5486 49.5402 65.6667 49.4633C65.8275 49.369 65.9883 49.2746 66.154 49.1774C66.4179 49.0176 66.6806 48.8567 66.9414 48.692C67.3637 48.4391 67.6144 48.3016 68.1123 48.346C68.2598 48.3988 68.2598 48.3988 68.4101 48.4526C68.4011 48.7752 68.4011 48.7752 68.2658 49.1745C67.9268 49.4135 67.6203 49.6013 67.255 49.7882C67.0684 49.8881 66.8819 49.9881 66.6955 50.0883C66.5466 50.1679 66.3977 50.2476 66.2443 50.3297C66.1966 50.3773 66.149 50.425 66.0999 50.4741C66.8623 50.9029 67.6247 51.3317 68.4101 51.7736C68.4101 52.0118 68.4101 52.2501 68.4101 52.4955C67.419 52.4277 66.8221 52.0345 66.0175 51.4811C65.4857 51.1225 65.4857 51.1225 64.8692 51.1199C64.7512 51.1927 64.6332 51.2654 64.5116 51.3404C64.3508 51.4331 64.19 51.5258 64.0243 51.6213C63.7607 51.7789 63.4982 51.9377 63.2369 52.099C62.7257 52.4024 62.366 52.5657 61.7682 52.4955C61.7205 52.3049 61.6729 52.1143 61.6238 51.918C62.3784 51.4046 63.1353 50.9159 63.934 50.4741C63.3582 49.975 62.7389 49.6184 62.0727 49.2558C61.7682 49.0302 61.7682 49.0302 61.6441 48.7233C61.6374 48.634 61.6307 48.5446 61.6238 48.4526C61.7682 48.3082 61.7682 48.3082 62.0615 48.2529Z" fill="#64748B"/>
<path d="M7.52312 47.1278C8.39359 47.7777 8.39359 47.7777 8.6142 48.2189C8.65242 48.8018 8.66803 49.1672 8.28688 49.6373C7.50147 50.4227 6.64945 50.6607 5.55919 50.667C4.48743 50.652 3.53452 50.4999 2.72239 49.7464C2.37611 49.3443 2.33664 48.9745 2.35799 48.4597C2.43099 47.9856 2.65662 47.6982 3.03181 47.4108C4.21848 46.6288 6.237 46.4159 7.52312 47.1278ZM3.04971 48.328C2.97691 48.646 2.97691 48.646 3.04971 48.9826C3.43889 49.5099 3.95003 49.805 4.57722 49.9646C5.67899 50.0659 6.66061 50.0131 7.63223 49.4463C7.93448 49.1063 7.97542 48.8893 7.95955 48.4371C7.58693 47.903 7.05495 47.6084 6.43205 47.4551C5.21942 47.3055 3.90188 47.3195 3.04971 48.328Z" fill="#64748B"/>
<path d="M51.5021 0.00821672C51.554 0.0079492 51.6058 0.00768168 51.6591 0.00740605C51.8312 0.00664653 52.0033 0.00649368 52.1753 0.00640821C52.2945 0.00615246 52.4136 0.00588452 52.5328 0.00560483C52.7829 0.0051271 53.033 0.00498042 53.2831 0.00502752C53.6041 0.00503562 53.925 0.00394819 54.246 0.00257645C54.4922 0.00169222 54.7384 0.00152921 54.9846 0.00157139C55.103 0.00147717 55.2213 0.00112355 55.3397 0.000509441C55.505 -0.000268115 55.6704 -4.31227e-05 55.8357 0.000438188C55.9299 0.000324682 56.0241 0.000211177 56.1212 9.42313e-05C56.3424 0.0197873 56.3424 0.0197873 56.5017 0.179092C56.4591 0.460719 56.4591 0.460719 56.3424 0.577352C56.1771 0.585692 56.0115 0.588389 55.846 0.588923C55.7942 0.58919 55.7424 0.589458 55.689 0.589733C55.517 0.590493 55.3449 0.590646 55.1729 0.590731C55.0537 0.590987 54.9345 0.591255 54.8154 0.591535C54.5653 0.592012 54.3152 0.592159 54.0651 0.592112C53.7441 0.592104 53.4231 0.593191 53.1022 0.594563C52.856 0.595447 52.6098 0.59561 52.3636 0.595568C52.2452 0.595662 52.1268 0.596016 52.0085 0.59663C51.8431 0.597408 51.6778 0.597183 51.5125 0.596701C51.3711 0.596872 51.3711 0.596872 51.227 0.597045C51.0057 0.577352 51.0057 0.577352 50.8464 0.418048C50.9148 -0.0333422 51.0744 0.00959616 51.5021 0.00821672Z" fill="#64748B"/>
<path d="M48.8335 2.3999C48.931 2.40008 49.0284 2.40026 49.1289 2.40044C49.2093 2.40042 49.2093 2.40042 49.2913 2.4004C49.4693 2.40046 49.6473 2.40108 49.8253 2.4017C49.9484 2.40185 50.0715 2.40196 50.1946 2.40204C50.5193 2.40235 50.8439 2.40313 51.1685 2.40401C51.4995 2.40483 51.8305 2.40519 52.1615 2.40559C52.8115 2.40645 53.4614 2.40781 54.1113 2.40948C54.1147 2.54219 54.1145 2.67503 54.1113 2.80774C54.0316 2.88739 54.0316 2.88739 53.8164 2.89697C53.7204 2.8968 53.6244 2.89662 53.5254 2.89644C53.4726 2.89645 53.4197 2.89646 53.3653 2.89647C53.1899 2.89642 53.0145 2.8958 52.839 2.89517C52.7177 2.89502 52.5964 2.89491 52.4751 2.89483C52.1552 2.89453 51.8353 2.89374 51.5154 2.89286C51.1892 2.89205 50.863 2.89168 50.5367 2.89128C49.8963 2.89043 49.2558 2.88907 48.6153 2.88739C48.5849 2.75548 48.5584 2.62258 48.5356 2.48913C48.6153 2.40948 48.6153 2.40948 48.8335 2.3999Z" fill="#64748B"/>
<path d="M38.1632 5.36689C39.3979 6.14751 40.5042 7.02921 41.6053 7.98637C41.8192 8.16211 42.0331 8.33786 42.2535 8.51893C48.6817 13.9768 53.3809 23.1101 54.0669 31.5037C54.3016 35.5492 53.713 39.5948 51.1285 42.8239C49.9601 44.1322 48.5606 44.9121 47.0383 45.753C46.7585 45.9115 46.4788 46.07 46.1906 46.2332C45.6296 46.5504 45.0677 46.866 44.5049 47.1798C43.8065 47.5702 43.1122 47.9666 42.4196 48.3674C42.0492 48.5804 41.6787 48.7934 41.3081 49.0062C41.1444 49.1009 40.9808 49.1956 40.8122 49.2931C38.2706 50.7294 35.4717 50.9922 32.6425 50.3036C25.0202 47.9552 19.4885 41.4003 15.778 34.6229C14.4595 32.1161 13.5799 29.4636 12.8055 26.7459C12.7544 26.5682 12.7033 26.3905 12.6506 26.2075C11.3729 21.5667 11.5047 16.563 13.6808 12.2469C15.0428 10.0352 16.8773 8.8376 19.1303 7.62307C19.6721 7.32484 20.214 7.02656 20.7558 6.72824C21.1532 6.51143 21.1532 6.51143 21.5587 6.29024C22.2406 5.91486 22.9165 5.53127 23.59 5.14086C23.8733 4.97731 23.8733 4.97731 24.1623 4.81046C24.5048 4.61226 24.8466 4.4129 25.1876 4.2121C29.4568 1.76903 34.1272 3.06756 38.1632 5.36689Z" fill="#D5FF4D"/>
<path d="M38.1632 5.36689C39.3979 6.14751 40.5042 7.02921 41.6053 7.98637C41.8192 8.16211 42.0331 8.33786 42.2535 8.51893C48.6817 13.9768 53.3809 23.1101 54.0669 31.5037C54.3016 35.5492 53.713 39.5948 51.1285 42.8239C49.9601 44.1322 48.5606 44.9121 47.0383 45.753C46.7585 45.9115 46.4788 46.07 46.1906 46.2332C45.6296 46.5504 45.0677 46.866 44.5049 47.1798C43.8065 47.5702 43.1122 47.9666 42.4196 48.3674C42.0492 48.5804 41.6787 48.7934 41.3081 49.0062C41.1444 49.1009 40.9808 49.1956 40.8122 49.2931C38.2706 50.7294 35.4717 50.9922 32.6425 50.3036C25.0202 47.9552 19.4885 41.4003 15.778 34.6229C14.4595 32.1161 13.5799 29.4636 12.8055 26.7459C12.7544 26.5682 12.7033 26.3905 12.6506 26.2075C11.3729 21.5667 11.5047 16.563 13.6808 12.2469C15.0428 10.0352 16.8773 8.8376 19.1303 7.62307C19.6721 7.32484 20.214 7.02656 20.7558 6.72824C21.1532 6.51143 21.1532 6.51143 21.5587 6.29024C22.2406 5.91486 22.9165 5.53127 23.59 5.14086C23.8733 4.97731 23.8733 4.97731 24.1623 4.81046C24.5048 4.61226 24.8466 4.4129 25.1876 4.2121C29.4568 1.76903 34.1272 3.06756 38.1632 5.36689ZM17.2972 10.6285C17.1361 10.7539 16.975 10.8792 16.8091 11.0084C14.5323 13.0193 13.7293 15.9903 13.5404 18.9246C13.3119 28.0074 17.864 36.5994 23.9853 43.0613C27.2697 46.2053 31.6619 49.1204 36.3447 49.0238C38.3709 48.8035 40.2121 48.055 41.6053 46.5622C43.964 43.0952 44.4758 38.91 43.7851 34.821C43.681 34.3298 43.5704 33.84 43.4548 33.3513C43.3871 33.0502 43.3193 32.7491 43.2494 32.4389C41.2952 24.4205 36.2763 16.2383 29.1326 11.8791C28.7135 11.6329 28.2899 11.3946 27.866 11.157C27.6562 11.0385 27.4464 10.9199 27.2302 10.7978C24.4927 9.34481 19.9273 8.50938 17.2972 10.6285Z" fill="#64748B"/>
<path d="M37.5607 6.89781C39.1291 7.90326 40.4973 9.11014 41.8698 10.3646C42.0459 10.522 42.2219 10.6793 42.4034 10.8415C47.8612 15.9797 52.1447 24.4429 52.4829 31.9603C52.5057 33.9661 52.4845 35.9054 51.9101 37.8433C51.8453 38.0623 51.7806 38.2813 51.714 38.507C51.1043 40.2686 50.1245 41.6149 48.7394 42.8635C48.4779 42.9507 48.2163 43.0379 47.9468 43.1277C48.0231 42.8961 48.0994 42.6645 48.178 42.4259C50.4294 34.9925 48.5221 27.4773 44.9566 20.8058C43.8293 18.7762 42.5185 16.9382 41.0771 15.1206C40.9402 14.923 40.8033 14.7255 40.6622 14.5219C40.2898 13.9875 40.2898 13.9875 39.4918 13.7995C40.0084 14.7028 40.5679 15.4856 41.2423 16.2765C45.5834 21.6531 48.5198 28.612 48.5248 35.5479C48.528 35.7821 48.5312 36.0162 48.5346 36.2575C48.5407 39.0718 48.1313 42.0272 46.1468 44.1742C44.9443 45.2414 44.9443 45.2414 44.2477 45.2414C44.324 44.9976 44.4003 44.7537 44.4789 44.5024C46.6991 36.9215 44.5266 29.3569 40.8486 22.5996C37.3609 16.454 32.0729 10.7587 25.224 8.51511C24.2599 8.28999 23.299 8.11611 22.3176 7.98667C23.0397 7.14912 23.9601 6.65689 24.9103 6.12063C25.1496 5.98141 25.1496 5.98141 25.3938 5.83938C29.5991 3.44478 33.5653 4.66745 37.5607 6.89781Z" fill="#121212"/>
<path d="M24.1819 45.0192C24.8512 45.3948 25.38 45.8232 25.9555 46.3309C29.6946 49.3956 33.5487 50.26 38.2582 50.1125C38.2582 50.2869 38.2582 50.4612 38.2582 50.6409C38.4426 50.7095 38.627 50.7781 38.817 50.8488C39.6543 51.2009 40.4175 51.6203 41.2058 52.0714C41.36 52.1595 41.5142 52.2476 41.6731 52.3383C41.9993 52.5249 42.3253 52.7119 42.651 52.8993C43.1368 53.1786 43.6234 53.4565 44.1102 53.7341C45.0693 54.2826 46.0245 54.8375 46.9774 55.3968C47.2263 55.5428 47.2263 55.5428 47.4803 55.6917C47.9664 55.9784 48.4506 56.2681 48.9342 56.559C49.2185 56.7291 49.5027 56.8992 49.7955 57.0744C49.999 57.2183 50.2025 57.3623 50.4122 57.5106C50.4122 57.685 50.4122 57.8594 50.4122 58.039C50.2207 58.1494 50.0292 58.2598 49.8319 58.3735C49.105 58.7925 48.3782 59.2116 47.6513 59.6307C47.1886 59.8975 46.7259 60.1642 46.2631 60.4309C45.9634 60.6038 45.6637 60.7766 45.3549 60.9547C45.0516 61.1254 44.7483 61.2961 44.4358 61.4719C43.5366 61.987 43.5366 61.987 42.7194 62.6018C41.9343 63.1531 41.2896 63.5691 40.3719 63.8518C39.148 63.5783 38.2324 62.9613 37.2013 62.2665C36.7178 61.9888 36.2327 61.7139 35.746 61.4419C35.2507 61.1507 34.756 60.8586 34.2619 60.5656C33.7046 60.2379 33.1473 59.9104 32.5899 59.583C32.305 59.4155 32.02 59.2479 31.7265 59.0753C30.3079 58.2438 28.8831 57.423 27.4582 56.6023C27.0363 56.359 27.0363 56.359 26.6059 56.1108C25.2594 55.3345 23.9124 54.5592 22.5645 53.7854C21.9358 53.4244 21.3074 53.0631 20.679 52.7016C20.2373 52.4478 19.7953 52.1946 19.3533 51.9414C18.0519 51.1928 16.7686 50.4409 15.5354 49.584C16.9716 48.3888 18.5402 47.5019 20.1592 46.5786C20.4572 46.4025 20.7553 46.2264 21.0623 46.045C21.3501 45.8811 21.6379 45.7173 21.9344 45.5485C22.1958 45.3975 22.4572 45.2465 22.7266 45.0909C23.4619 44.8281 23.4619 44.8281 24.1819 45.0192Z" fill="#373D4D"/>
<path d="M28.7901 17.6968C29.4507 17.7628 29.4507 17.7628 29.9791 18.2913C30.048 18.9631 30.048 18.9631 30.0517 19.8224C30.0542 20.1433 30.0567 20.4643 30.0593 20.7949C30.0591 21.1431 30.0589 21.4912 30.0586 21.85C30.0596 22.2093 30.0608 22.5686 30.062 22.928C30.064 23.6814 30.0639 24.4347 30.0625 25.1882C30.061 26.1549 30.0655 27.1215 30.0716 28.0882C30.0755 28.8303 30.0757 29.5724 30.0749 30.3145C30.0751 30.8447 30.0788 31.3748 30.0825 31.9049C30.0808 32.2259 30.0792 32.5468 30.0775 32.8775C30.0777 33.161 30.0778 33.4446 30.078 33.7367C30.0454 33.9584 30.0127 34.1801 29.9791 34.4086C29.1865 34.937 29.1865 34.937 28.4929 34.8544C27.8654 34.6728 27.8654 34.6728 27.6012 34.4086C27.5736 33.9088 27.5646 33.408 27.5628 32.9074C27.5611 32.5865 27.5594 32.2655 27.5577 31.9349C27.5573 31.5818 27.557 31.2287 27.5568 30.8757C27.5559 30.516 27.555 30.1563 27.5541 29.7966C27.5525 29.0416 27.5521 28.2866 27.5522 27.5316C27.5522 26.5628 27.5486 25.5941 27.5441 24.6253C27.5411 23.8821 27.5406 23.1388 27.5407 22.3956C27.5404 22.0384 27.5393 21.6811 27.5372 21.3239C27.5346 20.8248 27.5357 20.3257 27.537 19.8266C27.5366 19.5422 27.5362 19.2579 27.5358 18.9649C27.6261 18.0343 27.8576 17.79 28.7901 17.6968Z" fill="#64748B"/>
<path d="M28.7744 37.7437C29.7157 37.8427 29.7157 37.8427 30.2441 38.2721C30.5986 39.1141 30.4897 39.6159 30.2441 40.4849C29.7157 41.0134 29.7157 41.0134 28.8074 41.1124C27.8661 41.0134 27.8661 41.0134 27.3377 40.584C26.9832 39.742 27.0921 39.2402 27.3377 38.3712C27.8661 37.8427 27.8661 37.8427 28.7744 37.7437Z" fill="#64748B"/>
<path d="M29.4512 6.66553C30.8565 6.7975 31.8532 7.13663 33.0842 7.82148C33.3771 7.98156 33.67 8.14164 33.9718 8.30657C34.5968 8.69339 35.0744 8.99995 35.5282 9.57193C35.5282 9.74631 35.5282 9.92069 35.5282 10.1004C34.5024 9.94914 33.8069 9.64906 32.9355 9.09303C31.8003 8.38671 30.6555 7.77381 29.4512 7.19396C29.4512 7.01958 29.4512 6.8452 29.4512 6.66553Z" fill="#64748B"/>
</svg>
