<svg width="69" height="64" viewBox="0 0 69 64" fill="none" xmlns="http://www.w3.org/2000/svg">
<path d="M7.36436 3.48486C7.62613 3.50513 7.88783 3.52637 8.14949 3.54803C8.36809 3.56562 8.36809 3.56562 8.59112 3.58357C8.95266 3.62925 8.95266 3.62925 9.09705 3.77364C9.10292 4.01422 9.10322 4.25503 9.09705 4.4956C8.38646 4.51969 7.86923 4.53145 7.21997 4.20682C7.26762 3.96857 7.31527 3.73033 7.36436 3.48486Z" fill="#373D4D"/>
<path d="M0.288781 2.32983C0.526837 2.33529 0.764684 2.35217 1.00171 2.37496C1.13107 2.38631 1.26043 2.39766 1.39371 2.40936C1.73269 2.47422 1.73269 2.47422 2.02147 2.76301C1.96732 3.06984 1.96732 3.06984 1.87708 3.34057C1.67259 3.34843 1.46801 3.354 1.26342 3.35862C1.14951 3.36197 1.0356 3.36532 0.918234 3.36877C0.547628 3.33809 0.318871 3.23755 0 3.05179C0.126342 2.49227 0.126342 2.49227 0.288781 2.32983Z" fill="#373D4D"/>
<path d="M2.74345 4.35143C2.74345 4.58968 2.74345 4.82792 2.74345 5.07339C1.81935 5.65983 1.81935 5.65983 1.38076 5.61485C1.30631 5.57911 1.23186 5.54338 1.15515 5.50656C1.18222 5.17265 1.18222 5.17265 1.29954 4.7846C1.78072 4.39699 2.13153 4.29898 2.74345 4.35143Z" fill="#373D4D"/>
<path d="M7.94157 1.31984C7.98922 1.51044 8.03687 1.70104 8.08596 1.89741C7.93131 2.02295 7.77444 2.14578 7.61669 2.26741C7.52958 2.33609 7.44247 2.40477 7.35273 2.47553C7.07522 2.61936 7.07522 2.61936 6.7526 2.56916C6.66847 2.53808 6.58434 2.507 6.49766 2.47497C6.45001 2.28437 6.40236 2.09378 6.35327 1.89741C6.90151 1.48941 7.24643 1.23806 7.94157 1.31984Z" fill="#373D4D"/>
<path d="M3.17686 0.597168C3.51979 0.633266 3.51979 0.633266 3.89881 0.741559C4.09735 0.994242 4.09735 0.994242 4.1876 1.31912C4.13345 1.7162 4.13345 1.7162 4.04321 2.04107C3.85261 2.04107 3.66201 2.04107 3.46564 2.04107C3.20393 1.72522 3.20393 1.72522 3.03247 1.31912C3.07759 0.913023 3.07759 0.913023 3.17686 0.597168Z" fill="#373D4D"/>
<path d="M5.19808 4.78442C5.46882 4.82955 5.46882 4.82955 5.77565 4.92881C6.10632 5.42483 6.09019 5.64865 6.06443 6.22833C5.82618 6.22833 5.58794 6.22833 5.34247 6.22833C5.10784 5.83126 5.10784 5.83126 4.9093 5.36199C5.02662 5.01906 5.02662 5.01906 5.19808 4.78442Z" fill="#373D4D"/>
<path d="M62.0613 48.2529C62.8206 48.3508 63.4151 48.8483 64.0439 49.2642C64.6373 49.6651 64.6373 49.6651 65.3192 49.6895C65.4338 49.6149 65.5485 49.5402 65.6666 49.4633C65.8274 49.369 65.9882 49.2746 66.1539 49.1774C66.4178 49.0176 66.6805 48.8567 66.9413 48.692C67.3636 48.4391 67.6143 48.3016 68.1122 48.346C68.2596 48.3988 68.2596 48.3988 68.41 48.4526C68.401 48.7752 68.401 48.7752 68.2656 49.1745C67.9267 49.4135 67.6202 49.6013 67.2549 49.7882C67.0683 49.8881 66.8818 49.9881 66.6954 50.0883C66.5465 50.1679 66.3976 50.2476 66.2442 50.3297C66.1965 50.3773 66.1489 50.425 66.0998 50.4741C66.8622 50.9029 67.6245 51.3317 68.41 51.7736C68.41 52.0118 68.41 52.2501 68.41 52.4955C67.4189 52.4277 66.822 52.0345 66.0174 51.4811C65.4856 51.1225 65.4856 51.1225 64.8691 51.1199C64.7511 51.1927 64.6331 51.2654 64.5115 51.3404C64.3507 51.4331 64.1898 51.5258 64.0242 51.6213C63.7606 51.7789 63.498 51.9377 63.2368 52.099C62.7256 52.4024 62.3658 52.5657 61.768 52.4955C61.7204 52.3049 61.6728 52.1143 61.6237 51.918C62.3783 51.4046 63.1351 50.9159 63.9339 50.4741C63.358 49.975 62.7388 49.6184 62.0726 49.2558C61.768 49.0302 61.768 49.0302 61.644 48.7233C61.6373 48.634 61.6306 48.5446 61.6237 48.4526C61.768 48.3082 61.768 48.3082 62.0613 48.2529Z" fill="#373D4D"/>
<path d="M7.523 47.1278C8.39347 47.7777 8.39347 47.7777 8.61408 48.2189C8.6523 48.8018 8.6679 49.1672 8.28675 49.6373C7.50134 50.4227 6.64932 50.6607 5.55906 50.667C4.48731 50.652 3.53439 50.4999 2.72227 49.7464C2.37599 49.3443 2.33652 48.9745 2.35786 48.4597C2.43086 47.9856 2.6565 47.6982 3.03169 47.4108C4.21836 46.6288 6.23688 46.4159 7.523 47.1278ZM3.04959 48.328C2.97679 48.646 2.97679 48.646 3.04959 48.9826C3.43876 49.5099 3.94991 49.805 4.5771 49.9646C5.67887 50.0659 6.66049 50.0131 7.63211 49.4463C7.93436 49.1063 7.9753 48.8893 7.95943 48.4371C7.58681 47.903 7.05482 47.6084 6.43192 47.4551C5.2193 47.3055 3.90176 47.3195 3.04959 48.328Z" fill="#26343C"/>
<path d="M51.502 0.00821672C51.5538 0.0079492 51.6056 0.00768168 51.659 0.00740605C51.8311 0.00664653 52.0031 0.00649368 52.1752 0.00640821C52.2944 0.00615246 52.4135 0.00588452 52.5327 0.00560483C52.7828 0.0051271 53.0329 0.00498042 53.283 0.00502752C53.6039 0.00503562 53.9249 0.00394819 54.2459 0.00257645C54.4921 0.00169222 54.7383 0.00152921 54.9845 0.00157139C55.1028 0.00147717 55.2212 0.00112355 55.3396 0.000509441C55.5049 -0.000268115 55.6702 -4.31227e-05 55.8356 0.000438188C55.9298 0.000324682 56.024 0.000211177 56.1211 9.42313e-05C56.3423 0.0197873 56.3423 0.0197873 56.5016 0.179092C56.4589 0.460719 56.4589 0.460719 56.3423 0.577352C56.177 0.585692 56.0114 0.588389 55.8459 0.588923C55.7941 0.58919 55.7423 0.589458 55.6889 0.589733C55.5169 0.590493 55.3448 0.590646 55.1727 0.590731C55.0536 0.590987 54.9344 0.591255 54.8153 0.591535C54.5652 0.592012 54.3151 0.592159 54.065 0.592112C53.744 0.592104 53.423 0.593191 53.102 0.594563C52.8558 0.595447 52.6096 0.59561 52.3634 0.595568C52.2451 0.595662 52.1267 0.596016 52.0084 0.59663C51.843 0.597408 51.6777 0.597183 51.5123 0.596701C51.371 0.596872 51.371 0.596872 51.2268 0.597045C51.0056 0.577352 51.0056 0.577352 50.8463 0.418048C50.9147 -0.0333422 51.0743 0.00959616 51.502 0.00821672Z" fill="#384850"/>
<path d="M48.8335 2.3999C48.931 2.40008 49.0284 2.40026 49.1289 2.40044C49.2093 2.40042 49.2093 2.40042 49.2913 2.4004C49.4693 2.40046 49.6473 2.40108 49.8253 2.4017C49.9484 2.40185 50.0715 2.40196 50.1946 2.40204C50.5193 2.40235 50.8439 2.40313 51.1685 2.40401C51.4995 2.40483 51.8305 2.40519 52.1615 2.40559C52.8115 2.40645 53.4614 2.40781 54.1113 2.40948C54.1147 2.54219 54.1145 2.67503 54.1113 2.80774C54.0316 2.88739 54.0316 2.88739 53.8164 2.89697C53.7204 2.8968 53.6244 2.89662 53.5254 2.89644C53.4726 2.89645 53.4197 2.89646 53.3653 2.89647C53.1899 2.89642 53.0145 2.8958 52.839 2.89517C52.7177 2.89502 52.5964 2.89491 52.4751 2.89483C52.1552 2.89453 51.8353 2.89374 51.5154 2.89286C51.1892 2.89205 50.863 2.89168 50.5367 2.89128C49.8963 2.89043 49.2558 2.88907 48.6153 2.88739C48.5849 2.75548 48.5584 2.62258 48.5356 2.48913C48.6153 2.40948 48.6153 2.40948 48.8335 2.3999Z" fill="#25333C"/>
<path d="M38.1934 5.3664C39.428 6.14702 40.5344 7.02872 41.6355 7.98588C41.8494 8.16163 42.0632 8.33737 42.2836 8.51844C48.7118 13.9763 53.411 23.1096 54.0971 31.5032C54.3318 35.5487 53.7431 39.5944 51.1587 42.8235C49.9903 44.1317 48.5908 44.9117 47.0684 45.7526C46.7887 45.911 46.5089 46.0695 46.2207 46.2327C45.6598 46.5499 45.0979 46.8655 44.535 47.1793C43.8366 47.5697 43.1423 47.9662 42.4498 48.3669C42.0793 48.58 41.7088 48.7929 41.3382 49.0057C41.1746 49.1004 41.0109 49.1951 40.8424 49.2926C38.3008 50.7289 35.5018 50.9917 32.6727 50.3031C25.0504 47.9547 19.5187 41.3998 15.8081 34.6224C14.4896 32.1156 13.6101 29.4631 12.8357 26.7454C12.7846 26.5677 12.7334 26.39 12.6807 26.207C11.4031 21.5662 11.5348 16.5625 13.7109 12.2464C15.073 10.0347 16.9074 8.83712 19.1604 7.62258C19.7023 7.32435 20.2441 7.02607 20.786 6.72775C21.1834 6.51094 21.1834 6.51094 21.5888 6.28975C22.2708 5.91437 22.9467 5.53078 23.6201 5.14037C23.9034 4.97683 23.9034 4.97683 24.1925 4.80997C24.535 4.61177 24.8768 4.41241 25.2178 4.21161C29.4869 1.76854 34.1573 3.06707 38.1934 5.3664Z" fill="#D5FF4D"/>
<path d="M38.1934 5.3664C39.428 6.14702 40.5344 7.02872 41.6355 7.98588C41.8494 8.16163 42.0632 8.33737 42.2836 8.51844C48.7118 13.9763 53.411 23.1096 54.0971 31.5032C54.3318 35.5487 53.7431 39.5944 51.1587 42.8235C49.9903 44.1317 48.5908 44.9117 47.0684 45.7526C46.7887 45.911 46.5089 46.0695 46.2207 46.2327C45.6598 46.5499 45.0979 46.8655 44.535 47.1793C43.8366 47.5697 43.1423 47.9662 42.4498 48.3669C42.0793 48.58 41.7088 48.7929 41.3382 49.0057C41.1746 49.1004 41.0109 49.1951 40.8424 49.2926C38.3008 50.7289 35.5018 50.9917 32.6727 50.3031C25.0504 47.9547 19.5187 41.3998 15.8081 34.6224C14.4896 32.1156 13.6101 29.4631 12.8357 26.7454C12.7846 26.5677 12.7334 26.39 12.6807 26.207C11.4031 21.5662 11.5348 16.5625 13.7109 12.2464C15.073 10.0347 16.9074 8.83712 19.1604 7.62258C19.7023 7.32435 20.2441 7.02607 20.786 6.72775C21.1834 6.51094 21.1834 6.51094 21.5888 6.28975C22.2708 5.91437 22.9467 5.53078 23.6201 5.14037C23.9034 4.97683 23.9034 4.97683 24.1925 4.80997C24.535 4.61177 24.8768 4.41241 25.2178 4.21161C29.4869 1.76854 34.1573 3.06707 38.1934 5.3664ZM17.3274 10.6281C17.1663 10.7534 17.0052 10.8787 16.8392 11.0079C14.5624 13.0188 13.7594 15.9899 13.5705 18.9241C13.342 28.0069 17.8942 36.5989 24.0154 43.0608C27.2999 46.2048 31.6921 49.1199 36.3748 49.0233C38.4011 48.803 40.2422 48.0545 41.6355 46.5617C43.9941 43.0947 44.5059 38.9095 43.8153 34.8205C43.7111 34.3293 43.6005 33.8395 43.485 33.3508C43.4172 33.0497 43.3494 32.7486 43.2796 32.4384C41.3253 24.42 36.3064 16.2378 29.1627 11.8786C28.7437 11.6325 28.32 11.3942 27.8961 11.1565C27.6863 11.038 27.4765 10.9194 27.2603 10.7973C24.5228 9.34433 19.9574 8.50889 17.3274 10.6281Z" fill="#373D4D"/>
<path d="M37.5908 6.89732C39.1591 7.90278 40.5273 9.10965 41.8998 10.3641C42.0759 10.5215 42.252 10.6789 42.4334 10.841C47.8912 15.9793 52.1748 24.4424 52.5129 31.9599C52.5357 33.9657 52.5145 35.9049 51.9401 37.8428C51.8754 38.0618 51.8107 38.2808 51.744 38.5065C51.1343 40.2681 50.1545 41.6144 48.7695 42.863C48.5079 42.9502 48.2463 43.0374 47.9768 43.1272C48.0531 42.8956 48.1294 42.664 48.208 42.4254C50.4595 34.992 48.5521 27.4768 44.9866 20.8053C43.8593 18.7757 42.5485 16.9377 41.1071 15.1201C40.9702 14.9225 40.8333 14.725 40.6922 14.5215C40.3198 13.987 40.3198 13.987 39.5218 13.799C40.0385 14.7023 40.5979 15.4851 41.2723 16.276C45.6134 21.6526 48.5498 28.6115 48.5548 35.5474C48.558 35.7816 48.5613 36.0158 48.5646 36.257C48.5708 39.0713 48.1613 42.0267 46.1768 44.1737C44.9744 45.2409 44.9744 45.2409 44.2778 45.2409C44.3541 44.9971 44.4303 44.7532 44.509 44.502C46.7291 36.921 44.5566 29.3564 40.8786 22.5991C37.391 16.4535 32.1029 10.7582 25.2541 8.51462C24.2899 8.2895 23.329 8.11562 22.3477 7.98618C23.0697 7.14863 23.9902 6.6564 24.9403 6.12014C25.1796 5.98093 25.1796 5.98093 25.4238 5.8389C29.6291 3.44429 33.5953 4.66696 37.5908 6.89732Z" fill="white"/>
<path d="M24.1245 45.1674C24.7938 45.543 25.3227 45.9714 25.8981 46.479C29.6372 49.5438 33.4913 50.4082 38.2008 50.2607C38.2008 50.4351 38.2008 50.6094 38.2008 50.7891C38.3852 50.8577 38.5697 50.9263 38.7597 50.9969C39.5969 51.3491 40.3601 51.7685 41.1485 52.2196C41.3027 52.3077 41.4569 52.3957 41.6157 52.4865C41.9419 52.6731 42.2679 52.8601 42.5937 53.0475C43.0795 53.3268 43.5661 53.6047 44.0528 53.8823C45.0119 54.4308 45.9672 54.9857 46.92 55.545C47.1689 55.691 47.1689 55.691 47.4229 55.8399C47.909 56.1266 48.3932 56.4163 48.8769 56.7072C49.1611 56.8773 49.4453 57.0473 49.7381 57.2226C49.9417 57.3665 50.1452 57.5105 50.3548 57.6588C50.3548 57.8332 50.3548 58.0075 50.3548 58.1872C50.1633 58.2976 49.9718 58.408 49.7745 58.5217C49.0476 58.9407 48.3208 59.3598 47.594 59.7789C47.1313 60.0457 46.6685 60.3124 46.2058 60.5791C45.9061 60.752 45.6063 60.9248 45.2975 61.1029C44.9942 61.2736 44.6909 61.4443 44.3784 61.6201C43.4792 62.1352 43.4792 62.1352 42.6621 62.75C41.8769 63.3012 41.2322 63.7173 40.3145 64C39.0906 63.7265 38.175 63.1095 37.1439 62.4147C36.6604 62.137 36.1753 61.8621 35.6887 61.5901C35.1934 61.2989 34.6987 61.0068 34.2045 60.7138C33.6472 60.3861 33.0899 60.0586 32.5325 59.7312C32.2476 59.5637 31.9627 59.3961 31.6691 59.2234C30.2505 58.392 28.8258 57.5712 27.4009 56.7505C26.9789 56.5072 26.9789 56.5072 26.5485 56.259C25.202 55.4827 23.855 54.7074 22.5071 53.9336C21.8785 53.5726 21.25 53.2112 20.6216 52.8498C20.1799 52.596 19.7379 52.3428 19.2959 52.0896C17.9945 51.341 16.7113 50.5891 15.478 49.7322C16.9143 48.537 18.4828 47.65 20.1018 46.7268C20.3999 46.5507 20.6979 46.3746 21.0049 46.1932C21.2927 46.0293 21.5805 45.8655 21.8771 45.6967C22.1385 45.5457 22.3999 45.3947 22.6692 45.2391C23.4046 44.9763 23.4046 44.9763 24.1245 45.1674Z" fill="#F3F4FE"/>
<path d="M28.8204 17.6965C29.481 17.7626 29.481 17.7626 30.0094 18.291C30.0783 18.9629 30.0783 18.9629 30.082 19.8221C30.0845 20.1431 30.087 20.464 30.0896 20.7947C30.0894 21.1428 30.0891 21.491 30.0889 21.8497C30.0899 22.209 30.091 22.5684 30.0923 22.9277C30.0943 23.6811 30.0942 24.4345 30.0928 25.1879C30.0913 26.1547 30.0958 27.1213 30.1019 28.088C30.1058 28.8301 30.106 29.5722 30.1052 30.3143C30.1054 30.8444 30.1091 31.3746 30.1128 31.9047C30.1111 32.2256 30.1095 32.5465 30.1078 32.8772C30.1079 33.1608 30.1081 33.4443 30.1083 33.7365C30.0757 33.9582 30.043 34.1799 30.0094 34.4083C29.2167 34.9368 29.2167 34.9368 28.5232 34.8542C27.8957 34.6726 27.8957 34.6726 27.6314 34.4083C27.6039 33.9086 27.5948 33.4077 27.5931 32.9072C27.5914 32.5862 27.5897 32.2653 27.588 31.9346C27.5875 31.5816 27.5873 31.2285 27.5871 30.8754C27.5862 30.5157 27.5853 30.156 27.5844 29.7963C27.5828 29.0413 27.5823 28.2864 27.5825 27.5314C27.5825 26.5626 27.5789 25.5938 27.5744 24.625C27.5714 23.8818 27.5709 23.1386 27.571 22.3954C27.5707 22.0381 27.5695 21.6809 27.5675 21.3237C27.5649 20.8246 27.566 20.3255 27.5673 19.8263C27.5669 19.542 27.5665 19.2576 27.5661 18.9647C27.6564 18.0341 27.8879 17.7898 28.8204 17.6965Z" fill="#373D4D"/>
<path d="M28.8047 37.7434C29.7459 37.8425 29.7459 37.8425 30.2744 38.2718C30.6289 39.1139 30.52 39.6157 30.2744 40.4847C29.7459 41.0131 29.7459 41.0131 28.8377 41.1122C27.8964 41.0131 27.8964 41.0131 27.368 40.5838C27.0135 39.7417 27.1224 39.2399 27.368 38.3709C27.8964 37.8425 27.8964 37.8425 28.8047 37.7434Z" fill="#373D4D"/>
<path d="M29.4816 6.66504C30.8869 6.79701 31.8836 7.13614 33.1146 7.82099C33.4075 7.98107 33.7004 8.14115 34.0022 8.30608C34.6272 8.6929 35.1048 8.99946 35.5586 9.57144C35.5586 9.74582 35.5586 9.92021 35.5586 10.0999C34.5328 9.94865 33.8373 9.64857 32.9659 9.09254C31.8307 8.38622 30.6859 7.77332 29.4816 7.19348C29.4816 7.01909 29.4816 6.84471 29.4816 6.66504Z" fill="#373D4D"/>
</svg>
