<svg width="82" height="64" viewBox="0 0 82 64" fill="none" xmlns="http://www.w3.org/2000/svg">
<path d="M8.75441 27.8638C8.98106 27.8813 9.20764 27.8997 9.43419 27.9185C9.62346 27.9337 9.62346 27.9337 9.81656 27.9492C10.1296 27.9888 10.1296 27.9888 10.2546 28.1138C10.2597 28.3221 10.2599 28.5306 10.2546 28.7389C9.63937 28.7597 9.19154 28.7699 8.62939 28.4889C8.67065 28.2826 8.71191 28.0763 8.75441 27.8638Z" fill="#64748B"/>
<path d="M2.62869 26.8633C2.83481 26.868 3.04074 26.8826 3.24596 26.9023C3.35797 26.9122 3.46997 26.922 3.58536 26.9321C3.87886 26.9883 3.87886 26.9883 4.12889 27.2383C4.08201 27.504 4.08201 27.504 4.00388 27.7384C3.82682 27.7452 3.64969 27.75 3.47256 27.754C3.37393 27.7569 3.2753 27.7598 3.17369 27.7628C2.85281 27.7363 2.65475 27.6492 2.37866 27.4884C2.48805 27.0039 2.48805 27.0039 2.62869 26.8633Z" fill="#64748B"/>
<path d="M4.7536 28.6138C4.7536 28.8201 4.7536 29.0264 4.7536 29.2389C3.95349 29.7467 3.95349 29.7467 3.57376 29.7077C3.50929 29.6768 3.44483 29.6459 3.37842 29.614C3.40186 29.3249 3.40186 29.3249 3.50343 28.9889C3.92005 28.6533 4.22378 28.5684 4.7536 28.6138Z" fill="#64748B"/>
<path d="M9.25458 25.9889C9.29583 26.1539 9.33709 26.319 9.37959 26.489C9.24569 26.5977 9.10987 26.704 8.97329 26.8093C8.89787 26.8688 8.82245 26.9283 8.74474 26.9895C8.50448 27.1141 8.50448 27.1141 8.22514 27.0706C8.1523 27.0437 8.07946 27.0168 8.00441 26.9891C7.96316 26.824 7.9219 26.659 7.87939 26.489C8.35407 26.1357 8.65271 25.9181 9.25458 25.9889Z" fill="#64748B"/>
<path d="M5.12917 25.3633C5.42608 25.3945 5.42608 25.3945 5.75425 25.4883C5.92615 25.7071 5.92615 25.7071 6.00428 25.9884C5.9574 26.3322 5.9574 26.3322 5.87927 26.6134C5.71424 26.6134 5.54922 26.6134 5.3792 26.6134C5.15261 26.34 5.15261 26.34 5.00415 25.9884C5.04322 25.6368 5.04322 25.6368 5.12917 25.3633Z" fill="#64748B"/>
<path d="M6.87918 28.9888C7.11359 29.0278 7.11359 29.0278 7.37925 29.1138C7.66555 29.5432 7.65159 29.737 7.62928 30.2389C7.423 30.2389 7.21673 30.2389 7.0042 30.2389C6.80105 29.8951 6.80105 29.8951 6.62915 29.4888C6.73073 29.1919 6.73073 29.1919 6.87918 28.9888Z" fill="#64748B"/>
<path d="M76.4192 25.9883C77.0766 26.073 77.5914 26.5038 78.1358 26.8639C78.6495 27.211 78.6495 27.211 79.2399 27.2321C79.3392 27.1675 79.4385 27.1029 79.5407 27.0363C79.68 26.9546 79.8192 26.8729 79.9627 26.7887C80.1911 26.6504 80.4186 26.511 80.6444 26.3685C81.01 26.1495 81.2271 26.0304 81.6582 26.0689C81.7858 26.1145 81.7858 26.1145 81.9161 26.1612C81.9082 26.4405 81.9082 26.4405 81.791 26.7862C81.4976 26.9931 81.2322 27.1557 80.9159 27.3176C80.7544 27.4041 80.5929 27.4906 80.4315 27.5774C80.3026 27.6463 80.1736 27.7153 80.0408 27.7864C79.9996 27.8276 79.9583 27.8689 79.9158 27.9114C80.5759 28.2827 81.236 28.654 81.9161 29.0365C81.9161 29.2428 81.9161 29.4491 81.9161 29.6616C81.0579 29.6029 80.5411 29.2624 79.8445 28.7833C79.384 28.4728 79.384 28.4728 78.8502 28.4705C78.7481 28.5336 78.6459 28.5966 78.5406 28.6615C78.4014 28.7417 78.2621 28.822 78.1187 28.9047C77.8905 29.0411 77.6632 29.1786 77.437 29.3183C76.9944 29.581 76.6829 29.7224 76.1653 29.6616C76.124 29.4966 76.0828 29.3316 76.0403 29.1616C76.6936 28.7171 77.349 28.294 78.0405 27.9114C77.5419 27.4793 77.0058 27.1705 76.429 26.8566C76.1653 26.6612 76.1653 26.6612 76.0579 26.3956C76.0521 26.3182 76.0463 26.2409 76.0403 26.1612C76.1653 26.0361 76.1653 26.0361 76.4192 25.9883Z" fill="#64748B"/>
<path d="M44.4071 60.7229C45.1607 61.2856 45.1607 61.2856 45.3517 61.6676C45.3848 62.1723 45.3984 62.4886 45.0683 62.8957C44.3883 63.5757 43.6506 63.7818 42.7067 63.7872C41.7787 63.7742 40.9537 63.6425 40.2505 62.9901C39.9507 62.642 39.9165 62.3218 39.935 61.8761C39.9982 61.4656 40.1936 61.2167 40.5184 60.9679C41.5458 60.2908 43.2935 60.1065 44.4071 60.7229ZM40.5339 61.762C40.4709 62.0374 40.4709 62.0374 40.5339 62.3289C40.8709 62.7854 41.3134 63.0409 41.8564 63.1791C42.8104 63.2668 43.6603 63.2211 44.5015 62.7303C44.7632 62.4359 44.7987 62.248 44.7849 61.8565C44.4623 61.3941 44.0017 61.139 43.4624 61.0063C42.4125 60.8767 41.2717 60.8888 40.5339 61.762Z" fill="#64748B"/>
<path d="M42.4994 0.0071142C42.5442 0.00688258 42.5891 0.00665095 42.6353 0.00641231C42.7843 0.00575471 42.9332 0.00562236 43.0822 0.00554836C43.1854 0.00532693 43.2885 0.00509493 43.3917 0.00485278C43.6083 0.00443915 43.8248 0.00431215 44.0413 0.00435293C44.3193 0.00435994 44.5972 0.00341842 44.8751 0.00223074C45.0882 0.00146516 45.3014 0.00132403 45.5146 0.00136054C45.617 0.00127896 45.7195 0.000972794 45.822 0.000441084C45.9652 -0.000232139 46.1083 -3.73365e-05 46.2515 0.000379392C46.333 0.000281117 46.4146 0.000182841 46.4986 8.15874e-05C46.6902 0.0171322 46.6902 0.0171322 46.8281 0.155061C46.7912 0.3989 46.7912 0.3989 46.6902 0.499883C46.5471 0.507104 46.4037 0.509439 46.2604 0.509901C46.2155 0.510133 46.1707 0.510365 46.1245 0.510603C45.9755 0.511261 45.8265 0.511393 45.6775 0.511467C45.5744 0.511689 45.4712 0.511921 45.368 0.512163C45.1515 0.512577 44.935 0.512704 44.7184 0.512663C44.4405 0.512656 44.1626 0.513597 43.8847 0.514785C43.6715 0.515551 43.4584 0.515692 43.2452 0.515655C43.1427 0.515737 43.0402 0.516043 42.9378 0.516575C42.7946 0.517248 42.6515 0.517053 42.5083 0.516636C42.3859 0.516784 42.3859 0.516784 42.2611 0.516934C42.0696 0.499883 42.0696 0.499883 41.9316 0.361955C41.9909 -0.0288683 42.129 0.00830856 42.4994 0.0071142Z" fill="#64748B"/>
<path d="M40.1888 2.07764C40.2732 2.07779 40.3576 2.07794 40.4445 2.0781C40.5142 2.07809 40.5142 2.07809 40.5852 2.07807C40.7393 2.07812 40.8934 2.07866 41.0475 2.0792C41.1541 2.07932 41.2607 2.07942 41.3673 2.07949C41.6484 2.07975 41.9294 2.08043 42.2105 2.08119C42.4971 2.0819 42.7837 2.08221 43.0703 2.08256C43.633 2.0833 44.1957 2.08448 44.7584 2.08593C44.7614 2.20083 44.7612 2.31585 44.7584 2.43075C44.6895 2.49972 44.6895 2.49972 44.5031 2.50801C44.42 2.50786 44.3368 2.5077 44.2511 2.50755C44.2054 2.50756 44.1596 2.50757 44.1125 2.50758C43.9606 2.50753 43.8088 2.50699 43.6569 2.50645C43.5518 2.50632 43.4468 2.50622 43.3417 2.50616C43.0648 2.50589 42.7878 2.50521 42.5108 2.50445C42.2284 2.50375 41.9459 2.50343 41.6635 2.50308C41.109 2.50234 40.5544 2.50117 39.9999 2.49972C39.9735 2.3855 39.9506 2.27044 39.9309 2.15489C39.9999 2.08593 39.9999 2.08593 40.1888 2.07764Z" fill="#64748B"/>
<path d="M45.2399 11.0987C45.7302 11.1012 46.2203 11.0987 46.7105 11.0957C49.614 11.0924 52.4403 11.4006 55.2534 12.132C55.4378 12.1793 55.6223 12.2266 55.8123 12.2754C61.1738 13.695 66.167 16.2712 69.1223 21.1274C69.8321 22.6602 70.1055 24.1152 70.1027 25.7954C70.1041 25.9852 70.1054 26.1751 70.1068 26.3707C70.1086 26.7695 70.1088 27.1682 70.1074 27.567C70.1064 28.1699 70.1138 28.7723 70.1218 29.3752C70.1411 33.1357 69.2338 35.765 66.5527 38.4905C66.4369 38.6083 66.3211 38.7262 66.2017 38.8476C64.2881 40.6778 61.8891 41.8414 59.4845 42.8885C59.3818 42.9338 59.2792 42.9791 59.1734 43.0258C54.9704 44.8475 50.3172 45.2732 45.7905 45.2823C45.3325 45.2838 44.8747 45.2887 44.4168 45.2936C42.4331 45.3048 40.5441 45.1327 38.5941 44.7733C38.4181 44.7421 38.2421 44.7109 38.0608 44.6787C34.7803 44.0671 31.8385 42.9624 28.8658 41.4623C28.3967 41.2532 28.0686 41.1153 27.5672 41.2619C27.2535 41.4525 27.2535 41.4525 27.1991 41.8104C27.178 42.0754 27.1583 42.3405 27.1402 42.6056C26.6856 43.7867 25.2779 44.448 24.2319 45.0482C23.9523 45.2123 23.673 45.3767 23.3938 45.5415C23.2554 45.6232 23.1169 45.7049 22.9743 45.7891C22.3832 46.1437 21.8048 46.5164 21.2279 46.8938C19.0211 48.3351 16.7836 49.7277 14.5479 51.1238C13.5762 51.7307 12.6056 52.3392 11.6368 52.9508C11.5191 53.0249 11.4014 53.099 11.2801 53.1753C10.6034 53.6022 9.9309 54.0348 9.26111 54.4724C9.10756 54.572 8.95401 54.6717 8.79581 54.7743C8.49958 54.9666 8.20415 55.1601 7.90968 55.3551C6.40467 56.329 5.03643 56.8048 3.23352 56.4966C2.10807 56.163 1.18459 55.2707 0.500732 54.3448C-0.119266 53.184 -0.113134 51.6794 0.244879 50.4371C0.986714 48.7899 2.43565 48.0211 3.99691 47.2471C4.51001 46.9927 5.02006 46.7322 5.53068 46.4729C5.63274 46.4213 5.73479 46.3697 5.83994 46.3165C6.69615 45.8825 7.53844 45.4259 8.37759 44.9598C9.87342 44.133 11.3914 43.3523 12.913 42.5743C14.5827 41.7206 16.2434 40.8559 17.8855 39.9496C19.0047 39.3332 20.134 38.7371 21.2672 38.1469C21.4373 38.058 21.6074 37.9692 21.7827 37.8777C21.9404 37.7958 22.0981 37.714 22.2606 37.6297C22.4006 37.5569 22.5407 37.4842 22.685 37.4093C23.0441 37.2339 23.0441 37.2339 23.5153 37.0768C23.3902 36.8858 23.3902 36.8858 23.2625 36.6909C22.2541 35.1102 21.4688 33.562 21.4431 31.6457C21.4406 31.4736 21.438 31.3015 21.4354 31.1242C21.4284 30.3355 21.422 29.5469 21.4184 28.7582C21.4158 28.3443 21.4115 27.9305 21.4055 27.5167C21.3479 23.5283 21.9528 21.017 24.7719 18.0713C24.8585 17.9747 24.9452 17.8781 25.0345 17.7786C25.8698 16.8792 26.8891 16.2212 27.9133 15.5581C28.0605 15.4624 28.2077 15.3666 28.3593 15.2679C33.3115 12.2189 39.5034 11.0637 45.2399 11.0987Z" fill="#CCFE41"/>
<path d="M45.2399 11.0987C45.7302 11.1012 46.2203 11.0987 46.7105 11.0957C49.614 11.0924 52.4403 11.4006 55.2534 12.132C55.4378 12.1793 55.6223 12.2266 55.8123 12.2754C61.1738 13.695 66.167 16.2712 69.1223 21.1274C69.8321 22.6602 70.1055 24.1152 70.1027 25.7954C70.1041 25.9852 70.1054 26.1751 70.1068 26.3707C70.1086 26.7695 70.1088 27.1682 70.1074 27.567C70.1064 28.1699 70.1138 28.7723 70.1218 29.3752C70.1411 33.1357 69.2338 35.765 66.5527 38.4905C66.4369 38.6083 66.3211 38.7262 66.2017 38.8476C64.2881 40.6778 61.8891 41.8414 59.4845 42.8885C59.3818 42.9338 59.2792 42.9791 59.1734 43.0258C54.9704 44.8475 50.3172 45.2732 45.7905 45.2823C45.3325 45.2838 44.8747 45.2887 44.4168 45.2936C42.4331 45.3048 40.5441 45.1327 38.5941 44.7733C38.4181 44.7421 38.2421 44.7109 38.0608 44.6787C34.7803 44.0671 31.8385 42.9624 28.8658 41.4623C28.3967 41.2532 28.0686 41.1153 27.5672 41.2619C27.2535 41.4525 27.2535 41.4525 27.1991 41.8104C27.178 42.0754 27.1583 42.3405 27.1402 42.6056C26.6856 43.7867 25.2779 44.448 24.2319 45.0482C23.9523 45.2123 23.673 45.3767 23.3938 45.5415C23.2554 45.6232 23.1169 45.7049 22.9743 45.7891C22.3832 46.1437 21.8048 46.5164 21.2279 46.8938C19.0211 48.3351 16.7836 49.7277 14.5479 51.1238C13.5762 51.7307 12.6056 52.3392 11.6368 52.9508C11.5191 53.0249 11.4014 53.099 11.2801 53.1753C10.6034 53.6022 9.9309 54.0348 9.26111 54.4724C9.10756 54.572 8.95401 54.6717 8.79581 54.7743C8.49958 54.9666 8.20415 55.1601 7.90968 55.3551C6.40467 56.329 5.03643 56.8048 3.23352 56.4966C2.10807 56.163 1.18459 55.2707 0.500732 54.3448C-0.119266 53.184 -0.113134 51.6794 0.244879 50.4371C0.986714 48.7899 2.43565 48.0211 3.99691 47.2471C4.51001 46.9927 5.02006 46.7322 5.53068 46.4729C5.63274 46.4213 5.73479 46.3697 5.83994 46.3165C6.69615 45.8825 7.53844 45.4259 8.37759 44.9598C9.87342 44.133 11.3914 43.3523 12.913 42.5743C14.5827 41.7206 16.2434 40.8559 17.8855 39.9496C19.0047 39.3332 20.134 38.7371 21.2672 38.1469C21.4373 38.058 21.6074 37.9692 21.7827 37.8777C21.9404 37.7958 22.0981 37.714 22.2606 37.6297C22.4006 37.5569 22.5407 37.4842 22.685 37.4093C23.0441 37.2339 23.0441 37.2339 23.5153 37.0768C23.3902 36.8858 23.3902 36.8858 23.2625 36.6909C22.2541 35.1102 21.4688 33.562 21.4431 31.6457C21.4406 31.4736 21.438 31.3015 21.4354 31.1242C21.4284 30.3355 21.422 29.5469 21.4184 28.7582C21.4158 28.3443 21.4115 27.9305 21.4055 27.5167C21.3479 23.5283 21.9528 21.017 24.7719 18.0713C24.8585 17.9747 24.9452 17.8781 25.0345 17.7786C25.8698 16.8792 26.8891 16.2212 27.9133 15.5581C28.0605 15.4624 28.2077 15.3666 28.3593 15.2679C33.3115 12.2189 39.5034 11.0637 45.2399 11.0987ZM38.28 12.7309C38.1331 12.7603 37.9863 12.7897 37.835 12.82C32.5239 13.9047 27.0122 16.1495 23.7705 20.712C22.4549 22.8235 22.0367 24.9741 22.5256 27.4158C22.6689 27.8814 22.8395 28.3102 23.0441 28.7521C23.1052 28.8928 23.1664 29.0335 23.2294 29.1785C25.0747 32.9838 29.3842 35.244 33.2107 36.6003C35.2812 37.296 37.3787 37.8364 39.5365 38.1763C39.6512 38.1947 39.7659 38.2131 39.8841 38.2321C44.8386 38.9797 50.2235 38.6716 55.0865 37.5481C55.3189 37.4952 55.3189 37.4952 55.5559 37.4413C55.9813 37.3341 56.3962 37.2099 56.8143 37.0768C56.9243 37.0423 57.0343 37.0078 57.1476 36.9722C61.442 35.6055 65.7319 33.2836 68.0369 29.2411C69.0682 27.1707 69.3786 25.1733 68.7474 22.9214C68.3003 21.5981 67.6009 20.5498 66.7098 19.4849C66.5891 19.3326 66.4684 19.1804 66.3441 19.0235C64.2464 16.5167 60.909 15.0658 57.9138 13.9874C57.7961 13.9437 57.6785 13.9 57.5573 13.855C54.4692 12.7207 50.9917 12.0966 47.7011 12.0652C47.5679 12.0636 47.4347 12.0621 47.2975 12.0605C44.2326 12.0326 41.2926 12.1046 38.28 12.7309Z" fill="#64748B"/>
<path d="M68.7515 35.5059C70.0414 37.1025 70.0453 39.2055 69.851 41.1604C69.7191 41.8371 69.5157 42.4226 69.2227 43.0453C69.1598 43.1858 69.0968 43.3263 69.0319 43.4711C67.0109 47.5601 62.575 50.0509 58.4155 51.4786C57.6773 51.7221 56.9334 51.9427 56.1859 52.1554C56.0803 52.1861 55.9747 52.2169 55.866 52.2486C54.0133 52.7814 52.129 53.0391 50.2172 53.2549C50.0216 53.2779 50.0216 53.2779 49.8222 53.3015C48.4868 53.4427 47.1505 53.4435 45.8094 53.4414C45.6868 53.4412 45.5643 53.4411 45.438 53.4409C40.8074 53.4289 36.182 52.6587 31.9231 50.7786C31.3762 50.5403 31.0336 50.4276 30.4262 50.4276C30.5429 50.6025 30.5429 50.6025 30.6618 50.781C30.8975 51.2129 30.8975 51.2129 30.8975 51.8412C30.6709 52.0557 30.6709 52.0557 30.3495 52.2486C30.2303 52.3219 30.111 52.3952 29.9882 52.4707C29.8574 52.5481 29.7266 52.6254 29.5918 52.7051C29.3159 52.8736 29.04 53.0421 28.7641 53.2107C28.6223 53.2963 28.4804 53.382 28.3342 53.4702C27.691 53.861 27.0562 54.2649 26.4209 54.6685C26.1713 54.8263 25.9215 54.9839 25.6718 55.1416C25.1845 55.4493 24.6973 55.7573 24.2103 56.0656C22.6801 57.0336 21.1459 57.9951 19.6094 58.9533C18.6696 59.5401 17.7331 60.1317 16.7995 60.7285C16.2343 61.0896 15.6681 61.4491 15.1016 61.8081C14.8569 61.9634 14.6125 62.1193 14.3687 62.2758C14.0581 62.4746 13.746 62.6705 13.4331 62.8656C13.2657 62.9715 13.0982 63.0774 12.9257 63.1865C11.5176 63.8821 10.1566 64.0111 8.6032 63.9946C8.43201 63.9964 8.26082 63.9982 8.08444 64.0001C6.17145 63.9933 4.15925 63.6159 2.6836 62.3159C2.39941 61.7604 2.28248 61.2444 2.46762 60.6372C3.04126 59.9878 3.63771 59.5885 4.38867 59.1837C4.49818 59.1234 4.60768 59.0631 4.7205 59.001C5.84783 58.3847 6.98967 57.7961 8.1345 57.2131C8.73815 56.9057 9.34092 56.5966 9.94383 56.2877C10.0606 56.2279 10.1774 56.1681 10.2978 56.1065C11.3858 55.5493 12.468 54.9813 13.5485 54.4096C14.3818 53.9686 15.2181 53.5334 16.0543 53.0978C17.1744 52.5139 18.2939 51.9289 19.4116 51.3406C19.5313 51.2776 19.651 51.2147 19.7743 51.1498C20.386 50.8276 20.9969 50.5039 21.607 50.1785C21.7297 50.1131 21.8524 50.0478 21.9788 49.9804C22.2115 49.8564 22.444 49.7321 22.6763 49.6075C23.6941 49.0652 24.434 49.0005 25.5601 49.0477C26.2854 49.0626 26.6944 48.9589 27.2848 48.5427C27.3885 48.5427 27.4922 48.5427 27.599 48.5427C27.599 48.4391 27.599 48.3354 27.599 48.2286C27.5125 48.1899 27.4261 48.1513 27.337 48.1114C26.0195 47.403 24.9861 46.3038 24.1434 45.0872C24.7786 44.5579 25.4509 44.0983 26.1375 43.6392C26.5908 43.2888 26.9276 42.9922 27.0234 42.4115C27.0255 42.3064 27.0275 42.2013 27.0296 42.093C27.1278 41.4746 27.1278 41.4746 27.491 41.1506C28.0466 40.9568 28.33 41.0648 28.8557 41.3025C28.9666 41.3595 29.0775 41.4165 29.1918 41.4752C34.1252 43.9527 39.3146 45.1547 44.824 45.1195C45.2895 45.1166 45.7549 45.1163 46.2205 45.1163C48.505 45.1124 50.7124 45.0411 52.9561 44.5669C53.1269 44.5314 53.2978 44.4959 53.4738 44.4594C53.9595 44.3571 54.4446 44.2519 54.9293 44.1448C55.0463 44.119 55.1632 44.0933 55.2837 44.0668C60.0274 42.9934 65.4042 40.5534 68.2079 36.4047C68.3947 36.1079 68.5763 35.8095 68.7515 35.5059Z" fill="#373D4D"/>
<path d="M43.8895 18.8189C44.0791 18.8165 44.0791 18.8165 44.2725 18.8142C50.6487 18.7518 57.1865 19.5917 62.0367 24.1575C62.9166 25.0712 63.8191 26.1341 63.9314 27.4363C62.7069 30.585 59.9424 32.4572 56.9693 33.7725C50.134 36.6452 41.7201 36.6937 34.853 33.9535C31.9429 32.7416 29.3481 30.9321 27.7376 28.172C27.4947 27.5367 27.5246 27.0504 27.7787 26.4233C29.921 22.7458 33.7964 20.8101 37.7864 19.7276C39.8047 19.212 41.8026 18.8401 43.8895 18.8189Z" fill="#030712"/>
<path d="M61.7824 18.6858C61.9053 18.7935 62.0282 18.9013 62.1548 19.0122C62.2761 19.1167 62.3974 19.2212 62.5223 19.3288C63.9635 20.6591 65.1666 22.5988 65.3447 24.5766C65.4312 27.1423 64.5488 29.0433 62.9107 30.9692C59.3655 34.7342 53.5102 36.6118 48.4499 36.7725C47.6133 36.7915 46.7767 36.7972 45.9399 36.799C45.5002 36.8005 45.0606 36.8054 44.6209 36.8103C42.7258 36.8215 40.9242 36.6596 39.0654 36.29C38.9121 36.2596 38.7588 36.2292 38.6009 36.1979C38.2552 36.1227 37.9146 36.039 37.5732 35.9464C37.453 35.9142 37.3327 35.882 37.2088 35.8488C33.4194 34.7815 29.2469 32.7374 27.2164 29.2218C26.2343 27.4215 25.8514 25.5923 26.2887 23.5593C26.4353 23.1227 26.6092 22.7232 26.8139 22.3107C26.8866 22.1595 26.9593 22.0082 27.0341 21.8524C28.9665 18.2003 33.0366 16.162 36.84 14.9885C44.7454 12.7479 55.2078 13.1737 61.7824 18.6858ZM39.3796 19.3264C39.2469 19.3584 39.1143 19.3905 38.9777 19.4235C34.5459 20.5282 30.2319 22.3674 27.7661 26.424C27.5156 27.0873 27.5113 27.5913 27.779 28.2518C29.9519 31.9819 33.8743 33.8871 37.9119 34.9831C44.8598 36.7484 53.0987 36.2547 59.3598 32.5396C61.28 31.3387 63.0284 29.7999 63.8826 27.6511C63.9804 26.5562 63.2626 25.6647 62.626 24.8239C60.8417 22.6951 58.4386 21.3953 55.872 20.4259C55.7614 20.3838 55.6508 20.3417 55.5369 20.2983C50.6841 18.4998 44.4321 18.0897 39.3796 19.3264Z" fill="#64748B"/>
<path d="M68.9085 29.3809C68.9603 29.3809 69.0122 29.3809 69.0656 29.3809C69.1306 31.1087 69.1826 32.6479 68.4373 34.2501C68.3707 34.3962 68.3041 34.5424 68.2354 34.693C67.6796 35.8048 66.9429 36.6616 66.0812 37.5485C65.9391 37.708 65.9391 37.708 65.7941 37.8707C64.2161 39.5824 62.0477 40.6786 59.9555 41.6324C59.7777 41.7144 59.5999 41.7964 59.4168 41.8809C56.5027 43.1331 53.3595 43.805 50.2171 44.1455C50.0375 44.1657 50.0375 44.1657 49.8543 44.1864C48.9542 44.2831 48.0642 44.3315 47.1591 44.34C47.0224 44.3416 46.8858 44.3431 46.745 44.3447C43.7105 44.3718 40.7836 44.3417 37.8085 43.6743C37.6541 43.6406 37.4998 43.607 37.3408 43.5723C34.4741 42.931 31.7585 41.9221 29.1696 40.5329C29.1696 40.4292 29.1696 40.3256 29.1696 40.2187C29.3186 40.154 29.4676 40.0892 29.6212 40.0224C30.1131 39.7469 30.2479 39.6362 30.4261 39.1193C31.0778 39.2226 31.6273 39.4388 32.2325 39.6985C34.8824 40.7869 37.6501 41.3835 40.4787 41.7895C40.6696 41.8174 40.8606 41.8454 41.0573 41.8742C41.814 41.967 42.5653 41.9691 43.3268 41.9674C43.5517 41.9676 43.5517 41.9676 43.781 41.9678C44.0971 41.968 44.4131 41.9677 44.7291 41.967C45.2057 41.9662 45.6824 41.967 46.159 41.968C48.4295 41.9691 50.6355 41.9176 52.8676 41.4557C53.0326 41.422 53.1975 41.3883 53.3674 41.3536C54.6072 41.0913 55.8306 40.7805 57.0497 40.4347C57.2128 40.3893 57.376 40.344 57.5441 40.2972C57.6936 40.2531 57.843 40.209 57.997 40.1635C58.1291 40.1249 58.2612 40.0863 58.3973 40.0466C58.4969 39.9997 58.5964 39.9529 58.6989 39.9046C58.7507 39.7491 58.8026 39.5936 58.856 39.4334C58.764 39.4673 58.672 39.5013 58.5772 39.5363C52.0703 41.904 44.4473 42.5295 37.6514 41.0041C37.5012 40.9704 37.351 40.9368 37.1963 40.9021C34.9555 40.3794 32.6469 39.6799 30.5832 38.648C30.4832 38.4026 30.393 38.1531 30.3083 37.902C30.0017 37.1081 29.7364 36.7408 29.0125 36.292C28.3311 36.0876 28.0531 36.1335 27.4418 36.449C26.6964 36.404 26.2736 36.0298 25.7533 35.5361C25.6714 35.4592 25.5895 35.3824 25.5051 35.3032C23.9271 33.783 22.5429 31.9451 22.4155 29.695C22.784 30.1485 23.1394 30.6087 23.4856 31.0792C23.6516 31.2991 23.8185 31.5183 23.9862 31.7369C24.1016 31.8879 24.1016 31.8879 24.2194 32.0419C27.7921 36.4193 34.2358 38.0508 39.5363 38.9622C39.7048 38.9922 39.8733 39.0223 40.0469 39.0532C41.7716 39.3246 43.4866 39.3241 45.2289 39.3173C45.7396 39.3156 46.2502 39.3173 46.7609 39.3193C48.5189 39.3204 50.2089 39.2609 51.9449 38.9622C52.1757 38.9284 52.4066 38.8948 52.6376 38.8616C58.0956 37.9509 63.8253 35.9451 67.4949 31.5799C67.9033 31.0054 68.2746 30.4096 68.6392 29.8067C68.728 29.6662 68.8169 29.5256 68.9085 29.3809Z" fill="#030712"/>
<path d="M65.139 39.7466C65.2974 41.5286 64.3141 43.1619 63.2707 44.5366C60.0934 48.3152 54.4446 50.1046 49.6899 50.547C48.4891 50.6257 47.2873 50.6314 46.0843 50.6336C45.8962 50.6344 45.8962 50.6344 45.7042 50.6353C43.3901 50.6408 41.1031 50.4863 38.8493 49.9267C38.6437 49.8762 38.6437 49.8762 38.4341 49.8247C35.4441 49.0614 32.638 47.8851 30.2693 45.8723C30.1771 45.8045 30.085 45.7367 29.9901 45.6668C28.7232 44.6987 27.7316 43.1503 27.2849 41.6314C27.5598 41.3075 27.5598 41.3075 27.9132 41.0031C28.3847 41.0667 28.7717 41.2591 29.1919 41.475C34.1253 43.9525 39.3147 45.1545 44.8241 45.1193C45.2896 45.1164 45.755 45.1161 46.2205 45.1161C48.5051 45.1122 50.7125 45.0409 52.9562 44.5667C53.127 44.5312 53.2979 44.4958 53.4739 44.4592C53.9596 44.3569 54.4447 44.2517 54.9294 44.1446C55.1048 44.106 55.1048 44.106 55.2838 44.0666C58.6139 43.3131 61.9794 41.8884 64.7623 39.8975C64.9819 39.7466 64.9819 39.7466 65.139 39.7466Z" fill="#030712"/>
<path d="M59.7984 31.8938C59.5751 32.5635 59.0969 32.7221 58.5025 33.0325C58.3253 33.1254 58.3253 33.1254 58.1445 33.2201C51.7408 36.454 43.514 36.7376 36.7301 34.6425C35.0996 34.1055 33.4516 33.4416 31.9968 32.5221C32.1884 31.9472 32.4109 31.8739 32.9334 31.6105C33.0967 31.532 33.0967 31.532 33.2632 31.452C33.4322 31.3696 33.4322 31.3696 33.6047 31.2856C41.5114 27.5048 52.156 27.3063 59.7984 31.8938Z" fill="#030712"/>
<path d="M24.3002 38.4904C25.3218 39.095 25.7635 40.0772 26.1851 41.1606C26.293 41.779 26.293 41.779 26.1851 42.2601C25.5077 43.0695 24.622 43.5895 23.7406 44.1547C23.5807 44.2582 23.4207 44.3618 23.2559 44.4684C22.1069 45.2075 20.9428 45.9179 19.7675 46.6142C18.7082 47.2433 17.6744 47.9062 16.643 48.5797C15.5746 49.2772 14.4937 49.9549 13.4133 50.6337C13.1135 50.822 12.8139 51.0106 12.5143 51.1992C12.0125 51.5151 11.5103 51.8305 11.0081 52.1457C10.8518 52.2442 10.6954 52.3426 10.5344 52.4441C9.6393 53.0047 8.73586 53.5361 7.80777 54.0404C7.75593 53.4702 7.7041 52.9 7.65069 52.3126C9.85726 50.9656 12.068 49.6265 14.2925 48.3093C15.1223 47.8179 15.9515 47.3256 16.7805 46.833C16.9751 46.7173 17.1698 46.6018 17.3645 46.4862C17.9759 46.1231 18.5859 45.758 19.1954 45.3917C19.4248 45.2555 19.4248 45.2555 19.6588 45.1167C19.7958 45.0339 19.9329 44.9511 20.074 44.8658C20.1934 44.7944 20.3127 44.7229 20.4357 44.6492C20.5188 44.5865 20.6019 44.5237 20.6876 44.4591C20.6876 44.3554 20.6876 44.2517 20.6876 44.1449C20.0946 44.3641 19.5781 44.6377 19.0402 44.9689C18.8701 45.0731 18.7 45.1772 18.5247 45.2845C18.3891 45.3681 18.3891 45.3681 18.2507 45.4534C17.7608 45.7551 17.2697 46.0547 16.7786 46.3543C16.6755 46.4173 16.5723 46.4803 16.466 46.5452C15.2812 47.2673 14.0872 47.9739 12.8929 48.6803C11.1367 49.7199 9.38677 50.7684 7.65069 51.8414C7.24958 51.479 7.0219 51.1084 6.76717 50.6339C6.25647 49.7575 5.60198 49.1782 4.82342 48.5429C4.71975 48.4392 4.61609 48.3356 4.50928 48.2288C6.5349 47.1092 8.57496 46.0224 10.6325 44.9626C11.7151 44.4035 12.7886 43.8311 13.855 43.2418C15.617 42.2691 17.408 41.3539 19.2003 40.4389C19.3131 40.3812 19.4259 40.3235 19.5421 40.2641C19.7646 40.1505 19.9872 40.0372 20.21 39.9243C20.7278 39.6606 21.2385 39.3906 21.7404 39.0976C21.9176 38.9954 22.0947 38.8932 22.2773 38.7879C22.5064 38.6506 22.5064 38.6506 22.7402 38.5105C23.328 38.2843 23.6935 38.3454 24.3002 38.4904Z" fill="#CCFE41"/>
<path d="M53.9871 15.8724C54.0966 15.9037 54.2061 15.935 54.3189 15.9672C56.8068 16.6859 59.2515 17.7626 61.2123 19.485C61.3711 19.6016 61.5298 19.7183 61.6933 19.8384C63.0013 20.9424 63.9967 22.688 64.3537 24.3542C64.3761 24.7772 64.3686 25.1867 64.3537 25.6108C63.9889 25.2645 63.6976 24.8975 63.4015 24.4916C60.723 21.0326 56.2481 19.4027 52.1022 18.5426C51.8535 18.4838 51.6048 18.4249 51.3561 18.3659C50.1625 18.1056 48.9639 18.0439 47.7453 18.0284C47.5308 18.0255 47.5308 18.0255 47.3119 18.0224C44.0684 17.9863 40.9663 18.0214 37.8088 18.8567C37.661 18.8954 37.5132 18.9341 37.3609 18.974C33.4187 20.0518 29.5352 22.1004 27.285 25.6108C27.2332 25.6108 27.1813 25.6108 27.1279 25.6108C26.9888 23.8016 27.7113 22.2651 28.8557 20.8986C31.9509 17.3613 36.5703 15.7749 41.1072 15.087C41.3089 15.0548 41.5106 15.0226 41.7183 14.9895C45.7744 14.3947 50.061 14.6972 53.9871 15.8724Z" fill="#030712"/>
<path d="M62.4689 29.5373C62.3985 30.2253 61.9837 30.5259 61.4873 30.9706C61.3374 31.1071 61.1876 31.2435 61.0332 31.3841C60.3034 31.9564 60.3034 31.9564 59.7987 32.0505C59.4001 31.89 59.0676 31.7239 58.6992 31.5105C56.3505 30.251 53.8093 29.566 51.1917 29.1249C50.8908 29.0738 50.5908 29.0168 50.291 28.9587C47.0847 28.4156 43.6596 28.6054 40.479 29.2232C40.3569 29.2459 40.2348 29.2686 40.109 29.292C37.3714 29.8096 34.9274 30.7553 32.4684 32.0505C32.2593 32.1558 32.0501 32.2609 31.8401 32.3646C30.8151 31.6624 29.9309 30.9958 29.1699 30.0085C38.3325 23.7093 52.9832 24.8064 62.4689 29.5373Z" fill="#373D4D"/>
<path d="M3.81845 49.0164C5.1865 49.5779 5.9456 50.753 6.54204 52.0456C6.88041 52.9084 7.06059 53.7453 6.67886 54.6293C6.2669 55.1407 5.66673 55.5708 4.99894 55.6429C3.79979 55.6679 2.91754 55.4613 2.02563 54.6293C1.1983 53.7226 0.959987 52.8487 0.999765 51.6388C1.11731 50.7118 1.5335 50.0551 2.18271 49.3968C2.72773 48.9771 3.14382 48.8829 3.81845 49.0164Z" fill="#030712"/>
<path d="M29.0125 37.2339C29.2475 37.4621 29.2475 37.4621 29.3954 37.7444C29.447 37.8359 29.4986 37.9274 29.5518 38.0217C29.681 38.4744 29.6655 38.6789 29.4837 39.1187C29.1245 39.4277 28.7277 39.6531 28.3155 39.8845C28.2065 39.9497 28.0974 40.0149 27.9851 40.082C27.7059 40.2442 27.4173 40.3897 27.1277 40.5324C26.6921 40.3146 26.6219 40.0439 26.411 39.6096C26.3428 39.4707 26.2746 39.3318 26.2043 39.1887C26.0282 38.8046 26.0282 38.8046 25.8711 38.3334C26.2162 38.1173 26.563 37.9054 26.9117 37.6953C27.0087 37.634 27.1057 37.5728 27.2056 37.5097C27.8548 37.1236 28.2601 36.9685 29.0125 37.2339Z" fill="#030712"/>
<path d="M22.4155 31.8936C22.814 32.4111 23.1725 32.9504 23.5347 33.4937C24.4029 34.7682 25.4507 35.8044 26.6564 36.7628C26.1873 37.1667 25.8493 37.425 25.2428 37.5481C23.8027 36.099 22.4155 34.0055 22.4155 31.8936Z" fill="#030712"/>
<path d="M66.5524 34.7202C66.5524 35.3485 66.5524 35.3485 66.2297 35.6804C66.0104 35.8514 66.0104 35.8514 65.7867 36.0259C65.6296 36.1486 65.4725 36.2713 65.3106 36.3977C63.3883 37.8394 63.3883 37.8394 62.4686 38.1758C62.4168 38.0203 62.3649 37.8648 62.3115 37.7046C62.4634 37.6076 62.6152 37.5106 62.7717 37.4107C63.9162 36.6694 64.9647 35.9252 65.9469 34.9742C66.2383 34.7202 66.2383 34.7202 66.5524 34.7202Z" fill="#64748B"/>
<path d="M24.7717 41.7886C24.5599 42.4239 24.2639 42.5168 23.6918 42.8488C23.5238 42.9484 23.3557 43.048 23.1826 43.1507C22.7298 43.3593 22.7298 43.3593 22.2585 43.2022C22.9709 42.4251 23.6662 41.7886 24.7717 41.7886Z" fill="#373D4D"/>
<path d="M58.856 39.4331C58.8042 39.6404 58.7524 39.8478 58.699 40.0614C57.8437 40.2946 57.8437 40.2946 56.9712 40.5326C57.023 40.3253 57.0749 40.1179 57.1283 39.9043C57.4418 39.7399 57.4418 39.7399 57.8253 39.6294C58.0145 39.5723 58.0145 39.5723 58.2075 39.5141C58.5419 39.4331 58.5419 39.4331 58.856 39.4331Z" fill="#64748B"/>
<path d="M22.8869 36.1343C23.2836 36.5054 23.4976 36.7099 23.6723 37.2338C23.3094 37.3374 22.9466 37.4411 22.5728 37.5479C22.6764 37.0814 22.7801 36.6149 22.8869 36.1343Z" fill="#373D4D"/>
</svg>
