<svg width="72" height="66" viewBox="0 0 72 66" fill="none" xmlns="http://www.w3.org/2000/svg">
<path d="M63.3357 65.0785L11.1876 34.6668L19.8154 29.6617L71.9999 60.0762L63.3357 65.0785Z" fill="#F3F4FE"/>
<path d="M70.4469 51.6356L70.2016 51.7725C70.1429 51.8051 70.0841 51.8376 70.0237 51.8712C68.5532 52.6896 68.5536 52.6874 67.1009 53.531L67.1018 53.532C66.5445 53.8624 65.9841 54.1866 65.4254 54.5086C65.3296 54.5638 65.2337 54.6189 65.135 54.6757C64.7276 54.9105 64.3197 55.145 63.9122 55.3795C63.6473 55.5319 63.3822 55.6845 63.1174 55.837C62.9677 55.9232 62.8183 56.0101 62.6687 56.0961L62.6678 56.0951C62.5776 56.147 62.488 56.1999 62.395 56.2535H62.3941C62.2761 56.3213 62.2742 56.3216 62.1565 56.3893C62.0084 56.4767 61.8621 56.5722 61.7127 56.6718L61.5817 56.7588L61.4243 56.751C60.5611 56.7087 60.0356 56.1174 59.6316 55.7481C59.5854 55.7059 59.5394 55.6635 59.4918 55.62L59.4888 55.6181C58.2978 54.5128 57.4112 53.2331 56.6384 51.8536L56.5289 51.6591L56.5279 51.6581C54.4976 48.0357 53.3263 43.9781 52.1613 40.0968C51.9983 39.5552 51.8299 39.0151 51.6578 38.4751V38.4741C51.4722 37.891 51.2995 37.3058 51.1407 36.7136V36.7126C49.9037 32.0584 49.2978 29.7848 48.3421 27.7008C47.3897 25.6241 46.0866 23.7281 43.4212 19.86C43.3793 19.8185 43.3372 19.7766 43.2941 19.7339C42.1497 18.5994 41.0446 18.1131 39.4211 18.1131H37.7544L39.1679 17.2295C39.6169 16.9488 40.0703 16.7195 40.3077 16.5843C40.3978 16.5327 40.4877 16.481 40.5805 16.4279L40.5824 16.4269C40.7292 16.3436 40.7298 16.3438 40.8796 16.2588C40.9818 16.2003 41.0843 16.1423 41.1865 16.0838L41.8288 15.7162C42.315 15.4388 42.7997 15.1586 43.2863 14.8775L43.2872 14.8765C43.4758 14.7679 43.6647 14.6597 43.8532 14.551C44.1983 14.352 44.5433 14.1521 44.8875 13.9518L45.3489 13.684C45.5401 13.5729 45.7309 13.4611 45.9217 13.3496L45.9236 13.3487C46.9469 12.7553 47.901 12.353 48.8914 12.2988C49.7707 12.2508 50.6317 12.4788 51.5523 13.0056L51.9511 13.2499L51.9589 13.2548L51.9658 13.2607C52.4119 13.5769 52.8334 13.9129 53.2414 14.2734H53.2424L53.4047 14.4171L53.4105 14.422L53.4164 14.4279C56.2071 17.0598 57.6399 21.1217 58.8231 24.4876C58.8596 24.5907 58.896 24.6942 58.9336 24.8004L58.9346 24.8024C60.0467 27.9713 60.9569 31.2142 61.9033 34.4096C62.8668 37.662 63.8516 40.8873 65.222 43.9551V43.9561C65.2603 44.042 65.2989 44.1277 65.3384 44.2161H65.3374C66.374 46.5169 67.7083 48.8564 69.6561 50.3521L70.054 50.6395L70.0667 50.6483L70.0794 50.6581L70.4469 50.9455V51.6356Z" fill="#D5FF4D" stroke="#373D4D" stroke-width="0.955224" stroke-miterlimit="16"/>
<path d="M15.3941 0.542041C15.8185 0.603793 16.1541 0.80831 16.4108 0.951626L16.4098 0.952603L16.7079 1.11683L16.7089 1.11781C16.8144 1.17709 16.9202 1.23639 17.0256 1.29572H17.0247C17.1334 1.35653 17.2424 1.41676 17.3512 1.47754H17.3521C17.9729 1.82528 18.591 2.17996 19.2046 2.545L20.0775 3.05527C20.3701 3.22386 20.6641 3.39147 20.9592 3.55968C21.781 4.02821 22.6022 4.49869 23.4216 4.97221C24.4065 5.54127 25.5677 6.10047 26.67 6.70341L27.406 7.10616L26.6846 7.53432C26.1668 7.84187 25.947 7.95952 25.6045 8.13941L25.6054 8.14038L25.1792 8.37108C25.1016 8.41325 25.0237 8.45569 24.9436 8.49914L24.9427 8.49816C24.7104 8.62663 24.4804 8.75941 24.2496 8.89308L23.5507 9.30169C23.4565 9.35682 23.3623 9.41205 23.2652 9.46885C23.1322 9.54675 22.9983 9.6235 22.8654 9.7015C22.9111 10.0094 22.983 10.31 23.0717 10.6233L23.1968 11.0446V11.0466C23.2269 11.1462 23.2576 11.246 23.2887 11.3486L23.5849 12.3174V12.3183C23.636 12.4858 23.6872 12.6533 23.7383 12.8208C24.278 14.586 24.8323 16.3403 25.4402 18.076L25.5546 18.4015H25.5536C26.4235 20.8615 27.4058 23.3263 28.8557 25.4397L29.1519 25.8581L29.1529 25.8591C29.1899 25.91 29.2272 25.9612 29.2653 26.0135L29.5116 26.343C30.1023 27.1199 30.8051 27.9397 31.5214 28.4173L31.8558 28.6402L31.6935 29.0077C31.6067 29.205 31.5421 29.3434 31.4775 29.473L31.2634 29.8865C31.2202 29.9696 31.1768 30.0532 31.1324 30.1387L31.1304 30.1426C31.0843 30.2292 31.0372 30.3155 30.9897 30.4046C30.9421 30.4946 30.895 30.5856 30.846 30.6783L30.845 30.6803C30.3748 31.5595 29.8238 32.5403 29.1294 33.39C28.4332 34.2419 27.5716 34.9891 26.4676 35.3675L26.451 35.3724L26.4334 35.3773C25.017 35.749 23.755 35.2821 22.6406 34.6363L22.6308 34.6305L22.622 34.6246C19.5146 32.6205 17.5656 29.2418 16.1615 25.6313C14.8256 22.196 13.9445 18.4448 13.0608 15.3849C12.9926 15.41 12.9273 15.4382 12.8604 15.4758L12.8594 15.4767C12.7984 15.5107 12.7375 15.5454 12.6747 15.5804L12.6737 15.5794C12.581 15.6323 12.5797 15.6341 12.4821 15.6899L12.4801 15.6908C12.4124 15.7289 12.3446 15.7679 12.2748 15.8072L12.2739 15.8062C11.4628 16.266 10.3897 16.9084 9.5886 17.3956L8.4615 18.0809L8.88771 16.8326C9.06621 16.3097 9.1161 16.2371 9.20149 16.0105H9.20247C9.24555 15.8943 9.24493 15.893 9.28947 15.7729L9.29143 15.769C9.32442 15.6826 9.35715 15.5961 9.39113 15.5071C9.42485 15.4168 9.45904 15.3263 9.49378 15.2333C9.60774 14.9287 9.72227 14.6244 9.83689 14.3213C9.91698 14.1077 9.99745 13.8937 10.0774 13.68C10.2025 13.3455 10.3281 13.0108 10.4537 12.6761C10.86 11.5937 11.2596 10.5085 11.659 9.42193C11.8507 8.90049 12.0428 8.37899 12.2348 7.85788C12.272 7.7567 12.3098 7.65518 12.3482 7.55093C12.7922 6.34519 13.2379 5.13989 13.6835 3.93505C13.7117 3.85866 13.7394 3.78207 13.7685 3.70337C13.8234 3.55497 13.8788 3.40601 13.9337 3.25762C14.0729 2.8815 14.211 2.50516 14.3482 2.12857L14.3492 2.12759C14.3774 2.05024 14.4051 1.97268 14.4342 1.89299L14.5955 1.44919L14.5965 1.44821C14.6829 1.21191 14.7376 1.05865 14.7842 0.959446C14.8119 0.900351 14.8445 0.843568 14.8878 0.787401C14.9265 0.737148 14.9677 0.696697 14.9875 0.67694L15.1566 0.507827L15.3941 0.542041Z" fill="#D5FF4D" stroke="#373D4D" stroke-width="0.955224" stroke-miterlimit="16"/>
<path d="M38.1928 18.1048C39.4951 17.6776 40.7463 18.0682 41.8019 18.6386L42.2428 18.8918L42.275 18.9123L42.3034 18.9367C42.3639 18.9884 42.4077 19.0216 42.5429 19.1645L42.7501 19.3834L42.6426 19.664C42.5437 19.9216 42.4081 20.2273 42.2809 20.4744L42.0609 20.9211C42.0002 21.0446 41.9982 21.0455 41.9378 21.1684L41.9387 21.1694C41.8346 21.3868 41.7339 21.6058 41.6347 21.8273L41.3385 22.4988C40.3781 24.6729 39.8828 25.7952 39.4333 26.5878C38.9714 27.4026 38.5536 27.8762 37.7842 28.7521L37.7833 28.7511C37.7358 28.8074 37.6894 28.8652 37.6405 28.9232L37.6347 28.93L37.6288 28.9359C37.0668 29.5542 36.3609 30.0316 35.6532 30.4403C35.2983 30.6452 34.9355 30.8369 34.5858 31.0209C34.2334 31.2063 33.8955 31.3831 33.576 31.5645L31.8819 32.5351C31.7402 32.6167 31.74 32.6172 31.5955 32.7003L31.5945 32.6994C31.3026 32.8679 30.8752 33.1121 30.5212 33.3133C30.3439 33.414 30.1844 33.5043 30.0696 33.5694C30.0124 33.6018 29.9666 33.6285 29.9347 33.6466C29.9187 33.6557 29.9059 33.6633 29.8975 33.6681L29.8858 33.674L29.8848 33.6749L29.8819 33.6769H29.8809L29.8799 33.6779C29.8789 33.6784 29.8769 33.6788 29.875 33.6798C29.8713 33.6819 29.8661 33.6849 29.8594 33.6886C29.8456 33.6962 29.8254 33.7075 29.8007 33.7209C29.7515 33.7476 29.6823 33.7842 29.6033 33.8255C29.4479 33.9066 29.2415 34.0111 29.0647 34.0855L27.5182 34.7356L28.4889 33.368C28.5415 33.294 28.6038 33.2223 28.6473 33.1715C28.6972 33.1131 28.7294 33.0745 28.7528 33.0415C30.2672 30.8643 31.2907 28.4003 32.4 25.9192L33.3609 23.7814C34.213 21.9041 34.7716 20.769 35.316 20.0218C36.0922 18.9563 36.8636 18.6481 38.1606 18.1166L38.1762 18.1097L38.1928 18.1048Z" fill="#A5C63B" stroke="#373D4D" stroke-width="0.955224" stroke-miterlimit="16"/>
<path d="M5.70729 30.6182C5.91016 30.6339 6.11298 30.6504 6.31577 30.6672C6.48519 30.6808 6.48519 30.6808 6.65804 30.6947C6.93824 30.7301 6.93824 30.7301 7.05014 30.842C7.05469 31.0285 7.05492 31.2151 7.05014 31.4015C6.49943 31.4202 6.09857 31.4293 5.59538 31.1777C5.63231 30.9931 5.66924 30.8084 5.70729 30.6182Z" fill="#373D4D"/>
<path d="M0.223809 29.723C0.408305 29.7273 0.59264 29.7403 0.776338 29.758C0.876593 29.7668 0.976848 29.7756 1.08014 29.7847C1.34285 29.8349 1.34285 29.8349 1.56666 30.0587C1.5247 30.2965 1.5247 30.2965 1.45476 30.5064C1.29628 30.5125 1.13772 30.5168 0.979165 30.5204C0.890882 30.5229 0.8026 30.5255 0.711643 30.5282C0.424418 30.5044 0.247129 30.4265 0 30.2826C0.0979164 29.8489 0.0979164 29.8489 0.223809 29.723Z" fill="#373D4D"/>
<path d="M2.12612 31.2899C2.12612 31.4745 2.12612 31.6592 2.12612 31.8494C1.40993 32.3039 1.40993 32.3039 1.07002 32.269C1.01232 32.2413 0.954623 32.2136 0.895173 32.1851C0.916156 31.9263 0.916156 31.9263 1.00708 31.6256C1.38 31.3252 1.65188 31.2492 2.12612 31.2899Z" fill="#373D4D"/>
<path d="M6.15501 28.9402C6.19194 29.088 6.22887 29.2357 6.26692 29.3879C6.14706 29.4852 6.02549 29.5803 5.90323 29.6746C5.83572 29.7278 5.76821 29.7811 5.69865 29.8359C5.48359 29.9474 5.48359 29.9474 5.23355 29.9085C5.16835 29.8844 5.10315 29.8603 5.03597 29.8355C4.99904 29.6878 4.96211 29.54 4.92406 29.3879C5.34896 29.0717 5.61627 28.8769 6.15501 28.9402Z" fill="#373D4D"/>
<path d="M2.46213 28.3802C2.72791 28.4081 2.72791 28.4081 3.02165 28.4921C3.17552 28.6879 3.17552 28.6879 3.24546 28.9397C3.2035 29.2474 3.2035 29.2474 3.13356 29.4992C2.98585 29.4992 2.83813 29.4992 2.68594 29.4992C2.48311 29.2544 2.48311 29.2544 2.35023 28.9397C2.3852 28.6249 2.3852 28.6249 2.46213 28.3802Z" fill="#373D4D"/>
<path d="M4.0286 31.6253C4.23842 31.6603 4.23842 31.6603 4.47622 31.7372C4.7325 32.1216 4.72 32.2951 4.70003 32.7444C4.51539 32.7444 4.33074 32.7444 4.14051 32.7444C3.95866 32.4366 3.95866 32.4366 3.80479 32.0729C3.89572 31.8072 3.89572 31.8072 4.0286 31.6253Z" fill="#373D4D"/>
<path d="M66.2753 28.9398C66.8638 29.0157 67.3245 29.4012 67.8118 29.7236C68.2717 30.0342 68.2717 30.0342 68.8002 30.0531C68.889 29.9953 68.9779 29.9375 69.0695 29.8779C69.1941 29.8047 69.3187 29.7316 69.4471 29.6562C69.6516 29.5324 69.8552 29.4077 70.0574 29.2801C70.3846 29.0841 70.5789 28.9775 70.9648 29.0119C71.0791 29.0528 71.0791 29.0528 71.1956 29.0945C71.1887 29.3446 71.1887 29.3446 71.0837 29.6541C70.8211 29.8392 70.5835 29.9848 70.3004 30.1296C70.1558 30.2071 70.0113 30.2846 69.8668 30.3622C69.7514 30.4239 69.636 30.4857 69.5171 30.5493C69.4802 30.5862 69.4432 30.6231 69.4052 30.6612C69.996 30.9935 70.5869 31.3259 71.1956 31.6683C71.1956 31.853 71.1956 32.0376 71.1956 32.2279C70.4275 32.1753 69.9649 31.8705 69.3414 31.4417C68.9292 31.1637 68.9292 31.1637 68.4514 31.1617C68.3599 31.2181 68.2685 31.2745 68.1742 31.3326C68.0496 31.4045 67.925 31.4763 67.7965 31.5503C67.5923 31.6724 67.3888 31.7955 67.1863 31.9206C66.7901 32.1557 66.5113 32.2823 66.048 32.2279C66.0111 32.0801 65.9742 31.9324 65.9361 31.7802C66.521 31.3824 67.1076 31.0036 67.7266 30.6612C67.2803 30.2744 66.8004 29.9981 66.2841 29.717C66.048 29.5421 66.048 29.5421 65.9519 29.3044C65.9467 29.2351 65.9415 29.1659 65.9361 29.0945C66.048 28.9826 66.048 28.9826 66.2753 28.9398Z" fill="#373D4D"/>
<path d="M36.6645 57.1626C37.3391 57.6663 37.3391 57.6663 37.5101 58.0082C37.5397 58.46 37.5518 58.7432 37.2564 59.1075C36.6477 59.7162 35.9874 59.9007 35.1424 59.9055C34.3118 59.8939 33.5733 59.776 32.9439 59.192C32.6755 58.8804 32.6449 58.5938 32.6615 58.1948C32.7181 57.8274 32.8929 57.6047 33.1837 57.3819C34.1034 56.7759 35.6678 56.6109 36.6645 57.1626ZM33.1976 58.0928C33.1412 58.3392 33.1412 58.3392 33.1976 58.6001C33.4992 59.0088 33.8953 59.2375 34.3814 59.3612C35.2353 59.4397 35.9961 59.3988 36.7491 58.9595C36.9833 58.696 37.0151 58.5278 37.0028 58.1773C36.714 57.7634 36.3017 57.5351 35.8189 57.4163C34.8791 57.3003 33.858 57.3111 33.1976 58.0928Z" fill="#26343C"/>
<path d="M35.9131 5.68338C35.9533 5.68317 35.9934 5.68296 36.0348 5.68275C36.1681 5.68216 36.3015 5.68204 36.4348 5.68197C36.5272 5.68178 36.6195 5.68157 36.7119 5.68135C36.9057 5.68098 37.0995 5.68087 37.2934 5.6809C37.5421 5.68091 37.7909 5.68007 38.0396 5.679C38.2305 5.67832 38.4213 5.67819 38.6121 5.67823C38.7038 5.67815 38.7955 5.67788 38.8873 5.6774C39.0154 5.6768 39.1435 5.67697 39.2717 5.67735C39.3447 5.67726 39.4177 5.67717 39.4929 5.67708C39.6644 5.69234 39.6644 5.69234 39.7879 5.81581C39.7548 6.03407 39.7548 6.03407 39.6644 6.12446C39.5363 6.13093 39.4079 6.13302 39.2797 6.13343C39.2395 6.13364 39.1994 6.13384 39.158 6.13406C39.0247 6.13465 38.8913 6.13477 38.758 6.13483C38.6656 6.13503 38.5733 6.13524 38.4809 6.13545C38.2871 6.13582 38.0933 6.13594 37.8994 6.1359C37.6507 6.1359 37.4019 6.13674 37.1531 6.1378C36.9623 6.13849 36.7715 6.13861 36.5807 6.13858C36.489 6.13865 36.3973 6.13893 36.3055 6.1394C36.1774 6.14001 36.0493 6.13983 35.9211 6.13946C35.8116 6.13959 35.8116 6.13959 35.6998 6.13972C35.5284 6.12446 35.5284 6.12446 35.4049 6.001C35.4579 5.65117 35.5816 5.68444 35.9131 5.68338Z" fill="#384850"/>
<path d="M33.845 7.537C33.9205 7.53714 33.996 7.53728 34.0738 7.53742C34.1362 7.53741 34.1362 7.53741 34.1998 7.53739C34.3377 7.53743 34.4757 7.53792 34.6136 7.5384C34.709 7.53851 34.8044 7.5386 34.8998 7.53866C35.1514 7.5389 35.403 7.53951 35.6546 7.54019C35.9111 7.54082 36.1677 7.5411 36.4242 7.54141C36.9279 7.54208 37.4316 7.54313 37.9353 7.54443C37.9379 7.64728 37.9378 7.75023 37.9353 7.85308C37.8736 7.91482 37.8736 7.91482 37.7068 7.92224C37.6323 7.9221 37.5579 7.92196 37.4812 7.92182C37.4403 7.92183 37.3993 7.92184 37.3571 7.92185C37.2212 7.92181 37.0852 7.92133 36.9493 7.92084C36.8552 7.92073 36.7612 7.92064 36.6672 7.92058C36.4193 7.92034 36.1713 7.91974 35.9234 7.91905C35.6706 7.91842 35.4178 7.91814 35.165 7.91783C34.6686 7.91717 34.1722 7.91611 33.6758 7.91482C33.6522 7.81258 33.6318 7.70958 33.6141 7.60616C33.6758 7.54443 33.6758 7.54443 33.845 7.537Z" fill="#25333C"/>
</svg>
