<svg width="72" height="66" viewBox="0 0 72 66" fill="none" xmlns="http://www.w3.org/2000/svg">
<path d="M63.273 65.0141L11.1765 34.6325L19.7957 29.6323L71.9286 60.0167L63.273 65.0141Z" fill="#373D4D"/>
<path d="M70.3772 51.5845L70.1321 51.7212C70.0526 51.7654 70.0356 51.7746 69.9543 51.8198C68.4853 52.6374 68.4857 52.6352 67.0344 53.478L67.0354 53.479C66.4786 53.8091 65.9187 54.133 65.3606 54.4546C65.2653 54.5095 65.1688 54.565 65.0706 54.6216C64.6635 54.8561 64.2561 55.0904 63.8489 55.3247C63.5843 55.477 63.3195 55.6293 63.0549 55.7817C62.9054 55.8679 62.7561 55.9546 62.6067 56.0405L62.6057 56.0396C62.52 56.0889 62.4216 56.1468 62.3333 56.1978H62.3323C62.2139 56.2659 62.2131 56.2655 62.095 56.3335C61.947 56.4208 61.8009 56.5162 61.6516 56.6157L61.5208 56.7026L61.3635 56.6948C60.5012 56.6526 59.9761 56.0618 59.5725 55.6929C59.5342 55.6578 59.4726 55.6013 59.4329 55.5649L59.4299 55.563C58.2401 54.4588 57.3543 53.1804 56.5823 51.8022L56.4729 51.6079L56.4719 51.6069C54.4437 47.9881 53.2735 43.9345 52.1096 40.0571C51.9468 39.516 51.7786 38.9764 51.6067 38.437V38.436C51.4212 37.8535 51.2487 37.2688 51.0901 36.6772V36.6763C49.8543 32.0266 49.249 29.7554 48.2942 27.6733C47.3428 25.5987 46.041 23.7046 43.3782 19.8403C43.3363 19.7988 43.2946 19.7574 43.2512 19.7144C42.108 18.581 41.004 18.0952 39.3821 18.0952H37.717L39.1292 17.2124C39.5777 16.9321 40.0307 16.703 40.2678 16.5679C40.3578 16.5163 40.4476 16.4647 40.5403 16.4116L40.5422 16.4106C40.6891 16.3273 40.6893 16.3277 40.8391 16.2427C40.9413 16.1843 41.0436 16.1263 41.1458 16.0679L41.7874 15.7007C42.2731 15.4235 42.7573 15.1436 43.2434 14.8628L43.2444 14.8618C43.4328 14.7532 43.6214 14.6452 43.8098 14.5366C44.1546 14.3378 44.4992 14.1381 44.843 13.938L45.304 13.6704C45.495 13.5595 45.6856 13.4478 45.8762 13.3364L45.8782 13.3354C46.9005 12.7427 47.8536 12.3408 48.843 12.2866C49.7214 12.2386 50.5816 12.4665 51.5012 12.9927L51.8997 13.2368L51.9075 13.2417L51.9143 13.2476C52.3601 13.5634 52.781 13.8991 53.1887 14.2593H53.1897L53.3518 14.4028L53.3577 14.4077L53.3635 14.4136C56.1514 17.0429 57.5829 21.1008 58.7649 24.4634C58.8013 24.5664 58.8377 24.6698 58.8752 24.7759L58.8762 24.7778C59.9872 27.9436 60.8965 31.1833 61.842 34.3755C62.8046 37.6247 63.7884 40.8468 65.1575 43.9116V43.9126C65.1957 43.9983 65.2343 44.084 65.2737 44.1724H65.2727C66.3082 46.4709 67.6413 48.808 69.5872 50.3022L69.9846 50.5894L69.9973 50.5981L70.01 50.6079C70.0403 50.6315 70.0703 50.6554 70.1008 50.6792C70.1313 50.703 70.1624 50.7272 70.1936 50.7515L70.3772 50.895V51.5845Z" fill="#D5FF4D" stroke="#64748B" stroke-width="0.955224" stroke-miterlimit="16"/>
<path d="M15.3789 0.541504C15.8029 0.603195 16.1381 0.807509 16.3945 0.950684L16.3936 0.95166L16.6914 1.11572L16.6924 1.1167C16.7977 1.17592 16.9035 1.23517 17.0088 1.29443H17.0078C17.1164 1.35518 17.2254 1.41535 17.334 1.47607H17.335C17.9552 1.82347 18.5726 2.17781 19.1855 2.54248L20.0576 3.05225C20.35 3.22067 20.6437 3.38812 20.9385 3.55615C21.7595 4.02422 22.5798 4.49424 23.3984 4.96729C24.3824 5.53578 25.5424 6.09443 26.6436 6.69678L27.3789 7.09912L26.6582 7.52686C26.1409 7.8341 25.9213 7.95164 25.5791 8.13135L25.5801 8.13232L25.1543 8.36279C25.0761 8.40524 24.9995 8.447 24.9189 8.49072L24.918 8.48975C24.6859 8.61808 24.4562 8.75074 24.2256 8.88428L23.5273 9.29248C23.4333 9.34755 23.3391 9.40273 23.2422 9.45947C23.1093 9.5373 22.9756 9.61397 22.8428 9.69189C22.8884 9.99952 22.9603 10.2997 23.0488 10.6128L23.1738 11.0337V11.0356C23.2038 11.1348 23.2347 11.2352 23.2656 11.3374L23.5615 12.3052V12.3062C23.6126 12.4735 23.6637 12.6408 23.7148 12.8081C24.254 14.5716 24.8077 16.3242 25.415 18.0581L25.5293 18.3833H25.5283C26.3973 20.8409 27.3786 23.3032 28.8271 25.4146L29.123 25.8325L29.124 25.8335C29.1611 25.8845 29.1981 25.9353 29.2363 25.9878L29.4824 26.3169C30.0725 27.0931 30.7746 27.9121 31.4902 28.3892L31.8242 28.6118L31.6621 28.979C31.5754 29.1761 31.5108 29.3143 31.4463 29.4438L31.2324 29.8569C31.1895 29.9396 31.1458 30.0237 31.1016 30.1089L31.0996 30.1128C31.0537 30.1989 31.0063 30.2858 30.959 30.3745C30.9115 30.4643 30.8644 30.5554 30.8154 30.6479L30.8145 30.6499C30.3447 31.5282 29.7943 32.5081 29.1006 33.3569C28.405 34.208 27.5443 34.9544 26.4414 35.3325L26.4248 35.3374L26.4072 35.3423C24.9922 35.7136 23.7315 35.2472 22.6182 34.6021L22.6084 34.5962L22.5996 34.5903C19.4952 32.5882 17.5482 29.2128 16.1455 25.606C14.8109 22.174 13.9307 18.4265 13.0479 15.3696C12.9798 15.3947 12.9145 15.4229 12.8477 15.4604L12.8467 15.4614C12.7858 15.4953 12.7248 15.53 12.6621 15.5649L12.6611 15.564C12.569 15.6166 12.5668 15.6189 12.4697 15.6743L12.4678 15.6753C12.4001 15.7134 12.3324 15.7522 12.2627 15.7915L12.2617 15.7905C11.4515 16.2499 10.3794 16.8917 9.5791 17.3784L8.45312 18.063L8.87891 16.8159C9.05723 16.2935 9.10708 16.221 9.19238 15.9946H9.19336C9.2364 15.8786 9.23577 15.8773 9.28027 15.7573L9.28223 15.7534C9.31528 15.6668 9.34779 15.5809 9.38184 15.4917C9.41536 15.4019 9.44984 15.3107 9.48438 15.2183C9.59823 14.9139 9.71264 14.6099 9.82715 14.3071C9.90716 14.0937 9.98755 13.88 10.0674 13.6665C10.1924 13.3323 10.3179 12.9979 10.4434 12.6636C10.8492 11.5823 11.2485 10.4981 11.6475 9.4126C11.839 8.89168 12.0309 8.3707 12.2227 7.8501C12.2599 7.7489 12.2975 7.64772 12.3359 7.54346C12.7796 6.33891 13.2248 5.1348 13.6699 3.93115C13.6982 3.85462 13.7257 3.77854 13.7549 3.69971C13.8097 3.55145 13.865 3.40264 13.9199 3.25439C14.059 2.87865 14.197 2.50268 14.334 2.12646L14.335 2.12549C14.3632 2.04822 14.3908 1.97072 14.4199 1.89111L14.5811 1.44775L14.582 1.44678C14.6683 1.21071 14.723 1.0576 14.7695 0.958496C14.7973 0.89946 14.8298 0.842732 14.873 0.786621C14.9118 0.736419 14.9529 0.696007 14.9727 0.67627L15.1416 0.507324L15.3789 0.541504Z" fill="#D5FF4D" stroke="#64748B" stroke-width="0.955224" stroke-miterlimit="16"/>
<path d="M38.155 18.0869C39.456 17.6601 40.7059 18.0503 41.7605 18.6201L42.2009 18.873L42.2332 18.8936L42.2615 18.918C42.322 18.9696 42.3658 19.0028 42.5007 19.1455L42.7078 19.3643L42.6003 19.6445C42.5016 19.9019 42.3661 20.2073 42.239 20.4541L42.0193 20.9004C41.9586 21.0237 41.9566 21.0246 41.8962 21.1475L41.8972 21.1484C41.7931 21.3656 41.6926 21.5844 41.5935 21.8057L41.2976 22.4766C40.3381 24.6485 39.8433 25.7696 39.3943 26.5615C38.9328 27.3755 38.5155 27.8486 37.7468 28.7236L37.7458 28.7227C37.6989 28.7785 37.6516 28.8372 37.6033 28.8945L37.5974 28.9014L37.5916 28.9072C37.0301 29.5249 36.3249 30.0019 35.6179 30.4102C35.2634 30.6149 34.9009 30.8064 34.5515 30.9902C34.1995 31.1754 33.8619 31.352 33.5427 31.5332L31.8503 32.5029C31.7086 32.5845 31.7087 32.5848 31.5642 32.668L31.5632 32.667C31.2716 32.8353 30.8446 33.0793 30.491 33.2803C30.3138 33.381 30.1545 33.4711 30.0398 33.5361C29.9827 33.5685 29.937 33.5952 29.905 33.6133C29.8891 33.6223 29.8763 33.63 29.8679 33.6348L29.8562 33.6406L29.8552 33.6416L29.8523 33.6436H29.8513L29.8503 33.6445C29.8493 33.6451 29.8473 33.6455 29.8455 33.6465C29.8417 33.6485 29.8365 33.6516 29.8298 33.6553C29.8161 33.6629 29.7959 33.6741 29.7712 33.6875C29.7221 33.7142 29.653 33.7508 29.574 33.792C29.4187 33.873 29.2126 33.9774 29.0359 34.0518L27.491 34.7012L28.4607 33.335C28.5132 33.261 28.5755 33.1894 28.6189 33.1387C28.6688 33.0804 28.7009 33.0417 28.7244 33.0088C30.2372 30.8337 31.2597 28.3722 32.3679 25.8936L33.3279 23.7578C34.1791 21.8824 34.7371 20.7485 35.281 20.002C36.0565 18.9376 36.8271 18.6296 38.1228 18.0986L38.1384 18.0918L38.155 18.0869Z" fill="#A5C63B" stroke="#64748B" stroke-width="0.955224" stroke-miterlimit="16"/>
<path d="M5.70164 30.5879C5.90431 30.6036 6.10693 30.62 6.30952 30.6368C6.47877 30.6504 6.47877 30.6504 6.65145 30.6643C6.93137 30.6997 6.93137 30.6997 7.04316 30.8115C7.04771 30.9977 7.04794 31.1842 7.04316 31.3704C6.493 31.3891 6.09253 31.3982 5.58984 31.1469C5.62674 30.9624 5.66363 30.7779 5.70164 30.5879Z" fill="#64748B"/>
<path d="M0.223587 29.6938C0.407901 29.6981 0.592053 29.7111 0.775569 29.7288C0.875725 29.7376 0.97588 29.7464 1.07907 29.7554C1.34152 29.8056 1.34152 29.8056 1.56511 30.0292C1.52319 30.2668 1.52319 30.2668 1.45332 30.4764C1.29499 30.4825 1.1366 30.4868 0.978195 30.4904C0.89 30.493 0.801805 30.4956 0.710938 30.4982C0.423998 30.4745 0.246884 30.3966 0 30.2528C0.0978195 29.8196 0.0978195 29.8196 0.223587 29.6938Z" fill="#64748B"/>
<path d="M2.12402 31.2586C2.12402 31.4431 2.12402 31.6276 2.12402 31.8176C1.40854 32.2717 1.40854 32.2717 1.06896 32.2368C1.01132 32.2092 0.953678 32.1815 0.894287 32.153C0.915248 31.8945 0.915248 31.8945 1.00608 31.594C1.37863 31.2939 1.65024 31.218 2.12402 31.2586Z" fill="#64748B"/>
<path d="M6.14892 28.9113C6.18581 29.0589 6.2227 29.2065 6.26071 29.3585C6.14097 29.4557 6.01952 29.5508 5.89738 29.645C5.82994 29.6982 5.7625 29.7513 5.69301 29.8061C5.47816 29.9175 5.47816 29.9175 5.22837 29.8786C5.16323 29.8545 5.09809 29.8305 5.03098 29.8057C4.99409 29.6581 4.9572 29.5106 4.91919 29.3585C5.34366 29.0426 5.61071 28.848 6.14892 28.9113Z" fill="#64748B"/>
<path d="M2.45969 28.3521C2.7252 28.38 2.7252 28.38 3.01866 28.4638C3.17238 28.6595 3.17238 28.6595 3.24225 28.911C3.20033 29.2185 3.20033 29.2185 3.13046 29.47C2.98289 29.47 2.83532 29.47 2.68328 29.47C2.48066 29.2254 2.48066 29.2254 2.3479 28.911C2.38284 28.5966 2.38284 28.5966 2.45969 28.3521Z" fill="#64748B"/>
<path d="M4.02461 31.5942C4.23423 31.6292 4.23423 31.6292 4.47179 31.706C4.72781 32.0901 4.71532 32.2634 4.69538 32.7122C4.51092 32.7122 4.32646 32.7122 4.13641 32.7122C3.95474 32.4047 3.95474 32.4047 3.80103 32.0414C3.89186 31.7759 3.89186 31.7759 4.02461 31.5942Z" fill="#64748B"/>
<path d="M66.2097 28.9111C66.7976 28.9869 67.2579 29.3721 67.7447 29.6941C68.2041 30.0045 68.2041 30.0045 68.7321 30.0234C68.8208 29.9656 68.9096 29.9078 69.0011 29.8483C69.1256 29.7752 69.2501 29.7022 69.3784 29.6269C69.5827 29.5032 69.7861 29.3786 69.988 29.2511C70.3149 29.0553 70.509 28.9488 70.8946 28.9832C71.0087 29.024 71.0087 29.024 71.1252 29.0657C71.1182 29.3155 71.1182 29.3155 71.0134 29.6247C70.7509 29.8097 70.5136 29.9551 70.2308 30.0998C70.0864 30.1772 69.9419 30.2546 69.7976 30.3321C69.6823 30.3938 69.567 30.4555 69.4482 30.519C69.4114 30.5559 69.3745 30.5928 69.3365 30.6308C69.9267 30.9629 70.517 31.2949 71.1252 31.637C71.1252 31.8214 71.1252 32.0059 71.1252 32.1959C70.3578 32.1434 69.8956 31.839 69.2727 31.4106C68.8609 31.1329 68.8609 31.1329 68.3836 31.1308C68.2922 31.1872 68.2009 31.2435 68.1067 31.3016C67.9822 31.3734 67.8577 31.4451 67.7294 31.5191C67.5254 31.6411 67.3221 31.764 67.1198 31.889C66.724 32.1238 66.4455 32.2503 65.9826 32.1959C65.9458 32.0484 65.9089 31.9008 65.8708 31.7488C66.4551 31.3513 67.0411 30.9729 67.6595 30.6308C67.2137 30.2444 66.7342 29.9684 66.2185 29.6876C65.9826 29.5129 65.9826 29.5129 65.8866 29.2753C65.8814 29.2062 65.8762 29.137 65.8708 29.0657C65.9826 28.9539 65.9826 28.9539 66.2097 28.9111Z" fill="#64748B"/>
<path d="M36.6282 57.106C37.3022 57.6092 37.3022 57.6092 37.473 57.9508C37.5026 58.4021 37.5147 58.685 37.2195 59.049C36.6115 59.6571 35.9518 59.8413 35.1077 59.8462C34.2778 59.8346 33.5401 59.7168 32.9113 59.1334C32.6432 58.8221 32.6126 58.5358 32.6291 58.1372C32.6857 57.7702 32.8604 57.5476 33.1508 57.3251C34.0696 56.7196 35.6324 56.5548 36.6282 57.106ZM33.1647 58.0352C33.1083 58.2814 33.1083 58.2814 33.1647 58.5421C33.466 58.9503 33.8618 59.1788 34.3474 59.3024C35.2004 59.3808 35.9604 59.34 36.7127 58.9011C36.9467 58.6379 36.9784 58.4698 36.9661 58.1197C36.6776 57.7062 36.2657 57.4781 35.7835 57.3594C34.8446 57.2436 33.8245 57.2544 33.1647 58.0352Z" fill="#64748B"/>
<path d="M35.8776 5.67775C35.9177 5.67754 35.9578 5.67733 35.9991 5.67712C36.1323 5.67653 36.2655 5.67641 36.3988 5.67635C36.491 5.67615 36.5833 5.67594 36.6755 5.67573C36.8692 5.67536 37.0628 5.67524 37.2564 5.67528C37.505 5.67529 37.7535 5.67444 38.002 5.67338C38.1926 5.6727 38.3832 5.67257 38.5738 5.6726C38.6655 5.67253 38.7571 5.67226 38.8488 5.67178C38.9768 5.67118 39.1048 5.67135 39.2328 5.67173C39.3057 5.67164 39.3787 5.67155 39.4538 5.67146C39.6251 5.68671 39.6251 5.68671 39.7485 5.81005C39.7154 6.0281 39.7154 6.0281 39.6251 6.1184C39.4971 6.12486 39.3689 6.12694 39.2408 6.12736C39.2007 6.12756 39.1606 6.12777 39.1192 6.12798C38.986 6.12857 38.8528 6.12869 38.7196 6.12876C38.6273 6.12896 38.5351 6.12916 38.4428 6.12938C38.2492 6.12975 38.0555 6.12986 37.8619 6.12983C37.6134 6.12982 37.3649 6.13066 37.1163 6.13172C36.9257 6.13241 36.7351 6.13253 36.5445 6.1325C36.4529 6.13258 36.3612 6.13285 36.2696 6.13332C36.1416 6.13393 36.0136 6.13375 35.8855 6.13338C35.7761 6.13351 35.7761 6.13351 35.6645 6.13365C35.4932 6.1184 35.4932 6.1184 35.3699 5.99506C35.4228 5.64557 35.5464 5.67882 35.8776 5.67775Z" fill="#64748B"/>
<path d="M33.8114 7.5293C33.8869 7.52943 33.9624 7.52957 34.0401 7.52971C34.1024 7.5297 34.1024 7.5297 34.1659 7.52968C34.3037 7.52973 34.4415 7.53021 34.5793 7.53069C34.6747 7.53081 34.77 7.53089 34.8653 7.53095C35.1166 7.53119 35.368 7.5318 35.6193 7.53248C35.8756 7.53311 36.1318 7.53339 36.3881 7.5337C36.8913 7.53436 37.3945 7.53542 37.8977 7.53671C37.9004 7.63946 37.9002 7.74231 37.8977 7.84506C37.8361 7.90673 37.8361 7.90673 37.6694 7.91415C37.5951 7.91401 37.5207 7.91388 37.4441 7.91374C37.4032 7.91374 37.3623 7.91375 37.3201 7.91376C37.1843 7.91372 37.0485 7.91324 36.9127 7.91276C36.8188 7.91264 36.7248 7.91255 36.6309 7.91249C36.3832 7.91226 36.1355 7.91165 35.8878 7.91097C35.6353 7.91034 35.3827 7.91006 35.1302 7.90975C34.6343 7.90908 34.1384 7.90803 33.6425 7.90673C33.6189 7.8046 33.5985 7.70171 33.5808 7.59838C33.6425 7.53671 33.6425 7.53671 33.8114 7.5293Z" fill="#64748B"/>
</svg>
